<svg width="20" height="20" viewBox="0 0 20 20" fill="none" xmlns="http://www.w3.org/2000/svg">
<path d="M1.25 10C1.25 5.16797 5.16797 1.25 10 1.25C14.832 1.25 18.75 5.16797 18.75 10C18.75 14.832 14.832 18.75 10 18.75C5.16797 18.75 1.25 14.832 1.25 10ZM2.5 10C2.5 14.1406 5.85938 17.5 10 17.5C14.1406 17.5 17.5 14.1406 17.5 10C17.5 5.85938 14.1406 2.5 10 2.5C5.85938 2.5 2.5 5.85938 2.5 10Z" fill="#9933FF"/>
<path d="M8.75 11.4844L5.50781 8.24219L3.75 10L8.75 15L15.625 8.125L13.8672 6.36719L8.75 11.4844Z" fill="#9933FF"/>
</svg>
