<svg width="24" height="24" viewBox="0 0 24 24" fill="none" xmlns="http://www.w3.org/2000/svg">
<g clip-path="url(#clip0_953_8112)">
<path fill-rule="evenodd" clip-rule="evenodd" d="M10.2117 9.74006C9.66829 9.3187 9.40045 8.59809 9.58959 7.89225C9.7672 7.22943 10.3003 6.75684 10.9288 6.62451L10.4707 8.33437L11.1199 8.98364L12.0067 8.74598L12.4649 7.03612C12.943 7.46493 13.1684 8.14078 12.9908 8.80364C12.8017 9.50948 12.2094 9.99961 11.5282 10.0928L10.1888 15.091C10.7323 15.5124 11.0001 16.233 10.8109 16.9388C10.6333 17.6017 10.1002 18.0742 9.4717 18.2066L9.92986 16.4967L9.28059 15.8475L8.39371 16.0852L7.93556 17.795C7.45743 17.3662 7.23206 16.6903 7.40967 16.0275C7.59881 15.3217 8.19103 14.8315 8.87231 14.7383L10.2117 9.74006Z" fill="#9FACBA"/>
<path fill-rule="evenodd" clip-rule="evenodd" d="M9.92884 9.46443C9.92364 9.45811 9.91848 9.45173 9.91337 9.44531C9.919 9.44981 9.92467 9.45431 9.93039 9.45871L9.92884 9.46443ZM10.5366 6.75684C10.6611 6.69782 10.7927 6.65315 10.9288 6.62451L10.4706 8.33437L10.8385 8.70229L10.8385 8.70234L10.1893 8.05307L10.5366 6.75684ZM12.457 7.06546C12.7404 7.47571 12.8486 8.00297 12.7095 8.52229C12.5203 9.22814 11.9281 9.71831 11.2468 9.8115L9.90602 14.8153C10.0111 14.8968 10.1057 14.9894 10.1889 15.0909L11.5282 10.0928C12.2095 9.99965 12.8017 9.50948 12.9909 8.80364C13.1685 8.14078 12.943 7.46498 12.4649 7.03612L12.457 7.06546ZM10.2058 15.1044C10.7377 15.5276 10.998 16.2404 10.8109 16.9388C10.6333 17.6017 10.1002 18.0742 9.47167 18.2065L9.58253 17.7929C10.033 17.5793 10.3904 17.1768 10.5296 16.6574C10.6799 16.0966 10.5416 15.5264 10.2058 15.1044ZM9.28061 15.8475L8.39373 16.0852L7.93558 17.795C7.83203 17.7021 7.74039 17.5977 7.66211 17.4843L8.11239 15.8038L8.99927 15.5662L9.28061 15.8475Z" fill="#8D9CA8"/>
<path fill-rule="evenodd" clip-rule="evenodd" d="M0.910828 15.6562C1.20037 16.0829 1.78636 16.1951 2.21311 15.9056L5.16023 13.9059C5.58694 13.6163 5.69916 13.0303 5.40961 12.6036C5.12006 12.1769 4.53408 12.0647 4.10733 12.3542L1.1602 14.354C0.7335 14.6435 0.621328 15.2295 0.910828 15.6562Z" fill="#60B7FF"/>
<path fill-rule="evenodd" clip-rule="evenodd" d="M2.93103 15.4185L5.16022 13.9059C5.58692 13.6163 5.69914 13.0303 5.40959 12.6036C5.12005 12.1769 4.53406 12.0647 4.10731 12.3542L3.44276 12.8051L2.93103 15.4185Z" fill="#41A8FC"/>
<path fill-rule="evenodd" clip-rule="evenodd" d="M5.62183 14.303L5.28864 16.2605L5.17047 16.9739L7.68016 18.6437C7.93933 18.8161 8.09599 19.0645 8.1401 19.3726L8.37606 21.022C8.45008 21.534 8.09495 22.0091 7.58294 22.0831C7.07092 22.1571 6.59589 21.8019 6.52188 21.29L6.33747 19.9996L4.79374 18.9724L3.97356 22.507C3.85633 23.0102 3.35341 23.3231 2.85025 23.2059C2.3471 23.0887 2.0342 22.5857 2.15135 22.0826L3.9948 12.669C4.09994 12.0316 4.81431 11.6813 5.38506 12.0096C6.76211 12.7995 7.84614 13.4053 9.23416 14.1789C9.68538 14.4311 9.84672 15.0014 9.59453 15.4527C9.3423 15.9039 8.77202 16.0652 8.3208 15.813C7.31341 15.2515 6.6152 14.8728 5.62183 14.303Z" fill="#8AC9FE"/>
<path fill-rule="evenodd" clip-rule="evenodd" d="M7.27285 22.0763C6.89138 22.0033 6.58055 21.696 6.52191 21.29L6.3375 19.9996L5.31127 19.3168L5.32116 19.2741L6.86489 20.3013L7.0493 21.5917C7.0763 21.7786 7.15674 21.9444 7.27285 22.0763ZM2.88675 23.2136C2.69489 22.9946 2.60775 22.6895 2.67877 22.3843L4.52222 12.9707C4.62736 12.3333 5.34174 11.9831 5.91249 12.3113C7.14286 13.0171 8.13938 13.5759 9.32775 14.2388C9.29813 14.2172 9.26695 14.1972 9.23419 14.1789C7.84622 13.4053 6.76214 12.7995 5.3851 12.0096C4.81435 11.6813 4.09997 12.0316 3.99483 12.669L2.15142 22.0826C2.03424 22.5857 2.34713 23.0887 2.85033 23.2059C2.86247 23.2088 2.87461 23.2112 2.88675 23.2136Z" fill="#60B7FF"/>
<path fill-rule="evenodd" clip-rule="evenodd" d="M5.17047 16.9741L7.68016 18.6439C7.93933 18.8164 8.09599 19.0647 8.1401 19.3728L8.37606 21.0222C8.45008 21.5343 8.09495 22.0093 7.58294 22.0833C7.07092 22.1573 6.59589 21.8022 6.52188 21.2902L6.33747 19.9999L4.79374 18.9726L3.97356 22.5072C3.85633 23.0104 3.35341 23.3233 2.85025 23.2061C2.3471 23.0889 2.0342 22.5859 2.15135 22.0828L3.1518 16.9741H5.17047Z" fill="#A79BA7"/>
<path fill-rule="evenodd" clip-rule="evenodd" d="M7.27281 22.0765C6.89135 22.0035 6.58052 21.6962 6.52188 21.2902L6.33747 19.9999L4.79374 18.9726L4.78614 18.8078L6.84738 20.1794L7.04927 21.5919C7.07627 21.7788 7.1567 21.9447 7.27281 22.0765ZM2.88672 23.2138C2.87458 23.2114 2.86239 23.209 2.85025 23.2061C2.3471 23.0889 2.0342 22.5859 2.15135 22.0828L3.1518 16.9741H3.73825L2.67878 22.3845C2.60772 22.6897 2.69486 22.9948 2.88672 23.2138Z" fill="#837683"/>
<path d="M6.60359 11.1421C7.44794 10.9425 7.97062 10.0962 7.77103 9.25185C7.57144 8.4075 6.72516 7.88482 5.88082 8.08441C5.03647 8.284 4.51379 9.13028 4.71338 9.97463C4.91297 10.819 5.75924 11.3417 6.60359 11.1421Z" fill="#F6DCCD"/>
<path fill-rule="evenodd" clip-rule="evenodd" d="M6.24136 8.0459C5.37356 8.0459 4.6701 8.74935 4.6701 9.61715C4.6701 10.4849 5.37361 11.1884 6.24136 11.1884C6.321 11.1884 6.39928 11.1824 6.47573 11.171C5.71912 11.0578 5.13885 10.4052 5.13885 9.6171C5.13885 8.82899 5.71912 8.17645 6.47573 8.06324C6.39928 8.0519 6.32104 8.0459 6.24136 8.0459Z" fill="#F1CBBC"/>
<path fill-rule="evenodd" clip-rule="evenodd" d="M6.2085 21.7573H8.91478C9.06947 21.7573 9.19603 21.8839 9.19603 22.0386V22.9494C9.19603 23.104 9.06947 23.2306 8.91478 23.2306H6.2085C6.05381 23.2306 5.92725 23.104 5.92725 22.9494V22.0386C5.92725 21.8839 6.05381 21.7573 6.2085 21.7573Z" fill="#9FACBA"/>
<path fill-rule="evenodd" clip-rule="evenodd" d="M8.72723 21.7573H8.91478C9.06947 21.7573 9.19603 21.8839 9.19603 22.0386V22.9494C9.19603 23.104 9.06947 23.2306 8.91478 23.2306H6.2085C6.05381 23.2306 5.92725 23.104 5.92725 22.9494V22.7619H8.44598C8.60067 22.7619 8.72723 22.6353 8.72723 22.4806V21.7573Z" fill="#8D9CA8"/>
<path fill-rule="evenodd" clip-rule="evenodd" d="M15.6585 15.8843H19.1506V10.2583C19.1506 10.1034 19.277 9.97705 19.4319 9.97705H21.5533C21.7083 9.97705 21.8346 10.1034 21.8346 10.2583V15.8843L23.1253 16.7493C23.2056 16.8031 23.25 16.8862 23.25 16.9829V22.9492C23.25 23.1042 23.1237 23.2305 22.9688 23.2305H15.6585V22.6813H14.455V21.4956H15.6585V20.1502H14.455V18.9645H15.6585V17.6191H14.455V16.4335H15.6585V15.8843Z" fill="#9FACBA"/>
<path fill-rule="evenodd" clip-rule="evenodd" d="M21.3658 9.97705H21.5533C21.7083 9.97705 21.8346 10.1034 21.8346 10.2583V15.8843L21.3658 15.5701V9.97705H21.3658ZM22.7812 16.5186L23.1253 16.7492C23.2056 16.803 23.25 16.8862 23.25 16.9828V22.9492C23.25 23.1041 23.1237 23.2304 22.9688 23.2304H15.6585V22.7617H22.5C22.6549 22.7617 22.7812 22.6354 22.7812 22.4804V16.5186ZM15.6585 22.6813V22.2126H14.455V22.6813H15.6585ZM15.6585 20.1502V19.6814H14.455V20.1502H15.6585ZM15.6585 17.6191V17.1503H14.455V17.6191H15.6585Z" fill="#8D9CA8"/>
<path fill-rule="evenodd" clip-rule="evenodd" d="M21.8345 15.8843V23.2305H22.9687C23.1236 23.2305 23.25 23.1042 23.25 22.9492V16.9829C23.25 16.8863 23.2056 16.8031 23.1253 16.7493L21.8345 15.8843Z" fill="#8192A5"/>
<path fill-rule="evenodd" clip-rule="evenodd" d="M21.8345 22.7616V23.2304H22.9687C23.1236 23.2304 23.25 23.104 23.25 22.9491V16.9828C23.25 16.8861 23.2056 16.803 23.1253 16.7492L22.7812 16.5186V22.4804C22.7812 22.6353 22.6549 22.7616 22.5 22.7616H21.8345Z" fill="#65788E"/>
<path fill-rule="evenodd" clip-rule="evenodd" d="M17.9415 10.4658H16.2524C16.0977 10.4658 15.9711 10.5924 15.9711 10.7471V14.6436C15.9711 14.7982 16.0977 14.9248 16.2524 14.9248H17.9415C18.0962 14.9248 18.2227 14.7982 18.2227 14.6436V10.7471C18.2227 10.5924 18.0962 10.4658 17.9415 10.4658Z" fill="#8D9CA8"/>
<path fill-rule="evenodd" clip-rule="evenodd" d="M17.9415 10.4658H17.754V14.1748C17.754 14.3295 17.6274 14.4561 17.4727 14.4561H15.9711V14.6436C15.9711 14.7983 16.0977 14.9249 16.2524 14.9249H17.9415C18.0962 14.9249 18.2227 14.7983 18.2227 14.6436V10.7471C18.2227 10.5924 18.0962 10.4658 17.9415 10.4658Z" fill="#8192A5"/>
<path fill-rule="evenodd" clip-rule="evenodd" d="M18.2885 1.50172C18.6786 1.59453 19.0512 1.74922 19.3927 1.95945L20.1102 1.6408L20.9559 2.48647L20.6373 3.20375C20.8476 3.54528 21.0023 3.91803 21.0951 4.30822L21.8272 4.58998V5.78591L21.095 6.06772C21.0021 6.45786 20.8475 6.83042 20.6372 7.17191L20.9559 7.88942L20.1102 8.73509L19.393 8.41653C19.0514 8.62686 18.6787 8.7815 18.2885 8.87436L18.0067 9.60641H16.8108L16.529 8.87417C16.1389 8.78136 15.7663 8.62667 15.4248 8.41644L14.7073 8.73509L13.8616 7.88942L14.1802 7.17214C13.9699 6.83061 13.8153 6.45786 13.7224 6.06767L12.9904 5.78591V4.58998L13.7225 4.30817C13.8154 3.91803 13.97 3.54537 14.1803 3.20389L13.8617 2.48647L14.7073 1.6408L15.4248 1.95945C15.7662 1.74922 16.1389 1.59453 16.529 1.50172L16.8109 0.769531H18.0068L18.2885 1.50172Z" fill="#FFE177"/>
<path fill-rule="evenodd" clip-rule="evenodd" d="M15.4247 8.41648L14.7072 8.73514L14.5967 8.62466L15.2694 8.32587C15.3205 8.35737 15.3723 8.38756 15.4247 8.41648ZM18.2885 1.50181C18.6786 1.59462 19.0512 1.74931 19.3927 1.95955L19.1887 2.05011C18.8473 1.83987 18.3194 1.59462 17.9293 1.50177L17.6474 0.769531H18.0067L18.2885 1.50181ZM19.3929 8.41658C19.0514 8.62691 18.6786 8.78155 18.2884 8.87441L18.0067 9.60645H17.6475L17.9292 8.87441C18.3194 8.78159 18.8475 8.53634 19.1889 8.32597L19.3929 8.41658ZM14.5967 1.75137L14.7072 1.64089L15.4247 1.95955C15.3723 1.98847 15.3205 2.01866 15.2694 2.05011L14.5967 1.75137ZM19.8615 1.75137L20.1102 1.64089L20.9559 2.48656L20.6372 3.20384C20.8476 3.54537 21.0023 3.91812 21.0951 4.30831L21.8272 4.59008V5.786L21.095 6.06781C21.0021 6.45795 20.8475 6.83052 20.6372 7.172L20.9559 7.88952L20.1102 8.73519L19.8615 8.6247L20.5966 7.88952L20.2779 7.172C20.4882 6.83052 20.6429 6.45795 20.7357 6.06781L21.4679 5.786V4.59003L20.7359 4.30827C20.643 3.91808 20.4884 3.54533 20.278 3.2038L20.5966 2.48652L19.8615 1.75137Z" fill="#FFD064"/>
<path d="M18.8808 6.66395C19.6951 5.84961 19.6951 4.5293 18.8808 3.71496C18.0664 2.90062 16.7461 2.90062 15.9318 3.71496C15.1174 4.5293 15.1174 5.84961 15.9318 6.66395C16.7461 7.47829 18.0664 7.47829 18.8808 6.66395Z" fill="#ECEFF1"/>
<path fill-rule="evenodd" clip-rule="evenodd" d="M17.4087 3.10254C16.2568 3.10254 15.3231 4.0362 15.3231 5.1881C15.3231 6.34001 16.2568 7.27366 17.4087 7.27366C17.4645 7.27366 17.5198 7.27141 17.5746 7.2671C16.5002 7.18259 15.6549 6.28418 15.6549 5.1881C15.6549 4.09202 16.5002 3.19362 17.5746 3.1091C17.5199 3.10479 17.4646 3.10254 17.4087 3.10254Z" fill="#D1D1D6"/>
</g>
<defs>
<clipPath id="clip0_953_8112">
<rect width="24" height="24" fill="white"/>
</clipPath>
</defs>
</svg>
