<svg width="24" height="24" viewBox="0 0 24 24" fill="none" xmlns="http://www.w3.org/2000/svg">
<g clip-path="url(#clip0_200_5009)">
<path d="M0.517212 13.5104L4.38204 10.7959C4.53563 10.6392 4.74604 10.5511 4.96549 10.5518H12.8276C13.0471 10.5506 13.2577 10.6387 13.411 10.7959L10.7586 15.1035L0.517212 13.5104Z" fill="#D25627"/>
<path d="M10.8621 13.5104L14.7269 10.7959C14.8805 10.6392 15.0909 10.5511 15.3103 10.5518H23.1724C23.392 10.5506 23.6026 10.6387 23.7559 10.7959L20.4455 13.6925L10.8621 13.5104Z" fill="#CB8252"/>
<path d="M20.4455 13.6925L23.7558 10.7959C23.913 10.9492 24.0011 11.1598 24 11.3793V19.2414C24.0006 19.4609 23.9126 19.6713 23.7558 19.8249L20.4455 23.1352V13.6925Z" fill="#A56A43"/>
<path d="M20.6897 14.2758V22.5517C20.6863 23.0074 20.3177 23.3759 19.8621 23.3793H11.1724C10.7159 23.3779 10.3462 23.0082 10.3448 22.5517V14.2758C10.3445 13.9389 10.5494 13.6357 10.8621 13.5103C10.9603 13.4688 11.0658 13.4477 11.1724 13.4483H19.8621C20.3177 13.4516 20.6863 13.8202 20.6897 14.2758Z" fill="#CF976A"/>
<path d="M14.069 20.0688H12.4138C12.1853 20.0688 12 20.2541 12 20.4826V21.3102C12 21.5388 12.1853 21.724 12.4138 21.724H14.069C14.2975 21.724 14.4828 21.5388 14.4828 21.3102V20.4826C14.4828 20.2541 14.2975 20.0688 14.069 20.0688Z" fill="white"/>
<path d="M19.0345 20.4826H17.7931C17.5646 20.4826 17.3793 20.2974 17.3793 20.0688C17.3793 19.8403 17.5646 19.655 17.7931 19.655H19.0345C19.263 19.655 19.4483 19.8403 19.4483 20.0688C19.4483 20.2974 19.263 20.4826 19.0345 20.4826Z" fill="#D25627"/>
<path d="M19.0345 22.1379H17.7931C17.5646 22.1379 17.3793 21.9526 17.3793 21.7241C17.3793 21.4956 17.5646 21.3103 17.7931 21.3103H19.0345C19.263 21.3103 19.4483 21.4956 19.4483 21.7241C19.4483 21.9526 19.263 22.1379 19.0345 22.1379Z" fill="#D25627"/>
<path d="M10.3448 14.2758V22.5517C10.3414 23.0074 9.9729 23.3759 9.51724 23.3793H0.827587C0.371089 23.3779 0.0013638 23.0082 4.3043e-07 22.5517V14.2758C-0.000342716 13.9389 0.204513 13.6357 0.517242 13.5103C0.615413 13.4688 0.721 13.4477 0.827587 13.4483H9.51724C9.9729 13.4516 10.3414 13.8202 10.3448 14.2758Z" fill="#E57E25"/>
<path d="M3.72412 20.0688H2.06894C1.84041 20.0688 1.65515 20.2541 1.65515 20.4826V21.3102C1.65515 21.5388 1.84041 21.724 2.06894 21.724H3.72412C3.95265 21.724 4.13791 21.5388 4.13791 21.3102V20.4826C4.13791 20.2541 3.95265 20.0688 3.72412 20.0688Z" fill="white"/>
<path d="M8.68966 20.4826H7.44828C7.21975 20.4826 7.03448 20.2974 7.03448 20.0688C7.03448 19.8403 7.21975 19.655 7.44828 19.655H8.68966C8.91819 19.655 9.10345 19.8403 9.10345 20.0688C9.10345 20.2974 8.91819 20.4826 8.68966 20.4826Z" fill="#D25627"/>
<path d="M8.68966 22.1379H7.44828C7.21975 22.1379 7.03448 21.9526 7.03448 21.7241C7.03448 21.4956 7.21975 21.3103 7.44828 21.3103H8.68966C8.91819 21.3103 9.10345 21.4956 9.10345 21.7241C9.10345 21.9526 8.91819 22.1379 8.68966 22.1379Z" fill="#D25627"/>
<path d="M5.89655 3.57924L9.76137 0.864755C9.91497 0.708012 10.1254 0.619971 10.3448 0.620617H18.2069C18.4264 0.619449 18.637 0.707572 18.7903 0.864755L15.48 3.76131L5.89655 3.57924Z" fill="#E57E25"/>
<path d="M15.48 3.7613L18.7903 0.864746C18.9475 1.01804 19.0356 1.22864 19.0345 1.44819V9.31026C19.0351 9.52971 18.9471 9.74012 18.7903 9.89371L15.48 13.2041V3.7613Z" fill="#A56A43"/>
<path d="M15.48 13.2041L15.4552 13.2331L15.48 13.2041Z" fill="#E57E25"/>
<path d="M15.1573 0.620605L11.4331 3.51716H10.0842L13.8083 0.620605H15.1573Z" fill="#A56A43"/>
<path d="M15.7242 4.34469V12.6205C15.7208 13.0762 15.3522 13.4448 14.8966 13.4481H6.20692C5.75042 13.4468 5.3807 13.077 5.37933 12.6205V4.34469C5.37899 4.00775 5.58385 3.70457 5.89658 3.57917C5.99475 3.53766 6.10033 3.51654 6.20692 3.5171H14.8966C15.3522 3.52048 15.7208 3.88903 15.7242 4.34469Z" fill="#F29C1F"/>
<path d="M9.10345 10.1379H7.44828C7.21975 10.1379 7.03448 10.3232 7.03448 10.5517V11.3793C7.03448 11.6079 7.21975 11.7931 7.44828 11.7931H9.10345C9.33198 11.7931 9.51724 11.6079 9.51724 11.3793V10.5517C9.51724 10.3232 9.33198 10.1379 9.10345 10.1379Z" fill="white"/>
<path d="M14.069 10.5517H12.8276C12.5991 10.5517 12.4138 10.3664 12.4138 10.1379C12.4138 9.90938 12.5991 9.72412 12.8276 9.72412H14.069C14.2975 9.72412 14.4828 9.90938 14.4828 10.1379C14.4828 10.3664 14.2975 10.5517 14.069 10.5517Z" fill="#D25627"/>
<path d="M14.069 12.207H12.8276C12.5991 12.207 12.4138 12.0217 12.4138 11.7932C12.4138 11.5647 12.5991 11.3794 12.8276 11.3794H14.069C14.2975 11.3794 14.4828 11.5647 14.4828 11.7932C14.4828 12.0217 14.2975 12.207 14.069 12.207Z" fill="#D25627"/>
</g>
<defs>
<clipPath id="clip0_200_5009">
<rect width="24" height="24" fill="white"/>
</clipPath>
</defs>
</svg>
