<svg width="20" height="20" viewBox="0 0 20 20" fill="none" xmlns="http://www.w3.org/2000/svg">
<mask id="mask0_361_10236" style="mask-type:alpha" maskUnits="userSpaceOnUse" x="0" y="0" width="20" height="20">
<rect width="20" height="20" fill="#D9D9D9"/>
</mask>
<g mask="url(#mask0_361_10236)">
<path d="M7.71077 18.3332L7.37744 15.6665C7.19689 15.5971 7.02675 15.5137 6.86702 15.4165C6.7073 15.3193 6.55105 15.2151 6.39827 15.104L3.91911 16.1457L1.62744 12.1873L3.77327 10.5623C3.75939 10.4651 3.75244 10.3714 3.75244 10.2811V9.71859C3.75244 9.62831 3.75939 9.53456 3.77327 9.43734L1.62744 7.81234L3.91911 3.854L6.39827 4.89567C6.55105 4.78456 6.71077 4.68039 6.87744 4.58317C7.04411 4.48595 7.21077 4.40262 7.37744 4.33317L7.71077 1.6665H12.2941L12.6274 4.33317C12.808 4.40262 12.9781 4.48595 13.1379 4.58317C13.2976 4.68039 13.4538 4.78456 13.6066 4.89567L16.0858 3.854L18.3774 7.81234L16.2316 9.43734C16.2455 9.53456 16.2524 9.62831 16.2524 9.71859V10.2811C16.2524 10.3714 16.2386 10.4651 16.2108 10.5623L18.3566 12.1873L16.0649 16.1457L13.6066 15.104C13.4538 15.2151 13.2941 15.3193 13.1274 15.4165C12.9608 15.5137 12.7941 15.5971 12.6274 15.6665L12.2941 18.3332H7.71077ZM9.16911 16.6665H10.8149L11.1066 14.4582C11.5372 14.3471 11.9365 14.1839 12.3045 13.9686C12.6726 13.7533 13.0094 13.4929 13.3149 13.1873L15.3774 14.0415L16.1899 12.6248L14.3983 11.2707C14.4677 11.0762 14.5163 10.8714 14.5441 10.6561C14.5719 10.4408 14.5858 10.2221 14.5858 9.99984C14.5858 9.77761 14.5719 9.55887 14.5441 9.34359C14.5163 9.12831 14.4677 8.92345 14.3983 8.729L16.1899 7.37484L15.3774 5.95817L13.3149 6.83317C13.0094 6.51373 12.6726 6.24637 12.3045 6.03109C11.9365 5.81581 11.5372 5.65262 11.1066 5.5415L10.8358 3.33317H9.18994L8.89827 5.5415C8.46772 5.65262 8.06841 5.81581 7.70036 6.03109C7.3323 6.24637 6.9955 6.50678 6.68994 6.81234L4.62744 5.95817L3.81494 7.37484L5.60661 8.70817C5.53716 8.9165 5.48855 9.12484 5.46077 9.33317C5.433 9.5415 5.41911 9.76373 5.41911 9.99984C5.41911 10.2221 5.433 10.4373 5.46077 10.6457C5.48855 10.854 5.53716 11.0623 5.60661 11.2707L3.81494 12.6248L4.62744 14.0415L6.68994 13.1665C6.9955 13.4859 7.3323 13.7533 7.70036 13.9686C8.06841 14.1839 8.46772 14.3471 8.89827 14.4582L9.16911 16.6665ZM10.0441 12.9165C10.8497 12.9165 11.5372 12.6318 12.1066 12.0623C12.6761 11.4929 12.9608 10.8054 12.9608 9.99984C12.9608 9.19428 12.6761 8.50678 12.1066 7.93734C11.5372 7.36789 10.8497 7.08317 10.0441 7.08317C9.22466 7.08317 8.53369 7.36789 7.97119 7.93734C7.40869 8.50678 7.12744 9.19428 7.12744 9.99984C7.12744 10.8054 7.40869 11.4929 7.97119 12.0623C8.53369 12.6318 9.22466 12.9165 10.0441 12.9165Z" fill="#9933FF"/>
</g>
</svg>
