<svg width="37" height="37" viewBox="0 0 37 37" fill="none" xmlns="http://www.w3.org/2000/svg">
<path d="M34.1094 5.78125H2.89062C2.43079 5.78175 1.98994 5.96464 1.66479 6.28979C1.33964 6.61494 1.15675 7.05579 1.15625 7.51562V24.2812H35.8438V7.51562C35.8432 7.05579 35.6604 6.61494 35.3352 6.28979C35.0101 5.96464 34.5692 5.78175 34.1094 5.78125Z" fill="#616161"/>
<path d="M22.5469 26.5938H14.4531V31.7969H22.5469V26.5938Z" fill="#616161"/>
<path d="M32.9531 8.09375H4.04688C3.89355 8.09375 3.7465 8.15466 3.63808 8.26308C3.52966 8.3715 3.46875 8.51855 3.46875 8.67188V24.2812H33.5312V8.67188C33.5312 8.51855 33.4703 8.3715 33.3619 8.26308C33.2535 8.15466 33.1065 8.09375 32.9531 8.09375Z" fill="#90CAF9"/>
<path d="M1.15625 23.125V26.0156C1.15675 26.4755 1.33964 26.9163 1.66479 27.2415C1.98994 27.5666 2.43079 27.7495 2.89062 27.75H34.1094C34.5692 27.7495 35.0101 27.5666 35.3352 27.2415C35.6604 26.9163 35.8432 26.4755 35.8438 26.0156V23.125H1.15625Z" fill="#424242"/>
<path d="M23.125 30.6406H13.875C13.4152 30.6411 12.9743 30.824 12.6492 31.1492C12.324 31.4743 12.1411 31.9152 12.1406 32.375V34.1094C12.1406 34.1853 12.1555 34.2605 12.1846 34.3306C12.2136 34.4008 12.2562 34.4645 12.3099 34.5182C12.3636 34.5719 12.4273 34.6145 12.4975 34.6435C12.5676 34.6726 12.6428 34.6875 12.7188 34.6875H24.2812C24.3572 34.6875 24.4324 34.6726 24.5025 34.6436C24.5727 34.6145 24.6365 34.572 24.6901 34.5183C24.7438 34.4646 24.7864 34.4008 24.8155 34.3307C24.8445 34.2605 24.8594 34.1853 24.8594 34.1094V32.375C24.8589 31.9152 24.676 31.4743 24.3508 31.1492C24.0257 30.824 23.5848 30.6411 23.125 30.6406Z" fill="#424242"/>
<path d="M18.5 17.9219C22.3315 17.9219 25.4375 14.8159 25.4375 10.9844C25.4375 7.1529 22.3315 4.04688 18.5 4.04688C14.6685 4.04688 11.5625 7.1529 11.5625 10.9844C11.5625 14.8159 14.6685 17.9219 18.5 17.9219Z" fill="#F5F5F5"/>
<path d="M18.5 8.09375C18.4241 8.09373 18.3489 8.10867 18.2787 8.13772C18.2086 8.16676 18.1449 8.20935 18.0912 8.26303C18.0375 8.31672 17.9949 8.38046 17.9659 8.45061C17.9368 8.52076 17.9219 8.59595 17.9219 8.67188V10.9104L17.1001 11.7319C16.9928 11.8405 16.9327 11.9872 16.9332 12.14C16.9336 12.2927 16.9945 12.4391 17.1025 12.5471C17.2105 12.6551 17.3569 12.7159 17.5096 12.7164C17.6623 12.7168 17.809 12.6567 17.9177 12.5494L18.9087 11.5585C18.9624 11.5049 19.0051 11.4412 19.0341 11.371C19.0632 11.3009 19.0781 11.2257 19.0781 11.1498V8.67188C19.0782 8.59595 19.0632 8.52076 19.0342 8.45061C19.0051 8.38046 18.9625 8.31672 18.9088 8.26303C18.8552 8.20935 18.7914 8.16676 18.7213 8.13772C18.6511 8.10867 18.5759 8.09373 18.5 8.09375Z" fill="#424242"/>
<path d="M18.5 6.9375C18.4241 6.93752 18.3489 6.92258 18.2787 6.89353C18.2086 6.86449 18.1448 6.8219 18.0912 6.76822C18.0375 6.71453 17.9949 6.65079 17.9658 6.58064C17.9368 6.51049 17.9219 6.4353 17.9219 6.35938V3.46875C17.9219 3.31542 17.9828 3.16837 18.0912 3.05995C18.1996 2.95153 18.3467 2.89062 18.5 2.89063C18.6533 2.89062 18.8004 2.95153 18.9088 3.05995C19.0172 3.16837 19.0781 3.31542 19.0781 3.46875V6.35938C19.0781 6.4353 19.0632 6.51049 19.0342 6.58064C19.0051 6.65079 18.9625 6.71453 18.9088 6.76822C18.8552 6.8219 18.7914 6.86449 18.7213 6.89353C18.6511 6.92258 18.5759 6.93752 18.5 6.9375Z" fill="#616161"/>
<path d="M18.5 19.0781C18.4241 19.0781 18.3489 19.0632 18.2787 19.0342C18.2086 19.0051 18.1448 18.9625 18.0912 18.9088C18.0375 18.8552 17.9949 18.7914 17.9658 18.7213C17.9368 18.6511 17.9219 18.5759 17.9219 18.5V15.6094C17.9219 15.456 17.9828 15.309 18.0912 15.2006C18.1996 15.0922 18.3467 15.0312 18.5 15.0312C18.6533 15.0312 18.8004 15.0922 18.9088 15.2006C19.0172 15.309 19.0781 15.456 19.0781 15.6094V18.5C19.0781 18.5759 19.0632 18.6511 19.0342 18.7213C19.0051 18.7914 18.9625 18.8552 18.9088 18.9088C18.8552 18.9625 18.7914 19.0051 18.7213 19.0342C18.6511 19.0632 18.5759 19.0781 18.5 19.0781Z" fill="#616161"/>
<path d="M26.0156 11.5625H23.125C22.9717 11.5625 22.8246 11.5016 22.7162 11.3932C22.6078 11.2848 22.5469 11.1377 22.5469 10.9844C22.5469 10.831 22.6078 10.684 22.7162 10.5756C22.8246 10.4672 22.9717 10.4062 23.125 10.4062H26.0156C26.169 10.4062 26.316 10.4672 26.4244 10.5756C26.5328 10.684 26.5938 10.831 26.5938 10.9844C26.5938 11.1377 26.5328 11.2848 26.4244 11.3932C26.316 11.5016 26.169 11.5625 26.0156 11.5625Z" fill="#616161"/>
<path d="M13.875 11.5625H10.9844C10.831 11.5625 10.684 11.5016 10.5756 11.3932C10.4672 11.2848 10.4062 11.1377 10.4062 10.9844C10.4062 10.831 10.4672 10.684 10.5756 10.5756C10.684 10.4672 10.831 10.4062 10.9844 10.4062H13.875C14.0283 10.4062 14.1754 10.4672 14.2838 10.5756C14.3922 10.684 14.4531 10.831 14.4531 10.9844C14.4531 11.1377 14.3922 11.2848 14.2838 11.3932C14.1754 11.5016 14.0283 11.5625 13.875 11.5625Z" fill="#616161"/>
<path d="M23.8143 5.0918C23.9287 5.09182 24.0404 5.12574 24.1355 5.18927C24.2305 5.25279 24.3046 5.34308 24.3483 5.4487C24.3921 5.55432 24.4035 5.67055 24.3812 5.78267C24.3589 5.8948 24.3039 5.9978 24.2231 6.07866L22.179 8.12243C22.1254 8.17611 22.0616 8.21869 21.9915 8.24774C21.9214 8.27679 21.8462 8.29174 21.7703 8.29174C21.6944 8.29174 21.6192 8.27679 21.5491 8.24774C21.4789 8.21869 21.4152 8.17611 21.3615 8.12243C21.3079 8.06875 21.2653 8.00503 21.2362 7.9349C21.2072 7.86476 21.1922 7.78959 21.1922 7.71368C21.1922 7.63777 21.2072 7.5626 21.2362 7.49247C21.2653 7.42233 21.3079 7.35861 21.3615 7.30493L23.4056 5.26117C23.4592 5.2074 23.5229 5.16476 23.5931 5.13569C23.6632 5.10662 23.7384 5.09171 23.8143 5.0918Z" fill="#616161"/>
<path d="M13.1857 16.8767C13.0713 16.8767 12.9596 16.8427 12.8645 16.7792C12.7695 16.7157 12.6954 16.6254 12.6517 16.5198C12.6079 16.4142 12.5965 16.2979 12.6188 16.1858C12.6411 16.0737 12.6961 15.9707 12.7769 15.8898L14.821 13.8461C14.8747 13.7924 14.9384 13.7498 15.0085 13.7208C15.0786 13.6917 15.1538 13.6768 15.2297 13.6768C15.3056 13.6768 15.3808 13.6917 15.4509 13.7208C15.5211 13.7498 15.5848 13.7924 15.6385 13.8461C15.6922 13.8997 15.7347 13.9635 15.7638 14.0336C15.7928 14.1037 15.8078 14.1789 15.8078 14.2548C15.8078 14.3307 15.7928 14.4059 15.7638 14.476C15.7347 14.5462 15.6922 14.6099 15.6385 14.6636L13.5944 16.7073C13.5408 16.7611 13.4771 16.8037 13.407 16.8328C13.3368 16.8619 13.2616 16.8768 13.1857 16.8767Z" fill="#616161"/>
<path d="M23.8143 16.8767C23.7384 16.8768 23.6632 16.8619 23.5931 16.8328C23.5229 16.8037 23.4592 16.7611 23.4056 16.7073L21.3616 14.6636C21.3079 14.6099 21.2653 14.5462 21.2363 14.476C21.2072 14.4059 21.1923 14.3307 21.1923 14.2548C21.1923 14.1789 21.2072 14.1037 21.2363 14.0336C21.2653 13.9635 21.3079 13.8997 21.3616 13.8461C21.4152 13.7924 21.479 13.7498 21.5491 13.7208C21.6192 13.6917 21.6944 13.6768 21.7703 13.6768C21.8462 13.6768 21.9214 13.6917 21.9915 13.7208C22.0617 13.7498 22.1254 13.7924 22.1791 13.8461L24.2231 15.8898C24.3039 15.9707 24.359 16.0737 24.3813 16.1858C24.4036 16.2979 24.3921 16.4142 24.3484 16.5198C24.3046 16.6254 24.2306 16.7157 24.1355 16.7792C24.0405 16.8427 23.9287 16.8767 23.8143 16.8767Z" fill="#616161"/>
<path d="M13.1856 5.0918C13.2616 5.09171 13.3368 5.10663 13.4069 5.1357C13.4771 5.16477 13.5408 5.20742 13.5944 5.26119L15.6384 7.30495C15.7468 7.41335 15.8077 7.56039 15.8077 7.7137C15.8077 7.86701 15.7468 8.01404 15.6384 8.12245C15.53 8.23086 15.383 8.29176 15.2297 8.29176C15.0764 8.29176 14.9293 8.23086 14.8209 8.12245L12.7769 6.07869C12.696 5.99784 12.641 5.89484 12.6187 5.78271C12.5964 5.67058 12.6079 5.55436 12.6516 5.44873C12.6954 5.34311 12.7694 5.25283 12.8645 5.1893C12.9595 5.12578 13.0713 5.09182 13.1856 5.0918Z" fill="#616161"/>
<path d="M18.5 2.3125C16.7849 2.3125 15.1083 2.8211 13.6822 3.77397C12.2561 4.72685 11.1446 6.08121 10.4882 7.66579C9.83188 9.25037 9.66015 10.994 9.99476 12.6762C10.3294 14.3584 11.1553 15.9035 12.3681 17.1163C13.5808 18.3291 15.126 19.155 16.8082 19.4896C18.4904 19.8242 20.234 19.6525 21.8186 18.9961C23.4032 18.3398 24.7575 17.2283 25.7104 15.8022C26.6633 14.3761 27.1719 12.6995 27.1719 10.9844C27.1693 8.68524 26.2549 6.481 24.6291 4.85526C23.0034 3.22952 20.7991 2.31506 18.5 2.3125ZM18.5 17.9219C17.1279 17.9219 15.7866 17.515 14.6457 16.7527C13.5049 15.9904 12.6157 14.9069 12.0906 13.6392C11.5655 12.3716 11.4281 10.9767 11.6958 9.63094C11.9635 8.28519 12.6242 7.04905 13.5945 6.07882C14.5647 5.1086 15.8008 4.44786 17.1466 4.18018C18.4923 3.91249 19.8872 4.04988 21.1549 4.57496C22.4225 5.10004 23.506 5.98924 24.2683 7.13011C25.0306 8.27097 25.4375 9.61227 25.4375 10.9844C25.4354 12.8237 24.7038 14.587 23.4033 15.8876C22.1027 17.1882 20.3393 17.9198 18.5 17.9219Z" fill="#F44336"/>
<path d="M30.6406 26.0156C30.9599 26.0156 31.2188 25.7568 31.2188 25.4375C31.2188 25.1182 30.9599 24.8594 30.6406 24.8594C30.3213 24.8594 30.0625 25.1182 30.0625 25.4375C30.0625 25.7568 30.3213 26.0156 30.6406 26.0156Z" fill="#F44336"/>
<path d="M28.9062 26.0156C29.2255 26.0156 29.4844 25.7568 29.4844 25.4375C29.4844 25.1182 29.2255 24.8594 28.9062 24.8594C28.587 24.8594 28.3281 25.1182 28.3281 25.4375C28.3281 25.7568 28.587 26.0156 28.9062 26.0156Z" fill="#FFB300"/>
</svg>
