<svg width="24" height="16" viewBox="0 0 24 16" fill="none" xmlns="http://www.w3.org/2000/svg">
<path d="M14.0309 11.7634C13.9067 11.8835 13.9039 12.0817 14.0248 12.2055L16.0547 14.297C16.1161 14.3601 16.1981 14.3919 16.2796 14.3919V14.3928H16.9683C17.1421 14.3928 17.2826 14.2526 17.2826 14.0793C17.2826 13.9059 17.1421 13.7657 16.9683 13.7657H16.4112L14.4741 11.7695C14.3537 11.6457 14.155 11.6429 14.0309 11.7634Z" fill="#FFC000"/>
<path d="M17.21 7.9715C17.21 7.79814 17.0695 7.65796 16.8956 7.65796H15.6621C15.4883 7.65796 15.3478 7.79814 15.3478 7.9715C15.3478 8.14486 15.4883 8.28505 15.6621 8.28505H16.8956C17.0695 8.28505 17.21 8.14486 17.21 7.9715Z" fill="#FFC000"/>
<path d="M14.0759 4.13364C14.2001 4.25419 14.3982 4.25139 14.5191 4.12756L16.4122 2.17714H16.9693C17.1431 2.17714 17.2836 2.03695 17.2836 1.86359C17.2836 1.69023 17.1431 1.55005 16.9693 1.55005H16.2801V1.55098C16.1981 1.55098 16.1166 1.58276 16.0553 1.64584L14.0698 3.69159C13.949 3.81542 13.9518 4.01308 14.0759 4.13364Z" fill="#FFC000"/>
<path d="M17.9998 1.88428C17.9998 1.18327 18.568 0.61499 19.269 0.61499H19.4998V3.15357H19.269C18.568 3.15357 17.9998 2.58529 17.9998 1.88428V1.88428Z" fill="#FF527B"/>
<path d="M20.1921 0.61499H22.7307C23.4317 0.61499 24 1.18327 24 1.88428V1.88428C24 2.58529 23.4317 3.15357 22.7307 3.15357H20.1921V0.61499Z" fill="#FF527B"/>
<path d="M17.9998 7.99988C17.9998 7.29887 18.568 6.73059 19.269 6.73059H19.4998V9.26917H19.269C18.568 9.26917 17.9998 8.70089 17.9998 7.99988V7.99988Z" fill="#FF8412"/>
<path d="M20.1921 6.73059H22.7307C23.4317 6.73059 24 7.29887 24 7.99988V7.99988C24 8.70089 23.4317 9.26917 22.7307 9.26917H20.1921V6.73059Z" fill="#FF8412"/>
<path d="M17.9998 14.1157C17.9998 13.4147 18.568 12.8464 19.269 12.8464H19.4998V15.385H19.269C18.568 15.385 17.9998 14.8167 17.9998 14.1157V14.1157Z" fill="#EFD54D"/>
<path d="M20.1921 12.8464H22.7307C23.4317 12.8464 24 13.4147 24 14.1157V14.1157C24 14.8167 23.4317 15.385 22.7307 15.385H20.1921V12.8464Z" fill="#EFD54D"/>
<path fill-rule="evenodd" clip-rule="evenodd" d="M8.26217 10.8919C9.52799 10.8919 10.7252 10.3963 11.6174 9.49647C12.5172 8.59667 13.0128 7.4071 13.0128 6.14128C13.0128 4.86783 12.5172 3.67826 11.6174 2.77846C10.7252 1.87865 9.52799 1.39062 8.26217 1.39062C6.99634 1.39062 5.79915 1.87865 4.89934 2.77846C4.00717 3.67826 3.51151 4.86783 3.51151 6.14128C3.51151 7.4071 4.00717 8.59667 4.89934 9.49647C5.79915 10.3963 6.99634 10.8919 8.26217 10.8919ZM8.26217 9.82437C9.24585 9.82437 10.1762 9.4431 10.8701 8.74918C11.564 8.04764 11.9529 7.12496 11.9529 6.14128C11.9529 5.14997 11.564 4.22729 10.8701 3.52575C10.1762 2.83183 9.24585 2.45056 8.26217 2.45056C7.27848 2.45056 6.34818 2.83183 5.65426 3.52575C4.21305 4.96696 4.21305 7.30797 5.65426 8.74918C6.34818 9.4431 7.27848 9.82437 8.26217 9.82437Z" fill="#FFC000"/>
<path fill-rule="evenodd" clip-rule="evenodd" d="M3.87745 11.3419C3.93845 11.3419 3.99945 11.319 4.04521 11.2733L5.06702 10.2514C4.89163 10.1142 4.7315 9.97693 4.57899 9.8168C4.4036 9.64904 4.25109 9.46603 4.10621 9.27539L3.07678 10.3048C2.98527 10.3963 2.98527 10.5412 3.07678 10.6327C3.12253 10.6708 3.17591 10.6937 3.23691 10.6937C3.29029 10.6937 3.33604 10.6785 3.37417 10.648L3.67156 11.014C3.63343 11.0979 3.64868 11.197 3.71731 11.2733C3.76307 11.319 3.82407 11.3419 3.87745 11.3419Z" fill="#FFC000"/>
<path fill-rule="evenodd" clip-rule="evenodd" d="M0.987459 14.3461C1.24672 14.3461 1.49836 14.247 1.68137 14.0564L3.83175 11.9136C4.01476 11.7306 4.11389 11.479 4.11389 11.2197C4.11389 10.9528 4.01476 10.7012 3.83175 10.5182C3.64111 10.3351 3.3971 10.2284 3.13021 10.2284C2.86332 10.2284 2.6193 10.3351 2.42867 10.5182L0.285918 12.6609C-0.0953539 13.0498 -0.0953539 13.6751 0.285918 14.0564C0.476554 14.247 0.720569 14.3461 0.987459 14.3461Z" fill="#FFC000"/>
<ellipse cx="8.22413" cy="6.03826" rx="3.17323" ry="3.11553" fill="#FFC000"/>
</svg>
