<svg width="28" height="28" viewBox="0 0 28 28" fill="none" xmlns="http://www.w3.org/2000/svg">
<path fill-rule="evenodd" clip-rule="evenodd" d="M0.457221 0.0722656H14.4735C14.5994 0.0722656 14.7077 0.117124 14.7967 0.2062L17.3639 2.77336C17.4529 2.86238 17.4978 2.97076 17.4978 3.09664V22.2938C17.4978 22.5456 17.2924 22.751 17.0406 22.751H0.457221C0.205394 22.751 0 22.5456 0 22.2938V0.529487C0 0.277659 0.205394 0.0722656 0.457221 0.0722656Z" fill="#ECEFF1"/>
<path fill-rule="evenodd" clip-rule="evenodd" d="M0.457221 0.0722656H1.29367V22.751H0.457221C0.205394 22.751 0 22.5456 0 22.2938V0.529487C0 0.277659 0.205394 0.0722656 0.457221 0.0722656Z" fill="#D1D1D6"/>
<path fill-rule="evenodd" clip-rule="evenodd" d="M14.6628 0.111816C14.7114 0.133983 14.7561 0.165425 14.7968 0.206084L17.3639 2.77324C17.4046 2.8139 17.436 2.85858 17.4582 2.90712H14.8915C14.7655 2.90712 14.6628 2.80445 14.6628 2.67851V0.111816Z" fill="#A79BA7"/>
<path fill-rule="evenodd" clip-rule="evenodd" d="M2.49111 9.32574C2.74883 9.32574 2.95778 9.53469 2.95778 9.79241C2.95778 10.0501 2.74883 10.2591 2.49111 10.2591H1.74694C1.48923 10.2591 1.28027 10.0501 1.28027 9.79241C1.28027 9.53469 1.48923 9.32574 1.74694 9.32574H2.49111ZM9.82934 7.26025C10.0871 7.26025 10.296 7.46921 10.296 7.72692C10.296 7.98464 10.0871 8.1936 9.82934 8.1936H4.03865C3.78093 8.1936 3.57198 7.98464 3.57198 7.72692C3.57198 7.46921 3.78093 7.26025 4.03865 7.26025H9.82934ZM2.49111 7.26025C2.74883 7.26025 2.95778 7.46921 2.95778 7.72692C2.95778 7.98464 2.74883 8.1936 2.49111 8.1936H1.74694C1.48923 8.1936 1.28027 7.98464 1.28027 7.72692C1.28027 7.46921 1.48923 7.26025 1.74694 7.26025H2.49111ZM9.82934 9.32574C10.0871 9.32574 10.296 9.53469 10.296 9.79241C10.296 10.0501 10.0871 10.2591 9.82934 10.2591H4.03865C3.78093 10.2591 3.57198 10.0501 3.57198 9.79241C3.57198 9.53469 3.78093 9.32574 4.03865 9.32574H9.82934Z" fill="#A79BA7"/>
<path fill-rule="evenodd" clip-rule="evenodd" d="M2.10651 16.5278H3.5183C3.71646 16.5278 3.87811 16.6895 3.87811 16.8876V20.3321C3.87811 20.5303 3.71646 20.6919 3.5183 20.6919H2.10651C1.90835 20.6919 1.7467 20.5303 1.7467 20.3321V16.8876C1.74676 16.6895 1.90835 16.5278 2.10651 16.5278Z" fill="#FE646F"/>
<path fill-rule="evenodd" clip-rule="evenodd" d="M3.15845 16.5278H3.51825C3.71641 16.5278 3.87805 16.6895 3.87805 16.8876V20.3321C3.87805 20.5303 3.71641 20.6919 3.51825 20.6919H3.15845C3.35661 20.6919 3.51825 20.5303 3.51825 20.3321V16.8876C3.51825 16.6895 3.35661 16.5278 3.15845 16.5278Z" fill="#FD4755"/>
<path fill-rule="evenodd" clip-rule="evenodd" d="M6.06415 13.8892H7.47595C7.67411 13.8892 7.83575 14.0508 7.83575 14.249V20.3323C7.83575 20.5305 7.67411 20.6921 7.47595 20.6921H6.06415C5.86599 20.6921 5.70435 20.5305 5.70435 20.3323V14.2489C5.70435 14.0507 5.86599 13.8892 6.06415 13.8892Z" fill="#FFE177"/>
<path fill-rule="evenodd" clip-rule="evenodd" d="M7.11621 13.8892H7.47601C7.67417 13.8892 7.83582 14.0508 7.83582 14.249V20.3323C7.83582 20.5305 7.67417 20.6921 7.47601 20.6921H7.11621C7.31437 20.6921 7.47601 20.5305 7.47601 20.3323V14.2489C7.47601 14.0507 7.31437 13.8892 7.11621 13.8892Z" fill="#FFD064"/>
<path fill-rule="evenodd" clip-rule="evenodd" d="M10.0218 14.7773H11.4336C11.6317 14.7773 11.7934 14.939 11.7934 15.1372V20.3322C11.7934 20.5303 11.6318 20.692 11.4336 20.692C10.963 20.692 10.4924 20.692 10.0218 20.692C9.82363 20.692 9.66199 20.5304 9.66199 20.3322C9.66199 18.2374 9.66199 17.232 9.66199 15.1372C9.66199 14.939 9.82363 14.7773 10.0218 14.7773Z" fill="#6CF5C2"/>
<path fill-rule="evenodd" clip-rule="evenodd" d="M11.0737 14.7773H11.4335C11.6317 14.7773 11.7933 14.939 11.7933 15.1372V20.3322C11.7933 20.5303 11.6318 20.692 11.4335 20.692H11.0737C11.2719 20.692 11.4335 20.5304 11.4335 20.3322C11.4335 18.2374 11.4335 17.232 11.4335 15.1372C11.4336 14.939 11.2719 14.7773 11.0737 14.7773Z" fill="#00E499"/>
<path fill-rule="evenodd" clip-rule="evenodd" d="M13.9793 11.0933H15.3911C15.5893 11.0933 15.7509 11.2549 15.7509 11.4531V20.3323C15.7509 20.5305 15.5893 20.6921 15.3911 20.6921H13.9793C13.7811 20.6921 13.6195 20.5305 13.6195 20.3323V11.4531C13.6195 11.2549 13.7811 11.0933 13.9793 11.0933Z" fill="#8AC9FE"/>
<path fill-rule="evenodd" clip-rule="evenodd" d="M15.0314 11.0933H15.3912C15.5893 11.0933 15.751 11.2549 15.751 11.4531V20.3323C15.751 20.5305 15.5893 20.6921 15.3912 20.6921H15.0314C15.2295 20.6921 15.3912 20.5305 15.3912 20.3323V11.4531C15.3912 11.2549 15.2295 11.0933 15.0314 11.0933Z" fill="#60B7FF"/>
<path fill-rule="evenodd" clip-rule="evenodd" d="M13.437 9.1074C13.1803 9.12957 12.9542 8.93934 12.9321 8.68267C12.9099 8.42595 13.1002 8.19985 13.3568 8.17774L14.6451 8.06474C14.9019 8.04258 15.128 8.2328 15.1501 8.48947C15.1536 8.53031 15.1517 8.57038 15.1451 8.609L15.0045 9.86586C14.9764 10.1216 14.7462 10.306 14.4904 10.2778C14.2486 10.2512 14.0705 10.0438 14.0757 9.80508L11.0576 12.849C10.9383 12.9688 10.7576 13.0191 10.5855 12.9639L6.86089 11.7567L3.09865 14.6862C2.89629 14.8442 2.60409 14.8084 2.44607 14.606C2.28804 14.4037 2.32391 14.1115 2.52628 13.9534L6.48388 10.8718C6.60982 10.7734 6.77059 10.7502 6.91217 10.7955L6.91222 10.7952L10.5987 11.99L13.4588 9.10542L13.437 9.1074Z" fill="#A79BA7"/>
<path fill-rule="evenodd" clip-rule="evenodd" d="M22.2009 21.3174C21.9451 21.6823 21.6441 22.0134 21.3062 22.3025L23.7391 24.6873L24.6653 23.7328L22.2009 21.3174Z" fill="#A79BA7"/>
<path fill-rule="evenodd" clip-rule="evenodd" d="M22.2174 21.3008C22.1695 21.4577 22.0803 21.5769 21.9525 21.6559L24.3693 24.0569L24.6653 23.7326L22.2174 21.3008Z" fill="#837683"/>
<path fill-rule="evenodd" clip-rule="evenodd" d="M26.82 27.7832L27.8653 26.7059C28.0488 26.5167 28.0442 26.2118 27.8551 26.0282L24.9598 23.2187C24.7706 23.0351 24.4656 23.0398 24.282 23.2289L23.2366 24.3061C23.0531 24.4953 23.0577 24.8003 23.2468 24.9839L26.1421 27.7933C26.3314 27.9769 26.6364 27.9724 26.82 27.7832Z" fill="#F1BA84"/>
<path fill-rule="evenodd" clip-rule="evenodd" d="M24.5315 23.2187L27.4267 26.0282C27.6159 26.2118 27.6205 26.5167 27.4369 26.7059L26.3917 27.7832C26.353 27.823 26.309 27.8547 26.2619 27.878C26.4436 27.9684 26.6715 27.9362 26.82 27.7832L27.8653 26.7059C28.0489 26.5168 28.0443 26.2119 27.8551 26.0282L24.9598 23.2187C24.8105 23.0738 24.5889 23.0461 24.4119 23.134C24.4549 23.1554 24.4953 23.1836 24.5315 23.2187Z" fill="#E3A76F"/>
<path d="M21.9734 22.3905C24.032 20.3319 24.032 16.9942 21.9734 14.9356C19.9148 12.877 16.5771 12.877 14.5185 14.9356C12.4599 16.9942 12.4599 20.3319 14.5185 22.3905C16.5771 24.4492 19.9148 24.4492 21.9734 22.3905Z" fill="#9FACBA"/>
<path fill-rule="evenodd" clip-rule="evenodd" d="M18.2501 13.3906C21.1618 13.3906 23.5223 15.7511 23.5223 18.6628C23.5223 21.5746 21.1618 23.9351 18.2501 23.9351C18.1643 23.9351 18.079 23.9328 17.9941 23.9288C20.787 23.7952 23.0104 21.4888 23.0104 18.6628C23.0104 15.8369 20.7869 13.5305 17.9941 13.3969C18.079 13.3929 18.1643 13.3906 18.2501 13.3906Z" fill="#8D9CA8"/>
<path d="M21.9398 19.7867C22.5569 17.7502 21.4063 15.5991 19.3698 14.982C17.3334 14.3649 15.1822 15.5155 14.5651 17.5519C13.948 19.5884 15.0986 21.7395 17.1351 22.3566C19.1715 22.9737 21.3227 21.8231 21.9398 19.7867Z" fill="#ECEFF1"/>
<path fill-rule="evenodd" clip-rule="evenodd" d="M18.2501 14.8105C18.3377 14.8105 18.4245 14.8138 18.5106 14.8195C16.5041 14.9535 14.918 16.6232 14.918 18.6636C14.918 20.704 16.5041 22.3737 18.5106 22.5076C18.4245 22.5134 18.3376 22.5166 18.2501 22.5166C16.1221 22.5166 14.3971 20.7916 14.3971 18.6636C14.3971 16.5357 16.1221 14.8105 18.2501 14.8105Z" fill="#D1D1D6"/>
</svg>
