<svg width="58" height="60" viewBox="0 0 58 60" fill="none" xmlns="http://www.w3.org/2000/svg">
<g clip-path="url(#clip0_1245_33510)">
<path d="M48 0.0146484H10.0001C7.38883 0.0146484 5.25067 2.26426 5.25067 5.0124V44.9922C5.25067 47.7396 7.38883 49.9899 10.0001 49.9899H18.4289C16.1005 47.2711 14.7503 43.7164 14.7503 39.9944C14.7503 31.7276 21.1428 25.0019 29.0001 25.0019C36.8573 25.0019 43.2498 31.7269 43.2498 39.9944C43.2498 43.7164 41.8982 47.2711 39.5691 49.9899H48C50.6113 49.9899 52.7495 47.7396 52.7495 44.9922V5.0124C52.7495 2.26426 50.6113 0.0146484 48 0.0146484ZM17.125 5.0124H40.8751V10.0101H17.125V5.0124ZM45.6246 20.0049H12.3756V15.0072H45.6246V20.0049Z" fill="#A066D8"/>
<path d="M29 30C23.7589 30 19.5004 34.4752 19.5004 39.9948C19.5004 43.6845 21.4205 46.8718 24.2499 48.6035V59.985L29 57.4865L33.7502 59.985V48.6035C36.5773 46.8711 38.4997 43.6836 38.4997 39.9948C38.4997 34.4752 34.2439 30 29 30Z" fill="#FFC000"/>
</g>
<defs>
<clipPath id="clip0_1245_33510">
<rect width="56.9991" height="59.97" fill="white" transform="translate(0.500488 0.0146484)"/>
</clipPath>
</defs>
</svg>
