<svg width="42" height="42" viewBox="0 0 42 42" fill="none" xmlns="http://www.w3.org/2000/svg">
<path d="M37.4062 40.6875H4.59375C4.07161 40.6875 3.57085 40.4801 3.20163 40.1109C2.83242 39.7417 2.625 39.2409 2.625 38.7188V9.1875H39.375V38.7188C39.375 39.2409 39.1676 39.7417 38.7984 40.1109C38.4292 40.4801 37.9284 40.6875 37.4062 40.6875Z" fill="#E7EDFA"/>
<path d="M3.9375 40.0312C3.94017 40.2229 3.97113 40.413 4.02937 40.5956C4.21195 40.6539 4.40213 40.6848 4.59375 40.6875H37.4062C37.9284 40.6875 38.4292 40.4801 38.7984 40.1109C39.1676 39.7417 39.375 39.2409 39.375 38.7188V9.1875H3.9375V40.0312Z" fill="#F2F7FF"/>
<path d="M39.375 9.1875H2.625V3.28125C2.625 2.75911 2.83242 2.25835 3.20163 1.88913C3.57085 1.51992 4.07161 1.3125 4.59375 1.3125H37.4062C37.9284 1.3125 38.4292 1.51992 38.7984 1.88913C39.1676 2.25835 39.375 2.75911 39.375 3.28125V9.1875Z" fill="#468FE8"/>
<path d="M5.90625 2.625C5.38411 2.625 4.88335 2.83242 4.51413 3.20163C4.14492 3.57085 3.9375 4.07161 3.9375 4.59375V9.1875H39.375V3.28125C39.3723 3.08963 39.3414 2.89945 39.2831 2.71687C39.1005 2.65863 38.9104 2.62767 38.7188 2.625H5.90625Z" fill="#64A0FA"/>
<path d="M6.5625 6.5625C7.28737 6.5625 7.875 5.97487 7.875 5.25C7.875 4.52513 7.28737 3.9375 6.5625 3.9375C5.83763 3.9375 5.25 4.52513 5.25 5.25C5.25 5.97487 5.83763 6.5625 6.5625 6.5625Z" fill="#F03A5A"/>
<path d="M11.8125 6.5625C12.5374 6.5625 13.125 5.97487 13.125 5.25C13.125 4.52513 12.5374 3.9375 11.8125 3.9375C11.0876 3.9375 10.5 4.52513 10.5 5.25C10.5 5.97487 11.0876 6.5625 11.8125 6.5625Z" fill="#FFD24A"/>
<path d="M17.0625 6.5625C17.7874 6.5625 18.375 5.97487 18.375 5.25C18.375 4.52513 17.7874 3.9375 17.0625 3.9375C16.3376 3.9375 15.75 4.52513 15.75 5.25C15.75 5.97487 16.3376 6.5625 17.0625 6.5625Z" fill="#78D7E6"/>
<path d="M7.21875 13.125H13.7812V19.6875H7.21875V13.125Z" fill="#F03A5A"/>
<path d="M17.7188 13.125H24.2812V19.6875H17.7188V13.125Z" fill="#78D7E6"/>
<path d="M28.2188 13.125H34.7812V19.6875H28.2188V13.125Z" fill="#FFD24A"/>
<path d="M13.7812 23.4609H7.21875C7.08821 23.4609 6.96302 23.4091 6.87072 23.3168C6.77842 23.2245 6.72656 23.0993 6.72656 22.9688C6.72656 22.8382 6.77842 22.713 6.87072 22.6207C6.96302 22.5284 7.08821 22.4766 7.21875 22.4766H13.7812C13.9118 22.4766 14.037 22.5284 14.1293 22.6207C14.2216 22.713 14.2734 22.8382 14.2734 22.9688C14.2734 23.0993 14.2216 23.2245 14.1293 23.3168C14.037 23.4091 13.9118 23.4609 13.7812 23.4609Z" fill="#5B6172"/>
<path d="M24.2812 23.4609H17.7188C17.5882 23.4609 17.463 23.4091 17.3707 23.3168C17.2784 23.2245 17.2266 23.0993 17.2266 22.9688C17.2266 22.8382 17.2784 22.713 17.3707 22.6207C17.463 22.5284 17.5882 22.4766 17.7188 22.4766H24.2812C24.4118 22.4766 24.537 22.5284 24.6293 22.6207C24.7216 22.713 24.7734 22.8382 24.7734 22.9688C24.7734 23.0993 24.7216 23.2245 24.6293 23.3168C24.537 23.4091 24.4118 23.4609 24.2812 23.4609Z" fill="#5B6172"/>
<path d="M34.7812 23.4609H28.2188C28.0882 23.4609 27.963 23.4091 27.8707 23.3168C27.7784 23.2245 27.7266 23.0993 27.7266 22.9688C27.7266 22.8382 27.7784 22.713 27.8707 22.6207C27.963 22.5284 28.0882 22.4766 28.2188 22.4766H34.7812C34.9118 22.4766 35.037 22.5284 35.1293 22.6207C35.2216 22.713 35.2734 22.8382 35.2734 22.9688C35.2734 23.0993 35.2216 23.2245 35.1293 23.3168C35.037 23.4091 34.9118 23.4609 34.7812 23.4609Z" fill="#5B6172"/>
<path d="M7.21875 26.9062H13.7812V33.4688H7.21875V26.9062Z" fill="#FFD24A"/>
<path d="M17.7188 26.9062H24.2812V33.4688H17.7188V26.9062Z" fill="#64A0FA"/>
<path d="M28.2188 26.9062H34.7812V33.4688H28.2188V26.9062Z" fill="#696E82"/>
<path d="M13.7812 37.2422H7.21875C7.08821 37.2422 6.96302 37.1903 6.87072 37.098C6.77842 37.0057 6.72656 36.8805 6.72656 36.75C6.72656 36.6195 6.77842 36.4943 6.87072 36.402C6.96302 36.3097 7.08821 36.2578 7.21875 36.2578H13.7812C13.9118 36.2578 14.037 36.3097 14.1293 36.402C14.2216 36.4943 14.2734 36.6195 14.2734 36.75C14.2734 36.8805 14.2216 37.0057 14.1293 37.098C14.037 37.1903 13.9118 37.2422 13.7812 37.2422Z" fill="#5B6172"/>
<path d="M24.2812 37.2422H17.7188C17.5882 37.2422 17.463 37.1903 17.3707 37.098C17.2784 37.0057 17.2266 36.8805 17.2266 36.75C17.2266 36.6195 17.2784 36.4943 17.3707 36.402C17.463 36.3097 17.5882 36.2578 17.7188 36.2578H24.2812C24.4118 36.2578 24.537 36.3097 24.6293 36.402C24.7216 36.4943 24.7734 36.6195 24.7734 36.75C24.7734 36.8805 24.7216 37.0057 24.6293 37.098C24.537 37.1903 24.4118 37.2422 24.2812 37.2422Z" fill="#5B6172"/>
<path d="M34.7812 37.2422H28.2188C28.0882 37.2422 27.963 37.1903 27.8707 37.098C27.7784 37.0057 27.7266 36.8805 27.7266 36.75C27.7266 36.6195 27.7784 36.4943 27.8707 36.402C27.963 36.3097 28.0882 36.2578 28.2188 36.2578H34.7812C34.9118 36.2578 35.037 36.3097 35.1293 36.402C35.2216 36.4943 35.2734 36.6195 35.2734 36.75C35.2734 36.8805 35.2216 37.0057 35.1293 37.098C35.037 37.1903 34.9118 37.2422 34.7812 37.2422Z" fill="#5B6172"/>
</svg>
