<svg width="78" height="65" viewBox="0 0 78 65" fill="none" xmlns="http://www.w3.org/2000/svg">
<path d="M18.4048 52.6794C18.8791 52.9513 19.0996 53.2793 18.7824 53.7276C18.6176 53.9605 18.5524 53.9779 16.129 55.8149C15.0821 55.2019 14.312 54.2201 13.5681 53.2617C13.4242 53.0763 13.274 52.8744 13.2634 52.6399C13.2392 52.1019 13.837 51.8539 14.2216 51.6335C14.5346 51.4542 14.8349 51.2261 15.2128 51.2442C15.8508 51.2748 17.9488 52.418 18.4048 52.6794Z" fill="#F8C73B"/>
<path d="M21.1587 59.2318C21.1421 60.0488 20.5588 60.7288 19.9615 61.294C19.1504 62.0709 18.2805 62.7917 17.3512 63.4331C15.0435 65.046 14.0743 64.2591 12.6806 61.8331C10.9125 58.7017 9.53782 56.8373 7.91688 51.7806C7.70666 51.1065 7.37211 50.5387 7.48284 49.8116C7.83618 47.4655 12.4334 45.1692 13.3261 48.7634C13.3894 49.0266 13.4412 49.29 13.5046 49.5532C14.7648 54.6933 21.2265 56.6571 21.1587 59.2318Z" fill="#6F6ECF"/>
<path d="M15.9063 53.6183C14.0242 54.8788 12.0121 55.9696 9.92675 56.855C9.25261 55.4779 8.56651 53.7454 8.23682 52.7051C9.59855 51.1022 11.7458 49.5974 13.3267 48.7632C13.39 49.0264 13.4418 49.2898 13.5052 49.553C13.8838 51.0976 14.8109 52.4575 15.9063 53.6183Z" fill="#595AB7"/>
<path d="M46.7652 45.6802C45.8116 46.1596 44.6674 46.1735 43.4455 45.7839C39.8386 44.6524 35.4253 40.0785 32.3091 33.7609C28.4343 25.9086 27.8912 18.142 30.8703 15.5546C31.1002 15.3334 31.363 15.1596 31.6405 15.0249C35.4385 13.1434 41.9202 18.4892 46.0969 26.9441C50.2655 35.4172 50.5763 43.7937 46.7652 45.6802Z" fill="#F6F3FE"/>
<path d="M46.7664 45.6844C46.2771 45.9252 45.739 46.052 45.1642 46.0646C46.5477 42.5375 45.6032 36.1742 42.4488 29.7443C38.8137 22.3817 33.4241 17.3696 29.584 17.4537C30.0976 16.1726 30.8672 15.4006 31.6359 15.0277C35.4365 13.1385 41.9258 18.4832 46.1027 26.9381C50.2683 35.4164 50.5782 43.795 46.7664 45.6844Z" fill="#DCD9EA"/>
<path d="M40.371 44.4506C39.8238 45.0362 38.9033 44.8347 34.6482 45.5498C28.5063 46.4626 22.3872 47.7763 16.8693 50.4633C12.5376 52.1903 7.78144 57.8841 2.84457 54.4763C2.37849 54.1546 1.85854 53.6471 1.52874 53.2087L1.53095 53.1931C1.07345 52.6875 0.610319 51.7262 0.389531 51.0273C0.276897 50.6905 0.228129 50.427 0.145441 50.0542C0.147649 50.0386 0.134247 50.0207 0.136428 50.0053C-0.0798262 48.8197 -0.00550823 47.483 0.438862 46.2941C1.06345 44.6216 2.07686 44.3975 9.51583 38.4635C9.60713 38.3809 9.69824 38.2983 9.80493 38.218C17.1267 32.21 24.0119 25.7642 27.2271 16.8223C27.5847 19.3542 27.6822 22.1517 28.4695 24.5696C30.2745 30.1949 30.8228 34.2972 37.7539 41.1375C38.0706 41.4844 38.4187 41.9473 38.8133 42.1941C39.3824 42.5983 40.4409 42.59 40.564 43.762C40.5895 44.0047 40.4995 44.285 40.371 44.4506Z" fill="#DCD9EA"/>
<path d="M40.3706 44.4506C39.8233 45.0362 38.9028 44.8347 34.6478 45.5498C27.4147 46.6247 20.498 48.204 14.2201 51.8704C11.1444 53.7099 7.7185 56.6769 3.92076 55.0741C3.68234 54.9641 3.35007 54.7997 3.20973 54.7032C3.11046 54.6892 2.73779 54.3943 2.65684 54.3386C2.2059 53.9888 1.80246 53.5731 1.52832 53.2087L1.53053 53.1931C9.23909 51.9999 17.2148 49.5532 22.1381 43.3508C27.4693 36.6405 27.6683 27.5408 26.259 19.1667C26.6208 18.4067 26.9383 17.6244 27.2267 16.8223C27.5843 19.3542 27.6818 22.1517 28.4691 24.5696C30.274 30.1949 30.8224 34.2972 37.7534 41.1375C38.0702 41.4844 38.4183 41.9473 38.8129 42.1941C39.382 42.5983 40.4405 42.59 40.5636 43.762C40.5891 44.0047 40.4991 44.285 40.3706 44.4506Z" fill="#C6BFE0"/>
<path d="M40.2547 33.5534C38.6359 35.1032 36.9769 36.4618 35.1707 37.7597C34.3437 38.353 34.053 38.2098 33.6232 37.483C32.5429 35.6139 30.9802 33.9795 29.7331 30.034C29.5967 29.5884 29.2785 29.2388 29.475 28.7629C29.6598 28.2642 30.2407 27.9984 30.7082 27.8156C32.6282 27.052 34.4459 26.6296 36.6759 26.1436C39.0628 25.5581 39.8517 26.143 41.0111 28.1881C42.2848 30.5171 42.3162 31.5699 40.2547 33.5534Z" fill="#F56357"/>
<path d="M16.8693 50.4631C12.6912 52.1288 8.5951 57.0465 3.92118 55.0738C3.68276 54.9638 3.35049 54.7995 3.21015 54.703C3.11088 54.6889 2.73821 54.3941 2.65726 54.3384C1.93594 53.7789 1.59149 53.2951 1.20742 52.7812C1.20963 52.7656 1.19623 52.7478 1.19623 52.7478C0.987461 52.4409 0.609454 51.7232 0.389531 51.0271C0.276897 50.6903 0.228129 50.4268 0.145441 50.0539C0.147649 50.0383 0.134247 50.0205 0.136428 50.0051C-0.0798261 48.8195 -0.00550822 47.4828 0.438862 46.2939C1.06345 44.6213 2.07686 44.3973 9.51583 38.4633C9.60713 38.3807 9.69823 38.298 9.80493 38.2178C10.8208 43.098 13.5849 47.5675 16.8693 50.4631Z" fill="#F56357"/>
<path d="M16.8689 50.463C12.6908 52.1287 8.59468 57.0464 3.92076 55.0737C3.68234 54.9637 3.35007 54.7994 3.20973 54.7029C3.11046 54.6888 2.73779 54.394 2.65684 54.3383C2.2059 53.9885 1.80246 53.5728 1.52832 53.2083L1.53053 53.1927C6.25732 52.4611 11.1513 51.2804 15.35 48.9438C15.8318 49.4732 16.3316 49.9893 16.8689 50.463Z" fill="#F34036"/>
<path d="M38.6079 35.05C37.5131 36.0057 36.3595 36.9052 35.1707 37.7595C34.3437 38.3527 34.053 38.2095 33.6232 37.4828C32.5429 35.6136 30.9802 33.9792 29.7331 30.0338C29.5967 29.5881 29.2785 29.2385 29.475 28.7626C29.6598 28.2639 30.2407 27.9982 30.7082 27.8153C31.2897 27.5841 31.8833 27.3755 32.4774 27.1899C33.7843 30.4502 35.5187 33.4395 38.6079 35.05Z" fill="#F34036"/>
<path d="M50.6106 33.2474C50.6106 33.2474 50.6106 33.2474 50.5986 33.2474C49.2019 28.1748 45.7823 21.7733 41.5606 17.413C37.3429 13.0626 32.8118 11.2309 29.4617 13.0023C22.9343 16.4761 26.443 28.5981 29.9557 35.1756C35.0291 44.7438 42.3679 50.2027 47.3931 48.3107C52.6124 46.3899 52.1887 38.7318 50.6106 33.2474ZM46.0796 44.31C44.0429 45.4066 38.126 41.6467 33.6674 33.2112C30.9882 28.207 28.1743 18.3774 31.426 16.714C34.4688 14.8838 41.0586 22.5291 43.8622 27.8125C46.7797 33.3317 49.1947 42.6595 46.0796 44.31Z" fill="#6F6ECF"/>
<g opacity="0.46">
<path d="M18.9895 36.1148C19.5742 35.5751 20.4554 35.3354 21.2011 35.6128C22.4698 36.0847 23.2846 37.9936 22.9597 39.371C22.5459 41.125 20.2766 41.8938 18.8593 40.7505C17.5568 39.6998 17.8633 37.1544 18.9895 36.1148Z" fill="white"/>
</g>
<g opacity="0.46">
<path d="M14.8558 36.7096C16.0998 35.5612 17.504 37.2703 17.1855 38.6204C16.9427 39.6497 15.611 40.1008 14.7793 39.4299C14.015 38.8134 14.1949 37.3197 14.8558 36.7096Z" fill="white"/>
</g>
<path d="M0.482453 49.2178C0.0132471 49.1515 -0.169565 48.5633 0.18771 48.2436C0.927899 47.586 1.73806 47.0048 2.59699 46.5167C2.86322 46.363 3.20834 46.4571 3.36161 46.7266C3.51488 46.9961 3.42101 47.3391 3.15167 47.4913C1.05987 48.6804 1.02725 49.2949 0.482453 49.2178Z" fill="#E11A17"/>
<path d="M1.21829 52.3143C0.749087 52.2479 0.566275 51.6598 0.92355 51.34C1.66126 50.6844 2.47142 50.1031 3.33267 49.6142C3.59999 49.4607 3.94511 49.5549 4.09729 49.8242C4.25056 50.0937 4.15669 50.4366 3.88736 50.5888C1.78406 51.7851 1.7629 52.3914 1.21829 52.3143Z" fill="#E11A17"/>
<path d="M3.36153 54.7097C3.15533 54.4781 3.17669 54.1238 3.40815 53.9187C4.1471 53.2621 4.95726 52.6808 5.81727 52.1929C6.08444 52.0404 6.42862 52.1333 6.58189 52.4028C6.73516 52.6723 6.64129 53.0153 6.37196 53.1675C5.58036 53.6175 4.83319 54.1523 4.15257 54.7563C3.92123 54.9636 3.56547 54.9407 3.36153 54.7097Z" fill="#E11A17"/>
<path d="M50.1405 31.7774C48.8291 32.2581 48.4202 32.5726 47.6581 32.5726C46.0408 32.5726 44.8801 31.0169 45.2721 29.4877L46.5011 24.6795C43.744 22.3818 42.1388 19.671 41.5605 17.4131C45.361 21.3382 48.5378 26.9383 50.1405 31.7774Z" fill="#3F3E8A"/>
<path d="M77.9997 14.0087C77.9997 22.4601 69.0466 28.0068 60.1436 28.0068C57.4677 28.0068 57.2189 27.6696 56.6254 27.9006L48.1224 31.2805C47.1656 31.6525 46.1879 30.7915 46.4429 29.7924L47.6651 24.9776C47.7928 24.4993 47.6122 23.9998 47.2295 23.6915C41.0468 18.5978 40.6014 10.7854 46.1666 5.29311C46.3049 5.16557 46.4323 5.03803 46.581 4.91049C46.581 4.91049 46.5919 4.91049 46.5919 4.89985C47.3146 4.23023 48.1117 3.62439 48.9937 3.08237C52.0443 1.1585 55.9237 0 60.1436 0C70.0069 1.21875e-07 77.9997 6.28158 77.9997 14.0087Z" fill="#F8C73B"/>
<path d="M69.3882 11.2746H49.3919C49.1005 11.2746 48.8647 11.0392 48.8647 10.7484C48.8647 10.4575 49.1005 10.2222 49.3919 10.2222H69.3882C69.6795 10.2222 69.9153 10.4575 69.9153 10.7484C69.9153 11.0392 69.6795 11.2746 69.3882 11.2746Z" fill="#FEEEB7"/>
<path d="M66.9438 15.8752H49.3919C49.1005 15.8752 48.8647 15.6398 48.8647 15.349C48.8647 15.0581 49.1005 14.8228 49.3919 14.8228H66.9438C67.2352 14.8228 67.471 15.0581 67.471 15.349C67.471 15.6398 67.2352 15.8752 66.9438 15.8752Z" fill="#FEEEB7"/>
<path d="M63.7592 20.4758H49.3919C49.1005 20.4758 48.8647 20.2404 48.8647 19.9496C48.8647 19.6587 49.1005 19.4233 49.3919 19.4233H63.7592C64.0506 19.4233 64.2864 19.6587 64.2864 19.9496C64.2864 20.2404 64.0506 20.4758 63.7592 20.4758Z" fill="#FEEEB7"/>
<path d="M62.661 52.3369L52.7177 45.1732C52.4451 44.9762 52.3832 44.5953 52.5796 44.3222C52.7766 44.0496 53.1568 43.9865 53.4306 44.1841L63.374 51.3478C63.6465 51.5448 63.7084 51.9257 63.512 52.1988C63.3145 52.4724 62.9337 52.5327 62.661 52.3369Z" fill="#6DD356"/>
<path d="M53.3488 40.8311C53.0346 40.8311 52.768 40.5901 52.7418 40.2711C52.7144 39.9355 52.9644 39.6415 53.3 39.6141L63.4118 38.7917C63.7439 38.7763 64.0414 39.0143 64.0688 39.3499C64.0956 39.6856 63.8462 39.9795 63.5106 40.0069L53.3988 40.8293C53.3821 40.8305 53.3655 40.8311 53.3488 40.8311Z" fill="#6DD356"/>
<path d="M51.6801 52.598L50.7333 47.9711C50.6655 47.6409 50.8779 47.3189 51.2076 47.2517C51.5409 47.1862 51.8598 47.3969 51.9271 47.726L52.8739 52.354C52.9417 52.6837 52.7287 53.0056 52.399 53.0728C52.0664 53.1403 51.7469 52.9253 51.6801 52.598Z" fill="#6DD356"/>
</svg>
