<svg width="13" height="13" viewBox="0 0 13 13" fill="none" xmlns="http://www.w3.org/2000/svg">
<path d="M10.9502 0.503906C11.3378 0.116473 11.965 0.116444 12.3525 0.503906C12.7403 0.891453 12.7401 1.51859 12.3525 1.90625L7.83105 6.42773L12.3525 10.9492C12.7402 11.3369 12.7403 11.964 12.3525 12.3516C12.1833 12.5208 11.9674 12.6165 11.7461 12.6377L11.6514 12.6416C11.5211 12.6417 11.3918 12.6163 11.2715 12.5664C11.1513 12.5166 11.0421 12.4436 10.9502 12.3516L6.42871 7.83008L1.90723 12.3516C1.71393 12.5447 1.45956 12.6406 1.20605 12.6406C1.07599 12.6407 0.947315 12.6162 0.827148 12.5664C0.706761 12.5165 0.596906 12.4438 0.504883 12.3516C0.117344 11.964 0.11743 11.3368 0.504883 10.9492L5.02637 6.42773L0.504883 1.90625C0.117458 1.5186 0.117267 0.891434 0.504883 0.503906C0.89244 0.116349 1.51945 0.116641 1.90723 0.503906L6.42871 5.02539L10.9502 0.503906Z" fill="#212121" stroke="black" stroke-width="0.428582"/>
</svg>
