<svg width="52" height="52" viewBox="0 0 52 52" fill="none" xmlns="http://www.w3.org/2000/svg">
<g clip-path="url(#clip0_2054_653)">
<path d="M37.6102 52.0001H4.48541C3.42448 52.0001 2.56445 51.1401 2.56445 50.0791V6.19927C2.56445 5.13835 3.42448 4.27832 4.48541 4.27832H37.6102C38.6711 4.27832 39.5312 5.13835 39.5312 6.19927V50.0793C39.5312 51.1401 38.6711 52.0001 37.6102 52.0001Z" fill="#EAB14D"/>
<path d="M5.7041 48.1738V8.10453C5.7041 7.7253 6.01153 7.41797 6.39066 7.41797H35.7049C36.0841 7.41797 36.3914 7.7254 36.3914 8.10453V48.1738C36.3914 48.553 36.084 48.8603 35.7049 48.8603H6.39066C6.01153 48.8603 5.7041 48.553 5.7041 48.1738Z" fill="#F6F9F9"/>
<path d="M35.7049 7.41797H29.3354C29.7147 7.41797 30.022 7.7254 30.022 8.10463V48.1739C30.022 48.5531 29.7146 48.8605 29.3354 48.8605H35.705C36.0843 48.8605 36.3916 48.5531 36.3916 48.1739V8.10453C36.3916 7.7253 36.0842 7.41797 35.7049 7.41797Z" fill="#E7ECF1"/>
<path d="M15.6873 21.7212H13.3477C13.0775 21.7212 12.8584 21.9403 12.8584 22.2105V28.1389H16.1766V22.2105C16.1766 21.9404 15.9576 21.7212 15.6873 21.7212Z" fill="#8C9BA6"/>
<path d="M22.6102 19.0015H20.2706C20.0003 19.0015 19.7812 19.2205 19.7812 19.4908V28.1391H23.0995V19.4908C23.0995 19.2205 22.8804 19.0015 22.6102 19.0015Z" fill="#66B49D"/>
<path d="M29.5325 15.3037H27.1929C26.9227 15.3037 26.7036 15.5228 26.7036 15.793V28.1392H30.0219V15.793C30.0219 15.5228 29.8028 15.3037 29.5325 15.3037Z" fill="#FC8086"/>
<path d="M25.1285 2.39058V1.37932C25.1285 0.617602 24.5109 0 23.7491 0H18.3462C17.5844 0 16.9669 0.617602 16.9669 1.37932V2.39058C16.9669 2.70207 16.7143 2.95466 16.4028 2.95466H14.1542C13.4062 2.95466 12.7998 3.56109 12.7998 4.30909V7.41792H29.2954V4.30909C29.2954 3.56109 28.689 2.95466 27.9409 2.95466H25.6924C25.381 2.95466 25.1285 2.70207 25.1285 2.39058Z" fill="#C2D0DA"/>
<path d="M32.4257 28.9239H10.8025C9.7451 28.9239 8.88477 28.0637 8.88477 27.0063V12.5454C8.88477 12.1119 9.23607 11.7607 9.66944 11.7607C10.1028 11.7607 10.4541 12.112 10.4541 12.5454V27.0062C10.4541 27.1981 10.6103 27.3544 10.8024 27.3544H32.4257C32.8592 27.3544 33.2104 27.7058 33.2104 28.1391C33.2104 28.5725 32.8591 28.9239 32.4257 28.9239Z" fill="#DAE4EA"/>
<path d="M16.5392 36.0747H9.66993C9.23656 36.0747 8.88525 35.7234 8.88525 35.29C8.88525 34.8567 9.23656 34.5054 9.66993 34.5054H16.5392C16.9726 34.5054 17.3239 34.8567 17.3239 35.29C17.3239 35.7234 16.9726 36.0747 16.5392 36.0747Z" fill="#DDEAFB"/>
<path d="M16.5392 40.1914H9.66993C9.23656 40.1914 8.88525 39.8401 8.88525 39.4067C8.88525 38.9734 9.23656 38.6221 9.66993 38.6221H16.5392C16.9726 38.6221 17.3239 38.9734 17.3239 39.4067C17.3239 39.8401 16.9726 40.1914 16.5392 40.1914Z" fill="#DDEAFB"/>
<path d="M16.5392 44.3076H9.66993C9.23656 44.3076 8.88525 43.9563 8.88525 43.523C8.88525 43.0896 9.23656 42.7383 9.66993 42.7383H16.5392C16.9726 42.7383 17.3239 43.0896 17.3239 43.523C17.3239 43.9563 16.9726 44.3076 16.5392 44.3076Z" fill="#DDEAFB"/>
<path d="M35.2778 40.3135L37.7407 37.8506L43.9423 44.0523L41.4795 46.5151L35.2778 40.3135Z" fill="#E7ECF1"/>
<path d="M48.8102 51.3746C47.9763 52.2084 46.6245 52.2084 45.7908 51.3746L39.8055 45.3893C39.4444 45.0282 39.4444 44.4427 39.8055 44.0816L41.5172 42.37C41.8783 42.0088 42.4638 42.0088 42.8249 42.37L48.8102 48.3553C49.644 49.189 49.644 50.5408 48.8102 51.3746Z" fill="#9D6B6B"/>
<path d="M30.9665 44.225C36.8726 44.225 41.6605 39.4371 41.6605 33.5309C41.6605 27.6248 36.8726 22.8369 30.9665 22.8369C25.0603 22.8369 20.2725 27.6248 20.2725 33.5309C20.2725 39.4371 25.0603 44.225 30.9665 44.225Z" fill="#818181"/>
<path d="M30.9666 41.2701C35.2408 41.2701 38.7057 37.8052 38.7057 33.5311C38.7057 29.2569 35.2408 25.792 30.9666 25.792C26.6924 25.792 23.2275 29.2569 23.2275 33.5311C23.2275 37.8052 26.6924 41.2701 30.9666 41.2701Z" fill="#DDEAFB"/>
<path d="M30.9664 25.792C29.8192 25.792 28.7313 26.0436 27.752 26.4915C30.421 27.7122 32.2766 30.404 32.2766 33.531C32.2766 36.6579 30.421 39.3497 27.752 40.5705C28.7312 41.0183 29.8192 41.27 30.9664 41.27C35.2406 41.27 38.7055 37.8051 38.7055 33.5311C38.7055 29.2569 35.2406 25.792 30.9664 25.792Z" fill="#BED8FB"/>
</g>
<defs>
<clipPath id="clip0_2054_653">
<rect width="52" height="52" fill="white"/>
</clipPath>
</defs>
</svg>
