<svg width="64" height="64" viewBox="0 0 64 64" fill="none" xmlns="http://www.w3.org/2000/svg">
<path d="M4 25H60V58H4V25Z" fill="#3D54BD"/>
<path d="M8 55C8 55.2652 8.10536 55.5196 8.29289 55.7071C8.48043 55.8946 8.73478 56 9 56H60V25H8V55Z" fill="#506ACC"/>
<path d="M14 32H50V58H14V32Z" fill="#7FA3F8"/>
<path d="M18 56H50V32H16V54C16 54.5304 16.2107 55.0391 16.5858 55.4142C16.9609 55.7893 17.4696 56 18 56Z" fill="#92B6FF"/>
<path d="M14 12H50V22H14V12Z" fill="#7FA3F8"/>
<path d="M17 12V16C17 16.7956 17.3161 17.5587 17.8787 18.1213C18.4413 18.6839 19.2044 19 20 19H50V12H17Z" fill="#97BAFF"/>
<path d="M10 22H54V32H10V22Z" fill="#E2E7F6"/>
<path d="M13 27H54V22H13V27Z" fill="#F2F2F2"/>
<path d="M10 27H54V32H10V27Z" fill="#546DED"/>
<path d="M15 30H54V27H13V28C13 28.5304 13.2107 29.0391 13.5858 29.4142C13.9609 29.7893 14.4696 30 15 30Z" fill="#6985F9"/>
<path d="M2 58H62V62H2V58Z" fill="#474747"/>
<path d="M18 36H24V54H18V36Z" fill="#F2F2F2"/>
<path d="M40 36H46V54H40V36Z" fill="#F2F2F2"/>
<path d="M28 58V45C28 43.9391 28.4214 42.9217 29.1716 42.1716C29.9217 41.4214 30.9391 41 32 41C33.0609 41 34.0783 41.4214 34.8284 42.1716C35.5786 42.9217 36 43.9391 36 45V58" fill="#2458AD"/>
<path d="M8 35H10V55H8V35Z" fill="#F2F2F2"/>
<path d="M54 35H56V55H54V35Z" fill="#F2F2F2"/>
<path d="M41 11C41 12.9586 40.4369 14.8759 39.3778 16.5235L32 28L24.6222 16.5235C23.5631 14.8759 23 12.9586 23 11C23 8.61305 23.9482 6.32387 25.636 4.63604C27.3239 2.94821 29.6131 2 32 2C34.3869 2 36.6761 2.94821 38.364 4.63604C40.0518 6.32387 41 8.61305 41 11Z" fill="#B52F28"/>
<path d="M39.3778 16.5233C40.4369 14.8757 41 12.9584 41 10.9998C40.9989 8.87417 40.2451 6.81764 38.8722 5.19488C37.4993 3.57212 35.596 2.488 33.5 2.13477C31.404 2.488 29.5007 3.57212 28.1278 5.19488C26.7549 6.81764 26.0011 8.87417 26 10.9998C26 12.9584 26.5631 14.8757 27.6222 16.5233L33.5 25.6664L39.3778 16.5233Z" fill="#D23F34"/>
<path d="M32 16C34.7614 16 37 13.7614 37 11C37 8.23858 34.7614 6 32 6C29.2386 6 27 8.23858 27 11C27 13.7614 29.2386 16 32 16Z" fill="#F2F2F2"/>
<path d="M32 41C30.9391 41 29.9217 41.4214 29.1716 42.1716C28.4214 42.9217 28 43.9391 28 45V56H36V45C36 43.9391 35.5786 42.9217 34.8284 42.1716C34.0783 41.4214 33.0609 41 32 41Z" fill="#3279EA"/>
</svg>
