<svg width="41" height="35" viewBox="0 0 41 35" fill="none" xmlns="http://www.w3.org/2000/svg">
<path d="M16.2666 17.0427V33.9727C16.2666 34.3658 15.8443 34.6848 15.3238 34.6848H4.12457C3.60288 34.6848 3.18176 34.3658 3.18176 33.9727V17.0427C3.18166 16.9492 3.20598 16.8566 3.25332 16.7702C3.30065 16.6838 3.37009 16.6053 3.45764 16.5391C3.5452 16.473 3.64917 16.4205 3.76361 16.3848C3.87804 16.349 4.0007 16.3306 4.12457 16.3306H15.3238C15.8443 16.3306 16.2666 16.6497 16.2666 17.0427Z" fill="#72B4E7"/>
<path d="M3.18176 30.1638H16.2666V33.7413C16.2666 34.2621 15.8443 34.6848 15.3238 34.6848H4.12457C3.60288 34.6848 3.18176 34.2621 3.18176 33.7413V30.1638Z" fill="#6957A1"/>
<path d="M38.1611 9.74226V33.7417C38.1611 34.2625 37.7387 34.6851 37.2183 34.6851H26.019C25.4986 34.6851 25.0762 34.2625 25.0762 33.7417V9.74226C25.0762 9.22146 25.4986 8.79883 26.019 8.79883H37.2183C37.7387 8.79883 38.1611 9.22158 38.1611 9.74226Z" fill="#66B2FF"/>
<path d="M38.1611 30.1638V33.7413C38.1611 34.2621 37.7387 34.6848 37.2183 34.6848H26.019C25.4986 34.6848 25.0762 34.2621 25.0762 33.7413V30.1638H38.1611Z" fill="#F25853"/>
<path d="M34.2805 12.7278C33.7597 12.7278 33.3377 13.1502 33.3377 13.6712V15.2551C33.3377 15.7762 33.7597 16.1986 34.2805 16.1986C34.8013 16.1986 35.2233 15.7762 35.2233 15.2551V13.6712C35.2233 13.5474 35.199 13.4247 35.1516 13.3103C35.1043 13.1958 35.0349 13.0918 34.9473 13.0042C34.8598 12.9166 34.7558 12.8471 34.6414 12.7997C34.527 12.7522 34.4043 12.7278 34.2805 12.7278ZM30.5093 12.7278C29.9885 12.7278 29.5665 13.1502 29.5665 13.6712V15.2551C29.5665 15.7762 29.9885 16.1986 30.5093 16.1986C31.0301 16.1986 31.4521 15.7762 31.4521 15.2551V13.6712C31.4521 13.5474 31.4278 13.4247 31.3804 13.3103C31.3331 13.1958 31.2636 13.0918 31.1761 13.0042C31.0885 12.9166 30.9846 12.8471 30.8702 12.7997C30.7558 12.7522 30.6331 12.7278 30.5093 12.7278ZM34.2805 18.7651C33.7597 18.7651 33.3377 19.1875 33.3377 19.7086V21.2925C33.3377 21.8135 33.7597 22.2359 34.2805 22.2359C34.8013 22.2359 35.2233 21.8135 35.2233 21.2925V19.7086C35.2234 19.4584 35.1241 19.2185 34.9473 19.0416C34.7705 18.8647 34.5306 18.7652 34.2805 18.7651ZM30.5093 18.7651C29.9885 18.7651 29.5665 19.1875 29.5665 19.7086V21.2925C29.5665 21.8135 29.9885 22.2359 30.5093 22.2359C31.0301 22.2359 31.4521 21.8135 31.4521 21.2925V19.7086C31.4521 19.4584 31.3529 19.2185 31.176 19.0416C30.9992 18.8647 30.7594 18.7652 30.5093 18.7651ZM35.2233 26.2526V33.7413C35.2233 34.2621 34.8009 34.6847 34.2805 34.6847C33.7601 34.6847 33.3377 34.2621 33.3377 33.7413V26.2526C33.3377 25.7318 33.7601 25.3092 34.2805 25.3092C34.8009 25.3092 35.2233 25.7318 35.2233 26.2526ZM31.4521 26.2526V33.7413C31.4521 34.2621 31.0297 34.6847 30.5093 34.6847C29.9888 34.6847 29.5665 34.2621 29.5665 33.7413V26.2526C29.5665 25.7318 29.9888 25.3092 30.5093 25.3092C31.0297 25.3092 31.4521 25.7318 31.4521 26.2526Z" fill="#FFE26F"/>
<path d="M26.9618 1.87533V33.7415C26.9619 33.8654 26.9376 33.988 26.8902 34.1025C26.8429 34.217 26.7735 34.321 26.6859 34.4086C26.5984 34.4962 26.4944 34.5657 26.38 34.6131C26.2655 34.6605 26.1429 34.6849 26.019 34.6849H15.3238C14.8021 34.6849 14.381 34.2623 14.381 33.7415V3.76332C14.3811 3.54184 14.459 3.32744 14.6013 3.1577C14.7436 2.98796 14.9411 2.87371 15.1591 2.83498L25.8556 0.945596C25.9912 0.921787 26.1304 0.927977 26.2635 0.963729C26.3965 0.999481 26.52 1.06393 26.6255 1.15254C26.7309 1.24115 26.8156 1.35178 26.8737 1.47665C26.9318 1.60152 26.9619 1.7376 26.9618 1.87533Z" fill="#03AAA9"/>
<path d="M14.381 30.1638H26.9618V33.7413C26.9619 33.8652 26.9376 33.9879 26.8902 34.1023C26.8429 34.2168 26.7735 34.3208 26.6859 34.4084C26.5984 34.496 26.4944 34.5655 26.38 34.613C26.2655 34.6604 26.1429 34.6848 26.019 34.6848H15.3238C14.8021 34.6848 14.381 34.2621 14.381 33.7413V30.1638Z" fill="#A1ADB4"/>
<path d="M11.0025 18.7654C10.4817 18.7654 10.0597 19.1878 10.0597 19.7088V21.2927C10.0597 21.8138 10.4817 22.2362 11.0025 22.2362C11.5233 22.2362 11.9453 21.8138 11.9453 21.2927V19.7088C11.9454 19.4587 11.8461 19.2188 11.6693 19.0419C11.4925 18.8649 11.2526 18.7655 11.0025 18.7654ZM7.2313 18.7654C6.7105 18.7654 6.2885 19.1878 6.2885 19.7088V21.2927C6.2885 21.8138 6.7105 22.2362 7.2313 22.2362C7.75211 22.2362 8.17411 21.8138 8.17411 21.2927V19.7088C8.17417 19.4587 8.07488 19.2188 7.89808 19.0419C7.72127 18.8649 7.48143 18.7655 7.2313 18.7654ZM11.9448 26.2529V33.7415C11.9449 33.8654 11.9206 33.9881 11.8733 34.1025C11.8259 34.217 11.7565 34.321 11.6689 34.4086C11.5814 34.4962 11.4774 34.5657 11.363 34.6132C11.2485 34.6606 11.1259 34.685 11.002 34.6849C10.4816 34.6849 10.0592 34.2623 10.0592 33.7415V26.2529C10.0592 25.7321 10.4816 25.3094 11.002 25.3094C11.5237 25.3094 11.9448 25.7321 11.9448 26.2529ZM8.1736 26.2529V33.7415C8.1737 33.8654 8.14939 33.9881 8.10205 34.1025C8.05471 34.217 7.98528 34.321 7.89772 34.4086C7.81016 34.4962 7.70619 34.5657 7.59176 34.6132C7.47732 34.6606 7.35467 34.685 7.2308 34.6849C6.71037 34.6849 6.28799 34.2623 6.28799 33.7415V26.2529C6.28799 25.7321 6.71037 25.3094 7.2308 25.3094C7.75248 25.3094 8.1736 25.7321 8.1736 26.2529Z" fill="#FFE26F"/>
<path d="M23.1931 26.4462C23.1932 26.57 23.1689 26.6927 23.1215 26.8072C23.0742 26.9217 23.0048 27.0257 22.9172 27.1133C22.8297 27.2009 22.7257 27.2704 22.6112 27.3178C22.4968 27.3652 22.3742 27.3896 22.2503 27.3896H14.381V25.5027H22.2503C22.7707 25.5027 23.1931 25.9254 23.1931 26.4462ZM23.1931 9.23811C23.1932 9.36198 23.1689 9.48465 23.1215 9.59912C23.0742 9.71359 23.0048 9.8176 22.9172 9.90522C22.8297 9.99283 22.7257 10.0623 22.6112 10.1098C22.4968 10.1572 22.3742 10.1816 22.2503 10.1815H14.381V8.29468H22.2503C22.7707 8.29468 23.1931 8.71743 23.1931 9.23811ZM23.1931 13.5402C23.1932 13.6641 23.1689 13.7867 23.1215 13.9012C23.0742 14.0157 23.0048 14.1197 22.9172 14.2073C22.8297 14.2949 22.7257 14.3644 22.6112 14.4118C22.4968 14.4592 22.3742 14.4836 22.2503 14.4836H14.381V12.5968H22.2503C22.7707 12.5968 23.1931 13.0194 23.1931 13.5402ZM23.1931 17.8421C23.1932 17.966 23.1689 18.0887 23.1215 18.2032C23.0742 18.3176 23.0048 18.4216 22.9172 18.5093C22.8297 18.5969 22.7257 18.6664 22.6112 18.7138C22.4968 18.7612 22.3742 18.7856 22.2503 18.7856H14.381V16.8987H22.2503C22.7707 16.8987 23.1931 17.3215 23.1931 17.8421ZM23.1931 22.1442C23.1932 22.2681 23.1689 22.3908 23.1215 22.5052C23.0742 22.6197 23.0048 22.7237 22.9172 22.8113C22.8297 22.899 22.7257 22.9685 22.6112 23.0159C22.4968 23.0633 22.3742 23.0877 22.2503 23.0877H14.381V21.2008H22.2503C22.7707 21.2008 23.1931 21.6234 23.1931 22.1442Z" fill="#E6F8FC"/>
<path d="M6.28799 30.1638H8.1736V33.7413C8.1737 33.8652 8.14939 33.9879 8.10205 34.1023C8.05471 34.2168 7.98528 34.3208 7.89772 34.4084C7.81016 34.496 7.70619 34.5655 7.59176 34.613C7.47732 34.6604 7.35467 34.6848 7.2308 34.6848C6.71037 34.6848 6.28799 34.2621 6.28799 33.7413V30.1638ZM10.0592 30.1638H11.9448V33.7413C11.9449 33.8652 11.9206 33.9879 11.8733 34.1023C11.8259 34.2168 11.7565 34.3208 11.6689 34.4084C11.5814 34.496 11.4774 34.5655 11.363 34.613C11.2485 34.6604 11.1259 34.6848 11.002 34.6848C10.4816 34.6848 10.0592 34.2621 10.0592 33.7413V30.1638ZM29.5665 30.1638H31.4521V33.7413C31.4521 34.2621 31.0297 34.6848 30.5093 34.6848C29.9888 34.6848 29.5665 34.2621 29.5665 33.7413V30.1638ZM35.2233 30.1638V33.7413C35.2233 34.2621 34.8009 34.6848 34.2805 34.6848C33.7601 34.6848 33.3377 34.2621 33.3377 33.7413V30.1638H35.2233Z" fill="#FFC54B"/>
<path d="M39.7342 33.1133H0.890854C0.567134 33.1133 0.304688 33.5357 0.304688 34.0567C0.304688 34.5778 0.567134 35.0001 0.890854 35.0001H39.7342C40.0579 35.0001 40.3203 34.5778 40.3203 34.0567C40.3203 33.5357 40.0579 33.1133 39.7342 33.1133Z" fill="#3A4B56"/>
</svg>
