<svg width="1294" height="77" viewBox="0 0 1294 77" fill="none" xmlns="http://www.w3.org/2000/svg">
<path d="M23.3234 48.4571C56.2187 40.875 58.1194 40.4299 62.4821 40.5246C76.5147 40.8304 85.2875 43.742 85.2875 43.742C88.844 44.9218 93.0919 46.7091 99.3944 46.8011C103.215 46.8565 107.316 46.8592 110.601 44.1249C114.02 41.2782 116.386 35.6052 113.984 31.9725C111.589 28.3479 105.656 28.5806 104.941 28.6185C100.668 28.8404 97.4894 31.2081 97.1997 30.8333C96.9296 30.4842 100.306 29.1462 101.355 26.3252C102.58 23.0321 100.34 18.6255 97.3593 16.3633C93.4208 13.3746 87.2722 13.4341 82.0796 16.6298C82.1986 15.1091 82.242 11.7348 80.2881 8.20083C77.3433 2.87689 72.0527 1.15321 70.7427 0.748669C62.9971 -1.64338 56.3517 2.38712 54.9563 3.23272C50.924 5.67754 48.8049 8.92602 47.7972 10.5076C45.8125 13.6235 44.9504 16.5581 44.5431 18.4902C43.1953 17.7731 38.5429 15.5136 32.7443 16.7178C27.707 17.7636 24.7146 20.82 23.3822 22.219C20.2064 25.554 19.0517 29.134 18.6081 30.9172C17.9292 30.4274 13.5484 27.3765 8.27465 28.5847C7.41668 28.7809 4.23809 29.5263 2.04908 32.2823C1.52002 32.9494 1.14354 33.6164 0.874808 34.2482C0.874808 34.2482 0.235181 35.7541 0.211387 37.6347C0.179196 40.1012 1.87415 45.6849 5.7875 48.4584C10.006 51.4458 15.5051 50.2593 23.3234 48.4571Z" fill="#D8CDFF"/>
<path d="M72.7812 14.7809C77.1802 15.9688 80.0284 18.5287 81.3581 19.9087C82.5869 19.289 85.0195 18.2919 88.1309 18.4962C89.3611 18.5774 93.2941 18.8358 95.7266 21.8056C96.0625 22.2155 97.2872 23.7498 97.5405 25.9429C97.8051 28.243 96.8029 29.5445 97.409 30.0478C98.239 30.7365 100.242 28.3499 103.397 27.7627C107.142 27.0659 112.619 28.588 114.4 32.6483C115.782 35.798 114.293 39.0045 113.87 39.8447C117.109 39.0383 120.473 40.0301 122.511 42.3721C124.39 44.5287 125.263 47.9747 123.825 50.2653C121.818 53.4664 115.818 53.2364 113.377 53.143C109.297 52.9861 107.741 51.7698 104.478 52.7913C102.674 53.3568 100.849 54.4487 100.215 54.8288C98.2151 56.0262 97.3376 56.9165 96.3844 57.6227C91.0253 61.595 82.8864 60.0242 81.6226 59.7794C79.0795 59.2882 79.8745 58.9784 76.4454 58.1707C73.6868 57.5213 69.0932 56.4916 64.0825 57.8487C62.4702 58.2857 61.37 58.8188 60.9334 59.019C54.6561 61.8954 38.391 63.1848 21.5661 56.8123C13.7254 53.8425 7.82181 52.1824 3.7503 46.5608C2.67259 45.0726 -1.88319 38.7853 0.872674 34.2461C2.71038 31.2195 7.01982 30.2562 10.1634 30.5552C15.3112 31.045 18.0587 34.9808 18.424 35.5233C18.9782 34.0811 20.788 29.9531 25.3829 27.2377C28.7574 25.2435 31.8982 25.0392 32.5322 25.0053C39.319 24.6522 44.0161 29.1819 44.8573 30.0221C46.0442 27.5435 50.1773 19.7517 59.2636 16.1339C61.7242 15.1571 66.7544 13.1533 72.7812 14.7809Z" fill="#EDE9FF"/>
<path d="M133.584 47.3259C132.005 45.9648 129.835 45.544 128.25 46.0121C126.753 46.4546 126.499 47.3773 125.637 47.2393C124.26 47.0174 124.571 44.6714 122.513 42.3727C122.309 42.144 119.998 39.6397 116.486 39.503C115.388 39.4597 114.478 39.6613 113.87 39.8453C113.75 40.9493 113.264 43.9556 110.744 46.2543C107.093 49.584 101.975 48.8723 101.376 48.783C96.6663 48.0808 95.3675 44.7931 92.4073 45.5494C89.9607 46.1745 89.9131 48.6599 87.4512 49.1862C85.2104 49.6652 84.1131 47.8495 80.8646 46.3463C73.5473 42.9598 64.5841 45.4493 60.9213 48.1688C60.7674 48.2838 60.2649 48.5882 59.8002 49.0239C58.1487 50.5703 56.7294 53.1071 53.4697 53.7863C51.3857 54.2206 49.4808 53.7011 48.1889 53.1883C46.487 55.3043 44.333 56.9929 41.7563 58.0143C41.7563 58.0143 39.3699 58.9574 36.4769 59.0818C31.1989 59.3091 23.557 55.6101 16.3825 48.8128C14.9213 49.0225 12.4887 49.1727 9.69648 48.365C4.80759 46.9498 2.1357 43.5552 1.28613 42.3686C3.76067 47.7331 6.78804 51.0939 8.74052 52.9651C20.8641 64.5898 42.6059 67.7841 56.2354 61.551C58.9856 60.2927 61.5287 58.6259 65.9138 58.2403C71.8706 57.7167 73.2492 60.3279 82.4433 61.551C88.2154 62.3195 92.8061 62.8674 96.1806 60.2562C98.7112 58.2971 98.441 56.2 100.886 55.5168C103.832 54.6942 105.824 57.2919 110.034 56.7033C111.964 56.4327 113.754 55.8442 113.754 55.8442C117.409 54.6062 117.648 53.9798 119.346 53.7755C121.199 53.5536 121.697 54.2071 124.194 54.6157C124.904 54.732 131.678 55.8388 134.088 53.0489C135.444 51.4754 135.299 48.8033 133.584 47.3259Z" fill="#D9D1F8"/>
<path d="M1123.71 43.63C1120.1 47.5682 1106.48 34.7541 1090.17 36.9126C1088.24 37.1688 1079.02 38.3887 1077.28 43.9326C1076.31 47.0288 1077.98 50.9187 1080.49 52.9796C1082.23 54.4006 1084.87 54.417 1089.88 54.8076C1091.93 54.9671 1093.89 54.9932 1095.02 56.3591C1095.75 57.2397 1095.34 57.9019 1095.99 58.8772C1097.33 60.9005 1100.4 61.755 1103.44 62.073C1109.17 62.6733 1118.61 63.6593 1126.45 59.5326C1127.68 58.8879 1130.06 57.492 1132.94 57.9222C1134.67 58.1812 1134.66 58.8134 1137.29 59.6612C1140.32 60.6385 1142.98 60.6308 1144.83 60.6433C1151.18 60.6888 1152.73 58.7477 1157.03 58.7177C1162.02 58.6829 1164.47 61.6661 1169.15 63.2804C1185.64 68.9692 1209.42 67.7561 1216.59 60.4867C1217.55 59.5104 1217.74 58.7448 1218.95 57.8574C1222.8 55.0231 1226.87 55.6901 1237.62 55.2861C1244.79 55.0164 1246.56 54.5195 1248.16 53.2754C1251.32 50.823 1251.87 46.9737 1251.94 46.3695C1252.83 39.4559 1246.28 33.8251 1243.75 31.6443C1238.89 27.4664 1233.48 25.2585 1224.14 22.9926C1215.96 21.009 1194.41 15.9988 1173.88 20.4068C1168.3 21.6045 1163.94 22.5876 1159.41 25.854C1154.74 29.2247 1154.42 31.7564 1150.38 33.1127C1144.66 35.0305 1142.8 30.7047 1136.22 32.3316C1131.4 33.5254 1126.48 37.3022 1124.39 41.9886C1123.84 43.2346 1124.06 43.2501 1123.71 43.63Z" fill="#EDE9FF"/>
<path d="M1288.21 49.5093C1276.35 58.3746 1230.99 52.9003 1231.24 50.3899C1231.38 48.9438 1246.41 51.0743 1249.21 44.7455C1250.13 42.6701 1249.65 39.8561 1248.62 37.8667C1247.24 35.2016 1244.87 34.031 1243.12 33.1687C1242.28 32.7531 1238.64 31.0498 1233.45 31.3408C1227.92 31.6511 1226.16 33.8918 1223.87 32.6642C1221.64 31.4684 1222.91 28.8999 1220.46 25.7621C1216.6 20.807 1209 20.8727 1208.46 20.8843C1204.3 20.9762 1200.89 22.7442 1199.29 23.5736C1198.41 24.0279 1197.1 25.0545 1194.62 26.4852C1192.69 27.6036 1191.72 28.1624 1191.18 28.3045C1188.11 29.1116 1185.75 26.6215 1182 24.8689C1182 24.8689 1176.84 22.461 1170.5 22.8312C1162.35 23.3068 1156.74 28.4717 1155.11 29.9642C1151.65 33.1523 1149.76 36.5279 1148.79 38.6266C1147.97 37.5603 1146.25 35.656 1143.43 34.4989C1138.53 32.4911 1133.94 34.235 1132.75 34.6719C1126.81 36.8537 1124.64 41.9596 1123.99 41.5623C1123.28 41.1283 1125.27 34.7415 1130.46 29.7612C1135.96 24.4881 1142.43 23.3039 1143.99 23.0536C1149.92 22.1053 1154.67 23.4808 1156.85 24.2628C1157.42 22.7674 1161.61 12.1196 1172.02 9.03398C1176.66 7.65648 1180.88 8.27998 1181.49 8.37761C1186.71 9.20218 1190.2 11.7677 1191.68 13.0031C1192 12.7237 1194.55 10.511 1198.18 11.0659C1201.43 11.5628 1203.12 13.9079 1203.4 14.3062C1204.5 12.311 1206.43 9.38875 1209.64 6.64438C1211.82 4.77291 1216.91 0.541815 1224.67 0.0468818C1233.1 -0.490585 1239.17 3.74052 1241.07 5.20212C1249.82 11.9494 1250.42 22.024 1250.49 23.6219C1251.33 22.6736 1253.34 20.6668 1256.65 19.6344C1258.45 19.0709 1262.07 18.3604 1265.9 19.9776C1270.64 21.9825 1272.5 26.4707 1272.65 26.8583C1274.04 30.3818 1272.66 32.2098 1274.18 33.3447C1276.21 34.8604 1279.06 31.8106 1284.2 32.8913C1285.11 33.0817 1287.24 33.5544 1289.19 35.2171C1289.54 35.5139 1293.24 38.758 1292.66 43.1457C1292.21 46.5174 1289.35 48.6586 1288.21 49.5093Z" fill="#D8CDFF"/>
<path d="M1246.2 43.9377C1239.33 41.6786 1239.99 39.9559 1234.55 38.4267C1220.65 34.5213 1211.27 46.8028 1198.54 42.6781C1194.52 41.3721 1191.77 38.9468 1190.28 37.4175C1189.12 38.8443 1180.62 48.975 1167.08 48.8425C1160.7 48.7807 1155.82 46.4674 1153.25 44.9797C1149.08 50.8184 1141.72 53.4023 1135.28 51.4844C1127.56 49.1876 1125.09 41.607 1124.89 40.9816C1124.71 41.3122 1124.54 41.6476 1124.39 41.9879C1123.83 43.2339 1124.06 43.2484 1123.71 43.6283C1120.1 47.5665 1106.47 34.7524 1090.17 36.911C1088.24 37.1671 1079.02 38.387 1077.28 43.9309C1076.31 47.0271 1077.98 50.917 1080.49 52.9779C1082.22 54.3989 1084.87 54.4153 1089.88 54.8059C1091.93 54.9654 1093.88 54.9915 1095.02 56.3574C1095.75 57.238 1095.34 57.9002 1095.99 58.8756C1097.33 60.8988 1100.4 61.7533 1103.44 62.0714C1109.17 62.6717 1118.6 63.6577 1126.45 59.531C1127.68 58.8862 1130.06 57.4903 1132.94 57.9205C1134.67 58.1796 1134.65 58.8117 1137.29 59.6595C1140.32 60.6368 1142.98 60.6291 1144.83 60.6417C1151.18 60.6871 1152.72 58.746 1157.03 58.716C1162.01 58.6812 1164.47 61.6644 1169.15 63.2787C1185.64 68.9676 1209.42 67.7544 1216.59 60.4851C1217.55 59.5087 1217.74 58.7431 1218.95 57.8557C1224.73 53.6004 1232.69 54.6019 1237.62 55.2844C1247.38 56.6396 1262.15 58.5904 1276.28 55.703C1276.28 55.703 1289.65 53.062 1292.25 46.9034C1293.59 43.7366 1292.9 41.0657 1292.9 41.0657C1292.64 40.0545 1292.22 39.2793 1291.91 38.7834C1291.69 39.2774 1288.84 45.2543 1282.08 46.3862C1276.91 47.2514 1273.01 44.6897 1272.22 44.1513C1265.79 45.8284 1256.25 47.2369 1246.2 43.9377Z" fill="#D9D1F8"/>
<path d="M1228.4 42.1849C1232.88 40.9418 1237.29 42.3231 1238.56 42.7214C1243.86 44.3841 1247.08 47.9878 1248.35 46.9979C1248.87 46.5948 1248.53 45.8505 1248.68 44.299C1248.68 44.299 1249.01 40.8528 1251.72 38.0147C1254.67 34.9233 1260 34.0349 1264.27 35.5371C1269.07 37.2269 1271.05 41.4261 1271.67 42.7388C1275.48 50.8095 1270.13 58.7342 1269.79 59.2176C1269.18 60.074 1266.93 63.1094 1262.52 65.2583C1260.54 66.2201 1257.48 67.3231 1236.09 65.6614C1229.86 65.1771 1226.75 64.9354 1224.44 64.6174C1220.56 64.0857 1219.14 63.699 1216.2 63.7174C1211.53 63.7474 1210.96 64.7527 1207.44 64.7276C1206.17 64.7189 1197.62 64.6483 1195.68 59.816C1194.4 56.6463 1196.4 52.506 1199.26 50.4702C1201.37 48.9661 1203.66 48.8192 1205.49 48.7244C1211.16 48.4315 1212.2 51.0618 1215.93 50.7351C1221.42 50.2546 1221.53 44.0931 1228.4 42.1849Z" fill="white"/>
<path d="M1136.49 47.8645C1136.12 50.0221 1132.08 50.8051 1131.7 50.8757C1128.82 51.4093 1127.33 50.3585 1123.25 49.3899C1116 47.6654 1114.37 47.8345 1113.12 48.3169C1111.5 48.9443 1111.57 49.5533 1109.67 50.1623C1108.88 50.4155 1105.97 51.2981 1102.86 49.9825C1101.95 49.5977 1099.17 48.4213 1098.54 45.7659C1098.13 44.0249 1098.91 42.5614 1099.1 42.2056C1099.96 40.6126 1101.39 39.9291 1102.36 39.4642C1102.95 39.179 1104.28 38.5584 1106.12 38.5951C1107.4 38.6212 1108.4 38.9547 1109.01 39.2061C1109.25 38.3767 1109.72 37.208 1110.7 36.1098C1113.57 32.8609 1119.65 31.5443 1123.84 34.4336C1127.41 36.8996 1127.73 41.1404 1127.77 41.7958C1129.05 41.877 1131.58 42.2259 1133.87 43.9988C1134.82 44.7373 1136.77 46.2453 1136.49 47.8645Z" fill="white"/>
<path d="M1134.44 44.4123C1130.48 46.0179 1125.78 45.8584 1122.58 43C1121.38 43.4727 1118.9 44.2624 1115.76 43.9135C1113.36 43.6457 1111.54 42.8163 1110.49 42.2334C1110.13 42.7999 1109.4 43.8091 1108.1 44.593C1107.72 44.8212 1105.41 46.1639 1102.5 45.4418C1100.39 44.9178 1099.15 43.6003 1098.71 43.0908C1098.52 43.6699 1098.29 44.6481 1098.55 45.7656C1099.15 48.3978 1101.93 49.5868 1102.86 49.9822C1105.97 51.2978 1108.88 50.4162 1109.67 50.162C1111.57 49.554 1111.5 48.944 1113.12 48.3166C1114.37 47.8343 1116.01 47.6651 1123.26 49.3896C1127.33 50.3582 1128.83 51.409 1131.7 50.8754C1132.08 50.8048 1136.12 50.0218 1136.49 47.8642C1136.73 46.4519 1135.29 45.0889 1134.44 44.4123Z" fill="#D8CDFF"/>
<path d="M1272.22 44.1533C1271.85 45.0736 1267.94 54.1235 1257.68 56.6107C1248.85 58.75 1241.9 54.4367 1240.78 53.7137C1235.55 59.0168 1223.54 61.2652 1217.55 56.573C1216.8 57.0187 1211.24 60.1758 1204.86 57.9525C1200.47 56.4222 1198.21 53.2197 1197.5 52.1196C1196.94 52.4995 1195.91 53.3154 1195.34 54.689C1194.32 57.1057 1195.47 59.417 1195.67 59.8182C1198.1 64.4765 1205.94 64.6998 1206.94 64.723C1207.16 64.7278 1207.33 64.7298 1207.44 64.7298C1210.96 64.7539 1211.53 63.7496 1216.2 63.7196C1219.13 63.7003 1220.56 64.0879 1224.43 64.6196C1226.75 64.9366 1229.86 65.1793 1236.09 65.6636C1257.48 67.3253 1260.54 66.2223 1262.52 65.2605C1266.81 63.1725 1269.24 59.9912 1269.78 59.2198C1270.43 58.3044 1273.82 53.3396 1272.91 46.9779C1272.74 45.7851 1272.45 44.8165 1272.22 44.1533Z" fill="#D9D1F8"/>
<path d="M751.936 71.513C755.234 69.9218 758.64 68.3636 762.154 66.8507C780.464 58.9695 798.126 53.8529 814.316 50.5508C815.076 48.746 816.802 43.9426 815.251 38.2287C814.776 36.479 813.791 32.8521 810.484 30.1512C805.67 26.2198 798.331 26.1966 792.967 28.8133C785.663 32.3765 783.946 39.8807 783.723 40.9382C782.908 40.1166 781.241 38.6685 778.725 38.0064C774.225 36.8222 769.32 38.7632 766.604 42.1263C764.747 44.425 764.308 46.8977 764.184 48.1892C763.102 47.5802 761.291 46.7392 758.918 46.457C758.246 46.3777 752.361 45.7697 748.016 49.7069C743.138 54.1284 742.904 61.8337 746.232 66.8063C748.019 69.4743 750.498 70.8576 751.936 71.513Z" fill="white"/>
<path d="M767.171 53.6673C766.236 52.9036 764.643 51.7977 762.42 51.1452C761.837 50.9741 754.216 48.8726 749.281 53.9834C745.859 57.5262 745.501 62.7027 747.098 66.4031C749.976 73.0692 758.923 74.2911 760.591 74.5182C769.393 75.7198 771.727 70.6419 782.696 70.8198C786.954 70.8884 787.915 71.6753 790.85 72.3925C792.807 72.871 794.228 73.0499 796.497 73.2461C805.933 74.061 815.566 74.8933 820.668 69.4394C824.085 65.7864 823.882 61.011 823.856 60.5731C823.798 59.5813 823.56 55.3164 819.921 52.5856C817.704 50.9219 815.344 50.6213 814.317 50.5507C814.647 49.2409 815.029 46.9093 814.293 44.2258C814.045 43.3229 812.119 36.7274 806.137 35.7008C802.586 35.0908 798.855 36.6578 796.367 39.6042C795.352 39.3577 793.274 39.0039 790.896 39.7298C786.503 41.0725 784.748 44.9827 784.48 45.6052C783.592 45.0446 781.459 43.8681 778.59 43.931C774.999 44.0102 772.621 45.9842 771.523 46.8793C768.436 49.3985 767.463 52.5334 767.171 53.6673Z" fill="#EDE9FF"/>
<path d="M770.965 64.7874C769.595 63.7676 767.429 62.5022 765.103 62.8986C762.011 63.4254 761.215 66.4472 757.803 68.3129C756.054 69.2689 753.161 70.1718 748.422 69.2766C753.061 74.0906 757.26 75.5609 760.283 75.994C766.475 76.8824 768.277 73.5454 779.463 72.7518C784.473 72.3961 789.362 72.7373 791.307 72.9007C795.532 73.2554 796.087 73.6334 800.434 73.9727C806.587 74.4531 809.664 74.6938 813.169 73.6015C815.39 72.9094 821.09 71.1326 822.287 66.424C822.942 63.8478 822.194 60.6114 819.942 58.7429C816.759 56.1029 810.903 56.4683 806.786 60.5061C802.183 56.2286 795.847 55.2977 791.545 57.8613C788.23 59.8371 787.151 63.2775 786.847 64.4259C785.974 63.9861 784.717 63.5395 783.469 63.9058C780.855 64.6734 780.86 68.2539 778.78 69.0688C777.469 69.5821 775.194 69.0475 770.965 64.7874Z" fill="#D9D1F8"/>
<path d="M812.753 52.4401C814.696 51.9441 815.4 47.2027 814.641 43.7884C814.458 42.9648 814.179 41.7709 813.227 40.5858C811.026 37.8434 807.292 37.7168 806.665 37.6955C802.809 37.565 799.041 39.9672 796.793 43.7575C796.266 43.5361 794.743 42.9754 792.865 43.394C792.297 43.5206 790.63 43.8918 789.511 45.4008C788.095 47.3109 788.69 49.5188 788.782 49.8368C788.22 49.5362 785.999 48.4323 783.348 49.1302C783.064 49.2046 779.392 50.2303 778.708 53.2907C778.666 53.4792 778.192 55.7741 779.716 57.2802C780.92 58.4701 782.879 58.6828 783.057 58.357C783.162 58.1656 782.576 57.922 782.274 57.169C781.774 55.92 782.579 54.5677 782.714 54.3415C783.479 53.0568 784.779 52.5454 785.247 52.3685C788.628 51.0925 791.371 53.4087 792.632 52.1298C793.325 51.427 792.634 50.5889 793.523 49.1167C794.171 48.0437 795.128 47.513 795.725 47.1814C797.736 46.0649 801.267 45.3312 804.738 46.5279C809.921 48.3153 810.75 52.9514 812.753 52.4401Z" fill="white"/>
</svg>
