<svg width="20" height="20" viewBox="0 0 20 20" fill="none" xmlns="http://www.w3.org/2000/svg">
<g clip-path="url(#clip0_3399_32190)">
<path d="M19.0781 19.2186H18.2214V6.77859C18.2214 6.19957 17.7503 5.72852 17.1713 5.72852H15.2563C14.6772 5.72852 14.2062 6.19961 14.2062 6.77859V19.2186H12.0307V12.4149C12.0307 11.8359 11.5597 11.3648 10.9806 11.3648H9.06565C8.48662 11.3648 8.01557 11.8359 8.01557 12.4149V19.2186H5.8401V15.695C5.8401 15.116 5.36901 14.6449 4.79002 14.6449H2.87498C2.29596 14.6449 1.8249 15.116 1.8249 15.695V19.2186H0.921936C0.706194 19.2186 0.531311 19.3935 0.531311 19.6092C0.531311 19.825 0.706194 19.9998 0.921936 19.9998H19.0781C19.2939 19.9998 19.4687 19.825 19.4687 19.6092C19.4687 19.3935 19.2939 19.2186 19.0781 19.2186ZM5.05877 19.2186H2.60612V15.695C2.60612 15.5468 2.7267 15.4262 2.87494 15.4262H4.78994C4.93819 15.4262 5.05877 15.5468 5.05877 15.695V19.2186ZM11.2494 19.2186H8.79678V12.4149C8.79678 12.2666 8.91737 12.1461 9.06561 12.1461H10.9806C11.1288 12.1461 11.2494 12.2666 11.2494 12.4149V19.2186ZM17.4401 19.2186H14.9874V6.77859C14.9874 6.63035 15.108 6.50977 15.2563 6.50977H17.1713C17.3195 6.50977 17.4401 6.63035 17.4401 6.77859V19.2186Z" fill="#A066DB"/>
<path d="M18.2204 0.410781C18.2259 0.30418 18.1884 0.195781 18.107 0.114375C18.0256 0.0329687 17.9172 -0.00457031 17.8106 0.0009375C17.8043 0.000664062 17.7981 0 17.7917 0H15.4284C15.2126 0 15.0378 0.174883 15.0378 0.390625C15.0378 0.606367 15.2126 0.78125 15.4284 0.78125H16.8876L13.026 4.64289L11.5698 3.18664C11.4965 3.1134 11.3972 3.07223 11.2936 3.07223C11.19 3.07223 11.0906 3.1134 11.0174 3.18664L3.99514 10.2089C3.8426 10.3614 3.8426 10.6088 3.99514 10.7614C4.07143 10.8376 4.17139 10.8757 4.27135 10.8757C4.37131 10.8757 4.47131 10.8376 4.54756 10.7613L11.2936 4.01523L12.7498 5.47148C12.9024 5.62402 13.1497 5.62402 13.3023 5.47148L17.4401 1.33371V2.65441C17.4401 2.87016 17.615 3.04504 17.8307 3.04504C18.0465 3.04504 18.2214 2.87016 18.2214 2.65441V0.429688C18.2214 0.42332 18.2207 0.417109 18.2204 0.410781Z" fill="#A066DB"/>
<path d="M2.95471 12.2383C3.17045 12.2383 3.34534 12.0634 3.34534 11.8477C3.34534 11.6319 3.17045 11.457 2.95471 11.457C2.73898 11.457 2.56409 11.6319 2.56409 11.8477C2.56409 12.0634 2.73898 12.2383 2.95471 12.2383Z" fill="#A066DB"/>
</g>
<defs>
<clipPath id="clip0_3399_32190">
<rect width="20" height="20" fill="white"/>
</clipPath>
</defs>
</svg>
