<svg width="44" height="49" viewBox="0 0 44 49" fill="none" xmlns="http://www.w3.org/2000/svg">
<g clip-path="url(#clip0_2843_47963)">
<rect x="2" y="1" width="42" height="48" rx="1" fill="#4D6B2E"/>
<path d="M23.7737 13.0306H20.7275C20.194 13.0306 19.7617 12.5982 19.7617 12.0649C19.7617 11.5315 20.1941 11.0991 20.7275 11.0991H23.7737C24.3072 11.0991 24.7395 11.5315 24.7395 12.0649C24.7396 12.5982 24.3072 13.0306 23.7737 13.0306Z" fill="#C9C0C7"/>
<path d="M38.0296 16.6188H20.7275C20.194 16.6188 19.7617 16.1864 19.7617 15.653C19.7617 15.1196 20.1941 14.6873 20.7275 14.6873H38.0296C38.5631 14.6873 38.9953 15.1196 38.9953 15.653C38.9955 16.1863 38.5631 16.6188 38.0296 16.6188Z" fill="#C9C0C7"/>
<path d="M23.7737 27.066H20.7275C20.194 27.066 19.7617 26.6336 19.7617 26.1003C19.7617 25.5669 20.1941 25.1345 20.7275 25.1345H23.7737C24.3072 25.1345 24.7395 25.5669 24.7395 26.1003C24.7396 26.6335 24.3072 27.066 23.7737 27.066Z" fill="#C9C0C7"/>
<path d="M38.0296 30.6542H20.7275C20.194 30.6542 19.7617 30.2218 19.7617 29.6884C19.7617 29.155 20.1941 28.7227 20.7275 28.7227H38.0296C38.5631 28.7227 38.9953 29.155 38.9953 29.6884C38.9955 30.2218 38.5631 30.6542 38.0296 30.6542Z" fill="#C9C0C7"/>
<path d="M13.7847 43.2061H8.85659C8.09659 43.2061 7.48047 42.59 7.48047 41.83V36.902C7.48047 36.142 8.09659 35.5259 8.85659 35.5259H13.7846C14.5446 35.5259 15.1607 36.142 15.1607 36.902V41.83C15.1607 42.59 14.5447 43.2061 13.7847 43.2061Z" fill="#FEE265"/>
<path d="M15.1605 36.9022V41.83C15.1605 42.5896 14.544 43.2061 13.7844 43.2061H10.2383C10.9979 43.2061 11.6144 42.5896 11.6144 41.83V36.9022C11.6144 36.1426 10.9979 35.5261 10.2383 35.5261H13.7844C14.544 35.5261 15.1605 36.1426 15.1605 36.9022Z" fill="#FDD330"/>
<path d="M13.7847 31.2061H8.85659C8.09659 31.2061 7.48047 30.59 7.48047 29.83V24.902C7.48047 24.142 8.09659 23.5259 8.85659 23.5259H13.7846C14.5446 23.5259 15.1607 24.142 15.1607 24.902V29.83C15.1607 30.59 14.5447 31.2061 13.7847 31.2061Z" fill="#FEE265"/>
<path d="M15.1605 24.9022V29.83C15.1605 30.5896 14.544 31.2061 13.7844 31.2061H10.2383C10.9979 31.2061 11.6144 30.5896 11.6144 29.83V24.9022C11.6144 24.1426 10.9979 23.5261 10.2383 23.5261H13.7844C14.544 23.5261 15.1605 24.1426 15.1605 24.9022Z" fill="#FDD330"/>
<path d="M13.7847 17.2061H8.85659C8.09659 17.2061 7.48047 16.59 7.48047 15.83V10.902C7.48047 10.142 8.09659 9.52588 8.85659 9.52588H13.7846C14.5446 9.52588 15.1607 10.142 15.1607 10.902V15.83C15.1607 16.59 14.5447 17.2061 13.7847 17.2061Z" fill="#FEE265"/>
<path d="M15.1605 10.9022V15.83C15.1605 16.5896 14.544 17.2061 13.7844 17.2061H10.2383C10.9979 17.2061 11.6144 16.5896 11.6144 15.83V10.9022C11.6144 10.1426 10.9979 9.52612 10.2383 9.52612H13.7844C14.544 9.52612 15.1605 10.1426 15.1605 10.9022Z" fill="#FDD330"/>
<path d="M23.7737 39.5838H20.7275C20.194 39.5838 19.7617 39.1515 19.7617 38.6181C19.7617 38.0847 20.1941 37.6523 20.7275 37.6523H23.7737C24.3072 37.6523 24.7395 38.0847 24.7395 38.6181C24.7396 39.1513 24.3072 39.5838 23.7737 39.5838Z" fill="#C9C0C7"/>
<path d="M38.0296 43.172H20.7275C20.194 43.172 19.7617 42.7396 19.7617 42.2062C19.7617 41.6729 20.1941 41.2405 20.7275 41.2405H38.0296C38.5631 41.2405 38.9953 41.6729 38.9953 42.2062C38.9953 42.7396 38.5631 43.172 38.0296 43.172Z" fill="#C9C0C7"/>
</g>
<g clip-path="url(#clip1_2843_47963)">
<g clip-path="url(#clip2_2843_47963)">
<path d="M41 0.965292V46.0346C41 46.5685 40.4228 47 39.7114 47H0.288625C-0.422781 46.9999 -1 46.5685 -1 46.0346V0.965292C-1 0.431387 -0.422781 0 0.288625 0H39.7115C40.4228 0 41 0.431387 41 0.965292Z" fill="#F8F3F1"/>
<path d="M10.7847 14.6533H5.85659C5.09659 14.6533 4.48047 14.0372 4.48047 13.2772V8.34903C4.48047 7.58903 5.09659 6.9729 5.85659 6.9729H10.7846C11.5446 6.9729 12.1607 7.58903 12.1607 8.34903V13.277C12.1607 14.0371 11.5447 14.6533 10.7847 14.6533Z" fill="#35BCC7"/>
<path d="M12.1605 8.34927V13.277C12.1605 14.0366 11.544 14.6531 10.7844 14.6531H7.23828C7.99791 14.6531 8.61441 14.0366 8.61441 13.277V8.34927C8.61441 7.58964 7.99791 6.97314 7.23828 6.97314H10.7844C11.544 6.97314 12.1605 7.58964 12.1605 8.34927Z" fill="#20ABB9"/>
<path d="M8.28128 12.6674C8.03416 12.6674 7.78691 12.573 7.59828 12.3845L6.55628 11.3425C6.17916 10.9654 6.17916 10.3539 6.55628 9.97666C6.93353 9.59954 7.54491 9.59954 7.92228 9.97666L8.28128 10.3358L12.3527 6.26429C12.7299 5.88716 13.3413 5.88716 13.7187 6.26429C14.0958 6.64141 14.0958 7.25291 13.7187 7.63016L8.96428 12.3845C8.77566 12.5732 8.52841 12.6674 8.28128 12.6674Z" fill="#FDD330"/>
<path d="M20.7737 10.0306H17.7275C17.194 10.0306 16.7617 9.59825 16.7617 9.06487C16.7617 8.5315 17.1941 8.09912 17.7275 8.09912H20.7737C21.3072 8.09912 21.7395 8.5315 21.7395 9.06487C21.7396 9.59825 21.3072 10.0306 20.7737 10.0306Z" fill="#C9C0C7"/>
<path d="M35.0296 13.619H17.7275C17.194 13.619 16.7617 13.1866 16.7617 12.6532C16.7617 12.1199 17.1941 11.6875 17.7275 11.6875H35.0296C35.5631 11.6875 35.9953 12.1199 35.9953 12.6532C35.9955 13.1865 35.5631 13.619 35.0296 13.619Z" fill="#C9C0C7"/>
<path d="M10.7847 27.6533H5.85659C5.09659 27.6533 4.48047 27.0372 4.48047 26.2772V21.349C4.48047 20.589 5.09659 19.9729 5.85659 19.9729H10.7846C11.5446 19.9729 12.1607 20.589 12.1607 21.349V26.277C12.1607 27.0371 11.5447 27.6533 10.7847 27.6533Z" fill="#35BCC7"/>
<path d="M12.1605 21.3493V26.277C12.1605 27.0366 11.544 27.6531 10.7844 27.6531H7.23828C7.99791 27.6531 8.61441 27.0366 8.61441 26.277V21.3493C8.61441 20.5896 7.99791 19.9731 7.23828 19.9731H10.7844C11.544 19.9731 12.1605 20.5896 12.1605 21.3493Z" fill="#20ABB9"/>
<path d="M8.28128 25.6674C8.03416 25.6674 7.78691 25.573 7.59828 25.3845L6.55628 24.3425C6.17916 23.9654 6.17916 23.3539 6.55628 22.9767C6.93353 22.5995 7.54491 22.5995 7.92228 22.9767L8.28128 23.3358L12.3527 19.2643C12.7299 18.8872 13.3413 18.8872 13.7187 19.2643C14.0958 19.6414 14.0958 20.2529 13.7187 20.6302L8.96428 25.3845C8.77566 25.5732 8.52841 25.6674 8.28128 25.6674Z" fill="#FDD330"/>
<path d="M20.7737 23.0306H17.7275C17.194 23.0306 16.7617 22.5982 16.7617 22.0649C16.7617 21.5315 17.1941 21.0991 17.7275 21.0991H20.7737C21.3072 21.0991 21.7395 21.5315 21.7395 22.0649C21.7396 22.5982 21.3072 23.0306 20.7737 23.0306Z" fill="#C9C0C7"/>
<path d="M35.0296 26.619H17.7275C17.194 26.619 16.7617 26.1866 16.7617 25.6532C16.7617 25.1199 17.1941 24.6875 17.7275 24.6875H35.0296C35.5631 24.6875 35.9953 25.1199 35.9953 25.6532C35.9955 26.1865 35.5631 26.619 35.0296 26.619Z" fill="#C9C0C7"/>
<path d="M10.7847 40.6533H5.85659C5.09659 40.6533 4.48047 40.0372 4.48047 39.2772V34.349C4.48047 33.589 5.09659 32.9729 5.85659 32.9729H10.7846C11.5446 32.9729 12.1607 33.589 12.1607 34.349V39.277C12.1607 40.0371 11.5447 40.6533 10.7847 40.6533Z" fill="#35BCC7"/>
<path d="M12.1605 34.3493V39.277C12.1605 40.0366 11.544 40.6531 10.7844 40.6531H7.23828C7.99791 40.6531 8.61441 40.0366 8.61441 39.277V34.3493C8.61441 33.5896 7.99791 32.9731 7.23828 32.9731H10.7844C11.544 32.9731 12.1605 33.5896 12.1605 34.3493Z" fill="#20ABB9"/>
<path d="M8.28128 38.6674C8.03416 38.6674 7.78691 38.573 7.59828 38.3845L6.55628 37.3425C6.17916 36.9654 6.17916 36.3539 6.55628 35.9767C6.93353 35.5995 7.54491 35.5995 7.92228 35.9767L8.28128 36.3358L12.3527 32.2643C12.7299 31.8872 13.3413 31.8872 13.7187 32.2643C14.0958 32.6414 14.0958 33.2529 13.7187 33.6302L8.96428 38.3845C8.77566 38.5732 8.52841 38.6674 8.28128 38.6674Z" fill="#FDD330"/>
<path d="M20.7737 36.0306H17.7275C17.194 36.0306 16.7617 35.5982 16.7617 35.0649C16.7617 34.5315 17.1941 34.0991 17.7275 34.0991H20.7737C21.3072 34.0991 21.7395 34.5315 21.7395 35.0649C21.7396 35.5982 21.3072 36.0306 20.7737 36.0306Z" fill="#C9C0C7"/>
<path d="M35.0296 39.619H17.7275C17.194 39.619 16.7617 39.1866 16.7617 38.6532C16.7617 38.1199 17.1941 37.6875 17.7275 37.6875H35.0296C35.5631 37.6875 35.9953 38.1199 35.9953 38.6532C35.9955 39.1865 35.5631 39.619 35.0296 39.619Z" fill="#C9C0C7"/>
</g>
</g>
<defs>
<clipPath id="clip0_2843_47963">
<rect x="2" y="1" width="42" height="48" rx="1" fill="white"/>
</clipPath>
<clipPath id="clip1_2843_47963">
<rect width="41" height="47" fill="white"/>
</clipPath>
<clipPath id="clip2_2843_47963">
<rect width="42" height="47" fill="white" transform="translate(-1)"/>
</clipPath>
</defs>
</svg>
