<svg width="60" height="59" viewBox="0 0 60 59" fill="none" xmlns="http://www.w3.org/2000/svg">
<path d="M42.9935 4.50895V54.9813C42.9935 56.9971 41.3593 58.6312 39.3435 58.6312H3.64995C1.63412 58.6312 0 56.9971 0 54.9813V4.50774C0 2.4919 1.63412 0.857788 3.64995 0.857788H39.3422C41.3587 0.857667 42.9935 2.49239 42.9935 4.50895Z" fill="#EAF6FF"/>
<path d="M42.9939 4.50871V54.9813C42.9939 56.9968 41.3588 58.6306 39.3433 58.6306H35.572C37.5875 58.6306 39.2213 56.9968 39.2213 54.9813V4.50871C39.2213 2.49203 37.5863 0.858154 35.5696 0.858154H39.3421C41.3588 0.858154 42.9939 2.49203 42.9939 4.50871Z" fill="#C8EFFE"/>
<path d="M31.4493 6.5662V9.70473C31.4493 10.0816 31.1438 10.3871 30.7669 10.3871H12.035C11.6581 10.3871 11.3525 10.0816 11.3525 9.70473V6.5662C11.3525 6.18931 11.6581 5.88379 12.035 5.88379H30.7668C31.1438 5.88379 31.4493 6.18931 31.4493 6.5662Z" fill="#7CA1B1"/>
<path d="M52.0665 26.6066C51.9139 26.6243 51.7547 26.6034 51.6035 26.5382C51.1443 26.3399 50.9327 25.8069 51.1311 25.3476L57.7311 10.0624C57.8266 9.84129 57.7247 9.58468 57.5036 9.48928L55.6586 8.69263C55.2033 8.49603 54.9576 7.97363 55.1405 7.51257C55.3296 7.03557 55.8737 6.81253 56.3415 7.01456L59.437 8.35112C59.5524 8.401 59.6607 8.46923 59.7472 8.56052C60.0074 8.83537 60.0664 9.22337 59.9258 9.54869L52.794 26.0658C52.661 26.3737 52.3774 26.5703 52.0665 26.6066Z" fill="#7CA1B1"/>
<path d="M31.4494 6.56645V9.70498C31.4494 10.0817 31.1438 10.3873 30.7671 10.3873H26.9197C27.2964 10.3873 27.602 10.0817 27.602 9.70498V6.56645C27.602 6.18968 27.2964 5.88416 26.9197 5.88416H30.7671C31.1438 5.88416 31.4494 6.18968 31.4494 6.56645Z" fill="#678D98"/>
<path d="M47.9247 26.5074L37.4855 50.6839L33.5955 50.1023L29.7065 47.3251L40.1445 23.1479L44.379 23.2557L47.9247 26.5074Z" fill="#5986CB"/>
<path d="M47.9245 26.5074L37.486 50.6834L34.3958 49.3503L34.0417 50.1691L45.2991 24.0995L47.9245 26.5074Z" fill="#4278C3"/>
<path d="M56.3302 2.48134C56.3852 2.95279 56.3209 3.44524 56.119 3.91379L55.0257 6.44599L52.1078 5.8841L49.8782 4.2239L50.9726 1.69037C51.4524 0.580471 52.563 -0.0608819 53.7025 0.00456964C54.0217 0.0208722 54.3452 0.0950184 54.6563 0.228941C55.6099 0.64073 56.2179 1.51817 56.3302 2.48134Z" fill="#99E6FC"/>
<path d="M56.1193 3.91325L55.0253 6.44558L53.1135 5.99913L54.3454 3.14764C54.5483 2.6803 54.6123 2.1876 54.5567 1.71543C54.4818 1.06816 54.1824 0.459535 53.7029 0.00427246C54.0218 0.0211788 54.3454 0.094842 54.6557 0.228885C55.6097 0.640674 56.2184 1.51859 56.3307 2.48105C56.385 2.95322 56.321 3.44471 56.1193 3.91325Z" fill="#62DBFB"/>
<path d="M56.3414 7.01448L47.9246 26.5073L40.1445 23.1481L48.1977 4.50003C48.3992 4.03378 48.9404 3.81895 49.4067 4.02025L56.3414 7.01448Z" fill="#80B4FB"/>
<path d="M56.3414 7.01444L47.9245 26.5074L44.8354 25.173L53.2512 5.68005L56.3414 7.01444Z" fill="#61A2F9"/>
<path d="M34.3959 49.349V49.3502L29.7068 47.3251L34.3959 49.349Z" fill="#5986CB"/>
<path d="M37.4854 50.684L31.6382 56.1785C30.9106 56.8626 29.7175 56.3476 29.7168 55.3495L29.7151 53.7486L29.7058 47.3243L34.3965 49.3503L37.4854 50.684Z" fill="#99E6FC"/>
<path d="M37.485 50.6834L31.6378 56.1779C30.9108 56.8627 29.7177 56.347 29.7165 55.3495L29.7153 53.7483L34.396 49.3502L37.485 50.6834Z" fill="#62DBFB"/>
<path d="M36.1819 16.8481H6.63153C6.13134 16.8481 5.72583 16.4427 5.72583 15.9424C5.72583 15.4421 6.13134 15.0367 6.63153 15.0367H36.1819C36.6822 15.0367 37.0876 15.4421 37.0876 15.9424C37.0876 16.4427 36.6822 16.8481 36.1819 16.8481Z" fill="#7CA1B1"/>
<path d="M36.1819 22.5467H6.63153C6.13134 22.5467 5.72583 22.1414 5.72583 21.641C5.72583 21.1407 6.13134 20.7354 6.63153 20.7354H36.1819C36.6822 20.7354 37.0876 21.1407 37.0876 21.641C37.0876 22.1414 36.6822 22.5467 36.1819 22.5467Z" fill="#7CA1B1"/>
<path d="M28.8178 28.2452H6.63153C6.13134 28.2452 5.72583 27.8398 5.72583 27.3395C5.72583 26.8392 6.13134 26.4338 6.63153 26.4338H28.8178C29.318 26.4338 29.7235 26.8392 29.7235 27.3395C29.7235 27.8398 29.318 28.2452 28.8178 28.2452Z" fill="#7CA1B1"/>
<path d="M15.5078 33.9437H6.63153C6.13134 33.9437 5.72583 33.5383 5.72583 33.038C5.72583 32.5377 6.13134 32.1323 6.63153 32.1323H15.5078C16.008 32.1323 16.4135 32.5377 16.4135 33.038C16.4135 33.5383 16.0081 33.9437 15.5078 33.9437Z" fill="#7CA1B1"/>
<path d="M16.0278 51.5966C15.9203 51.5966 15.8109 51.5935 15.6993 51.5869C14.2656 51.5034 13.4243 50.7572 12.682 50.0989C11.9856 49.4814 11.4355 48.9936 10.3981 48.9389C8.40229 48.8354 7.41423 50.5749 7.37305 50.6489C7.1319 51.0845 6.58293 51.2463 6.14554 51.0078C5.70839 50.7692 5.5444 50.2253 5.78012 49.7867C5.84207 49.6712 7.33188 46.9649 10.4934 47.1302C12.1633 47.2182 13.1173 48.064 13.8838 48.7438C14.5306 49.3173 14.9979 49.7317 15.8047 49.7787C17.9498 49.9057 18.9719 48.105 18.9819 48.0867C19.2244 47.6491 19.7755 47.491 20.213 47.7334C20.6505 47.9759 20.8087 48.527 20.5664 48.9645C20.505 49.0755 19.072 51.5965 16.0278 51.5966Z" fill="#80B4FB"/>
</svg>
