<svg width="24" height="24" viewBox="0 0 24 24" fill="none" xmlns="http://www.w3.org/2000/svg">
<g clip-path="url(#clip0_953_8099)">
<path fill-rule="evenodd" clip-rule="evenodd" d="M8.53453 0H21.8512C22.3294 0 22.7203 0.390469 22.7203 0.869063V19.6852C22.7203 20.1633 22.3298 20.5542 21.8512 20.5542H8.53453C8.05734 20.5542 7.66547 20.1637 7.66547 19.6852V0.869063C7.66547 0.390938 8.05781 0 8.53453 0Z" fill="#429FE4"/>
<path fill-rule="evenodd" clip-rule="evenodd" d="M10.2858 2.31592H12.6989C12.8184 2.31592 12.9155 2.41436 12.9155 2.53248V4.94561C12.9155 5.06514 12.8184 5.16217 12.6989 5.16217H10.2858C10.1662 5.16217 10.0692 5.06514 10.0692 4.94561V2.53248C10.0692 2.41436 10.1662 2.31592 10.2858 2.31592Z" fill="white"/>
<path d="M15.4917 17.1421C15.278 17.1421 15.105 16.9682 15.105 16.7539C15.105 16.5397 15.278 16.3672 15.4917 16.3672H20.3166C20.5303 16.3672 20.7047 16.5402 20.7047 16.7539C20.7047 16.9677 20.5308 17.1421 20.3166 17.1421H15.4917ZM14.9086 3.04395C14.6948 3.04395 14.5205 2.87098 14.5205 2.65723C14.5205 2.44348 14.6944 2.27051 14.9086 2.27051H20.3166C20.5303 2.27051 20.7047 2.44348 20.7047 2.65723C20.7047 2.87098 20.5308 3.04395 20.3166 3.04395H14.9086ZM14.9086 5.20863C14.6948 5.20863 14.5205 5.03473 14.5205 4.82051C14.5205 4.60676 14.6944 4.43379 14.9086 4.43379H20.3166C20.5303 4.43379 20.7047 4.60676 20.7047 4.82051C20.7047 5.03426 20.5308 5.20863 20.3166 5.20863H14.9086ZM10.0692 8.48801C9.85546 8.48801 9.6825 8.3141 9.6825 8.09988C9.6825 7.88613 9.85546 7.71316 10.0692 7.71316H20.3166C20.5303 7.71316 20.7047 7.88613 20.7047 8.09988C20.7047 8.31363 20.5308 8.48801 20.3166 8.48801H10.0692ZM10.0692 10.6513C9.85546 10.6513 9.6825 10.4774 9.6825 10.2646C9.6825 10.0508 9.85546 9.87644 10.0692 9.87644H20.3166C20.5303 9.87644 20.7047 10.0504 20.7047 10.2646C20.7047 10.4774 20.5308 10.6513 20.3166 10.6513H10.0692ZM13.5853 12.8146C13.3725 12.8146 13.1986 12.6416 13.1986 12.4279C13.1986 12.2141 13.3725 12.0411 13.5853 12.0411H20.3166C20.5303 12.0411 20.7047 12.2141 20.7047 12.4279C20.7047 12.6416 20.5308 12.8146 20.3166 12.8146H13.5853ZM13.9055 14.9774C13.6927 14.9774 13.5187 14.8044 13.5187 14.5907C13.5187 14.3769 13.6927 14.2039 13.9055 14.2039H20.3166C20.5303 14.2039 20.7047 14.3769 20.7047 14.5907C20.7047 14.8044 20.5308 14.9774 20.3166 14.9774H13.9055Z" fill="white"/>
<path fill-rule="evenodd" clip-rule="evenodd" d="M8.53449 0H9.40636C8.92824 0 8.5373 0.390469 8.5373 0.869062V11.4858L8.52652 11.4511C8.48152 11.3142 8.36058 11.2266 8.21714 11.2266H7.66589V0.869062C7.66543 0.390938 8.05777 0 8.53449 0Z" fill="#8CC6F1"/>
<path fill-rule="evenodd" clip-rule="evenodd" d="M6.31451 12.4838C5.84669 12.6061 5.40419 12.7922 4.99638 13.0298C4.89654 13.087 4.78638 13.0908 4.68419 13.0392L3.91732 12.6473C3.78982 12.5836 3.64076 12.6061 3.53998 12.7073L2.75998 13.4873C2.65919 13.5881 2.63623 13.7372 2.69998 13.8647L3.09185 14.6316C3.14388 14.7338 3.13966 14.8453 3.08248 14.9437C2.84482 15.3516 2.65873 15.7941 2.53638 16.2619C2.50732 16.372 2.42998 16.4531 2.32263 16.4878L1.50419 16.7536C1.36732 16.7986 1.27966 16.9195 1.27966 17.063V18.1645C1.27966 18.308 1.36732 18.4289 1.50419 18.4739L2.32263 18.7397C2.43044 18.7744 2.50732 18.8555 2.53638 18.9656C2.65873 19.4334 2.84482 19.8759 3.08248 20.2838C3.13966 20.3822 3.14341 20.4938 3.09185 20.5959L2.69998 21.3628C2.63623 21.4903 2.65873 21.6394 2.75998 21.7402L3.53998 22.5202C3.64076 22.6209 3.78982 22.6439 3.91732 22.5802L4.68419 22.1883C4.78638 22.1363 4.89794 22.1405 4.99638 22.1977C5.40419 22.4353 5.84669 22.6214 6.31451 22.7438C6.42466 22.7728 6.50576 22.8502 6.54044 22.9575L6.80623 23.7759C6.85123 23.9128 6.97216 24.0005 7.1156 24.0005H8.21716C8.3606 24.0005 8.48154 23.9128 8.52654 23.7759L8.79232 22.9575C8.82701 22.8497 8.9081 22.7728 9.01826 22.7438C9.48607 22.6214 9.92857 22.4353 10.3364 22.1977C10.4348 22.1405 10.5464 22.1367 10.6486 22.1883L11.4154 22.5802C11.5429 22.6439 11.692 22.6214 11.7928 22.5202L12.5728 21.7402C12.6736 21.6394 12.6965 21.4903 12.6328 21.3628L12.2409 20.5959C12.1889 20.4938 12.1931 20.3822 12.2503 20.2838C12.4879 19.8759 12.674 19.4334 12.7964 18.9656C12.8254 18.8555 12.9028 18.7744 13.0101 18.7397L13.8281 18.4734C13.965 18.4284 14.0526 18.3075 14.0526 18.1641V17.0625C14.0526 16.9191 13.965 16.7981 13.8281 16.7531L13.0097 16.4873C12.9019 16.4527 12.825 16.3716 12.7959 16.2614C12.6736 15.7936 12.4875 15.3511 12.2498 14.9433C12.1926 14.8448 12.1889 14.7333 12.2404 14.6311L12.6323 13.8642C12.6961 13.7367 12.6736 13.5877 12.5723 13.4869L11.7923 12.7069C11.6915 12.6061 11.5425 12.5831 11.415 12.6469L10.6481 13.0388C10.5459 13.0908 10.4344 13.0866 10.3359 13.0294C9.9281 12.7917 9.4856 12.6056 9.01779 12.4833C8.90763 12.4542 8.82654 12.3769 8.79185 12.2695L8.52607 11.4511C8.48107 11.3142 8.36013 11.2266 8.21669 11.2266H7.11513C6.97169 11.2266 6.85076 11.3142 6.80576 11.4511L6.53998 12.2695C6.50576 12.3773 6.42466 12.4542 6.31451 12.4838Z" fill="#BEC7CF"/>
<path fill-rule="evenodd" clip-rule="evenodd" d="M6.31451 12.4838C5.89732 12.5925 5.49982 12.7523 5.12904 12.9539L5.29357 13.0388C5.39576 13.0908 5.50732 13.0866 5.60576 13.0294C6.01357 12.7917 6.45607 12.6056 6.92388 12.4833C7.03404 12.4542 7.11513 12.3769 7.14982 12.2695L7.41701 11.4511C7.46107 11.3142 7.58154 11.2266 7.72544 11.2266H7.1156C6.97216 11.2266 6.85123 11.3142 6.80623 11.4511L6.54044 12.2695C6.50576 12.3773 6.42466 12.4542 6.31451 12.4838ZM4.10998 12.7467L3.91732 12.6469C3.78982 12.5831 3.64076 12.6056 3.53998 12.7069L2.75998 13.4869C2.65919 13.5877 2.63623 13.7367 2.69998 13.8642L3.09185 14.6311C3.14388 14.7333 3.13966 14.8448 3.08248 14.9433C2.84482 15.3511 2.65873 15.7936 2.53638 16.2614C2.50732 16.3716 2.42998 16.4527 2.32263 16.4873L1.50419 16.7531C1.36732 16.7981 1.27966 16.9191 1.27966 17.0625V18.1641C1.27966 18.3075 1.36732 18.4284 1.50419 18.4734L2.32263 18.7392C2.43044 18.7739 2.50732 18.855 2.53638 18.9652C2.65873 19.433 2.84482 19.8755 3.08248 20.2833C3.13966 20.3817 3.14341 20.4933 3.09185 20.5955L2.69998 21.3623C2.63623 21.4898 2.65873 21.6389 2.75998 21.7397L3.53998 22.5197C3.64076 22.6205 3.78982 22.6434 3.91732 22.5797L4.10998 22.4798L3.37123 21.7397C3.26904 21.6389 3.24654 21.4898 3.31123 21.3623L3.70169 20.5955C3.75373 20.4933 3.74951 20.3817 3.69232 20.2833C3.45466 19.8755 3.26998 19.433 3.14623 18.9652C3.11716 18.855 3.04123 18.7739 2.93248 18.7392L2.11404 18.4734C1.97716 18.4284 1.88951 18.3075 1.88951 18.1641V17.0625C1.88951 16.9191 1.97716 16.7981 2.11404 16.7531L2.93248 16.4873C3.04029 16.4527 3.11716 16.3716 3.14623 16.2614C3.26857 15.7936 3.45466 15.3511 3.69232 14.9433C3.74951 14.8448 3.75326 14.7333 3.70169 14.6311L3.31123 13.8642C3.24607 13.7367 3.26857 13.5877 3.37123 13.4869L4.10998 12.7467ZM5.12904 22.2727C5.49982 22.4747 5.89685 22.6341 6.31451 22.7428C6.42466 22.7719 6.50576 22.8492 6.54044 22.9566L6.80623 23.775C6.85123 23.9119 6.97216 23.9995 7.1156 23.9995H7.72544C7.58201 23.9995 7.46107 23.9119 7.41701 23.775L7.14982 22.9566C7.11513 22.8487 7.03404 22.7719 6.92388 22.7428C6.45607 22.6205 6.01357 22.4344 5.60576 22.1967C5.50732 22.1395 5.39576 22.1358 5.29357 22.1873L5.12904 22.2727Z" fill="#ABB3BA"/>
<path fill-rule="evenodd" clip-rule="evenodd" d="M10.1236 17.613C10.1236 18.9709 9.02343 20.0711 7.66546 20.0711C6.3089 20.0711 5.20874 18.9709 5.20874 17.613C5.20874 16.2564 6.3089 15.1563 7.66546 15.1563C9.02343 15.1558 10.1236 16.2559 10.1236 17.613Z" fill="#EAF6FF"/>
<path fill-rule="evenodd" clip-rule="evenodd" d="M7.93921 20.0561C7.84874 20.0654 7.75827 20.0706 7.66546 20.0706C6.3089 20.0706 5.20874 18.9704 5.20874 17.6125C5.20874 16.2559 6.3089 15.1558 7.66546 15.1558C7.75827 15.1558 7.84874 15.1609 7.93921 15.1703C6.71015 15.3058 5.75343 16.3473 5.75343 17.6125C5.75343 18.879 6.71015 19.9206 7.93921 20.0561Z" fill="#D3DDE6"/>
</g>
<defs>
<clipPath id="clip0_953_8099">
<rect width="24" height="24" fill="white"/>
</clipPath>
</defs>
</svg>
