<svg width="24" height="24" viewBox="0 0 24 24" fill="none" xmlns="http://www.w3.org/2000/svg">
<path d="M20.0156 24H3.98438C3.88083 24 3.79688 23.916 3.79688 23.8125V0.1875C3.79688 0.0839531 3.88083 0 3.98438 0H20.0156C20.1192 0 20.2031 0.0839531 20.2031 0.1875V23.8125C20.2031 23.916 20.1192 24 20.0156 24Z" fill="#FFD94F"/>
<path d="M20.0156 24H18.764V0H20.0156C20.1192 0 20.2031 0.0839531 20.2031 0.1875V23.8125C20.2031 23.916 20.1192 24 20.0156 24Z" fill="#FFC30A"/>
<path d="M11.503 2.75146H6.48413C6.28997 2.75146 6.13257 2.59406 6.13257 2.3999C6.13257 2.20575 6.28997 2.04834 6.48413 2.04834H11.503C11.6972 2.04834 11.8546 2.20575 11.8546 2.3999C11.8546 2.59406 11.6972 2.75146 11.503 2.75146Z" fill="#CE7937"/>
<path d="M11.4896 4.82544H6.49756C6.3034 4.82544 6.146 4.66803 6.146 4.47388C6.146 4.27972 6.3034 4.12231 6.49756 4.12231H11.4896C11.6837 4.12231 11.8411 4.27972 11.8411 4.47388C11.8411 4.66803 11.6837 4.82544 11.4896 4.82544Z" fill="#CE7937"/>
<path d="M16.9363 21.9514H11.9443C11.7501 21.9514 11.5927 21.794 11.5927 21.5999C11.5927 21.4057 11.7501 21.2483 11.9443 21.2483H16.9363C17.1304 21.2483 17.2878 21.4057 17.2878 21.5999C17.2878 21.794 17.1305 21.9514 16.9363 21.9514Z" fill="#CE7937"/>
<path d="M17.52 9.91919H6.47998C6.28582 9.91919 6.12842 9.76178 6.12842 9.56763C6.12842 9.37347 6.28582 9.21606 6.47998 9.21606H17.52C17.7141 9.21606 17.8715 9.37347 17.8715 9.56763C17.8715 9.76178 17.7141 9.91919 17.52 9.91919Z" fill="#CE7937"/>
<path d="M17.52 12.125H6.47998C6.28582 12.125 6.12842 11.9676 6.12842 11.7734C6.12842 11.5793 6.28582 11.4219 6.47998 11.4219H17.52C17.7141 11.4219 17.8715 11.5793 17.8715 11.7734C17.8715 11.9676 17.7141 12.125 17.52 12.125Z" fill="#CE7937"/>
<path d="M17.52 14.3306H6.47998C6.28582 14.3306 6.12842 14.1732 6.12842 13.979C6.12842 13.7848 6.28582 13.6274 6.47998 13.6274H17.52C17.7141 13.6274 17.8715 13.7848 17.8715 13.979C17.8715 14.1732 17.7141 14.3306 17.52 14.3306Z" fill="#CE7937"/>
<path d="M17.52 16.5364H6.47998C6.28582 16.5364 6.12842 16.379 6.12842 16.1848C6.12842 15.9907 6.28582 15.8333 6.47998 15.8333H17.52C17.7141 15.8333 17.8715 15.9907 17.8715 16.1848C17.8715 16.379 17.7141 16.5364 17.52 16.5364Z" fill="#CE7937"/>
<path d="M18.3836 6.90856L16.5361 6.38614L16.9689 4.85553C17.1132 4.34534 17.6437 4.04872 18.1539 4.19295C18.6641 4.33723 18.9607 4.86776 18.8164 5.37795L18.3836 6.90856Z" fill="#F14D3F"/>
<path d="M15.6877 18.4261C15.795 18.5911 15.7613 18.8105 15.6108 18.9361L13.9622 20.3086L13.591 20.618C13.5399 20.6606 13.4616 20.6386 13.4405 20.5753L13.2858 20.1173L12.6 18.0853C12.5377 17.8988 12.6244 17.6944 12.8016 17.61L12.9586 17.5359C13.2956 17.3756 13.5474 17.0775 13.6491 16.718L13.966 15.6094L15.7505 16.1138L15.4331 17.2223C15.3314 17.5823 15.39 17.9677 15.593 18.2808L15.6877 18.4261Z" fill="#AEFFFA"/>
<path d="M14.6264 17.9607L13.9622 20.3087L13.5909 20.6181C13.5398 20.6607 13.4615 20.6387 13.4405 20.5754L13.2858 20.1174L13.9495 17.7695C14.0025 17.5824 14.197 17.4742 14.3836 17.5267C14.5706 17.5796 14.6789 17.7742 14.6264 17.9607Z" fill="#3DECEC"/>
<path d="M18.6473 8.6225L16.4177 16.5077C16.3507 16.7445 16.1044 16.8823 15.8676 16.8153L13.492 16.1435C13.2551 16.0766 13.1174 15.8303 13.1844 15.5935L15.414 7.70825L18.6473 8.6225Z" fill="#BF6429"/>
<path d="M17.2472 8.22656L14.9842 16.2298C14.95 16.3506 14.8731 16.447 14.7759 16.5066L15.8676 16.8152C16.1044 16.8822 16.3507 16.7445 16.4177 16.5077L18.6473 8.62247L17.2472 8.22656Z" fill="#A94F1E"/>
<path d="M18.6473 8.62247L15.414 7.70826L15.9638 5.76398C15.9919 5.66433 16.0956 5.60639 16.1952 5.63456L19.0675 6.44676C19.1672 6.47494 19.2251 6.57858 19.197 6.67819L18.6473 8.62247Z" fill="#44DDFA"/>
<path d="M17.8495 6.10229L17.2488 8.227L18.6473 8.62244L19.197 6.67815C19.2252 6.5785 19.1673 6.4749 19.0676 6.44673L17.8495 6.10229Z" fill="#47BFFF"/>
</svg>
