<svg width="64" height="64" viewBox="0 0 64 64" fill="none" xmlns="http://www.w3.org/2000/svg">
<g clip-path="url(#clip0_540_1168)">
<path fill-rule="evenodd" clip-rule="evenodd" d="M5.45874 38.1163V39.7463C5.45874 40.3413 5.82749 40.8488 6.39124 41.0325L9.79624 42.1375C10.2462 42.2825 10.565 42.6188 10.685 43.0763C11.195 45.0213 11.9637 46.86 12.9562 48.5538C13.1937 48.965 13.2075 49.425 12.9912 49.8475L11.365 53.04C11.0962 53.5675 11.195 54.185 11.6125 54.6063L14.8512 57.845C15.2725 58.2625 15.89 58.3625 16.4175 58.0925L19.61 56.4663C20.0312 56.25 20.4925 56.2638 20.9037 56.505C22.5975 57.4938 24.4362 58.2625 26.3812 58.7763C26.8387 58.8938 27.175 59.2125 27.32 59.6625L28.425 63.0675C28.6087 63.6313 29.1162 64 29.7112 64H34.2887C34.8837 64 35.3875 63.6313 35.5712 63.0675L36.6762 59.6625C36.8212 59.2125 37.1587 58.8938 37.6187 58.7763C39.56 58.2625 41.4 57.4938 43.0962 56.505C43.5037 56.2638 43.9675 56.25 44.39 56.4663L47.5787 58.0925C48.11 58.3613 48.7262 58.2625 49.1487 57.845L52.3837 54.6063C52.805 54.185 52.905 53.5675 52.6312 53.04L51.0087 49.8475C50.7925 49.4263 50.8062 48.965 51.0437 48.5538C52.0325 46.86 52.805 45.0213 53.315 43.0763C53.435 42.6188 53.7537 42.2825 54.2037 42.1375L57.605 41.0325C58.1725 40.8488 58.5375 40.3413 58.5375 39.7463V38.1163C58.5375 37.755 58.2437 37.4575 57.8825 37.4575H6.11749C5.75624 37.4563 5.45874 37.7538 5.45874 38.1163Z" fill="#2F5274"/>
<path fill-rule="evenodd" clip-rule="evenodd" d="M44.4812 37.4563C44.4812 44.3475 38.8937 49.9363 32.0012 49.9363C25.1087 49.9363 19.5212 44.3488 19.5212 37.4563H44.4812Z" fill="#EBF5FC"/>
<g clip-path="url(#clip1_540_1168)">
<path d="M36.278 25.8777C36.7446 24.3222 37.678 22.9222 38.9224 21.8333C41.2558 19.8888 42.7336 16.9333 42.7336 13.6666C42.7336 7.59994 37.6781 2.62213 31.4558 2.93327C25.9335 3.1666 21.4224 7.83327 21.2668 13.3555C21.189 16.7777 22.6668 19.8111 25.078 21.8333C26.4002 22.9221 27.3335 24.3221 27.8002 25.8777H36.278Z" fill="#FFD15C"/>
<path d="M30.989 26.0331H31.689L28.5779 14.4443C28.6557 14.4443 28.7334 14.4443 28.8112 14.4443C29.2001 14.4443 29.589 14.2887 29.9001 13.9776C30.0556 13.8221 30.2112 13.7443 30.4445 13.7443C30.6779 13.7443 30.8334 13.8221 30.989 13.9776C31.5335 14.5998 32.4668 14.5998 33.0112 13.9776C33.1667 13.8221 33.3223 13.7443 33.5557 13.7443C33.7112 13.7443 33.9445 13.8221 34.1001 13.9776C34.4113 14.2887 34.7223 14.4443 35.189 14.4443C35.2668 14.4443 35.3445 14.4443 35.4223 14.4443L32.389 26.0331H33.089L36.2779 13.8998C36.2779 13.7443 36.2779 13.5887 36.1223 13.5109C35.9668 13.4331 35.8112 13.5109 35.7335 13.5887C35.5779 13.7443 35.4223 13.8221 35.2668 13.8221C35.0335 13.8221 34.8779 13.7443 34.6446 13.5887C34.3335 13.2776 34.0224 13.1221 33.6335 13.1221C33.2445 13.1221 32.9335 13.2776 32.6223 13.5887C32.3112 13.8999 31.8445 13.8999 31.5335 13.5887C31.3001 13.2776 30.9113 13.1221 30.5223 13.1221C30.1335 13.1221 29.7445 13.2776 29.5112 13.5887C29.3557 13.7443 29.1223 13.8221 28.889 13.8221C28.7335 13.8221 28.5001 13.7443 28.4223 13.5887C28.3445 13.5109 28.189 13.4332 28.0335 13.5109C27.8779 13.5887 27.8001 13.7443 27.8779 13.8998L30.989 26.0331Z" fill="white"/>
<path d="M29.5889 33.0332C29.9778 33.9665 30.9111 34.6665 32 34.6665C33.0889 34.6665 34.0222 33.9665 34.4111 33.0332H29.5889Z" fill="#344A5E"/>
<path d="M34.8779 33.1109H29.2C28.4222 33.1109 27.8 32.4887 27.8 31.7109V25.7998H36.2779V31.7109C36.2779 32.4887 35.6556 33.1109 34.8779 33.1109Z" fill="#344A5E"/>
<path d="M36.2001 28.7555H27.8001C27.3334 28.7555 26.9446 28.3666 26.9446 27.9C26.9446 27.4333 27.3334 27.0444 27.8001 27.0444H36.2001C36.6668 27.0444 37.0556 27.4333 37.0556 27.9C37.0556 28.3666 36.6668 28.7555 36.2001 28.7555Z" fill="#415A6B"/>
<path d="M36.2001 31.4777H27.8001C27.3334 31.4777 26.9446 31.0888 26.9446 30.6221C26.9446 30.1555 27.3334 29.7666 27.8001 29.7666H36.2001C36.6668 29.7666 37.0556 30.1555 37.0556 30.6221C37.0556 31.0887 36.6668 31.4777 36.2001 31.4777Z" fill="#415A6B"/>
<path d="M32.0002 -2.66675C31.6114 -2.66675 31.2224 -2.35561 31.2224 -1.88895V0.755522C31.2224 1.14439 31.5335 1.53332 32.0002 1.53332C32.4669 1.53332 32.778 1.22219 32.778 0.755522V-1.88895C32.778 -2.35561 32.3891 -2.66675 32.0002 -2.66675Z" fill="#FFD15C"/>
<path d="M21.578 2.07783C21.2669 1.7667 20.8002 1.7667 20.4892 2.07783C20.1781 2.38897 20.178 2.85564 20.4892 3.1667L22.3558 5.03336C22.667 5.3445 23.1337 5.3445 23.4447 5.03336C23.7558 4.72223 23.7559 4.25556 23.4447 3.9445L21.578 2.07783Z" fill="#FFD15C"/>
<path d="M19.1669 12.811H16.5224C16.1336 12.811 15.7446 13.1222 15.7446 13.5888C15.7446 13.9777 16.0558 14.3666 16.5224 14.3666H19.1669C19.5558 14.3666 19.9447 14.0555 19.9447 13.5888C19.9447 13.1999 19.5558 12.811 19.1669 12.811Z" fill="#FFD15C"/>
<path d="M22.3559 22.1445L20.4892 24.0111C20.1781 24.3223 20.1781 24.7889 20.4892 25.1C20.8003 25.411 21.267 25.4111 21.5781 25.1L23.4447 23.2333C23.7559 22.9222 23.7559 22.4555 23.4447 22.1445C23.1336 21.8334 22.667 21.8333 22.3559 22.1445Z" fill="#FFD15C"/>
<path d="M41.6448 22.1445C41.3337 21.8333 40.867 21.8333 40.5559 22.1445C40.2447 22.4556 40.2447 22.9223 40.5559 23.2333L42.4225 25.1C42.7337 25.4111 43.2003 25.4111 43.5114 25.1C43.8225 24.7889 43.8225 24.3222 43.5114 24.0112L41.6448 22.1445Z" fill="#FFD15C"/>
<path d="M47.4779 12.811H44.8335C44.4446 12.811 44.0557 13.1222 44.0557 13.5888C44.0557 13.9777 44.3668 14.3666 44.8335 14.3666H47.4779C47.8668 14.3666 48.2557 14.0555 48.2557 13.5888C48.2557 13.1999 47.9446 12.811 47.4779 12.811Z" fill="#FFD15C"/>
<path d="M42.4225 2.07781L40.5559 3.94447C40.2447 4.25561 40.2447 4.72227 40.5559 5.03334C40.867 5.34447 41.3337 5.34447 41.6447 5.03334L43.5114 3.16667C43.8225 2.85554 43.8225 2.38887 43.5114 2.07781C43.2003 1.76674 42.7337 1.76667 42.4225 2.07781Z" fill="#FFD15C"/>
</g>
<path fill-rule="evenodd" clip-rule="evenodd" d="M33.355 49.8613C32.9087 49.9113 32.4587 49.9363 32.0012 49.9363C25.11 49.9363 19.5212 44.3488 19.5212 37.4563H22.2325C22.2325 43.8913 27.1012 49.1888 33.355 49.8613Z" fill="#D4DDE3"/>
<path fill-rule="evenodd" clip-rule="evenodd" d="M5.45874 38.1163V39.7463C5.45874 40.3413 5.82749 40.8488 6.39124 41.0326L9.79624 42.1376C10.2462 42.2826 10.565 42.6188 10.685 43.0763C11.195 45.0213 11.9637 46.8601 12.9562 48.5538C13.1937 48.965 13.2075 49.4251 12.9912 49.8476L11.365 53.0401C11.0962 53.5676 11.195 54.1851 11.6125 54.6063L14.8512 57.8451C15.2725 58.2626 15.89 58.3626 16.4175 58.0926L17.6475 57.4651L14.7875 54.6051C14.3662 54.1838 14.27 53.5663 14.54 53.0388L16.1662 49.8463C16.3787 49.425 16.3687 48.9638 16.1275 48.5526C15.1387 46.8588 14.37 45.0201 13.8562 43.0751C13.7362 42.6176 13.42 42.2813 12.97 42.1363L9.56499 41.0313C9.00124 40.8475 8.63249 40.34 8.63249 39.745V38.1151C8.63249 37.7538 8.92624 37.4563 9.29124 37.4563H6.11624C5.75624 37.4563 5.45874 37.7538 5.45874 38.1163ZM21.7687 56.9838C23.2175 57.7451 24.7625 58.3513 26.3825 58.7763C26.84 58.8938 27.1762 59.2126 27.3212 59.6625L28.4262 63.0676C28.61 63.6313 29.1175 64.0001 29.7125 64.0001H32.8875C32.2925 64.0001 31.785 63.6313 31.6012 63.0676L30.4962 59.6625C30.3512 59.2126 30.015 58.8938 29.5575 58.7763C27.6125 58.2626 25.7737 57.4938 24.08 56.5051C23.6687 56.2638 23.205 56.2501 22.7837 56.4663L21.7687 56.9838Z" fill="#2A4A68"/>
</g>
<defs>
<clipPath id="clip0_540_1168">
<rect width="64" height="64" fill="white"/>
</clipPath>
<clipPath id="clip1_540_1168">
<rect width="37.3333" height="37.3333" fill="white" transform="translate(13.3335 -2.66675)"/>
</clipPath>
</defs>
</svg>
