<svg width="34" height="34" viewBox="0 0 34 34" fill="none" xmlns="http://www.w3.org/2000/svg">
<g clip-path="url(#clip0_920_377)">
<g clip-path="url(#clip1_920_377)">
<path fill-rule="evenodd" clip-rule="evenodd" d="M2.8147 19.6536V20.4941C2.8147 20.8009 3.00483 21.0626 3.29552 21.1573L5.05122 21.7271C5.28325 21.8019 5.44761 21.9752 5.50948 22.2111C5.77245 23.214 6.16884 24.1621 6.6806 25.0355C6.80306 25.2475 6.81015 25.4847 6.69864 25.7026L5.86011 27.3487C5.72153 27.6207 5.77245 27.9391 5.98772 28.1563L7.65771 29.8263C7.87491 30.0415 8.19331 30.0931 8.4653 29.9539L10.1114 29.1154C10.3286 29.0039 10.5665 29.0109 10.7785 29.1353C11.6519 29.6452 12.6 30.0415 13.6029 30.3064C13.8388 30.367 14.0121 30.5314 14.0869 30.7634L14.6567 32.5191C14.7514 32.8098 15.0131 32.9999 15.3199 32.9999H17.6802C17.987 32.9999 18.2467 32.8098 18.3415 32.5191L18.9112 30.7634C18.986 30.5314 19.16 30.367 19.3972 30.3064C20.3982 30.0415 21.3469 29.6452 22.2215 29.1353C22.4316 29.0109 22.6708 29.0039 22.8886 29.1154L24.5328 29.9539C24.8067 30.0925 25.1245 30.0415 25.3424 29.8263L27.0104 28.1563C27.2276 27.9391 27.2792 27.6207 27.138 27.3487L26.3014 25.7026C26.1899 25.4854 26.197 25.2475 26.3195 25.0355C26.8293 24.1621 27.2276 23.214 27.4906 22.2111C27.5524 21.9752 27.7168 21.8019 27.9488 21.7271L29.7026 21.1573C29.9952 21.0626 30.1834 20.8009 30.1834 20.4941V19.6536C30.1834 19.4674 30.032 19.314 29.8457 19.314H3.15437C2.9681 19.3133 2.8147 19.4667 2.8147 19.6536Z" fill="#2F5274"/>
<path fill-rule="evenodd" clip-rule="evenodd" d="M22.9357 19.3134C22.9357 22.8667 20.0546 25.7484 16.5007 25.7484C12.9467 25.7484 10.0657 22.8673 10.0657 19.3134H22.9357Z" fill="#EBF5FC"/>
<g clip-path="url(#clip2_920_377)">
<path d="M18.7057 13.3431C18.9464 12.5411 19.4276 11.8192 20.0693 11.2577C21.2724 10.2551 22.0344 8.73113 22.0344 7.04676C22.0344 3.91863 19.4277 1.35195 16.2193 1.51238C13.3719 1.6327 11.0458 4.03895 10.9656 6.88633C10.9255 8.65094 11.6875 10.215 12.9307 11.2577C13.6125 11.8191 14.0937 12.541 14.3344 13.3431H18.7057Z" fill="#FFD15C"/>
<path d="M15.9785 13.4233H16.3395L14.7353 7.44775C14.7754 7.44775 14.8155 7.44775 14.8556 7.44775C15.0561 7.44775 15.2566 7.36755 15.417 7.20712C15.4972 7.12693 15.5775 7.08681 15.6978 7.08681C15.8181 7.08681 15.8983 7.12693 15.9785 7.20712C16.2593 7.52795 16.7405 7.52795 17.0212 7.20712C17.1014 7.12693 17.1816 7.08681 17.302 7.08681C17.3822 7.08681 17.5025 7.12693 17.5827 7.20712C17.7431 7.36755 17.9035 7.44775 18.1441 7.44775C18.1843 7.44775 18.2243 7.44775 18.2645 7.44775L16.7004 13.4233H17.0613L18.7056 7.16701C18.7056 7.08681 18.7056 7.00658 18.6254 6.9665C18.5452 6.92638 18.465 6.9665 18.4249 7.00662C18.3447 7.08681 18.2645 7.12693 18.1843 7.12693C18.064 7.12693 17.9838 7.08681 17.8634 7.00662C17.703 6.84619 17.5426 6.76599 17.3421 6.76599C17.1415 6.76599 16.9811 6.84619 16.8207 7.00662C16.6603 7.16705 16.4197 7.16705 16.2593 7.00662C16.139 6.84619 15.9384 6.76599 15.7379 6.76599C15.5374 6.76599 15.3368 6.84619 15.2165 7.00662C15.1363 7.08681 15.016 7.12693 14.8957 7.12693C14.8155 7.12693 14.6952 7.08681 14.6551 7.00662C14.615 6.9665 14.5348 6.92642 14.4546 6.9665C14.3744 7.00662 14.3343 7.08681 14.3744 7.16701L15.9785 13.4233Z" fill="white"/>
<path d="M15.2568 17.0327C15.4574 17.514 15.9386 17.8749 16.5001 17.8749C17.0615 17.8749 17.5428 17.514 17.7433 17.0327H15.2568Z" fill="#344A5E"/>
<path d="M17.984 17.0728H15.0563C14.6553 17.0728 14.3345 16.752 14.3345 16.3509V13.303H18.7058V16.3509C18.7058 16.7519 18.385 17.0728 17.984 17.0728Z" fill="#344A5E"/>
<path d="M18.6657 14.827H14.3344C14.0938 14.827 13.8933 14.6265 13.8933 14.3858C13.8933 14.1452 14.0938 13.9447 14.3344 13.9447H18.6657C18.9063 13.9447 19.1068 14.1452 19.1068 14.3858C19.1068 14.6265 18.9063 14.827 18.6657 14.827Z" fill="#415A6B"/>
<path d="M18.6657 16.2307H14.3344C14.0938 16.2307 13.8933 16.0301 13.8933 15.7895C13.8933 15.5489 14.0938 15.3484 14.3344 15.3484H18.6657C18.9063 15.3484 19.1068 15.5489 19.1068 15.7895C19.1068 16.0301 18.9063 16.2307 18.6657 16.2307Z" fill="#415A6B"/>
<path d="M16.4999 -1.37512C16.2994 -1.37512 16.0989 -1.21469 16.0989 -0.974068V0.389486C16.0989 0.589994 16.2593 0.79054 16.4999 0.79054C16.7406 0.79054 16.901 0.630111 16.901 0.389486V-0.974068C16.901 -1.21469 16.7004 -1.37512 16.4999 -1.37512Z" fill="#FFD15C"/>
<path d="M11.1261 1.07125C10.9657 0.91082 10.725 0.91082 10.5646 1.07125C10.4043 1.23168 10.4042 1.4723 10.5646 1.6327L11.5271 2.5952C11.6876 2.75562 11.9282 2.75562 12.0886 2.5952C12.249 2.43477 12.249 2.19414 12.0886 2.03375L11.1261 1.07125Z" fill="#FFD15C"/>
<path d="M9.88277 6.60559H8.51922C8.31871 6.60559 8.11816 6.76602 8.11816 7.00665C8.11816 7.20715 8.27859 7.4077 8.51922 7.4077H9.88277C10.0833 7.4077 10.2838 7.24727 10.2838 7.00665C10.2838 6.8061 10.0833 6.60559 9.88277 6.60559Z" fill="#FFD15C"/>
<path d="M11.5269 11.4182L10.5644 12.3807C10.404 12.5411 10.404 12.7817 10.5644 12.9421C10.7248 13.1025 10.9655 13.1025 11.1259 12.9421L12.0884 11.9796C12.2488 11.8192 12.2488 11.5786 12.0884 11.4182C11.9279 11.2578 11.6873 11.2577 11.5269 11.4182Z" fill="#FFD15C"/>
<path d="M21.4728 11.4182C21.3124 11.2577 21.0718 11.2577 20.9113 11.4182C20.7509 11.5786 20.7509 11.8192 20.9113 11.9796L21.8738 12.9421C22.0343 13.1025 22.2749 13.1025 22.4353 12.9421C22.5957 12.7817 22.5957 12.5411 22.4353 12.3807L21.4728 11.4182Z" fill="#FFD15C"/>
<path d="M24.4807 6.60559H23.1171C22.9166 6.60559 22.7161 6.76602 22.7161 7.00665C22.7161 7.20715 22.8765 7.4077 23.1171 7.4077H24.4807C24.6812 7.4077 24.8817 7.24727 24.8817 7.00665C24.8817 6.8061 24.7213 6.60559 24.4807 6.60559Z" fill="#FFD15C"/>
<path d="M21.8738 1.07124L20.9113 2.03374C20.7509 2.19416 20.7509 2.43479 20.9113 2.59518C21.0718 2.75561 21.3124 2.75561 21.4728 2.59518L22.4353 1.63268C22.5957 1.47225 22.5957 1.23163 22.4353 1.07124C22.2749 0.910844 22.0343 0.910806 21.8738 1.07124Z" fill="#FFD15C"/>
</g>
<path fill-rule="evenodd" clip-rule="evenodd" d="M17.1987 25.7097C16.9686 25.7355 16.7366 25.7484 16.5007 25.7484C12.9474 25.7484 10.0657 22.8673 10.0657 19.3134H11.4637C11.4637 22.6314 13.9741 25.3629 17.1987 25.7097Z" fill="#D4DDE3"/>
<path fill-rule="evenodd" clip-rule="evenodd" d="M2.8147 19.6537V20.4941C2.8147 20.8009 3.00483 21.0626 3.29552 21.1574L5.05122 21.7271C5.28325 21.8019 5.44761 21.9753 5.50948 22.2112C5.77245 23.2141 6.16884 24.1622 6.6806 25.0355C6.80306 25.2476 6.81015 25.4847 6.69864 25.7026L5.86011 27.3487C5.72153 27.6207 5.77245 27.9391 5.98772 28.1563L7.65771 29.8263C7.87491 30.0416 8.19331 30.0931 8.4653 29.9539L9.09952 29.6304L7.62483 28.1557C7.40763 27.9385 7.358 27.6201 7.49722 27.3481L8.33575 25.7019C8.44532 25.4847 8.44017 25.2469 8.31577 25.0349C7.80595 24.1615 7.40956 23.2134 7.14466 22.2105C7.08278 21.9746 6.91972 21.8012 6.68769 21.7265L4.93198 21.1567C4.6413 21.062 4.45116 20.8003 4.45116 20.4935V19.653C4.45116 19.4668 4.60263 19.3134 4.79083 19.3134H3.15372C2.9681 19.3134 2.8147 19.4668 2.8147 19.6537ZM11.2245 29.3822C11.9716 29.7747 12.7682 30.0873 13.6035 30.3065C13.8394 30.3671 14.0128 30.5314 14.0875 30.7635L14.6573 32.5192C14.7521 32.8098 15.0137 33 15.3205 33H16.9576C16.6509 33 16.3892 32.8098 16.2944 32.5192L15.7247 30.7635C15.6499 30.5314 15.4765 30.3671 15.2406 30.3065C14.2377 30.0416 13.2896 29.6452 12.4163 29.1354C12.2042 29.011 11.9651 29.0039 11.7479 29.1154L11.2245 29.3822Z" fill="#2A4A68"/>
</g>
<g clip-path="url(#clip3_920_377)">
<path d="M32.3125 25C32.3125 26.4463 31.8836 27.8601 31.0801 29.0626C30.2766 30.2651 29.1346 31.2024 27.7984 31.7559C26.4622 32.3093 24.9919 32.4541 23.5734 32.172C22.1549 31.8898 20.852 31.1934 19.8293 30.1707C18.8066 29.148 18.1102 27.8451 17.828 26.4266C17.5459 25.0081 17.6907 23.5378 18.2441 22.2016C18.7976 20.8654 19.7349 19.7234 20.9374 18.9199C22.1399 18.1164 23.5537 17.6875 25 17.6875C26.9394 17.6875 28.7994 18.4579 30.1707 19.8293C31.5421 21.2006 32.3125 23.0606 32.3125 25Z" fill="#FBFBFB"/>
<path d="M32.3124 25.0001C32.3119 23.4519 31.8201 21.9438 30.9077 20.693C29.9953 19.4422 28.7096 18.5133 27.2355 18.0399C25.7614 17.5666 24.1752 17.5734 22.7052 18.0592C21.2352 18.545 19.9574 19.4848 19.0557 20.7433C20.4639 19.7342 22.1848 19.258 23.9115 19.3996C25.6382 19.5412 27.2585 20.2914 28.4835 21.5164C29.7086 22.7415 30.4588 24.3618 30.6003 26.0885C30.7419 27.8152 30.2657 29.536 29.2566 30.9443C30.2024 30.2683 30.9731 29.3762 31.5046 28.3423C32.0361 27.3084 32.313 26.1626 32.3124 25.0001Z" fill="#E3EFFA"/>
<path d="M25 16.2812C26.7244 16.2812 28.4101 16.7926 29.8439 17.7506C31.2777 18.7087 32.3952 20.0703 33.0551 21.6635C33.715 23.2566 33.8876 25.0097 33.5512 26.7009C33.2148 28.3922 32.3844 29.9457 31.1651 31.1651C29.9457 32.3844 28.3922 33.2148 26.7009 33.5512C25.0097 33.8876 23.2566 33.715 21.6635 33.0551C20.0703 32.3952 18.7087 31.2777 17.7506 29.8439C16.7926 28.4101 16.2812 26.7244 16.2812 25C16.2812 22.6876 17.1998 20.47 18.8349 18.8349C20.47 17.1998 22.6876 16.2813 25 16.2812ZM25 32.3125C26.4463 32.3125 27.8601 31.8836 29.0626 31.0801C30.2651 30.2766 31.2024 29.1346 31.7559 27.7984C32.3093 26.4622 32.4541 24.9919 32.172 23.5734C31.8898 22.1549 31.1934 20.852 30.1707 19.8293C29.148 18.8066 27.8451 18.1102 26.4266 17.828C25.0081 17.5459 23.5378 17.6907 22.2016 18.2441C20.8654 18.7976 19.7234 19.7349 18.9199 20.9374C18.1164 22.1399 17.6875 23.5537 17.6875 25C17.6875 26.9394 18.4579 28.7994 19.8293 30.1707C21.2006 31.5421 23.0606 32.3125 25 32.3125Z" fill="#FCC369"/>
<path d="M25.5625 20.8374V24.8537C25.5634 24.9844 25.5175 25.1111 25.4331 25.2109L23.6669 27.3596C23.6141 27.4193 23.548 27.4658 23.4739 27.4952C23.3999 27.5247 23.3199 27.5363 23.2406 27.5292C23.1612 27.5221 23.0846 27.4964 23.017 27.4543C22.9493 27.4121 22.8926 27.3546 22.8512 27.2865C22.776 27.163 22.7436 27.0181 22.7588 26.8743C22.774 26.7304 22.8362 26.5956 22.9356 26.4906L24.37 24.7974C24.4142 24.7469 24.4383 24.6818 24.4375 24.6146V20.8374C24.43 20.7591 24.439 20.6801 24.4639 20.6054C24.4888 20.5307 24.529 20.4621 24.582 20.4038C24.6349 20.3456 24.6995 20.2991 24.7715 20.2673C24.8434 20.2354 24.9213 20.219 25 20.219C25.0787 20.219 25.1565 20.2354 25.2285 20.2673C25.3005 20.2991 25.365 20.3456 25.418 20.4038C25.4709 20.4621 25.5111 20.5307 25.536 20.6054C25.5609 20.6801 25.5699 20.7591 25.5625 20.8374Z" fill="#555FA3"/>
<path d="M22.8512 27.2866C22.776 27.163 22.7436 27.0182 22.7588 26.8743C22.774 26.7305 22.8362 26.5957 22.9356 26.4906L24.37 24.7975C24.4142 24.747 24.4383 24.6819 24.4375 24.6147V20.8375C24.4375 20.7225 24.4675 20.6094 24.5247 20.5096C24.4959 20.504 24.4668 20.5008 24.4375 20.5C24.281 20.5078 24.1339 20.5773 24.0285 20.6932C23.9231 20.8092 23.8679 20.9622 23.875 21.1188V24.8959C23.8758 24.9631 23.8517 25.0282 23.8075 25.0787L22.3731 26.7719C22.2737 26.8769 22.2115 27.0117 22.1963 27.1556C22.1811 27.2994 22.2135 27.4443 22.2887 27.5678C22.3301 27.6359 22.3868 27.6934 22.4545 27.7356C22.5221 27.7777 22.5987 27.8034 22.6781 27.8105C22.7574 27.8176 22.8374 27.806 22.9114 27.7765C22.9855 27.7471 23.0516 27.7006 23.1044 27.6409L23.2028 27.5211C23.1312 27.5084 23.063 27.481 23.0025 27.4406C22.942 27.4002 22.8905 27.3478 22.8512 27.2866Z" fill="#E3EFFA"/>
<path d="M25 17.125C23.4425 17.125 21.9199 17.5869 20.6249 18.4522C19.3299 19.3175 18.3205 20.5474 17.7245 21.9864C17.1284 23.4253 16.9725 25.0087 17.2763 26.5363C17.5802 28.0639 18.3302 29.4671 19.4315 30.5685C20.5329 31.6698 21.9361 32.4198 23.4637 32.7237C24.9913 33.0275 26.5747 32.8716 28.0136 32.2756C29.4526 31.6795 30.6825 30.6702 31.5478 29.3751C32.4131 28.0801 32.875 26.5575 32.875 25C32.875 22.9114 32.0453 20.9084 30.5685 19.4315C29.0916 17.9547 27.0886 17.125 25 17.125ZM25 32.3125C23.5537 32.3125 22.1399 31.8836 20.9374 31.0801C19.7349 30.2766 18.7976 29.1346 18.2441 27.7984C17.6907 26.4622 17.5459 24.9919 17.828 23.5734C18.1102 22.1549 18.8066 20.852 19.8293 19.8293C20.852 18.8066 22.1549 18.1102 23.5734 17.828C24.9919 17.5459 26.4622 17.6907 27.7984 18.2441C29.1346 18.7976 30.2766 19.7349 31.0801 20.9374C31.8836 22.1399 32.3125 23.5537 32.3125 25C32.3125 26.9394 31.5421 28.7994 30.1707 30.1707C28.7994 31.5421 26.9394 32.3125 25 32.3125Z" fill="#ED9B52"/>
<path d="M25.2812 19.0938V17.6945C25.1879 17.6912 25.0942 17.6875 25 17.6875C24.9058 17.6875 24.8121 17.6912 24.7188 17.6945V19.0938H25.2812Z" fill="#555FA3"/>
<path d="M24.7188 30.9062V32.3055C24.8121 32.3088 24.9058 32.3125 25 32.3125C25.0942 32.3125 25.1879 32.3088 25.2812 32.3055V30.9062H24.7188Z" fill="#555FA3"/>
<path d="M32.3055 24.7188H30.9062V25.2812H32.3055C32.3088 25.1879 32.3125 25.0942 32.3125 25C32.3125 24.9058 32.3088 24.8121 32.3055 24.7188Z" fill="#555FA3"/>
<path d="M19.0938 24.7188H17.6945C17.6912 24.8121 17.6875 24.9058 17.6875 25C17.6875 25.0942 17.6912 25.1879 17.6945 25.2812H19.0938V24.7188Z" fill="#555FA3"/>
</g>
</g>
<defs>
<clipPath id="clip0_920_377">
<rect width="34" height="34" fill="white"/>
</clipPath>
<clipPath id="clip1_920_377">
<rect width="33" height="33" fill="white"/>
</clipPath>
<clipPath id="clip2_920_377">
<rect width="19.25" height="19.25" fill="white" transform="translate(6.875 -1.37512)"/>
</clipPath>
<clipPath id="clip3_920_377">
<rect width="18" height="18" fill="white" transform="translate(16 16)"/>
</clipPath>
</defs>
</svg>
