<svg width="52" height="52" viewBox="0 0 52 52" fill="none" xmlns="http://www.w3.org/2000/svg">
<g clip-path="url(#clip0_540_1237)">
<path fill-rule="evenodd" clip-rule="evenodd" d="M4.43518 30.9693V32.2937C4.43518 32.7771 4.73479 33.1895 5.19284 33.3388L7.9594 34.2366C8.32502 34.3544 8.58401 34.6276 8.68151 34.9993C9.09588 36.5796 9.72049 38.0736 10.5269 39.4498C10.7199 39.7839 10.731 40.1577 10.5553 40.501L9.23401 43.0949C9.01565 43.5235 9.09588 44.0252 9.4351 44.3674L12.0666 46.9989C12.4089 47.3381 12.9106 47.4194 13.3392 47.2L15.9331 45.8787C16.2753 45.703 16.6501 45.7142 16.9842 45.9102C18.3604 46.7135 19.8544 47.3381 21.4347 47.7556C21.8064 47.851 22.0796 48.11 22.1974 48.4756L23.0953 51.2422C23.2446 51.7003 23.6569 51.9999 24.1403 51.9999H27.8596C28.343 51.9999 28.7523 51.7003 28.9016 51.2422L29.7994 48.4756C29.9172 48.11 30.1914 47.851 30.5652 47.7556C32.1424 47.3381 33.6374 46.7135 35.0156 45.9102C35.3467 45.7142 35.7235 45.703 36.0668 45.8787L38.6577 47.2C39.0893 47.4184 39.59 47.3381 39.9333 46.9989L42.5617 44.3674C42.904 44.0252 42.9853 43.5235 42.7628 43.0949L41.4446 40.501C41.2689 40.1587 41.28 39.7839 41.473 39.4498C42.2764 38.0736 42.904 36.5796 43.3184 34.9993C43.4159 34.6276 43.6749 34.3544 44.0405 34.2366L46.804 33.3388C47.2651 33.1895 47.5617 32.7771 47.5617 32.2937V30.9693C47.5617 30.6758 47.323 30.4341 47.0295 30.4341H4.97042C4.6769 30.4331 4.43518 30.6748 4.43518 30.9693Z" fill="#2F5274"/>
<path fill-rule="evenodd" clip-rule="evenodd" d="M36.141 30.4331C36.141 36.0322 31.6011 40.5731 26.001 40.5731C20.4008 40.5731 15.861 36.0333 15.861 30.4331H36.141Z" fill="#EBF5FC"/>
<g clip-path="url(#clip1_540_1237)">
<path d="M29.4758 21.0252C29.8549 19.7613 30.6133 18.6238 31.6244 17.7391C33.5202 16.1592 34.721 13.7578 34.721 11.1037C34.721 6.17449 30.6133 2.13003 25.5577 2.38282C21.0709 2.57241 17.4056 6.36407 17.2792 10.8509C17.216 13.6315 18.4167 16.096 20.3758 17.7391C21.4501 18.6238 22.2084 19.7613 22.5876 21.0252H29.4758Z" fill="#FFD15C"/>
<path d="M25.1785 21.1519H25.7473L23.2195 11.7359C23.2827 11.7359 23.3458 11.7359 23.4091 11.7359C23.725 11.7359 24.041 11.6095 24.2938 11.3567C24.4201 11.2304 24.5466 11.1672 24.7361 11.1672C24.9257 11.1672 25.0521 11.2304 25.1785 11.3567C25.6209 11.8623 26.3792 11.8623 26.8216 11.3567C26.9479 11.2304 27.0743 11.1672 27.2639 11.1672C27.3903 11.1672 27.5799 11.2304 27.7063 11.3567C27.9591 11.6095 28.2118 11.7359 28.591 11.7359C28.6542 11.7359 28.7174 11.7359 28.7806 11.7359L26.316 21.1519H26.8848L29.4757 11.2935C29.4757 11.1672 29.4757 11.0407 29.3493 10.9776C29.223 10.9144 29.0966 10.9776 29.0334 11.0408C28.907 11.1672 28.7806 11.2304 28.6542 11.2304C28.4646 11.2304 28.3383 11.1672 28.1487 11.0408C27.8959 10.788 27.6432 10.6616 27.3271 10.6616C27.0111 10.6616 26.7584 10.788 26.5056 11.0408C26.2528 11.2936 25.8736 11.2936 25.6209 11.0408C25.4313 10.788 25.1154 10.6616 24.7993 10.6616C24.4834 10.6616 24.1674 10.788 23.9778 11.0408C23.8514 11.1672 23.6618 11.2304 23.4723 11.2304C23.3459 11.2304 23.1563 11.1672 23.0931 11.0408C23.0299 10.9776 22.9035 10.9144 22.7771 10.9776C22.6508 11.0408 22.5876 11.1672 22.6508 11.2935L25.1785 21.1519Z" fill="white"/>
<path d="M24.041 26.8394C24.357 27.5977 25.1154 28.1664 26.0001 28.1664C26.8848 28.1664 27.6431 27.5977 27.9591 26.8394H24.041Z" fill="#344A5E"/>
<path d="M28.3382 26.9027H23.725C23.0931 26.9027 22.5875 26.3972 22.5875 25.7652V20.9624H29.4757V25.7652C29.4757 26.3971 28.9701 26.9027 28.3382 26.9027Z" fill="#344A5E"/>
<path d="M29.4126 23.3634H22.5876C22.2084 23.3634 21.8925 23.0474 21.8925 22.6683C21.8925 22.2891 22.2084 21.9731 22.5876 21.9731H29.4126C29.7917 21.9731 30.1077 22.2891 30.1077 22.6683C30.1077 23.0474 29.7917 23.3634 29.4126 23.3634Z" fill="#415A6B"/>
<path d="M29.4126 25.5753H22.5876C22.2084 25.5753 21.8925 25.2593 21.8925 24.8802C21.8925 24.501 22.2084 24.1851 22.5876 24.1851H29.4126C29.7917 24.1851 30.1077 24.501 30.1077 24.8802C30.1077 25.2593 29.7917 25.5753 29.4126 25.5753Z" fill="#415A6B"/>
<path d="M26 -2.16699C25.6841 -2.16699 25.368 -1.91419 25.368 -1.53503V0.613603C25.368 0.929555 25.6208 1.24557 26 1.24557C26.3792 1.24557 26.632 0.992769 26.632 0.613603V-1.53503C26.632 -1.91419 26.316 -2.16699 26 -2.16699Z" fill="#FFD15C"/>
<path d="M17.532 1.68765C17.2792 1.43485 16.9001 1.43485 16.6473 1.68765C16.3946 1.94044 16.3945 2.31961 16.6473 2.57235L18.164 4.08901C18.4168 4.34181 18.796 4.34181 19.0487 4.08901C19.3014 3.83622 19.3015 3.45705 19.0487 3.20431L17.532 1.68765Z" fill="#FFD15C"/>
<path d="M15.573 10.4087H13.4243C13.1084 10.4087 12.7924 10.6615 12.7924 11.0407C12.7924 11.3566 13.0452 11.6726 13.4243 11.6726H15.573C15.8889 11.6726 16.2049 11.4198 16.2049 11.0407C16.2049 10.7246 15.8889 10.4087 15.573 10.4087Z" fill="#FFD15C"/>
<path d="M18.1639 17.9918L16.6472 19.5085C16.3944 19.7613 16.3944 20.1405 16.6472 20.3932C16.9 20.6459 17.2792 20.646 17.5319 20.3932L19.0486 18.8765C19.3014 18.6237 19.3014 18.2446 19.0486 17.9918C18.7958 17.7391 18.4167 17.739 18.1639 17.9918Z" fill="#FFD15C"/>
<path d="M33.8362 17.9918C33.5834 17.739 33.2042 17.739 32.9514 17.9918C32.6986 18.2446 32.6986 18.6238 32.9514 18.8765L34.4681 20.3932C34.7209 20.646 35.1001 20.646 35.3528 20.3932C35.6055 20.1404 35.6056 19.7612 35.3528 19.5085L33.8362 17.9918Z" fill="#FFD15C"/>
<path d="M38.5758 10.4087H36.4271C36.1112 10.4087 35.7952 10.6615 35.7952 11.0407C35.7952 11.3566 36.048 11.6726 36.4271 11.6726H38.5758C38.8917 11.6726 39.2077 11.4198 39.2077 11.0407C39.2077 10.7246 38.9549 10.4087 38.5758 10.4087Z" fill="#FFD15C"/>
<path d="M34.4681 1.68811L32.9514 3.20478C32.6986 3.45758 32.6986 3.83674 32.9514 4.08948C33.2042 4.34228 33.5834 4.34228 33.8361 4.08948L35.3528 2.57281C35.6056 2.32002 35.6056 1.94085 35.3528 1.68811C35.1 1.43537 34.7209 1.43531 34.4681 1.68811Z" fill="#FFD15C"/>
</g>
<path fill-rule="evenodd" clip-rule="evenodd" d="M27.1009 40.5122C26.7383 40.5528 26.3727 40.5731 26.001 40.5731C20.4018 40.5731 15.861 36.0333 15.861 30.4331H18.0639C18.0639 35.6615 22.0197 39.9658 27.1009 40.5122Z" fill="#D4DDE3"/>
<path fill-rule="evenodd" clip-rule="evenodd" d="M4.43518 30.9694V32.2937C4.43518 32.7772 4.73479 33.1895 5.19284 33.3388L7.9594 34.2366C8.32502 34.3544 8.58401 34.6276 8.68151 34.9994C9.09588 36.5797 9.72049 38.0737 10.5269 39.4498C10.7199 39.784 10.731 40.1577 10.5553 40.501L9.23401 43.0949C9.01565 43.5235 9.09588 44.0252 9.4351 44.3675L12.0666 46.999C12.4089 47.3382 12.9106 47.4194 13.3392 47.2001L14.3385 46.6902L12.0148 44.3665C11.6725 44.0242 11.5943 43.5225 11.8137 43.0939L13.135 40.5C13.3077 40.1577 13.2996 39.783 13.1035 39.4488C12.3002 38.0726 11.6756 36.5787 11.2581 34.9983C11.1606 34.6266 10.9037 34.3534 10.5381 34.2356L7.77151 33.3378C7.31346 33.1885 7.01385 32.7762 7.01385 32.2927V30.9683C7.01385 30.6748 7.25252 30.4331 7.54909 30.4331H4.9694C4.6769 30.4331 4.43518 30.6748 4.43518 30.9694ZM17.6871 46.2992C18.8642 46.9177 20.1195 47.4103 21.4357 47.7556C21.8074 47.8511 22.0807 48.1101 22.1985 48.4757L23.0963 51.2422C23.2456 51.7003 23.6579 51.9999 24.1414 51.9999H26.721C26.2376 51.9999 25.8253 51.7003 25.676 51.2422L24.7782 48.4757C24.6603 48.1101 24.3871 47.8511 24.0154 47.7556C22.4351 47.3382 20.9411 46.7136 19.5649 45.9102C19.2308 45.7142 18.854 45.703 18.5117 45.8787L17.6871 46.2992Z" fill="#2A4A68"/>
</g>
<defs>
<clipPath id="clip0_540_1237">
<rect width="52" height="52" fill="white"/>
</clipPath>
<clipPath id="clip1_540_1237">
<rect width="30.3333" height="30.3333" fill="white" transform="translate(10.8334 -2.16699)"/>
</clipPath>
</defs>
</svg>
