<svg width="16" height="18" viewBox="0 0 16 18" fill="none" xmlns="http://www.w3.org/2000/svg">
<g clip-path="url(#clip0_3826_14988)">
<path d="M11.2204 0H4.19224C3.41592 0 2.78661 0.644652 2.78661 1.43988V14.9428C2.78661 15.738 3.41592 16.3827 4.19224 16.3827H13.5631C14.3394 16.3827 14.9688 15.738 14.9688 14.9428V3.83969L11.2204 0Z" fill="#E4F2F9"/>
<path d="M11.2204 0V3.35973C11.2204 3.6248 11.4302 3.83969 11.6889 3.83969H14.9688L11.2204 0Z" fill="#77BEE2"/>
<path d="M12.3137 9.66354H5.44169C5.18293 9.66354 4.97314 9.44864 4.97314 9.18357C4.97314 8.91851 5.18293 8.70361 5.44169 8.70361H12.3137C12.5724 8.70361 12.7822 8.91851 12.7822 9.18357C12.7822 9.44864 12.5724 9.66354 12.3137 9.66354Z" fill="#5F5F82"/>
<path d="M12.3137 6.78365H5.44169C5.18293 6.78365 4.97314 6.56876 4.97314 6.30369C4.97314 6.03863 5.18293 5.82373 5.44169 5.82373H12.3137C12.5724 5.82373 12.7822 6.03863 12.7822 6.30369C12.7822 6.56876 12.5724 6.78365 12.3137 6.78365Z" fill="#5F5F82"/>
<path d="M12.3137 12.5434H5.44169C5.18293 12.5434 4.97314 12.3285 4.97314 12.0635C4.97314 11.7984 5.18293 11.5835 5.44169 11.5835H12.3137C12.5724 11.5835 12.7822 11.7984 12.7822 12.0635C12.7822 12.3285 12.5724 12.5434 12.3137 12.5434Z" fill="#5F5F82"/>
<path d="M12.7822 9.18309C12.7822 8.91802 12.5724 8.70312 12.3137 8.70312H8.87769V9.66305H12.3137C12.5724 9.66305 12.7822 9.44815 12.7822 9.18309Z" fill="#3C3C55"/>
<path d="M12.7822 6.30369C12.7822 6.03863 12.5724 5.82373 12.3137 5.82373H8.87769V6.78365H12.3137C12.5724 6.78365 12.7822 6.56876 12.7822 6.30369Z" fill="#3C3C55"/>
<path d="M12.3137 12.5429C12.5724 12.5429 12.7822 12.328 12.7822 12.063C12.7822 11.7979 12.5724 11.583 12.3137 11.583H8.87769V12.5429H12.3137Z" fill="#3C3C55"/>
</g>
<g clip-path="url(#clip1_3826_14988)">
<path fill-rule="evenodd" clip-rule="evenodd" d="M0.748917 13.8859V14.1135C0.748917 14.1966 0.799507 14.2674 0.876851 14.2931L1.344 14.4474C1.40574 14.4676 1.44947 14.5146 1.46593 14.5785C1.5359 14.85 1.64137 15.1068 1.77753 15.3433C1.81012 15.4007 1.812 15.4649 1.78234 15.5239L1.55922 15.9697C1.52235 16.0433 1.5359 16.1295 1.59318 16.1883L2.03752 16.6406C2.09531 16.6988 2.18003 16.7128 2.2524 16.6751L2.69039 16.448C2.74819 16.4179 2.81147 16.4198 2.86789 16.4535C3.10026 16.5915 3.35253 16.6988 3.61937 16.7706C3.68214 16.787 3.72827 16.8315 3.74817 16.8943L3.89977 17.3697C3.92498 17.4485 3.9946 17.4999 4.07623 17.4999H4.70424C4.78587 17.4999 4.85499 17.4485 4.88019 17.3697L5.0318 16.8943C5.05169 16.8315 5.09799 16.787 5.1611 16.7706C5.42743 16.6988 5.67987 16.5915 5.91259 16.4535C5.96849 16.4198 6.03212 16.4179 6.09008 16.448L6.52756 16.6751C6.60045 16.7126 6.68499 16.6988 6.74296 16.6406L7.18678 16.1883C7.24458 16.1295 7.2583 16.0433 7.22074 15.9697L6.99814 15.5239C6.96847 15.4651 6.97036 15.4007 7.00294 15.3433C7.13859 15.1068 7.24458 14.85 7.31454 14.5785C7.33101 14.5146 7.37474 14.4676 7.43648 14.4474L7.90311 14.2931C7.98097 14.2674 8.03104 14.1966 8.03104 14.1135V13.8859C8.03104 13.8355 7.99074 13.7939 7.94118 13.7939H0.839294C0.789732 13.7938 0.748917 13.8353 0.748917 13.8859Z" fill="#2F5274"/>
<path fill-rule="evenodd" clip-rule="evenodd" d="M6.1026 13.7935C6.1026 14.7556 5.33603 15.536 4.39041 15.536C3.4448 15.536 2.67822 14.7558 2.67822 13.7935H6.1026Z" fill="#EBF5FC"/>
<g clip-path="url(#clip2_3826_14988)">
<path d="M4.97715 12.1767C5.04117 11.9596 5.16922 11.7641 5.33996 11.612C5.66008 11.3405 5.86282 10.9279 5.86282 10.4718C5.86282 9.62471 5.16923 8.92968 4.31557 8.97312C3.55794 9.0057 2.93904 9.65729 2.9177 10.4283C2.90703 10.9062 3.10977 11.3297 3.44057 11.612C3.62197 11.7641 3.75001 11.9595 3.81404 12.1767H4.97715Z" fill="#FFD15C"/>
<path d="M4.25154 12.1987H4.34757L3.92074 10.5806C3.93141 10.5806 3.94208 10.5806 3.95275 10.5806C4.0061 10.5806 4.05946 10.5589 4.10214 10.5154C4.12348 10.4937 4.14482 10.4829 4.17684 10.4829C4.20885 10.4829 4.23019 10.4937 4.25154 10.5154C4.32623 10.6023 4.45428 10.6023 4.52897 10.5154C4.55031 10.4937 4.57166 10.4829 4.60367 10.4829C4.62501 10.4829 4.65702 10.4937 4.67837 10.5154C4.72105 10.5589 4.76373 10.5806 4.82775 10.5806C4.83843 10.5806 4.84909 10.5806 4.85977 10.5806L4.44361 12.1987H4.53964L4.97714 10.5046C4.97714 10.4829 4.97714 10.4611 4.9558 10.4503C4.93446 10.4394 4.91312 10.4503 4.90245 10.4612C4.88111 10.4829 4.85977 10.4937 4.83843 10.4937C4.80642 10.4937 4.78508 10.4829 4.75307 10.4612C4.71038 10.4177 4.6677 10.396 4.61434 10.396C4.56098 10.396 4.51831 10.4177 4.47562 10.4612C4.43293 10.5046 4.36891 10.5046 4.32623 10.4612C4.29422 10.4177 4.24087 10.396 4.18751 10.396C4.13416 10.396 4.0808 10.4177 4.04879 10.4612C4.02745 10.4829 3.99544 10.4937 3.96343 10.4937C3.94209 10.4937 3.91008 10.4829 3.8994 10.4612C3.88873 10.4503 3.86739 10.4394 3.84605 10.4503C3.82471 10.4612 3.81404 10.4829 3.82471 10.5046L4.25154 12.1987Z" fill="white"/>
<path d="M4.05946 13.1758C4.11282 13.3061 4.24087 13.4038 4.39026 13.4038C4.53965 13.4038 4.66769 13.3061 4.72105 13.1758H4.05946Z" fill="#344A5E"/>
<path d="M4.78508 13.1868H4.00611C3.8994 13.1868 3.81404 13.1 3.81404 12.9914V12.166H4.97715V12.9914C4.97715 13.0999 4.89178 13.1868 4.78508 13.1868Z" fill="#344A5E"/>
<path d="M4.96647 12.5788H3.81403C3.75001 12.5788 3.69666 12.5245 3.69666 12.4593C3.69666 12.3941 3.75001 12.3398 3.81403 12.3398H4.96647C5.03049 12.3398 5.08384 12.3941 5.08384 12.4593C5.08384 12.5245 5.03049 12.5788 4.96647 12.5788Z" fill="#415A6B"/>
<path d="M4.96647 12.9586H3.81403C3.75001 12.9586 3.69666 12.9043 3.69666 12.8392C3.69666 12.774 3.75001 12.7197 3.81403 12.7197H4.96647C5.03049 12.7197 5.08384 12.774 5.08384 12.8392C5.08384 12.9043 5.03049 12.9586 4.96647 12.9586Z" fill="#415A6B"/>
<path d="M4.39025 8.19141C4.3369 8.19141 4.28354 8.23485 4.28354 8.30001V8.66924C4.28354 8.72354 4.32623 8.77784 4.39025 8.77784C4.45427 8.77784 4.49696 8.7344 4.49696 8.66924V8.30001C4.49696 8.23485 4.4436 8.19141 4.39025 8.19141Z" fill="#FFD15C"/>
<path d="M2.96037 8.85387C2.91769 8.81043 2.85366 8.81043 2.81099 8.85387C2.76831 8.89731 2.7683 8.96247 2.81099 9.0059L3.06708 9.26654C3.10977 9.30998 3.17379 9.30998 3.21647 9.26654C3.25915 9.22309 3.25916 9.15794 3.21647 9.1145L2.96037 8.85387Z" fill="#FFD15C"/>
<path d="M2.62958 10.3525H2.26678C2.21342 10.3525 2.16006 10.396 2.16006 10.4611C2.16006 10.5154 2.20275 10.5697 2.26678 10.5697H2.62958C2.68293 10.5697 2.73629 10.5263 2.73629 10.4611C2.73629 10.4068 2.68293 10.3525 2.62958 10.3525Z" fill="#FFD15C"/>
<path d="M3.06707 11.6556L2.81098 11.9163C2.76829 11.9597 2.76829 12.0249 2.81098 12.0683C2.85366 12.1117 2.91769 12.1117 2.96036 12.0683L3.21646 11.8077C3.25915 11.7642 3.25915 11.6991 3.21646 11.6556C3.17377 11.6122 3.10976 11.6122 3.06707 11.6556Z" fill="#FFD15C"/>
<path d="M5.71342 11.6556C5.67074 11.6122 5.60671 11.6122 5.56403 11.6556C5.52134 11.6991 5.52134 11.7642 5.56403 11.8077L5.82012 12.0683C5.86281 12.1117 5.92683 12.1117 5.96951 12.0683C6.01219 12.0249 6.0122 11.9597 5.96951 11.9163L5.71342 11.6556Z" fill="#FFD15C"/>
<path d="M6.51372 10.3525H6.15092C6.09756 10.3525 6.0442 10.396 6.0442 10.4611C6.0442 10.5154 6.08689 10.5697 6.15092 10.5697H6.51372C6.56707 10.5697 6.62043 10.5263 6.62043 10.4611C6.62042 10.4068 6.57775 10.3525 6.51372 10.3525Z" fill="#FFD15C"/>
<path d="M5.82012 8.85387L5.56403 9.1145C5.52134 9.15794 5.52134 9.2231 5.56403 9.26653C5.60671 9.30998 5.67074 9.30998 5.71341 9.26653L5.96951 9.0059C6.0122 8.96246 6.0122 8.8973 5.96951 8.85387C5.92682 8.81043 5.86281 8.81042 5.82012 8.85387Z" fill="#FFD15C"/>
</g>
<path fill-rule="evenodd" clip-rule="evenodd" d="M4.57614 15.5255C4.51492 15.5325 4.45318 15.536 4.39041 15.536C3.44497 15.536 2.67822 14.7558 2.67822 13.7935H3.05019C3.05019 14.6919 3.71816 15.4316 4.57614 15.5255Z" fill="#D4DDE3"/>
<path fill-rule="evenodd" clip-rule="evenodd" d="M0.748917 13.8856V14.1132C0.748917 14.1963 0.799507 14.2671 0.876851 14.2928L1.344 14.4471C1.40574 14.4673 1.44947 14.5143 1.46593 14.5782C1.5359 14.8497 1.64137 15.1065 1.77753 15.3429C1.81012 15.4004 1.812 15.4646 1.78234 15.5236L1.55922 15.9693C1.52235 16.043 1.5359 16.1292 1.59318 16.188L2.03752 16.6402C2.09531 16.6985 2.18003 16.7125 2.2524 16.6748L2.42115 16.5872L2.02877 16.1879C1.97098 16.129 1.95777 16.0428 1.99482 15.9692L2.21793 15.5234C2.24708 15.4646 2.24571 15.4002 2.21261 15.3428C2.07696 15.1063 1.97149 14.8495 1.90101 14.578C1.88455 14.5141 1.84116 14.4671 1.77942 14.4469L1.31227 14.2926C1.23493 14.267 1.18434 14.1961 1.18434 14.113V13.8854C1.18434 13.835 1.22464 13.7935 1.27472 13.7935H0.839122C0.789732 13.7935 0.748917 13.835 0.748917 13.8856ZM2.98656 16.52C3.18532 16.6263 3.39729 16.7109 3.61955 16.7703C3.68231 16.7867 3.72844 16.8312 3.74834 16.894L3.89994 17.3694C3.92515 17.4481 3.99477 17.4996 4.0764 17.4996H4.512C4.43037 17.4996 4.36074 17.4481 4.33553 17.3694L4.18393 16.894C4.16404 16.8312 4.11791 16.7867 4.05514 16.7703C3.7883 16.6985 3.53603 16.5912 3.30365 16.4531C3.24723 16.4195 3.18361 16.4175 3.12582 16.4477L2.98656 16.52Z" fill="#2A4A68"/>
</g>
<defs>
<clipPath id="clip0_3826_14988">
<rect width="12.439" height="16.3827" fill="white" transform="translate(2.561)"/>
</clipPath>
<clipPath id="clip1_3826_14988">
<rect width="8.78047" height="8.93601" fill="white" transform="translate(0 8.56396)"/>
</clipPath>
<clipPath id="clip2_3826_14988">
<rect width="5.12194" height="5.21267" fill="white" transform="translate(1.82928 8.19141)"/>
</clipPath>
</defs>
</svg>
