<svg width="40" height="39" viewBox="0 0 40 39" fill="none" xmlns="http://www.w3.org/2000/svg">
<path fill-rule="evenodd" clip-rule="evenodd" d="M19.9184 39C30.6586 39 39.4184 30.2401 39.4184 19.5C39.4184 8.75982 30.6586 0 19.9184 0C9.17824 0 0.417625 8.75982 0.417625 19.5C0.417625 30.2401 9.17744 39 19.9184 39Z" fill="#6AA3F2"/>
<path fill-rule="evenodd" clip-rule="evenodd" d="M10.8232 36.7529C6.89845 34.6791 3.76584 31.3046 2.0003 27.2033C2.99207 25.0825 4.13476 23.0566 5.56092 21.2096C7.44863 18.7653 8.42203 24.05 12.8179 24.3287C21.6456 25.1072 18.8116 30.2274 13.3857 33.6993C12.2126 34.3174 11.4476 35.4489 10.8232 36.7529ZM37.0036 10.0949C38.5432 12.8834 39.4192 16.0887 39.4192 19.5C39.4192 25.2581 36.9222 30.435 32.9519 34.0044C31.949 31.0618 31.148 28.0218 30.7496 24.7806C30.0253 18.9019 28.3205 24.6473 26.9805 25.1471C25.2717 25.7852 17.4645 20.2538 21.4236 18.0962C22.0712 17.7432 23.8591 17.7089 23.8368 15.5113C23.8096 12.7972 27.9404 12.0665 30.8039 11.3574L37.0036 10.0949ZM19.9184 0C21.4308 0 22.9017 0.171683 24.3143 0.498279C21.2743 4.43022 19.0312 6.90884 14.0037 9.08162C7.61393 11.8429 8.6009 16.2228 5.5178 16.7051C3.82732 16.9702 2.22469 16.7842 0.676346 16.325C2.19274 7.06615 10.2299 0 19.9184 0Z" fill="#91DC5A"/>
<path fill-rule="evenodd" clip-rule="evenodd" d="M29.7902 9.6883C31.7027 11.8228 31.9974 15.2181 30.4961 17.7286C29.4549 19.4646 27.7189 21.5879 26.2927 23.4189C26.0803 23.6904 25.7832 23.8358 25.4391 23.8358C25.0925 23.8358 24.7963 23.6912 24.5839 23.4189C23.1601 21.5879 21.4217 19.4646 20.3828 17.7286C18.9048 15.2588 19.1379 11.8635 21.0871 9.6883C23.3525 7.15778 27.5336 7.16656 29.7902 9.6883Z" fill="#FF4155"/>
<path fill-rule="evenodd" clip-rule="evenodd" d="M25.4375 16.5607C26.997 16.5607 28.2667 15.2886 28.2667 13.7315C28.2667 12.1744 26.997 10.9023 25.4375 10.9023C23.8804 10.9023 22.6107 12.1744 22.6107 13.7315C22.6107 15.2886 23.8804 16.5607 25.4375 16.5607Z" fill="#E5F0FF"/>
<path fill-rule="evenodd" clip-rule="evenodd" d="M26.3039 23.4027L26.2927 23.4187C26.0803 23.6902 25.7832 23.8355 25.4391 23.8355C25.0925 23.8355 24.7963 23.691 24.5839 23.4187C23.1601 21.5877 21.4217 19.4644 20.3828 17.7284C18.9048 15.2586 19.1379 11.8632 21.0871 9.68806C22.4223 8.19642 24.4234 7.58714 26.3023 7.85465C24.9959 8.03991 23.747 8.65158 22.8183 9.68806C20.8691 11.8632 20.6344 15.2586 22.1124 17.7284C23.1513 19.4596 24.8801 21.5765 26.3039 23.4027Z" fill="#E63B4D"/>
<path fill-rule="evenodd" clip-rule="evenodd" d="M25.4375 10.9019C25.6164 10.9019 25.788 10.9202 25.9581 10.9498C24.643 11.1941 23.6496 12.3464 23.6496 13.7318C23.6496 15.1173 24.643 16.2695 25.9581 16.5139C25.788 16.5434 25.6164 16.5618 25.4375 16.5618C23.8756 16.5618 22.6107 15.2945 22.6107 13.7326C22.6107 12.1707 23.8756 10.9019 25.4375 10.9019Z" fill="#CED8E6"/>
</svg>
