<svg width="24" height="24" viewBox="0 0 24 24" fill="none" xmlns="http://www.w3.org/2000/svg">
<path d="M12.5128 15.2458H6.67352C7.38223 15.0599 7.47284 13.3985 7.44729 12.232C8.03984 12.5364 8.71137 12.7084 9.41773 12.7084C10.2961 12.7084 11.1024 12.3784 11.7506 11.8486C11.6996 12.9919 11.7228 15.039 12.5128 15.2458Z" fill="#F2B816"/>
<path d="M6.60668 8.52457C6.60668 8.52457 5.82049 7.95129 5.56268 8.45126C5.37799 8.80947 5.36314 9.2989 5.72159 9.87405C6.08004 10.4492 5.9082 10.6384 6.05173 10.7772C6.19526 10.9159 6.70479 10.9794 6.70896 10.9312C6.71309 10.8829 7.05753 8.59268 6.60668 8.52457Z" fill="#FFCE29"/>
<path d="M12.5797 8.52457C12.5797 8.52457 13.3659 7.95129 13.6237 8.45126C13.8083 8.80947 13.8232 9.2989 13.4647 9.87405C13.1063 10.4492 13.2781 10.6384 13.1346 10.7772C12.9911 10.9159 12.4815 10.9794 12.4774 10.9312C12.4732 10.8829 12.1288 8.59268 12.5797 8.52457Z" fill="#FFCE29"/>
<path d="M12.8784 6.45943C12.8783 5.73723 12.1909 4.80751 11.4413 4.53779C10.2447 4.1072 8.91257 4.1072 7.716 4.53779C6.96642 4.80755 6.279 5.73727 6.27886 6.45943C6.27886 6.45943 6.22232 9.74654 6.34406 10.3903C6.46373 11.0229 6.67556 12.1742 6.96525 12.6797C7.2509 13.1781 8.406 14.0299 8.65396 14.1389C8.90114 14.2474 9.11545 14.3248 9.57862 14.3248C10.0418 14.3248 10.2561 14.2474 10.5033 14.1389C10.7513 14.0299 11.9063 13.1781 12.192 12.6797C12.4817 12.1742 12.6935 11.0229 12.8132 10.3903C12.9349 9.74654 12.8784 6.45943 12.8784 6.45943Z" fill="#FFCE29"/>
<path d="M12.8017 4.52728C12.3388 3.91148 11.2604 3.32737 9.58384 3.3186C7.90731 3.32742 6.82886 3.91153 6.36597 4.52728C5.40264 5.80893 5.74609 8.26579 5.74609 8.26579C6.27208 8.13731 6.31398 8.81006 6.18658 9.06206C6.05922 9.31406 6.31722 10.0938 6.31722 10.0938C6.46745 9.58223 6.5057 9.03792 6.50969 8.65162C6.51287 8.34351 6.99044 7.6724 6.97028 7.12082C6.90184 5.24849 9.26214 5.8776 9.5838 5.97196C9.9054 5.87765 12.2657 5.24849 12.1973 7.12082C12.1772 7.6724 12.6547 8.34351 12.6579 8.65162C12.6619 9.03792 12.7001 9.58223 12.8504 10.0938C12.8504 10.0938 13.1084 9.31401 12.981 9.06206C12.8537 8.81006 12.8955 8.13731 13.4215 8.26579C13.4215 8.26579 13.765 5.80898 12.8017 4.52728Z" fill="#6D6D6D"/>
<path d="M19.1864 22.106V20.3504C19.1864 18.6938 18.1566 17.2117 16.6041 16.6338L12.3572 15.053H10.0753L9.59433 15.2784L9.11334 15.053H6.82922L2.58234 16.6338C1.02975 17.2117 0 18.6938 0 20.3504V22.106C0 22.7798 0.546187 23.3259 1.21992 23.3259H17.9664C18.6402 23.3259 19.1864 22.7798 19.1864 22.106Z" fill="#6D6D6D"/>
<path opacity="0.08" d="M17.9664 20.3509V23.3259C18.6402 23.3259 19.1864 22.7798 19.1864 22.106V20.3509C19.1864 18.6941 18.157 17.2116 16.6048 16.633L12.3572 15.053H11.1373L15.3849 16.633C16.9371 17.2116 17.9664 18.6941 17.9664 20.3509Z" fill="black"/>
<path d="M10.0459 23.3259C10.7775 21.0834 11.3864 18.9239 11.681 16.9723L9.59433 15.2783L7.50769 16.9723C7.8023 18.9239 8.41125 21.0835 9.14283 23.3259H10.0459Z" fill="#F2F0F0"/>
<path d="M10.8615 22.728L10.4545 23.326H8.73237L8.3254 22.7255C8.32868 22.7002 8.51482 21.2709 8.51149 21.2962L9.11946 16.6086L8.0921 15.2786H11.0922L10.0649 16.6136C10.1464 17.2389 9.76985 14.3488 10.8615 22.728Z" fill="#66D5F2"/>
<path d="M9.59434 15.2784L7.1522 17.2604C7.16861 16.9483 7.09281 18.3905 7.31252 14.2095C7.54736 14.3195 6.46487 13.8125 9.59434 15.2784Z" fill="#E5E3E5"/>
<path d="M12.0365 17.2605L9.59436 15.2784C12.7182 13.8136 11.6408 14.3188 11.8738 14.2095C12.0968 18.3905 12.0199 16.9485 12.0365 17.2605Z" fill="#E5E3E5"/>
<path d="M8.32559 22.7256L8.73279 23.326H9.14272C8.91945 22.6419 8.70636 21.9648 8.51145 21.2989C8.50915 21.2989 8.51145 21.2966 8.51145 21.2966C7.74467 18.6918 7.24273 16.2589 7.31478 14.2095L5.51628 15.5804C5.25139 15.7803 5.27693 16.1869 5.56507 16.3519L5.86714 16.5262L5.0794 17.214C4.90282 17.3673 4.86795 17.6299 5.00042 17.8251L8.32559 22.7256Z" fill="#5B5B5B"/>
<path d="M10.0466 23.3259H10.4553L10.8607 22.728L14.1882 17.8251C14.3206 17.6299 14.2881 17.3673 14.1091 17.214L13.3214 16.5262L13.6235 16.3519C13.9093 16.1869 13.9349 15.7826 13.6723 15.5804L11.8715 14.2095C11.9435 16.2612 11.4393 18.6987 10.6748 21.3059C10.4817 21.9694 10.2693 22.6441 10.0466 23.3259Z" fill="#5B5B5B"/>
<path opacity="0.4" d="M1.85953 20.4515V21.4823C1.85953 21.7095 1.67531 21.8937 1.4481 21.8937C1.2209 21.8937 1.03668 21.7095 1.03668 21.4823V20.4515C1.03668 20.2243 1.2209 20.04 1.4481 20.04C1.67531 20.04 1.85953 20.2243 1.85953 20.4515Z" fill="white"/>
<path d="M23.3259 3.3788C23.3259 5.24597 21.4 6.75759 19.0259 6.75759C18.6859 6.75759 18.3551 6.7267 18.0397 6.66797C16.9361 7.39753 15.8078 7.62319 15.1339 7.6912C14.9422 7.71286 14.8433 7.47483 14.9917 7.35427C15.3503 7.0575 15.8356 6.58453 16.1911 5.91989C15.2916 5.30161 14.7228 4.3928 14.7228 3.3788C14.7228 1.51472 16.6487 0 19.0259 0C21.4 0 23.3259 1.51477 23.3259 3.3788Z" fill="#F96464"/>
<g opacity="0.08">
<path d="M23.3259 3.37889C23.3259 5.24606 21.4 6.75769 19.0259 6.75769C18.8776 6.75769 18.7322 6.7515 18.59 6.73912C20.7632 6.5722 22.4634 5.13164 22.4634 3.37884C22.4634 1.63223 20.7694 0.191672 18.6024 0.0185625C18.7415 0.0061875 18.8837 0 19.0259 0C21.4 9.375e-05 23.3259 1.51486 23.3259 3.37889Z" fill="black"/>
</g>
<path d="M19.6636 1.60334C19.6636 1.94285 19.3871 2.21665 19.0476 2.21665C18.7108 2.21665 18.4343 1.94285 18.4343 1.60334C18.4343 1.26382 18.7108 0.987305 19.0476 0.987305C19.387 0.987305 19.6636 1.26382 19.6636 1.60334Z" fill="white"/>
<path opacity="0.08" d="M19.6636 1.60329C19.6636 1.9428 19.3871 2.2166 19.0476 2.2166C18.9929 2.2166 18.9381 2.2084 18.8888 2.19471C19.1517 2.12627 19.346 1.88805 19.346 1.60334C19.346 1.31862 19.1516 1.07763 18.8888 1.0092C18.9381 0.995508 18.9929 0.987305 19.0476 0.987305C19.3871 0.987258 19.6636 1.26377 19.6636 1.60329Z" fill="black"/>
<path d="M19.544 3.16272V5.19091C19.544 5.51092 19.2846 5.77038 18.9645 5.77038C18.6445 5.77038 18.3851 5.51092 18.3851 5.19091V3.16272C18.3851 2.84271 18.6445 2.58325 18.9645 2.58325C19.2846 2.58325 19.544 2.84271 19.544 3.16272Z" fill="white"/>
<path opacity="0.08" d="M19.544 3.16272V5.19091C19.544 5.50961 19.2832 5.77038 18.9645 5.77038C18.9008 5.77038 18.8399 5.76166 18.7849 5.74141C19.0167 5.66608 19.1848 5.44877 19.1848 5.19091V3.16272C19.1848 2.89211 19 2.67466 18.7849 2.61222C18.8399 2.59192 18.9008 2.58325 18.9645 2.58325C19.2808 2.58325 19.544 2.84144 19.544 3.16272Z" fill="black"/>
</svg>
