<svg width="24" height="24" viewBox="0 0 24 24" fill="none" xmlns="http://www.w3.org/2000/svg">
<path d="M5.87433 13.9158C5.97456 13.7012 6.07198 13.4076 6.07903 13.1027C6.08327 12.9135 6.04939 12.8316 6.01551 12.7003V11.7939H8.28139L8.31103 12.7765C8.29127 12.8528 8.27856 12.9304 8.28139 13.0547C8.28986 13.3864 8.40139 13.6899 8.51856 13.9172V15.4024H5.87433V13.9158Z" fill="#F0C0AA"/>
<path d="M4.94823 9.63533C4.84659 9.39956 4.82823 9.13274 4.8127 8.87297C4.79859 8.6485 4.78588 8.41697 4.83812 8.19815C4.89318 7.96521 5.05694 7.73086 5.19953 7.5558C5.23059 7.51768 5.26306 7.47956 5.29694 7.44427C5.77553 6.93321 6.56329 6.66497 6.96282 6.57321C7.28753 6.49839 7.63059 6.46027 7.96518 6.48709C8.15153 6.50121 8.34776 6.52803 8.52988 6.57886C8.67953 6.62121 8.82635 6.70027 8.9167 6.83862C9.0127 6.98827 9.0367 7.17603 9.15247 7.31297C9.27812 7.46262 9.45035 7.55156 9.58023 7.69697C9.75247 7.8918 9.9247 8.19815 9.95012 8.47345C9.9727 8.72192 9.87388 8.95486 9.76094 9.16239C9.74118 9.19768 9.5407 9.59439 9.49553 9.63674H4.94823V9.63533Z" fill="#8F4C2E"/>
<path d="M9.49695 9.63525V10.6983C9.49695 12.0889 8.47907 13.2155 7.22259 13.2155C5.96612 13.2155 4.94824 12.0889 4.94824 10.6983V9.63525C4.94824 9.63525 5.22636 9.45172 5.52989 9.11572C5.52989 9.11572 6.98965 10.0701 8.92801 9.15666C8.92801 9.15525 9.21883 9.46302 9.49695 9.63525Z" fill="#F9C7B2"/>
<path d="M11.7798 15.7243C11.6894 15.401 11.5835 15.1553 11.4494 14.9294C11.3746 14.8024 11.0428 14.2716 10.3962 13.9073C10.2409 13.8198 10.0899 13.7549 9.94446 13.7054C9.52799 13.5629 9.1694 13.5572 8.97176 13.5671L7.17458 14.8278L5.44658 13.5671C5.24046 13.5572 4.86352 13.5643 4.42587 13.7224C4.29599 13.769 4.16046 13.8297 4.02211 13.9073C3.37552 14.2716 3.04517 14.8024 2.96893 14.9294C2.83482 15.1539 2.72893 15.401 2.63858 15.7243C2.2687 17.0414 2.26587 19.1873 2.26729 19.6306H12.151C12.1525 19.1873 12.1482 17.0414 11.7798 15.7243Z" fill="#83D1F0"/>
<path d="M4.24801 17.0555V19.6291H3.95154V17.0555C3.95154 16.9736 4.01789 16.9072 4.09977 16.9072C4.18166 16.9072 4.24801 16.9736 4.24801 17.0555Z" fill="#6AA9C2"/>
<path d="M10.4668 17.0555V19.6291H10.1703V17.0555C10.1703 16.9736 10.2367 16.9072 10.3186 16.9072C10.4005 16.9072 10.4668 16.9736 10.4668 17.0555Z" fill="#6AA9C2"/>
<path d="M9.55765 12.206H7.18306C7.09835 12.206 7.02917 12.1368 7.02917 12.0521C7.02917 11.9674 7.09835 11.8982 7.18306 11.8982H9.55765C9.69176 11.8982 9.80047 11.7895 9.80047 11.6554V10.6304C9.80047 10.5457 9.86964 10.4766 9.95435 10.4766C10.0391 10.4766 10.1082 10.5457 10.1082 10.6304V11.6568C10.1082 11.9589 9.86117 12.206 9.55765 12.206Z" fill="#508BB3"/>
<path d="M10.0094 11.0795H9.46442V9.57031H10.0094C10.2437 9.57031 10.4329 9.75949 10.4329 9.99384V10.656C10.4329 10.8903 10.2423 11.0795 10.0094 11.0795Z" fill="#406F8F"/>
<path d="M4.43574 11.0795H4.98068V9.57031H4.43574C4.20138 9.57031 4.01221 9.75949 4.01221 9.99384V10.656C4.01362 10.8903 4.2028 11.0795 4.43574 11.0795Z" fill="#406F8F"/>
<path d="M21.8146 6.11865V9.77795H20.5229V11.2052L19.2311 9.77795H16.272V6.11865H21.8146Z" fill="#F7E07F"/>
<path d="M19.6701 12.4956H11.6442C11.3308 12.4956 11.0767 12.7497 11.0767 13.0631V18.9798H20.2376V13.0631C20.2376 12.7497 19.9835 12.4956 19.6701 12.4956Z" fill="#508BB3"/>
<path d="M15.0169 18.5098V17.0048C14.5073 16.7648 14.1558 16.2467 14.1558 15.6467C14.1558 15.0467 14.5073 14.5286 15.0169 14.2886L15.2612 15.6467H16.0532L16.2974 14.2886C16.8071 14.5286 17.1586 15.0467 17.1586 15.6467C17.1586 16.2467 16.8071 16.7648 16.2974 17.0048V18.5098H15.0169Z" fill="#E1EFFF"/>
<path d="M20.3153 19.6293H10.9976C10.6376 19.6293 10.3468 19.3385 10.3468 18.9785C10.3468 18.6185 10.6376 18.3276 10.9976 18.3276H20.3153C20.6753 18.3276 20.9661 18.6185 20.9661 18.9785C20.9661 19.3385 20.6753 19.6293 20.3153 19.6293Z" fill="#427394"/>
<path d="M22.5586 19.9127H1.44142C1.28471 19.9127 1.15765 19.7857 1.15765 19.629C1.15765 19.4723 1.28471 19.3452 1.44142 19.3452H22.5586C22.7153 19.3452 22.8424 19.4723 22.8424 19.629C22.8424 19.7857 22.7153 19.9127 22.5586 19.9127Z" fill="#E67529"/>
<path d="M13.8946 7.7448V9.17209L15.1864 7.7448H18.1454V4.08691H12.6028V7.7448H13.8946Z" fill="#FF8591"/>
<path d="M16.8819 5.56201H13.8649C13.7393 5.56201 13.6376 5.46036 13.6376 5.33472C13.6376 5.20907 13.7393 5.10742 13.8649 5.10742H16.8819C17.0075 5.10742 17.1092 5.20907 17.1092 5.33472C17.1092 5.46036 17.0075 5.56201 16.8819 5.56201Z" fill="#B35D66"/>
<path d="M16.8819 6.72265H13.8649C13.7393 6.72265 13.6376 6.62101 13.6376 6.49536C13.6376 6.36971 13.7393 6.26807 13.8649 6.26807H16.8819C17.0075 6.26807 17.1092 6.36971 17.1092 6.49536C17.1092 6.62101 17.0075 6.72265 16.8819 6.72265Z" fill="#B35D66"/>
</svg>
