<svg width="19" height="19" viewBox="0 0 19 19" fill="none" xmlns="http://www.w3.org/2000/svg">
<path d="M15.797 9.97173H2.87051C2.72523 9.97173 2.60742 9.85396 2.60742 9.70864C2.60742 9.56337 2.7252 9.44556 2.87051 9.44556H15.797C15.9423 9.44556 16.0601 9.56333 16.0601 9.70864C16.0601 9.85392 15.9423 9.97173 15.797 9.97173Z" fill="#002659"/>
<path d="M9.3334 16.4351C9.18812 16.4351 9.07031 16.3173 9.07031 16.172V3.24551C9.07031 3.10023 9.18809 2.98242 9.3334 2.98242C9.47867 2.98242 9.59648 3.1002 9.59648 3.24551V16.172C9.59648 16.3173 9.47867 16.4351 9.3334 16.4351Z" fill="#002659"/>
<path d="M13.903 14.5414C13.8357 14.5414 13.7684 14.5157 13.717 14.4643L4.57707 5.32435C4.47431 5.22162 4.47431 5.05504 4.57707 4.95231C4.67983 4.84955 4.84638 4.84955 4.9491 4.95231L14.089 14.0922C14.1918 14.195 14.1918 14.3616 14.089 14.4643C14.0377 14.5157 13.9704 14.5414 13.903 14.5414Z" fill="#002659"/>
<path d="M4.7631 14.5413C4.69576 14.5413 4.62845 14.5157 4.57707 14.4643C4.47431 14.3616 4.47431 14.195 4.57707 14.0922L13.717 4.95231C13.8198 4.84955 13.9863 4.84955 14.089 4.95231C14.1918 5.05504 14.1918 5.22162 14.089 5.32435L4.9491 14.4643C4.89776 14.5156 4.83041 14.5413 4.7631 14.5413Z" fill="#002659"/>
<path fill-rule="evenodd" clip-rule="evenodd" d="M5.89648 10.7685V12.8742V12.8774V12.8806C5.90179 13.5133 7.43882 14.0256 9.33367 14.0256C11.2285 14.0256 12.7645 13.5133 12.7708 12.8806V12.8774V12.8742V10.7685V10.7642V10.761V8.65525V8.65206V8.64888V6.54309V6.53991V6.53566C12.7644 5.90295 11.2285 5.39062 9.33367 5.39062C7.43882 5.39062 5.90179 5.90295 5.89648 6.53566V6.53991V6.54309V8.64888V8.65206V8.65525V10.761V10.7642V10.7685Z" fill="#DFEAEF"/>
<path fill-rule="evenodd" clip-rule="evenodd" d="M9.33367 7.68812C11.2264 7.68812 12.7708 7.17261 12.7708 6.5399C12.7708 5.9072 11.2264 5.39062 9.33367 5.39062C7.43984 5.39062 5.89648 5.9072 5.89648 6.5399C5.89648 7.17261 7.43984 7.68812 9.33367 7.68812Z" fill="#9EBECC"/>
<path fill-rule="evenodd" clip-rule="evenodd" d="M5.89648 10.7687C5.90289 11.396 7.41432 11.9052 9.28789 11.9137H9.3337C11.2275 11.9137 12.7645 11.4014 12.7709 10.7687V10.7644C12.7709 10.7633 12.7709 10.7623 12.7709 10.7612V9.79406V8.65649C12.7645 9.2892 11.2275 9.80046 9.3337 9.80046C7.43882 9.80046 5.90289 9.2892 5.89652 8.65649V10.7612V10.7644L5.89648 10.7687Z" fill="#9EBECC"/>
<path fill-rule="evenodd" clip-rule="evenodd" d="M10.4824 13.9598V5.45679C11.8128 5.61444 12.7661 6.03833 12.7714 6.53575V6.54V6.54319V8.64897V8.65216V8.65535V10.7611V10.7643V10.7686V12.8743V12.8775V12.8807C12.7661 13.3793 11.8128 13.8032 10.4824 13.9598Z" fill="#C4D3E4"/>
<path fill-rule="evenodd" clip-rule="evenodd" d="M10.4824 7.62219V5.45679C11.816 5.61444 12.7714 6.03943 12.7714 6.54004C12.7714 7.03959 11.816 7.46458 10.4824 7.62219Z" fill="#7DA6B8"/>
<path fill-rule="evenodd" clip-rule="evenodd" d="M12.7714 8.65625C12.7661 9.15367 11.8117 9.5776 10.4824 9.73525V11.8474C11.8117 11.6898 12.7661 11.2669 12.7714 10.7684V10.7642V10.761V9.79385V8.65625Z" fill="#7DA6B8"/>
<path fill-rule="evenodd" clip-rule="evenodd" d="M4.76353 15.0291C5.17679 15.0291 5.51338 14.6914 5.51338 14.2782C5.51338 13.866 5.17679 13.5283 4.76353 13.5283C4.35026 13.5283 4.01367 13.866 4.01367 14.2782C4.01367 14.6914 4.35026 15.0291 4.76353 15.0291Z" fill="#EC5A6E"/>
<path fill-rule="evenodd" clip-rule="evenodd" d="M13.9032 15.0291C14.3164 15.0291 14.653 14.6914 14.653 14.2782C14.653 13.866 14.3164 13.5283 13.9032 13.5283C13.4899 13.5283 13.1533 13.866 13.1533 14.2782C13.1533 14.6914 13.4899 15.0291 13.9032 15.0291Z" fill="#EC5A6E"/>
<path fill-rule="evenodd" clip-rule="evenodd" d="M13.9032 5.88813C14.3164 5.88813 14.653 5.55155 14.653 5.13828C14.653 4.72501 14.3164 4.38843 13.9032 4.38843C13.4899 4.38843 13.1533 4.72501 13.1533 5.13828C13.1533 5.55155 13.4899 5.88813 13.9032 5.88813Z" fill="#EC5A6E"/>
<path fill-rule="evenodd" clip-rule="evenodd" d="M4.76353 5.88813C5.17679 5.88813 5.51338 5.55155 5.51338 5.13828C5.51338 4.72501 5.17679 4.38843 4.76353 4.38843C4.35026 4.38843 4.01367 4.72501 4.01367 5.13828C4.01367 5.55155 4.35026 5.88813 4.76353 5.88813Z" fill="#EC5A6E"/>
<path fill-rule="evenodd" clip-rule="evenodd" d="M1.51355 7.73706L1.91616 8.49329H4.3351V11.2871H0V7.73706H1.51355Z" fill="#FCD354"/>
<path fill-rule="evenodd" clip-rule="evenodd" d="M4.3351 8.49329H1.91616L1.51355 7.73706H0V9.70863H2.87051H4.3351V8.49329Z" fill="#FFB125"/>
<path fill-rule="evenodd" clip-rule="evenodd" d="M17.0881 7.73706L16.6854 8.49329H14.2676V11.2871H18.6027V7.73706H17.0881Z" fill="#FCD354"/>
<path fill-rule="evenodd" clip-rule="evenodd" d="M14.2676 8.49329V9.70863H18.6027V7.73706H17.0881L16.6854 8.49329H14.2676Z" fill="#FFB125"/>
<path fill-rule="evenodd" clip-rule="evenodd" d="M17.6533 7.73706H18.6024V11.2871H17.6533V7.73706Z" fill="#E8BD3A"/>
<path fill-rule="evenodd" clip-rule="evenodd" d="M17.6533 7.73706H18.6024V9.70863H17.6533V7.73706Z" fill="#E89700"/>
<path fill-rule="evenodd" clip-rule="evenodd" d="M10.2424 15.1633L9.83983 15.9196H7.4209V18.7135H11.756V15.1633H10.2424Z" fill="#FCD354"/>
<path fill-rule="evenodd" clip-rule="evenodd" d="M7.4209 15.9196V17.1349H11.756V15.1633H10.2424L9.83983 15.9196H7.4209Z" fill="#FFB125"/>
<path fill-rule="evenodd" clip-rule="evenodd" d="M10.8076 15.1633H11.7556V18.7135H10.8076V15.1633Z" fill="#E8BD3A"/>
<path fill-rule="evenodd" clip-rule="evenodd" d="M10.8076 15.1633H11.7556V17.1349H10.8076V15.1633Z" fill="#E89700"/>
<path fill-rule="evenodd" clip-rule="evenodd" d="M3.21973 8.49341H4.33491V11.2873H3.21973V8.49341Z" fill="#E8BD3A"/>
<path fill-rule="evenodd" clip-rule="evenodd" d="M3.21973 8.49341H4.33491V9.70872H3.21973V8.49341Z" fill="#E89700"/>
<path fill-rule="evenodd" clip-rule="evenodd" d="M10.2424 0L9.83983 0.756262H7.4209V3.55009H11.756V0H10.2424Z" fill="#FCD354"/>
<path fill-rule="evenodd" clip-rule="evenodd" d="M7.4209 0.756262V1.97157H11.756V0H10.2424L9.83983 0.756262H7.4209Z" fill="#FFB125"/>
<path fill-rule="evenodd" clip-rule="evenodd" d="M10.8076 0H11.7556V3.55009H10.8076V0Z" fill="#E8BD3A"/>
<path fill-rule="evenodd" clip-rule="evenodd" d="M10.8076 0H11.7556V1.97157H10.8076V0Z" fill="#E89700"/>
</svg>
