<svg width="20" height="20" viewBox="0 0 20 20" fill="none" xmlns="http://www.w3.org/2000/svg">
<g clip-path="url(#clip0_3903_15930)">
<path d="M19.4089 8.53977H17.7109C17.6536 8.53977 17.6049 8.49926 17.5934 8.44316C17.3927 7.45863 17.0056 6.54195 16.47 5.7318C16.4384 5.68402 16.4443 5.62098 16.4849 5.58051L17.6857 4.37961C17.9167 4.14867 17.9166 3.7743 17.6857 3.5434L16.4568 2.31449C16.2259 2.08355 15.8515 2.08355 15.6206 2.31453L14.4197 3.51535C14.3792 3.55586 14.3162 3.56176 14.2684 3.53016C13.4583 2.99465 12.5416 2.60754 11.5571 2.40676C11.501 2.39531 11.4605 2.34656 11.4605 2.28934V0.591328C11.4605 0.264727 11.1957 0 10.8692 0H9.1313C8.8047 0 8.53997 0.264727 8.53997 0.591328V2.28934C8.53997 2.3466 8.49946 2.39531 8.44337 2.40676C7.45884 2.60754 6.54216 2.99465 5.73204 3.53016C5.68427 3.56172 5.62122 3.55586 5.58075 3.51535L4.37989 2.31449C4.14896 2.08355 3.77458 2.08355 3.54364 2.31449L2.31474 3.54336C2.0838 3.7743 2.0838 4.14867 2.31474 4.37961L3.5156 5.58047C3.55606 5.62098 3.562 5.68398 3.5304 5.73176C2.99489 6.54191 2.60778 7.45859 2.407 8.44312C2.39556 8.49922 2.34681 8.53973 2.28958 8.53973H0.591572C0.26501 8.53977 0.000244141 8.80449 0.000244141 9.13109V10.8689C0.000244141 11.1955 0.264971 11.4603 0.591572 11.4603H2.28962C2.34688 11.4603 2.3956 11.5008 2.40704 11.5569C2.60782 12.5414 2.99489 13.4581 3.53044 14.2682C3.562 14.316 3.5561 14.3791 3.51564 14.4195L2.31478 15.6204C2.08384 15.8513 2.08384 16.2257 2.31478 16.4566L3.54364 17.6855C3.77458 17.9164 4.14896 17.9164 4.37989 17.6855L5.58075 16.4846C5.62126 16.4441 5.68427 16.4382 5.73204 16.4698C6.5422 17.0054 7.45888 17.3925 8.44337 17.5932C8.49946 17.6047 8.53997 17.6534 8.53997 17.7107V19.4087C8.53997 19.7353 8.80474 20 9.1313 20H10.8692C11.1957 20 11.4605 19.7352 11.4605 19.4087V17.7106C11.4605 17.6534 11.501 17.6046 11.5571 17.5932C12.5416 17.3924 13.4583 17.0053 14.2684 16.4698C14.3162 16.4382 14.3792 16.4441 14.4197 16.4846L15.6206 17.6854C15.8515 17.9164 16.2259 17.9164 16.4568 17.6854L17.6857 16.4566C17.9167 16.2256 17.9167 15.8513 17.6857 15.6203L16.4849 14.4195C16.4443 14.3789 16.4384 14.3159 16.47 14.2682C17.0056 13.458 17.3926 12.5413 17.5934 11.5568C17.6049 11.5007 17.6536 11.4602 17.7109 11.4602H19.4089C19.7355 11.4602 20.0002 11.1954 20.0002 10.8689V9.13098C20.0002 8.80449 19.7355 8.53977 19.4089 8.53977Z" fill="#FECA57"/>
<path d="M3.51538 5.58043C3.55585 5.62094 3.56179 5.68394 3.53019 5.73172C2.99468 6.54187 2.60757 7.45855 2.40679 8.44309C2.39534 8.49918 2.34659 8.53969 2.28937 8.53969H3.0862C3.14347 8.53969 3.19218 8.49918 3.20362 8.44309C3.4044 7.45855 3.79147 6.54187 4.32702 5.73172C4.35858 5.68394 4.35269 5.6209 4.31222 5.58043L3.11136 4.37957C2.88042 4.14863 2.88042 3.77426 3.11136 3.54332L4.34022 2.31445C4.34655 2.30812 4.35339 2.30262 4.35995 2.29664C4.12792 2.08437 3.768 2.08984 3.54343 2.31445L2.31456 3.54332C2.08362 3.77426 2.08362 4.14863 2.31456 4.37957L3.51538 5.58043Z" fill="#F4B537"/>
<path d="M0.796836 10.8692V9.13137C0.796836 8.8048 1.06156 8.54004 1.38816 8.54004H0.591328C0.264766 8.54 0 8.80477 0 9.13137V10.8692C0 11.1958 0.264727 11.4605 0.591328 11.4605H1.38816C1.0616 11.4605 0.796836 11.1958 0.796836 10.8692Z" fill="#F4B537"/>
<path d="M4.34022 17.6852L3.11136 16.4563C2.88042 16.2254 2.88042 15.851 3.11136 15.62L4.31222 14.4192C4.35269 14.3787 4.35858 14.3157 4.32702 14.2679C3.79151 13.4578 3.4044 12.5411 3.20362 11.5566C3.19218 11.5005 3.14347 11.46 3.0862 11.46H2.2894C2.34667 11.46 2.39538 11.5005 2.40683 11.5566C2.60761 12.5411 2.99468 13.4578 3.53022 14.2679C3.56179 14.3157 3.55589 14.3787 3.51542 14.4192L2.31456 15.62C2.08362 15.851 2.08362 16.2254 2.31456 16.4563L3.54343 17.6852C3.76804 17.9097 4.12792 17.9152 4.35995 17.703C4.35339 17.697 4.34659 17.6915 4.34022 17.6852Z" fill="#F4B537"/>
<path d="M9.9415 15.2863C12.8613 15.2863 15.2282 12.9194 15.2282 9.99961C15.2282 7.07984 12.8613 4.71289 9.9415 4.71289C7.02173 4.71289 4.65479 7.07984 4.65479 9.99961C4.65479 12.9194 7.02173 15.2863 9.9415 15.2863Z" fill="#F4B537"/>
<path d="M5.4426 9.99953C5.4426 7.2123 7.59959 4.92898 10.3353 4.7275C10.2053 4.71793 10.0739 4.71289 9.94143 4.71289C7.0217 4.71289 4.65479 7.0798 4.65479 9.99953C4.65479 12.9193 7.0217 15.2862 9.94143 15.2862C10.0739 15.2862 10.2053 15.2811 10.3353 15.2716C7.59955 15.0701 5.4426 12.7868 5.4426 9.99953Z" fill="#E59D1F"/>
<path d="M9.95486 3.67188C8.62846 3.67188 7.55322 4.74711 7.55322 6.07352V7.02391C7.71373 6.87512 7.94209 6.79426 8.16498 6.82402V6.70434C8.16498 6.60922 8.24623 6.53406 8.34041 6.54117C9.26896 6.60789 10.2139 6.31281 10.9284 5.84605C10.9951 5.80246 11.0835 5.81332 11.1376 5.87156C11.7485 6.52816 11.7448 6.50273 11.7448 6.58848V6.82348C11.9891 6.78684 12.2058 6.86234 12.3564 7.00234V6.07344C12.3565 4.74711 11.2813 3.67188 9.95486 3.67188Z" fill="#576574"/>
<path d="M8.19783 6.07352C8.19783 4.85648 9.10326 3.8516 10.2771 3.69402C10.1716 3.67984 10.0642 3.67188 9.95482 3.67188C8.62842 3.67188 7.55322 4.74711 7.55322 6.07352V7.02391C7.71373 6.87512 7.94209 6.79426 8.16498 6.82402V6.70434C8.16498 6.66738 8.17736 6.63355 8.19783 6.60629V6.07352Z" fill="#3E4B5A"/>
<path d="M11.713 6.72796V8.04358C11.713 8.05784 11.7123 8.07194 11.7119 8.08612C12.1775 8.15663 12.5421 7.82022 12.5421 7.4071C12.5421 6.99311 12.1771 6.65835 11.713 6.72796Z" fill="#F2BB88"/>
<path d="M8.19682 8.0439V6.72878C7.7915 6.67464 7.36768 6.98574 7.36768 7.40742C7.36768 7.81999 7.7315 8.15703 8.19783 8.08644C8.19748 8.07226 8.19682 8.05812 8.19682 8.0439Z" fill="#F2BB88"/>
<path d="M12.2955 6.88123C12.1467 6.75779 11.942 6.69361 11.713 6.72794V8.04357C11.713 8.05783 11.7123 8.07193 11.7119 8.08611C11.9416 8.12087 12.1466 8.05654 12.2954 7.93291V6.88123H12.2955Z" fill="#E3A76F"/>
<path d="M8.19678 7.93328C8.04377 7.8062 7.9501 7.61656 7.9501 7.40738C7.9501 7.20382 8.049 7.0262 8.19678 6.90285V6.72878C7.79146 6.67464 7.36768 6.98574 7.36768 7.40742C7.36768 7.81999 7.73146 8.15699 8.19783 8.08644C8.19748 8.07226 8.19678 8.05812 8.19678 8.0439V7.93328Z" fill="#E3A76F"/>
<path d="M9.98051 9.77617C9.5925 9.77617 9.25152 9.66965 8.97266 9.49145V10.434L9.97621 11.6727L10.9797 10.434V9.46484C10.6954 9.66098 10.3512 9.77617 9.98051 9.77617Z" fill="#F2BB88"/>
<path d="M9.61535 9.74273C9.37609 9.69836 9.16027 9.61109 8.97266 9.49121V10.4337L9.61535 11.2271V9.74273Z" fill="#E3A76F"/>
<path d="M13.6343 11.3982L10.9795 10.3701L9.97599 11.6088L8.97243 10.3701L6.3204 11.3982C6.3204 11.3982 5.50509 11.7339 5.3606 12.6407C6.27431 14.2223 7.98349 15.2866 9.94134 15.2866C11.9385 15.2866 13.6768 14.179 14.5761 12.5447C14.392 11.71 13.6343 11.3982 13.6343 11.3982Z" fill="#E4EAF8"/>
<path d="M13.6343 11.3982L10.9795 10.3701L9.97599 11.6088L8.97243 10.3701L6.3204 11.3982C6.3204 11.3982 5.50509 11.7339 5.3606 12.6407C6.27431 14.2223 7.98349 15.2866 9.94134 15.2866C11.9385 15.2866 13.6768 14.179 14.5761 12.5447C14.392 11.71 13.6343 11.3982 13.6343 11.3982Z" fill="#E4EAF8"/>
<path d="M5.98122 12.6323C5.98122 11.8643 6.44337 11.4333 6.73353 11.2383C6.36669 11.3805 6.09509 11.4497 5.76939 11.8025C5.55767 12.0319 5.41271 12.3139 5.3606 12.6409C5.53853 12.9489 5.74696 13.2369 5.98122 13.5016V12.6323Z" fill="#D8DCE5"/>
<path d="M11.1377 5.80801C11.0835 5.74977 10.9952 5.73891 10.9285 5.78251C10.214 6.24926 9.26902 6.5443 8.34047 6.47762C8.24629 6.47048 8.16504 6.54563 8.16504 6.64079V8.07555C8.16504 8.9977 8.88758 9.83989 9.98051 9.83989C10.9534 9.83989 11.7449 9.0484 11.7449 8.07555V6.52493C11.7449 6.43923 11.7486 6.46462 11.1377 5.80801Z" fill="#F2D1A5"/>
<path d="M8.80773 8.07496V6.48074C8.6523 6.48899 8.49613 6.48821 8.34047 6.47703C8.24629 6.46988 8.16504 6.54504 8.16504 6.6402V8.07496C8.16504 8.99707 8.88758 9.8393 9.98051 9.8393C10.0813 9.8393 10.1801 9.83035 10.2763 9.81403C9.44383 9.67281 8.80773 8.94696 8.80773 8.07496Z" fill="#F2BB88"/>
<path d="M11.1878 12.2453L11.9382 10.7414L10.9796 10.3701L9.97607 11.6088L10.9545 12.3037C11.0337 12.3599 11.1444 12.3322 11.1878 12.2453Z" fill="#D8DCE5"/>
<path d="M8.76581 12.2453L8.01538 10.7414L8.97397 10.3701L9.97749 11.6088L8.99909 12.3037C8.91991 12.3599 8.80921 12.3322 8.76581 12.2453Z" fill="#D8DCE5"/>
<path d="M9.97746 11.6093V11.6084L9.97688 11.6088L9.97629 11.6084V11.6093L9.26465 12.1146L9.60102 12.6209C9.87234 12.6209 10.0814 12.6209 10.3527 12.6209L10.6891 12.1146L9.97746 11.6093Z" fill="#EE5253"/>
<path d="M10.3328 11.8618L9.97726 11.6093V11.6084L9.97667 11.6088L9.97605 11.6084V11.6093L9.2644 12.1146L9.60077 12.6209C9.86249 12.6209 10.0658 12.6209 10.313 12.6209L10.0368 12.2052C10.0032 12.1548 10.0158 12.0868 10.0653 12.0517L10.3328 11.8618Z" fill="#D83941"/>
<path d="M9.18848 15.2327C9.43445 15.2678 9.68574 15.2864 9.94141 15.2864C10.2327 15.2864 10.5183 15.2621 10.7968 15.2168L10.3526 12.6211C10.0812 12.6211 9.87223 12.6211 9.60086 12.6211L9.18848 15.2327Z" fill="#FF6B6B"/>
<path d="M9.18848 15.2327C9.41867 15.2656 9.65363 15.2834 9.89238 15.2855L10.3131 12.6211C10.0648 12.6211 9.86363 12.6211 9.6009 12.6211L9.18848 15.2327Z" fill="#EE5253"/>
<path d="M12.9556 12.9639C12.789 12.9639 12.6538 13.099 12.6538 13.2657V14.538C12.8651 14.4114 13.0667 14.2706 13.2575 14.1167V13.2657C13.2575 13.099 13.1223 12.9639 12.9556 12.9639Z" fill="#D8DCE5"/>
<path d="M7.34659 14.6057V13.2657C7.34659 13.099 7.21147 12.9639 7.04476 12.9639C6.87808 12.9639 6.74292 13.099 6.74292 13.2657V14.2083C6.93437 14.3539 7.13597 14.4868 7.34659 14.6057Z" fill="#D8DCE5"/>
<path d="M9.13104 0C8.80448 0 8.53972 0.264766 8.53972 0.591328V2.28934C8.53972 2.3466 8.49921 2.39531 8.44312 2.40676L9.11241 2.31879C9.24065 2.30195 9.33655 2.19262 9.33655 2.06328V0.591328C9.33655 0.264727 9.60132 0 9.92792 0H9.13104Z" fill="#F4B537"/>
<path d="M9.33655 19.4082V17.9332C9.33655 17.8056 9.24198 17.6978 9.11546 17.6811L8.44312 17.5928C8.49921 17.6042 8.53972 17.653 8.53972 17.7102V19.4082C8.53972 19.7348 8.80448 19.9995 9.13104 19.9995H9.92788C9.60132 19.9995 9.33655 19.7348 9.33655 19.4082Z" fill="#F4B537"/>
</g>
<defs>
<clipPath id="clip0_3903_15930">
<rect width="20" height="20" fill="white"/>
</clipPath>
</defs>
</svg>
