<svg width="64" height="64" viewBox="0 0 64 64" fill="none" xmlns="http://www.w3.org/2000/svg">
<g clip-path="url(#clip0_4717_34290)">
<path d="M31.9989 63.9978C49.6714 63.9978 63.9978 49.6714 63.9978 31.9989C63.9978 14.3264 49.6714 0 31.9989 0C14.3264 0 0 14.3264 0 31.9989C0 49.6714 14.3264 63.9978 31.9989 63.9978Z" fill="#FFC000"/>
<path d="M5.15118 21.226C5.4102 18.8655 6.27284 16.6064 7.45531 14.5365C8.6513 12.4711 10.2077 10.5972 12.0208 9.02057C13.8317 7.44169 15.9016 6.15786 18.1133 5.25918C20.3274 4.37176 22.6856 3.83346 25.0595 3.91229C23.0032 5.088 21.0616 6.17588 19.2283 7.40115C17.3926 8.6129 15.6673 9.91926 14.0344 11.336C12.4014 12.7549 10.8676 14.2843 9.41259 15.9352C7.94407 17.5817 6.59718 19.352 5.14893 21.226H5.15118Z" fill="#FFE8BB"/>
<path d="M63.9999 32.0011C63.9999 49.6729 49.6751 64.0022 31.9988 64.0022C22.3408 64.0022 13.6828 59.7228 7.81323 52.9545C13.4283 57.8443 20.7709 60.7994 28.8005 60.7994C46.4723 60.7994 60.8016 46.4746 60.8016 28.7983C60.8016 20.7912 57.8623 13.4711 52.9973 7.85608C59.7385 13.7212 63.9976 22.3611 63.9976 31.9988L63.9999 32.0011Z" fill="#F9B700"/>
<path d="M16.3361 49.4455C15.7212 49.9658 14.8451 49.2315 15.2573 48.5423C18.5277 43.0601 24.7981 39.3528 31.9988 39.3528C39.1996 39.3528 45.47 43.0601 48.7404 48.5423C49.1526 49.2338 48.2765 49.9658 47.6616 49.4455C43.9835 46.3305 38.3347 44.3372 31.9988 44.3372C25.663 44.3372 20.0119 46.3305 16.3361 49.4455Z" fill="#664100"/>
<path d="M43.6389 31.6431C45.9614 31.6431 47.844 28.9305 47.844 25.5843C47.844 22.2381 45.9614 19.5255 43.6389 19.5255C41.3165 19.5255 39.4338 22.2381 39.4338 25.5843C39.4338 28.9305 41.3165 31.6431 43.6389 31.6431Z" fill="#664100"/>
<path d="M20.3611 31.6431C22.6835 31.6431 24.5662 28.9305 24.5662 25.5843C24.5662 22.2381 22.6835 19.5255 20.3611 19.5255C18.0387 19.5255 16.156 22.2381 16.156 25.5843C16.156 28.9305 18.0387 31.6431 20.3611 31.6431Z" fill="#664100"/>
</g>
<defs>
<clipPath id="clip0_4717_34290">
<rect width="64" height="64" fill="white"/>
</clipPath>
</defs>
</svg>
