<svg width="24" height="24" viewBox="0 0 24 24" fill="none" xmlns="http://www.w3.org/2000/svg">
<path d="M0.575344 7.64535L12.1819 0.900338L11.6276 0.580322L0.0210876 7.32533L0.575344 7.64535Z" fill="#FE91AB"/>
<path d="M13.0855 10.9828C12.5739 10.687 12.159 9.96796 12.1611 9.38111L12.179 0.902344L8.23043 3.19679L0.575295 7.6449L0.554415 16.1254C0.553407 16.7131 0.968175 17.4323 1.4799 17.7272C1.73733 17.8763 1.9708 17.8897 2.13961 17.7919L13.7463 11.0465C13.5774 11.1444 13.343 11.131 13.0855 10.9828Z" fill="#ED5D71"/>
<path d="M1.03873 7.96631L2.60617 8.87096L2.72046 8.93706V17.9232C2.56912 17.9142 2.40198 17.8625 2.22577 17.7609C1.55982 17.3753 1.01891 16.4393 1.02097 15.6744L1.03873 7.96631Z" fill="#E3E7F0"/>
<path d="M14.5922 2.29199L14.5714 10.7723C14.5693 11.2382 14.4047 11.5675 14.1378 11.7217L2.53119 18.4671C2.79797 18.3118 2.96261 17.9835 2.96472 17.5166L2.98556 9.03623L14.5922 2.29199Z" fill="#ED5D71"/>
<path d="M2.53119 8.82818L13.4274 2.49597L11.935 1.63428L1.03873 7.96649L2.53119 8.82818Z" fill="white"/>
<path d="M0.0210802 7.32544L8.14908e-06 15.8056C-0.00267985 16.7446 0.65996 17.8926 1.47735 18.3646C2.2947 18.8365 2.9617 18.4561 2.96434 17.5171L2.98546 9.03693L2.43116 8.71691L2.41009 17.1971C2.40841 17.7849 1.9909 18.0231 1.47918 17.7277C0.9674 17.4322 0.552584 16.7134 0.554264 16.1257L0.575336 7.64546L0.0210802 7.32544Z" fill="#D3374E"/>
<path d="M2.98546 9.0367L14.592 2.2917L14.0377 1.97168L2.43115 8.71669L2.98546 9.0367Z" fill="#FE91AB"/>
<path d="M14.5952 0.901123L11.8355 2.50509L10.6437 4.58642L14.5923 2.29197L14.5952 0.901123Z" fill="#ED5D71"/>
<path d="M11.8358 2.50527L10.6441 4.58631L10.0898 4.26629L11.2816 2.1853L11.8358 2.50527Z" fill="#D3374E"/>
<path d="M11.8358 2.50514L14.5951 0.901559L14.0409 0.581543L11.2816 2.18513L11.8358 2.50514Z" fill="#FE91AB"/>
<path d="M4.79675 10.0716L16.4033 3.32661L15.849 3.00659L4.24249 9.7516L4.79675 10.0716Z" fill="#FFDD94"/>
<path d="M17.307 13.4091C16.7953 13.1133 16.3805 12.3942 16.3825 11.8074L16.4004 3.32861L12.4518 5.62311L4.79671 10.0712L4.77588 18.5518C4.77482 19.1393 5.18964 19.8587 5.70132 20.1534C5.95875 20.3026 6.19222 20.316 6.36103 20.2182L17.9677 13.4728C17.7989 13.5707 17.5644 13.5573 17.307 13.4091Z" fill="#FEBB61"/>
<path d="M5.26014 10.3926L6.82758 11.2972L6.94186 11.3633V20.3495C6.79052 20.3405 6.62338 20.2887 6.44718 20.1871C5.78122 19.8015 5.24031 18.8656 5.24238 18.1007L5.26014 10.3926Z" fill="#E3E7F0"/>
<path d="M18.8136 4.71826L18.7928 13.1986C18.7907 13.6645 18.6261 13.9938 18.3592 14.1481L6.75259 20.8933C7.01938 20.7381 7.18402 20.4098 7.18613 19.9429L7.20696 11.4625L18.8136 4.71826Z" fill="#FEBB61"/>
<path d="M6.7526 11.2545L17.6488 4.92224L16.1564 4.06055L5.26013 10.3928L6.7526 11.2545Z" fill="white"/>
<path d="M4.24248 9.75171L4.22141 18.2319C4.21873 19.1708 4.88137 20.3189 5.69876 20.7908C6.51615 21.2627 7.18311 20.8823 7.1858 19.9434L7.20687 11.4632L6.65257 11.1432L6.63149 19.6234C6.62981 20.2111 6.21231 20.4494 5.70058 20.1539C5.18881 19.8585 4.77399 19.1397 4.77567 18.5519L4.79674 10.0717L4.24248 9.75171Z" fill="#EFA143"/>
<path d="M7.20686 11.463L18.8134 4.71797L18.2591 4.39795L6.65256 11.143L7.20686 11.463Z" fill="#FFDD94"/>
<path d="M18.8166 3.32739L16.0569 4.93141L14.8651 7.01269L18.8137 4.71824L18.8166 3.32739Z" fill="#FEBB61"/>
<path d="M16.0572 4.93159L14.8655 7.01258L14.3112 6.69261L15.503 4.61157L16.0572 4.93159Z" fill="#EFA143"/>
<path d="M16.0572 4.93161L18.8165 3.32807L18.2623 3.00806L15.503 4.61159L16.0572 4.93161Z" fill="#FFDD94"/>
<path d="M9.0182 12.4981L20.6247 5.75312L20.0704 5.43311L8.4639 12.1781L9.0182 12.4981Z" fill="#7BB1FF"/>
<path d="M21.5283 15.8356C21.0167 15.5398 20.6018 14.8207 20.6039 14.2339L20.6218 5.75513L16.6732 8.04957L9.01809 12.4977L8.99726 20.9782C8.9962 21.5658 9.41102 22.2851 9.9227 22.5799C10.1801 22.7291 10.4136 22.7425 10.5824 22.6446L22.1891 15.8993C22.0203 15.9971 21.7858 15.9837 21.5283 15.8356Z" fill="#5793FB"/>
<path d="M9.48155 12.8191L11.049 13.7237L11.1633 13.7898V22.776C11.0119 22.767 10.8448 22.7153 10.6686 22.6136C10.0026 22.2281 9.46173 21.2921 9.46384 20.5271L9.48155 12.8191Z" fill="#E3E7F0"/>
<path d="M23.0351 7.14478L23.0142 15.6251C23.0122 16.091 22.8475 16.4203 22.5807 16.5746L10.974 23.3199C11.2408 23.1646 11.4055 22.8363 11.4076 22.3694L11.4284 13.8891L23.0351 7.14478Z" fill="#5793FB"/>
<path d="M19.2848 16.5701L22.1108 14.928C22.1108 14.928 22.1091 15.4844 22.1095 15.5193L19.2822 17.1626L19.2848 16.5701Z" fill="#E3E7F0"/>
<path d="M19.2848 15.4527L22.1108 13.8105C22.1108 13.8105 22.1091 14.367 22.1095 14.4019L19.2822 16.0452L19.2848 15.4527Z" fill="#E3E7F0"/>
<path d="M19.2848 14.3355L22.1108 12.6934C22.1108 12.6934 22.1091 13.2498 22.1095 13.2847L19.2822 14.928L19.2848 14.3355Z" fill="#E3E7F0"/>
<path d="M10.974 13.6809L21.8702 7.34871L20.3778 6.48706L9.48154 12.8193L10.974 13.6809Z" fill="white"/>
<path d="M8.46389 12.178L8.44282 20.6582C8.44013 21.5971 9.10282 22.7452 9.92016 23.2171C10.7376 23.689 11.4045 23.3086 11.4072 22.3697L11.4283 13.8895L10.874 13.5695L10.8529 22.0497C10.8513 22.6374 10.4337 22.8756 9.92199 22.5802C9.41026 22.2848 8.99544 21.566 8.99707 20.9783L9.01819 12.498L8.46389 12.178Z" fill="#3A53D0"/>
<path d="M11.4283 13.8894L23.0348 7.14448L22.4805 6.82446L10.874 13.5694L11.4283 13.8894Z" fill="#7BB1FF"/>
<path d="M23.038 5.75391L20.2783 7.35787L19.0865 9.4392L23.0351 7.14471L23.038 5.75391Z" fill="#5793FB"/>
<path d="M20.2787 7.35805L19.0869 9.43905L18.5327 9.11908L19.7243 7.03809L20.2787 7.35805Z" fill="#3A53D0"/>
<path d="M20.2786 7.35788L23.0379 5.75434L22.4837 5.43433L19.7244 7.03786L20.2786 7.35788Z" fill="#7BB1FF"/>
</svg>
