<svg width="24" height="24" viewBox="0 0 24 24" fill="none" xmlns="http://www.w3.org/2000/svg">
<mask id="mask0_4223_157200" style="mask-type:alpha" maskUnits="userSpaceOnUse" x="0" y="0" width="24" height="24">
<rect width="24" height="24" fill="#D9D9D9"/>
</mask>
<g mask="url(#mask0_4223_157200)">
<path d="M8.99806 19.6153C8.5539 19.6153 8.17365 19.4571 7.85731 19.1408C7.54098 18.8244 7.38281 18.4442 7.38281 18C7.38281 17.5558 7.54098 17.1756 7.85731 16.8593C8.17365 16.5429 8.5539 16.3848 8.99806 16.3848C9.44223 16.3848 9.82248 16.5429 10.1388 16.8593C10.4551 17.1756 10.6133 17.5558 10.6133 18C10.6133 18.4442 10.4551 18.8244 10.1388 19.1408C9.82248 19.4571 9.44223 19.6153 8.99806 19.6153ZM14.9981 19.6153C14.5539 19.6153 14.1736 19.4571 13.8573 19.1408C13.541 18.8244 13.3828 18.4442 13.3828 18C13.3828 17.5558 13.541 17.1756 13.8573 16.8593C14.1736 16.5429 14.5539 16.3848 14.9981 16.3848C15.4422 16.3848 15.8225 16.5429 16.1388 16.8593C16.4551 17.1756 16.6133 17.5558 16.6133 18C16.6133 18.4442 16.4551 18.8244 16.1388 19.1408C15.8225 19.4571 15.4422 19.6153 14.9981 19.6153ZM8.99806 13.6153C8.5539 13.6153 8.17365 13.4571 7.85731 13.1408C7.54098 12.8244 7.38281 12.4442 7.38281 12C7.38281 11.5558 7.54098 11.1756 7.85731 10.8593C8.17365 10.5429 8.5539 10.3848 8.99806 10.3848C9.44223 10.3848 9.82248 10.5429 10.1388 10.8593C10.4551 11.1756 10.6133 11.5558 10.6133 12C10.6133 12.4442 10.4551 12.8244 10.1388 13.1408C9.82248 13.4571 9.44223 13.6153 8.99806 13.6153ZM14.9981 13.6153C14.5539 13.6153 14.1736 13.4571 13.8573 13.1408C13.541 12.8244 13.3828 12.4442 13.3828 12C13.3828 11.5558 13.541 11.1756 13.8573 10.8593C14.1736 10.5429 14.5539 10.3848 14.9981 10.3848C15.4422 10.3848 15.8225 10.5429 16.1388 10.8593C16.4551 11.1756 16.6133 11.5558 16.6133 12C16.6133 12.4442 16.4551 12.8244 16.1388 13.1408C15.8225 13.4571 15.4422 13.6153 14.9981 13.6153ZM8.99806 7.61526C8.5539 7.61526 8.17365 7.4571 7.85731 7.14077C7.54098 6.82443 7.38281 6.44418 7.38281 6.00002C7.38281 5.55585 7.54098 5.1756 7.85731 4.85927C8.17365 4.54293 8.5539 4.38477 8.99806 4.38477C9.44223 4.38477 9.82248 4.54293 10.1388 4.85927C10.4551 5.1756 10.6133 5.55585 10.6133 6.00002C10.6133 6.44418 10.4551 6.82443 10.1388 7.14077C9.82248 7.4571 9.44223 7.61526 8.99806 7.61526ZM14.9981 7.61526C14.5539 7.61526 14.1736 7.4571 13.8573 7.14077C13.541 6.82443 13.3828 6.44418 13.3828 6.00002C13.3828 5.55585 13.541 5.1756 13.8573 4.85927C14.1736 4.54293 14.5539 4.38477 14.9981 4.38477C15.4422 4.38477 15.8225 4.54293 16.1388 4.85927C16.4551 5.1756 16.6133 5.55585 16.6133 6.00002C16.6133 6.44418 16.4551 6.82443 16.1388 7.14077C15.8225 7.4571 15.4422 7.61526 14.9981 7.61526Z" fill="#999999" fill-opacity="0.87"/>
</g>
</svg>
