<svg width="20" height="20" viewBox="0 0 20 20" fill="none" xmlns="http://www.w3.org/2000/svg">
<mask id="mask0_1092_207142" style="mask-type:alpha" maskUnits="userSpaceOnUse" x="0" y="0" width="20" height="20">
<rect width="20" height="20" fill="#D9D9D9"/>
</mask>
<g mask="url(#mask0_1092_207142)">
<path d="M5.20833 16.25C4.80347 16.25 4.45917 16.1082 4.17542 15.8246C3.89181 15.5408 3.75 15.1965 3.75 14.7917V11.9552C3.75 11.5502 3.89181 11.2059 4.17542 10.9223C4.45917 10.6387 4.80347 10.4969 5.20833 10.4969C5.61319 10.4969 5.9575 10.6387 6.24125 10.9223C6.52486 11.2059 6.66667 11.5502 6.66667 11.9552V14.7917C6.66667 15.1965 6.52486 15.5408 6.24125 15.8246C5.9575 16.1082 5.61319 16.25 5.20833 16.25ZM10 16.25C9.59514 16.25 9.25083 16.1082 8.96708 15.8246C8.68347 15.5408 8.54167 15.1965 8.54167 14.7917V5.20833C8.54167 4.80347 8.68347 4.45917 8.96708 4.17542C9.25083 3.89181 9.59514 3.75 10 3.75C10.4049 3.75 10.7492 3.89181 11.0329 4.17542C11.3165 4.45917 11.4583 4.80347 11.4583 5.20833V14.7917C11.4583 15.1965 11.3165 15.5408 11.0329 15.8246C10.7492 16.1082 10.4049 16.25 10 16.25ZM14.7917 16.25C14.3868 16.25 14.0425 16.1082 13.7587 15.8246C13.4751 15.5408 13.3333 15.1965 13.3333 14.7917V9.29479C13.3333 8.88993 13.4751 8.54569 13.7587 8.26208C14.0425 7.97847 14.3868 7.83667 14.7917 7.83667C15.1965 7.83667 15.5408 7.97847 15.8246 8.26208C16.1082 8.54569 16.25 8.88993 16.25 9.29479V14.7917C16.25 15.1965 16.1082 15.5408 15.8246 15.8246C15.5408 16.1082 15.1965 16.25 14.7917 16.25Z" fill="#9933FF"/>
</g>
</svg>
