<svg width="18" height="19" viewBox="0 0 18 19" fill="none" xmlns="http://www.w3.org/2000/svg">
<path d="M17.4375 16.3496H9.5625C9.252 16.3496 9 16.0696 9 15.7246C9 15.3796 9 3.56961 9 3.22461C9 2.87961 9.252 2.59961 9.5625 2.59961H17.4375C17.748 2.59961 18 2.87961 18 3.22461V15.7246C18 16.0696 17.748 16.3496 17.4375 16.3496Z" fill="#ECEFF1"/>
<path d="M11.8125 6.35059H9.5625C9.252 6.35059 9 6.07059 9 5.72559C9 5.38059 9.252 5.10059 9.5625 5.10059H11.8125C12.123 5.10059 12.375 5.38059 12.375 5.72559C12.375 6.07059 12.123 6.35059 11.8125 6.35059Z" fill="#388E3C"/>
<path d="M11.8125 8.85059H9.5625C9.252 8.85059 9 8.57059 9 8.22559C9 7.88059 9.252 7.60059 9.5625 7.60059H11.8125C12.123 7.60059 12.375 7.88059 12.375 8.22559C12.375 8.57059 12.123 8.85059 11.8125 8.85059Z" fill="#388E3C"/>
<path d="M11.8125 11.3506H9.5625C9.252 11.3506 9 11.0706 9 10.7256C9 10.3806 9.252 10.1006 9.5625 10.1006H11.8125C12.123 10.1006 12.375 10.3806 12.375 10.7256C12.375 11.0706 12.123 11.3506 11.8125 11.3506Z" fill="#388E3C"/>
<path d="M11.8125 13.8506H9.5625C9.252 13.8506 9 13.5706 9 13.2256C9 12.8806 9.252 12.6006 9.5625 12.6006H11.8125C12.123 12.6006 12.375 12.8806 12.375 13.2256C12.375 13.5706 12.123 13.8506 11.8125 13.8506Z" fill="#388E3C"/>
<path d="M15.1875 6.35059H14.0625C13.752 6.35059 13.5 6.07059 13.5 5.72559C13.5 5.38059 13.752 5.10059 14.0625 5.10059H15.1875C15.498 5.10059 15.75 5.38059 15.75 5.72559C15.75 6.07059 15.498 6.35059 15.1875 6.35059Z" fill="#388E3C"/>
<path d="M15.1875 8.85059H14.0625C13.752 8.85059 13.5 8.57059 13.5 8.22559C13.5 7.88059 13.752 7.60059 14.0625 7.60059H15.1875C15.498 7.60059 15.75 7.88059 15.75 8.22559C15.75 8.57059 15.498 8.85059 15.1875 8.85059Z" fill="#388E3C"/>
<path d="M15.1875 11.3506H14.0625C13.752 11.3506 13.5 11.0706 13.5 10.7256C13.5 10.3806 13.752 10.1006 14.0625 10.1006H15.1875C15.498 10.1006 15.75 10.3806 15.75 10.7256C15.75 11.0706 15.498 11.3506 15.1875 11.3506Z" fill="#388E3C"/>
<path d="M15.1875 13.8506H14.0625C13.752 13.8506 13.5 13.5706 13.5 13.2256C13.5 12.8806 13.752 12.6006 14.0625 12.6006H15.1875C15.498 12.6006 15.75 12.8806 15.75 13.2256C15.75 13.5706 15.498 13.8506 15.1875 13.8506Z" fill="#388E3C"/>
<path d="M9.92138 0.243225C9.79313 0.124475 9.621 0.073225 9.459 0.110725L0.459 1.98573C0.192375 2.04073 0 2.29822 0 2.59947V16.3495C0 16.6495 0.192375 16.9082 0.459 16.9632L9.459 18.8382C9.49275 18.8457 9.52763 18.8495 9.5625 18.8495C9.693 18.8495 9.82013 18.7995 9.92138 18.7057C10.0508 18.587 10.125 18.4095 10.125 18.2245V0.724475C10.125 0.538225 10.0508 0.361975 9.92138 0.243225Z" fill="#2E7D32"/>
<path d="M7.73559 11.5637L5.95697 9.30498L7.75584 6.73498C7.94709 6.46248 7.90209 6.06998 7.65797 5.85748C7.41384 5.64498 7.06059 5.69498 6.86822 5.96623L5.20209 8.34623L3.79809 6.56373C3.59222 6.30123 3.23672 6.27748 3.00497 6.50498C2.77097 6.73248 2.74734 7.12748 2.95209 7.38623L4.49897 9.35123L2.93072 11.5912C2.73947 11.8637 2.78447 12.2562 3.02859 12.4687C3.13209 12.5575 3.25472 12.6 3.37509 12.6C3.54272 12.6 3.70809 12.5175 3.81947 12.3587L5.25384 10.3087L6.88959 12.385C7.00097 12.5275 7.15622 12.6 7.31259 12.6C7.44421 12.6 7.57584 12.5487 7.68271 12.445C7.91672 12.2175 7.94034 11.8225 7.73559 11.5637Z" fill="#FAFAFA"/>
</svg>
