<svg width="20" height="20" viewBox="0 0 20 20" fill="none" xmlns="http://www.w3.org/2000/svg">
<mask id="mask0_411_114066" style="mask-type:alpha" maskUnits="userSpaceOnUse" x="0" y="0" width="20" height="20">
<rect width="20" height="20" fill="#D9D9D9"/>
</mask>
<g mask="url(#mask0_411_114066)">
<path d="M4.26675 17.5C3.77873 17.5 3.36231 17.3264 3.01749 16.9791C2.67266 16.6318 2.50024 16.2143 2.50024 15.7266V14.8399C2.50024 14.5887 2.58473 14.3781 2.75369 14.2081C2.92266 14.0382 3.13202 13.9532 3.38177 13.9532C3.63152 13.9532 3.84261 14.0382 4.01502 14.2081C4.18744 14.3781 4.27364 14.5887 4.27364 14.8399V15.7266H14.914V14.8399C14.914 14.5887 14.9985 14.3781 15.1675 14.2081C15.3365 14.0382 15.5458 13.9532 15.7956 13.9532C16.0453 13.9532 16.2564 14.0382 16.4288 14.2081C16.6012 14.3781 16.6874 14.5887 16.6874 14.8399V15.7266C16.6874 16.2143 16.5137 16.6318 16.1663 16.9791C15.8188 17.3264 15.4011 17.5 14.9131 17.5H4.26675ZM8.70714 5.52956L6.7367 7.5C6.55607 7.68062 6.34671 7.77094 6.10862 7.77094C5.87052 7.77094 5.65722 7.68062 5.46872 7.5C5.29597 7.31938 5.2096 7.11002 5.2096 6.87192C5.2096 6.63383 5.29992 6.42447 5.48054 6.24384L8.97808 2.74631C9.06675 2.6642 9.16281 2.60263 9.26625 2.56158C9.3697 2.52053 9.48054 2.5 9.59877 2.5C9.71699 2.5 9.82783 2.52053 9.93128 2.56158C10.0347 2.60263 10.1275 2.6642 10.2096 2.74631L13.7071 6.24384C13.8878 6.42447 13.9781 6.62972 13.9781 6.85961C13.9781 7.08949 13.8917 7.29475 13.719 7.47537C13.5305 7.65599 13.3172 7.74631 13.0791 7.74631C12.841 7.74631 12.6316 7.65599 12.451 7.47537L10.4805 5.52956V13.0665C10.4805 13.3177 10.3961 13.5283 10.2271 13.6983C10.0581 13.8682 9.84877 13.9532 9.59901 13.9532C9.34926 13.9532 9.13818 13.8682 8.96576 13.6983C8.79335 13.5283 8.70714 13.3177 8.70714 13.0665V5.52956Z" fill="#A066D8"/>
</g>
</svg>
