<svg width="19" height="19" viewBox="0 0 19 19" fill="none" xmlns="http://www.w3.org/2000/svg">
<path d="M9.37549 9.11868C9.49678 9.30061 9.6181 9.48258 9.73939 9.66451C9.6181 9.9098 9.49678 10.1551 9.37549 10.4004C9.27914 10.5708 9.18279 10.7412 9.0864 10.9115C8.99965 10.7412 8.91289 10.5708 8.82617 10.4004C8.82617 9.97316 8.82617 9.54593 8.82617 9.11868C8.92538 9.01815 9.02459 8.91766 9.12383 8.81714C9.20769 8.91766 9.29159 9.01815 9.37549 9.11868Z" fill="#CDE8F7"/>
<path d="M7.5865 11.6392C7.75272 11.809 7.91895 11.9789 8.08517 12.1487C7.91895 12.3451 7.75272 12.5415 7.5865 12.7378C6.70514 12.7378 5.82382 12.7378 4.94246 12.7378C4.8223 12.5789 4.70215 12.4199 4.58203 12.2609C4.70219 12.0537 4.82234 11.8464 4.94246 11.6392H7.5865Z" fill="#CDE8F7"/>
<path d="M3.80859 13.8849V15.1732C3.63849 15.3744 3.46835 15.5756 3.29824 15.7767C3.10214 15.5756 2.90607 15.3744 2.70996 15.1732C2.70996 14.7477 2.70996 14.3222 2.70996 13.8966C2.88944 13.713 3.06888 13.5293 3.24836 13.3457C3.4351 13.5254 3.62186 13.7052 3.80859 13.8849Z" fill="#CDE8F7"/>
<path d="M8.02338 16.9735C7.90612 17.1506 7.78889 17.3277 7.67163 17.5049H6.39758C6.29955 17.3444 6.20151 17.1839 6.10352 17.0234C6.20031 16.8177 6.29713 16.612 6.39392 16.4062H7.67529C7.79131 16.5953 7.90736 16.7844 8.02338 16.9735Z" fill="#CDE8F7"/>
<path d="M13.7204 16.4062C13.8429 16.6036 13.9654 16.801 14.0878 16.9984C13.9654 17.1672 13.8429 17.3361 13.7204 17.5049C12.8397 17.5049 11.959 17.5049 11.0782 17.5049C10.975 17.3485 10.8718 17.1922 10.7686 17.0358C10.8705 16.826 10.9726 16.6161 11.0746 16.4062H13.7204Z" fill="#A0D6F2"/>
<path d="M16.0586 13.9771V15.1732C15.8756 15.3421 15.6926 15.5111 15.5097 15.68C15.3264 15.5111 15.1432 15.3421 14.96 15.1732C14.96 14.7745 14.96 14.3758 14.96 13.9771L15.4536 13.4734C15.6552 13.6413 15.8569 13.8092 16.0586 13.9771Z" fill="#A0D6F2"/>
<path d="M9.92432 9.11857V10.4003C9.83276 10.5426 9.74121 10.685 9.64966 10.8273C9.55811 10.685 9.46655 10.5427 9.375 10.4003V9.11857C9.46655 9.00248 9.55811 8.88639 9.64966 8.77026C9.74121 8.88639 9.83276 9.00248 9.92432 9.11857Z" fill="#A0D6F2"/>
<path d="M9.37512 10.4004C9.59771 10.9776 9.82029 11.5549 10.0429 12.1322C9.82029 12.7472 9.59771 13.3622 9.37512 13.9772H8.13623C7.83264 13.9772 7.58691 13.7311 7.58691 13.4279V10.9497C7.58691 10.6465 7.83264 10.4004 8.13623 10.4004H9.37512Z" fill="#FF4D87"/>
<path d="M5.02954 12.1886C5.02965 13.1696 4.22252 13.9772 3.24133 13.9772C2.26014 13.9772 1.45302 13.1696 1.45313 12.1886C1.45323 11.2078 2.26029 10.4004 3.24133 10.4004C4.22238 10.4004 5.02943 11.2078 5.02954 12.1886Z" fill="#66B2FF"/>
<path d="M6.48193 16.9617C6.48182 17.9425 5.6747 18.7497 4.69373 18.7499H1.78821C0.807239 18.7497 0.000109874 17.9425 1.12133e-08 16.9617C-0.000109852 15.9807 0.807092 15.1732 1.78821 15.1731H4.69373C5.67484 15.1732 6.48204 15.9807 6.48193 16.9617Z" fill="#FFC24D"/>
<path d="M9.37512 15.1731C9.57174 15.7444 9.76836 16.3157 9.96494 16.887C9.76836 17.5079 9.57174 18.1289 9.37512 18.7499C8.39415 18.7497 7.58702 17.9425 7.58691 16.9617C7.5868 15.9807 8.39401 15.1732 9.37512 15.1731Z" fill="#66B2FF"/>
<path d="M17.2971 15.7224V18.2006C17.2971 18.5038 17.0514 18.7499 16.7478 18.7499H14.27C13.9664 18.7499 13.7207 18.5038 13.7207 18.2006V15.7224C13.7207 15.4192 13.9664 15.1731 14.27 15.1731H16.7478C17.0514 15.1731 17.2971 15.4192 17.2971 15.7224Z" fill="#E52E6B"/>
<path d="M18.7495 12.1886C18.7496 13.1696 17.9424 13.977 16.9613 13.9772H14.0558C13.0747 13.977 12.2675 13.1696 12.2676 12.1886C12.2677 11.2077 13.0748 10.4005 14.0558 10.4004H16.9613C17.9423 10.4005 18.7494 11.2077 18.7495 12.1886Z" fill="#FF9833"/>
<path d="M11.1632 16.9617C11.1631 17.9425 10.356 18.7497 9.375 18.7499V15.1731C10.3561 15.1732 11.1633 15.9807 11.1632 16.9617Z" fill="#4D87FF"/>
<path d="M11.1632 10.9497V13.4279C11.1632 13.7311 10.9175 13.9772 10.6139 13.9772H9.375V10.4004H10.6139C10.9175 10.4004 11.1632 10.6465 11.1632 10.9497Z" fill="#E52E6B"/>
<path d="M9.37524 0L12.2788 4.57764L9.37524 9.11865H5.07556C3.90259 9.11865 2.94824 8.16431 2.94824 6.99133V2.12732C2.94824 0.954346 3.90259 0 5.07556 0H9.37524Z" fill="#2EE5A7"/>
<path d="M15.802 2.12732V6.99133C15.802 8.16431 14.8477 9.11865 13.6747 9.11865H9.375V0H13.6747C14.8477 0 15.802 0.954346 15.802 2.12732Z" fill="#00BAA0"/>
<path d="M6.5149 6.17453L5.3064 4.96603C5.09188 4.75154 5.09188 4.40371 5.3064 4.18919L6.5149 2.98069C6.72939 2.7662 7.07722 2.7662 7.29174 2.98069C7.50627 3.19518 7.50627 3.54301 7.29174 3.75753L6.47165 4.57763L7.29171 5.39772C7.5048 5.61078 7.5048 5.96147 7.29171 6.17456C7.07861 6.38766 6.72796 6.38763 6.5149 6.17453Z" fill="#E4F1F9"/>
<path d="M9.37505 2.80884C9.52281 3.059 9.67061 3.30912 9.81838 3.55928C9.67061 4.48835 9.52281 5.41739 9.37505 6.34647L9.29301 6.59769C9.19941 6.88418 8.88663 7.04286 8.60014 6.94926C8.31366 6.85565 8.15498 6.54287 8.24858 6.25638L9.37505 2.80884Z" fill="#E4F1F9"/>
<path d="M10.5015 2.89884L9.375 6.34635V2.80875L9.45703 2.55753C9.55115 2.26932 9.86133 2.11185 10.1499 2.20597C10.4381 2.30008 10.5956 2.61026 10.5015 2.89884Z" fill="#CDE8F7"/>
<path d="M11.4587 6.17445C11.2456 5.96138 11.2456 5.6107 11.4587 5.3976L12.2787 4.57755L11.4587 3.75745C11.2456 3.54439 11.2456 3.19371 11.4587 2.98061C11.6717 2.76751 12.0224 2.76755 12.2355 2.98061L13.444 4.18911C13.6585 4.4036 13.6585 4.75142 13.444 4.96595L12.2355 6.17445C12.0224 6.38754 11.6717 6.38754 11.4587 6.17445Z" fill="#CDE8F7"/>
</svg>
