<svg width="24" height="24" viewBox="0 0 24 24" fill="none" xmlns="http://www.w3.org/2000/svg">
<g clip-path="url(#clip0_200_7074)">
<path d="M21.2144 17.5713C21.2153 17.7177 21.1892 17.863 21.1373 17.9999C21.0764 18.1813 20.9736 18.3457 20.8373 18.4799C20.5966 18.7214 20.2697 18.8571 19.9287 18.857H19.0716C19.7816 18.857 20.3573 19.4327 20.3573 20.1427C20.3582 20.2891 20.332 20.4344 20.2801 20.5713C20.2193 20.7527 20.1165 20.9171 19.9801 21.0513C19.7394 21.2928 19.4125 21.4285 19.0716 21.4285H18.2144C18.9245 21.4285 19.5001 22.0041 19.5001 22.7142C19.5001 23.4243 18.9245 23.9999 18.2144 23.9999H10.5001C9.84443 24.0102 9.19278 23.8953 8.58014 23.6613C8.16014 23.4942 7.79157 23.2242 7.38443 23.027C6.95216 22.8207 6.47914 22.7138 6.00014 22.7142H4.92871L5.78585 14.1427C6.65828 14.1418 7.51209 13.8904 8.24585 13.4185C9.793 12.4327 12.1373 10.6413 11.6316 8.36132C11.4601 7.59417 11.3959 6.84417 12.2144 6.42846C13.123 5.9656 13.993 6.55274 14.4173 7.29417C15.8444 9.79274 13.3501 13.7142 13.3501 13.7142H19.5001C20.2102 13.7142 20.7859 14.2898 20.7859 14.9999C20.7868 15.1463 20.7606 15.2916 20.7087 15.4285C20.6479 15.6098 20.5451 15.7743 20.4087 15.9085C20.168 16.1499 19.8411 16.2856 19.5001 16.2856H19.9287C20.6388 16.2856 21.2144 16.8612 21.2144 17.5713Z" fill="#FDD7AD"/>
<path d="M20.28 20.5713C20.2191 20.7527 20.1164 20.9171 19.98 21.0513C19.7393 21.2928 19.4124 21.4285 19.0714 21.4284H16.9286C16.6919 21.4284 16.5 21.2366 16.5 20.9999C16.5 20.7632 16.6919 20.5713 16.9286 20.5713H20.28Z" fill="#F9C795"/>
<path d="M21.1371 18C21.0763 18.1814 20.9735 18.3458 20.8371 18.48C20.5964 18.7215 20.2695 18.8572 19.9286 18.8571H16.9286C16.6919 18.8571 16.5 18.6653 16.5 18.4286C16.5 18.1919 16.6919 18 16.9286 18H21.1371Z" fill="#F9C795"/>
<path d="M20.7086 15.4287C20.6477 15.6101 20.5449 15.7745 20.4086 15.9087C20.1679 16.1502 19.8409 16.2859 19.5 16.2859H16.9286C16.6919 16.2859 16.5 16.094 16.5 15.8573C16.5 15.6206 16.6919 15.4287 16.9286 15.4287H20.7086Z" fill="#F9C795"/>
<path d="M4.5001 12.8569H2.35725C1.64717 12.8569 1.07153 13.4326 1.07153 14.1426V22.7141C1.07153 23.4242 1.64717 23.9998 2.35725 23.9998H4.5001C5.21019 23.9998 5.78582 23.4242 5.78582 22.7141V14.1426C5.78582 13.4326 5.21019 12.8569 4.5001 12.8569Z" fill="#3B97D3"/>
<path d="M20.786 9.42864C20.5493 9.42864 20.3574 9.23676 20.3574 9.00007V8.14293C20.3574 7.90623 20.5493 7.71436 20.786 7.71436C21.0227 7.71436 21.2146 7.90623 21.2146 8.14293V9.00007C21.2146 9.23676 21.0227 9.42864 20.786 9.42864Z" fill="#FF5364"/>
<path d="M20.786 11.9999C20.5493 11.9999 20.3574 11.8081 20.3574 11.5714V10.7142C20.3574 10.4775 20.5493 10.2856 20.786 10.2856C21.0227 10.2856 21.2146 10.4775 21.2146 10.7142V11.5714C21.2146 11.8081 21.0227 11.9999 20.786 11.9999Z" fill="#FF5364"/>
<path d="M22.5003 10.2859H21.6432C21.4065 10.2859 21.2146 10.094 21.2146 9.85728C21.2146 9.62059 21.4065 9.42871 21.6432 9.42871H22.5003C22.737 9.42871 22.9289 9.62059 22.9289 9.85728C22.9289 10.094 22.737 10.2859 22.5003 10.2859Z" fill="#FF5364"/>
<path d="M19.9288 10.2859H19.0716C18.8349 10.2859 18.6431 10.094 18.6431 9.85728C18.6431 9.62059 18.8349 9.42871 19.0716 9.42871H19.9288C20.1655 9.42871 20.3574 9.62059 20.3574 9.85728C20.3574 10.094 20.1655 10.2859 19.9288 10.2859Z" fill="#FF5364"/>
<path d="M10.9288 3.42862C10.8151 3.42859 10.7061 3.38342 10.6258 3.30305L9.9829 2.66019C9.87149 2.55258 9.82681 2.39324 9.86603 2.2434C9.90525 2.09356 10.0223 1.97654 10.1721 1.93732C10.322 1.8981 10.4813 1.94278 10.5889 2.05419L11.2318 2.69705C11.3543 2.81961 11.3909 3.00392 11.3246 3.16404C11.2583 3.32416 11.1021 3.42858 10.9288 3.42862Z" fill="#955BA5"/>
<path d="M9 1.5001C8.88635 1.50008 8.77735 1.45491 8.697 1.37453L8.05414 0.731676C7.89173 0.563514 7.89405 0.296211 8.05936 0.130897C8.22468 -0.0344176 8.49198 -0.0367404 8.66014 0.125676L9.303 0.768533C9.42553 0.891102 9.46218 1.07541 9.39586 1.23553C9.32954 1.39565 9.17331 1.50007 9 1.5001Z" fill="#955BA5"/>
<path d="M8.3572 3.42862C8.18389 3.42858 8.02766 3.32416 7.96134 3.16404C7.89502 3.00392 7.93167 2.81961 8.0542 2.69705L8.69706 2.05419C8.80466 1.94278 8.96401 1.8981 9.11385 1.93732C9.26369 1.97654 9.38071 2.09356 9.41993 2.2434C9.45915 2.39324 9.41447 2.55258 9.30306 2.66019L8.6602 3.30305C8.57985 3.38342 8.47086 3.42859 8.3572 3.42862Z" fill="#955BA5"/>
<path d="M10.2859 1.49991C10.1126 1.49987 9.95637 1.39545 9.89005 1.23533C9.82373 1.07521 9.86038 0.890903 9.98291 0.768335L10.6258 0.125477C10.7334 0.0140673 10.8927 -0.0306138 11.0426 0.00860712C11.1924 0.047828 11.3094 0.164847 11.3486 0.314688C11.3879 0.46453 11.3432 0.623874 11.2318 0.731477L10.5889 1.37433C10.5086 1.45471 10.3996 1.49988 10.2859 1.49991Z" fill="#955BA5"/>
<path d="M19.9994 3.73921C18.9216 4.14724 18.072 4.99997 17.6679 6.07921C17.6354 6.16335 17.5537 6.21811 17.4635 6.2162C17.3733 6.21428 17.294 6.15609 17.2651 6.07064C16.8561 4.9965 16.0078 4.14819 14.9336 3.73921C14.8458 3.7114 14.7861 3.6299 14.7861 3.53778C14.7861 3.44566 14.8458 3.36416 14.9336 3.33635C16.0101 2.93099 16.8597 2.0814 17.2651 1.00493C17.2929 0.917104 17.3744 0.857422 17.4665 0.857422C17.5586 0.857422 17.6401 0.917104 17.6679 1.00493C18.0733 2.08436 18.927 2.9349 20.0079 3.33635C20.0921 3.36887 20.1468 3.4506 20.1449 3.54079C20.143 3.63097 20.0848 3.7103 19.9994 3.73921Z" fill="#F3D55B"/>
<path d="M7.30286 7.51265C6.71163 7.80197 6.23361 8.27999 5.94429 8.87122C5.9117 8.94891 5.83568 8.99945 5.75144 8.99945C5.66719 8.99945 5.59117 8.94891 5.55858 8.87122C5.27019 8.27933 4.7919 7.80105 4.20001 7.51265C4.12232 7.48006 4.07178 7.40404 4.07178 7.3198C4.07178 7.23555 4.12232 7.15953 4.20001 7.12694C4.7919 6.83854 5.27019 6.36026 5.55858 5.76837C5.59117 5.69068 5.66719 5.64014 5.75144 5.64014C5.83568 5.64014 5.9117 5.69068 5.94429 5.76837C6.23361 6.3596 6.71163 6.83762 7.30286 7.12694C7.38055 7.15953 7.4311 7.23555 7.4311 7.3198C7.4311 7.40404 7.38055 7.48006 7.30286 7.51265Z" fill="#F3D55B"/>
</g>
<defs>
<clipPath id="clip0_200_7074">
<rect width="24" height="24" fill="white"/>
</clipPath>
</defs>
</svg>
