<svg width="34" height="34" viewBox="0 0 34 34" fill="none" xmlns="http://www.w3.org/2000/svg">
<circle cx="17" cy="17" r="17" fill="white"/>
<g clip-path="url(#clip0_7093_4882)">
<path d="M17 32C25.2843 32 32 25.2843 32 17C32 8.71573 25.2843 2 17 2C8.71573 2 2 8.71573 2 17C2 25.2843 8.71573 32 17 32Z" fill="#3B5998"/>
<path d="M20.7708 17.5872H18.0943V27.3929H14.039V17.5872H12.1104V14.1411H14.039V11.9111C14.039 10.3164 14.7965 7.81921 18.1304 7.81921L21.1342 7.83178V11.1768H18.9547C18.5972 11.1768 18.0945 11.3554 18.0945 12.1162V14.1443H21.1251L20.7708 17.5872Z" fill="white"/>
</g>
<defs>
<clipPath id="clip0_7093_4882">
<rect width="30" height="30" fill="white" transform="translate(2 2)"/>
</clipPath>
</defs>
</svg>
