<svg width="40" height="40" viewBox="0 0 40 40" fill="none" xmlns="http://www.w3.org/2000/svg">
<circle cx="20" cy="20" r="19.5" fill="white" stroke="#A066DB"/>
<path d="M20.55 4.83804L21.6085 6.95004L23.973 7.28904C24.0858 7.30381 24.1921 7.35012 24.2798 7.42265C24.3674 7.49518 24.4327 7.59097 24.4683 7.69901C24.5039 7.80705 24.5082 7.92293 24.4809 8.03333C24.4535 8.14373 24.3955 8.24415 24.3135 8.32304L22.603 9.96754L23.0065 12.2895C23.0246 12.4021 23.011 12.5174 22.9671 12.6226C22.9233 12.7278 22.8509 12.8187 22.7583 12.8851C22.6656 12.9515 22.5563 12.9907 22.4426 12.9984C22.3289 13.006 22.2153 12.9819 22.1145 12.9285L20 11.8325L17.8855 12.929C17.7848 12.9824 17.6712 13.0065 17.5575 12.9989C17.4438 12.9912 17.3345 12.952 17.2418 12.8856C17.1492 12.8192 17.0768 12.7283 17.033 12.6231C16.9891 12.5179 16.9755 12.4026 16.9935 12.29L17.397 9.96804L15.6865 8.32354C15.6046 8.24465 15.5466 8.14423 15.5192 8.03383C15.4918 7.92343 15.4962 7.80755 15.5318 7.69951C15.5673 7.59147 15.6327 7.49568 15.7203 7.42315C15.8079 7.35062 15.9143 7.30431 16.027 7.28954L18.3915 6.95004L19.45 4.83804C19.5022 4.73712 19.581 4.65248 19.6781 4.59339C19.7751 4.53431 19.8865 4.50305 20 4.50305C20.1136 4.50305 20.225 4.53431 20.322 4.59339C20.419 4.65248 20.4979 4.73712 20.55 4.83804Z" fill="#EDC33E"/>
<path d="M12.5254 8.679L13.0544 9.8L14.2364 9.979C14.2947 9.98973 14.349 10.0162 14.3934 10.0556C14.4377 10.095 14.4705 10.1458 14.488 10.2024C14.5056 10.2591 14.5073 10.3195 14.493 10.377C14.4787 10.4346 14.4489 10.4872 14.4069 10.529L13.5499 11.395L13.7499 12.624C13.7616 12.6813 13.7569 12.7408 13.7363 12.7956C13.7157 12.8504 13.68 12.8982 13.6334 12.9336C13.5868 12.969 13.5311 12.9905 13.4728 12.9956C13.4145 13.0007 13.3559 12.9892 13.3039 12.9625L12.2499 12.382L11.1924 12.9625C11.1403 12.9892 11.0817 13.0007 11.0234 12.9956C10.9651 12.9905 10.9094 12.969 10.8628 12.9336C10.8162 12.8982 10.7805 12.8504 10.7599 12.7956C10.7393 12.7408 10.7346 12.6813 10.7464 12.624L10.9464 11.395L10.0909 10.524C10.0488 10.4822 10.019 10.4296 10.0047 10.372C9.9904 10.3145 9.99213 10.2541 10.0097 10.1974C10.0273 10.1408 10.06 10.09 10.1044 10.0506C10.1487 10.0112 10.203 9.98473 10.2614 9.974L11.4434 9.795L11.9724 8.6765C11.9955 8.62219 12.0342 8.57592 12.0835 8.54348C12.1328 8.51104 12.1906 8.49388 12.2497 8.49414C12.3087 8.49441 12.3664 8.51209 12.4154 8.54498C12.4645 8.57786 12.5027 8.62448 12.5254 8.679Z" fill="#EDC33E"/>
<path d="M28.0254 8.679L28.5544 9.8L29.7364 9.979C29.7947 9.98973 29.849 10.0162 29.8934 10.0556C29.9377 10.095 29.9705 10.1458 29.988 10.2024C30.0056 10.2591 30.0073 10.3195 29.993 10.377C29.9787 10.4346 29.9489 10.4872 29.9069 10.529L29.0499 11.395L29.2499 12.624C29.2616 12.6813 29.2569 12.7408 29.2363 12.7956C29.2157 12.8504 29.18 12.8982 29.1334 12.9336C29.0868 12.969 29.0311 12.9905 28.9728 12.9956C28.9145 13.0007 28.8559 12.9892 28.8039 12.9625L27.7499 12.382L26.6924 12.9625C26.6403 12.9892 26.5817 13.0007 26.5234 12.9956C26.4651 12.9905 26.4094 12.969 26.3628 12.9336C26.3162 12.8982 26.2805 12.8504 26.2599 12.7956C26.2393 12.7408 26.2346 12.6813 26.2464 12.624L26.4464 11.395L25.5909 10.524C25.5488 10.4822 25.519 10.4296 25.5047 10.372C25.4904 10.3145 25.4921 10.2541 25.5097 10.1974C25.5273 10.1408 25.56 10.09 25.6044 10.0506C25.6487 10.0112 25.703 9.98473 25.7614 9.974L26.9434 9.795L27.4724 8.6765C27.4955 8.62219 27.5342 8.57592 27.5835 8.54348C27.6328 8.51104 27.6906 8.49388 27.7497 8.49414C27.8087 8.49441 27.8664 8.51209 27.9154 8.54498C27.9645 8.57786 28.0027 8.62448 28.0254 8.679Z" fill="#EDC33E"/>
<path d="M18.3 30H9C8.60218 30 8.22064 29.842 7.93934 29.5607C7.65804 29.2794 7.5 28.8978 7.5 28.5V16.5C7.5 16.1022 7.65804 15.7206 7.93934 15.4393C8.22064 15.158 8.60218 15 9 15H31C31.3978 15 31.7794 15.158 32.0607 15.4393C32.342 15.7206 32.5 16.1022 32.5 16.5V28.5C32.5 28.8978 32.342 29.2794 32.0607 29.5607C31.7794 29.842 31.3978 30 31 30H24.5V32.624C24.4995 32.7837 24.4554 32.9402 24.3725 33.0767C24.2896 33.2132 24.171 33.3245 24.0296 33.3985C23.8881 33.4726 23.7291 33.5067 23.5697 33.4971C23.4103 33.4875 23.2565 33.4345 23.125 33.344L18.3 30Z" fill="#F94851"/>
<path d="M29.5 18.5H10.5C10.3674 18.5 10.2402 18.4473 10.1464 18.3536C10.0527 18.2598 10 18.1326 10 18C10 17.8674 10.0527 17.7402 10.1464 17.6464C10.2402 17.5527 10.3674 17.5 10.5 17.5H29.5C29.6326 17.5 29.7598 17.5527 29.8536 17.6464C29.9473 17.7402 30 17.8674 30 18C30 18.1326 29.9473 18.2598 29.8536 18.3536C29.7598 18.4473 29.6326 18.5 29.5 18.5Z" fill="#C12F40"/>
<path d="M29.5 21.5H10.5C10.3674 21.5 10.2402 21.4473 10.1464 21.3536C10.0527 21.2598 10 21.1326 10 21C10 20.8674 10.0527 20.7402 10.1464 20.6464C10.2402 20.5527 10.3674 20.5 10.5 20.5H29.5C29.6326 20.5 29.7598 20.5527 29.8536 20.6464C29.9473 20.7402 30 20.8674 30 21C30 21.1326 29.9473 21.2598 29.8536 21.3536C29.7598 21.4473 29.6326 21.5 29.5 21.5Z" fill="#C12F40"/>
<path d="M29.5 24.5H10.5C10.3674 24.5 10.2402 24.4473 10.1464 24.3536C10.0527 24.2598 10 24.1326 10 24C10 23.8674 10.0527 23.7402 10.1464 23.6464C10.2402 23.5527 10.3674 23.5 10.5 23.5H29.5C29.6326 23.5 29.7598 23.5527 29.8536 23.6464C29.9473 23.7402 30 23.8674 30 24C30 24.1326 29.9473 24.2598 29.8536 24.3536C29.7598 24.4473 29.6326 24.5 29.5 24.5Z" fill="#C12F40"/>
<path d="M23 27.5H10.5C10.3674 27.5 10.2402 27.4473 10.1464 27.3536C10.0527 27.2598 10 27.1326 10 27C10 26.8674 10.0527 26.7402 10.1464 26.6464C10.2402 26.5527 10.3674 26.5 10.5 26.5H23C23.1326 26.5 23.2598 26.5527 23.3536 26.6464C23.4473 26.7402 23.5 26.8674 23.5 27C23.5 27.1326 23.4473 27.2598 23.3536 27.3536C23.2598 27.4473 23.1326 27.5 23 27.5Z" fill="#C12F40"/>
</svg>
