<svg width="46" height="46" viewBox="0 0 46 46" fill="none" xmlns="http://www.w3.org/2000/svg">
<mask id="mask0_467_54304" style="mask-type:alpha" maskUnits="userSpaceOnUse" x="0" y="0" width="46" height="46">
<rect width="46" height="46" fill="#D9D9D9"/>
</mask>
<g mask="url(#mask0_467_54304)">
<path d="M17.0367 36.4154C16.5682 36.4154 16.1671 36.2485 15.8335 35.9149C15.4998 35.5813 15.333 35.1802 15.333 34.7117V22.7857C15.333 22.3172 15.4998 21.9161 15.8335 21.5825C16.1671 21.2489 16.5682 21.082 17.0367 21.082H28.9626C29.4312 21.082 29.8322 21.2489 30.1659 21.5825C30.4995 21.9161 30.6663 22.3172 30.6663 22.7857V34.7117C30.6663 35.1802 30.4995 35.5813 30.1659 35.9149C29.8322 36.2485 29.4312 36.4154 28.9626 36.4154H17.0367ZM22.1478 31.3043H17.0367V34.7117H22.1478V31.3043ZM23.8515 31.3043V34.7117H28.9626V31.3043H23.8515ZM22.1478 29.6005V26.1931H17.0367V29.6005H22.1478ZM23.8515 29.6005H28.9626V26.1931H23.8515V29.6005ZM17.0367 24.4894H28.9626V22.7857H17.0367V24.4894Z" fill="#1C1B1F"/>
<path d="M11.5003 42.1654C10.4462 42.1654 9.54373 41.79 8.79303 41.0393C8.04234 40.2886 7.66699 39.3862 7.66699 38.332V7.66536C7.66699 6.6112 8.04234 5.70877 8.79303 4.95807C9.54373 4.20738 10.4462 3.83203 11.5003 3.83203H26.8337L38.3337 15.332V38.332C38.3337 39.3862 37.9583 40.2886 37.2076 41.0393C36.4569 41.79 35.5545 42.1654 34.5003 42.1654H11.5003ZM24.917 17.2487V7.66536H11.5003V38.332H34.5003V17.2487H24.917Z" fill="#1C1B1F"/>
</g>
</svg>
