<svg width="24" height="24" viewBox="0 0 24 24" fill="none" xmlns="http://www.w3.org/2000/svg">
<path d="M18 5.25V22.125C18 22.3328 17.8335 22.5 17.625 22.5H3.375C3.16875 22.5 3 22.3313 3 22.125V1.875C3 1.66875 3.16875 1.5 3.375 1.5H14.25L18 5.25Z" fill="#EDEFF1"/>
<path d="M18.0009 11.16V14.34L14.1684 18.1725L12.4959 18.7313C12.2034 18.8288 11.9222 18.5475 12.0197 18.255L12.3122 17.3775L12.5784 16.5825L18.0009 11.16ZM18.0009 6H14.2509C14.052 6 13.8613 5.92098 13.7206 5.78033C13.58 5.63968 13.5009 5.44891 13.5009 5.25V1.5H14.2521L18.0009 5.2425V6Z" fill="#E2B019"/>
<path d="M18 5.25H14.625C14.5255 5.25 14.4302 5.21049 14.3598 5.14016C14.2895 5.06984 14.25 4.97446 14.25 4.875V1.5L18 5.25Z" fill="#FFC000"/>
<path d="M16.125 11.25H4.875C4.77554 11.25 4.68016 11.2105 4.60984 11.1402C4.53951 11.0698 4.5 10.9745 4.5 10.875V8.625C4.5 8.52554 4.53951 8.43016 4.60984 8.35983C4.68016 8.28951 4.77554 8.25 4.875 8.25H16.125C16.2245 8.25 16.3198 8.28951 16.3902 8.35983C16.4605 8.43016 16.5 8.52554 16.5 8.625V10.875C16.5 10.9745 16.4605 11.0698 16.3902 11.1402C16.3198 11.2105 16.2245 11.25 16.125 11.25Z" fill="#F03800"/>
<path d="M10.7944 6.75H4.875C4.77554 6.75 4.68016 6.78951 4.60984 6.85983C4.53951 6.93016 4.5 7.02554 4.5 7.125C4.5 7.22446 4.53951 7.31984 4.60984 7.39017C4.68016 7.46049 4.77554 7.5 4.875 7.5H10.7944C10.8938 7.5 10.9892 7.46049 11.0595 7.39017C11.1299 7.31984 11.1694 7.22446 11.1694 7.125C11.1694 7.02554 11.1299 6.93016 11.0595 6.85983C10.9892 6.78951 10.8938 6.75 10.7944 6.75ZM10.7944 4.5H4.875C4.77554 4.5 4.68016 4.53951 4.60984 4.60984C4.53951 4.68016 4.5 4.77554 4.5 4.875C4.5 4.97446 4.53951 5.06984 4.60984 5.14016C4.68016 5.21049 4.77554 5.25 4.875 5.25H10.7944C10.8938 5.25 10.9892 5.21049 11.0595 5.14016C11.1299 5.06984 11.1694 4.97446 11.1694 4.875C11.1694 4.77554 11.1299 4.68016 11.0595 4.60984C10.9892 4.53951 10.8938 4.5 10.7944 4.5Z" fill="#666666"/>
<path d="M14.91 13.5L12.4988 15.9113L12.3038 16.5H4.875C4.66875 16.5 4.5 16.3313 4.5 16.125V13.875C4.5 13.6687 4.66875 13.5 4.875 13.5H14.91Z" fill="#FFC000"/>
<path d="M19.7205 11.8725L14.088 17.5012L12.498 15.9112L18.1268 10.2787L19.7205 11.8725Z" fill="#0A5078"/>
<path d="M14.0881 17.5013L12.4118 18.06C12.346 18.0821 12.2753 18.0854 12.2077 18.0695C12.1401 18.0537 12.0783 18.0192 12.0292 17.9701C11.9801 17.921 11.9457 17.8592 11.9298 17.7916C11.9139 17.724 11.9172 17.6533 11.9393 17.5875L12.3031 16.5L12.4981 15.9113L14.0881 17.5013Z" fill="#F2C8A0"/>
<path d="M13.2929 17.7675L12.4136 18.0607C12.3475 18.0828 12.2766 18.086 12.2088 18.07C12.141 18.054 12.079 18.0194 12.0298 17.9701C11.9805 17.9209 11.9459 17.8589 11.9299 17.7911C11.9139 17.7233 11.9171 17.6524 11.9392 17.5863L12.2324 16.707L13.2929 17.7675Z" fill="#00143C"/>
<path d="M20.7797 9.75002L20.2495 9.21977C20.1088 9.07917 19.9181 9.00018 19.7192 9.00018C19.5203 9.00018 19.3296 9.07917 19.189 9.21977L18.6583 9.75002L20.2495 11.3411L20.7797 10.8109C20.8494 10.7413 20.9047 10.6586 20.9424 10.5675C20.9801 10.4765 20.9995 10.379 20.9995 10.2805C20.9995 10.1819 20.9801 10.0844 20.9424 9.99338C20.9047 9.90236 20.8494 9.81967 20.7797 9.75002ZM18.6576 10.8079L19.1878 11.3381L13.5576 16.9688L13.0273 16.4385L18.6576 10.8079Z" fill="#80D6FB"/>
<path d="M18.6592 9.74701L20.2499 11.3378L19.7197 11.868L18.1289 10.2773L18.6592 9.74701Z" fill="#F2C8A0"/>
<path d="M10.7944 12H4.875C4.77554 12 4.68016 12.0395 4.60984 12.1098C4.53951 12.1802 4.5 12.2755 4.5 12.375C4.5 12.4745 4.53951 12.5698 4.60984 12.6402C4.68016 12.7105 4.77554 12.75 4.875 12.75H10.7944C10.8938 12.75 10.9892 12.7105 11.0595 12.6402C11.1299 12.5698 11.1694 12.4745 11.1694 12.375C11.1694 12.2755 11.1299 12.1802 11.0595 12.1098C10.9892 12.0395 10.8938 12 10.7944 12ZM10.7944 18H4.875C4.77554 18 4.68016 18.0395 4.60984 18.1098C4.53951 18.1802 4.5 18.2755 4.5 18.375C4.5 18.4745 4.53951 18.5698 4.60984 18.6402C4.68016 18.7105 4.77554 18.75 4.875 18.75H10.7944C10.8938 18.75 10.9892 18.7105 11.0595 18.6402C11.1299 18.5698 11.1694 18.4745 11.1694 18.375C11.1694 18.2755 11.1299 18.1802 11.0595 18.1098C10.9892 18.0395 10.8938 18 10.7944 18Z" fill="#666666"/>
</svg>
