<svg width="18" height="18" viewBox="0 0 18 18" fill="none" xmlns="http://www.w3.org/2000/svg">
<path d="M16.5078 15.5703C16.5078 16.0881 16.0881 16.5078 15.5703 16.5078H2.44531C1.92755 16.5078 1.50781 16.0881 1.50781 15.5703C1.50781 15.0525 1.92755 14.6328 2.44531 14.6328H15.5703C16.0881 14.6328 16.5078 15.0525 16.5078 15.5703ZM8.34491 12.6004C8.52799 12.7835 8.76787 12.875 9.00781 12.875C9.24769 12.875 9.4877 12.7835 9.67071 12.6004L12.9923 9.27884C13.3585 8.91271 13.3585 8.31913 12.9923 7.95301C12.6262 7.58688 12.0326 7.58688 11.6665 7.95301L9.94531 9.6742V2.44531C9.94531 1.92755 9.52558 1.50781 9.00781 1.50781C8.49005 1.50781 8.07031 1.92755 8.07031 2.44531V9.6742L6.34912 7.95301C5.983 7.58688 5.38941 7.58688 5.02329 7.95301C4.65717 8.31913 4.65717 8.91271 5.02329 9.27884L8.34491 12.6004Z" fill="#A066D8"/>
</svg>
