<svg width="20" height="20" viewBox="0 0 20 20" fill="none" xmlns="http://www.w3.org/2000/svg">
<mask id="mask0_361_10242" style="mask-type:alpha" maskUnits="userSpaceOnUse" x="0" y="0" width="20" height="20">
<rect width="20" height="20" fill="#D9D9D9"/>
</mask>
<g mask="url(#mask0_361_10242)">
<path d="M9.9974 18.3307C8.84462 18.3307 7.76128 18.112 6.7474 17.6745C5.73351 17.237 4.85156 16.6432 4.10156 15.8932C3.35156 15.1432 2.75781 14.2613 2.32031 13.2474C1.88281 12.2335 1.66406 11.1502 1.66406 9.9974C1.66406 8.84462 1.88281 7.76128 2.32031 6.7474C2.75781 5.73351 3.35156 4.85156 4.10156 4.10156C4.85156 3.35156 5.73351 2.75781 6.7474 2.32031C7.76128 1.88281 8.84462 1.66406 9.9974 1.66406C11.1502 1.66406 12.2335 1.88281 13.2474 2.32031C14.2613 2.75781 15.1432 3.35156 15.8932 4.10156C16.6432 4.85156 17.237 5.73351 17.6745 6.7474C18.112 7.76128 18.3307 8.84462 18.3307 9.9974C18.3307 11.1502 18.112 12.2335 17.6745 13.2474C17.237 14.2613 16.6432 15.1432 15.8932 15.8932C15.1432 16.6432 14.2613 17.237 13.2474 17.6745C12.2335 18.112 11.1502 18.3307 9.9974 18.3307ZM9.9974 16.6641C10.7474 16.6641 11.4696 16.5425 12.1641 16.2995C12.8585 16.0564 13.4974 15.7057 14.0807 15.2474L4.7474 5.91406C4.28906 6.4974 3.93837 7.13628 3.69531 7.83073C3.45226 8.52517 3.33073 9.2474 3.33073 9.9974C3.33073 11.8585 3.97656 13.4349 5.26823 14.7266C6.5599 16.0182 8.13628 16.6641 9.9974 16.6641ZM15.2474 14.0807C15.7057 13.4974 16.0564 12.8585 16.2995 12.1641C16.5425 11.4696 16.6641 10.7474 16.6641 9.9974C16.6641 8.13628 16.0182 6.5599 14.7266 5.26823C13.4349 3.97656 11.8585 3.33073 9.9974 3.33073C9.2474 3.33073 8.52517 3.45226 7.83073 3.69531C7.13628 3.93837 6.4974 4.28906 5.91406 4.7474L15.2474 14.0807Z" fill="#9933FF"/>
</g>
</svg>
