<svg width="18" height="16" viewBox="0 0 18 16" fill="none" xmlns="http://www.w3.org/2000/svg">
<path d="M10.9286 4.35714C11.9937 4.35714 12.8571 3.49369 12.8571 2.42857C12.8571 1.36345 11.9937 0.5 10.9286 0.5C9.86345 0.5 9 1.36345 9 2.42857C9 3.49369 9.86345 4.35714 10.9286 4.35714Z" fill="#5392F9"/>
<path d="M7.52593 3.90254C7.4031 3.7864 7.24047 3.72168 7.07143 3.72168C6.90238 3.72168 6.73975 3.7864 6.61693 3.90254L0 10.5195V12.7142C0 13.3962 0.270918 14.0502 0.753154 14.5325C1.23539 15.0147 1.88944 15.2856 2.57143 15.2856H15.4286C15.8756 15.2843 16.3144 15.1661 16.7016 14.9427C17.0888 14.7193 17.4107 14.3985 17.6355 14.0121L7.52593 3.90254Z" fill="#5392F9"/>
</svg>
