<svg width="20" height="20" viewBox="0 0 20 20" fill="none" xmlns="http://www.w3.org/2000/svg">
<path d="M7.44882 7.03388C8.19869 7.03388 8.80658 6.42599 8.80658 5.67612C8.80658 4.92625 8.19869 4.31836 7.44882 4.31836C6.69895 4.31836 6.09106 4.92625 6.09106 5.67612C6.09106 6.42599 6.69895 7.03388 7.44882 7.03388Z" fill="#A066DB"/>
<path d="M18.5938 10.6735C17.9526 10.07 17.1417 9.67403 16.2554 9.56088V2.65894C16.2554 1.92349 15.9537 1.26347 15.4822 0.773168C14.9919 0.282866 14.3319 0 13.5964 0H2.65894C1.92349 0 1.26347 0.301724 0.773168 0.773168C0.282866 1.26347 0 1.92349 0 2.65894V11.3524V12.1633V13.917C0 14.6525 0.301724 15.3125 0.773168 15.8028C1.26347 16.2931 1.92349 16.576 2.65894 16.576H13.2381C13.9359 17.1417 14.8033 17.5 15.7651 17.5C16.8777 17.5 17.8772 17.0474 18.5938 16.3308C19.3103 15.6142 19.7629 14.6148 19.7629 13.5022C19.7629 12.3895 19.3103 11.3901 18.5938 10.6735ZM0.999461 2.65894C0.999461 2.20636 1.18804 1.79149 1.48976 1.50862C1.79149 1.2069 2.20636 1.01832 2.65894 1.01832H13.5964C14.049 1.01832 14.4639 1.2069 14.7656 1.50862C15.0674 1.81034 15.2559 2.22522 15.2559 2.6778V8.56142L12.465 5.77047C12.2764 5.5819 11.9558 5.56304 11.7484 5.77047L7.5431 9.99461L4.69558 7.12823C4.507 6.93965 4.18642 6.9208 3.97899 7.12823L0.999461 10.1455V2.65894ZM2.64009 15.5954V15.5765C2.1875 15.5765 1.77263 15.3879 1.47091 15.0862C1.18804 14.7845 0.999461 14.3696 0.999461 13.917V12.1633V11.5598L4.33728 8.20312L7.18481 11.0506C7.37338 11.2392 7.69397 11.2392 7.9014 11.0506L12.1067 6.82651L14.8599 9.5986C14.8033 9.61746 14.7468 9.63631 14.6902 9.65517C14.6148 9.67403 14.5393 9.69289 14.445 9.7306C14.3696 9.74946 14.2942 9.78718 14.2188 9.80603C14.1622 9.82489 14.1245 9.84375 14.0679 9.88147C13.9925 9.91918 13.9359 9.93804 13.8793 9.97575C13.785 10.0323 13.6907 10.0889 13.5964 10.1455C13.5399 10.1832 13.5022 10.202 13.4456 10.2398C13.4079 10.2586 13.389 10.2775 13.3513 10.2963C13.1816 10.4095 13.0307 10.5415 12.8987 10.6923C12.1821 11.4089 11.7295 12.4084 11.7295 13.521C11.7295 13.8039 11.7672 14.0679 11.8238 14.3508C11.8427 14.4262 11.8615 14.4828 11.8804 14.5582C11.937 14.7468 11.9747 14.9353 12.069 15.1239V15.1428C12.1444 15.2936 12.2198 15.4634 12.3141 15.5954H2.64009ZM17.8583 15.6142C17.3114 16.1611 16.576 16.4817 15.7462 16.4817C14.9542 16.4817 14.2188 16.1611 13.6907 15.6519C13.6153 15.5765 13.5399 15.4822 13.4644 15.4068C13.4079 15.3502 13.3513 15.2748 13.2947 15.1994C13.2193 15.1051 13.1627 14.9919 13.1061 14.8788C13.0684 14.8033 13.0307 14.7468 12.993 14.6713C12.9553 14.577 12.9176 14.4639 12.8987 14.3508C12.8798 14.2753 12.8421 14.181 12.8233 14.1056C12.7856 13.917 12.7667 13.7096 12.7667 13.5022C12.7667 12.6724 13.1061 11.937 13.6342 11.3901C14.1622 10.8432 14.9165 10.5226 15.7462 10.5226C16.576 10.5226 17.3114 10.8621 17.8583 11.3901C18.4052 11.937 18.7258 12.6724 18.7258 13.5022C18.7258 14.3319 18.3863 15.0673 17.8583 15.6142Z" fill="#A066DB"/>
<path d="M16.5571 13.6343L16.2554 13.9361V11.8617C16.2554 11.5788 16.0291 11.3525 15.7462 11.3525C15.4634 11.3525 15.2371 11.5788 15.2371 11.8617V13.9361L14.9354 13.6343C14.7468 13.4458 14.4262 13.4458 14.2188 13.6343C14.0302 13.8229 14.0302 14.1435 14.2188 14.3509L15.3879 15.5201C15.4257 15.5578 15.4822 15.5955 15.5577 15.6333C15.6142 15.6521 15.6708 15.671 15.7274 15.671C15.7462 15.671 15.7462 15.671 15.7462 15.671C15.7651 15.671 15.7651 15.671 15.7651 15.671C15.8217 15.671 15.8782 15.6521 15.9348 15.6333C15.9914 15.6144 16.048 15.5767 16.1045 15.5201L17.2737 14.3509C17.4623 14.1623 17.4623 13.8418 17.2737 13.6343C17.0663 13.4269 16.7457 13.4269 16.5571 13.6343Z" fill="#A066DB"/>
</svg>
