<svg width="23" height="17" viewBox="0 0 23 17" fill="none" xmlns="http://www.w3.org/2000/svg">
<path d="M8.58987 8.41022L0 17V0L8.58987 8.41022Z" fill="#F6C459"/>
<path d="M23 0V17L14.4102 8.41022L23 0Z" fill="#F6C459"/>
<path d="M23 0L14.4101 8.41022L14.2081 8.60772C13.4419 9.35748 12.4861 9.76652 11.5004 9.76652C10.5148 9.76652 9.55898 9.35748 8.79269 8.60772L8.59071 8.41022L0 0H23Z" fill="#F7D476"/>
<path d="M23 16.9999H0L8.58987 8.41016L8.79185 8.60766C9.55814 9.35742 10.5139 9.76646 11.4996 9.76646C12.4852 9.76646 13.441 9.35742 14.2073 8.60766L14.4093 8.41016L23 16.9999Z" fill="#F7D476"/>
<path opacity="0.1" d="M22.0521 0.928711L14.4101 9.33918L14.2081 9.53643C13.4418 10.2862 12.486 10.6952 11.5004 10.6952C10.5147 10.6952 9.55892 10.2862 8.79263 9.53643L8.59065 9.33918L0.947754 0.928711L8.58982 8.41033L8.7918 8.60783C9.55809 9.35759 10.5139 9.76664 11.4995 9.76664C12.4852 9.76664 13.441 9.35759 14.2073 8.60783L14.4092 8.41033L22.0521 0.928711Z" fill="black"/>
</svg>
