<svg width="32" height="22" viewBox="0 0 32 22" fill="none" xmlns="http://www.w3.org/2000/svg">
<path d="M9.60601 1.21145L0.257809 17.4018C0.0889474 17.6942 3.12527e-05 18.0259 8.23714e-09 18.3635C-3.12362e-05 18.7012 0.0888235 19.0329 0.257631 19.3253C0.426438 19.6177 0.669249 19.8605 0.961654 20.0293C1.25406 20.1981 1.58575 20.287 1.92339 20.2869H20.6183C20.9559 20.287 21.2876 20.1981 21.58 20.0293C21.8724 19.8605 22.1152 19.6177 22.284 19.3253C22.4528 19.0329 22.5417 18.7012 22.5417 18.3635C22.5416 18.0259 22.4527 17.6942 22.2839 17.4018L12.9367 1.21145C12.7679 0.919132 12.5251 0.676389 12.2328 0.507619C11.9405 0.33885 11.6089 0.25 11.2713 0.25C10.9338 0.25 10.6022 0.33885 10.3099 0.507619C10.0175 0.676389 9.77479 0.919132 9.60601 1.21145Z" fill="#EE404C"/>
<path d="M11.3933 6.20483H11.1494C10.5491 6.20483 10.0624 6.69152 10.0624 7.29189V12.4878C10.0624 13.0882 10.5491 13.5749 11.1494 13.5749H11.3933C11.9936 13.5749 12.4803 13.0882 12.4803 12.4878V7.29189C12.4803 6.69152 11.9936 6.20483 11.3933 6.20483Z" fill="#FFF7ED"/>
<path d="M11.2714 17.6953C11.9391 17.6953 12.4803 17.154 12.4803 16.4863C12.4803 15.8186 11.9391 15.2773 11.2714 15.2773C10.6037 15.2773 10.0624 15.8186 10.0624 16.4863C10.0624 17.154 10.6037 17.6953 11.2714 17.6953Z" fill="#FFF7ED"/>
<path d="M31.1308 12.3787H29.8076C29.7385 12.1911 29.6694 12.0035 29.5805 11.8257L30.5087 10.8975C30.8543 10.5518 30.8543 9.99885 30.5087 9.65323L29.1065 8.25099C28.7609 7.90537 28.2079 7.90537 27.8623 8.25099L26.934 9.17923C26.7563 9.09036 26.5687 9.02123 26.3811 8.95211V7.62887C26.3811 7.145 25.9861 6.75 25.5022 6.75H23.5075C23.0236 6.75 22.6286 7.145 22.6286 7.62887V8.94223C22.441 9.01136 22.2534 9.08048 22.0756 9.16935L21.1474 8.24111C20.8018 7.89549 20.2488 7.89549 19.9032 8.24111L18.4911 9.65323C18.1455 9.99885 18.1455 10.5518 18.4911 10.8975L19.4193 11.8257C19.3305 12.0035 19.2613 12.1911 19.1922 12.3787H17.8789C17.395 12.3787 17 12.7737 17 13.2576V15.2424C17 15.7263 17.395 16.1213 17.8789 16.1213H19.2021C19.2712 16.3089 19.3403 16.4965 19.4292 16.6743L18.501 17.6025C18.1554 17.9482 18.1554 18.5012 18.501 18.8468L19.9032 20.249C20.2488 20.5946 20.8018 20.5946 21.1474 20.249L22.0756 19.3208C22.2534 19.4096 22.441 19.4788 22.6286 19.5479V20.8711C22.6286 21.355 23.0236 21.75 23.5075 21.75H25.4923C25.9762 21.75 26.3712 21.355 26.3712 20.8711V19.5479C26.5588 19.4788 26.7464 19.4096 26.9242 19.3208L27.8524 20.249C28.198 20.5946 28.751 20.5946 29.0966 20.249L30.4988 18.8468C30.8445 18.5012 30.8445 17.9482 30.4988 17.6025L29.5706 16.6743C29.6595 16.4965 29.7286 16.3089 29.7977 16.1213H31.121C31.6048 16.1213 31.9998 15.7263 31.9998 15.2424V13.2576C32.0097 12.7737 31.6147 12.3787 31.1308 12.3787ZM24.5048 17.4445C22.7471 17.4445 21.3153 16.0127 21.3153 14.2549C21.3153 12.4972 22.7471 11.0653 24.5048 11.0653C26.2626 11.0653 27.6944 12.4972 27.6944 14.2549C27.6944 16.0127 26.2626 17.4445 24.5048 17.4445Z" fill="#07AEF5"/>
</svg>
