
<svg width="17" height="17" viewBox="0 0 17 17" fill="none" xmlns="http://www.w3.org/2000/svg">
<path d="M8.25 16.5C7.10875 16.5 6.03625 16.2798 5.0325 15.8395C4.02875 15.3993 3.15562 14.8018 2.41312 14.0471C1.67062 13.2923 1.08285 12.4048 0.649796 11.3845C0.216599 10.3642 0 9.27403 0 8.11396C0 6.21268 0.558105 4.51966 1.67432 3.03489C2.79038 1.54997 4.25418 0.556884 6.0657 0.0556346C6.36285 -0.046322 6.63445 -0.00814343 6.8805 0.17017C7.12655 0.348484 7.24958 0.58962 7.24958 0.893577C7.24958 1.10338 7.19139 1.2925 7.07503 1.46096C6.95851 1.62956 6.80907 1.74447 6.6267 1.80567C5.20944 2.16333 4.05683 2.92668 3.16887 4.09572C2.28091 5.26476 1.83693 6.60418 1.83693 8.11396C1.83693 9.92578 2.46016 11.4652 3.70664 12.7322C4.95311 13.9993 6.46757 14.6328 8.25 14.6328C9.11393 14.6328 9.94422 14.4664 10.7408 14.1336C11.5375 13.8008 12.2275 13.3277 12.8109 12.7144C12.9668 12.5593 13.153 12.479 13.3696 12.4734C13.5861 12.4676 13.775 12.5366 13.9364 12.6804C14.1692 12.8875 14.2899 13.1309 14.2988 13.4104C14.3077 13.6899 14.1931 13.9401 13.9549 14.1607C13.1788 14.9258 12.3081 15.5069 11.3429 15.9041C10.3776 16.3014 9.34667 16.5 8.25 16.5ZM14.6631 8.11396C14.6631 6.6133 14.2141 5.27698 13.3161 4.10499C12.4182 2.93315 11.2633 2.16671 9.85159 1.80567C9.66343 1.74579 9.51116 1.63059 9.39479 1.46008C9.27843 1.28941 9.22024 1.1008 9.22024 0.894239C9.22024 0.592488 9.34464 0.353266 9.59345 0.176571C9.84239 -0.000271456 10.1154 -0.0405842 10.4126 0.0556346C12.2163 0.543349 13.6818 1.53526 14.809 3.03136C15.9363 4.52745 16.5 6.22166 16.5 8.11396C16.5 8.45808 16.4794 8.79875 16.4381 9.13595C16.397 9.47316 16.328 9.81493 16.231 10.1613C16.1754 10.4577 16.0218 10.6696 15.7701 10.7971C15.5185 10.9243 15.2469 10.9325 14.9553 10.8215C14.7582 10.747 14.6087 10.6131 14.5068 10.4201C14.4049 10.2272 14.3774 10.0233 14.4243 9.80816C14.501 9.49023 14.5599 9.19318 14.6012 8.91703C14.6424 8.64088 14.6631 8.37319 14.6631 8.11396ZM7.59868 8.77601H5.64474C5.4602 8.77601 5.30555 8.71253 5.18078 8.58556C5.05587 8.4586 4.99342 8.30132 4.99342 8.11374C4.99342 7.92601 5.05587 7.76881 5.18078 7.64213C5.30555 7.51531 5.4602 7.4519 5.64474 7.4519H7.59868V5.46574C7.59868 5.27815 7.66114 5.12095 7.78605 4.99413C7.91095 4.86716 8.06568 4.80368 8.25022 4.80368C8.4349 4.80368 8.58955 4.86716 8.71417 4.99413C8.83893 5.12095 8.90131 5.27815 8.90131 5.46574V7.4519H10.8553C11.0398 7.4519 11.1945 7.51539 11.3192 7.64235C11.4441 7.76932 11.5066 7.9266 11.5066 8.11418C11.5066 8.30191 11.4441 8.45911 11.3192 8.58578C11.1945 8.7126 11.0398 8.77601 10.8553 8.77601H8.90131V10.7622C8.90131 10.9498 8.83886 11.107 8.71395 11.2338C8.58905 11.3608 8.43432 11.4242 8.24978 11.4242C8.0651 11.4242 7.91045 11.3608 7.78583 11.2338C7.66106 11.107 7.59868 10.9498 7.59868 10.7622V8.77601Z" fill="#A066D8"/>
</svg>
