<svg width="34" height="34" viewBox="0 0 34 34" fill="none" xmlns="http://www.w3.org/2000/svg">
<circle cx="17" cy="17" r="17" fill="white"/>
<path d="M32.0002 17.0888C32.0002 8.85349 25.3236 2.17749 17.0875 2.17749C8.85145 2.17749 2.1748 8.85349 2.1748 17.0888C2.1748 25.324 8.85145 32 17.0875 32C25.3236 32 32.0002 25.324 32.0002 17.0888Z" fill="url(#paint0_linear_7093_4884)"/>
<path opacity="0.1" d="M28.3111 7.27869C26.137 11.2694 23.0622 15.3857 19.2202 19.2273C15.3782 23.0689 11.2615 26.1375 7.27631 28.3114C7.02645 28.0943 6.78379 27.868 6.54833 27.6326C5.12506 26.2569 3.98993 24.6118 3.20913 22.7929C2.42833 20.9741 2.01748 19.0181 2.00055 17.0389C1.98361 15.0596 2.36092 13.0968 3.11048 11.2649C3.86004 9.43302 4.96684 7.76865 6.36636 6.36888C7.76587 4.96911 9.43009 3.86195 11.262 3.11195C13.0938 2.36195 15.0567 1.98413 17.0361 2.00051C19.0156 2.01689 20.9719 2.42716 22.7911 3.20738C24.6103 3.98759 26.256 5.12215 27.6322 6.5449C27.8676 6.78034 28.0939 7.02494 28.3111 7.27869Z" fill="white"/>
<path d="M20.619 9.24072H13.5551C12.4102 9.24072 11.3122 9.69549 10.5027 10.505C9.69309 11.3145 9.23828 12.4124 9.23828 13.5571V20.6204C9.23828 21.7652 9.69309 22.8631 10.5027 23.6725C11.3122 24.482 12.4102 24.9368 13.5551 24.9368H20.619C21.7639 24.9368 22.8619 24.482 23.6715 23.6725C24.4811 22.8631 24.9359 21.7652 24.9359 20.6204V13.5571C24.9359 12.4124 24.4811 11.3145 23.6715 10.505C22.8619 9.69549 21.7639 9.24072 20.619 9.24072ZM23.5623 20.0004C23.5623 20.9453 23.1869 21.8516 22.5186 22.5198C21.8504 23.188 20.944 23.5634 19.999 23.5634H14.1752C13.2301 23.5634 12.3238 23.188 11.6555 22.5198C10.9872 21.8516 10.6118 20.9453 10.6118 20.0004V14.1771C10.6118 13.2322 10.9872 12.3259 11.6555 11.6577C12.3238 10.9895 13.2301 10.6141 14.1752 10.6141H19.999C20.944 10.6141 21.8504 10.9895 22.5186 11.6577C23.1869 12.3259 23.5623 13.2322 23.5623 14.1771V20.0004Z" fill="white"/>
<path d="M19.9498 14.2557L19.9125 14.2184L19.8811 14.187C19.1392 13.4477 18.1344 13.0328 17.087 13.0333C16.558 13.0369 16.035 13.1447 15.5477 13.3505C15.0605 13.5562 14.6185 13.856 14.2472 14.2326C13.8758 14.6092 13.5823 15.0553 13.3834 15.5454C13.1845 16.0355 13.0841 16.5599 13.088 17.0888C13.0872 18.1621 13.5103 19.1923 14.2653 19.9553C14.6351 20.3296 15.0758 20.6264 15.5616 20.8285C16.0474 21.0307 16.5686 21.134 17.0948 21.1325C17.8841 21.1159 18.6515 20.8701 19.3034 20.4249C19.9553 19.9798 20.4636 19.3546 20.7663 18.6255C21.069 17.8965 21.153 17.0951 21.008 16.3192C20.863 15.5432 20.4953 14.8263 19.9498 14.2557ZM17.087 19.7493C16.5592 19.7567 16.0411 19.607 15.5987 19.3191C15.1563 19.0313 14.8094 18.6185 14.6023 18.133C14.3952 17.6476 14.3372 17.1115 14.4356 16.593C14.534 16.0745 14.7844 15.5969 15.155 15.2211C15.5256 14.8453 15.9996 14.5882 16.5167 14.4825C17.0339 14.3768 17.5707 14.4272 18.0591 14.6275C18.5475 14.8277 18.9652 15.1686 19.2593 15.6069C19.5533 16.0452 19.7104 16.561 19.7104 17.0888C19.713 17.4358 19.6472 17.7798 19.5167 18.1014C19.3862 18.4229 19.1937 18.7156 18.9501 18.9626C18.7064 19.2097 18.4165 19.4064 18.0968 19.5413C17.7771 19.6763 17.434 19.747 17.087 19.7493Z" fill="white"/>
<path d="M22.2732 12.8469C22.2742 12.9728 22.2504 13.0977 22.2031 13.2143C22.1558 13.331 22.086 13.4372 21.9976 13.5269C21.9092 13.6166 21.804 13.6879 21.688 13.7369C21.572 13.7858 21.4474 13.8114 21.3215 13.8122C21.1967 13.8121 21.0731 13.7873 20.9579 13.7391C20.8427 13.691 20.7382 13.6204 20.6505 13.5316C20.5175 13.3968 20.4271 13.2259 20.3904 13.0401C20.3537 12.8543 20.3723 12.6619 20.444 12.4866C20.5157 12.3113 20.6372 12.1609 20.7935 12.0541C20.9499 11.9472 21.1341 11.8886 21.3235 11.8855C21.5451 11.8855 21.7597 11.9632 21.9298 12.1052L21.9494 12.1249C21.9811 12.1506 22.01 12.1795 22.0358 12.2112L22.0574 12.2347C22.1978 12.4078 22.2741 12.624 22.2732 12.8469Z" fill="white"/>
<defs>
<linearGradient id="paint0_linear_7093_4884" x1="6.54266" y1="6.54492" x2="27.6303" y2="27.6346" gradientUnits="userSpaceOnUse">
<stop stop-color="#FAE100"/>
<stop offset="0.15" stop-color="#FCB720"/>
<stop offset="0.3" stop-color="#FF7950"/>
<stop offset="0.5" stop-color="#FF1C74"/>
<stop offset="1" stop-color="#6C1CD1"/>
</linearGradient>
</defs>
</svg>
