<svg id="Layer_1" enable-background="new 0 0 512 512" height="512" viewBox="0 0 512 512" width="512" xmlns="http://www.w3.org/2000/svg"><g clip-rule="evenodd" fill-rule="evenodd"><path d="m409.975 200.389h91.412v127.463h-91.412z" fill="#b4d7e5"/><path d="m393.859 184.148h91.291v127.463h-91.291z" fill="#c8effe"/><path d="m411.699 292.911c-3.447 0-6.277-2.831-6.277-6.274 0-3.447 2.83-6.275 6.277-6.275h55.611c3.445 0 6.271 2.829 6.271 6.275 0 3.444-2.826 6.274-6.271 6.274zm10.826-77.512c-3.449 0-6.15-2.829-6.15-6.276 0-3.444 2.701-6.151 6.15-6.151h44.785c3.445 0 6.271 2.707 6.271 6.151 0 3.447-2.826 6.276-6.271 6.276zm-10.826 25.837c-3.447 0-6.277-2.83-6.277-6.276 0-3.443 2.83-6.271 6.277-6.271h55.611c3.445 0 6.271 2.829 6.271 6.271 0 3.446-2.826 6.276-6.271 6.276zm0 25.837c-3.447 0-6.277-2.83-6.277-6.273 0-3.446 2.83-6.275 6.277-6.275h55.611c3.445 0 6.271 2.829 6.271 6.275 0 3.443-2.826 6.273-6.271 6.273z" fill="#a2c2ce"/><path d="m409.975 378.542h91.412v127.46h-91.412z" fill="#b4d7e5"/><path d="m393.859 362.423h91.291v127.338h-91.291z" fill="#c8effe"/><path d="m411.699 471.06c-3.447 0-6.277-2.829-6.277-6.275 0-3.443 2.83-6.149 6.277-6.149h55.611c3.445 0 6.271 2.706 6.271 6.149 0 3.447-2.826 6.275-6.271 6.275zm10.826-77.51c-3.449 0-6.15-2.707-6.15-6.151 0-3.446 2.701-6.274 6.15-6.274h44.785c3.445 0 6.271 2.829 6.271 6.274 0 3.444-2.826 6.151-6.271 6.151zm-10.826 25.838c-3.447 0-6.277-2.708-6.277-6.152 0-3.569 2.83-6.275 6.277-6.275h55.611c3.445 0 6.271 2.706 6.271 6.275 0 3.443-2.826 6.152-6.271 6.152zm0 25.837c-3.447 0-6.277-2.831-6.277-6.276 0-3.443 2.83-6.151 6.277-6.151h55.611c3.445 0 6.271 2.708 6.271 6.151 0 3.445-2.826 6.276-6.271 6.276z" fill="#a2c2ce"/><path d="m273.041 191.039c-1.969 2.829-5.908 3.445-8.611 1.354-2.83-1.97-3.445-5.908-1.479-8.613l81.693-113.189c1.229-1.724 3.201-2.584 5.168-2.584h29.531c3.441 0 6.271 2.83 6.271 6.272 0 3.446-2.83 6.152-6.271 6.152h-26.455zm-10.09 137.181c-1.967-2.706-1.352-6.644 1.479-8.613 2.703-1.968 6.643-1.352 8.611 1.354l79.848 110.607h26.455c3.441 0 6.271 2.828 6.271 6.275 0 3.443-2.83 6.15-6.271 6.15h-29.531c-1.967 0-3.939-.862-5.168-2.584zm116.393-78.494c3.441 0 6.271 2.829 6.271 6.273 0 3.445-2.83 6.275-6.271 6.275h-76.285c-3.445 0-6.271-2.83-6.271-6.275 0-3.444 2.826-6.273 6.271-6.273z" fill="#a2c2ce"/><path d="m218.414 463.801h-32.111v-42.076c-22.758-4.43-43.801-13.288-62.256-25.838l-29.771 29.775-45.521-45.398 29.771-29.774c-12.547-18.58-21.404-39.618-25.834-62.378h-42.079v-64.224h42.078c4.43-22.759 13.287-43.799 25.834-62.255l-29.771-29.773 45.521-45.521 29.771 29.774c18.455-12.55 39.498-21.409 62.256-25.839v-42.077h32.111c.001 162.896.001 252.833.001 415.604z" fill="#f2b633"/><path d="m302.199 158.313h-167.572c-6.396 0-11.688 6.151-11.688 13.779v21.285c0 7.629 5.291 13.778 11.688 13.778v16.363h167.572v-16.363c6.396 0 11.686-6.149 11.686-13.778v-21.285c0-7.628-5.289-13.779-11.686-13.779z" fill="#b4d7e5"/><path d="m302.199 207.155h-167.572c-6.396 0-11.688 6.152-11.688 13.78v21.286c0 7.628 5.291 13.779 11.688 13.779v16.366h167.572v-16.366c6.396 0 11.686-6.15 11.686-13.779v-21.286c0-7.628-5.289-13.78-11.686-13.78z" fill="#a2c2ce"/><path d="m302.199 255.999h-167.572c-6.396 0-11.688 6.275-11.688 13.778v21.287c0 7.627 5.291 13.78 11.688 13.78v16.365h167.572v-16.365c6.396 0 11.686-6.152 11.686-13.78v-21.287c0-7.503-5.289-13.778-11.686-13.778z" fill="#b4d7e5"/><path d="m300.109 304.844h-163.388c-7.506 0-13.781 6.274-13.781 13.781v21.284c0 7.626 6.275 13.78 13.781 13.78h163.389c7.504 0 13.775-6.154 13.775-13.78v-21.284c0-7.507-6.272-13.781-13.776-13.781z" fill="#a2c2ce"/><path d="m291.742 188.086c-3.445 0-6.275-2.707-6.275-6.152 0-3.566 2.83-6.275 6.275-6.275h4.432c3.439 0 6.27 2.709 6.27 6.275 0 3.446-2.83 6.152-6.27 6.152zm-151.084 1.724c-3.447 0-6.277-2.709-6.277-6.154s2.83-6.274 6.277-6.274h57.209c3.445 0 6.271 2.829 6.271 6.274 0 3.444-2.826 6.154-6.271 6.154zm132.383-1.724c-3.445 0-6.277-2.707-6.277-6.152 0-3.566 2.832-6.275 6.277-6.275h4.426c3.447 0 6.279 2.709 6.279 6.275 0 3.446-2.832 6.152-6.279 6.152z" fill="#a2c2ce"/><path d="m291.742 236.93c-3.445 0-6.275-2.707-6.275-6.153 0-3.566 2.83-6.272 6.275-6.272h4.432c3.439 0 6.27 2.707 6.27 6.272 0 3.447-2.83 6.153-6.27 6.153zm-151.084 1.723c-3.447 0-6.277-2.706-6.277-6.152 0-3.444 2.83-6.275 6.277-6.275h57.209c3.445 0 6.271 2.831 6.271 6.275 0 3.446-2.826 6.152-6.271 6.152zm132.383-1.723c-3.445 0-6.277-2.707-6.277-6.153 0-3.566 2.832-6.272 6.277-6.272h4.426c3.447 0 6.279 2.707 6.279 6.272 0 3.447-2.832 6.153-6.279 6.153z" fill="#b4d7e5"/><path d="m291.742 285.773c-3.445 0-6.275-2.707-6.275-6.15 0-3.446 2.83-6.275 6.275-6.275h4.432c3.439 0 6.27 2.829 6.27 6.275 0 3.443-2.83 6.15-6.27 6.15zm-151.084 1.723c-3.447 0-6.277-2.707-6.277-6.152s2.83-6.273 6.277-6.273h57.209c3.445 0 6.271 2.829 6.271 6.273 0 3.445-2.826 6.152-6.271 6.152zm132.383-1.723c-3.445 0-6.277-2.707-6.277-6.15 0-3.446 2.832-6.275 6.277-6.275h4.426c3.447 0 6.279 2.829 6.279 6.275 0 3.443-2.832 6.15-6.279 6.15z" fill="#a2c2ce"/><path d="m291.742 334.619c-3.445 0-6.275-2.709-6.275-6.154s2.83-6.275 6.275-6.275h4.432c3.439 0 6.27 2.83 6.27 6.275 0 3.444-2.83 6.154-6.27 6.154zm-151.084 1.721c-3.447 0-6.277-2.706-6.277-6.151s2.83-6.276 6.277-6.276h57.209c3.445 0 6.271 2.831 6.271 6.276s-2.826 6.151-6.271 6.151zm132.383-1.721c-3.445 0-6.277-2.709-6.277-6.154s2.832-6.275 6.277-6.275h4.426c3.447 0 6.279 2.83 6.279 6.275 0 3.444-2.832 6.154-6.279 6.154z" fill="#b4d7e5"/><path d="m409.975 22.238h91.412v127.462h-91.412z" fill="#b4d7e5"/><path d="m393.859 5.999h91.291v127.462h-91.291z" fill="#c8effe"/><path d="m411.699 114.757c-3.447 0-6.277-2.829-6.277-6.274 0-3.443 2.83-6.273 6.277-6.273h55.611c3.445 0 6.271 2.83 6.271 6.273 0 3.445-2.826 6.274-6.271 6.274zm10.826-77.509c-3.449 0-6.15-2.83-6.15-6.273 0-3.446 2.701-6.275 6.15-6.275h44.785c3.445 0 6.271 2.829 6.271 6.275 0 3.443-2.826 6.273-6.271 6.273zm-10.826 25.838c-3.447 0-6.277-2.832-6.277-6.276 0-3.445 2.83-6.273 6.277-6.273h55.611c3.445 0 6.271 2.829 6.271 6.273s-2.826 6.276-6.271 6.276zm0 25.836c-3.447 0-6.277-2.83-6.277-6.274s2.83-6.275 6.277-6.275h55.611c3.445 0 6.271 2.832 6.271 6.275 0 3.445-2.826 6.274-6.271 6.274z" fill="#a2c2ce"/></g></svg>