<svg width="24" height="24" viewBox="0 0 24 24" fill="none" xmlns="http://www.w3.org/2000/svg">
<path d="M6.375 23.625H20.625V0.375H1.875V19.125L6.375 23.625Z" fill="#F2F6FC"/>
<path d="M6.375 23.625V19.125H1.875L6.375 23.625Z" fill="#CDD2E1"/>
<path d="M3.375 1.875H6.375V4.125H3.375V1.875Z" fill="#FFA480"/>
<path d="M3.375 3H6.375V4.125H3.375V3Z" fill="#FF7045"/>
<path d="M3.375 5.625H6.375V7.875H3.375V5.625Z" fill="#FFA480"/>
<path d="M3.375 6.75H6.375V7.875H3.375V6.75Z" fill="#FF7045"/>
<path d="M11.25 16.875C14.3566 16.875 16.875 14.3566 16.875 11.25C16.875 8.1434 14.3566 5.625 11.25 5.625C8.1434 5.625 5.625 8.1434 5.625 11.25C5.625 14.3566 8.1434 16.875 11.25 16.875Z" fill="#80DBFF"/>
<path d="M6.75 11.25C6.75058 9.85574 7.26874 8.51134 8.20407 7.47735C9.1394 6.44337 10.4253 5.79343 11.8125 5.6535C11.6273 5.63513 11.4398 5.625 11.25 5.625C9.75816 5.625 8.32742 6.21763 7.27252 7.27252C6.21763 8.32742 5.625 9.75816 5.625 11.25C5.625 12.7418 6.21763 14.1726 7.27252 15.2275C8.32742 16.2824 9.75816 16.875 11.25 16.875C11.4398 16.875 11.6273 16.8649 11.8125 16.8465C10.4253 16.7066 9.1394 16.0566 8.20407 15.0226C7.26874 13.9887 6.75058 12.6443 6.75 11.25Z" fill="#B5EFFF"/>
<path d="M11.25 5.62501C10.999 5.62687 10.7485 5.64553 10.5 5.68088C11.8487 5.86179 13.0859 6.526 13.9819 7.55017C14.8778 8.57434 15.3717 9.88887 15.3717 11.2496C15.3717 12.6104 14.8778 13.9249 13.9819 14.9491C13.0859 15.9733 11.8487 16.6375 10.5 16.8184C11.2637 16.9223 12.0405 16.8682 12.7824 16.6592C13.5242 16.4503 14.2152 16.0911 14.8124 15.6039C15.4096 15.1167 15.9002 14.512 16.2538 13.8272C16.6075 13.1424 16.8166 12.3922 16.8681 11.6233C16.9196 10.8543 16.8125 10.0829 16.5534 9.35708C16.2942 8.63124 15.8887 7.96643 15.3618 7.40392C14.835 6.84142 14.1981 6.39324 13.4907 6.08722C12.7834 5.7812 12.0207 5.62387 11.25 5.62501Z" fill="#19CFFC"/>
<path d="M18.7456 20.625L20.6203 18.7503L23.6199 21.7499L21.7452 23.6246L18.7456 20.625Z" fill="#9196AA"/>
<path d="M18.9375 18.1875L19.5 17.625L20.625 18.75L18.75 20.625L17.625 19.5L18.1875 18.9375L18.9375 18.1875Z" fill="#707789"/>
<path d="M18.9376 18.1876L18.1876 18.9376L16.1626 16.9126C16.4328 16.6836 16.6836 16.4328 16.9126 16.1626L18.9376 18.1876Z" fill="#AFB4C8"/>
<path d="M16.9124 16.1627C16.6835 16.4329 16.4326 16.6837 16.1624 16.9127C14.6931 18.1877 12.7861 18.8427 10.8434 18.7396C8.90066 18.6365 7.07378 17.7834 5.74759 16.36C4.42141 14.9366 3.69946 13.054 3.73384 11.1089C3.76822 9.16368 4.55624 7.30779 5.93189 5.93214C7.30755 4.55648 9.16344 3.76846 11.1086 3.73408C13.0538 3.69971 14.9364 4.42165 16.3598 5.74784C17.7832 7.07402 18.6363 8.90091 18.7394 10.8436C18.8425 12.7864 18.1875 14.6933 16.9124 16.1627ZM16.8749 11.2502C16.8749 10.1377 16.545 9.05012 15.9269 8.12509C15.3089 7.20007 14.4304 6.4791 13.4025 6.05335C12.3747 5.62761 11.2437 5.51622 10.1525 5.73326C9.06141 5.9503 8.05913 6.48603 7.27246 7.2727C6.48579 8.05937 5.95006 9.06165 5.73302 10.1528C5.51597 11.2439 5.62737 12.3749 6.05311 13.4028C6.47885 14.4306 7.19982 15.3091 8.12485 15.9272C9.04988 16.5453 10.1374 16.8752 11.2499 16.8752C12.7416 16.8747 14.1721 16.2819 15.2269 15.2271C16.2816 14.1723 16.8744 12.7419 16.8749 11.2502Z" fill="#FFC247"/>
<path d="M9.375 10.875L8.25 12L10.125 13.875L14.25 9.75L13.125 8.625L10.125 11.625L9.375 10.875Z" fill="#FF7045"/>
<path d="M10.125 13.125L8.625 11.625L8.25 12L10.125 13.875L14.25 9.75L13.875 9.375L10.125 13.125Z" fill="#FF432E"/>
<path d="M7.5 1.5H8.25V2.25H7.5V1.5Z" fill="#CDD2E1"/>
<path d="M9 1.5H19.125V2.25H9V1.5Z" fill="#CDD2E1"/>
<path d="M7.5 21.75H8.25V22.5H7.5V21.75Z" fill="#CDD2E1"/>
<path d="M9 21.75H15.75V22.5H9V21.75Z" fill="#CDD2E1"/>
<path d="M7.5 20.25H14.25V21H7.5V20.25Z" fill="#CDD2E1"/>
</svg>
