<svg width="24" height="24" viewBox="0 0 24 24" fill="none" xmlns="http://www.w3.org/2000/svg">
<g clip-path="url(#clip0_414_7651)">
<path d="M23.625 9.37376V7.59501C23.625 7.51065 23.564 7.43864 23.4808 7.42476L22.3993 7.24452C22.2962 6.87012 22.1477 6.51459 21.9599 6.18426L22.5973 5.29186C22.6463 5.22321 22.6385 5.12916 22.5789 5.06949L21.3211 3.81173C21.2615 3.75208 21.1674 3.74428 21.0987 3.79332L20.2063 4.43074C19.876 4.2429 19.5205 4.09438 19.1461 3.99128L18.9658 2.90982C18.952 2.82663 18.88 2.76562 18.7956 2.76562H17.0169C16.9325 2.76562 16.8605 2.82663 16.8466 2.90985L16.6664 3.9913C16.292 4.0944 15.9365 4.2429 15.6061 4.43076L14.7137 3.79334C14.6451 3.7443 14.551 3.75208 14.4914 3.81175L13.2336 5.06951C13.174 5.12916 13.1662 5.22321 13.2152 5.29189L13.8526 6.18429C13.6648 6.51462 13.5163 6.87015 13.4132 7.24455L12.3317 7.42478C12.2485 7.43861 12.1875 7.51062 12.1875 7.59499V9.37374C12.1875 9.4581 12.2485 9.53011 12.3317 9.54399L13.4132 9.72423C13.5163 10.0986 13.6648 10.4542 13.8526 10.7845L13.2152 11.6769C13.1662 11.7455 13.174 11.8396 13.2336 11.8993L14.4914 13.157C14.551 13.2167 14.6451 13.2245 14.7138 13.1754L15.6062 12.538C15.9365 12.7258 16.292 12.8744 16.6664 12.9775L16.8467 14.0589C16.8605 14.1421 16.9325 14.2031 17.0169 14.2031H18.7957C18.88 14.2031 18.952 14.1421 18.9659 14.0589L19.1461 12.9775C19.5205 12.8744 19.8756 12.7253 20.2058 12.5376L21.0988 13.1755C21.1675 13.2245 21.2615 13.2167 21.3212 13.157L22.5789 11.8993C22.6386 11.8396 22.6464 11.7456 22.5974 11.6769L21.9595 10.7839C22.1473 10.4537 22.2963 10.0986 22.3994 9.72425L23.4808 9.54401C23.564 9.53014 23.625 9.45813 23.625 9.37376ZM17.9062 10.7281C16.667 10.7281 15.6625 9.72358 15.6625 8.48438C15.6625 7.24517 16.667 6.2406 17.9062 6.2406C19.1455 6.2406 20.15 7.24517 20.15 8.48438C20.15 9.72358 19.1455 10.7281 17.9062 10.7281Z" fill="#ACD5DF"/>
<path d="M17.9486 4.51489C20.1215 4.53768 21.876 6.306 21.876 8.48442C21.876 10.6628 20.1215 12.4312 17.9486 12.4539L20.4952 8.48442L17.9486 4.51489Z" fill="#83A3AB"/>
<path d="M17.9486 4.51488C19.7402 4.54249 21.1856 6.30898 21.1856 8.4844C21.1856 10.6598 19.7402 12.4263 17.9486 12.4539C17.9346 12.4542 17.9203 12.4542 17.9063 12.4542C15.7138 12.4542 13.9365 10.6769 13.9365 8.4844C13.9365 6.29195 15.7138 4.51465 17.9063 4.51465C17.9203 4.51465 17.9346 4.51465 17.9486 4.51488ZM19.8049 8.4844C19.8049 7.43593 18.9548 6.58583 17.9063 6.58583C16.8578 6.58583 16.0077 7.43593 16.0077 8.4844C16.0077 9.53288 16.8578 10.383 17.9063 10.383C18.9548 10.383 19.8049 9.53288 19.8049 8.4844Z" fill="#93B7C0"/>
<path d="M17.9063 6.24048C16.667 6.24048 15.6625 7.24505 15.6625 8.48425C15.6625 9.72346 16.667 10.728 17.9063 10.728C19.1455 10.728 20.15 9.72346 20.15 8.48425C20.15 7.24505 19.1455 6.24048 17.9063 6.24048ZM17.9063 10.0376C17.0483 10.0376 16.3529 9.34216 16.3529 8.48425C16.3529 7.62635 17.0483 6.93087 17.9063 6.93087C18.7642 6.93087 19.4596 7.62635 19.4596 8.48425C19.4596 9.34216 18.7642 10.0376 17.9063 10.0376Z" fill="#ACD5DF"/>
</g>
<path d="M21.0342 15.4951H18.4868L18.4399 15.5525V17.2484C18.4399 17.3024 18.3959 17.3464 18.3419 17.3464H16.5236C16.4695 17.3464 16.4255 17.3024 16.4255 17.2484V15.552L16.3787 15.4951H13.6864L13.6395 15.8921V22.2358H21.179V15.64C21.179 15.56 21.1142 15.4951 21.0342 15.4951Z" fill="#FED2A4"/>
<path d="M13.6864 15.4951H15.3242V22.2358H13.6864V15.4951Z" fill="#FFBD86"/>
<path d="M18.3419 17.3933H16.5236C16.4435 17.3933 16.3787 17.3284 16.3787 17.2484V15.4951H18.4867V17.2484C18.4867 17.3284 18.4219 17.3933 18.3419 17.3933Z" fill="#FE646F"/>
<path d="M17.1836 17.2484V15.4951H16.3787V17.2484C16.3787 17.3284 16.4435 17.3933 16.5236 17.3933H17.3284C17.2484 17.3932 17.1836 17.3284 17.1836 17.2484Z" fill="#FD4755"/>
<path d="M11.855 9.66533H9.30765L9.26078 9.73344V11.4185C9.26078 11.4726 9.21681 11.5166 9.16276 11.5166H7.34443C7.29043 11.5166 7.24647 11.4726 7.24647 11.4185V9.73395L7.19959 9.66528H4.65222C4.5722 9.66528 4.50732 9.73016 4.50732 9.81013V15.542H11.9999V9.81017C11.9999 9.73016 11.935 9.66533 11.855 9.66533Z" fill="#FED2A4"/>
<path d="M6.14921 15.542V9.81013C6.14921 9.73011 6.21409 9.66528 6.29411 9.66528H4.65222C4.5722 9.66528 4.50732 9.73016 4.50732 9.81013V15.542H6.14921Z" fill="#FFBD86"/>
<path d="M9.1628 11.5634H7.34448C7.26446 11.5634 7.19958 11.4986 7.19958 11.4185V9.66528H9.30765V11.4185C9.30765 11.4986 9.24277 11.5634 9.1628 11.5634Z" fill="#FE646F"/>
<path d="M8.00855 11.4185V9.66528H7.19958V11.4185C7.19958 11.4986 7.26446 11.5634 7.34448 11.5634H8.15344C8.07343 11.5634 8.00855 11.4986 8.00855 11.4185Z" fill="#FD4755"/>
<path d="M13.6864 22.2358V15.4951H2.96569C2.88568 15.4951 2.8208 15.56 2.8208 15.64V22.2358H13.6864Z" fill="#F6A96C"/>
<path d="M4.41844 22.2358V15.64C4.41844 15.56 4.48332 15.4951 4.56333 15.4951H2.96564C2.88563 15.4951 2.8208 15.56 2.8208 15.64V22.2358H4.41844Z" fill="#EA9B58"/>
<path d="M9.28346 17.3933H7.22387C7.14385 17.3933 7.07898 17.3284 7.07898 17.2484V15.4951H9.42831V17.2484C9.42835 17.3284 9.36348 17.3933 9.28346 17.3933Z" fill="#FE646F"/>
<path d="M7.89531 17.2486V15.4954H7.07898V17.2486C7.07898 17.3286 7.14385 17.3935 7.22387 17.3935H8.0402C7.96014 17.3935 7.89531 17.3286 7.89531 17.2486Z" fill="#FD4755"/>
<path d="M23.5873 23.9999H0.412591C0.332575 23.9999 0.2677 23.935 0.2677 23.855V22.3339C0.2677 22.2538 0.332575 22.189 0.412591 22.189H23.5874C23.6674 22.189 23.7322 22.2538 23.7322 22.3339V23.855C23.7322 23.935 23.6673 23.9999 23.5873 23.9999Z" fill="#FAC600"/>
<path d="M2.5395 23.855V22.3339C2.5395 22.2538 2.60437 22.189 2.68439 22.189H0.412591C0.332575 22.189 0.2677 22.2538 0.2677 22.3339V23.855C0.2677 23.935 0.332575 23.9999 0.412591 23.9999H2.68439C2.60433 23.9999 2.5395 23.935 2.5395 23.855Z" fill="#E8B800"/>
<defs>
<clipPath id="clip0_414_7651">
<rect width="11.4375" height="11.4375" fill="white" transform="translate(12.1875 2.76562)"/>
</clipPath>
</defs>
</svg>
