<svg width="24" height="24" viewBox="0 0 24 24" fill="none" xmlns="http://www.w3.org/2000/svg">
<path d="M21.3711 13.7847L20.6177 13.4874C20.2337 13.3358 19.9374 13.0206 19.8099 12.628L19.0009 10.1385C18.8733 9.74585 18.9278 9.31676 19.1494 8.96838L19.5841 8.28504C19.9769 7.6676 19.8216 6.85113 19.2296 6.42101L16.7736 4.63666C16.1816 4.20654 15.3571 4.31116 14.8913 4.87549L14.3757 5.5001C14.1129 5.81852 13.7216 6.00288 13.3088 6.00288H10.6911C10.2783 6.00288 9.88699 5.81852 9.62421 5.5001L9.10863 4.87549C8.64278 4.31112 7.8183 4.20654 7.22627 4.63666L4.7703 6.42101C4.17827 6.85113 4.02297 7.6676 4.41579 8.28504L4.8505 8.96838C5.07208 9.31671 5.12655 9.74585 4.99896 10.1385L4.19008 12.628C4.06249 13.0206 3.76624 13.3358 3.38224 13.4874L2.62886 13.7847C1.94819 14.0533 1.59391 14.8051 1.82004 15.5011L2.75814 18.3883C2.98427 19.0842 3.7128 19.4842 4.42136 19.3015L5.20563 19.0992C5.60538 18.9961 6.0303 19.0769 6.36433 19.3196L8.48205 20.8582C8.81603 21.1009 9.02421 21.48 9.04971 21.8921L9.09968 22.7005C9.14477 23.4308 9.7503 24.0001 10.4821 24.0001H13.5178C14.2496 24.0001 14.8552 23.4308 14.9003 22.7004L14.9503 21.8921C14.9757 21.48 15.1839 21.1008 15.5179 20.8582L17.6357 19.3196C17.9696 19.0769 18.3946 18.9961 18.7944 19.0992L19.5786 19.3015C20.2872 19.4842 21.0157 19.0842 21.2418 18.3882L22.18 15.5011C22.406 14.8051 22.0518 14.0533 21.3711 13.7847Z" fill="#4677D4"/>
<path d="M13.5178 23.9999C14.2496 23.9999 14.8552 23.4307 14.9003 22.7003L14.9503 21.8919C14.9757 21.4799 15.1839 21.1007 15.5179 20.858L17.6357 19.3194C17.6894 19.2803 17.7458 19.2459 17.8038 19.2153C8.48322 17.6013 6.1495 7.90666 7.267 4.6084C7.25336 4.61759 7.23968 4.62677 7.22627 4.63652L4.7703 6.42087C4.17827 6.85099 4.02297 7.66746 4.41579 8.2849L4.8505 8.96824C5.07208 9.31657 5.12655 9.74571 4.99896 10.1383L4.19008 12.6279C4.06249 13.0205 3.76624 13.3356 3.38224 13.4872L2.62886 13.7846C1.94819 14.0532 1.59391 14.805 1.82004 15.501L2.75814 18.3881C2.98427 19.0841 3.7128 19.4841 4.42136 19.3014L5.20563 19.0991C5.60538 18.996 6.0303 19.0768 6.36433 19.3195L8.48205 20.8581C8.81604 21.1008 9.02421 21.4799 9.04971 21.892L9.09968 22.7003C9.14477 23.4307 9.7503 23.9999 10.4821 23.9999H13.5178Z" fill="#005DAF"/>
<path d="M12 8.64893C10.2856 8.64893 8.76749 9.48836 7.83355 10.7784C7.65547 14.5079 10.1199 17.9417 14.5783 18.2374C16.1104 17.3475 17.1406 15.6889 17.1406 13.7895C17.1406 10.9504 14.8391 8.64893 12 8.64893Z" fill="#59D5FF"/>
<path d="M14.5783 18.2374C11.0134 16.6257 8.88677 13.6414 7.83353 10.7783C7.22083 11.6246 6.85938 12.6647 6.85938 13.7894C6.85938 16.6285 9.16089 18.93 12 18.93C12.9397 18.93 13.8204 18.6777 14.5783 18.2374Z" fill="#00C4FC"/>
<path d="M10.7446 15.0052L9.50698 13.8112L10.6397 12.77C10.7826 12.6386 10.792 12.4162 10.6606 12.2732C10.5292 12.1303 10.3068 12.1209 10.1638 12.2523L9.25671 13.0862V12.4761C9.25671 12.2819 9.09935 12.1245 8.90515 12.1245C8.711 12.1245 8.55359 12.2819 8.55359 12.4761V15.2582C8.55359 15.4524 8.711 15.6098 8.90515 15.6098C9.09935 15.6098 9.25671 15.4524 9.25671 15.2582V14.5468L10.2564 15.5112C10.3246 15.577 10.4126 15.6098 10.5004 15.6098C10.5925 15.6098 10.6845 15.5738 10.7534 15.5023C10.8883 15.3626 10.8843 15.14 10.7446 15.0052Z" fill="#4677D4"/>
<path d="M15.0948 15.6098C14.9006 15.6098 14.7432 15.4524 14.7432 15.2582V12.4761C14.7432 12.2819 14.9006 12.1245 15.0948 12.1245C15.289 12.1245 15.4464 12.2819 15.4464 12.4761V15.2582C15.4464 15.4524 15.289 15.6098 15.0948 15.6098Z" fill="#4677D4"/>
<path d="M12.7708 12.1245H11.9962C11.802 12.1245 11.6446 12.2819 11.6446 12.4761V15.2582C11.6446 15.4524 11.802 15.6098 11.9962 15.6098C12.1903 15.6098 12.3477 15.4524 12.3477 15.2582V14.3994C12.5025 14.3986 12.6723 14.3979 12.7708 14.3979C13.4061 14.3979 13.9229 13.888 13.9229 13.2612C13.9229 12.6344 13.4061 12.1245 12.7708 12.1245ZM12.7708 13.6947C12.6723 13.6947 12.5028 13.6955 12.3477 13.6962V12.8276H12.7708C13.0141 12.8276 13.2197 13.0262 13.2197 13.2612C13.2197 13.4962 13.0142 13.6947 12.7708 13.6947Z" fill="#4677D4"/>
</svg>
