<svg width="24" height="24" viewBox="0 0 24 24" fill="none" xmlns="http://www.w3.org/2000/svg">
<path d="M10.4497 14.7933L10.4759 14.3685C10.4997 13.9847 10.8179 13.6855 11.2024 13.6855H12.7977C13.1823 13.6855 13.5005 13.9847 13.5242 14.3685L13.5504 14.7933C13.5638 15.0099 13.6732 15.2091 13.8487 15.3366L14.9616 16.1451C15.1371 16.2726 15.3604 16.3151 15.5705 16.261L15.9826 16.1546C16.355 16.0586 16.7378 16.2688 16.8567 16.6345L17.3496 18.1517C17.4685 18.5174 17.2823 18.9125 16.9246 19.0537L16.5287 19.2099C16.3269 19.2895 16.1712 19.4552 16.1041 19.6615L15.6791 20.9697C15.612 21.1761 15.6406 21.4015 15.7571 21.5846L15.9855 21.9437C16.1919 22.2682 16.1104 22.6972 15.7993 22.9232L14.5086 23.8609C14.1975 24.087 13.7643 24.032 13.5195 23.7354L13.2486 23.4072C13.1105 23.2399 12.9048 23.143 12.6879 23.143H11.3123C11.0954 23.143 10.8898 23.2399 10.7517 23.4072L10.4807 23.7354C10.2359 24.032 9.80268 24.087 9.49157 23.8609L8.20096 22.9232C7.88985 22.6972 7.80824 22.2682 8.01468 21.9437L8.2431 21.5846C8.35954 21.4015 8.38818 21.176 8.3211 20.9697L7.89604 19.6615C7.82901 19.4552 7.67333 19.2895 7.47149 19.2099L7.07558 19.0537C6.71788 18.9125 6.53169 18.5174 6.65052 18.1517L7.14351 16.6345C7.26233 16.2688 7.64516 16.0586 8.01754 16.1546L8.42966 16.261C8.63976 16.3151 8.86302 16.2727 9.03857 16.1451L10.1514 15.3366C10.3269 15.2091 10.4363 15.0098 10.4497 14.7933ZM10.3996 19.0512C10.3996 19.9351 11.1162 20.6517 12.0001 20.6517C12.8841 20.6517 13.6006 19.9351 13.6006 19.0512C13.6006 18.1673 12.8841 17.4507 12.0001 17.4507C11.1162 17.4507 10.3996 18.1673 10.3996 19.0512Z" fill="#4677D4"/>
<path d="M16.5287 19.2099L16.9246 19.0537C17.2823 18.9125 17.4685 18.5174 17.3497 18.1517L16.8567 16.6345C16.7379 16.2688 16.3551 16.0586 15.9827 16.1546L15.5706 16.261C15.3605 16.3151 15.1372 16.2727 14.9616 16.1451L13.8488 15.3366C13.6733 15.2091 13.5639 15.0098 13.5505 14.7933L13.5242 14.3685C13.5005 13.9847 13.1823 13.6855 12.7978 13.6855H11.2025C10.8179 13.6855 10.4997 13.9847 10.476 14.3685L10.4497 14.7933C10.4363 15.0098 10.327 15.2091 10.1514 15.3366L9.03857 16.1451C8.86307 16.2726 8.63976 16.3151 8.42966 16.261L8.01754 16.1546C7.64516 16.0586 7.26233 16.2688 7.14351 16.6345L6.65052 18.1517C6.53169 18.5174 6.71788 18.9125 7.07558 19.0537L7.47149 19.2099C7.54096 19.2373 7.60443 19.2755 7.66124 19.3215C7.9694 19.3401 8.2813 19.357 8.59494 19.3719C9.21205 19.4012 9.83554 19.4229 10.4467 19.4369C10.4161 19.3134 10.3996 19.1842 10.3996 19.0512C10.3996 18.1673 11.1162 17.4507 12.0001 17.4507C12.8841 17.4507 13.6006 18.1673 13.6006 19.0512C13.6006 19.1842 13.5841 19.3134 13.5535 19.4369C14.1647 19.4229 14.7882 19.4012 15.4053 19.3719C15.719 19.357 16.0309 19.3401 16.3391 19.3215C16.3958 19.2755 16.4593 19.2373 16.5287 19.2099Z" fill="#005DAF"/>
<path d="M12.8092 0H11.1911C10.6502 0 10.2117 0.438516 10.2117 0.979406V8.45766H13.7886V0.979406C13.7886 0.438516 13.3501 0 12.8092 0Z" fill="#FF6E80"/>
<path d="M13.7886 5.19737C13.176 5.18134 12.5731 5.17285 12.0001 5.17285C11.4271 5.17285 10.8243 5.18134 10.2117 5.19737V8.45752H13.7886V5.19737Z" fill="#F8475E"/>
<path d="M18.7772 2.39062H17.1591C16.6182 2.39062 16.1797 2.82909 16.1797 3.37003V8.45756H19.7566V3.37003C19.7566 2.82909 19.3181 2.39062 18.7772 2.39062Z" fill="#38D39A"/>
<path d="M19.7566 5.70473C19.4265 5.60207 19.0815 5.53077 18.7244 5.49505C17.9449 5.4171 17.0771 5.34998 16.1797 5.29785V8.45774H19.7566V5.70473Z" fill="#00C072"/>
<path d="M6.84118 3.70703H5.22306C4.68217 3.70703 4.24365 4.14555 4.24365 4.68644V8.45781H7.82059V4.68644C7.82059 4.14555 7.38212 3.70703 6.84118 3.70703Z" fill="#FDC072"/>
<path d="M7.82054 5.29785C6.92317 5.34998 6.05537 5.4171 5.27575 5.49505C4.91875 5.53077 4.5737 5.60207 4.24365 5.70473V8.45774H7.82059L7.82054 5.29785Z" fill="#FF9A5C"/>
<path d="M20.8622 13.9932C20.8622 15.3563 19.8307 16.4995 18.4745 16.6352C17.491 16.7336 16.3967 16.811 15.2861 16.8638C14.1755 16.9165 13.0486 16.9448 12.0001 16.9448C10.9516 16.9448 9.82471 16.9165 8.7141 16.8638C7.60349 16.811 6.50914 16.7336 5.52571 16.6352C4.16942 16.4995 3.13794 15.3563 3.13794 13.9932V10.6356C3.13794 9.27258 4.16947 8.12935 5.52571 7.99364C6.50914 7.89525 7.60349 7.81786 8.7141 7.76508C9.82471 7.7123 10.9516 7.68408 12.0001 7.68408C13.0485 7.68408 14.1755 7.7123 15.2861 7.76508C16.3967 7.81786 17.491 7.89525 18.4745 7.99364C19.8307 8.12935 20.8622 9.27258 20.8622 10.6356V13.9932Z" fill="#EEECFF"/>
<path d="M8.411 7.78027C7.40506 7.8323 6.41947 7.90416 5.52571 7.99355C4.16942 8.12921 3.13794 9.27249 3.13794 10.6355V13.9931C3.13794 15.3562 4.16947 16.4994 5.52571 16.6351C6.50914 16.7335 7.60349 16.8109 8.7141 16.8637C9.57458 16.9046 10.4444 16.9305 11.2804 16.9402C8.16824 14.6009 7.54292 10.6234 8.411 7.78027Z" fill="#D3D3FF"/>
<path d="M18.5706 7.03261C17.5947 6.93496 16.4748 6.85467 15.3319 6.80034C14.2022 6.74667 13.0501 6.71826 12.0001 6.71826C10.9889 6.71826 9.88317 6.74484 8.7938 6.79476C7.86389 7.18242 7.66547 8.22951 8.17899 8.75986C8.3715 8.74912 8.56533 8.73904 8.76 8.72981C9.85969 8.67754 10.9801 8.64989 12.0001 8.64989C13.0201 8.64989 14.1405 8.67754 15.2402 8.72981C16.3501 8.78254 17.4353 8.86031 18.3783 8.95467C19.2438 9.04125 19.8965 9.76392 19.8965 10.6357V13.9932C19.8965 14.8649 19.2438 15.5876 18.3784 15.6742C17.4353 15.7686 16.3501 15.8463 15.2402 15.8991C14.1405 15.9513 13.0201 15.979 12.0001 15.979C11.4224 15.979 10.812 15.9698 10.1918 15.9526C10.1362 16.7695 11.167 17.6326 12.9195 17.9035C13.7049 17.8921 14.5238 17.8669 15.3319 17.8285C16.4747 17.7742 17.5947 17.6939 18.5706 17.5962C20.4276 17.4104 21.828 15.8615 21.828 13.9933V10.6357C21.8281 8.76731 20.4277 7.21837 18.5706 7.03261Z" fill="#59D5FF"/>
<path d="M10.3802 13.7902L8.77651 12.243L10.2513 10.8874C10.3942 10.7561 10.4036 10.5336 10.2722 10.3907C10.1409 10.2477 9.91844 10.2384 9.77542 10.3698L8.50464 11.5378V10.585C8.50464 10.3908 8.34723 10.2334 8.15308 10.2334C7.95892 10.2334 7.80151 10.3908 7.80151 10.585V14.0432C7.80151 14.2374 7.95892 14.3948 8.15308 14.3948C8.34723 14.3948 8.50464 14.2374 8.50464 14.0432V12.9577L9.89204 14.2962C9.96029 14.362 10.0482 14.3948 10.1361 14.3948C10.2282 14.3948 10.3202 14.3588 10.3892 14.2873C10.524 14.1476 10.52 13.925 10.3802 13.7902Z" fill="#4677D4"/>
<path d="M15.8469 14.3948C15.6527 14.3948 15.4954 14.2374 15.4954 14.0432V10.585C15.4954 10.3908 15.6527 10.2334 15.8469 10.2334C16.0411 10.2334 16.1985 10.3908 16.1985 10.585V14.0432C16.1985 14.2374 16.0411 14.3948 15.8469 14.3948Z" fill="#4677D4"/>
<path d="M12.958 10.2334H11.9951C11.801 10.2334 11.6436 10.3908 11.6436 10.585V14.0432C11.6436 14.2374 11.801 14.3948 11.9951 14.3948C12.1893 14.3948 12.3467 14.2374 12.3467 14.0432V12.8907C12.559 12.8896 12.8172 12.8884 12.958 12.8884C13.7006 12.8884 14.3046 12.2929 14.3046 11.5609C14.3046 10.8289 13.7006 10.2334 12.958 10.2334ZM12.958 12.1853C12.8172 12.1853 12.5594 12.1865 12.3467 12.1876V10.9366H12.958C13.3068 10.9366 13.6015 11.2225 13.6015 11.5609C13.6015 11.8993 13.3069 12.1853 12.958 12.1853Z" fill="#4677D4"/>
<path d="M12.9195 17.9035C11.8026 17.4005 10.901 16.7289 10.1919 15.9527C9.71712 15.9395 9.23679 15.9218 8.75998 15.8992C7.65007 15.8464 6.56496 15.7687 5.62184 15.6743C4.75638 15.5877 4.1037 14.8651 4.1037 13.9933V10.6358C4.1037 9.76403 4.75638 9.04136 5.62184 8.95478C6.39949 8.87697 7.27385 8.8105 8.17892 8.76002C8.30126 8.04841 8.51051 7.38198 8.79373 6.79492C8.75192 6.79684 8.71001 6.79853 8.66824 6.8005C7.52539 6.85483 6.40549 6.93513 5.42956 7.03277C3.57251 7.21853 2.17212 8.76747 2.17212 10.6358V13.9933C2.17212 15.8616 3.57251 17.4105 5.42956 17.5963C6.40545 17.6939 7.52539 17.7743 8.66824 17.8286C9.79793 17.8823 10.9501 17.9107 12.0001 17.9107C12.299 17.9106 12.6068 17.908 12.9195 17.9035Z" fill="#00C4FC"/>
</svg>
