<svg width="367" height="315" viewBox="0 0 367 315" fill="none" xmlns="http://www.w3.org/2000/svg">
<g opacity="0.5" clip-path="url(#clip0_9585_181102)">
<g opacity="0.25">
<path d="M367 262.901L308.52 228.169L367 211.318V262.901ZM366.484 262.041V212.006L309.896 228.34L366.484 262.041Z" fill="white"/>
<path d="M367 147.871V154.061L340.34 138.071V137.555L367 147.871ZM366.484 148.215L343.264 139.274L366.484 153.03V148.215Z" fill="white"/>
<path d="M366.999 153.373V211.834L308.863 228.684L340.339 137.383L367.171 153.373H366.999ZM366.483 211.49V153.717L340.511 138.242L309.551 227.997L366.311 211.49H366.483Z" fill="white"/>
<path d="M95.0677 280.439L42.2637 281.127L84.4037 214.069L94.8957 280.439H95.0677ZM94.3797 279.924L84.2317 215.617L43.2957 280.611L94.3797 279.924Z" fill="white"/>
<path d="M94.7244 281.299L84.2324 214.929V214.585L117.6 210.115L94.8964 281.299H94.7244ZM94.8964 279.064L116.74 210.803L84.7484 215.101L94.8964 279.064Z" fill="white"/>
<path d="M142.713 309.67L94.7247 280.439H94.5527L117.085 209.599L142.713 309.842V309.67ZM141.853 308.466L117.085 211.318L95.2407 279.924L142.025 308.466H141.853Z" fill="white"/>
<path d="M216.156 218.196L116.568 210.63L188.12 133.772L188.464 133.428L216.156 218.024V218.196ZM215.468 217.508L188.292 134.46L117.772 210.115L215.468 217.508Z" fill="white"/>
<path d="M120.523 7.90942L80.4473 72.3881L80.9633 72.732L121.039 8.08137L120.523 7.90942Z" fill="white"/>
<path d="M126.2 36.7959L79.5879 73.5918L120.868 7.22168L126.2 36.7959ZM125.684 36.7959L120.696 8.76917L81.8239 71.3565L125.684 36.7959Z" fill="white"/>
<path d="M284.611 185.355L215.639 218.368L187.947 133.6L284.783 185.355H284.611ZM283.407 185.355L188.807 134.803L215.983 217.68L283.579 185.355H283.407Z" fill="white"/>
<path d="M287.707 164.894H287.879L284.095 185.527L188.119 134.116V133.6L287.707 164.722V164.894ZM287.363 165.409L190.871 135.147L283.751 184.839L287.363 165.409Z" fill="white"/>
<path d="M284.097 185.527L224.585 227.997L215.297 217.852L283.925 185.011L284.269 185.527H284.097ZM224.585 227.137L281.173 186.73L215.985 217.852L224.413 227.137H224.585Z" fill="white"/>
<path d="M289.429 229.028V229.372L223.725 227.825L284.097 184.839L289.257 229.028H289.429ZM288.913 228.856L283.753 185.871L225.445 227.481L288.913 228.856Z" fill="white"/>
<path d="M283.58 185.871L287.364 165.066L342.404 136.351L283.58 185.871ZM284.44 184.495L338.448 139.102L288.052 165.409L284.44 184.667V184.495Z" fill="white"/>
<path d="M309.724 228.512L288.912 229.372L283.58 184.151L309.724 228.684V228.512ZM308.864 227.997L284.44 186.386L289.428 228.684L308.692 227.997H308.864Z" fill="white"/>
<path d="M309.552 228.34V228.856L283.752 185.355L341.028 136.867L309.552 228.34ZM309.208 227.653L339.824 138.586L284.44 185.355L309.208 227.653Z" fill="white"/>
<path d="M290.117 228.857L218.909 273.906L218.393 274.25L224.413 227.481L290.117 229.028V228.857ZM288.397 229.372L224.929 227.997L219.081 273.218L288.397 229.544V229.372Z" fill="white"/>
<path d="M216.328 227.309L142.54 309.326L142.196 309.67L116.74 210.115L216.328 227.309ZM215.296 227.653L117.428 210.803L142.368 308.638L215.124 227.825L215.296 227.653Z" fill="white"/>
<path d="M215.984 217.68V227.825L116.912 210.631V210.115L215.984 217.508V217.68ZM215.468 218.196L122.588 211.146L215.468 227.137V218.024V218.196Z" fill="white"/>
<path d="M218.908 273.562L141.164 310.014L215.468 227.481L215.812 226.965L218.736 273.562H218.908ZM218.392 273.562L215.468 228.341L143.4 308.466L218.392 273.562Z" fill="white"/>
<path d="M225.273 227.825H215.469V217.164L225.273 227.825ZM224.069 227.309L215.985 218.712V227.309H224.069Z" fill="white"/>
<path d="M218.909 273.562H218.393L215.469 227.309H224.929L218.909 273.562ZM218.909 270.81L224.413 227.825H216.157L218.909 270.81Z" fill="white"/>
<path d="M117.773 210.63L84.2329 215.273L78.2129 182.432L117.945 210.63H117.773ZM116.397 210.286L78.9009 183.635L84.7489 214.585L116.397 210.286Z" fill="white"/>
<path d="M117.255 210.631L78.0391 182.948L189.495 133.256L117.427 210.631H117.255ZM117.083 210.115L187.259 134.804L79.0711 182.948L117.083 209.943V210.115Z" fill="white"/>
<path d="M214.608 112.623L186.4 136.007L212.2 103.854L214.608 112.623ZM213.92 112.451L211.856 105.057L190.012 132.224L213.748 112.451H213.92Z" fill="white"/>
<path d="M289.255 165.925L188.291 134.288H187.775L214.263 112.107L289.255 165.925ZM286.159 164.378L214.263 112.795L188.807 133.944L286.159 164.378Z" fill="white"/>
<path d="M367 46.5967L326.408 49.8637L367 4.64258V46.5967ZM366.484 46.0809V6.01812L327.784 49.1759L366.484 46.0809Z" fill="white"/>
<path d="M327.096 49.6916L213.92 112.967L211.512 104.198L326.752 49.1758V49.6916H327.096ZM214.436 112.107L319.7 53.3024L212.372 104.542L214.436 112.107Z" fill="white"/>
<path d="M288.052 165.409V165.753L213.92 112.623L327.612 49.0039L288.052 165.409ZM287.708 164.894L326.752 50.2075L214.952 112.623L287.708 164.894Z" fill="white"/>
<path d="M340.683 137.726L287.191 165.753L326.751 49.3476L327.095 48.3159L340.683 137.726ZM340.167 137.726L326.923 50.7231L288.223 164.721L340.167 137.726Z" fill="white"/>
<path d="M366.484 5.1582L326.924 49.3476L327.268 49.6915L367 5.50209L366.484 5.1582Z" fill="white"/>
<path d="M44.3283 281.299L-31.1797 277.516L-16.7317 255.508L44.1563 281.471L44.3283 281.299ZM41.4043 280.611L-16.3877 256.023L-30.1477 277L41.4043 280.611Z" fill="white"/>
<path d="M42.952 281.299L-17.248 255.68L85.092 214.241L42.952 281.127V281.299ZM42.78 280.611L83.716 215.445L-15.872 255.68L42.608 280.611H42.78Z" fill="white"/>
<path d="M84.7487 215.101L-18.2793 256.711L78.5567 182.604L84.5767 215.101H84.7487ZM84.0607 214.757L78.2127 183.463L-14.8393 254.648L84.0607 214.585V214.757Z" fill="white"/>
<path d="M125.684 37.3116L120.352 7.73737L181.928 3.26685L125.684 37.4836V37.3116ZM126.028 36.4519L179.864 3.95462L121.212 8.2532L126.372 36.4519H126.028Z" fill="white"/>
<path d="M180.895 3.26685L120.695 7.73737L120.867 8.2532L180.895 3.78268V3.26685Z" fill="white"/>
<path d="M60.4956 88.8946L-51.3044 126.894H-51.6484L-35.9964 22.8684V22.3525L60.4956 88.8946ZM59.2916 88.8946L-35.6524 23.2123L-51.1324 126.206L59.2916 88.7226V88.8946Z" fill="white"/>
<path d="M-35.6521 22.5247L-35.9961 23.0405L59.8079 89.0667L60.1519 88.5509L-35.6521 22.5247Z" fill="white"/>
<path d="M78.9009 183.979L43.2969 140.821L59.9809 87.6909L78.9009 183.979ZM78.0409 181.916L59.9809 89.7542L43.9849 140.477L78.0409 181.744V181.916Z" fill="white"/>
<path d="M80.4486 72.3882L59.8086 88.5508L60.1526 89.0667L80.7926 72.7321L80.4486 72.3882Z" fill="white"/>
<path d="M78.7287 185.527L59.6367 88.8947L80.9647 71.8723L78.7287 185.527ZM78.2127 180.54L80.4487 73.0759L60.3247 88.8947L78.3847 180.54H78.2127Z" fill="white"/>
<path d="M2.87606 151.138L-51.9919 167.645H-52.3359L-51.6479 126.206L2.87606 151.138ZM1.32806 151.138L-51.1319 127.066L-51.8199 167.129L1.32806 151.138Z" fill="white"/>
<path d="M-16.3879 256.711L-52.3359 167.645V167.301L2.36005 150.794L-16.3879 256.711ZM-16.5599 254.82L1.67206 151.654L-51.8199 167.817L-16.7319 254.992L-16.5599 254.82Z" fill="white"/>
<path d="M2.18782 151.482L-51.9922 126.722L59.9798 88.7228L61.0118 88.3789L2.35981 151.654L2.18782 151.482ZM2.18782 150.794L59.1198 89.4106L-50.6162 126.722L2.01581 150.794H2.18782Z" fill="white"/>
<path d="M79.0716 182.948L-16.2164 255.852L-16.7324 256.195L2.01558 150.622L79.2436 182.776L79.0716 182.948ZM78.0396 182.948L2.35958 151.31L-16.0444 254.82L78.0396 182.776V182.948Z" fill="white"/>
<path d="M43.8123 140.993L1.15625 151.654L60.4963 87.863L43.8123 140.993ZM43.4683 140.478L59.4642 89.7544L3.04825 150.622L43.6402 140.478H43.4683Z" fill="white"/>
<path d="M79.4161 183.635L1.32812 150.966L43.8121 140.306L79.4161 183.635ZM77.6961 182.26L43.6401 140.993L3.04812 151.138L77.6961 182.26Z" fill="white"/>
<path d="M367.001 64.6507L325.893 49.3477L367.001 46.0808V64.6507ZM366.485 63.9629V46.7686L328.301 49.8636L366.485 63.9629Z" fill="white"/>
<path d="M367 64.1348V127.926L340.168 138.242L326.752 49.1758L367 64.1348ZM366.484 127.582V64.4787L327.44 50.0355L340.684 137.555L366.484 127.754V127.582Z" fill="white"/>
<path d="M367 148.387L339.652 137.727L367 127.238V148.387ZM366.484 147.527V128.098L341.2 137.727L366.484 147.527Z" fill="white"/>
<path d="M327.956 49.3478L212.2 104.542L211.512 104.885L243.676 33.0132L327.784 49.3478H327.956ZM326.236 49.5197L244.192 33.3571L212.716 103.682L326.408 49.5197H326.236Z" fill="white"/>
<path d="M167.481 85.6276H167.997L78.2129 183.807L80.4489 72.56V72.2161L167.653 85.6276H167.481ZM166.965 86.1435L80.9649 72.9038L78.7289 182.432L166.965 86.1435Z" fill="white"/>
<path d="M188.636 134.288L77.3516 183.807L167.308 85.6278L167.652 85.2839L188.636 134.116V134.288ZM187.948 133.944L167.48 86.3156L79.5876 182.26L187.948 133.944Z" fill="white"/>
<path d="M168.168 86.3155L80.1035 72.732L125.856 36.7959H126.028L168.168 86.3155ZM166.792 85.6278L125.856 37.4837L81.3075 72.5601L166.792 85.6278Z" fill="white"/>
<path d="M244.537 33.185L167.653 86.1436L167.137 86.4874L180.553 3.43886V3.09497L244.365 33.185H244.537ZM243.505 33.185L181.069 3.95469L167.825 85.2838L243.333 33.185H243.505Z" fill="white"/>
<path d="M212.545 104.37L188.293 134.632L167.137 85.4558L212.545 104.37ZM211.685 104.542L168.169 86.3155L188.465 133.6L211.685 104.542Z" fill="white"/>
<path d="M212.201 104.542L167.481 86.1436H166.965L243.849 33.0131L244.709 32.4973L212.373 104.542H212.201ZM211.857 104.026L243.333 33.8729L168.169 85.7997L212.029 104.026H211.857Z" fill="white"/>
<path d="M122.931 210.974C122.931 208.051 120.523 205.816 117.771 205.816C115.019 205.816 112.611 208.051 112.611 210.974C112.611 213.897 115.019 216.133 117.771 216.133C120.523 216.133 122.931 213.726 122.931 210.974Z" fill="white"/>
<path d="M5.11147 151.31C5.11147 149.075 3.21947 147.183 0.983469 147.183C-1.25253 147.183 -3.14453 149.075 -3.14453 151.31C-3.14453 153.545 -1.25253 155.437 0.983469 155.437C3.21947 155.437 5.11147 153.545 5.11147 151.31Z" fill="white"/>
<path d="M47.424 281.299C47.424 279.064 45.532 277.173 43.296 277.173C41.06 277.173 39.168 279.064 39.168 281.299C39.168 283.535 41.06 285.426 43.296 285.426C45.532 285.426 47.424 283.535 47.424 281.299Z" fill="white"/>
<path d="M86.9847 214.929C86.9847 213.382 85.6087 212.006 84.0607 212.006C82.5127 212.006 81.1367 213.382 81.1367 214.929C81.1367 216.477 82.5127 217.852 84.0607 217.852C85.6087 217.852 86.9847 216.477 86.9847 214.929Z" fill="white"/>
<path d="M97.4769 280.439C97.4769 278.892 96.1009 277.516 94.5529 277.516C93.0049 277.516 91.6289 278.892 91.6289 280.439C91.6289 281.987 93.0049 283.362 94.5529 283.362C96.1009 283.362 97.4769 281.987 97.4769 280.439Z" fill="white"/>
<path d="M293.729 228.513C293.729 226.277 291.837 224.386 289.601 224.386C287.365 224.386 285.473 226.277 285.473 228.513C285.473 230.748 287.365 232.639 289.601 232.639C291.837 232.639 293.729 230.748 293.729 228.513Z" fill="white"/>
<path d="M49.1442 141.681C49.1442 138.758 46.7362 136.523 43.9842 136.523C41.2322 136.523 38.8242 138.758 38.8242 141.681C38.8242 144.604 41.2322 146.84 43.9842 146.84C46.7362 146.84 49.1442 144.604 49.1442 141.681Z" fill="white"/>
<path d="M62.9034 89.5824C62.9034 87.691 61.3554 86.1436 59.4634 86.1436C57.5714 86.1436 56.0234 87.691 56.0234 89.5824C56.0234 91.4738 57.5714 93.0213 59.4634 93.0213C61.3554 93.0213 62.9034 91.4738 62.9034 89.5824Z" fill="white"/>
<path d="M170.575 86.4875C170.575 84.5961 169.027 83.0486 167.135 83.0486C165.243 83.0486 163.695 84.5961 163.695 86.4875C163.695 88.3788 165.243 89.9263 167.135 89.9263C169.027 89.9263 170.575 88.3788 170.575 86.4875Z" fill="white"/>
<path d="M247.632 33.185C247.632 31.2936 246.084 29.7461 244.192 29.7461C242.3 29.7461 240.752 31.2936 240.752 33.185C240.752 35.0763 242.3 36.6238 244.192 36.6238C246.084 36.6238 247.632 35.0763 247.632 33.185Z" fill="white"/>
<path d="M215.124 104.714C215.124 102.822 213.576 101.275 211.684 101.275C209.792 101.275 208.244 102.822 208.244 104.714C208.244 106.605 209.792 108.152 211.684 108.152C213.576 108.152 215.124 106.605 215.124 104.714Z" fill="white"/>
<path d="M343.952 138.242C343.952 136.351 342.404 134.803 340.512 134.803C338.62 134.803 337.072 136.351 337.072 138.242C337.072 140.134 338.62 141.681 340.512 141.681C342.404 141.681 343.952 140.134 343.952 138.242Z" fill="white"/>
<path d="M312.991 227.997C312.991 226.105 311.443 224.558 309.551 224.558C307.659 224.558 306.111 226.105 306.111 227.997C306.111 229.888 307.659 231.436 309.551 231.436C311.443 231.436 312.991 229.888 312.991 227.997Z" fill="white"/>
<path d="M290.976 164.55C290.976 162.658 289.428 161.111 287.536 161.111C285.644 161.111 284.096 162.658 284.096 164.55C284.096 166.441 285.644 167.989 287.536 167.989C289.428 167.989 290.976 166.441 290.976 164.55Z" fill="white"/>
<path d="M222.349 272.874C222.349 270.983 220.801 269.435 218.909 269.435C217.017 269.435 215.469 270.983 215.469 272.874C215.469 274.765 217.017 276.313 218.909 276.313C220.801 276.313 222.349 274.765 222.349 272.874Z" fill="white"/>
<path d="M227.509 227.309C227.509 225.418 225.961 223.87 224.069 223.87C222.177 223.87 220.629 225.418 220.629 227.309C220.629 229.2 222.177 230.748 224.069 230.748C225.961 230.748 227.509 229.2 227.509 227.309Z" fill="white"/>
<path d="M215.64 220.087C216.78 220.087 217.704 219.164 217.704 218.024C217.704 216.884 216.78 215.961 215.64 215.961C214.5 215.961 213.576 216.884 213.576 218.024C213.576 219.164 214.5 220.087 215.64 220.087Z" fill="white"/>
<path d="M217.532 228.169C217.532 227.137 216.672 226.105 215.468 226.105C214.264 226.105 213.404 226.965 213.404 228.169C213.404 229.372 214.264 230.232 215.468 230.232C216.672 230.232 217.532 229.372 217.532 228.169Z" fill="white"/>
<path d="M287.193 186.214C287.193 184.323 285.645 182.776 283.753 182.776C281.861 182.776 280.312 184.323 280.312 186.214C280.312 188.106 281.861 189.653 283.753 189.653C285.645 189.653 287.193 188.106 287.193 186.214Z" fill="white"/>
<path d="M184.509 3.43886C184.509 1.54749 182.961 0 181.069 0C179.177 0 177.629 1.54749 177.629 3.43886C177.629 5.33024 179.177 6.87773 181.069 6.87773C182.961 6.87773 184.509 5.33024 184.509 3.43886Z" fill="white"/>
<path d="M84.5753 72.9039C84.5753 71.0126 83.0273 69.4651 81.1353 69.4651C79.2433 69.4651 77.6953 71.0126 77.6953 72.9039C77.6953 74.7953 79.2433 76.3428 81.1353 76.3428C83.0273 76.3428 84.5753 74.7953 84.5753 72.9039Z" fill="white"/>
<path d="M129.468 37.1398C129.468 35.2484 127.92 33.7009 126.028 33.7009C124.136 33.7009 122.588 35.2484 122.588 37.1398C122.588 39.0312 124.136 40.5787 126.028 40.5787C127.92 40.5787 129.468 39.0312 129.468 37.1398Z" fill="white"/>
<path d="M83.8887 182.432C83.8887 178.821 80.9646 175.726 77.1806 175.726C73.3966 175.726 70.4727 178.649 70.4727 182.432C70.4727 186.215 73.3966 189.138 77.1806 189.138C80.9646 189.138 83.8887 186.215 83.8887 182.432Z" fill="white"/>
<path d="M193.969 135.147C193.969 131.537 191.045 128.442 187.261 128.442C183.477 128.442 180.725 131.365 180.725 135.147C180.725 138.93 183.649 141.681 187.261 141.681C190.873 141.681 193.969 138.758 193.969 135.147Z" fill="white"/>
<path d="M149.248 308.294C149.248 304.683 146.324 301.588 142.54 301.588C138.756 301.588 135.832 304.511 135.832 308.294C135.832 312.077 138.756 315 142.54 315C146.324 315 149.248 312.077 149.248 308.294Z" fill="white"/>
<path d="M333.461 51.239C333.461 47.6282 330.537 44.5332 326.753 44.5332C322.969 44.5332 320.045 47.4562 320.045 51.239C320.045 55.0217 322.969 57.7728 326.753 57.7728C330.537 57.7728 333.461 54.8498 333.461 51.239Z" fill="white"/>
</g>
</g>
<defs>
<clipPath id="clip0_9585_181102">
<rect width="430" height="315" fill="white" transform="translate(-63)"/>
</clipPath>
</defs>
</svg>
