<svg width="24" height="20" viewBox="0 0 24 20" fill="none" xmlns="http://www.w3.org/2000/svg">
<path d="M22.7109 19.4168H1.28906C0.771281 19.4168 0.351562 18.9971 0.351562 18.4793V1.52069C0.351562 1.00291 0.771281 0.583191 1.28906 0.583191H22.7109C23.2287 0.583191 23.6484 1.00291 23.6484 1.52069V18.4793C23.6484 18.9971 23.2287 19.4168 22.7109 19.4168Z" fill="#F5F7F8"/>
<path d="M9.85148 0.583191H1.28906C0.771281 0.583191 0.351562 1.00291 0.351562 1.52069V18.4793C0.351562 18.9971 0.771281 19.4168 1.28906 19.4168H9.85148V0.583191Z" fill="#98D9F9"/>
<path d="M23.6484 1.52078V3.84297H0.351562V1.52078C0.351562 1.00281 0.771094 0.583282 1.28906 0.583282H22.7109C23.2289 0.583282 23.6484 1.00281 23.6484 1.52078Z" fill="#596D76"/>
<path d="M20.6804 9.59323L20.3695 9.90411C20.3158 9.95787 20.2914 10.0344 20.3042 10.1093L20.341 10.3244C20.3538 10.3993 20.3295 10.4758 20.2757 10.5296L19.6264 11.1788C19.5727 11.2326 19.4962 11.2569 19.4212 11.2441L19.2061 11.2074C19.1311 11.1946 19.0547 11.2189 19.0009 11.2727L18.4249 11.8487C18.3712 11.9024 18.3468 11.9789 18.3596 12.0538L18.3964 12.269C18.4092 12.344 18.3848 12.4204 18.3311 12.4742L17.3139 13.4913C17.1772 13.628 16.9556 13.628 16.8189 13.4913L15.1833 11.8557C15.0466 11.719 15.0466 11.4974 15.1833 11.3607L19.9559 6.58812C20.0476 6.49643 20.1824 6.46297 20.3063 6.50108L21.5572 6.88582C21.668 6.9199 21.7547 7.00667 21.7888 7.11748L22.1736 8.36834C22.2117 8.49223 22.1782 8.62709 22.0865 8.71873L21.3059 9.49939C21.2521 9.55315 21.1756 9.57748 21.1007 9.56468L20.8856 9.52793C20.8107 9.51514 20.7342 9.53947 20.6804 9.59323Z" fill="#FCA62F"/>
<path d="M20.6803 9.59332L20.3698 9.90387C20.3157 9.95791 20.2915 10.0345 20.3045 10.109L20.3409 10.3245C20.3539 10.3991 20.3297 10.4756 20.2757 10.5296L19.6267 11.1786C19.5726 11.2327 19.4961 11.2569 19.4215 11.2439L19.2061 11.2075C19.1315 11.1945 19.0549 11.2188 19.0009 11.2728L18.4252 11.8485C18.3711 11.9025 18.3469 11.9791 18.3599 12.0536L18.3963 12.2691C18.4093 12.3437 18.3851 12.4202 18.331 12.4743L17.3141 13.4912C17.1773 13.628 16.9558 13.628 16.8189 13.4912L16.0503 12.7225C16.1868 12.8591 16.4086 12.8594 16.5455 12.7225L17.5624 11.7056C17.6164 11.6516 17.6406 11.575 17.6277 11.5004L17.5912 11.285C17.578 11.2101 17.6025 11.1339 17.6565 11.0798L18.2322 10.5041C18.2863 10.4501 18.3625 10.4255 18.4374 10.4388L18.6528 10.4753C18.7274 10.4882 18.804 10.464 18.858 10.41L19.507 9.76099C19.561 9.70694 19.5852 9.6304 19.5723 9.55582L19.5358 9.34038C19.5226 9.26547 19.5471 9.18926 19.6011 9.13521L19.9117 8.82462C19.9658 8.77057 20.042 8.74605 20.1169 8.75932L20.3323 8.79579C20.4069 8.80872 20.4834 8.78449 20.5375 8.73049L21.0526 8.21543C21.1444 8.1236 21.1779 7.98869 21.1394 7.86476L20.7636 6.64169L21.5574 6.88596C21.6681 6.91976 21.7549 7.00661 21.7891 7.11766L22.1736 8.36857C22.2117 8.49218 22.1782 8.62708 22.0864 8.71891L21.3062 9.49915C21.2521 9.55319 21.1756 9.57738 21.101 9.56444L20.8855 9.52797C20.8109 9.51508 20.7344 9.53927 20.6803 9.59332Z" fill="#F98824"/>
<path d="M14.5678 17.0451C16.1904 17.0451 17.5059 15.7297 17.5059 14.107C17.5059 12.4843 16.1904 11.1689 14.5678 11.1689C12.9451 11.1689 11.6296 12.4843 11.6296 14.107C11.6296 15.7297 12.9451 17.0451 14.5678 17.0451Z" fill="#FCC16D"/>
<path d="M16.6452 16.1847C15.4981 17.3318 13.6376 17.3322 12.4901 16.1847C12.1696 15.8641 11.9389 15.4883 11.7974 15.0875C11.8587 15.1648 11.9253 15.2394 11.9969 15.3109C13.0394 16.3534 14.7294 16.3531 15.7715 15.3109C16.814 14.2685 16.814 12.5787 15.7715 11.5363C15.6999 11.4648 15.6254 11.3982 15.5481 11.3368C15.9488 11.4783 16.3247 11.709 16.6452 12.0295C17.7927 13.177 17.7927 15.0372 16.6452 16.1847Z" fill="#FCB44D"/>
<path d="M13.9849 15.3637L13.311 14.6898C13.0725 14.4513 13.0725 14.0646 13.311 13.8261C13.5495 13.5876 13.9361 13.5876 14.1747 13.8261L14.8485 14.5C15.087 14.7385 15.087 15.1252 14.8485 15.3637C14.61 15.6022 14.2234 15.6022 13.9849 15.3637Z" fill="#F2671F"/>
<path d="M2.09229 1.85913C1.89813 1.85913 1.74072 2.01649 1.74072 2.21069V2.21557C1.74072 2.40977 1.89813 2.56713 2.09229 2.56713C2.28644 2.56713 2.44385 2.40977 2.44385 2.21557V2.21069C2.44385 2.01654 2.28644 1.85913 2.09229 1.85913Z" fill="white"/>
<path d="M3.19458 1.85913C3.00042 1.85913 2.84302 2.01649 2.84302 2.21069V2.21557C2.84302 2.40977 3.00042 2.56713 3.19458 2.56713C3.38874 2.56713 3.54614 2.40977 3.54614 2.21557V2.21069C3.54614 2.01654 3.38878 1.85913 3.19458 1.85913Z" fill="white"/>
<path d="M4.29688 1.85913C4.10272 1.85913 3.94531 2.01649 3.94531 2.21069V2.21557C3.94531 2.40977 4.10272 2.56713 4.29688 2.56713C4.49103 2.56713 4.64844 2.40977 4.64844 2.21557V2.21069C4.64844 2.01654 4.49103 1.85913 4.29688 1.85913Z" fill="white"/>
<path d="M20.939 1.86401H15.3008C15.1066 1.86401 14.9492 2.02137 14.9492 2.21558C14.9492 2.40978 15.1066 2.56714 15.3008 2.56714H20.939C21.1333 2.56714 21.2906 2.40978 21.2906 2.21558C21.2906 2.02137 21.1333 1.86401 20.939 1.86401Z" fill="white"/>
<path d="M7.98332 8.20379C7.8643 8.14426 7.72185 8.15696 7.61526 8.23674L7.19315 8.55273C7.03771 8.66907 7.00602 8.88943 7.12241 9.04482C7.2066 9.15732 7.34521 9.2049 7.4744 9.17865V10.1269C7.4744 10.3211 7.6318 10.4784 7.82596 10.4784C8.02012 10.4784 8.17752 10.3211 8.17752 10.1269V8.51818C8.17757 8.38506 8.10238 8.26337 7.98332 8.20379Z" fill="white"/>
<path d="M4.38989 9.32252C4.38989 9.95992 4.90842 10.4785 5.54583 10.4785C6.18324 10.4785 6.70177 9.95992 6.70177 9.32252C6.70177 8.68516 6.18324 8.16663 5.54583 8.16663C4.90842 8.16663 4.38989 8.68516 4.38989 9.32252ZM5.99864 9.32252C5.99864 9.57217 5.79553 9.77533 5.54583 9.77533C5.29617 9.77533 5.09302 9.57217 5.09302 9.32252C5.09302 9.07286 5.29613 8.86975 5.54583 8.86975C5.79549 8.86975 5.99864 9.07286 5.99864 9.32252Z" fill="white"/>
<path d="M2.86321 10.4785C3.50057 10.4785 4.01915 9.95992 4.01915 9.32252C4.01915 8.68516 3.50062 8.16663 2.86321 8.16663C2.22581 8.16663 1.70728 8.68516 1.70728 9.32252C1.70723 9.95992 2.22581 10.4785 2.86321 10.4785ZM2.86321 8.86975C3.11287 8.86975 3.31603 9.07286 3.31603 9.32252C3.31603 9.57217 3.11292 9.77533 2.86321 9.77533C2.61351 9.77533 2.4104 9.57217 2.4104 9.32252C2.4104 9.07286 2.61351 8.86975 2.86321 8.86975Z" fill="white"/>
<path d="M4.76785 6.50787V7.45611C4.76785 7.65031 4.92526 7.80767 5.11942 7.80767C5.31357 7.80767 5.47098 7.65031 5.47098 7.45611V5.84736C5.47098 5.71423 5.39579 5.59255 5.27678 5.53297C5.15776 5.47344 5.01526 5.48609 4.90871 5.56592L4.4866 5.88191C4.33117 5.99825 4.29948 6.21861 4.41587 6.374C4.5001 6.48655 4.63867 6.53403 4.76785 6.50787Z" fill="white"/>
<path d="M7.13836 7.80762C7.77572 7.80762 8.2943 7.28909 8.2943 6.65173C8.2943 6.01432 7.77577 5.49579 7.13836 5.49579C6.50095 5.49579 5.98242 6.01432 5.98242 6.65173C5.98242 7.28909 6.50095 7.80762 7.13836 7.80762ZM7.13836 6.19891C7.38802 6.19891 7.59117 6.40207 7.59117 6.65173C7.59117 6.90138 7.38806 7.10449 7.13836 7.10449C6.88866 7.10449 6.68555 6.90138 6.68555 6.65173C6.68555 6.40207 6.88866 6.19891 7.13836 6.19891Z" fill="white"/>
<path d="M2.86321 7.80762C3.50057 7.80762 4.01915 7.28909 4.01915 6.65173C4.01915 6.01432 3.50062 5.49579 2.86321 5.49579C2.22581 5.49579 1.70728 6.01432 1.70728 6.65173C1.70723 7.28909 2.22581 7.80762 2.86321 7.80762ZM2.86321 6.19891C3.11287 6.19891 3.31603 6.40207 3.31603 6.65173C3.31603 6.90138 3.11292 7.10449 2.86321 7.10449C2.61351 7.10449 2.4104 6.90138 2.4104 6.65173C2.4104 6.40207 2.61351 6.19891 2.86321 6.19891Z" fill="white"/>
<path d="M2.64188 13.2198C2.83603 13.2198 2.99344 13.0624 2.99344 12.8682V11.2595C2.99344 11.1264 2.91825 11.0047 2.79924 10.9451C2.68022 10.8856 2.53772 10.8983 2.43117 10.9781L2.00906 11.2941C1.85363 11.4104 1.82194 11.6308 1.93833 11.7862C2.02252 11.8987 2.16103 11.9462 2.29031 11.92V12.8682C2.29031 13.0624 2.44772 13.2198 2.64188 13.2198Z" fill="white"/>
<path d="M5.81676 12.0639C5.81676 11.4265 5.29823 10.908 4.66082 10.908C4.02341 10.908 3.50488 11.4265 3.50488 12.0639C3.50488 12.7013 4.02341 13.2198 4.66082 13.2198C5.29818 13.2198 5.81676 12.7013 5.81676 12.0639ZM4.20801 12.0639C4.20801 11.8142 4.41112 11.6111 4.66082 11.6111C4.91048 11.6111 5.11363 11.8142 5.11363 12.0639C5.11363 12.3136 4.91052 12.5167 4.66082 12.5167C4.41116 12.5167 4.20801 12.3136 4.20801 12.0639Z" fill="white"/>
<path d="M2.21973 14.9737H3.53565C3.7298 14.9737 3.88721 14.8163 3.88721 14.6221C3.88721 14.4279 3.7298 14.2706 3.53565 14.2706H2.21973C2.02557 14.2706 1.86816 14.4279 1.86816 14.6221C1.86816 14.8163 2.02552 14.9737 2.21973 14.9737Z" fill="white"/>
<path d="M6.34815 15.7328H2.21973C2.02557 15.7328 1.86816 15.8902 1.86816 16.0844C1.86816 16.2786 2.02557 16.436 2.21973 16.436H6.34815C6.5423 16.436 6.69971 16.2786 6.69971 16.0844C6.69971 15.8902 6.5423 15.7328 6.34815 15.7328Z" fill="white"/>
<path d="M6.34815 16.9359H2.21973C2.02557 16.9359 1.86816 17.0932 1.86816 17.2874C1.86816 17.4816 2.02557 17.639 2.21973 17.639H6.34815C6.5423 17.639 6.69971 17.4816 6.69971 17.2874C6.69971 17.0932 6.5423 16.9359 6.34815 16.9359Z" fill="white"/>
<path d="M11.4424 6.19891H14.4643C14.6585 6.19891 14.8158 6.04155 14.8158 5.84735C14.8158 5.65315 14.6585 5.49579 14.4643 5.49579H11.4424C11.2482 5.49579 11.0908 5.65315 11.0908 5.84735C11.0908 6.04155 11.2482 6.19891 11.4424 6.19891Z" fill="#596D76"/>
<path d="M11.4424 7.38565H14.4643C14.6585 7.38565 14.8158 7.22829 14.8158 7.03409C14.8158 6.83988 14.6585 6.68253 14.4643 6.68253H11.4424C11.2482 6.68253 11.0908 6.83988 11.0908 7.03409C11.0908 7.22829 11.2482 7.38565 11.4424 7.38565Z" fill="#596D76"/>
</svg>
