<svg width="20" height="25" viewBox="0 0 20 25" fill="none" xmlns="http://www.w3.org/2000/svg">
<g clip-path="url(#clip0_3906_16295)">
<path d="M17.1876 0.520508H4.68758C3.53699 0.520508 2.60425 1.45325 2.60425 2.60384V20.3122C2.60425 21.4628 3.53699 22.3955 4.68758 22.3955H17.1876C18.3382 22.3955 19.2709 21.4628 19.2709 20.3122V2.60384C19.2709 1.45325 18.3382 0.520508 17.1876 0.520508Z" fill="url(#paint0_linear_3906_16295)"/>
<path d="M17.1876 2.08301H4.68758C4.39993 2.08301 4.16675 2.31619 4.16675 2.60384V20.3122C4.16675 20.5998 4.39993 20.833 4.68758 20.833H17.1876C17.4752 20.833 17.7084 20.5998 17.7084 20.3122V2.60384C17.7084 2.31619 17.4752 2.08301 17.1876 2.08301Z" fill="#F0F7FC"/>
<path d="M8.33341 12.4997H6.25008C6.11195 12.4997 5.97947 12.4448 5.8818 12.3471C5.78412 12.2495 5.72925 12.117 5.72925 11.9788C5.72925 11.8407 5.78412 11.7082 5.8818 11.6106C5.97947 11.5129 6.11195 11.458 6.25008 11.458H8.33341C8.47155 11.458 8.60402 11.5129 8.7017 11.6106C8.79938 11.7082 8.85425 11.8407 8.85425 11.9788C8.85425 12.117 8.79938 12.2495 8.7017 12.3471C8.60402 12.4448 8.47155 12.4997 8.33341 12.4997Z" fill="#D7E9F7"/>
<path d="M15.6252 12.4997H10.4168C10.2787 12.4997 10.1462 12.4448 10.0485 12.3471C9.95087 12.2495 9.896 12.117 9.896 11.9788C9.896 11.8407 9.95087 11.7082 10.0485 11.6106C10.1462 11.5129 10.2787 11.458 10.4168 11.458H15.6252C15.7633 11.458 15.8958 11.5129 15.9934 11.6106C16.0911 11.7082 16.146 11.8407 16.146 11.9788C16.146 12.117 16.0911 12.2495 15.9934 12.3471C15.8958 12.4448 15.7633 12.4997 15.6252 12.4997Z" fill="#D7E9F7"/>
<path d="M8.33341 15.1042H6.25008C6.11195 15.1042 5.97947 15.0493 5.8818 14.9516C5.78412 14.8539 5.72925 14.7215 5.72925 14.5833C5.72925 14.4452 5.78412 14.3127 5.8818 14.215C5.97947 14.1174 6.11195 14.0625 6.25008 14.0625H8.33341C8.47155 14.0625 8.60402 14.1174 8.7017 14.215C8.79938 14.3127 8.85425 14.4452 8.85425 14.5833C8.85425 14.7215 8.79938 14.8539 8.7017 14.9516C8.60402 15.0493 8.47155 15.1042 8.33341 15.1042Z" fill="#D7E9F7"/>
<path d="M15.6252 15.1042H10.4168C10.2787 15.1042 10.1462 15.0493 10.0485 14.9516C9.95087 14.8539 9.896 14.7215 9.896 14.5833C9.896 14.4452 9.95087 14.3127 10.0485 14.215C10.1462 14.1174 10.2787 14.0625 10.4168 14.0625H15.6252C15.7633 14.0625 15.8958 14.1174 15.9934 14.215C16.0911 14.3127 16.146 14.4452 16.146 14.5833C16.146 14.7215 16.0911 14.8539 15.9934 14.9516C15.8958 15.0493 15.7633 15.1042 15.6252 15.1042Z" fill="#D7E9F7"/>
<path d="M20.8333 24.4788L18.2292 23.4372L15.625 24.4788V20.833H20.8333V24.4788Z" fill="url(#paint1_linear_3906_16295)"/>
<path d="M18.2292 21.8743C20.5304 21.8743 22.3958 20.0089 22.3958 17.7077C22.3958 15.4065 20.5304 13.541 18.2292 13.541C15.928 13.541 14.0625 15.4065 14.0625 17.7077C14.0625 20.0089 15.928 21.8743 18.2292 21.8743Z" fill="url(#paint2_linear_3906_16295)"/>
<path d="M18.2292 20.833C19.9551 20.833 21.3542 19.4339 21.3542 17.708C21.3542 15.9821 19.9551 14.583 18.2292 14.583C16.5034 14.583 15.1042 15.9821 15.1042 17.708C15.1042 19.4339 16.5034 20.833 18.2292 20.833Z" fill="#EB7F58"/>
<path d="M6.25008 19.27C6.15629 19.2696 6.06437 19.2438 5.98402 19.1954C5.90368 19.147 5.8379 19.0778 5.79362 18.9951C5.74934 18.9124 5.72822 18.8193 5.73247 18.7256C5.73672 18.6319 5.7662 18.5411 5.81779 18.4628L6.85946 16.9003C6.9071 16.8294 6.97145 16.7713 7.04684 16.7311C7.12222 16.6909 7.20633 16.6699 7.29175 16.6699C7.37717 16.6699 7.46127 16.6909 7.53666 16.7311C7.61205 16.7713 7.6764 16.8294 7.72404 16.9003L8.41675 17.9419L9.00529 17.3482C9.05371 17.2994 9.11131 17.2606 9.17478 17.2342C9.23825 17.2077 9.30633 17.1941 9.37508 17.1941C9.44384 17.1941 9.51191 17.2077 9.57538 17.2342C9.63885 17.2606 9.69645 17.2994 9.74487 17.3482L10.6303 18.2284H11.4584C11.5965 18.2284 11.729 18.2833 11.8267 18.3809C11.9244 18.4786 11.9792 18.6111 11.9792 18.7492C11.9792 18.8873 11.9244 19.0198 11.8267 19.1175C11.729 19.2152 11.5965 19.27 11.4584 19.27H10.4167C10.1303 19.27 10.0626 19.1346 9.37508 18.4419L8.70321 19.119C8.64845 19.1734 8.58229 19.2149 8.50951 19.2406C8.43674 19.2662 8.35917 19.2754 8.28241 19.2675C8.20566 19.2595 8.13163 19.2345 8.06569 19.1945C7.99975 19.1544 7.94354 19.1001 7.90112 19.0357L7.29175 18.1242L6.68237 19.0357C6.63519 19.1073 6.57104 19.1662 6.49563 19.2071C6.42021 19.248 6.33587 19.2696 6.25008 19.27Z" fill="#B4CDE1"/>
<path d="M18.2292 19.2704C17.9479 19.2704 17.9323 19.1922 16.8177 18.0777C16.7196 17.9796 16.6646 17.8466 16.6646 17.7079C16.6646 17.5692 16.7196 17.4361 16.8177 17.3381C16.9158 17.24 17.0488 17.1849 17.1875 17.1849C17.3262 17.1849 17.4592 17.24 17.5573 17.3381L18.2292 18.0152L19.4219 16.8172C19.52 16.7192 19.653 16.6641 19.7917 16.6641C19.9304 16.6641 20.0634 16.7192 20.1615 16.8172C20.2595 16.9153 20.3146 17.0483 20.3146 17.187C20.3146 17.3257 20.2595 17.4587 20.1615 17.5568L18.599 19.1193C18.5503 19.1676 18.4926 19.2058 18.4291 19.2317C18.3657 19.2576 18.2977 19.2708 18.2292 19.2704Z" fill="#F0F7FC"/>
<path d="M13.9844 6.24948L12.6459 7.55677L12.9636 9.37448C12.9696 9.41087 12.9676 9.44814 12.9579 9.48372C12.9481 9.51929 12.9307 9.55232 12.907 9.58054C12.8832 9.60876 12.8536 9.63149 12.8202 9.64717C12.7868 9.66284 12.7504 9.6711 12.7136 9.67135C12.6302 9.67135 12.75 9.72344 10.9375 8.77031L9.27606 9.6401C9.23455 9.66252 9.18754 9.67273 9.14047 9.66956C9.0934 9.66639 9.04819 9.64997 9.01006 9.62219C8.97193 9.59441 8.94244 9.5564 8.92499 9.51257C8.90755 9.46874 8.90286 9.42086 8.91148 9.37448L9.22918 7.53073L7.89064 6.24948C7.85554 6.21739 7.83032 6.17595 7.81794 6.13003C7.80556 6.08411 7.80654 6.03562 7.82076 5.99023C7.83497 5.94485 7.86184 5.90446 7.89821 5.87381C7.93457 5.84316 7.97892 5.82352 8.02606 5.81719L9.89585 5.53594L10.724 3.85885C10.7474 3.81888 10.7809 3.78573 10.8211 3.76269C10.8613 3.73966 10.9068 3.72754 10.9531 3.72754C10.9995 3.72754 11.045 3.73966 11.0852 3.76269C11.1254 3.78573 11.1589 3.81888 11.1823 3.85885L11.9792 5.53594L13.8334 5.80677C13.8841 5.80841 13.9332 5.82547 13.974 5.85569C14.0148 5.88591 14.0455 5.92784 14.0619 5.97592C14.0783 6.02399 14.0797 6.07592 14.0658 6.12479C14.052 6.17366 14.0236 6.21715 13.9844 6.24948Z" fill="url(#paint3_linear_3906_16295)"/>
</g>
<defs>
<linearGradient id="paint0_linear_3906_16295" x1="10.9376" y1="22.3955" x2="10.9376" y2="0.520508" gradientUnits="userSpaceOnUse">
<stop stop-color="#54A5FF"/>
<stop offset="1" stop-color="#8AD3FE"/>
</linearGradient>
<linearGradient id="paint1_linear_3906_16295" x1="18.2292" y1="20.833" x2="18.2292" y2="24.4788" gradientUnits="userSpaceOnUse">
<stop stop-color="#D3E6F5"/>
<stop offset="1" stop-color="#F0F7FC"/>
</linearGradient>
<linearGradient id="paint2_linear_3906_16295" x1="14.0625" y1="17.7077" x2="22.3958" y2="17.7077" gradientUnits="userSpaceOnUse">
<stop stop-color="#FE9661"/>
<stop offset="1" stop-color="#FFB369"/>
</linearGradient>
<linearGradient id="paint3_linear_3906_16295" x1="7.81252" y1="6.70781" x2="14.0625" y2="6.70781" gradientUnits="userSpaceOnUse">
<stop stop-color="#FE9661"/>
<stop offset="1" stop-color="#FFB369"/>
</linearGradient>
<clipPath id="clip0_3906_16295">
<rect width="20" height="25" fill="white"/>
</clipPath>
</defs>
</svg>
