<svg width="24" height="24" viewBox="0 0 24 24" fill="none" xmlns="http://www.w3.org/2000/svg">
<path d="M12 0.772949C11.1363 0.772949 10.281 0.943073 9.48307 1.27361C8.68511 1.60414 7.96007 2.08861 7.34934 2.69936C6.73861 3.3101 6.25416 4.03516 5.92365 4.83313C5.59314 5.6311 5.42304 6.48636 5.42307 7.35007C5.42307 12.0001 12 20.8776 12 20.8776C12 20.8776 18.5769 12.4859 18.5769 7.35007C18.577 6.48636 18.4069 5.6311 18.0764 4.83313C17.7458 4.03516 17.2614 3.3101 16.6507 2.69936C16.0399 2.08861 15.3149 1.60414 14.5169 1.27361C13.719 0.943073 12.8637 0.772949 12 0.772949ZM12 10.9917C11.2798 10.9917 10.5758 10.7782 9.97702 10.3782C9.3782 9.97809 8.91147 9.40944 8.63583 8.74411C8.36019 8.07879 8.28803 7.34667 8.42848 6.64033C8.56893 5.93399 8.91567 5.28517 9.42486 4.7759C9.93406 4.26662 10.5828 3.91978 11.2891 3.77922C11.9955 3.63867 12.7276 3.71071 13.393 3.98625C14.0583 4.26178 14.627 4.72843 15.0272 5.32719C15.4274 5.92594 15.641 6.62991 15.6411 7.35007C15.6411 8.31574 15.2575 9.24186 14.5746 9.92469C13.8918 10.6075 12.9657 10.9911 12 10.9911V10.9917Z" fill="#EF3C49"/>
<path d="M12 22.9907C8.92031 22.9907 4.33875 22.4295 4.33875 20.8832C4.33875 19.8126 6.44043 19.284 8.2035 19.0288C8.28854 19.0187 8.37416 19.0423 8.4421 19.0944C8.51003 19.1466 8.5549 19.2232 8.56713 19.3079C8.57936 19.3927 8.55799 19.4789 8.50757 19.5481C8.45715 19.6174 8.38167 19.6641 8.29725 19.6785C5.89125 20.0265 4.99481 20.6021 4.99481 20.8832C4.99481 21.3758 7.46718 22.3344 11.9998 22.3344C16.5324 22.3344 19.0048 21.3758 19.0048 20.8832C19.0048 20.6207 18.0907 19.9669 15.2657 19.6202C15.1809 19.6077 15.1043 19.5626 15.0523 19.4944C15.0003 19.4263 14.977 19.3405 14.9875 19.2554C14.9979 19.1703 15.0412 19.0927 15.1081 19.0391C15.175 18.9855 15.2602 18.9602 15.3456 18.9686C16.9581 19.1666 19.6611 19.6783 19.6611 20.8832C19.6612 22.4295 15.0797 22.9907 12 22.9907Z" fill="#35D0BA"/>
</svg>
