<svg width="52" height="52" viewBox="0 0 52 52" fill="none" xmlns="http://www.w3.org/2000/svg">
<path d="M45.5 1.625H16.25C13.5576 1.625 11.375 3.80761 11.375 6.5V45.5C11.375 48.1924 13.5576 50.375 16.25 50.375H45.5C48.1924 50.375 50.375 48.1924 50.375 45.5V6.5C50.375 3.80761 48.1924 1.625 45.5 1.625Z" fill="#F1F2F2"/>
<path d="M12.1875 1.625C6.36188 1.625 1.625 6.36188 1.625 12.1875C1.625 18.0131 11.2775 25.5044 11.6838 25.8294C11.83 25.9431 12.0087 26 12.1875 26C12.3663 26 12.5369 25.9431 12.6912 25.8294C13.1056 25.5044 22.75 17.9075 22.75 12.1875C22.75 6.4675 18.0131 1.625 12.1875 1.625Z" fill="#6B71F2"/>
<path d="M43.875 17.875C43.875 20.345 42.8756 22.5713 41.2587 24.1963L34.9375 17.875L28.6162 11.5538C30.2412 9.93688 32.4675 8.9375 34.9375 8.9375C39.8693 8.9375 43.875 12.9431 43.875 17.875Z" fill="#6B71F2"/>
<path d="M34.9375 17.875V26.8125C30.0056 26.8125 26 22.8068 26 17.875C26 15.405 26.9994 13.1787 28.6163 11.5537L34.9375 17.875Z" fill="#0FF2B2"/>
<path d="M41.2587 24.1963C39.6337 25.8131 37.4075 26.8125 34.9375 26.8125V17.875L41.2587 24.1963Z" fill="#0A0F26"/>
<path d="M21.9375 31.6875H18.6875C18.2406 31.6875 17.875 31.3219 17.875 30.875C17.875 30.4281 18.2406 30.0625 18.6875 30.0625H21.9375C22.3844 30.0625 22.75 30.4281 22.75 30.875C22.75 31.3219 22.3844 31.6875 21.9375 31.6875Z" fill="#0A0F26"/>
<path d="M43.0625 31.6875H25.1875C24.7406 31.6875 24.375 31.3219 24.375 30.875C24.375 30.4281 24.7406 30.0625 25.1875 30.0625H43.0625C43.5094 30.0625 43.875 30.4281 43.875 30.875C43.875 31.3219 43.5094 31.6875 43.0625 31.6875Z" fill="#0A0F26"/>
<path d="M21.9375 37.375H18.6875C18.2406 37.375 17.875 37.0094 17.875 36.5625C17.875 36.1156 18.2406 35.75 18.6875 35.75H21.9375C22.3844 35.75 22.75 36.1156 22.75 36.5625C22.75 37.0094 22.3844 37.375 21.9375 37.375Z" fill="#0A0F26"/>
<path d="M43.0625 37.375H25.1875C24.7406 37.375 24.375 37.0094 24.375 36.5625C24.375 36.1156 24.7406 35.75 25.1875 35.75H43.0625C43.5094 35.75 43.875 36.1156 43.875 36.5625C43.875 37.0094 43.5094 37.375 43.0625 37.375Z" fill="#0A0F26"/>
<path d="M21.9375 43.0625H18.6875C18.2406 43.0625 17.875 42.6969 17.875 42.25C17.875 41.8031 18.2406 41.4375 18.6875 41.4375H21.9375C22.3844 41.4375 22.75 41.8031 22.75 42.25C22.75 42.6969 22.3844 43.0625 21.9375 43.0625Z" fill="#0A0F26"/>
<path d="M43.0625 43.0625H25.1875C24.7406 43.0625 24.375 42.6969 24.375 42.25C24.375 41.8031 24.7406 41.4375 25.1875 41.4375H43.0625C43.5094 41.4375 43.875 41.8031 43.875 42.25C43.875 42.6969 43.5094 43.0625 43.0625 43.0625Z" fill="#0A0F26"/>
<path d="M12.1875 17.0625C14.8799 17.0625 17.0625 14.8799 17.0625 12.1875C17.0625 9.49511 14.8799 7.3125 12.1875 7.3125C9.49511 7.3125 7.3125 9.49511 7.3125 12.1875C7.3125 14.8799 9.49511 17.0625 12.1875 17.0625Z" fill="white"/>
</svg>
