<svg width="21" height="21" viewBox="0 0 21 21" fill="none" xmlns="http://www.w3.org/2000/svg">
<g clip-path="url(#clip0_3903_16155)">
<path d="M7.21875 10.5C8.66647 10.5 9.84375 9.32272 9.84375 7.875C9.84375 6.42728 8.66647 5.25 7.21875 5.25C5.77103 5.25 4.59375 6.42728 4.59375 7.875C4.59375 9.32272 5.77103 10.5 7.21875 10.5Z" fill="#FFE082"/>
<path d="M9.77902 11.4461C9.57523 11.2705 9.28427 11.2391 9.04651 11.3628C7.92627 11.9511 6.51123 11.9511 5.39099 11.3628C5.15323 11.2391 4.86163 11.2705 4.65848 11.4461C3.78305 12.1985 3.28125 13.2886 3.28125 14.4377V15.0939C3.28125 15.4566 3.57477 15.7502 3.9375 15.7502H10.5C10.8627 15.7502 11.1562 15.4566 11.1562 15.0939V14.4377C11.1562 13.2886 10.6544 12.1985 9.77902 11.4461Z" fill="#42A5F5"/>
<g opacity="0.1">
<path d="M9.84375 7.875C9.84375 9.32529 8.66904 10.5 7.21875 10.5V5.25C8.66904 5.25 9.84375 6.42471 9.84375 7.875Z" fill="black"/>
<path d="M11.1562 14.4371V15.0933C11.1562 15.4541 10.8608 15.7496 10.5 15.7496H7.21875V11.7992C7.85513 11.7992 8.49216 11.6544 9.04971 11.359C9.28619 11.241 9.57458 11.2673 9.77838 11.4448C10.6577 12.1991 11.1562 13.2886 11.1562 14.4371Z" fill="black"/>
</g>
<path d="M20.1515 10.0362L16.214 6.09866C16.0262 5.91088 15.7436 5.85448 15.4988 5.95638C15.2533 6.05764 15.0938 6.29732 15.0938 6.56264V8.53139H13.125C12.7623 8.53139 12.4688 8.82491 12.4688 9.18764V11.8126C12.4688 12.1754 12.7623 12.4689 13.125 12.4689H15.0938V14.4376C15.0938 14.703 15.2533 14.9426 15.4988 15.0439C15.5802 15.0779 15.6654 15.0939 15.75 15.0939C15.9205 15.0939 16.0884 15.0272 16.214 14.9016L20.1515 10.9641C20.4078 10.7078 20.4078 10.2925 20.1515 10.0362Z" fill="#EF5350"/>
<path opacity="0.1" d="M20.1534 10.9661L16.4062 14.7133V6.28711L20.1534 10.0343C20.4091 10.29 20.4091 10.7104 20.1534 10.9661Z" fill="black"/>
<path d="M10.5 20.3438H3.28125C1.83353 20.3438 0.65625 19.1665 0.65625 17.7188V3.28125C0.65625 1.83353 1.83353 0.65625 3.28125 0.65625H10.5C10.8627 0.65625 11.1562 0.949768 11.1562 1.3125C11.1562 1.67523 10.8627 1.96875 10.5 1.96875H3.28125C2.55771 1.96875 1.96875 2.55771 1.96875 3.28125V17.7188C1.96875 18.4423 2.55771 19.0312 3.28125 19.0312H10.5C10.8627 19.0312 11.1562 19.3248 11.1562 19.6875C11.1562 20.0502 10.8627 20.3438 10.5 20.3438Z" fill="#FFCA28"/>
<g opacity="0.1">
<path d="M11.1562 19.6875C11.1562 20.0483 10.8608 20.3438 10.5 20.3438H7.21875V19.0312H10.5C10.8608 19.0312 11.1562 19.3267 11.1562 19.6875Z" fill="black"/>
<path d="M10.5 1.96875H7.21875V0.65625H10.5C10.8608 0.65625 11.1562 0.951691 11.1562 1.3125C11.1562 1.67331 10.8608 1.96875 10.5 1.96875Z" fill="black"/>
</g>
</g>
<defs>
<clipPath id="clip0_3903_16155">
<rect width="21" height="21" fill="white"/>
</clipPath>
</defs>
</svg>
