<svg width="142" height="142" viewBox="0 0 142 142" fill="none" xmlns="http://www.w3.org/2000/svg">
    <g filter="url(#filter0_d_1992_11497)">
    <path d="M10.1787 17.4514C10.0584 9.72039 16.2282 3.35561 23.9592 3.23533L108.05 1.92697C124.617 1.66922 138.256 14.8901 138.514 31.4566L139.822 115.548C139.942 123.279 133.772 129.644 126.041 129.764L25.9521 131.321C18.2211 131.441 11.8563 125.272 11.736 117.541L10.1787 17.4514Z" fill="white"/>
    </g>
    <path d="M122.115 74.7389C122.115 74.7526 122.115 74.7664 122.115 74.7801C122.115 77.2874 121.604 79.7238 120.596 82.025C119.843 83.7446 119.126 84.7934 117.881 86.2313C117.286 86.7374 115.972 85.9863 116.633 84.9651C118.859 82.1074 120.166 78.5857 120.166 74.7801V74.7412C120.163 74.2374 120.601 73.8276 121.139 73.8253H121.142C121.677 73.8276 122.115 74.2352 122.115 74.7389ZM91.9832 59.9583C92.1496 59.9583 92.3159 59.9171 92.4603 59.8416L92.4725 59.837C95.2687 58.3188 98.4661 57.5151 101.72 57.5151C108.029 57.5151 113.837 60.4873 117.254 65.4676C117.433 65.7286 117.741 65.8866 118.074 65.8866C118.26 65.8866 118.443 65.8362 118.6 65.7423C118.818 65.6095 118.969 65.4057 119.026 65.1676C119.082 64.9295 119.033 64.6845 118.893 64.4784C117.083 61.836 114.578 59.6309 111.65 58.1013C110.162 57.3251 108.575 56.7252 106.933 56.3199C105.24 55.9008 103.484 55.6902 101.717 55.6902H101.715C99.8948 55.6902 98.0894 55.9146 96.35 56.3588C94.6596 56.7893 93.0352 57.4235 91.5184 58.2456C91.5111 58.2502 91.5013 58.2547 91.4915 58.2593L91.489 58.2616C91.1906 58.4265 91.0047 58.7287 91.0047 59.0539C91.0071 59.2119 91.0512 59.3699 91.1368 59.5072C91.3129 59.7843 91.6358 59.9583 91.9832 59.9583ZM95.1758 91.0674C95.0877 90.7582 94.8333 90.5178 94.5103 90.4377C94.3244 90.3919 94.1654 90.3552 94.0235 90.3232C93.6076 90.2293 93.3312 90.1675 92.8443 89.9614C92.3404 89.737 92.0273 89.5515 91.5551 89.2722L91.5086 89.2447C91.3618 89.1577 91.1955 89.1142 91.0218 89.1142C90.8628 89.1142 90.7086 89.1531 90.5717 89.2264C90.4298 89.3019 90.3099 89.4118 90.2243 89.5469C90.0555 89.8171 90.0481 90.1583 90.2047 90.4354C90.2805 90.5705 90.3906 90.6827 90.5154 90.7582L90.5545 90.7811C90.8212 90.9369 91.105 91.0926 91.3985 91.2414V91.2528L91.5233 91.3101C92.5728 91.7841 92.9985 91.8963 94.0602 92.1756C94.1311 92.1917 94.2045 92.2008 94.2779 92.2008C94.366 92.2008 94.4516 92.1894 94.5323 92.1665C94.8504 92.0795 95.0999 91.8344 95.1806 91.5253C95.2222 91.3765 95.2173 91.2185 95.1758 91.0674ZM87.0905 85.3383C86.907 85.1116 86.7308 84.8804 86.5596 84.6445L86.5645 84.6033C86.4153 84.4018 86.2734 84.198 86.1339 83.9919C86.0972 83.937 86.0605 83.8797 86.0238 83.8248C85.9211 83.6668 85.8183 83.5088 85.7205 83.3462C85.6862 83.289 85.652 83.234 85.6177 83.1768C85.515 83.005 85.4171 82.831 85.3193 82.657C85.2948 82.6135 85.2728 82.5723 85.2483 82.5288C85.1309 82.3112 85.0184 82.0914 84.9107 81.8693C84.9107 81.8693 84.9107 81.867 84.9083 81.867C84.8838 81.8143 84.8569 81.7617 84.8324 81.709C84.8251 81.693 84.8178 81.6769 84.8104 81.6609C84.7321 81.4869 84.6539 81.3129 84.5829 81.1366L84.578 81.1411C84.4802 80.9099 84.3872 80.6763 84.2991 80.4428C84.2771 80.3878 84.2575 80.3306 84.238 80.2733C84.1719 80.0901 84.1083 79.9047 84.0496 79.7192C84.0276 79.6528 84.008 79.5887 83.9884 79.5223C83.9297 79.3322 83.8759 79.1399 83.8245 78.9475C83.8099 78.8949 83.7952 78.8422 83.7805 78.7872C83.7169 78.5377 83.6582 78.2881 83.6044 78.0362C83.6044 78.0339 83.6044 78.0339 83.6044 78.0316C83.5554 77.7889 83.5114 77.5462 83.4723 77.3012C83.46 77.2279 83.4502 77.1546 83.4404 77.0814C83.4135 76.905 83.3915 76.7287 83.372 76.5501C83.3622 76.4654 83.3524 76.3807 83.345 76.2937C83.3279 76.1173 83.3157 75.941 83.3035 75.7647C83.2986 75.6869 83.2937 75.609 83.2888 75.5312C83.2765 75.2793 83.2692 75.0274 83.2692 74.7732C83.2692 71.9706 83.964 69.2961 85.334 66.8277C85.581 66.3812 85.3951 65.8293 84.9181 65.5958C84.7786 65.5271 84.627 65.4927 84.4704 65.4927C84.1034 65.4927 83.7707 65.6828 83.6019 65.9851C82.8656 67.3131 82.2955 68.7236 81.9139 70.1776C81.5176 71.6729 81.3194 73.2185 81.3194 74.7732C81.3194 76.502 81.5665 78.2194 82.0558 79.868C82.1683 80.2504 82.2955 80.6259 82.4325 80.9992C82.4864 81.148 82.5524 81.2946 82.6111 81.4411C82.6992 81.6609 82.7848 81.8807 82.8827 82.0983C82.9634 82.2792 83.0515 82.4578 83.1395 82.6364C83.2252 82.815 83.3108 82.9936 83.4038 83.1699C83.5016 83.3599 83.6093 83.5454 83.7144 83.7309C83.7756 83.8362 83.8294 83.9461 83.8906 84.0515C83.9248 84.111 83.9664 84.166 84.0007 84.2255C84.0447 84.2988 84.0839 84.3743 84.1303 84.4476C84.1866 84.5392 84.2429 84.6193 84.2991 84.6972C84.6759 85.2879 85.0746 85.865 85.5199 86.4145C85.5272 86.4214 85.5321 86.4283 85.537 86.4374L85.5443 86.4466C85.6471 86.5679 85.7841 86.6664 85.9358 86.7259C86.2562 86.8519 86.6281 86.8084 86.9045 86.6114C87.0391 86.5153 87.1467 86.3848 87.2128 86.2382C87.3473 85.9451 87.3008 85.5994 87.0905 85.3383ZM61.631 78.9544C61.6163 78.0133 61.6579 77.9606 62.6462 77.924C64.574 77.8507 66.5017 77.8187 68.4295 77.7225C69.1805 77.6836 69.6282 77.9583 70.0343 78.5285C73.1094 82.8562 76.2114 87.1702 79.3085 91.4841C79.5262 91.7886 79.7489 92.0978 80.0204 92.3588C80.4877 92.8122 81.0087 92.8488 81.52 92.5145C82.0485 92.171 82.1757 91.7429 81.8943 91.1521C81.7745 90.9025 81.6081 90.6712 81.4466 90.4445C78.604 86.4489 75.7515 82.4623 72.9161 78.4621C72.0183 77.1936 72.0574 77.205 73.3932 76.3944C76.0548 74.7801 77.941 72.701 78.2884 69.5846C78.8877 64.1899 74.3839 59.7477 69.0337 59.5118C66.262 59.3905 63.4755 59.5508 60.6964 59.6103C59.6225 59.6332 59.2922 59.9652 59.28 60.9544C59.2604 62.7267 59.2359 64.5013 59.2677 66.2736C59.3191 69.177 59.4243 72.0805 59.4855 74.9839C59.6029 80.4565 59.7057 85.9268 59.8206 91.3994C59.828 91.7337 59.85 92.0749 59.9381 92.3954C60.0408 92.7664 60.2708 93.0709 60.7552 93.0549C61.2224 93.0412 61.6016 92.8511 61.7337 92.4229C61.8316 92.1069 61.8438 91.7612 61.8389 91.4292C61.8144 89.3798 61.7753 87.3304 61.7386 85.2834C61.7019 83.1745 61.6628 81.0633 61.631 78.9544ZM61.357 62.8664C61.3447 62.0558 61.3545 61.9848 62.1838 61.9665C64.5642 61.9161 66.9763 61.694 69.3224 61.9619C74.7631 62.5801 76.8352 67.8947 74.8267 71.4256C73.4396 73.8642 71.3211 75.1488 68.3976 75.2564C66.4699 75.3274 64.5422 75.3251 62.612 75.3503C61.5771 75.364 61.5722 75.3594 61.5527 74.4206C61.516 72.4949 61.4866 70.5692 61.4524 68.6435C61.4206 66.7178 61.3839 64.7921 61.357 62.8664ZM38.5493 76.5959C38.635 81.5808 38.7181 86.5656 38.8111 91.5505C38.8184 91.9444 38.8698 92.3428 38.9579 92.7275C39.0362 93.0732 39.249 93.3388 39.6796 93.3732C40.137 93.4098 40.5774 93.3365 40.7486 92.9061C40.9125 92.4893 41.0349 92.0291 41.03 91.5894C40.9908 87.706 40.9028 83.8202 40.8612 79.9367C40.8392 77.9332 40.4991 78.169 42.7767 78.1301C44.768 78.0957 46.7643 78.1118 48.7508 77.9927C50.155 77.908 51.5249 77.5599 52.731 76.8203C55.5908 75.0709 57.159 72.5338 57.3082 69.406C57.5724 63.9357 53.4136 59.9011 47.4737 59.8095C44.9907 59.7706 42.5027 59.8645 40.0172 59.9034C39.6918 59.908 39.3615 59.9263 39.0435 59.9904C38.5836 60.082 38.29 60.343 38.2851 60.817C38.2827 61.062 38.2753 61.307 38.2778 61.5497C38.3634 66.5644 38.449 71.5813 38.5347 76.5959C38.5371 76.5982 38.542 76.5959 38.5493 76.5959ZM40.5676 63.251C40.5554 62.3054 40.6728 62.1703 41.6758 62.1657C43.7968 62.1542 45.9252 62.0833 48.0389 62.2161C50.8302 62.3901 53.6509 64.2219 54.4973 67.5146C55.2068 70.2738 53.2668 74.4733 49.1471 75.3526C48.4229 75.506 47.6621 75.5541 46.916 75.577C45.1839 75.6296 43.4519 75.6434 41.7199 75.6594C40.8122 75.6686 40.7707 75.6319 40.7535 74.8007C40.7144 72.8452 40.685 70.8898 40.6508 68.9343C40.6532 68.9343 40.6581 68.9343 40.6606 68.9343C40.6312 67.0406 40.5921 65.147 40.5676 63.251ZM54.3848 27.8258C55.493 27.8258 56.3957 26.9808 56.3957 25.9436C56.3957 24.9063 55.493 24.0614 54.3848 24.0614H38.8038C37.5732 24.0614 36.5727 24.9979 36.5727 26.1496V55.6581C36.5727 56.6954 37.4754 57.5403 38.6129 57.5403C39.7212 57.5403 40.6239 56.6954 40.6239 55.6581V42.9315H53.1029C54.0741 42.9315 54.8667 42.1919 54.8667 41.2805V41.0126C54.8667 40.1013 54.0765 39.3617 53.1029 39.3617H40.6239V27.8281H54.3848V27.8258ZM78.4254 26.0397V55.6581C78.4254 56.6954 77.5227 57.5403 76.4144 57.5403C75.2769 57.5403 74.3742 56.6954 74.3742 55.6581V30.8552L70.0269 35.7209C69.6135 36.1835 69.0313 36.4583 68.3634 36.4445C67.72 36.4422 67.1157 36.1743 66.7048 35.7095L62.4138 30.8345V55.6581C62.4138 56.6954 61.5111 57.5403 60.4029 57.5403C59.2947 57.5403 58.3919 56.6954 58.3919 55.6581V26.0855C58.3919 25.2749 58.9106 24.5559 59.713 24.2537C60.5154 23.9514 61.4206 24.1323 62.0224 24.7139L62.0786 24.7735L68.3658 31.8764L74.7998 24.6613C75.4016 24.0843 76.3092 23.9079 77.1068 24.2102C77.9092 24.5124 78.4254 25.2314 78.4254 26.0397ZM97.4313 71.4622H94.481V68.1672H92.3086L93.0278 69.3968H93.1673V75.4258L94.481 76.9165V72.5659H97.4313V75.4235L98.745 76.9142V68.1626H97.4313V71.4622ZM104.837 73.8001C104.837 74.242 104.673 74.6107 104.335 74.9267C103.997 75.2427 103.604 75.3961 103.131 75.3961C102.659 75.3961 102.265 75.2427 101.93 74.929C101.595 74.6152 101.431 74.2466 101.431 73.8001V68.1649H99.1927L99.9119 69.3945H100.115V73.6719C100.115 74.1802 100.25 74.6565 100.519 75.0892C100.785 75.5197 101.155 75.8655 101.615 76.1174C102.075 76.3692 102.586 76.4975 103.129 76.4975C103.672 76.4975 104.181 76.3692 104.643 76.1174C105.103 75.8655 105.473 75.5197 105.742 75.0892C106.011 74.6565 106.148 74.1802 106.148 73.6719V68.1603H104.834V73.8001H104.837ZM114.417 73.9146C114.417 74.2626 114.343 74.5992 114.199 74.9175C114.054 75.2335 113.856 75.5106 113.614 75.7395C113.369 75.9708 113.076 76.1563 112.738 76.2914C112.401 76.4265 112.041 76.4952 111.669 76.4952H107.305V69.4403H108.619V71.334H110.926C111.212 71.3317 111.449 71.2378 111.655 71.0455C111.858 70.8531 111.958 70.631 111.958 70.3608C111.958 70.0883 111.86 69.8639 111.657 69.6739C111.454 69.4838 111.214 69.3923 110.923 69.3923H107.388L106.85 68.1626H110.923C111.346 68.1626 111.743 68.2611 112.102 68.458C112.462 68.6526 112.748 68.9228 112.958 69.2572C113.166 69.5938 113.274 69.9647 113.274 70.3608C113.274 70.8165 113.14 71.2287 112.873 71.5904C113.277 71.7736 113.621 72.0438 113.898 72.3965C114.24 72.8452 114.417 73.3536 114.417 73.9146ZM112.68 72.962C112.398 72.6964 112.068 72.5682 111.667 72.5682H108.616V75.2633H111.667C112.066 75.2633 112.398 75.135 112.68 74.8694C112.961 74.6038 113.098 74.2924 113.098 73.9169C113.098 73.5413 112.961 73.2276 112.68 72.962ZM103.633 77.6149C103.471 77.6103 103.298 77.8232 103.298 77.9263C103.293 78.8536 103.315 79.7833 103.364 80.7107C103.369 80.8229 103.545 81.0404 103.709 81.0312C103.875 81.0198 103.995 80.7908 104.005 80.6626C104.037 80.2435 104.005 79.8199 103.997 79.3963C103.988 78.9178 104.002 78.4369 103.956 77.9629C103.946 77.8393 103.799 77.6195 103.633 77.6149ZM109.213 79.2681C109.296 78.8857 108.699 78.659 108.374 78.9132C107.64 79.4902 106.955 80.1245 106.27 80.7542C106.155 80.8595 106.109 81.0587 106.084 81.2213C106.023 81.6197 106.258 81.8281 106.662 81.7411C106.801 81.7113 106.958 81.6472 107.055 81.5556C107.713 80.9351 108.362 80.3054 108.998 79.6642C109.118 79.5497 109.191 79.3803 109.213 79.2681ZM107.655 83.9553C108.347 83.9874 109.039 84.0194 109.93 84.0606C109.91 84.0629 110.094 84.056 110.267 84.0125C110.561 83.937 110.943 83.8385 110.857 83.4996C110.803 83.2935 110.473 83.131 110.236 82.9982C110.123 82.934 109.94 82.9661 109.79 82.9775C109.069 83.0302 108.347 83.0669 107.63 83.1607C107.442 83.1859 107.156 83.3691 107.131 83.5111C107.082 83.8042 107.347 83.9416 107.655 83.9553ZM56.3296 22.9073L101.634 11.5202C101.95 11.4401 102.273 11.4011 102.593 11.4011C103.234 11.4011 103.868 11.5591 104.443 11.8682C105.304 12.3331 105.404 13.0795 105.658 13.9703L121.178 68.1535L122.998 69.1495L107.09 13.6108C106.73 12.3605 106.241 11.3736 105.159 10.689C104.01 9.96085 102.581 9.84407 101.248 10.1784L52.6332 22.3967H54.3848C55.0967 22.3967 55.7596 22.5867 56.3296 22.9073ZM100.888 81.883C101.079 81.8487 101.228 81.622 101.245 81.48C101.27 81.274 101.231 80.9763 101.086 80.8526C100.333 80.2069 99.5425 79.5978 98.7426 79.0002C98.6545 78.9338 98.3756 78.9796 98.2753 79.0643C98.1677 79.1559 98.1236 79.3597 98.1334 79.5085C98.1432 79.6345 98.2484 79.7764 98.3512 79.8703C98.9774 80.445 99.6061 81.0175 100.252 81.5716C100.401 81.6999 100.594 81.9357 100.888 81.883ZM125.834 79.0483L124.503 79.7581L127.238 89.3088C127.495 90.1995 127.725 91.0697 127.231 91.8757C126.734 92.6817 125.939 93.2587 124.987 93.4968L116.782 95.5668C116.843 95.0195 116.868 94.4654 116.836 93.8998C116.792 93.1053 116.388 92.6107 115.659 92.3405C115.275 92.1985 114.81 92.0955 114.419 92.1619C113.891 92.2512 113.722 92.0749 113.57 91.6627C113.069 90.2888 112.066 89.7164 110.568 89.9935C110.118 90.0759 109.803 90.0209 109.516 89.7118C108.868 89.0066 108.017 88.7959 107.063 88.8142C106.37 88.828 106.356 88.8211 106.317 88.1685C106.233 86.7809 106.172 85.3933 106.089 84.0057C106.021 82.8745 105.101 82.0342 103.924 82.0021C102.564 81.9632 101.624 82.6913 101.377 83.8385C101.179 84.7567 101.387 85.6429 101.412 86.545C101.468 88.6471 101.495 90.7491 101.517 92.8511C101.524 93.5129 101.475 94.1723 101.446 95.0218C101.142 94.6761 100.915 94.4608 100.744 94.2158C100.164 93.3846 99.638 92.5168 99.0264 91.7062C98.4001 90.8773 97.4411 90.6712 96.5457 91.088C95.5843 91.5345 95.1953 92.281 95.5256 93.2747C96.3231 95.6836 97.5267 97.9207 98.9016 100.08L51.7574 111.969C50.8057 112.209 49.4406 112.285 48.5795 111.822C47.7184 111.357 47.2682 110.508 47.0114 109.617L42.3902 93.538C41.9914 94.4837 41.0593 95.0493 39.8777 95.0493C39.7627 95.0493 39.6478 95.0447 39.5303 95.0356C38.3536 94.9417 37.4705 94.1883 37.221 93.0732C37.1084 92.5718 37.0473 92.0703 37.0375 91.5849C36.9616 87.5663 36.8931 83.5477 36.8246 79.5291L36.8051 78.3339H36.7904L36.7121 73.7795L25.3633 34.3013C24.9964 32.9549 24.9426 32.3641 25.471 31.5627C25.9921 30.7704 26.7431 30.3491 27.6923 30.1087L34.799 28.3226V26.8847L27.3058 28.7669C25.9725 29.1035 24.8765 29.74 24.1842 30.8689L24.1768 30.8758C22.1806 32.4214 20.385 36.0598 21.202 39.4556L43.7381 117.867C44.384 120.116 46.8768 121.46 49.2792 120.855L104.763 106.885C104.834 106.913 104.905 106.942 104.978 106.972C105.003 106.92 105.035 106.865 105.066 106.81L105.108 106.798C105.103 106.794 105.093 106.782 105.086 106.775C105.152 106.665 105.211 106.555 105.191 106.462C105.12 106.109 103.161 103.54 102.945 103.256C102.439 102.587 101.845 101.978 101.304 101.33C99.9119 99.6632 98.8771 97.8016 97.9451 95.8874C97.4925 94.9577 97.1108 93.9983 96.6998 93.0526C96.5408 92.6862 96.4821 92.3542 96.9176 92.084C97.3432 91.8207 97.6564 91.9398 97.9402 92.2603C98.1334 92.4779 98.3414 92.6885 98.493 92.9313C99.4055 94.3715 100.301 95.821 101.209 97.2658C101.316 97.4353 101.436 97.607 101.585 97.7421C102.026 98.1451 102.605 98.0008 102.772 97.4398C102.835 97.2269 102.828 96.9888 102.816 96.7644C102.762 95.7729 102.662 94.7837 102.637 93.7922C102.571 91.1521 102.522 88.5097 102.498 85.8673C102.493 85.2192 102.566 84.5621 102.674 83.9209C102.762 83.392 103.19 83.1562 103.824 83.1791C104.484 83.202 104.81 83.4378 104.854 84.0286C104.912 84.846 104.907 85.6681 104.939 86.4878C105.02 88.5852 105.103 90.6827 105.191 92.7801C105.203 93.0915 105.336 93.348 105.725 93.348C106.126 93.348 106.211 93.0778 106.236 92.7687C106.282 92.1756 106.319 91.5803 106.38 90.9895C106.454 90.2934 106.752 90.085 107.63 90.0828C108.359 90.0805 108.572 90.2522 108.626 90.9987C108.682 91.7612 108.677 92.5283 108.719 93.2907C108.734 93.538 108.734 93.838 108.88 94.0143C109.042 94.2112 109.36 94.3876 109.614 94.3921C109.749 94.3944 109.964 94.0349 110.018 93.8128C110.091 93.5151 110.033 93.1923 110.047 92.8809C110.064 92.542 110.062 92.1962 110.135 91.8665C110.265 91.2803 110.532 91.0834 111.195 91.0033C111.699 90.9414 112.056 91.2002 112.181 91.5963C112.371 92.2077 112.472 92.8488 112.562 93.4854C112.64 94.0418 112.628 94.612 112.711 95.1684C112.733 95.3218 112.981 95.5805 113.078 95.5622C113.274 95.5279 113.521 95.3699 113.599 95.2027C113.741 94.8959 113.773 94.5456 113.854 94.2158C114.052 93.4236 114.233 93.3045 115.119 93.3892C115.728 93.4487 115.904 93.5838 115.777 94.4402C115.581 95.7546 115.312 97.0689 114.928 98.3443C114.634 99.3198 114.072 100.224 113.702 101.184C113.396 101.983 113.181 102.814 112.961 103.638C112.834 104.117 113.105 104.719 113.426 104.705C113.71 104.692 113.832 104.536 113.903 104.348C113.881 104.449 113.851 104.538 113.805 104.605L123.779 102.093C126.905 100.465 128.253 95.3149 128.224 92.9977C128.329 92.8603 128.429 92.7183 128.52 92.5695C129.212 91.4406 129.034 90.1973 128.674 88.9493L125.834 79.0483ZM98.471 83.2935C97.9548 83.3027 97.4387 83.2913 96.9249 83.3279C96.7855 83.337 96.5531 83.4882 96.5482 83.5821C96.5408 83.7172 96.6729 83.9003 96.805 83.9851C96.942 84.0744 97.1451 84.1041 97.3212 84.1041C98.0796 84.1041 98.838 84.0904 99.5964 84.0606C99.7701 84.0537 99.9707 84.0102 100.103 83.9141C100.23 83.8225 100.355 83.6324 100.338 83.4996C100.325 83.408 100.076 83.2844 99.9291 83.2775C99.4422 83.2615 98.9579 83.2867 98.471 83.2935ZM123.133 78.572L130 74.9083L99.9046 58.4425C98.8551 58.5455 97.8178 58.7333 96.8099 59.0081L121.587 72.5659C122.128 72.6621 122.605 72.9323 122.947 73.3101L125.831 74.89L123.461 76.1563C123.402 76.9692 123.292 77.7752 123.133 78.572ZM93.9403 93.0114C93.9379 93.0091 93.9379 93.0068 93.9354 93.0022C93.9354 92.9999 93.933 92.9999 93.933 92.9977C93.9036 92.9931 93.8743 92.9885 93.8474 92.9839C93.3556 92.8557 92.9862 92.7572 92.6266 92.6427L89.8891 94.067L89.9038 91.3673C89.7081 91.2254 89.5393 91.0399 89.417 90.8224C89.1185 90.2934 89.1356 89.6431 89.4537 89.1279C89.5809 88.9287 89.7423 88.7593 89.9332 88.6242L90.1093 55.3444L92.6731 56.7481C93.4731 56.3954 94.2951 56.0909 95.1342 55.8344L88.0445 51.9555L87.8684 84.9422C88.2036 85.4253 88.2672 86.0367 88.025 86.5725C87.9809 86.6733 87.9222 86.7672 87.8562 86.8587L87.8464 88.7845C87.8415 88.7799 87.8342 88.7753 87.8293 88.7707L87.7803 97.4398L93.5024 94.4265C94.0308 94.1471 94.2241 93.5266 93.9403 93.0228C93.9428 93.0183 93.9403 93.016 93.9403 93.0114Z" fill="url(#paint0_linear_1992_11497)"/>
    <defs>
    <filter id="filter0_d_1992_11497" x="0.177002" y="-0.0766602" width="141.647" height="141.399" filterUnits="userSpaceOnUse" color-interpolation-filters="sRGB">
    <feFlood flood-opacity="0" result="BackgroundImageFix"/>
    <feColorMatrix in="SourceAlpha" type="matrix" values="0 0 0 0 0 0 0 0 0 0 0 0 0 0 0 0 0 0 127 0" result="hardAlpha"/>
    <feOffset dx="-4" dy="4"/>
    <feGaussianBlur stdDeviation="3"/>
    <feComposite in2="hardAlpha" operator="out"/>
    <feColorMatrix type="matrix" values="0 0 0 0 0.8625 0 0 0 0 0.8625 0 0 0 0 0.8625 0 0 0 1 0"/>
    <feBlend mode="normal" in2="BackgroundImageFix" result="effect1_dropShadow_1992_11497"/>
    <feBlend mode="normal" in="SourceGraphic" in2="effect1_dropShadow_1992_11497" result="shape"/>
    </filter>
    <linearGradient id="paint0_linear_1992_11497" x1="38.1597" y1="29.0693" x2="101.573" y2="99.9175" gradientUnits="userSpaceOnUse">
    <stop stop-color="#8000CC"/>
    <stop offset="0.6639" stop-color="#00B2B2"/>
    <stop offset="1" stop-color="#0080FF"/>
    </linearGradient>
    </defs>
</svg>
