<svg width="24" height="24" viewBox="0 0 24 24" fill="none" xmlns="http://www.w3.org/2000/svg">
<path d="M22.125 3.75H1.875C1.57673 3.75033 1.29077 3.86896 1.07986 4.07986C0.868957 4.29077 0.750326 4.57673 0.75 4.875V15.75H23.25V4.875C23.2497 4.57673 23.131 4.29077 22.9201 4.07986C22.7092 3.86896 22.4233 3.75033 22.125 3.75Z" fill="#616161"/>
<path d="M14.625 17.25H9.375V20.625H14.625V17.25Z" fill="#616161"/>
<path d="M21.375 5.25H2.625C2.52554 5.25 2.43016 5.28951 2.35984 5.35984C2.28951 5.43016 2.25 5.52554 2.25 5.625V15.75H21.75V5.625C21.75 5.52554 21.7105 5.43016 21.6402 5.35984C21.5698 5.28951 21.4745 5.25 21.375 5.25Z" fill="#90CAF9"/>
<path d="M0.75 15V16.875C0.750326 17.1733 0.868957 17.4592 1.07986 17.6701C1.29077 17.881 1.57673 17.9997 1.875 18H22.125C22.4233 17.9997 22.7092 17.881 22.9201 17.6701C23.131 17.4592 23.2497 17.1733 23.25 16.875V15H0.75Z" fill="#424242"/>
<path d="M15 19.875H9C8.70173 19.8753 8.41577 19.994 8.20486 20.2049C7.99396 20.4158 7.87533 20.7017 7.875 21V22.125C7.87499 22.1742 7.88468 22.223 7.90352 22.2685C7.92236 22.314 7.94998 22.3554 7.98481 22.3902C8.01963 22.425 8.06098 22.4526 8.10648 22.4715C8.15198 22.4903 8.20075 22.5 8.25 22.5H15.75C15.7993 22.5 15.848 22.4903 15.8935 22.4715C15.939 22.4527 15.9804 22.4251 16.0152 22.3902C16.0501 22.3554 16.0777 22.314 16.0965 22.2685C16.1153 22.223 16.125 22.1743 16.125 22.125V21C16.1247 20.7017 16.006 20.4158 15.7951 20.2049C15.5842 19.994 15.2983 19.8753 15 19.875Z" fill="#424242"/>
<path d="M12 11.625C14.4853 11.625 16.5 9.61028 16.5 7.125C16.5 4.63972 14.4853 2.625 12 2.625C9.51472 2.625 7.5 4.63972 7.5 7.125C7.5 9.61028 9.51472 11.625 12 11.625Z" fill="#F5F5F5"/>
<path d="M12 5.25C11.9507 5.24999 11.902 5.25968 11.8565 5.27852C11.8109 5.29736 11.7696 5.32498 11.7348 5.35981C11.7 5.39463 11.6723 5.43598 11.6535 5.48148C11.6347 5.52698 11.625 5.57575 11.625 5.625V7.07703L11.092 7.60987C11.0223 7.68033 10.9834 7.77549 10.9836 7.87457C10.9839 7.97364 11.0234 8.06858 11.0935 8.13863C11.1635 8.20869 11.2585 8.24816 11.3575 8.24845C11.4566 8.24873 11.5518 8.20978 11.6222 8.14013L12.2651 7.49744C12.2999 7.46263 12.3276 7.4213 12.3464 7.37581C12.3653 7.33032 12.375 7.28155 12.375 7.23231V5.625C12.375 5.57575 12.3653 5.52698 12.3465 5.48148C12.3276 5.43598 12.3 5.39463 12.2652 5.35981C12.2303 5.32498 12.189 5.29736 12.1435 5.27852C12.098 5.25968 12.0492 5.24999 12 5.25Z" fill="#424242"/>
<path d="M12 4.5C11.9508 4.50001 11.902 4.49032 11.8565 4.47148C11.811 4.45264 11.7696 4.42502 11.7348 4.39019C11.7 4.35537 11.6724 4.31402 11.6535 4.26852C11.6347 4.22302 11.625 4.17425 11.625 4.125V2.25C11.625 2.15054 11.6645 2.05516 11.7348 1.98484C11.8052 1.91451 11.9005 1.875 12 1.875C12.0995 1.875 12.1948 1.91451 12.2652 1.98484C12.3355 2.05516 12.375 2.15054 12.375 2.25V4.125C12.375 4.17425 12.3653 4.22302 12.3465 4.26852C12.3276 4.31402 12.3 4.35537 12.2652 4.39019C12.2304 4.42502 12.189 4.45264 12.1435 4.47148C12.098 4.49032 12.0492 4.50001 12 4.5Z" fill="#616161"/>
<path d="M12 12.375C11.9508 12.375 11.902 12.3653 11.8565 12.3465C11.811 12.3276 11.7696 12.3 11.7348 12.2652C11.7 12.2304 11.6724 12.189 11.6535 12.1435C11.6347 12.098 11.625 12.0492 11.625 12V10.125C11.625 10.0255 11.6645 9.93016 11.7348 9.85983C11.8052 9.78951 11.9005 9.75 12 9.75C12.0995 9.75 12.1948 9.78951 12.2652 9.85983C12.3355 9.93016 12.375 10.0255 12.375 10.125V12C12.375 12.0492 12.3653 12.098 12.3465 12.1435C12.3276 12.189 12.3 12.2304 12.2652 12.2652C12.2304 12.3 12.189 12.3276 12.1435 12.3465C12.098 12.3653 12.0492 12.375 12 12.375Z" fill="#616161"/>
<path d="M16.875 7.5H15C14.9005 7.5 14.8052 7.46049 14.7348 7.39017C14.6645 7.31984 14.625 7.22446 14.625 7.125C14.625 7.02554 14.6645 6.93016 14.7348 6.85983C14.8052 6.78951 14.9005 6.75 15 6.75H16.875C16.9745 6.75 17.0698 6.78951 17.1402 6.85983C17.2105 6.93016 17.25 7.02554 17.25 7.125C17.25 7.22446 17.2105 7.31984 17.1402 7.39017C17.0698 7.46049 16.9745 7.5 16.875 7.5Z" fill="#616161"/>
<path d="M9 7.5H7.125C7.02554 7.5 6.93016 7.46049 6.85983 7.39017C6.78951 7.31984 6.75 7.22446 6.75 7.125C6.75 7.02554 6.78951 6.93016 6.85983 6.85983C6.93016 6.78951 7.02554 6.75 7.125 6.75H9C9.09946 6.75 9.19484 6.78951 9.26517 6.85983C9.33549 6.93016 9.375 7.02554 9.375 7.125C9.375 7.22446 9.33549 7.31984 9.26517 7.39017C9.19484 7.46049 9.09946 7.5 9 7.5Z" fill="#616161"/>
<path d="M15.4472 3.30286C15.5213 3.30287 15.5938 3.32487 15.6555 3.36608C15.7171 3.40729 15.7652 3.46585 15.7935 3.53436C15.8219 3.60287 15.8293 3.67826 15.8149 3.75099C15.8004 3.82373 15.7647 3.89054 15.7123 3.94298L14.3864 5.26867C14.3516 5.30349 14.3103 5.33111 14.2648 5.34996C14.2193 5.3688 14.1705 5.3785 14.1213 5.3785C14.0721 5.3785 14.0233 5.3688 13.9778 5.34996C13.9323 5.33111 13.891 5.30349 13.8562 5.26867C13.8213 5.23386 13.7937 5.19252 13.7749 5.14703C13.756 5.10154 13.7463 5.05278 13.7463 5.00354C13.7463 4.9543 13.756 4.90554 13.7749 4.86005C13.7937 4.81456 13.8213 4.77322 13.8562 4.7384L15.182 3.41272C15.2168 3.37784 15.2581 3.35018 15.3036 3.33133C15.3491 3.31247 15.3979 3.3028 15.4472 3.30286Z" fill="#616161"/>
<path d="M8.5529 10.9472C8.47874 10.9471 8.40626 10.9251 8.3446 10.8839C8.28295 10.8427 8.2349 10.7842 8.20652 10.7156C8.17814 10.6471 8.17072 10.5717 8.18518 10.499C8.19964 10.4263 8.23535 10.3595 8.28777 10.307L9.61364 8.98134C9.64846 8.94653 9.68979 8.91891 9.73528 8.90006C9.78078 8.88122 9.82953 8.87152 9.87878 8.87152C9.92802 8.87152 9.97677 8.88122 10.0223 8.90006C10.0678 8.91891 10.1091 8.94653 10.1439 8.98134C10.1787 9.01616 10.2063 9.0575 10.2252 9.10299C10.244 9.14848 10.2537 9.19724 10.2537 9.24648C10.2537 9.29572 10.244 9.34448 10.2252 9.38997C10.2063 9.43546 10.1787 9.4768 10.1439 9.51162L8.81805 10.8373C8.78327 10.8722 8.74194 10.8998 8.69644 10.9187C8.65093 10.9375 8.60215 10.9472 8.5529 10.9472Z" fill="#616161"/>
<path d="M15.4472 10.9471C15.3979 10.9472 15.3491 10.9375 15.3036 10.9187C15.2581 10.8998 15.2168 10.8721 15.182 10.8373L13.8562 9.51159C13.8213 9.47677 13.7937 9.43543 13.7749 9.38994C13.756 9.34445 13.7463 9.29569 13.7463 9.24645C13.7463 9.19721 13.756 9.14845 13.7749 9.10296C13.7937 9.05747 13.8213 9.01613 13.8562 8.98131C13.891 8.9465 13.9323 8.91888 13.9778 8.90003C14.0233 8.88119 14.0721 8.87149 14.1213 8.87149C14.1705 8.87149 14.2193 8.88119 14.2648 8.90003C14.3103 8.91888 14.3516 8.9465 14.3864 8.98131L15.7123 10.307C15.7647 10.3594 15.8004 10.4263 15.8149 10.499C15.8294 10.5717 15.8219 10.6471 15.7936 10.7156C15.7652 10.7841 15.7171 10.8427 15.6555 10.8839C15.5938 10.9251 15.5213 10.9471 15.4472 10.9471Z" fill="#616161"/>
<path d="M8.55292 3.30286C8.60217 3.3028 8.65095 3.31248 8.69645 3.33133C8.74195 3.35019 8.78327 3.37785 8.81805 3.41273L10.1439 4.73841C10.2142 4.80873 10.2537 4.9041 10.2537 5.00355C10.2537 5.10299 10.2142 5.19837 10.1439 5.26869C10.0736 5.339 9.97822 5.37851 9.87877 5.37851C9.77933 5.37851 9.68396 5.339 9.61364 5.26869L8.28777 3.943C8.23534 3.89056 8.19964 3.82375 8.18518 3.75102C8.17072 3.67828 8.17814 3.6029 8.20652 3.53438C8.2349 3.46587 8.28295 3.40731 8.3446 3.3661C8.40626 3.3249 8.47876 3.30287 8.55292 3.30286Z" fill="#616161"/>
<path d="M12 1.5C10.8875 1.5 9.79995 1.8299 8.87492 2.44798C7.94989 3.06607 7.22892 3.94457 6.80318 4.97241C6.37744 6.00024 6.26604 7.13124 6.48309 8.22238C6.70013 9.31353 7.23586 10.3158 8.02253 11.1025C8.8092 11.8891 9.81148 12.4249 10.9026 12.6419C11.9938 12.859 13.1248 12.7476 14.1526 12.3218C15.1804 11.8961 16.0589 11.1751 16.677 10.2501C17.2951 9.32506 17.625 8.23752 17.625 7.125C17.6233 5.63367 17.0302 4.20389 15.9756 3.14936C14.9211 2.09482 13.4913 1.50166 12 1.5ZM12 11.625C11.11 11.625 10.24 11.3611 9.49994 10.8666C8.75991 10.3721 8.18314 9.66934 7.84254 8.84708C7.50195 8.02481 7.41284 7.12001 7.58647 6.24709C7.7601 5.37418 8.18869 4.57236 8.81802 3.94302C9.44736 3.31368 10.2492 2.8851 11.1221 2.71147C11.995 2.53783 12.8998 2.62695 13.7221 2.96754C14.5443 3.30814 15.2471 3.88491 15.7416 4.62493C16.2361 5.36496 16.5 6.23498 16.5 7.125C16.4987 8.31806 16.0241 9.46187 15.1805 10.3055C14.3369 11.1491 13.1931 11.6237 12 11.625Z" fill="#F44336"/>
<path d="M19.875 16.875C20.0821 16.875 20.25 16.7071 20.25 16.5C20.25 16.2929 20.0821 16.125 19.875 16.125C19.6679 16.125 19.5 16.2929 19.5 16.5C19.5 16.7071 19.6679 16.875 19.875 16.875Z" fill="#F44336"/>
<path d="M18.75 16.875C18.9571 16.875 19.125 16.7071 19.125 16.5C19.125 16.2929 18.9571 16.125 18.75 16.125C18.5429 16.125 18.375 16.2929 18.375 16.5C18.375 16.7071 18.5429 16.875 18.75 16.875Z" fill="#FFB300"/>
</svg>
