<svg width="24" height="24" viewBox="0 0 24 24" fill="none" xmlns="http://www.w3.org/2000/svg">
<path d="M18.5866 15.6037V20.4706C18.5866 22.0292 14.6072 23.2929 9.70257 23.2929C4.79492 23.2929 0.815491 22.0292 0.815491 20.4706V15.6037C0.815491 14.042 4.79492 12.7783 9.70257 12.7783C14.6072 12.7783 18.5866 14.042 18.5866 15.6037Z" fill="#4F5D99"/>
<path d="M18.5866 15.6037C18.5866 17.1621 14.6072 18.426 9.70257 18.426C4.79492 18.426 0.815491 17.1621 0.815491 15.6037C0.815491 14.042 4.79492 12.7783 9.70257 12.7783C14.6072 12.7783 18.5866 14.042 18.5866 15.6037Z" fill="#3D4A75"/>
<path d="M0.815491 15.6035C0.815491 17.162 4.79492 18.4258 9.70257 18.4258C14.6072 18.4258 18.5866 17.162 18.5866 15.6035V20.4709C18.5866 22.0294 14.6072 23.2932 9.70257 23.2932C4.79492 23.2932 0.815491 22.0294 0.815491 20.4709V15.6035Z" fill="#4F5D99"/>
<path d="M6.44883 20.7746C6.44883 20.9981 6.25229 21.1705 6.02878 21.1463C4.08748 20.9254 2.80314 20.4731 2.29967 20.1338C2.2108 20.0745 2.16235 19.9722 2.16235 19.8673C2.16235 19.6411 2.38309 19.4849 2.59312 19.5576C3.64055 19.9265 4.86027 20.2657 6.10957 20.4003C6.30073 20.4219 6.44883 20.5808 6.44883 20.7746Z" fill="#E9E9FF"/>
<path d="M17.489 19.624C17.489 19.9596 17.2162 20.2293 16.8807 20.2293C16.5451 20.2293 16.2723 19.9596 16.2723 19.624C16.2723 19.2885 16.5451 19.0156 16.8807 19.0156C17.2162 19.0156 17.489 19.2885 17.489 19.624Z" fill="#7BD681"/>
<path d="M13.2556 20.5434C13.2556 20.879 12.9827 21.1487 12.6472 21.1487C12.3117 21.1487 12.0389 20.879 12.0389 20.5434C12.0389 20.2079 12.3117 19.9351 12.6472 19.9351C12.9827 19.9351 13.2556 20.2079 13.2556 20.5434Z" fill="#ED524E"/>
<path d="M18.5866 9.56707V14.434C18.5866 15.9926 14.6072 17.2563 9.70257 17.2563C4.79492 17.2563 0.815491 15.9926 0.815491 14.434V9.56707C0.815491 8.0054 4.79492 6.7417 9.70257 6.7417C14.6072 6.7417 18.5866 8.0054 18.5866 9.56707Z" fill="#4F5D99"/>
<path d="M18.5866 9.56707C18.5866 11.1255 14.6072 12.3894 9.70257 12.3894C4.79492 12.3894 0.815491 11.1255 0.815491 9.56707C0.815491 8.0054 4.79492 6.7417 9.70257 6.7417C14.6072 6.7417 18.5866 8.0054 18.5866 9.56707Z" fill="#3D4A75"/>
<path d="M0.815491 9.56689C0.815491 11.1253 4.79492 12.3892 9.70257 12.3892C14.6072 12.3892 18.5866 11.1253 18.5866 9.56689V14.4343C18.5866 15.9928 14.6072 17.2566 9.70257 17.2566C4.79492 17.2566 0.815491 15.9928 0.815491 14.4343V9.56689Z" fill="#4F5D99"/>
<path d="M6.44883 14.738C6.44883 14.9615 6.25229 15.1338 6.02878 15.1096C4.08748 14.8888 2.80314 14.4365 2.29967 14.0972C2.2108 14.0379 2.16235 13.9356 2.16235 13.8307C2.16235 13.6044 2.38309 13.4482 2.59312 13.5209C3.64055 13.8899 4.86027 14.229 6.10957 14.3637C6.30073 14.3852 6.44883 14.5442 6.44883 14.738Z" fill="#E9E9FF"/>
<path d="M17.489 13.5874C17.489 13.923 17.2162 14.1926 16.8807 14.1926C16.5451 14.1926 16.2723 13.923 16.2723 13.5874C16.2723 13.2519 16.5451 12.979 16.8807 12.979C17.2162 12.979 17.489 13.2519 17.489 13.5874Z" fill="#7BD681"/>
<path d="M15.405 14.1943C15.405 14.5299 15.1321 14.7996 14.7966 14.7996C14.4611 14.7996 14.1883 14.5299 14.1883 14.1943C14.1883 13.8588 14.4611 13.5859 14.7966 13.5859C15.1321 13.5859 15.405 13.8588 15.405 14.1943Z" fill="#FDC72E"/>
<path d="M13.2556 14.5068C13.2556 14.8424 12.9827 15.1121 12.6472 15.1121C12.3117 15.1121 12.0389 14.8424 12.0389 14.5068C12.0389 14.1713 12.3117 13.8984 12.6472 13.8984C12.9827 13.8984 13.2556 14.1713 13.2556 14.5068Z" fill="#ED524E"/>
<path d="M18.5866 3.53093V8.39785C18.5866 9.95646 14.6072 11.2202 9.70257 11.2202C4.79492 11.2202 0.815491 9.95646 0.815491 8.39785V3.53093C0.815491 1.96926 4.79492 0.705566 9.70257 0.705566C14.6072 0.705566 18.5866 1.96926 18.5866 3.53093Z" fill="#4F5D99"/>
<path d="M18.5866 3.53093C18.5866 5.08939 14.6072 6.35324 9.70257 6.35324C4.79492 6.35324 0.815491 5.08939 0.815491 3.53093C0.815491 1.96926 4.79492 0.705566 9.70257 0.705566C14.6072 0.705566 18.5866 1.96926 18.5866 3.53093Z" fill="#3D4A75"/>
<path d="M0.815491 3.53076C0.815491 5.08922 4.79492 6.35307 9.70257 6.35307C14.6072 6.35307 18.5866 5.08922 18.5866 3.53076V8.39817C18.5866 9.95662 14.6072 11.2205 9.70257 11.2205C4.79492 11.2205 0.815491 9.95662 0.815491 8.39817V3.53076Z" fill="#4F5D99"/>
<path d="M6.44883 8.70184C6.44883 8.92534 6.25229 9.0977 6.02878 9.07351C4.08748 8.85264 2.80314 8.40038 2.29967 8.06105C2.2108 8.00176 2.16235 7.89947 2.16235 7.79456C2.16235 7.5683 2.38309 7.41211 2.59312 7.48481C3.64055 7.85372 4.86027 8.19292 6.10957 8.32754C6.30073 8.3491 6.44883 8.50805 6.44883 8.70184Z" fill="#E9E9FF"/>
<path d="M17.489 7.55122C17.489 7.88686 17.2162 8.1565 16.8807 8.1565C16.5451 8.1565 16.2723 7.88686 16.2723 7.55122C16.2723 7.21573 16.5451 6.94287 16.8807 6.94287C17.2162 6.94287 17.489 7.21573 17.489 7.55122Z" fill="#7BD681"/>
<path d="M15.405 8.15815C15.405 8.49379 15.1321 8.76343 14.7966 8.76343C14.4611 8.76343 14.1883 8.49379 14.1883 8.15815C14.1883 7.82266 14.4611 7.5498 14.7966 7.5498C15.1321 7.5498 15.405 7.82266 15.405 8.15815Z" fill="#FDC72E"/>
<path d="M13.2556 8.47065C13.2556 8.80629 12.9827 9.07593 12.6472 9.07593C12.3117 9.07593 12.0389 8.80629 12.0389 8.47065C12.0389 8.13516 12.3117 7.8623 12.6472 7.8623C12.9827 7.8623 13.2556 8.13516 13.2556 8.47065Z" fill="#ED524E"/>
<path d="M23.0556 17.9657L21.8892 17.6576C21.8295 17.4626 21.7478 17.2709 21.6535 17.0916L22.2633 16.051C22.3011 15.985 22.2917 15.9001 22.2351 15.8435L21.4397 15.0481C21.3831 14.9915 21.2982 14.9789 21.229 15.0198L20.1883 15.6266C20.0658 15.5637 19.94 15.5039 19.8079 15.4568C19.7451 15.4316 19.6854 15.4128 19.6225 15.3908L19.3176 14.2275C19.2955 14.1521 19.2295 14.0986 19.1509 14.0986H18.0222C17.9436 14.0986 17.8745 14.1521 17.8556 14.2275L17.8179 14.369L17.7676 14.5639L17.5506 15.3908C17.3526 15.4537 17.1639 15.5323 16.9817 15.6266L15.9441 15.0198C15.875 14.9789 15.7901 14.9915 15.7335 15.0481L15.221 15.5606L14.9381 15.8435C14.8815 15.9001 14.872 15.985 14.9098 16.051L15.5165 17.0916C15.4222 17.2709 15.3436 17.4626 15.2839 17.6607L14.1175 17.9657C14.0421 17.9845 13.9886 18.0537 13.9886 18.1323V19.2578C13.9886 19.3396 14.0421 19.4056 14.1175 19.4245L15.2839 19.7326C15.3436 19.9274 15.4222 20.1193 15.5197 20.2984L14.9098 21.3391C14.872 21.4051 14.8815 21.4931 14.9381 21.5466L15.7335 22.3451C15.7901 22.3986 15.875 22.4112 15.9441 22.3703L16.9817 21.7635C17.1074 21.8295 17.2331 21.8861 17.3651 21.9364C17.4249 21.9584 17.4878 21.9804 17.5506 21.9993L17.8556 23.1657C17.8745 23.2411 17.9436 23.2946 18.0222 23.2946H19.1509C19.2295 23.2946 19.2955 23.2411 19.3176 23.1657L19.6225 21.9993C19.8205 21.9364 20.0092 21.8578 20.1883 21.7635L20.1916 21.7667L20.3362 21.8515L20.9869 22.2288L21.229 22.3703C21.2479 22.3829 21.2699 22.3891 21.2919 22.3954C21.3454 22.4017 21.3988 22.3829 21.4397 22.3451L22.2351 21.5466C22.2917 21.4931 22.3011 21.4051 22.2633 21.3391L21.6535 20.2984C21.7478 20.1193 21.8295 19.9274 21.8892 19.7326L23.0556 19.4245C23.1311 19.4056 23.1846 19.3396 23.1846 19.2578V18.1323C23.1846 18.0537 23.1311 17.9845 23.0556 17.9657ZM18.585 20.8895C17.3746 20.8895 16.3906 19.9086 16.3906 18.6951C16.3906 17.4846 17.3746 16.5006 18.585 16.5006C19.7954 16.5006 20.7794 17.4846 20.7794 18.6951C20.7794 19.9086 19.7954 20.8895 18.585 20.8895Z" fill="#70C1F9"/>
<path d="M18.5848 20.8897C19.7969 20.8897 20.7794 19.9071 20.7794 18.6951C20.7794 17.483 19.7969 16.5005 18.5848 16.5005C17.3728 16.5005 16.3903 17.483 16.3903 18.6951C16.3903 19.9071 17.3728 20.8897 18.5848 20.8897Z" fill="#4F5D99"/>
<path d="M18.5849 20.4669C19.5634 20.4669 20.3566 19.6736 20.3566 18.6951C20.3566 17.7166 19.5634 16.9233 18.5849 16.9233C17.6064 16.9233 16.8131 17.7166 16.8131 18.6951C16.8131 19.6736 17.6064 20.4669 18.5849 20.4669Z" fill="#E9E9FF"/>
</svg>
