<svg width="19" height="19" viewBox="0 0 19 19" fill="none" xmlns="http://www.w3.org/2000/svg">
<g clip-path="url(#clip0_621_8549)">
<path d="M7.22242 13.8226L6.67625 13.5713L6.50703 13.1617L6.71452 12.5977C6.74975 12.502 6.72606 12.3945 6.65391 12.3224L6.07482 11.744C6.00279 11.6721 5.89553 11.6485 5.79995 11.6836L5.23492 11.8909L4.8244 11.7217L4.57274 11.1763C4.53 11.0837 4.43731 11.0244 4.33532 11.0244H3.51534C3.41335 11.0244 3.32066 11.0837 3.27792 11.1763L3.02626 11.7217L2.61574 11.8909L2.05071 11.6836C1.9551 11.6485 1.84787 11.6721 1.77584 11.744L1.19675 12.3224C1.12457 12.3945 1.10091 12.502 1.1361 12.5977L1.3436 13.1617L1.17437 13.5713L0.628204 13.8226C0.53548 13.8653 0.476044 13.9581 0.476044 14.0602V14.8791C0.476044 14.9812 0.535443 15.0739 0.628204 15.1166L1.17433 15.368L1.34356 15.7776L1.13607 16.3416C1.10084 16.4373 1.12453 16.5448 1.19671 16.6169L1.7758 17.1953C1.84783 17.2672 1.9551 17.2908 2.05068 17.2558L2.6157 17.0484L3.02623 17.2176L3.27789 17.763C3.32062 17.8556 3.41331 17.9149 3.5153 17.9149H4.33528C4.43727 17.9149 4.52996 17.8556 4.5727 17.763L4.82436 17.2176L5.23488 17.0484L5.79991 17.2558C5.89545 17.2908 6.00272 17.2672 6.07479 17.1953L6.65388 16.6169C6.72606 16.5448 6.74971 16.4373 6.71448 16.3416L6.50699 15.7776L6.67621 15.368L7.22235 15.1166C7.31507 15.0739 7.37451 14.9812 7.37451 14.8791V14.0602C7.37451 13.9581 7.31511 13.8653 7.22235 13.8226H7.22242ZM3.92546 15.0824C3.58712 15.0824 3.31187 14.8076 3.31187 14.4698C3.31187 14.132 3.58712 13.8569 3.92546 13.8569C4.2638 13.8569 4.53879 14.1318 4.53879 14.4698C4.53879 14.8078 4.26365 15.0824 3.92546 15.0824Z" fill="#7CA1B1"/>
<path d="M3.92581 12.417C2.79253 12.417 1.87056 13.3379 1.87056 14.47C1.87056 15.602 2.79253 16.522 3.92581 16.522C5.05908 16.522 5.98014 15.6015 5.98014 14.47C5.98014 13.3385 5.05857 12.417 3.92581 12.417ZM3.92548 15.0823C3.58714 15.0823 3.31189 14.8075 3.31189 14.4697C3.31189 14.1319 3.58714 13.8568 3.92548 13.8568C4.26382 13.8568 4.53881 14.1317 4.53881 14.4697C4.53881 14.8077 4.26367 15.0823 3.92548 15.0823Z" fill="#8EBAC5"/>
<path d="M3.92079 15.6684C3.25952 15.6684 2.72156 15.1309 2.72156 14.4702C2.72156 13.8095 3.25952 13.271 3.92079 13.271C4.58206 13.271 5.12006 13.809 5.12006 14.4702C5.12006 15.1315 4.58209 15.6684 3.92079 15.6684ZM3.92079 13.8569C3.58263 13.8569 3.3075 14.1321 3.3075 14.4702C3.3075 14.8084 3.58263 15.0825 3.92079 15.0825C4.25895 15.0825 4.53412 14.8078 4.53412 14.4702C4.53412 14.1326 4.25898 13.8569 3.92079 13.8569Z" fill="#537983"/>
<path d="M7.22244 13.8226L6.67628 13.5712L6.50705 13.1616L6.71454 12.5976C6.74977 12.5019 6.72612 12.3944 6.65394 12.3223L6.07485 11.744C6.00281 11.672 5.89555 11.6484 5.79997 11.6835L5.69168 11.7232C5.69996 11.7297 5.70809 11.7364 5.71567 11.744L6.29476 12.3223C6.36694 12.3944 6.39059 12.5019 6.35537 12.5976L6.14787 13.1616L6.3171 13.5712L6.86326 13.8226C6.95599 13.8652 7.01542 13.958 7.01542 14.0601V14.8791C7.01542 14.9812 6.95602 15.0739 6.86326 15.1166L6.31713 15.368L6.14791 15.7776L6.3554 16.3416C6.39063 16.4373 6.36697 16.5448 6.29479 16.6169L5.7157 17.1952C5.70816 17.2028 5.69999 17.2095 5.69172 17.216L5.80001 17.2557C5.89559 17.2907 6.00281 17.2672 6.07488 17.1952L6.65397 16.6169C6.72615 16.5448 6.74981 16.4373 6.71458 16.3416L6.50709 15.7776L6.67631 15.368L7.22244 15.1166C7.31517 15.0739 7.3746 14.9812 7.3746 14.8791V14.0601C7.3746 13.958 7.3152 13.8652 7.22244 13.8226Z" fill="#6B96A5"/>
<path d="M17.3484 3.63367L16.8022 3.3823L16.633 2.97273L16.8405 2.40873C16.8757 2.313 16.852 2.20552 16.7799 2.13341L16.2008 1.55505C16.1288 1.48309 16.0215 1.45951 15.9259 1.49459L15.3609 1.70194L14.9504 1.53275L14.6987 0.987353C14.656 0.894739 14.5633 0.835449 14.4613 0.835449H13.6413C13.5393 0.835449 13.4466 0.894739 13.4039 0.987353L13.1522 1.53275L12.7417 1.70194L12.1767 1.49459C12.0811 1.45951 11.9738 1.48309 11.9018 1.55505L11.3227 2.13341C11.2505 2.20552 11.2269 2.313 11.2621 2.40873L11.4696 2.97273L11.3003 3.3823L10.7542 3.63367C10.6615 3.67633 10.602 3.76909 10.602 3.87119V4.69015C10.602 4.79225 10.6614 4.88497 10.7542 4.92767L11.3003 5.17908L11.4695 5.58865L11.262 6.15265C11.2268 6.24838 11.2505 6.35586 11.3227 6.42797L11.9018 7.00632C11.9738 7.07828 12.0811 7.10183 12.1767 7.06678L12.7417 6.8594L13.1522 7.02859L13.4039 7.57399C13.4466 7.6666 13.5393 7.72589 13.6413 7.72589H14.4613C14.5633 7.72589 14.6559 7.6666 14.6987 7.57399L14.9503 7.02859L15.3609 6.8594L15.9259 7.06678C16.0214 7.10183 16.1287 7.07825 16.2008 7.00632L16.7799 6.42797C16.852 6.35586 16.8757 6.24838 16.8405 6.15265L16.633 5.58865L16.8022 5.17908L17.3483 4.92767C17.441 4.88497 17.5005 4.79225 17.5005 4.69015V3.87119C17.5005 3.76909 17.4411 3.67633 17.3483 3.63367H17.3484ZM14.0514 4.89347C13.7131 4.89347 13.4378 4.61863 13.4378 4.28083C13.4378 3.94304 13.7131 3.66791 14.0514 3.66791C14.3898 3.66791 14.6648 3.94286 14.6648 4.28083C14.6648 4.61881 14.3896 4.89347 14.0514 4.89347Z" fill="#7CA1B1"/>
<path d="M14.0517 2.22803C12.9185 2.22803 11.9965 3.14897 11.9965 4.28101C11.9965 5.41304 12.9185 6.33307 14.0517 6.33307C15.185 6.33307 16.1061 5.41252 16.1061 4.28101C16.1061 3.14949 15.1845 2.22803 14.0517 2.22803ZM14.0514 4.89335C13.7131 4.89335 13.4378 4.61851 13.4378 4.28071C13.4378 3.94292 13.7131 3.66779 14.0514 3.66779C14.3898 3.66779 14.6647 3.94274 14.6647 4.28071C14.6647 4.61869 14.3896 4.89335 14.0514 4.89335Z" fill="#8EBAC5"/>
<path d="M14.0467 5.47947C13.3855 5.47947 12.8475 4.94194 12.8475 4.28126C12.8475 3.62058 13.3855 3.08203 14.0467 3.08203C14.708 3.08203 15.246 3.62 15.246 4.28126C15.246 4.94253 14.708 5.47947 14.0467 5.47947ZM14.0467 3.66797C13.7086 3.66797 13.4334 3.9431 13.4334 4.28126C13.4334 4.61942 13.7086 4.89353 14.0467 4.89353C14.3849 4.89353 14.6601 4.61887 14.6601 4.28126C14.6601 3.94365 14.3849 3.66797 14.0467 3.66797Z" fill="#537983"/>
<path d="M17.3484 3.63361L16.8022 3.38224L16.633 2.97267L16.8405 2.40867C16.8757 2.31295 16.852 2.20546 16.7799 2.13336L16.2008 1.555C16.1287 1.48304 16.0215 1.45945 15.9259 1.49454L15.8176 1.53427C15.8259 1.54075 15.834 1.54745 15.8416 1.555L16.4207 2.13336C16.4929 2.20546 16.5165 2.31295 16.4813 2.40867L16.2738 2.97267L16.443 3.38224L16.9892 3.63361C17.0819 3.67628 17.1413 3.76904 17.1413 3.87114V4.69009C17.1413 4.79219 17.0819 4.88492 16.9892 4.92762L16.443 5.17902L16.2738 5.58859L16.4813 6.15259C16.5165 6.24832 16.4929 6.3558 16.4207 6.42791L15.8416 7.00627C15.8341 7.01381 15.8259 7.02051 15.8176 7.027L15.9259 7.06673C16.0215 7.10178 16.1287 7.07819 16.2008 7.00627L16.7799 6.42791C16.8521 6.3558 16.8757 6.24832 16.8405 6.15259L16.633 5.58859L16.8022 5.17902L17.3484 4.92762C17.4411 4.88492 17.5005 4.79219 17.5005 4.69009V3.87114C17.5005 3.76904 17.4411 3.67628 17.3484 3.63361Z" fill="#6B96A5"/>
<path d="M17.9809 17.3286H17.5005V11.1738C17.5005 11.012 17.3693 10.8809 17.2075 10.8809H15.7064C15.5446 10.8809 15.4134 11.012 15.4134 11.1738V17.3286H14.9664V13.7317C14.9664 13.5699 14.8353 13.4388 14.6735 13.4388H13.1724C13.0106 13.4388 12.8794 13.5699 12.8794 13.7317V17.3286H12.4324V12.7009C12.4324 12.5391 12.3012 12.4079 12.1394 12.4079H10.6383C10.4765 12.4079 10.3453 12.5391 10.3453 12.7009V17.3286H9.89834V14.7989C9.89834 14.6371 9.76716 14.5059 9.60537 14.5059H8.10427C7.94248 14.5059 7.8113 14.6371 7.8113 14.7989V17.3286H7.33087C7.16908 17.3286 7.0379 17.4598 7.0379 17.6216C7.0379 17.7833 7.16908 17.9145 7.33087 17.9145H17.9809C18.1427 17.9145 18.2738 17.7833 18.2738 17.6216C18.2738 17.4598 18.1427 17.3286 17.9809 17.3286H17.9809Z" fill="#537983"/>
<path d="M8.77782 6.0757C8.77782 8.36869 6.91996 10.2266 4.62697 10.2266C2.33397 10.2266 0.476074 8.36869 0.476074 6.0757C0.476074 3.7827 2.33394 1.9248 4.62693 1.9248V6.07566H8.77778L8.77782 6.0757Z" fill="#01D0FB"/>
<path d="M5.7164 0.835449C8.00939 0.835449 9.86725 2.69441 9.86725 4.9863H5.7164V0.835449Z" fill="#F46240"/>
<path d="M4.00436 6.0757H4.62692V1.9248C4.41533 1.9248 4.20743 1.94073 4.00436 1.97128V6.0757Z" fill="#01C0FA"/>
<path d="M8.15522 6.07568C8.15522 8.26398 6.46314 10.0558 4.31564 10.215C4.4184 10.2226 4.52219 10.2265 4.62692 10.2265C6.91992 10.2265 8.77778 8.36868 8.77778 6.07568H8.15522Z" fill="#01C0FA"/>
<path d="M5.92999 0.84082C7.82748 1.26647 9.24475 2.96114 9.24475 4.98629H9.86731C9.86731 2.76599 8.12371 0.951965 5.92999 0.84082Z" fill="#EA5334"/>
<path d="M17.2834 8.34961L16.346 8.09839C16.1897 8.05664 16.0291 8.14926 15.9872 8.30556C15.9453 8.46185 16.038 8.62247 16.1943 8.66437L16.4488 8.73256L13.4317 10.4752L12.6679 9.6924C12.579 9.60132 12.4415 9.57807 12.3275 9.63483L7.97366 11.8055C7.82886 11.8777 7.76998 12.0536 7.84219 12.1984C7.89346 12.3012 7.99703 12.3608 8.10462 12.3608C8.14853 12.3608 8.19313 12.3508 8.2351 12.3299L12.3977 10.2545L13.1714 11.0473C13.2649 11.1432 13.4116 11.1634 13.5276 11.0964L16.7417 9.24002L16.6733 9.49527C16.6315 9.65156 16.7243 9.81218 16.8806 9.85404C16.906 9.86085 16.9314 9.86408 16.9565 9.86408C17.0859 9.86408 17.2043 9.77772 17.2393 9.6468L17.4906 8.70835C17.5324 8.55209 17.4397 8.39147 17.2834 8.34961Z" fill="#537983"/>
<path d="M17.5005 11.1738C17.5005 11.012 17.3693 10.8809 17.2076 10.8809H15.7064C15.5446 10.8809 15.4135 11.012 15.4135 11.1738V17.3286H17.5005V11.1738Z" fill="#30E5A3"/>
<path d="M14.9665 13.7319C14.9665 13.5701 14.8353 13.439 14.6735 13.439H13.1724C13.0106 13.439 12.8795 13.5701 12.8795 13.7319V17.3288H14.9665V13.7319Z" fill="#F9D641"/>
<path d="M9.89844 14.7993C9.89844 14.6375 9.76726 14.5063 9.60547 14.5063H8.10437C7.94258 14.5063 7.8114 14.6375 7.8114 14.7993V17.329H9.89844V14.7993Z" fill="#F46240"/>
<path d="M12.4325 12.7012C12.4325 12.5394 12.3013 12.4082 12.1395 12.4082H10.6384C10.4766 12.4082 10.3454 12.5394 10.3454 12.7012V17.3289H12.4325V12.7012Z" fill="#01D0FB"/>
<path d="M9.60547 14.5063H9.17114C9.33293 14.5063 9.46411 14.6375 9.46411 14.7993V17.329H9.89844V14.7993C9.89844 14.6375 9.76726 14.5063 9.60547 14.5063Z" fill="#EA5334"/>
<path d="M12.1395 12.4082H11.7052C11.867 12.4082 11.9981 12.5394 11.9981 12.7012V17.3289H12.4325V12.7012C12.4325 12.5394 12.3013 12.4082 12.1395 12.4082Z" fill="#01C0FA"/>
<path d="M14.6735 13.439H14.2392C14.401 13.439 14.5322 13.5701 14.5322 13.7319V17.3288H14.9665V13.7319C14.9665 13.5701 14.8353 13.439 14.6735 13.439Z" fill="#E5C335"/>
<path d="M17.2076 10.8809H16.7732C16.935 10.8809 17.0662 11.012 17.0662 11.1738V17.3286H17.5005V11.1738C17.5005 11.012 17.3693 10.8809 17.2076 10.8809Z" fill="#24D18F"/>
</g>
<defs>
<clipPath id="clip0_621_8549">
<rect width="18.75" height="18.75" fill="white"/>
</clipPath>
</defs>
</svg>
