<svg width="16" height="16" viewBox="0 0 16 16" fill="none" xmlns="http://www.w3.org/2000/svg">
<rect width="16" height="16" fill="white"/>
<path d="M11 1H3C2.44687 1 2 1.44687 2 2V14C2 14.5531 2.44687 15 3 15H13C13.5531 15 14 14.5531 14 14V4L11 1ZM13 14H3V2H10V5H13V14ZM4 7.16563V11.8344C4 12.4781 4.59687 13 5.33437 13H10.6656C11.4031 13 12 12.4781 12 11.8344V7.16563C12 6.52187 11.4031 6 10.6656 6H5.33437C4.59687 6 4 6.52187 4 7.16563ZM7.71875 11.8438H5.34375V10.375H7.71875V11.8438ZM8.28125 8.34375H10.6562V9.8125H8.28125V8.34375ZM8.28125 10.375H10.6562V11.8438H8.28125V10.375ZM7.71875 9.78125H5.34375V8.3125H7.71875V9.78125Z" fill="url(#paint0_linear_4004_10503)"/>
<defs>
<linearGradient id="paint0_linear_4004_10503" x1="-1.5" y1="4" x2="9" y2="9" gradientUnits="userSpaceOnUse">
<stop stop-color="#9933FF"/>
<stop offset="1" stop-color="#FFC000"/>
</linearGradient>
</defs>
</svg>
