<svg width="115" height="115" viewBox="0 0 115 115" fill="none" xmlns="http://www.w3.org/2000/svg">
<path d="M0 8C0 3.58172 3.58172 0 8 0H95C106.046 0 115 8.95431 115 20V107C115 111.418 111.418 115 107 115H8C3.58172 115 0 111.418 0 107V8Z" fill="white"/>
<path d="M98.1277 65.5736C98.1277 65.5856 98.1277 65.5976 98.1277 65.6096C98.1277 67.8007 97.6824 69.9298 96.8039 71.9408C96.1476 73.4435 95.5227 74.36 94.4376 75.6165C93.919 76.0588 92.7738 75.4024 93.3499 74.51C95.29 72.0128 96.4291 68.9352 96.4291 65.6096V65.5756C96.4265 65.1354 96.8082 64.7773 97.2771 64.7753H97.2797C97.746 64.7773 98.1277 65.1334 98.1277 65.5736ZM71.8661 52.6572C72.0111 52.6572 72.1561 52.6212 72.2819 52.5553L72.2926 52.5512C74.7296 51.2245 77.5163 50.5222 80.3523 50.5222C85.851 50.5222 90.913 53.1195 93.8911 57.4717C94.0471 57.6998 94.3155 57.8378 94.6058 57.8378C94.7679 57.8378 94.9274 57.7938 95.0642 57.7117C95.2542 57.5957 95.3858 57.4176 95.4355 57.2095C95.4843 57.0014 95.4416 56.7873 95.3196 56.6072C93.7421 54.2981 91.5588 52.3711 89.0069 51.0345C87.71 50.3562 86.3268 49.8319 84.8957 49.4777C83.4202 49.1115 81.8897 48.9275 80.3497 48.9275H80.3479C78.7615 48.9275 77.188 49.1236 75.672 49.5117C74.1987 49.8879 72.783 50.4421 71.461 51.1606C71.4546 51.1646 71.4461 51.1685 71.4375 51.1725L71.4354 51.1745C71.1753 51.3186 71.0133 51.5827 71.0133 51.8669C71.0154 52.005 71.0538 52.1431 71.1284 52.263C71.2819 52.5052 71.5633 52.6572 71.8661 52.6572ZM74.6486 79.8427C74.5718 79.5725 74.3501 79.3624 74.0686 79.2924C73.9066 79.2524 73.768 79.2203 73.6443 79.1923C73.2819 79.1103 73.041 79.0563 72.6166 78.8762C72.1774 78.6801 71.9045 78.518 71.493 78.2739L71.4524 78.2499C71.3245 78.1738 71.1796 78.1358 71.0282 78.1358C70.8896 78.1358 70.7552 78.1698 70.6359 78.2339C70.5122 78.2998 70.4077 78.3959 70.3331 78.5139C70.186 78.7501 70.1795 79.0482 70.316 79.2904C70.3821 79.4084 70.4781 79.5065 70.5868 79.5725L70.6209 79.5925C70.8533 79.7286 71.1007 79.8647 71.3565 79.9947V80.0047L71.4653 80.0548C72.38 80.469 72.751 80.567 73.6763 80.8111C73.7381 80.8252 73.8021 80.8331 73.8661 80.8331C73.9428 80.8331 74.0175 80.8232 74.0878 80.8031C74.365 80.7271 74.5825 80.5129 74.6528 80.2428C74.6891 80.1128 74.6848 79.9747 74.6486 79.8427ZM67.6018 74.8362C67.4419 74.6381 67.2883 74.436 67.1391 74.2299L67.1434 74.1939C67.0133 74.0178 66.8897 73.8397 66.7681 73.6596C66.7361 73.6116 66.7041 73.5615 66.6721 73.5135C66.5826 73.3755 66.493 73.2374 66.4078 73.0953C66.3779 73.0453 66.3481 72.9973 66.3182 72.9473C66.2287 72.7972 66.1433 72.6451 66.0581 72.493C66.0368 72.455 66.0176 72.419 65.9962 72.381C65.8939 72.1909 65.7959 71.9988 65.702 71.8047C65.702 71.8047 65.702 71.8027 65.6999 71.8027C65.6785 71.7566 65.6551 71.7107 65.6337 71.6646C65.6274 71.6506 65.621 71.6366 65.6146 71.6226C65.5463 71.4705 65.4782 71.3185 65.4163 71.1644L65.412 71.1683C65.3268 70.9663 65.2457 70.7622 65.1689 70.5581C65.1498 70.51 65.1327 70.4601 65.1157 70.41C65.0581 70.2499 65.0026 70.0879 64.9515 69.9258C64.9323 69.8677 64.9152 69.8117 64.8982 69.7537C64.847 69.5876 64.8001 69.4195 64.7553 69.2514C64.7426 69.2054 64.7298 69.1594 64.717 69.1113C64.6615 68.8933 64.6104 68.6752 64.5635 68.455C64.5635 68.453 64.5635 68.453 64.5635 68.451C64.5208 68.2389 64.4824 68.0268 64.4483 67.8127C64.4376 67.7487 64.4291 67.6846 64.4205 67.6207C64.3971 67.4665 64.3779 67.3125 64.3609 67.1564C64.3524 67.0824 64.3438 67.0083 64.3374 66.9323C64.3225 66.7782 64.3118 66.6241 64.3012 66.47C64.2969 66.4021 64.2927 66.334 64.2884 66.266C64.2777 66.0459 64.2713 65.8257 64.2713 65.6036C64.2713 63.1545 64.8769 60.8173 66.0709 58.6602C66.2862 58.27 66.1242 57.7878 65.7084 57.5837C65.5869 57.5237 65.4547 57.4936 65.3182 57.4936C64.9984 57.4936 64.7084 57.6597 64.5613 57.9239C63.9196 59.0844 63.4227 60.317 63.0901 61.5876C62.7447 62.8943 62.572 64.245 62.572 65.6036C62.572 67.1143 62.7873 68.6151 63.2138 70.0558C63.3118 70.39 63.4227 70.7181 63.5421 71.0443C63.5891 71.1744 63.6466 71.3025 63.6977 71.4305C63.7745 71.6226 63.8491 71.8146 63.9345 72.0048C64.0048 72.1629 64.0816 72.319 64.1583 72.475C64.233 72.6311 64.3076 72.7872 64.3886 72.9412C64.4739 73.1073 64.5677 73.2694 64.6593 73.4315C64.7127 73.5235 64.7596 73.6195 64.8129 73.7117C64.8427 73.7637 64.879 73.8117 64.9089 73.8637C64.9472 73.9278 64.9814 73.9937 65.0218 74.0578C65.0709 74.1378 65.12 74.2078 65.1689 74.2759C65.4973 74.7921 65.8448 75.2964 66.2329 75.7766C66.2393 75.7826 66.2436 75.7887 66.2478 75.7966L66.2542 75.8047C66.3438 75.9107 66.4632 75.9967 66.5954 76.0487C66.8747 76.1589 67.1988 76.1208 67.4397 75.9487C67.557 75.8647 67.6508 75.7507 67.7084 75.6226C67.8256 75.3664 67.7851 75.0643 67.6018 74.8362ZM45.4123 69.2574C45.3995 68.435 45.4358 68.389 46.2971 68.357C47.9773 68.2929 49.6574 68.265 51.3376 68.1809C51.9922 68.1469 52.3824 68.387 52.7363 68.8853C55.4165 72.6671 58.12 76.437 60.8193 80.2068C61.0091 80.4729 61.2032 80.7431 61.4398 80.9712C61.8471 81.3674 62.3012 81.3994 62.7468 81.1073C63.2074 80.8071 63.3183 80.433 63.073 79.9167C62.9686 79.6986 62.8236 79.4964 62.6828 79.2983C60.2053 75.8067 57.7192 72.3229 55.248 68.8272C54.4655 67.7187 54.4996 67.7287 55.6638 67.0203C57.9835 65.6096 59.6275 63.7928 59.9303 61.0694C60.4526 56.3551 56.5273 52.4732 51.8642 52.2671C49.4485 52.1611 47.0199 52.3011 44.5978 52.3531C43.6618 52.3731 43.3739 52.6633 43.3633 53.5277C43.3462 55.0765 43.3249 56.6272 43.3526 58.176C43.3974 60.7132 43.4891 63.2505 43.5424 65.7877C43.6447 70.5701 43.7343 75.3504 43.8345 80.1328C43.8409 80.4249 43.8601 80.7231 43.9369 81.0032C44.0264 81.3274 44.2268 81.5935 44.649 81.5795C45.0562 81.5675 45.3867 81.4014 45.5019 81.0272C45.5872 80.7511 45.5978 80.449 45.5935 80.1588C45.5722 78.3679 45.5381 76.577 45.5061 74.7882C45.4741 72.9453 45.4401 71.1003 45.4123 69.2574ZM45.1735 55.1986C45.1628 54.4902 45.1714 54.4281 45.8941 54.4122C47.9688 54.3681 50.0711 54.174 52.1159 54.4081C56.8578 54.9484 58.6637 59.5927 56.9132 62.6782C55.7042 64.8092 53.8578 65.9318 51.3098 66.0259C49.6297 66.0879 47.9496 66.0859 46.2673 66.1079C45.3654 66.1199 45.3611 66.1159 45.3441 65.2955C45.3121 63.6126 45.2865 61.9298 45.2567 60.247C45.229 58.5642 45.197 56.8814 45.1735 55.1986ZM25.2953 67.1964C25.37 71.5526 25.4424 75.9087 25.5234 80.2648C25.5298 80.6091 25.5746 80.9572 25.6514 81.2934C25.7196 81.5955 25.9051 81.8276 26.2804 81.8576C26.679 81.8896 27.0629 81.8256 27.2121 81.4495C27.3549 81.0852 27.4616 80.6831 27.4573 80.2988C27.4232 76.9052 27.3465 73.5095 27.3102 70.1158C27.2911 68.365 26.9946 68.5711 28.9797 68.5371C30.7152 68.507 32.4551 68.5211 34.1865 68.417C35.4103 68.343 36.6043 68.0388 37.6555 67.3925C40.1479 65.8637 41.5147 63.6466 41.6448 60.9133C41.875 56.133 38.2504 52.6073 33.0734 52.5272C30.9093 52.4932 28.7409 52.5753 26.5746 52.6093C26.291 52.6133 26.0031 52.6293 25.726 52.6853C25.3252 52.7653 25.0693 52.9934 25.065 53.4076C25.0629 53.6217 25.0565 53.8358 25.0586 54.0479C25.1332 58.4301 25.2078 62.8143 25.2825 67.1964C25.2846 67.1984 25.2889 67.1964 25.2953 67.1964ZM27.0543 55.5346C27.0437 54.7083 27.146 54.5902 28.0202 54.5862C29.8688 54.5762 31.7238 54.5142 33.566 54.6303C35.9988 54.7823 38.4572 56.3831 39.1949 59.2605C39.8133 61.6717 38.1224 65.3415 34.5319 66.1099C33.9007 66.244 33.2376 66.286 32.5873 66.306C31.0777 66.352 29.5682 66.364 28.0586 66.378C27.2675 66.3861 27.2314 66.354 27.2164 65.6276C27.1823 63.9188 27.1567 62.21 27.1268 60.5011C27.1289 60.5011 27.1332 60.5011 27.1354 60.5011C27.1098 58.8463 27.0757 57.1915 27.0543 55.5346ZM39.0968 24.5775C40.0627 24.5775 40.8495 23.8391 40.8495 22.9327C40.8495 22.0262 40.0627 21.2879 39.0968 21.2879H25.5171C24.4445 21.2879 23.5725 22.1063 23.5725 23.1127V48.8994C23.5725 49.8059 24.3593 50.5442 25.3507 50.5442C26.3166 50.5442 27.1034 49.8059 27.1034 48.8994V37.778H37.9796C38.8261 37.778 39.5169 37.1317 39.5169 36.3352V36.1011C39.5169 35.3047 38.8281 34.6584 37.9796 34.6584H27.1034V24.5795H39.0968V24.5775ZM60.0497 23.0167V48.8994C60.0497 49.8059 59.2629 50.5442 58.297 50.5442C57.3056 50.5442 56.5188 49.8059 56.5188 48.8994V27.2248L52.7299 31.4768C52.3696 31.8811 51.8621 32.1212 51.28 32.1091C50.7193 32.1071 50.1926 31.873 49.8345 31.4669L46.0946 27.2067V48.8994C46.0946 49.8059 45.3078 50.5442 44.342 50.5442C43.3761 50.5442 42.5893 49.8059 42.5893 48.8994V23.0567C42.5893 22.3483 43.0414 21.72 43.7407 21.4559C44.44 21.1918 45.229 21.3498 45.7535 21.8581L45.8025 21.9102L51.2821 28.1172L56.8897 21.8121C57.4142 21.3079 58.2053 21.1537 58.9004 21.4179C59.5998 21.682 60.0497 22.3103 60.0497 23.0167ZM76.6144 62.7102H74.0431V59.8308H72.1497L72.7765 60.9053H72.8981V66.1739L74.0431 67.4766V63.6747H76.6144V66.1719L77.7594 67.4746V59.8268H76.6144V62.7102ZM83.0689 64.7532C83.0689 65.1394 82.926 65.4616 82.6314 65.7377C82.3368 66.0139 81.9943 66.1479 81.5821 66.1479C81.1707 66.1479 80.8273 66.0139 80.5353 65.7397C80.2433 65.4655 80.1004 65.1434 80.1004 64.7532V59.8288H78.1496L78.7764 60.9033H78.9534V64.6412C78.9534 65.0854 79.0711 65.5016 79.3055 65.8797C79.5374 66.2559 79.8599 66.5581 80.2608 66.7783C80.6617 66.9983 81.1071 67.1104 81.5803 67.1104C82.0536 67.1104 82.4972 66.9983 82.8999 66.7783C83.3008 66.5581 83.6233 66.2559 83.8577 65.8797C84.0922 65.5016 84.2116 65.0854 84.2116 64.6412V59.8248H83.0663V64.7532H83.0689ZM91.4185 64.8533C91.4185 65.1574 91.354 65.4515 91.2285 65.7297C91.1021 66.0058 90.9295 66.248 90.7186 66.448C90.5051 66.6501 90.2497 66.8122 89.9551 66.9303C89.6614 67.0484 89.3477 67.1084 89.0234 67.1084H85.22V60.9433H86.3652V62.5982H88.3759C88.6251 62.5962 88.8317 62.5141 89.0112 62.3461C89.1882 62.1779 89.2753 61.9838 89.2753 61.7477C89.2753 61.5096 89.1899 61.3135 89.013 61.1474C88.8361 60.9813 88.6269 60.9014 88.3733 60.9014H85.2923L84.8234 59.8268H88.3733C88.7419 59.8268 89.0879 59.9128 89.4008 60.0849C89.7146 60.255 89.9639 60.4911 90.1469 60.7833C90.3282 61.0775 90.4223 61.4016 90.4223 61.7477C90.4223 62.1459 90.3055 62.5061 90.0728 62.8222C90.4249 62.9823 90.7247 63.2184 90.9661 63.5267C91.2642 63.9188 91.4185 64.363 91.4185 64.8533ZM89.9046 64.0208C89.6588 63.7887 89.3712 63.6767 89.0217 63.6767H86.3626V66.0319H89.0217C89.3694 66.0319 89.6588 65.9198 89.9046 65.6877C90.1495 65.4556 90.2689 65.1834 90.2689 64.8553C90.2689 64.5271 90.1495 64.2529 89.9046 64.0208ZM82.0196 68.0869C81.8784 68.0829 81.7276 68.2689 81.7276 68.359C81.7233 69.1693 81.7424 69.9818 81.7851 70.7922C81.7895 70.8903 81.9429 71.0803 82.0858 71.0723C82.2305 71.0623 82.3351 70.8622 82.3438 70.7502C82.3717 70.3839 82.3438 70.0138 82.3368 69.6436C82.329 69.2255 82.3412 68.8052 82.3011 68.391C82.2924 68.283 82.1643 68.0909 82.0196 68.0869ZM86.8829 69.5316C86.9552 69.1974 86.4349 68.9993 86.1517 69.2214C85.5119 69.7257 84.9149 70.28 84.3179 70.8302C84.2177 70.9223 84.1776 71.0963 84.1558 71.2384C84.1026 71.5866 84.3074 71.7687 84.6595 71.6927C84.7807 71.6666 84.9175 71.6106 85.0021 71.5306C85.5756 70.9883 86.1412 70.438 86.6955 69.8777C86.8001 69.7777 86.8637 69.6296 86.8829 69.5316ZM85.525 73.6276C86.1281 73.6556 86.7312 73.6836 87.5078 73.7196C87.4904 73.7216 87.6507 73.7156 87.8015 73.6776C88.0578 73.6116 88.3907 73.5255 88.3157 73.2294C88.2687 73.0493 87.9811 72.9073 87.7745 72.7912C87.676 72.7351 87.5165 72.7632 87.3858 72.7731C86.7574 72.8192 86.1281 72.8512 85.5032 72.9332C85.3394 72.9552 85.0901 73.1153 85.0683 73.2394C85.0256 73.4955 85.2566 73.6156 85.525 73.6276ZM40.7919 20.2793L80.2773 10.3285C80.5528 10.2585 80.8343 10.2244 81.1132 10.2244C81.6718 10.2244 82.2244 10.3625 82.7256 10.6326C83.476 11.0388 83.5631 11.6911 83.7845 12.4695L97.3111 59.8188L98.8973 60.6892L85.0326 12.1554C84.7188 11.0628 84.2926 10.2003 83.3496 9.60209C82.3482 8.96578 81.1027 8.86373 79.9409 9.15589L37.5702 19.8331H39.0968C39.7173 19.8331 40.2951 19.9992 40.7919 20.2793ZM79.6272 71.8167C79.7936 71.7867 79.9235 71.5886 79.9383 71.4645C79.9601 71.2845 79.9261 71.0243 79.7997 70.9162C79.1434 70.352 78.4545 69.8197 77.7573 69.2975C77.6805 69.2394 77.4374 69.2795 77.35 69.3535C77.2563 69.4335 77.2178 69.6116 77.2264 69.7416C77.2349 69.8518 77.3266 69.9758 77.4162 70.0578C77.962 70.56 78.5099 71.0603 79.0728 71.5445C79.2027 71.6567 79.3709 71.8627 79.6272 71.8167ZM101.369 69.3395L100.209 69.9598L102.593 78.3059C102.817 79.0842 103.017 79.8447 102.587 80.549C102.153 81.2534 101.461 81.7576 100.631 81.9657L93.4797 83.7746C93.5329 83.2963 93.5547 82.8121 93.5268 82.3178C93.4884 81.6235 93.1363 81.1913 92.501 80.9552C92.1663 80.8311 91.761 80.7411 91.4202 80.7991C90.96 80.8772 90.8128 80.7231 90.6803 80.3629C90.2436 79.1623 89.3695 78.6621 88.0639 78.9042C87.6717 78.9762 87.3971 78.9282 87.147 78.658C86.5822 78.0418 85.8405 77.8577 85.009 77.8737C84.405 77.8857 84.3928 77.8797 84.3589 77.3094C84.2856 76.0968 84.2325 74.8842 84.1601 73.6716C84.1009 72.6831 83.299 71.9488 82.2732 71.9207C81.0879 71.8867 80.2686 72.523 80.0533 73.5255C79.8808 74.3279 80.0621 75.1023 80.0839 75.8907C80.1327 77.7276 80.1562 79.5645 80.1754 81.4014C80.1815 81.9797 80.1388 82.556 80.1135 83.2983C79.8485 82.9962 79.6507 82.8081 79.5017 82.594C78.9962 81.8676 78.5377 81.1093 78.0047 80.4009C77.4588 79.6765 76.623 79.4964 75.8426 79.8607C75.0047 80.2509 74.6656 80.9032 74.9535 81.7716C75.6486 83.8766 76.6976 85.8316 77.8959 87.7185L36.8069 98.108C35.9775 98.3178 34.7877 98.3842 34.0372 97.9796C33.2867 97.5732 32.8943 96.8313 32.6705 96.0527L28.6428 82.0017C28.2953 82.8281 27.4829 83.3223 26.453 83.3223C26.3528 83.3223 26.2527 83.3183 26.1503 83.3104C25.1247 83.2283 24.355 82.5699 24.1376 81.5955C24.0394 81.1573 23.9862 80.7191 23.9776 80.2949C23.9115 76.7831 23.8518 73.2714 23.7921 69.7596L23.7751 68.7152H23.7623L23.694 64.7352L13.8029 30.2363C13.4831 29.0597 13.4362 28.5434 13.8968 27.8431C14.3509 27.1507 15.0055 26.7825 15.8327 26.5725L22.0267 25.0116V23.7551L15.4959 25.3999C14.3338 25.694 13.3786 26.2503 12.7752 27.2368L12.7688 27.2428C11.029 28.5935 9.464 31.773 10.1761 34.7405L29.8176 103.262C30.3806 105.227 32.5532 106.402 34.647 105.873L83.0045 93.6653C83.0663 93.6897 83.1282 93.7151 83.1918 93.7413C83.2136 93.6958 83.2415 93.6478 83.2685 93.5997L83.3051 93.5892C83.3008 93.5857 83.2921 93.5752 83.286 93.5691C83.3435 93.473 83.3949 93.3769 83.3775 93.2956C83.3156 92.9871 81.6082 90.7421 81.42 90.494C80.9789 89.9093 80.4612 89.3772 79.9897 88.8109C78.7764 87.3543 77.8745 85.7275 77.0622 84.0547C76.6678 83.2423 76.3351 82.4039 75.9769 81.5775C75.8383 81.2573 75.7872 80.9672 76.1667 80.731C76.5377 80.501 76.8106 80.605 77.058 80.8851C77.2264 81.0753 77.4076 81.2593 77.5398 81.4715C78.3351 82.73 79.1156 83.9967 79.9069 85.2593C80.0002 85.4074 80.1048 85.5575 80.2346 85.6755C80.619 86.0277 81.1236 85.9016 81.2692 85.4113C81.3241 85.2253 81.318 85.0172 81.3075 84.8211C81.2605 83.9547 81.1733 83.0902 81.1515 82.2238C81.094 79.9167 81.0513 77.6076 81.0304 75.2984C81.026 74.7321 81.0896 74.1579 81.1838 73.5975C81.2605 73.1353 81.6335 72.9293 82.1861 72.9493C82.7613 72.9693 83.0454 73.1754 83.0838 73.6916C83.1343 74.406 83.13 75.1244 83.1578 75.8407C83.2284 77.6735 83.3008 79.5065 83.3775 81.3393C83.3879 81.6115 83.5039 81.8356 83.8429 81.8356C84.1924 81.8356 84.2665 81.5995 84.2883 81.3294C84.3283 80.8111 84.3606 80.2909 84.4138 79.7746C84.4783 79.1663 84.738 78.9842 85.5032 78.9823C86.1386 78.9802 86.3242 79.1303 86.3713 79.7826C86.4201 80.449 86.4157 81.1193 86.4523 81.7856C86.4654 82.0017 86.4654 82.2638 86.5927 82.4179C86.7339 82.5899 87.011 82.7441 87.2324 82.748C87.35 82.75 87.5374 82.4359 87.5845 82.2418C87.6481 81.9816 87.5976 81.6996 87.6098 81.4274C87.6246 81.1313 87.6228 80.8291 87.6865 80.541C87.7998 80.0287 88.0325 79.8567 88.6103 79.7867C89.0496 79.7326 89.3607 79.9587 89.4697 80.3049C89.6353 80.8391 89.7233 81.3994 89.8017 81.9557C89.8697 82.4419 89.8593 82.9402 89.9316 83.4264C89.9508 83.5605 90.1669 83.7865 90.2515 83.7706C90.4223 83.7406 90.6376 83.6025 90.7055 83.4564C90.8293 83.1883 90.8572 82.8822 90.9278 82.594C91.1004 81.9017 91.2581 81.7976 92.0303 81.8716C92.5611 81.9236 92.7145 82.0417 92.6038 82.7901C92.433 83.9387 92.1985 85.0872 91.8639 86.2018C91.6076 87.0542 91.1178 87.8444 90.7953 88.6833C90.5286 89.3815 90.3412 90.1077 90.1495 90.8278C90.0388 91.2464 90.275 91.7724 90.5548 91.7602C90.8023 91.7488 90.9086 91.6125 90.9705 91.4482C90.9513 91.5365 90.9252 91.6143 90.8851 91.6728L99.578 89.4777C102.303 88.055 103.477 83.5544 103.452 81.5295C103.544 81.4094 103.631 81.2853 103.71 81.1553C104.313 80.1688 104.158 79.0823 103.844 77.9917L101.369 69.3395ZM77.5206 73.0493C77.0707 73.0573 76.6209 73.0473 76.1731 73.0793C76.0516 73.0873 75.849 73.2194 75.8448 73.3015C75.8383 73.4195 75.9534 73.5795 76.0686 73.6536C76.188 73.7317 76.365 73.7576 76.5185 73.7576C77.1795 73.7576 77.8405 73.7457 78.5014 73.7196C78.6528 73.7136 78.8277 73.6756 78.943 73.5916C79.0537 73.5115 79.1626 73.3454 79.1478 73.2294C79.1365 73.1493 78.9195 73.0413 78.7914 73.0353C78.3671 73.0213 77.945 73.0433 77.5206 73.0493ZM99.015 68.9233L105 65.7217L78.7701 51.3326C77.8554 51.4226 76.9513 51.5867 76.0728 51.8269L97.6676 63.6747C98.1391 63.7588 98.5548 63.9949 98.8529 64.325L101.366 65.7057L99.3009 66.8123C99.2494 67.5226 99.1536 68.227 99.015 68.9233ZM73.5718 81.5415C73.5697 81.5395 73.5697 81.5375 73.5676 81.5334C73.5676 81.5314 73.5655 81.5314 73.5655 81.5295C73.5398 81.5255 73.5143 81.5215 73.4909 81.5174C73.0622 81.4054 72.7403 81.3193 72.4269 81.2193L70.041 82.4639L70.0538 80.1047C69.8832 79.9807 69.7361 79.8186 69.6295 79.6286C69.3693 79.1663 69.3842 78.598 69.6615 78.1478C69.7723 77.9737 69.913 77.8257 70.0794 77.7076L70.2329 48.6253L72.4674 49.8519C73.1646 49.5437 73.8811 49.2776 74.6124 49.0535L68.4333 45.6638L68.2798 74.49C68.5719 74.9122 68.6274 75.4465 68.4163 75.9147C68.3779 76.0028 68.3267 76.0848 68.2692 76.1648L68.2606 77.8477C68.2564 77.8437 68.25 77.8397 68.2457 77.8356L68.203 85.4113L73.1902 82.7781C73.6507 82.5339 73.8192 81.9917 73.5718 81.5514C73.574 81.5475 73.5718 81.5455 73.5718 81.5415Z" fill="url(#paint0_linear_3678_21655)"/>
<defs>
<linearGradient id="paint0_linear_3678_21655" x1="24.9557" y1="25.6642" x2="80.387" y2="87.4305" gradientUnits="userSpaceOnUse">
<stop stop-color="#8000CC"/>
<stop offset="0.6639" stop-color="#00B2B2"/>
<stop offset="1" stop-color="#0080FF"/>
</linearGradient>
</defs>
</svg>
