<svg width="25" height="25" viewBox="0 0 25 25" fill="none" xmlns="http://www.w3.org/2000/svg">
<path d="M9.375 5C10.4062 5 11.25 4.15625 11.25 3.125C11.25 2.09375 10.4062 1.25 9.375 1.25C8.34375 1.25 7.5 2.09375 7.5 3.125C7.5 4.15625 8.34375 5 9.375 5Z" fill="white"/>
<path d="M9.375 7.5C8.34375 7.5 7.5 8.34375 7.5 9.375C7.5 10.4062 8.34375 11.25 9.375 11.25C10.4062 11.25 11.25 10.4062 11.25 9.375C11.25 8.34375 10.4062 7.5 9.375 7.5Z" fill="white"/>
<path d="M9.375 13.75C8.34375 13.75 7.5 14.5938 7.5 15.625C7.5 16.6562 8.34375 17.5 9.375 17.5C10.4062 17.5 11.25 16.6562 11.25 15.625C11.25 14.5938 10.4062 13.75 9.375 13.75Z" fill="white"/>
</svg>
