<svg width="42" height="42" viewBox="0 0 42 42" fill="none" xmlns="http://www.w3.org/2000/svg">
<path d="M7.19701 33.8168L7.52907 34.1218L8.20657 34.4759L9.48462 34.7377L10.8705 34.5375L11.8713 33.1671V31.7351L11.471 30.5957L10.9411 30.0728C10.5358 29.8511 10.0812 29.7353 9.61931 29.736C8.09558 29.736 6.86036 30.9712 6.86036 32.4949C6.85958 32.9568 6.97537 33.4115 7.19701 33.8168Z" fill="#FDDCBC"/>
<path d="M10.941 30.0729C11.1626 30.4781 11.2785 30.9327 11.2778 31.3946C11.2778 32.9184 10.0426 34.1536 8.51885 34.1536C8.05695 34.1542 7.60235 34.0384 7.19708 33.8168C7.6654 34.6731 8.57439 35.254 9.61922 35.254C11.143 35.254 12.3782 34.0187 12.3782 32.495C12.3782 31.4502 11.7973 30.5412 10.941 30.0729Z" fill="#FDDCBC"/>
<path d="M12.5506 35.2539H6.68776C5.16403 35.2539 3.9288 36.4891 3.9288 38.0129V41.1797C3.9288 41.6327 4.29606 42 4.74911 42H6.07252L6.68776 41.5281L7.30299 42H11.9354L12.5506 41.5281L13.1658 42H15.3096V38.0129C15.3096 36.4892 14.0743 35.2539 12.5506 35.2539Z" fill="#439BDF"/>
<path d="M18.5779 33.8168L19.1545 34.3373L19.9552 34.7377L20.6943 35.0148L21.495 34.907L22.4035 34.5837L23.158 33.706L23.312 32.813V31.5503L23.0195 30.7496L22.3219 30.0728C21.9167 29.8511 21.4621 29.7353 21.0002 29.736C19.4764 29.736 18.2412 30.9712 18.2412 32.4949C18.2404 32.9568 18.3562 33.4115 18.5779 33.8168Z" fill="#FDDCBC"/>
<path d="M22.3218 30.0729C22.5434 30.4781 22.6592 30.9327 22.6586 31.3946C22.6586 32.9184 21.4233 34.1536 19.8996 34.1536C19.4377 34.1542 18.9831 34.0384 18.5779 33.8168C19.0462 34.6731 19.9552 35.254 21 35.254C22.5237 35.254 23.7589 34.0187 23.7589 32.495C23.7589 31.4502 23.1781 30.5412 22.3218 30.0729Z" fill="#FDDCBC"/>
<path d="M23.9314 35.2539H18.0685C16.5448 35.2539 15.3096 36.4891 15.3096 38.0129V42H17.4533L18.0685 41.4665L18.6838 42H23.3161L23.9314 41.4665L24.5466 42H26.6903V38.0129C26.6904 36.4892 25.4552 35.2539 23.9314 35.2539Z" fill="#A066DB"/>
<path d="M29.9586 33.8168L30.672 34.5067L31.7036 34.907L32.6428 35.0148L33.8131 34.4759L34.2904 33.783L34.7524 32.7821V31.6735L34.2134 30.611L33.7025 30.0728C33.2973 29.8511 32.8427 29.7353 32.3808 29.736C30.857 29.736 29.6218 30.9712 29.6218 32.4949C29.6212 32.9568 29.737 33.4115 29.9586 33.8168Z" fill="#FDDCBC"/>
<path d="M33.7026 30.0729C33.9243 30.4781 34.0401 30.9327 34.0394 31.3946C34.0394 32.9184 32.8042 34.1536 31.2805 34.1536C30.8186 34.1542 30.364 34.0384 29.9587 33.8168C30.427 34.6731 31.336 35.254 32.3808 35.254C33.9046 35.254 35.1398 34.0187 35.1398 32.495C35.1398 31.4502 34.5589 30.5412 33.7026 30.0729Z" fill="#FDDCBC"/>
<path d="M35.3122 35.2539H29.4494C27.9257 35.2539 26.6904 36.4891 26.6904 38.0129V42H28.8342L29.4494 41.4665L30.0646 42H34.697L35.3122 41.4665L35.9275 42H37.2509C37.7039 42 38.0712 41.6327 38.0712 41.1797V38.0129C38.0712 36.4892 36.836 35.2539 35.3122 35.2539Z" fill="#439BDF"/>
<path d="M26.3312 3.27492V20.099C26.3312 20.771 25.7865 21.3157 25.1145 21.3157H13.2167C12.5447 21.3157 12 20.771 12 20.099V3.27451C12 2.60257 12.5447 2.05786 13.2167 2.05786H25.1141C25.7863 2.05782 26.3312 2.60273 26.3312 3.27492Z" fill="#EAF6FF"/>
<path d="M26.3313 3.27471V20.0989C26.3313 20.7708 25.7863 21.3154 25.1145 21.3154H23.8574C24.5292 21.3154 25.0738 20.7708 25.0738 20.0989V3.27471C25.0738 2.60249 24.5288 2.05786 23.8566 2.05786H25.1141C25.7863 2.05786 26.3313 2.60249 26.3313 3.27471Z" fill="#C8EFFE"/>
<path d="M22.4831 3.96062V5.0068C22.4831 5.13243 22.3813 5.23427 22.2556 5.23427H16.0117C15.886 5.23427 15.7842 5.13243 15.7842 5.0068V3.96062C15.7842 3.83499 15.886 3.73315 16.0117 3.73315H22.2556C22.3813 3.73315 22.4831 3.83499 22.4831 3.96062Z" fill="#7CA1B1"/>
<path d="M29.3555 10.6407C29.3046 10.6466 29.2516 10.6397 29.2012 10.6179C29.0481 10.5518 28.9776 10.3742 29.0437 10.2211L31.2437 5.12599C31.2755 5.05228 31.2416 4.96674 31.1679 4.93494L30.5529 4.66939C30.4011 4.60386 30.3192 4.42973 30.3801 4.27604C30.4432 4.11704 30.6246 4.04269 30.7805 4.11004L31.8123 4.55556C31.8508 4.57218 31.8869 4.59493 31.9157 4.62536C32.0025 4.71697 32.0221 4.84631 31.9752 4.95475L29.598 10.4605C29.5537 10.5631 29.4591 10.6286 29.3555 10.6407Z" fill="#7CA1B1"/>
<path d="M22.4831 3.96058V5.00676C22.4831 5.13235 22.3813 5.23419 22.2557 5.23419H20.9732C21.0988 5.23419 21.2007 5.13235 21.2007 5.00676V3.96058C21.2007 3.83499 21.0988 3.73315 20.9732 3.73315H22.2557C22.3813 3.73315 22.4831 3.83499 22.4831 3.96058Z" fill="#678D98"/>
<path d="M27.9749 10.6076L24.4952 18.6664L23.1985 18.4726L21.9022 17.5468L25.3815 9.48779L26.793 9.5237L27.9749 10.6076Z" fill="#5986CB"/>
<path d="M27.9749 10.6076L24.4954 18.6663L23.4653 18.2219L23.3473 18.4948L27.0997 9.80493L27.9749 10.6076Z" fill="#4278C3"/>
<path d="M30.7767 2.59897C30.795 2.75611 30.7736 2.92027 30.7063 3.07645L30.3419 3.92052L29.3692 3.73322L28.626 3.17982L28.9909 2.33531C29.1508 1.96534 29.521 1.75156 29.9008 1.77337C30.0072 1.77881 30.115 1.80352 30.2187 1.84816C30.5366 1.98543 30.7393 2.27791 30.7767 2.59897Z" fill="#99E6FC"/>
<path d="M30.7064 3.07619L30.3417 3.9203L29.7045 3.77148L30.1151 2.82098C30.1827 2.6652 30.2041 2.50097 30.1856 2.34358C30.1606 2.12782 30.0608 1.92495 29.901 1.77319C30.0072 1.77883 30.1151 1.80338 30.2186 1.84806C30.5366 1.98533 30.7394 2.27797 30.7769 2.59879C30.795 2.75618 30.7737 2.92001 30.7064 3.07619Z" fill="#62DBFB"/>
<path d="M30.7805 4.10993L27.9749 10.6076L25.3815 9.48779L28.0659 3.27178C28.1331 3.11636 28.3135 3.04475 28.4689 3.11185L30.7805 4.10993Z" fill="#80B4FB"/>
<path d="M30.7805 4.11008L27.9749 10.6077L26.9452 10.1629L29.7504 3.66528L30.7805 4.11008Z" fill="#61A2F9"/>
<path d="M23.4653 18.2215V18.2219L21.9023 17.5469L23.4653 18.2215Z" fill="#5986CB"/>
<path d="M24.4952 18.6665L22.5461 20.498C22.3036 20.7261 21.9059 20.5544 21.9056 20.2217L21.9051 19.6881L21.902 17.5466L23.4655 18.222L24.4952 18.6665Z" fill="#99E6FC"/>
<path d="M24.495 18.6663L22.5459 20.4978C22.3036 20.7261 21.9059 20.5542 21.9055 20.2217L21.9051 19.6879L23.4653 18.2219L24.495 18.6663Z" fill="#62DBFB"/>
<path d="M24.0606 7.38798H14.2105C14.0438 7.38798 13.9086 7.25285 13.9086 7.08608C13.9086 6.91931 14.0438 6.78418 14.2105 6.78418H24.0606C24.2274 6.78418 24.3625 6.91931 24.3625 7.08608C24.3625 7.25285 24.2274 7.38798 24.0606 7.38798Z" fill="#7CA1B1"/>
<path d="M24.0606 9.28739H14.2105C14.0438 9.28739 13.9086 9.15226 13.9086 8.98549C13.9086 8.81872 14.0438 8.68359 14.2105 8.68359H24.0606C24.2274 8.68359 24.3625 8.81872 24.3625 8.98549C24.3625 9.15226 24.2274 9.28739 24.0606 9.28739Z" fill="#7CA1B1"/>
<path d="M21.6059 11.1869H14.2105C14.0438 11.1869 13.9086 11.0518 13.9086 10.885C13.9086 10.7183 14.0438 10.5831 14.2105 10.5831H21.6059C21.7727 10.5831 21.9078 10.7183 21.9078 10.885C21.9078 11.0518 21.7727 11.1869 21.6059 11.1869Z" fill="#7CA1B1"/>
<path d="M17.1693 13.0865H14.2105C14.0438 13.0865 13.9086 12.9513 13.9086 12.7846C13.9086 12.6178 14.0438 12.4827 14.2105 12.4827H17.1693C17.336 12.4827 17.4712 12.6178 17.4712 12.7846C17.4712 12.9513 17.336 13.0865 17.1693 13.0865Z" fill="#7CA1B1"/>
<path d="M17.3425 18.9707C17.3067 18.9707 17.2703 18.9697 17.2331 18.9675C16.7552 18.9396 16.4747 18.6909 16.2273 18.4715C15.9952 18.2656 15.8118 18.1031 15.466 18.0848C14.8007 18.0503 14.4714 18.6301 14.4576 18.6548C14.3773 18.8 14.1943 18.8539 14.0485 18.7744C13.9028 18.6949 13.8481 18.5136 13.9267 18.3674C13.9473 18.3289 14.4439 17.4268 15.4977 17.4819C16.0544 17.5113 16.3724 17.7932 16.6279 18.0198C16.8435 18.2109 16.9993 18.3491 17.2682 18.3647C17.9832 18.4071 18.3239 17.8068 18.3273 17.8008C18.4081 17.6549 18.5918 17.6022 18.7376 17.683C18.8835 17.7638 18.9362 17.9475 18.8554 18.0934C18.835 18.1304 18.3573 18.9707 17.3425 18.9707Z" fill="#80B4FB"/>
</svg>
