<svg width="64" height="64" viewBox="0 0 64 64" fill="none" xmlns="http://www.w3.org/2000/svg">
<g clip-path="url(#clip0_4717_34300)">
<path d="M31.9989 63.9978C49.6714 63.9978 63.9978 49.6714 63.9978 31.9989C63.9978 14.3264 49.6714 0 31.9989 0C14.3264 0 0 14.3264 0 31.9989C0 49.6714 14.3264 63.9978 31.9989 63.9978Z" fill="#FFC000"/>
<path d="M5.15118 21.226C5.4102 18.8655 6.27284 16.6064 7.45531 14.5365C8.6513 12.4711 10.2077 10.5972 12.0208 9.02057C13.8317 7.44169 15.9016 6.15786 18.1133 5.25918C20.3274 4.37176 22.6856 3.83346 25.0595 3.91229C23.0032 5.088 21.0616 6.17588 19.2283 7.40115C17.3926 8.6129 15.6673 9.91926 14.0344 11.336C12.4014 12.7549 10.8676 14.2843 9.41259 15.9352C7.94407 17.5817 6.59718 19.352 5.14893 21.226H5.15118Z" fill="#FFE8BB"/>
<path d="M63.9999 32.0011C63.9999 49.6729 49.6751 64.0022 31.9988 64.0022C22.3408 64.0022 13.6828 59.7228 7.81323 52.9545C13.4283 57.8443 20.7709 60.7994 28.8005 60.7994C46.4723 60.7994 60.8016 46.4746 60.8016 28.7983C60.8016 20.7912 57.8623 13.4711 52.9973 7.85608C59.7385 13.7212 63.9976 22.3611 63.9976 31.9988L63.9999 32.0011Z" fill="#F9B700"/>
<path d="M43.6254 35.535C45.9628 35.535 47.8576 32.7881 47.8576 29.3996C47.8576 26.0112 45.9628 23.2643 43.6254 23.2643C41.2881 23.2643 39.3933 26.0112 39.3933 29.3996C39.3933 32.7881 41.2881 35.535 43.6254 35.535Z" fill="#664100"/>
<path d="M20.3747 35.535C22.7121 35.535 24.6068 32.7881 24.6068 29.3996C24.6068 26.0112 22.7121 23.2643 20.3747 23.2643C18.0374 23.2643 16.1426 26.0112 16.1426 29.3996C16.1426 32.7881 18.0374 35.535 20.3747 35.535Z" fill="#664100"/>
<path d="M44.6073 46.2696H19.3925C18.5028 46.2696 17.7798 45.5489 17.7798 44.657C17.7798 43.7651 18.5005 43.0443 19.3925 43.0443H44.6073C45.497 43.0443 46.22 43.7651 46.22 44.657C46.22 45.5489 45.4992 46.2696 44.6073 46.2696Z" fill="#664100"/>
</g>
<defs>
<clipPath id="clip0_4717_34300">
<rect width="64" height="64" fill="white"/>
</clipPath>
</defs>
</svg>
