<svg width="24" height="24" viewBox="0 0 24 24" fill="none" xmlns="http://www.w3.org/2000/svg">
<g opacity="0.5">
<path d="M18.4615 3.67383C17.0958 3.67383 15.8748 4.30427 15.0735 5.28918H2.7115C1.86524 5.28918 1.17188 5.98262 1.17188 6.82888V18.9443C1.17188 19.7906 1.86524 20.4839 2.7115 20.4839H19.6731C20.5193 20.4839 21.2127 19.7906 21.2127 18.9443V11.4286C22.1977 10.6273 22.8281 9.40618 22.8281 8.04045C22.8281 5.63274 20.8692 3.67383 18.4615 3.67383ZM18.4615 4.33008C20.5145 4.33008 22.1719 5.98741 22.1719 8.04045C22.1719 8.94854 21.8475 9.77904 21.3082 10.4231L16.0789 5.19375C16.723 4.65448 17.5534 4.33008 18.4615 4.33008ZM15.6148 5.65781L20.8441 10.8872C20.2001 11.4264 19.3695 11.7508 18.4615 11.7508C16.4085 11.7508 14.7512 10.0935 14.7512 8.04045C14.7512 7.1324 15.0755 6.30188 15.6148 5.65781ZM2.7115 5.94543H14.6314C14.2896 6.56775 14.0949 7.28176 14.0949 8.04045C14.0949 10.4482 16.0538 12.407 18.4615 12.407C19.2202 12.407 19.9341 12.2124 20.5564 11.8707V16.9137L17.4393 13.6481C17.0089 13.1972 16.2883 13.1677 15.8225 13.5818L13.0671 16.0311L8.55095 9.57942C8.24837 9.14714 7.81594 8.89359 7.36692 8.90442C6.9179 8.91525 6.49811 9.18937 6.21672 9.63574L1.82812 16.597V6.82888C1.82812 6.3378 2.22042 5.94543 2.7115 5.94543ZM7.38274 9.56052C7.58094 9.55574 7.80467 9.65768 8.01335 9.95581L12.7408 16.7094C12.7673 16.7473 12.8016 16.7792 12.8413 16.8029C12.8811 16.8267 12.9254 16.8417 12.9714 16.8471C13.0174 16.8525 13.064 16.8481 13.1081 16.8342C13.1523 16.8203 13.193 16.7972 13.2276 16.7665L16.2585 14.0723C16.4591 13.8941 16.7794 13.9072 16.9646 14.1012L20.5564 17.8641V18.9443C20.5564 19.4354 20.1642 19.8277 19.6731 19.8277H2.7115C2.22042 19.8277 1.82812 19.4354 1.82812 18.9443V17.8276L6.7719 9.98577C6.96597 9.67792 7.18453 9.5653 7.38274 9.56052Z" fill="white"/>
<path d="M18.4615 3.67383C17.0958 3.67383 15.8748 4.30427 15.0735 5.28918H2.7115C1.86524 5.28918 1.17188 5.98262 1.17188 6.82888V18.9443C1.17188 19.7906 1.86524 20.4839 2.7115 20.4839H19.6731C20.5193 20.4839 21.2127 19.7906 21.2127 18.9443V11.4286C22.1977 10.6273 22.8281 9.40618 22.8281 8.04045C22.8281 5.63274 20.8692 3.67383 18.4615 3.67383ZM18.4615 4.33008C20.5145 4.33008 22.1719 5.98741 22.1719 8.04045C22.1719 8.94854 21.8475 9.77904 21.3082 10.4231L16.0789 5.19375C16.723 4.65448 17.5534 4.33008 18.4615 4.33008ZM15.6148 5.65781L20.8441 10.8872C20.2001 11.4264 19.3695 11.7508 18.4615 11.7508C16.4085 11.7508 14.7512 10.0935 14.7512 8.04045C14.7512 7.1324 15.0755 6.30188 15.6148 5.65781ZM2.7115 5.94543H14.6314C14.2896 6.56775 14.0949 7.28176 14.0949 8.04045C14.0949 10.4482 16.0538 12.407 18.4615 12.407C19.2202 12.407 19.9341 12.2124 20.5564 11.8707V16.9137L17.4393 13.6481C17.0089 13.1972 16.2883 13.1677 15.8225 13.5818L13.0671 16.0311L8.55095 9.57942C8.24837 9.14714 7.81594 8.89359 7.36692 8.90442C6.9179 8.91525 6.49811 9.18937 6.21672 9.63574L1.82812 16.597V6.82888C1.82812 6.3378 2.22042 5.94543 2.7115 5.94543ZM7.38274 9.56052C7.58094 9.55574 7.80467 9.65768 8.01335 9.95581L12.7408 16.7094C12.7673 16.7473 12.8016 16.7792 12.8413 16.8029C12.8811 16.8267 12.9254 16.8417 12.9714 16.8471C13.0174 16.8525 13.064 16.8481 13.1081 16.8342C13.1523 16.8203 13.193 16.7972 13.2276 16.7665L16.2585 14.0723C16.4591 13.8941 16.7794 13.9072 16.9646 14.1012L20.5564 17.8641V18.9443C20.5564 19.4354 20.1642 19.8277 19.6731 19.8277H2.7115C2.22042 19.8277 1.82812 19.4354 1.82812 18.9443V17.8276L6.7719 9.98577C6.96597 9.67792 7.18453 9.5653 7.38274 9.56052Z" fill="black" fill-opacity="0.32"/>
</g>
</svg>
