<svg width="18" height="17" viewBox="0 0 18 17" fill="none" xmlns="http://www.w3.org/2000/svg">
<path d="M13.5 4.78125H12.9375V0.84375C12.9375 0.769158 12.9671 0.697621 13.0199 0.644876C13.0726 0.592132 13.1442 0.5625 13.2188 0.5625C13.2933 0.5625 13.3649 0.592132 13.4176 0.644876C13.4704 0.697621 13.5 0.769158 13.5 0.84375V4.78125Z" fill="#414655"/>
<path d="M13.2188 14.9062C13.1442 14.9062 13.0726 14.8766 13.0199 14.8239C12.9671 14.7711 12.9375 14.6996 12.9375 14.625V10.6875H13.5V14.625C13.5 14.6996 13.4704 14.7711 13.4176 14.8239C13.3649 14.8766 13.2933 14.9062 13.2188 14.9062Z" fill="#414655"/>
<path d="M7.875 10.4062H7.3125V9C7.3125 8.92541 7.34213 8.85387 7.39488 8.80113C7.44762 8.74838 7.51916 8.71875 7.59375 8.71875C7.66834 8.71875 7.73988 8.74838 7.79262 8.80113C7.84537 8.85387 7.875 8.92541 7.875 9V10.4062Z" fill="#414655"/>
<path d="M10.4062 16.0312C10.3317 16.0312 10.2601 16.0016 10.2074 15.9489C10.1546 15.8961 10.125 15.8246 10.125 15.75V13.7812H10.6875V15.75C10.6875 15.8246 10.6579 15.8961 10.6051 15.9489C10.5524 16.0016 10.4808 16.0312 10.4062 16.0312Z" fill="#414655"/>
<path d="M1.96875 15.4688C1.89416 15.4688 1.82262 15.4391 1.76988 15.3864C1.71713 15.3336 1.6875 15.2621 1.6875 15.1875V13.2188H2.25V15.1875C2.25 15.2621 2.22037 15.3336 2.16762 15.3864C2.11488 15.4391 2.04334 15.4688 1.96875 15.4688Z" fill="#414655"/>
<path d="M16.3125 8.4375H15.75V6.46875C15.75 6.39416 15.7796 6.32262 15.8324 6.26988C15.8851 6.21713 15.9567 6.1875 16.0312 6.1875C16.1058 6.1875 16.1774 6.21713 16.2301 6.26988C16.2829 6.32262 16.3125 6.39416 16.3125 6.46875V8.4375Z" fill="#414655"/>
<path d="M16.0312 12.9375C15.9567 12.9375 15.8851 12.9079 15.8324 12.8551C15.7796 12.8024 15.75 12.7308 15.75 12.6562V10.6875H16.3125V12.6562C16.3125 12.7308 16.2829 12.8024 16.2301 12.8551C16.1774 12.9079 16.1058 12.9375 16.0312 12.9375Z" fill="#414655"/>
<path d="M0.28125 11.8125H1.6875V11.25H0.28125C0.206658 11.25 0.135121 11.2796 0.0823762 11.3324C0.0296316 11.3851 0 11.4567 0 11.5312C0 11.6058 0.0296316 11.6774 0.0823762 11.7301C0.135121 11.7829 0.206658 11.8125 0.28125 11.8125Z" fill="#414655"/>
<path d="M2.0015 11.5088L2.42506 11.1381L4.76595 13.8129L4.34239 14.1836L2.0015 11.5088Z" fill="#414655"/>
<path d="M4.80698 13.7236L7.23417 11.9912L7.56098 12.4491L5.13379 14.1815L4.80698 13.7236Z" fill="#414655"/>
<path d="M10.4491 11.0752L12.7018 7.21344L13.1878 7.49694L10.9351 11.3587L10.4491 11.0752Z" fill="#414655"/>
<path d="M13.2474 8.21582L13.5742 7.75795L16.0014 9.49038L15.6746 9.94825L13.2474 8.21582Z" fill="#414655"/>
<path d="M16.3125 9.28125V9.84375H17.7188C17.7933 9.84375 17.8649 9.81412 17.9176 9.76137C17.9704 9.70863 18 9.63709 18 9.5625C18 9.48791 17.9704 9.41637 17.9176 9.36363C17.8649 9.31088 17.7933 9.28125 17.7188 9.28125H16.3125Z" fill="#414655"/>
<path d="M7.64816 11.9404L10.1339 10.8747L10.3555 11.3917L7.86981 12.4574L7.64816 11.9404Z" fill="#414655"/>
<path d="M13.7812 10.9688H12.6562V4.5H13.7812V10.9688Z" fill="#FF5287"/>
<path d="M13.7812 10.9688H13.2188V5.0625H13.7812V10.9688Z" fill="#F7325A"/>
<path d="M5.34375 14.9062H4.21875V12.375H5.34375V14.9062Z" fill="#FF5287"/>
<path d="M5.34375 14.9062H4.78125V12.9375H5.34375V14.9062Z" fill="#F7325A"/>
<path d="M8.15625 14.625H7.03125V10.125H8.15625V14.625Z" fill="#99E64B"/>
<path d="M8.15625 14.625H7.59375V10.6875H8.15625V14.625Z" fill="#7ED637"/>
<path d="M10.9688 14.0625H9.84375V8.15625H10.9688V14.0625Z" fill="#99E64B"/>
<path d="M10.9688 14.0625H10.4062V8.71875H10.9688V14.0625Z" fill="#7ED637"/>
<path d="M2.53125 13.5H1.40625V9.5625H2.53125V13.5Z" fill="#99E64B"/>
<path d="M2.53125 13.5H1.96875V10.125H2.53125V13.5Z" fill="#7ED637"/>
<path d="M16.5938 10.9688H15.4688V8.15625H16.5938V10.9688Z" fill="#99E64B"/>
<path d="M16.5938 10.9688H16.0312V8.71875H16.5938V10.9688Z" fill="#7ED637"/>
</svg>
