<svg width="62" height="62" viewBox="0 0 62 62" fill="none" xmlns="http://www.w3.org/2000/svg">
<g clip-path="url(#clip0_3233_1207)">
<path d="M1.21094 9.92969L0 38.6289C0 48.0742 7.62891 48.3164 7.62891 48.3164L29.5469 48.4375L40.5664 62H45.0469L45.5312 48.0742L54.9766 47.832C54.9766 47.832 62 47.5898 62 40.2031L60.668 9.08203C60.668 1.45312 51.3438 0.605469 51.3438 0.605469L10.293 0C10.293 0 1.21094 0.96875 1.21094 9.92969Z" fill="#FFC107"/>
<path d="M44.4414 35.3594L46.9844 30.6367L42.4994 25.6179C42.5022 25.5151 42.5039 25.412 42.5039 25.3086C42.5039 24.5705 42.4314 23.8493 42.2944 23.1513L46.2578 17.8008L42.8672 13.0781L36.3687 15.2777L34.3906 8.71875L28.457 8.59766L26.2578 15.4045C26.0283 15.523 25.8033 15.6491 25.5834 15.7828L18.6484 14.2891L15.5 19.4961L20.2314 24.8877C20.2262 25.0274 20.2227 25.1675 20.2227 25.3086C20.2227 25.7872 20.2529 26.2587 20.3114 26.7214L16.4688 32.9375L19.7383 37.1758L26.1765 35.2443L28.6992 41.6562L34.0273 41.5352L36.2362 35.3292C36.774 35.0672 37.2874 34.7632 37.7724 34.4215L44.4414 35.3594ZM31.3633 31.6055C27.7519 31.6055 24.8242 28.7863 24.8242 25.3086C24.8242 21.8309 27.7519 19.0117 31.3633 19.0117C34.9747 19.0117 37.9023 21.8309 37.9023 25.3086C37.9023 28.7863 34.9747 31.6055 31.3633 31.6055Z" fill="white"/>
</g>
<defs>
<clipPath id="clip0_3233_1207">
<rect width="62" height="62" fill="white"/>
</clipPath>
</defs>
</svg>
