<svg width="73" height="64" viewBox="0 0 73 64" fill="none" xmlns="http://www.w3.org/2000/svg">
<path d="M59.533 1.04346H13.9185C6.73233 1.04346 0.885742 6.93018 0.885742 14.1657V37.1295C0.885742 44.365 6.73233 50.2517 13.9185 50.2517H19.6442C21.3854 50.2517 23.0217 50.9341 24.2522 52.1739L34.4221 62.4128C35.0585 63.0535 35.8921 63.3739 36.7257 63.3739C37.5594 63.3739 38.393 63.0535 39.0294 62.4128L49.1985 52.1739C50.4298 50.9341 52.0669 50.2517 53.8073 50.2517H59.533C66.7192 50.2517 72.5657 44.365 72.5657 37.1295V14.1657C72.5657 6.93018 66.7192 1.04346 59.533 1.04346Z" fill="#FFC107"/>
<path d="M55.8521 31.467C55.8521 33.1062 54.3862 34.4352 52.5782 34.4352H23.1136C21.3056 34.4352 19.8398 33.1062 19.8398 31.467C19.8398 29.8279 21.3056 28.4989 23.1136 28.4989H52.5782C54.3862 28.4989 55.8521 29.8279 55.8521 31.467ZM55.8521 16.6265H19.8398C18.0318 16.6265 16.5659 17.9555 16.5659 19.5946C16.5659 21.2337 18.0318 22.5627 19.8398 22.5627H55.8521C57.66 22.5627 59.1259 21.2337 59.1259 19.5946C59.1259 17.9555 57.66 16.6265 55.8521 16.6265Z" fill="white"/>
</svg>
