<svg width="45" height="50" viewBox="0 0 45 50" fill="none" xmlns="http://www.w3.org/2000/svg">
<g clip-path="url(#clip0_2843_47595)">
<rect x="2.85742" y="2" width="42" height="48" rx="1" fill="#805F3D"/>
<path d="M24.6311 14.0306H21.5849C21.0514 14.0306 20.6191 13.5982 20.6191 13.0649C20.6191 12.5315 21.0515 12.0991 21.5849 12.0991H24.6311C25.1646 12.0991 25.5969 12.5315 25.5969 13.0649C25.597 13.5982 25.1646 14.0306 24.6311 14.0306Z" fill="#C9C0C7"/>
<path d="M38.887 17.6189H21.5849C21.0514 17.6189 20.6191 17.1865 20.6191 16.6531C20.6191 16.1198 21.0515 15.6874 21.5849 15.6874H38.887C39.4205 15.6874 39.8528 16.1198 39.8528 16.6531C39.8529 17.1864 39.4205 17.6189 38.887 17.6189Z" fill="#C9C0C7"/>
<path d="M24.6311 28.0659H21.5849C21.0514 28.0659 20.6191 27.6335 20.6191 27.1002C20.6191 26.5668 21.0515 26.1344 21.5849 26.1344H24.6311C25.1646 26.1344 25.5969 26.5668 25.5969 27.1002C25.597 27.6334 25.1646 28.0659 24.6311 28.0659Z" fill="#C9C0C7"/>
<path d="M38.887 31.6542H21.5849C21.0514 31.6542 20.6191 31.2218 20.6191 30.6884C20.6191 30.155 21.0515 29.7227 21.5849 29.7227H38.887C39.4205 29.7227 39.8528 30.155 39.8528 30.6884C39.8529 31.2218 39.4205 31.6542 38.887 31.6542Z" fill="#C9C0C7"/>
<path d="M14.6421 44.2061H9.71402C8.95402 44.2061 8.33789 43.59 8.33789 42.83V37.902C8.33789 37.142 8.95402 36.5259 9.71402 36.5259H14.642C15.402 36.5259 16.0181 37.142 16.0181 37.902V42.83C16.0181 43.59 15.4021 44.2061 14.6421 44.2061Z" fill="#FEE265"/>
<path d="M16.018 37.9021V42.8299C16.018 43.5895 15.4015 44.206 14.6418 44.206H11.0957C11.8553 44.206 12.4718 43.5895 12.4718 42.8299V37.9021C12.4718 37.1425 11.8553 36.526 11.0957 36.526H14.6418C15.4015 36.526 16.018 37.1425 16.018 37.9021Z" fill="#FDD330"/>
<path d="M14.6421 32.2061H9.71402C8.95402 32.2061 8.33789 31.59 8.33789 30.83V25.902C8.33789 25.142 8.95402 24.5259 9.71402 24.5259H14.642C15.402 24.5259 16.0181 25.142 16.0181 25.902V30.83C16.0181 31.59 15.4021 32.2061 14.6421 32.2061Z" fill="#FEE265"/>
<path d="M16.018 25.9021V30.8299C16.018 31.5895 15.4015 32.206 14.6418 32.206H11.0957C11.8553 32.206 12.4718 31.5895 12.4718 30.8299V25.9021C12.4718 25.1425 11.8553 24.526 11.0957 24.526H14.6418C15.4015 24.526 16.018 25.1425 16.018 25.9021Z" fill="#FDD330"/>
<path d="M14.6421 18.2061H9.71402C8.95402 18.2061 8.33789 17.59 8.33789 16.83V11.902C8.33789 11.142 8.95402 10.5259 9.71402 10.5259H14.642C15.402 10.5259 16.0181 11.142 16.0181 11.902V16.83C16.0181 17.59 15.4021 18.2061 14.6421 18.2061Z" fill="#FEE265"/>
<path d="M16.018 11.9021V16.8299C16.018 17.5895 15.4015 18.206 14.6418 18.206H11.0957C11.8553 18.206 12.4718 17.5895 12.4718 16.8299V11.9021C12.4718 11.1425 11.8553 10.526 11.0957 10.526H14.6418C15.4015 10.526 16.018 11.1425 16.018 11.9021Z" fill="#FDD330"/>
<path d="M24.6311 40.5837H21.5849C21.0514 40.5837 20.6191 40.1513 20.6191 39.618C20.6191 39.0846 21.0515 38.6522 21.5849 38.6522H24.6311C25.1646 38.6522 25.5969 39.0846 25.5969 39.618C25.597 40.1512 25.1646 40.5837 24.6311 40.5837Z" fill="#C9C0C7"/>
<path d="M38.887 44.1719H21.5849C21.0514 44.1719 20.6191 43.7395 20.6191 43.2061C20.6191 42.6727 21.0515 42.2404 21.5849 42.2404H38.887C39.4205 42.2404 39.8528 42.6727 39.8528 43.2061C39.8528 43.7395 39.4205 44.1719 38.887 44.1719Z" fill="#C9C0C7"/>
</g>
<g clip-path="url(#clip1_2843_47595)">
<g clip-path="url(#clip2_2843_47595)">
<path d="M42.8574 1.96529V47.0346C42.8574 47.5685 42.2802 48 41.5688 48H2.14605C1.43464 47.9999 0.857422 47.5685 0.857422 47.0346V1.96529C0.857422 1.43139 1.43464 1 2.14605 1H41.5689C42.2802 1 42.8574 1.43139 42.8574 1.96529Z" fill="#F8F3F1"/>
<path d="M22.6311 12.0306H19.5849C19.0514 12.0306 18.6191 11.5982 18.6191 11.0649C18.6191 10.5315 19.0515 10.0991 19.5849 10.0991H22.6311C23.1646 10.0991 23.5969 10.5315 23.5969 11.0649C23.597 11.5982 23.1646 12.0306 22.6311 12.0306Z" fill="#C9C0C7"/>
<path d="M36.887 15.6189H19.5849C19.0514 15.6189 18.6191 15.1865 18.6191 14.6531C18.6191 14.1198 19.0515 13.6874 19.5849 13.6874H36.887C37.4205 13.6874 37.8528 14.1198 37.8528 14.6531C37.8529 15.1864 37.4205 15.6189 36.887 15.6189Z" fill="#C9C0C7"/>
<path d="M22.6311 26.0659H19.5849C19.0514 26.0659 18.6191 25.6335 18.6191 25.1002C18.6191 24.5668 19.0515 24.1344 19.5849 24.1344H22.6311C23.1646 24.1344 23.5969 24.5668 23.5969 25.1002C23.597 25.6334 23.1646 26.0659 22.6311 26.0659Z" fill="#C9C0C7"/>
<path d="M36.887 29.6542H19.5849C19.0514 29.6542 18.6191 29.2218 18.6191 28.6884C18.6191 28.155 19.0515 27.7227 19.5849 27.7227H36.887C37.4205 27.7227 37.8528 28.155 37.8528 28.6884C37.8529 29.2218 37.4205 29.6542 36.887 29.6542Z" fill="#C9C0C7"/>
<path d="M12.6421 42.2061H7.71402C6.95402 42.2061 6.33789 41.59 6.33789 40.83V35.902C6.33789 35.142 6.95402 34.5259 7.71402 34.5259H12.642C13.402 34.5259 14.0181 35.142 14.0181 35.902V40.83C14.0181 41.59 13.4021 42.2061 12.6421 42.2061Z" fill="#FEE265"/>
<path d="M14.018 35.9021V40.8299C14.018 41.5895 13.4015 42.206 12.6418 42.206H9.0957C9.85533 42.206 10.4718 41.5895 10.4718 40.8299V35.9021C10.4718 35.1425 9.85533 34.526 9.0957 34.526H12.6418C13.4015 34.526 14.018 35.1425 14.018 35.9021Z" fill="#FDD330"/>
<path d="M12.6421 30.2061H7.71402C6.95402 30.2061 6.33789 29.59 6.33789 28.83V23.902C6.33789 23.142 6.95402 22.5259 7.71402 22.5259H12.642C13.402 22.5259 14.0181 23.142 14.0181 23.902V28.83C14.0181 29.59 13.4021 30.2061 12.6421 30.2061Z" fill="#FEE265"/>
<path d="M14.018 23.9021V28.8299C14.018 29.5895 13.4015 30.206 12.6418 30.206H9.0957C9.85533 30.206 10.4718 29.5895 10.4718 28.8299V23.9021C10.4718 23.1425 9.85533 22.526 9.0957 22.526H12.6418C13.4015 22.526 14.018 23.1425 14.018 23.9021Z" fill="#FDD330"/>
<path d="M12.6421 16.2061H7.71402C6.95402 16.2061 6.33789 15.59 6.33789 14.83V9.902C6.33789 9.142 6.95402 8.52588 7.71402 8.52588H12.642C13.402 8.52588 14.0181 9.142 14.0181 9.902V14.83C14.0181 15.59 13.4021 16.2061 12.6421 16.2061Z" fill="#FEE265"/>
<path d="M14.018 9.90213V14.8299C14.018 15.5895 13.4015 16.206 12.6418 16.206H9.0957C9.85533 16.206 10.4718 15.5895 10.4718 14.8299V9.90213C10.4718 9.1425 9.85533 8.526 9.0957 8.526H12.6418C13.4015 8.526 14.018 9.1425 14.018 9.90213Z" fill="#FDD330"/>
<path d="M22.6311 38.5837H19.5849C19.0514 38.5837 18.6191 38.1513 18.6191 37.618C18.6191 37.0846 19.0515 36.6522 19.5849 36.6522H22.6311C23.1646 36.6522 23.5969 37.0846 23.5969 37.618C23.597 38.1512 23.1646 38.5837 22.6311 38.5837Z" fill="#C9C0C7"/>
<path d="M36.887 42.1719H19.5849C19.0514 42.1719 18.6191 41.7395 18.6191 41.2061C18.6191 40.6727 19.0515 40.2404 19.5849 40.2404H36.887C37.4205 40.2404 37.8528 40.6727 37.8528 41.2061C37.8528 41.7395 37.4205 42.1719 36.887 42.1719Z" fill="#C9C0C7"/>
</g>
</g>
<defs>
<clipPath id="clip0_2843_47595">
<rect x="2.85742" y="2" width="42" height="48" rx="1" fill="white"/>
</clipPath>
<clipPath id="clip1_2843_47595">
<rect width="42" height="48" fill="white" transform="translate(0.857422)"/>
</clipPath>
<clipPath id="clip2_2843_47595">
<rect width="42" height="48" fill="white" transform="translate(0.857422)"/>
</clipPath>
</defs>
</svg>
