<svg width="16" height="16" viewBox="0 0 16 16" fill="none" xmlns="http://www.w3.org/2000/svg">
<mask id="mask0_2282_77376" style="mask-type:alpha" maskUnits="userSpaceOnUse" x="0" y="0" width="16" height="16">
<rect x="0.5" y="0.5" width="15" height="15" fill="#D9D9D9" stroke="white"/>
</mask>
<g mask="url(#mask0_2282_77376)">
<path d="M4.5 8.05375C4.5 7.30123 4.56579 6.56663 4.69736 5.84994C4.83304 5.13326 5.03862 4.45017 5.3141 3.80067C5.58957 3.15118 5.937 2.55095 6.35639 2H7.6207C7.03275 2.85554 6.58869 3.80291 6.28855 4.84211C5.99251 5.8813 5.84449 6.94737 5.84449 8.04031C5.84449 8.75252 5.91028 9.45801 6.04185 10.1568C6.17342 10.8555 6.37078 11.5274 6.63392 12.1725C6.89706 12.8219 7.22188 13.4311 7.60837 14H6.35639C5.937 13.4625 5.58957 12.8757 5.3141 12.2396C5.03862 11.6036 4.83304 10.9317 4.69736 10.224C4.56579 9.51624 4.5 8.79283 4.5 8.05375Z" fill="#212121"/>
<path d="M11.5 8.04703C11.5 8.79059 11.4342 9.51624 11.3026 10.224C11.1711 10.9317 10.9675 11.6036 10.6921 12.2396C10.4207 12.8757 10.0712 13.4625 9.64361 14H8.3978C8.78429 13.4311 9.1091 12.8219 9.37225 12.1725C9.63539 11.523 9.83275 10.8488 9.96432 10.1501C10.0959 9.45129 10.1617 8.7458 10.1617 8.03359C10.1617 7.30795 10.0938 6.59127 9.95815 5.88354C9.82658 5.17581 9.62922 4.49496 9.36608 3.84099C9.10294 3.18253 8.77606 2.56887 8.38546 2H9.64361C10.0712 2.55095 10.4207 3.15118 10.6921 3.80067C10.9675 4.45017 11.1711 5.13326 11.3026 5.84994C11.4342 6.56215 11.5 7.29451 11.5 8.04703Z" fill="#212121"/>
</g>
</svg>
