<svg width="18" height="21" viewBox="0 0 18 21" fill="none" xmlns="http://www.w3.org/2000/svg">
<path d="M3.857 0.286133C3.14986 0.286133 2.57129 0.843359 2.57129 1.52441V18.8604C2.57129 19.5414 3.14986 20.0986 3.857 20.0986H16.7141C17.4213 20.0986 17.9999 19.5414 17.9999 18.8604V5.23926L12.857 0.286133H3.857Z" fill="#E2E5E7"/>
<path d="M14.1426 5.23926H17.9998L12.8569 0.286133V4.00098C12.8569 4.68203 13.4355 5.23926 14.1426 5.23926Z" fill="#B0B7BD"/>
<path d="M18.0002 8.9541L14.1431 5.23926H18.0002V8.9541Z" fill="#CAD1D8"/>
<path d="M15.4286 16.3838C15.4286 16.7243 15.1393 17.0029 14.7857 17.0029H0.642857C0.289286 17.0029 0 16.7243 0 16.3838V10.1924C0 9.85186 0.289286 9.57324 0.642857 9.57324H14.7857C15.1393 9.57324 15.4286 9.85186 15.4286 10.1924V16.3838Z" fill="#F15642"/>
<path d="M2.80225 12.0166C2.80225 11.8531 2.93596 11.6748 3.15132 11.6748H4.33867C5.00725 11.6748 5.60896 12.1057 5.60896 12.9317C5.60896 13.7143 5.00725 14.1501 4.33867 14.1501H3.48046V14.8039C3.48046 15.0219 3.33646 15.1451 3.15132 15.1451C2.9816 15.1451 2.80225 15.0219 2.80225 14.8039V12.0166ZM3.48046 12.2983V13.5316H4.33867C4.68325 13.5316 4.95582 13.2388 4.95582 12.9317C4.95582 12.5856 4.68325 12.2983 4.33867 12.2983H3.48046Z" fill="white"/>
<path d="M6.61609 15.1454C6.44637 15.1454 6.26123 15.0563 6.26123 14.839V12.0268C6.26123 11.8491 6.44637 11.7197 6.61609 11.7197H7.79316C10.1422 11.7197 10.0907 15.1454 7.83944 15.1454H6.61609ZM6.94009 12.324V14.5418H7.79316C9.18109 14.5418 9.2428 12.324 7.79316 12.324H6.94009Z" fill="white"/>
<path d="M10.9239 12.3633V13.1502H12.2347C12.4198 13.1502 12.605 13.3285 12.605 13.5013C12.605 13.6647 12.4198 13.7984 12.2347 13.7984H10.9239V14.838C10.9239 15.0113 10.796 15.1445 10.616 15.1445C10.3897 15.1445 10.2515 15.0113 10.2515 14.838V12.0258C10.2515 11.8482 10.3903 11.7188 10.616 11.7188H12.4205C12.6468 11.7188 12.7805 11.8482 12.7805 12.0258C12.7805 12.1843 12.6468 12.3627 12.4205 12.3627H10.9239V12.3633Z" fill="white"/>
<path d="M14.7856 17.0029H2.57129V17.6221H14.7856C15.1391 17.6221 15.4284 17.3435 15.4284 17.0029V16.3838C15.4284 16.7243 15.1391 17.0029 14.7856 17.0029Z" fill="#CAD1D8"/>
</svg>
