<svg width="24" height="24" viewBox="0 0 24 24" fill="none" xmlns="http://www.w3.org/2000/svg">
<path d="M19.7556 15.7177L19.7483 13.93C19.2167 13.93 18.7608 13.7401 18.381 13.3603C18.0012 12.9805 17.8114 12.5247 17.8114 11.9931C17.8113 11.4612 18.0013 11.0056 18.3812 10.6257C18.7611 10.2458 19.2168 10.056 19.7486 10.0559L19.7485 8.27539C19.7482 7.92393 19.6213 7.62131 19.3674 7.36743C19.1134 7.1134 18.8108 6.98651 18.4595 6.98641L5.54786 6.97925C5.19638 6.97928 4.89361 7.10639 4.63983 7.36017C4.38585 7.61415 4.25893 7.91672 4.25888 8.26823L4.25168 10.0558C4.78338 10.0559 5.23925 10.2458 5.61908 10.6256C5.99887 11.0054 6.18884 11.461 6.18874 11.9929C6.18874 12.5246 5.99885 12.9804 5.619 13.3602C5.23915 13.74 4.7836 13.9298 4.2517 13.9299L4.25175 15.7247C4.25178 16.076 4.37881 16.3787 4.63282 16.6327C4.88685 16.8868 5.18954 17.0138 5.5408 17.0137L18.4666 17.0066C18.8179 17.0066 19.1205 16.8796 19.3745 16.6256C19.6285 16.3715 19.7555 16.069 19.7556 15.7177ZM16.4012 15.2119L7.599 15.2118C7.42801 15.2121 7.27849 15.1479 7.15023 15.0196C7.0221 14.8915 6.95796 14.742 6.95814 14.5709L6.95786 9.41495C6.95796 9.23441 7.01968 9.08255 7.14302 8.9592C7.26647 8.83575 7.41848 8.77389 7.59895 8.77387L16.4012 8.77389C16.5722 8.77394 16.7219 8.83805 16.8501 8.96626C16.9782 9.09432 17.0423 9.24396 17.0423 9.41498L17.0422 14.571C17.0423 14.7515 16.9805 14.9035 16.8571 15.0269C16.7337 15.1502 16.5818 15.212 16.4012 15.2119Z" fill="#FFC000"/>
<path d="M16.0734 9.74138L16.0735 14.2423H7.92646L7.92646 9.74151L16.0734 9.74138Z" fill="#FFC000"/>
</svg>
