<svg width="17" height="17" viewBox="0 0 17 17" fill="none" xmlns="http://www.w3.org/2000/svg">
<path fill-rule="evenodd" clip-rule="evenodd" d="M8.56738 1.57959C11.8266 1.57959 14.5644 3.81095 15.337 6.82864H17L14.7363 10.3057L12.4715 6.82864H13.7605C13.034 4.65715 10.9833 3.09235 8.56738 3.09235V1.57959Z" fill="#05E39C"/>
<path fill-rule="evenodd" clip-rule="evenodd" d="M1.5798 8.56738C1.5798 5.3082 3.81116 2.57032 6.82885 1.79772V0.134766L10.306 2.39949L6.82885 4.66323V3.37431C4.65736 4.10074 3.09256 6.15146 3.09256 8.56738H1.5798Z" fill="#FED402"/>
<path fill-rule="evenodd" clip-rule="evenodd" d="M8.56738 15.5557C5.3082 15.5557 2.57032 13.3244 1.79772 10.3057H0.134766L2.3985 6.82861L4.66323 10.3057H3.37431C4.10074 12.4772 6.15146 14.0429 8.56738 14.0429V15.5557Z" fill="#01D0FB"/>
<path fill-rule="evenodd" clip-rule="evenodd" d="M15.5373 9.07568C15.3184 12.1091 13.1656 14.6055 10.306 15.3378V16.9998L6.82884 14.7361L10.306 12.4723V13.7603C12.289 13.0967 13.7664 11.3297 14.0079 9.18763L14.7363 10.3058L15.5373 9.07568Z" fill="#F04524"/>
<path fill-rule="evenodd" clip-rule="evenodd" d="M9.07588 1.59863C12.1083 1.81656 14.6057 3.96937 15.337 6.829H17L14.7363 10.3061L14.7333 10.3022C14.8884 9.75048 14.9719 9.16934 14.9719 8.56757C14.9719 5.63236 12.9957 3.15753 10.302 2.40166L10.306 2.39972L9.07588 1.59863Z" fill="#0ED290"/>
<path fill-rule="evenodd" clip-rule="evenodd" d="M1.5798 8.56738C1.5798 5.3082 3.81116 2.57032 6.82885 1.79772V0.134766L10.306 2.39949L10.302 2.40144C9.75033 2.24632 9.16919 2.16387 8.56742 2.16387C5.03041 2.16391 2.16391 5.0304 2.16391 8.56738H1.5798Z" fill="#FAC600"/>
<path fill-rule="evenodd" clip-rule="evenodd" d="M8.56738 15.5557C5.3082 15.5557 2.57032 13.3244 1.79772 10.3057H0.134766L2.3985 6.82861L2.40144 6.83254C2.24635 7.38424 2.16387 7.96637 2.16387 8.56715C2.16387 12.1041 5.03037 14.9716 8.56735 14.9716V15.5557H8.56738Z" fill="#01C0FA"/>
<path fill-rule="evenodd" clip-rule="evenodd" d="M15.5373 9.07568C15.3184 12.1091 13.1656 14.6055 10.306 15.3378V16.9998L6.82884 14.7361L6.83277 14.7331C7.38447 14.8882 7.9666 14.9717 8.56738 14.9717C11.5036 14.9717 13.9774 12.9965 14.7333 10.3018L14.7362 10.3058L15.5373 9.07568Z" fill="#D90D17"/>
<path fill-rule="evenodd" clip-rule="evenodd" d="M8.56739 11.9311C10.4198 11.9311 11.9306 10.4203 11.9306 8.56782C11.9306 6.71637 10.4198 5.20557 8.56739 5.20557C6.71496 5.20557 5.20514 6.71637 5.20514 8.56782C5.20514 10.4203 6.71496 11.9311 8.56739 11.9311Z" fill="#FEA613"/>
<path fill-rule="evenodd" clip-rule="evenodd" d="M8.56738 11.036C9.92699 11.036 11.0363 9.92667 11.0363 8.56706C11.0363 7.20744 9.92699 6.09912 8.56738 6.09912C7.20776 6.09912 6.09944 7.20744 6.09944 8.56706C6.09944 9.92667 7.20776 11.036 8.56738 11.036Z" fill="#FED402"/>
<path d="M8.80984 8.32942V7.66712H8.84419C9.03624 7.66712 9.17011 7.783 9.17011 7.887C9.17011 8.02093 9.27866 8.12948 9.41259 8.12948C9.54653 8.12948 9.65508 8.02093 9.65508 7.887C9.65508 7.49834 9.29134 7.18215 8.84423 7.18215H8.80987V6.95244C8.80987 6.81851 8.70132 6.70996 8.56739 6.70996C8.43349 6.70996 8.3249 6.81851 8.3249 6.95244V7.18684C7.85046 7.23037 7.47969 7.57659 7.47969 7.99594C7.47969 8.57329 7.94552 8.74092 8.3249 8.78967V9.46748H8.29153C8.09889 9.46748 7.96463 9.35213 7.96463 9.24859C7.96463 9.11466 7.85607 9.00611 7.72214 9.00611C7.58824 9.00611 7.47966 9.11466 7.47966 9.24859C7.47966 9.63672 7.84386 9.95244 8.2915 9.95244H8.32487V10.1822C8.32487 10.3161 8.43342 10.4246 8.56735 10.4246C8.70125 10.4246 8.80984 10.3161 8.80984 10.1822V9.94786C9.28421 9.90465 9.65504 9.55827 9.65504 9.13865C9.65508 8.71904 9.28421 8.37262 8.80984 8.32942ZM8.3249 8.29906C7.96479 8.24001 7.96463 8.09248 7.96463 7.99598C7.96463 7.84241 8.12156 7.70966 8.3249 7.67573V8.29906ZM8.80984 9.45903V8.81825C9.01311 8.85194 9.17011 8.98489 9.17011 9.13865C9.17014 9.29242 9.01314 9.42536 8.80984 9.45903Z" fill="#FF7100"/>
<path fill-rule="evenodd" clip-rule="evenodd" d="M8.79121 11.0261C7.53269 10.9132 6.54612 9.85502 6.54612 8.56706C6.54612 7.27909 7.53272 6.22183 8.79121 6.10892C8.71758 6.10206 8.64299 6.09912 8.56738 6.09912C7.20383 6.09912 6.09944 7.2045 6.09944 8.56706C6.09944 9.9306 7.20383 11.036 8.56738 11.036C8.64296 11.036 8.71758 11.0321 8.79121 11.0261Z" fill="#FAC600"/>
<path fill-rule="evenodd" clip-rule="evenodd" d="M5.53891 8.56782C5.53891 6.76644 6.9545 5.29686 8.73426 5.20949C8.67928 5.20656 8.62334 5.20557 8.56739 5.20557C6.71007 5.20557 5.20514 6.71047 5.20514 8.56782C5.20514 10.4252 6.71007 11.9311 8.56739 11.9311C8.62334 11.9311 8.67931 11.9291 8.73426 11.9271C6.9545 11.8397 5.53891 10.3692 5.53891 8.56782Z" fill="#ED9A09"/>
</svg>
