<svg width="18" height="18" viewBox="0 0 18 18" fill="none" xmlns="http://www.w3.org/2000/svg">
<path fill-rule="evenodd" clip-rule="evenodd" d="M16.7728 16.3901L12.3708 11.988L11.5005 12.8582C11.3665 12.9934 11.1886 13.0762 10.999 13.092C10.8093 13.1077 10.6202 13.0553 10.4657 12.9441C9.96063 12.5846 9.47383 12.197 9.00375 11.793C8.50334 11.3632 8.01989 10.9145 7.55339 10.4467C7.08715 9.98046 6.63679 9.49682 6.20711 8.99637C5.80333 8.52629 5.41551 8.03947 5.0562 7.53424C4.94497 7.37985 4.89249 7.19082 4.90821 7.00117C4.92392 6.81153 5.0068 6.63372 5.14193 6.49974L6.01209 5.62939L1.61004 1.22721L0.648519 2.18874C0.393714 2.43456 0.204483 2.74025 0.0980763 3.07793C-0.00833072 3.41562 -0.0285304 3.77457 0.0393183 4.12207C0.31223 5.66626 1.02077 7.19134 1.83339 8.52196C2.77469 10.0632 3.94799 11.5003 5.2239 12.7762C6.49981 14.0522 7.93671 15.2253 9.47794 16.1666C10.8084 16.9793 12.3335 17.688 13.8777 17.9607C14.2252 18.0285 14.5841 18.0083 14.9218 17.9019C15.2595 17.7956 15.5651 17.6064 15.811 17.3517L16.7727 16.3901H16.7728ZM12.8021 11.5568L13.4439 10.9148C13.5431 10.8162 13.6773 10.7609 13.8171 10.7609C13.9569 10.7609 14.0911 10.8162 14.1903 10.9148L17.846 14.5705C17.9446 14.6697 18 14.8038 18 14.9437C18 15.0835 17.9446 15.2177 17.846 15.3168L17.204 15.9586L12.8021 11.5566V11.5568ZM2.04141 0.795761L2.68334 0.153722C2.78257 0.0552543 2.9167 0 3.0565 0C3.19629 0 3.33043 0.0552543 3.42966 0.153722L7.08536 3.80946C7.1839 3.90866 7.2392 4.04281 7.2392 4.18263C7.2392 4.32245 7.1839 4.4566 7.08536 4.5558L6.4435 5.19784L2.04141 0.795761Z" fill="#FFC107"/>
</svg>
