<svg width="16" height="16" viewBox="0 0 16 16" fill="none" xmlns="http://www.w3.org/2000/svg">
<mask id="mask0_1756_310007" style="mask-type:alpha" maskUnits="userSpaceOnUse" x="0" y="0" width="16" height="16">
<rect width="16" height="16" fill="#D9D9D9"/>
</mask>
<g mask="url(#mask0_1756_310007)">
<path d="M12.5315 8.75697C12.6878 8.65189 12.8049 8.52604 12.8828 8.37945C12.9609 8.23266 13 8.07298 13 7.90039C13 7.7278 12.9609 7.56812 12.8828 7.42133C12.8049 7.27474 12.6878 7.14889 12.5315 7.04381L4.57109 2.04708C4.48366 1.99809 4.3932 1.96144 4.29971 1.93713C4.20641 1.91264 4.11604 1.90039 4.02862 1.90039C3.7542 1.90039 3.51421 1.99528 3.30864 2.18508C3.10288 2.37505 3 2.61813 3 2.91432V12.8865C3 13.1826 3.10288 13.4257 3.30864 13.6157C3.51421 13.8055 3.7542 13.9004 4.02862 13.9004C4.11604 13.9004 4.20641 13.8881 4.29971 13.8636C4.3932 13.8393 4.48366 13.8027 4.57109 13.7537L12.5315 8.75697ZM4.70678 11.6588V4.14198L10.7024 7.90039L4.70678 11.6588Z" fill="#9933FF"/>
</g>
</svg>
