<svg width="64" height="64" viewBox="0 0 64 64" fill="none" xmlns="http://www.w3.org/2000/svg">
<path fill-rule="evenodd" clip-rule="evenodd" d="M15.3323 35.0867H34.3031C34.8211 35.0867 35.2046 34.6173 35.1011 34.1097C34.1257 29.3228 29.8926 25.7207 24.8177 25.7207C19.7427 25.7207 15.5096 29.3228 14.5342 34.1097C14.431 34.6172 14.8145 35.0867 15.3323 35.0867Z" fill="#008AFF"/>
<path fill-rule="evenodd" clip-rule="evenodd" d="M32.4484 35.0867H34.3031C34.8211 35.0867 35.2046 34.6173 35.1011 34.1097C34.1258 29.3228 29.8926 25.7207 24.8178 25.7207C24.5053 25.7207 24.1959 25.7346 23.8904 25.7613C28.5469 26.1691 32.3311 29.6177 33.2464 34.1098C33.3499 34.6173 32.9664 35.0867 32.4484 35.0867Z" fill="#60B7FF"/>
<path fill-rule="evenodd" clip-rule="evenodd" d="M25.5751 25.7481C25.325 25.7303 25.0725 25.7207 24.8177 25.7207C24.563 25.7207 24.3105 25.7302 24.0603 25.7481L22.3677 31.07C22.294 31.3017 22.3378 31.5351 22.4906 31.7243L24.599 34.3366C24.7115 34.476 24.9241 34.476 25.0365 34.3366L27.1448 31.7243C27.2976 31.5351 27.3415 31.3017 27.2677 31.07L25.5751 25.7481Z" fill="#FFE177"/>
<path fill-rule="evenodd" clip-rule="evenodd" d="M25.5751 25.7481C25.325 25.7303 25.0725 25.7207 24.8177 25.7207C24.6959 25.7207 24.5745 25.723 24.4536 25.7271C24.5854 25.7316 24.7164 25.7387 24.8469 25.748L26.5395 31.07C26.6132 31.3017 26.5694 31.5351 26.4166 31.7243L24.4536 34.1565L24.599 34.3366C24.7115 34.476 24.9241 34.476 25.0365 34.3366L27.1449 31.7243C27.2976 31.5351 27.3415 31.3017 27.2677 31.07L25.5751 25.7481Z" fill="#FFD064"/>
<path fill-rule="evenodd" clip-rule="evenodd" d="M25.575 25.7481L25.572 25.748C25.5418 25.7458 25.5115 25.7437 25.4813 25.7418C25.4292 25.7386 25.3769 25.7356 25.3246 25.7332L25.2619 25.7303C25.1965 25.7276 25.1308 25.7253 25.065 25.7237L25.0469 25.7233C24.9706 25.7217 24.8943 25.7207 24.8176 25.7207H24.8057H24.8029H24.7938H24.7884H24.7819H24.7738H24.77H24.7591H24.7582L24.7461 25.7208H24.7445L24.7341 25.721H24.7299L24.7223 25.7211H24.7153L24.7104 25.7212L24.7006 25.7213H24.6984L24.6865 25.7216H24.686L24.6747 25.7217L24.6628 25.7218L24.6569 25.722L24.6509 25.7221L24.6276 25.7225H24.627C24.4369 25.7261 24.2479 25.7347 24.0603 25.7481L24.051 25.777C24.6079 25.8343 25.1518 25.9353 25.6794 26.0763L25.575 25.7481Z" fill="#FFD064"/>
<path fill-rule="evenodd" clip-rule="evenodd" d="M25.575 25.7481L25.572 25.748C25.5418 25.7458 25.5115 25.7437 25.4813 25.7418C25.4291 25.7386 25.3769 25.7356 25.3246 25.7332L25.2619 25.7303C25.1965 25.7276 25.1308 25.7253 25.065 25.7237L25.0469 25.7233C24.9706 25.7217 24.8943 25.7207 24.8176 25.7207H24.8119H24.8061H24.8029H24.8004H24.7946H24.7889H24.7881H24.7831H24.7774H24.7734H24.7716H24.7659H24.7603H24.7588L24.7545 25.7208H24.7488H24.744H24.743H24.7373H24.7316H24.7294H24.7259L24.7148 25.721L24.7145 25.7211H24.7088L24.703 25.7212L24.6916 25.7213L24.6859 25.7215H24.6855H24.6803L24.6631 25.7217L24.6574 25.7218H24.6563L24.6125 25.7226H24.6119L24.6061 25.7227C24.555 25.7237 24.504 25.7252 24.4529 25.727C24.5846 25.7315 24.7156 25.7386 24.8461 25.7478L24.894 25.8986C25.1593 25.948 25.421 26.0073 25.6788 26.0762L25.575 25.7481Z" fill="#FFC338"/>
<path d="M29.9822 20.3955C30.6563 17.544 28.8911 14.686 26.0396 14.0119C23.1881 13.3379 20.3301 15.1031 19.656 17.9546C18.982 20.8061 20.7471 23.6641 23.5987 24.3381C26.4502 25.0122 29.3082 23.247 29.9822 20.3955Z" fill="#F6DCCD"/>
<path fill-rule="evenodd" clip-rule="evenodd" d="M24.8179 13.8579C27.7485 13.8579 30.1242 16.2337 30.1242 19.1643C30.1242 22.0949 27.7485 24.4707 24.8179 24.4707C24.567 24.4707 24.3202 24.4528 24.0786 24.4192C26.6592 24.0594 28.6457 21.844 28.6457 19.1643C28.6457 16.4847 26.6592 14.2693 24.0786 13.9095C24.3201 13.8758 24.5669 13.8579 24.8179 13.8579Z" fill="#F1CBBC"/>
<path fill-rule="evenodd" clip-rule="evenodd" d="M48.5941 23.8649C49.1576 23.8649 49.6172 24.3245 49.6172 24.8881V43.7151C49.6172 44.2786 49.1576 44.7384 48.5941 44.7384H32.8367C32.2731 44.7384 31.8135 44.2787 31.8135 43.7151V24.888C31.8135 24.3245 32.2731 23.8647 32.8367 23.8647L48.5941 23.8649Z" fill="#ECEFF1"/>
<path fill-rule="evenodd" clip-rule="evenodd" d="M48.5941 23.8647C49.1576 23.8647 49.6172 24.3244 49.6172 24.888V43.715C49.6172 44.2785 49.1576 44.7382 48.5941 44.7382H47.1016V23.8647H48.5941Z" fill="#D1D1D6"/>
<path fill-rule="evenodd" clip-rule="evenodd" d="M48.5941 22.8649C49.1519 22.8649 49.6579 23.0919 50.024 23.4581C50.3901 23.8242 50.6172 24.3302 50.6172 24.8881V43.7151C50.6172 44.2729 50.3902 44.7789 50.024 45.1451C49.6579 45.5112 49.1519 45.7384 48.5941 45.7384H32.8367C32.279 45.7384 31.7729 45.5114 31.4067 45.1451C31.0406 44.779 30.8135 44.273 30.8135 43.7151V24.888C30.8135 24.3302 31.0405 23.8242 31.4067 23.458C31.7729 23.0919 32.2789 22.8647 32.8367 22.8647L48.5941 22.8649ZM48.61 24.8721C48.6055 24.8676 48.5999 24.8649 48.5941 24.8649H32.8367C32.831 24.8649 32.8252 24.8677 32.8209 24.8721C32.8164 24.8766 32.8136 24.8824 32.8136 24.888V43.715C32.8136 43.7207 32.8165 43.7265 32.8209 43.7309C32.8254 43.7354 32.8311 43.7381 32.8367 43.7381H48.594C48.5997 43.7381 48.6054 43.7352 48.6098 43.7309C48.6143 43.7264 48.6171 43.7206 48.6171 43.715V24.888C48.6172 24.8824 48.6144 24.8766 48.61 24.8721Z" fill="black" fill-opacity="0.87"/>
<path fill-rule="evenodd" clip-rule="evenodd" d="M48.5941 22.8647C49.1518 22.8647 49.6578 23.0917 50.0239 23.458C50.3901 23.8241 50.6172 24.3301 50.6172 24.888V43.715C50.6172 44.2727 50.3902 44.7787 50.0239 45.145C49.6578 45.5111 49.1518 45.7382 48.5941 45.7382H47.1016V43.7382H48.5941C48.5998 43.7382 48.6054 43.7354 48.6099 43.731C48.6144 43.7265 48.6172 43.7207 48.6172 43.7151V24.8879C48.6172 24.8821 48.6143 24.8765 48.6099 24.872C48.6054 24.8675 48.5998 24.8647 48.5941 24.8647H47.1016V22.8647H48.5941Z" fill="black" fill-opacity="0.87"/>
<path fill-rule="evenodd" clip-rule="evenodd" d="M35.8831 29.3179C35.3308 29.3179 34.8831 28.8701 34.8831 28.3179C34.8831 27.7656 35.3308 27.3179 35.8831 27.3179H45.5479C46.1002 27.3179 46.5479 27.7656 46.5479 28.3179C46.5479 28.8701 46.1002 29.3179 45.5479 29.3179H35.8831ZM35.8831 42.6149C35.3308 42.6149 34.8831 42.1671 34.8831 41.6149C34.8831 41.0626 35.3308 40.6149 35.8831 40.6149H45.5479C46.1002 40.6149 46.5479 41.0626 46.5479 41.6149C46.5479 42.1671 46.1002 42.6149 45.5479 42.6149H35.8831ZM35.8831 39.2906C35.3308 39.2906 34.8831 38.8429 34.8831 38.2906C34.8831 37.7384 35.3308 37.2906 35.8831 37.2906H45.5479C46.1002 37.2906 46.5479 37.7384 46.5479 38.2906C46.5479 38.8429 46.1002 39.2906 45.5479 39.2906H35.8831ZM35.8831 35.9664C35.3308 35.9664 34.8831 35.5186 34.8831 34.9664C34.8831 34.4141 35.3308 33.9664 35.8831 33.9664H45.5479C46.1002 33.9664 46.5479 34.4141 46.5479 34.9664C46.5479 35.5186 46.1002 35.9664 45.5479 35.9664H35.8831ZM35.8831 32.6421C35.3308 32.6421 34.8831 32.1944 34.8831 31.6421C34.8831 31.0899 35.3308 30.6421 35.8831 30.6421H45.5479C46.1002 30.6421 46.5479 31.0899 46.5479 31.6421C46.5479 32.1944 46.1002 32.6421 45.5479 32.6421H35.8831Z" fill="#A79BA7"/>
<path fill-rule="evenodd" clip-rule="evenodd" d="M37.151 22.5347H39.0245C39.2086 21.7716 39.8957 21.2046 40.7154 21.2046C41.535 21.2046 42.2222 21.7716 42.4062 22.5347H44.2797C44.4862 22.5347 44.6547 22.7032 44.6547 22.9097V24.8201C44.6547 25.0266 44.4862 25.1951 44.2797 25.1951H37.1511C36.9446 25.1951 36.7761 25.0266 36.7761 24.8201V22.9097C36.776 22.7031 36.9444 22.5347 37.151 22.5347Z" fill="#F1BA84"/>
<path fill-rule="evenodd" clip-rule="evenodd" d="M44.0745 22.5347H44.2797C44.4862 22.5347 44.6547 22.7032 44.6547 22.9097V24.82C44.6547 25.0265 44.4862 25.195 44.2797 25.195H37.1511C36.9446 25.195 36.7761 25.0265 36.7761 24.82V24.5802H43.6996C43.9061 24.5802 44.0746 24.4117 44.0746 24.2052V22.5347H44.0745Z" fill="#E3A76F"/>
<path fill-rule="evenodd" clip-rule="evenodd" d="M32 1C40.5602 1 48.3102 4.46987 53.9201 10.0798C59.5301 15.6898 63 23.4398 63 32C63 40.5602 59.5301 48.3102 53.9202 53.9202C48.3102 59.5301 40.5602 63 32 63C23.4398 63 15.6898 59.5301 10.0798 53.9202C4.46987 48.3102 1 40.5602 1 32C1 23.4398 4.46987 15.6898 10.0798 10.0799C15.6898 4.46987 23.4398 1 32 1ZM52.5061 11.4939C47.2583 6.246 40.0081 3 32 3C23.9919 3 16.7417 6.246 11.4939 11.4939C6.246 16.7417 3 23.9919 3 32C3 40.0081 6.246 47.2583 11.4939 52.5061C16.7417 57.754 23.9919 61 32 61C40.0081 61 47.2583 57.754 52.5061 52.5061C57.754 47.2583 61 40.0081 61 32C61 23.9919 57.754 16.7417 52.5061 11.4939Z" fill="#E6E6E6"/>
<path fill-rule="evenodd" clip-rule="evenodd" d="M18.4603 19.8867H31.1749C31.6435 19.8867 32.027 19.5033 32.027 19.0347C32.027 18.5661 31.6437 18.1827 31.1749 18.1827H31.0032C31.0157 18.0227 31.022 17.8612 31.022 17.6981C31.022 14.9382 29.2198 12.5998 26.7282 11.7942C26.8218 10.8177 25.6218 10.5113 24.8177 10.5117C24.0135 10.5113 22.8135 10.8177 22.9071 11.7942C20.4155 12.5998 18.6133 14.9382 18.6133 17.6981C18.6133 17.8612 18.6198 18.0228 18.6321 18.1827H18.4604C17.9918 18.1827 17.6084 18.5661 17.6084 19.0347C17.6081 19.5033 17.9916 19.8867 18.4603 19.8867Z" fill="#FFC700"/>
<path fill-rule="evenodd" clip-rule="evenodd" d="M30.278 19.8867H31.1751C31.6438 19.8867 32.0273 19.5033 32.0273 19.0347C32.0273 18.5661 31.6439 18.1827 31.1751 18.1827H31.0034C31.0158 18.0228 31.0223 17.8612 31.0223 17.6981C31.0223 14.9382 29.22 12.5998 26.7284 11.7942C26.822 10.8178 25.622 10.5113 24.8179 10.5117C24.6774 10.5116 24.5248 10.521 24.3691 10.5416C25.1044 10.639 25.908 10.9883 25.8308 11.7942C28.3225 12.5998 30.1248 14.9382 30.1248 17.6981C30.1248 17.8612 30.1183 18.0228 30.1059 18.1827H30.2776C30.7463 18.1827 31.1296 18.5661 31.1296 19.0347C31.1295 19.5031 30.7464 19.8863 30.278 19.8867Z" fill="#FFD064"/>
<path fill-rule="evenodd" clip-rule="evenodd" d="M24.2463 15.1007H25.3893C25.9132 15.1007 26.3496 14.7173 26.417 14.1978L26.7238 11.8346C26.8549 10.8246 25.6311 10.5671 24.8178 10.5117C24.0046 10.5671 22.7807 10.8246 22.9118 11.8346L23.2187 14.1978C23.2861 14.7175 23.7225 15.1007 24.2463 15.1007Z" fill="#FFD064"/>
<path fill-rule="evenodd" clip-rule="evenodd" d="M24.2461 15.1009H25.3891C25.9129 15.1009 26.3493 14.7175 26.4167 14.1981L26.7236 11.8349C26.7854 11.358 26.5452 11.049 26.1888 10.8496C26.2169 10.9609 26.2246 11.0847 26.2066 11.2227L25.8997 13.586C25.8323 14.1055 25.3959 14.4889 24.8721 14.4889C24.5676 14.4889 24.1866 14.4889 23.7291 14.4889C23.5596 14.4889 23.3992 14.4487 23.2576 14.3767C23.3907 14.8031 23.7844 15.1009 24.2461 15.1009Z" fill="#FFC338"/>
<path fill-rule="evenodd" clip-rule="evenodd" d="M18.4604 18.1826C17.9918 18.1826 17.6084 18.566 17.6084 19.0346C17.6084 19.5032 17.9918 19.8866 18.4604 19.8866H31.175C31.6436 19.8866 32.0271 19.5032 32.0271 19.0346C32.0271 18.566 31.6438 18.1826 31.175 18.1826C26.9368 18.1826 22.6985 18.1826 18.4604 18.1826Z" fill="#FFC338"/>
<path fill-rule="evenodd" clip-rule="evenodd" d="M17.6084 19.0347C17.6084 19.5033 17.9918 19.8867 18.4604 19.8867H31.175C31.6436 19.8867 32.0271 19.5033 32.0271 19.0347H17.6084Z" fill="#FFD064"/>
<path fill-rule="evenodd" clip-rule="evenodd" d="M27.4372 52.9037L24.9879 54.3179L14.5915 36.311L12.6952 34.968L11.428 30.8317L13.8775 29.4175L16.826 32.5831L17.041 34.8967L27.4372 52.9037Z" fill="#D8ECFE"/>
<path fill-rule="evenodd" clip-rule="evenodd" d="M27.4372 52.9037L26.4853 53.4534L16.089 35.4464L15.874 33.1326L12.9255 29.967L13.8774 29.4175L16.8259 32.5831L17.0409 34.8967L27.4372 52.9037Z" fill="#C4E2FF"/>
<path fill-rule="evenodd" clip-rule="evenodd" d="M30.9049 57.0572L26.8513 59.3976C26.6419 59.5184 26.3717 59.4461 26.2508 59.2367L20.6453 49.5277C20.4078 49.1163 20.5501 48.5854 20.9614 48.3478L24.2806 46.4314C24.6919 46.1939 25.2228 46.3362 25.4604 46.7476L31.0659 56.4566C31.1867 56.6661 31.1143 56.9363 30.9049 57.0572Z" fill="#F1BA84"/>
<path fill-rule="evenodd" clip-rule="evenodd" d="M30.9049 57.0572L26.8513 59.3976C26.6418 59.5184 26.3717 59.4461 26.2508 59.2366L25.921 58.6654L29.4035 56.6548C29.6129 56.5339 29.6854 56.2637 29.5644 56.0542L24.0767 46.5492L24.2805 46.4314C24.6919 46.1939 25.2228 46.3362 25.4604 46.7476L31.0659 56.4566C31.1867 56.6661 31.1143 56.9363 30.9049 57.0572Z" fill="#E3A76F"/>
<path fill-rule="evenodd" clip-rule="evenodd" d="M6.69807 41.9773C5.08169 42.1818 3.42569 41.4232 2.55994 39.9238C1.74707 38.5157 1.84844 36.8308 2.67969 35.5562L4.77682 39.1884H6.95232L8.03994 37.3044L5.94294 33.6722C7.46244 33.5895 8.97232 34.3443 9.78532 35.7523C10.6511 37.2518 10.4799 39.0652 9.49469 40.3628L17.1883 53.6885C18.8047 53.484 20.4607 54.2425 21.3263 55.742C22.1393 57.1502 22.0379 58.835 21.2067 60.1097L19.1097 56.4774H16.9342L15.8466 58.3614L17.9436 61.9935C16.4241 62.0762 14.9142 61.3215 14.1012 59.9134C13.2354 58.414 13.4064 56.6005 14.3918 55.303L6.69807 41.9773Z" fill="#9FACBA"/>
<path fill-rule="evenodd" clip-rule="evenodd" d="M5.76238 41.9894C5.74301 41.9874 5.72376 41.9855 5.70438 41.9833C5.72138 41.9814 5.73838 41.9794 5.75538 41.9773L5.76238 41.9894ZM2.24438 36.4348C2.35401 36.1273 2.49976 35.832 2.67976 35.556L4.77688 39.1883H6.00963H3.83413L2.24438 36.4348ZM5.97888 33.7344C7.14088 33.947 8.20563 34.649 8.84263 35.7522C9.70838 37.2517 9.53726 39.065 8.55201 40.3627L16.2525 53.7002C16.565 53.6607 16.8788 53.6572 17.1881 53.688L9.49463 40.3627C10.4799 39.0652 10.651 37.2517 9.78526 35.7523C8.97226 34.3443 7.46238 33.5895 5.94288 33.6722L5.97888 33.7344ZM17.239 53.6824C18.8391 53.5 20.4695 54.2582 21.3261 55.7419C22.1391 57.15 22.0378 58.8349 21.2064 60.1095L20.6991 59.2309C21.096 58.1183 21.0205 56.8452 20.3835 55.7419C19.6956 54.5504 18.5086 53.8268 17.239 53.6824ZM16.9339 56.4773H15.9913L14.9036 58.3613L16.9648 61.9312C17.2859 61.9899 17.6144 62.0114 17.9434 61.9934L15.8463 58.3612L16.9339 56.4773Z" fill="#8D9CA8"/>
<path fill-rule="evenodd" clip-rule="evenodd" d="M54.5066 3.55075C55.3327 3.74738 56.1217 4.07487 56.8447 4.52L58.3641 3.84525L60.1549 5.636L59.4802 7.15487C59.9256 7.878 60.2531 8.66737 60.4497 9.49362L61.9999 10.0903V12.6226L60.4494 13.2194C60.2527 14.0455 59.9252 14.8345 59.48 15.5575L60.1547 17.0769L58.364 18.8676L56.8451 18.193C56.122 18.6384 55.3326 18.9659 54.5064 19.1625L53.9097 20.7126H51.3774L50.7806 19.1621C49.9545 18.9655 49.1655 18.638 48.4425 18.1928L46.9231 18.8675L45.1324 17.0767L45.807 15.5579C45.3616 14.8347 45.0341 14.0454 44.8375 13.2191L43.2874 12.6225V10.09L44.8377 9.49325C45.0344 8.66712 45.3619 7.878 45.8071 7.15487L45.1324 5.63575L46.9231 3.845L48.4425 4.51975C49.1656 4.0745 49.9546 3.747 50.7806 3.5505L51.3775 2H53.9099L54.5066 3.55075Z" fill="#FFC700"/>
<path fill-rule="evenodd" clip-rule="evenodd" d="M48.4423 18.1932L46.923 18.868L46.689 18.6341L48.1135 18.0015C48.2217 18.068 48.3313 18.1319 48.4423 18.1932ZM54.5066 3.55099C55.3327 3.74761 56.1217 4.07511 56.8447 4.52024L56.4128 4.71211C55.6898 4.26686 54.572 3.74761 53.7458 3.55099L53.1491 2.00049H53.9097L54.5066 3.55099ZM56.8452 18.1934C56.1221 18.6387 55.3327 18.9662 54.5065 19.1629L53.9098 20.713H53.1492L53.7458 19.1629C54.5721 18.9662 55.6902 18.4469 56.4135 18.0015L56.8452 18.1934ZM46.6891 4.07936L46.9231 3.84536L48.4425 4.52011C48.3315 4.58136 48.2218 4.64536 48.1137 4.71199L46.6891 4.07936ZM57.8373 4.07936L58.3641 3.84536L60.1548 5.63611L59.4802 7.15499C59.9256 7.87811 60.2531 8.66749 60.4497 9.49374L61.9998 10.0904V12.6227L60.4493 13.2195C60.2527 14.0456 59.9252 14.8346 59.48 15.5576L60.1547 17.077L58.364 18.8677L57.8372 18.6339L59.394 17.0771L58.7191 15.5577C59.1643 14.8346 59.4918 14.0457 59.6885 13.2196L61.239 12.6229V10.0905L59.6888 9.49386C59.4922 8.66761 59.1647 7.87824 58.7193 7.15511L59.394 5.63624L57.8373 4.07936Z" fill="#FFD064"/>
<path d="M52.6435 15.7729C55.0826 15.7729 57.0598 13.7957 57.0598 11.3567C57.0598 8.91765 55.0826 6.94043 52.6435 6.94043C50.2045 6.94043 48.2273 8.91765 48.2273 11.3567C48.2273 13.7957 50.2045 15.7729 52.6435 15.7729Z" fill="#ECEFF1"/>
<path fill-rule="evenodd" clip-rule="evenodd" d="M52.6435 6.94043C50.2043 6.94043 48.2273 8.91743 48.2273 11.3568C48.2273 13.7961 50.2043 15.7731 52.6435 15.7731C52.7618 15.7731 52.8789 15.7683 52.9948 15.7592C50.7198 15.5802 48.9298 13.6778 48.9298 11.3568C48.9298 9.0358 50.7198 7.13343 52.9948 6.95443C52.879 6.94518 52.7619 6.94043 52.6435 6.94043Z" fill="#D1D1D6"/>
</svg>
