<svg width="20" height="20" viewBox="0 0 20 20" fill="none" xmlns="http://www.w3.org/2000/svg">
<path d="M1.25 10C2.97656 7.01172 6.29688 5 10 5C13.7031 5 17.0234 7.01172 18.75 10C17.0234 12.9883 13.6992 15 10 15C6.30078 15 2.98047 12.9883 1.25 10ZM10 8.75C10 8.05859 9.44141 7.5 8.75 7.5C8.05859 7.5 7.5 8.05859 7.5 8.75C7.5 9.44141 8.05859 10 8.75 10C9.44141 10 10 9.44141 10 8.75ZM2.72659 10C3.44534 11.0312 4.47659 11.9023 5.56253 12.543C6.03909 12.8242 6.543 13.0586 7.06253 13.2422C6.17972 12.4414 5.62503 11.2852 5.62503 10C5.62503 8.71484 6.17972 7.55859 7.06253 6.75781C6.543 6.94141 6.03909 7.17578 5.56253 7.45703C4.47659 8.09766 3.44534 8.96875 2.72659 10ZM12.9375 13.2422C13.457 13.0586 13.9609 12.8242 14.4375 12.543C15.5234 11.9023 16.5508 11.0312 17.2734 10C16.5547 8.96875 15.5234 8.09766 14.4375 7.45703C13.9609 7.17578 13.457 6.94141 12.9375 6.75781C13.8203 7.55859 14.375 8.71484 14.375 10C14.375 11.2852 13.8203 12.4414 12.9375 13.2422Z" fill="#9933FF"/>
</svg>
