<svg width="45" height="49" viewBox="0 0 45 49" fill="none" xmlns="http://www.w3.org/2000/svg">
<g clip-path="url(#clip0_2843_47687)">
<rect x="2.71484" y="1" width="42" height="48" rx="1" fill="#256753"/>
<path d="M24.4886 13.0306H21.4423C20.9088 13.0306 20.4766 12.5982 20.4766 12.0649C20.4766 11.5315 20.9089 11.0991 21.4423 11.0991H24.4886C25.0221 11.0991 25.4543 11.5315 25.4543 12.0649C25.4544 12.5982 25.0221 13.0306 24.4886 13.0306Z" fill="#C9C0C7"/>
<path d="M38.7444 16.6189H21.4423C20.9088 16.6189 20.4766 16.1865 20.4766 15.6531C20.4766 15.1198 20.9089 14.6874 21.4423 14.6874H38.7444C39.2779 14.6874 39.7102 15.1198 39.7102 15.6531C39.7103 16.1864 39.2779 16.6189 38.7444 16.6189Z" fill="#C9C0C7"/>
<path d="M24.4886 27.0659H21.4423C20.9088 27.0659 20.4766 26.6335 20.4766 26.1002C20.4766 25.5668 20.9089 25.1344 21.4423 25.1344H24.4886C25.0221 25.1344 25.4543 25.5668 25.4543 26.1002C25.4544 26.6334 25.0221 27.0659 24.4886 27.0659Z" fill="#C9C0C7"/>
<path d="M38.7444 30.6542H21.4423C20.9088 30.6542 20.4766 30.2218 20.4766 29.6884C20.4766 29.155 20.9089 28.7227 21.4423 28.7227H38.7444C39.2779 28.7227 39.7102 29.155 39.7102 29.6884C39.7103 30.2218 39.2779 30.6542 38.7444 30.6542Z" fill="#C9C0C7"/>
<path d="M14.4996 43.2061H9.57144C8.81144 43.2061 8.19531 42.59 8.19531 41.83V36.902C8.19531 36.142 8.81144 35.5259 9.57144 35.5259H14.4994C15.2594 35.5259 15.8756 36.142 15.8756 36.902V41.83C15.8756 42.59 15.2596 43.2061 14.4996 43.2061Z" fill="#FEE265"/>
<path d="M15.8754 36.9021V41.8299C15.8754 42.5895 15.2589 43.206 14.4992 43.206H10.9531C11.7128 43.206 12.3292 42.5895 12.3292 41.8299V36.9021C12.3292 36.1425 11.7128 35.526 10.9531 35.526H14.4992C15.2589 35.526 15.8754 36.1425 15.8754 36.9021Z" fill="#FDD330"/>
<path d="M14.4996 31.2061H9.57144C8.81144 31.2061 8.19531 30.59 8.19531 29.83V24.902C8.19531 24.142 8.81144 23.5259 9.57144 23.5259H14.4994C15.2594 23.5259 15.8756 24.142 15.8756 24.902V29.83C15.8756 30.59 15.2596 31.2061 14.4996 31.2061Z" fill="#FEE265"/>
<path d="M15.8754 24.9021V29.8299C15.8754 30.5895 15.2589 31.206 14.4992 31.206H10.9531C11.7128 31.206 12.3292 30.5895 12.3292 29.8299V24.9021C12.3292 24.1425 11.7128 23.526 10.9531 23.526H14.4992C15.2589 23.526 15.8754 24.1425 15.8754 24.9021Z" fill="#FDD330"/>
<path d="M14.4996 17.2061H9.57144C8.81144 17.2061 8.19531 16.59 8.19531 15.83V10.902C8.19531 10.142 8.81144 9.52588 9.57144 9.52588H14.4994C15.2594 9.52588 15.8756 10.142 15.8756 10.902V15.83C15.8756 16.59 15.2596 17.2061 14.4996 17.2061Z" fill="#FEE265"/>
<path d="M15.8754 10.9021V15.8299C15.8754 16.5895 15.2589 17.206 14.4992 17.206H10.9531C11.7128 17.206 12.3292 16.5895 12.3292 15.8299V10.9021C12.3292 10.1425 11.7128 9.526 10.9531 9.526H14.4992C15.2589 9.526 15.8754 10.1425 15.8754 10.9021Z" fill="#FDD330"/>
<path d="M24.4886 39.5837H21.4423C20.9088 39.5837 20.4766 39.1513 20.4766 38.618C20.4766 38.0846 20.9089 37.6522 21.4423 37.6522H24.4886C25.0221 37.6522 25.4543 38.0846 25.4543 38.618C25.4544 39.1512 25.0221 39.5837 24.4886 39.5837Z" fill="#C9C0C7"/>
<path d="M38.7444 43.1719H21.4423C20.9088 43.1719 20.4766 42.7395 20.4766 42.2061C20.4766 41.6727 20.9089 41.2404 21.4423 41.2404H38.7444C39.2779 41.2404 39.7102 41.6727 39.7102 42.2061C39.7102 42.7395 39.2779 43.1719 38.7444 43.1719Z" fill="#C9C0C7"/>
</g>
<g clip-path="url(#clip1_2843_47687)">
<g clip-path="url(#clip2_2843_47687)">
<path d="M42.7148 0.965292V46.0346C42.7148 46.5685 42.1376 47 41.4262 47H2.00347C1.29206 46.9999 0.714844 46.5685 0.714844 46.0346V0.965292C0.714844 0.431387 1.29206 0 2.00347 0H41.4263C42.1376 0 42.7148 0.431387 42.7148 0.965292Z" fill="#F8F3F1"/>
<g clip-path="url(#clip3_2843_47687)">
<path d="M35.7272 23H26.0498C25.5153 23 25.082 23.4333 25.082 23.9677V26.3504H35.1961C35.7306 26.3504 36.1638 25.9171 36.1638 25.3827V23.9678L35.7272 23Z" fill="#ECEAEC"/>
<path d="M35.7276 23V24.9355C35.7276 25.4699 35.2943 25.9032 34.7598 25.9032H6.69531C6.69531 26.4376 7.12861 26.8709 7.66305 26.8709H35.7276C36.262 26.8709 36.6953 26.4376 36.6953 25.9032V23.9677C36.6953 23.4332 36.262 23 35.7276 23Z" fill="#DBD8DB"/>
<path d="M26.0507 25.9032L23.6289 26.3371L24.1152 23H26.0507V25.9032Z" fill="#FFE077"/>
<path d="M24.1147 25.9032V23H7.66305C7.12861 23 6.69531 23.4332 6.69531 23.9677V25.9032L24.1147 26.8709H26.0501V25.9032H24.1147Z" fill="#FFD05B"/>
<path d="M7.66305 26.8709H24.1146V25.9032H6.69531C6.69531 26.4377 7.12861 26.8709 7.66305 26.8709Z" fill="#FFC244"/>
</g>
<path d="M23.0111 14.5025L22.2579 13.0237V11.4052H19.9348V13.0237L19.1816 14.5025H23.0111Z" fill="#EFC24E"/>
<path d="M21.4199 11.4052V14.5025H23.0095L22.2564 13.0237V11.4052H21.4199Z" fill="#E4B643"/>
<path d="M23.4061 9.31026H23.2586V8.7283C23.2586 8.14895 23.0187 7.58764 22.5759 7.20962C22.2287 6.91324 21.7406 6.65459 21.096 6.64746C20.4514 6.65459 19.9633 6.91324 19.6161 7.20962C19.1732 7.58764 18.9334 8.14895 18.9334 8.7283V9.31026H18.7859C18.5698 9.31026 18.3945 9.48391 18.3945 9.69823V10.1282C18.3945 10.3426 18.5698 10.5162 18.7859 10.5162H18.934C18.9462 11.0793 19.1849 11.6213 19.6161 11.9895C19.9633 12.2858 20.4514 12.5444 21.096 12.5517C21.7407 12.5444 22.2287 12.2858 22.5759 11.9895C23.0071 11.6213 23.2458 11.0793 23.258 10.5162H23.4061C23.6222 10.5162 23.7974 10.3426 23.7974 10.1282V9.69823C23.7974 9.48391 23.6222 9.31026 23.4061 9.31026Z" fill="#F7CA58"/>
<path d="M23.4049 9.31043H23.2574V8.72847C23.2574 8.14912 23.0176 7.58781 22.5747 7.20979C22.5179 7.16137 22.4572 7.1141 22.3928 7.06873L22.3926 10.8633C22.3804 11.4264 22.1417 11.9684 21.7105 12.3366C21.637 12.3992 21.5569 12.4599 21.4707 12.5171C21.933 12.4368 22.2986 12.2254 22.5747 11.9896C23.0059 11.6215 23.2446 11.0795 23.2568 10.5164H23.4049C23.621 10.5164 23.7963 10.3426 23.7963 10.1284V9.69841C23.7963 9.48409 23.621 9.31043 23.4049 9.31043Z" fill="#E4B643"/>
<path d="M21.2097 6H20.9833C19.6075 6 18.4922 7.10555 18.4922 8.46944V9.18041H23.7008V8.46944C23.7008 7.10555 22.5855 6 21.2097 6Z" fill="white"/>
<path d="M21.2097 6H20.9833C19.6075 6 18.4922 7.10555 18.4922 8.46944V9.18041H23.7008V8.46944C23.7008 7.10555 22.5855 6 21.2097 6Z" fill="#03AAA9" fill-opacity="0.54"/>
<path d="M21.2092 6H20.9828C20.8768 6 20.7725 6.00681 20.6699 6.0196C21.8967 6.17345 22.8453 7.21161 22.8453 8.46944V9.18041H23.7003V8.46944C23.7003 7.10555 22.585 6 21.2092 6Z" fill="#03AAA9"/>
<path d="M23.7798 9.54174H18.4114C18.2122 9.54174 18.0508 9.38171 18.0508 9.18426C18.0508 8.98692 18.2122 8.82678 18.4114 8.82678H23.7798C23.979 8.82678 24.1404 8.98692 24.1404 9.18426C24.1403 9.38171 23.979 9.54174 23.7798 9.54174Z" fill="#03AAA9"/>
<path d="M24.7667 13.5074L22.2572 13.0237C22.2572 13.6597 21.0957 14.1752 21.0957 14.1752C21.0957 14.1752 19.934 13.6597 19.934 13.0237L17.4245 13.5074C16.4769 13.784 15.8262 14.2748 15.8262 15.2541V17.3626C15.8262 17.7146 16.114 18 16.4691 18H25.7221C26.0772 18 26.3651 17.7146 26.3651 17.3626V15.2541C26.3651 14.2748 25.7144 13.784 24.7667 13.5074Z" fill="#DEECF1"/>
<path d="M25.2246 13.67C25.4185 13.9261 25.5278 14.245 25.5278 14.6461V18H25.7213C26.0764 18 26.3642 17.7146 26.3642 17.3626V15.2541C26.3642 14.4425 25.9171 13.9666 25.2246 13.67Z" fill="#A8D3D8"/>
<path d="M19.9346 13.0237L18.9941 13.205C19.0501 13.7216 19.5126 14.1888 19.9895 14.5401C20.1231 14.6385 20.3038 14.6461 20.4465 14.5613L21.0961 14.1752C21.0961 14.1752 19.9346 13.6596 19.9346 13.0237Z" fill="#8EBAC5"/>
<path d="M22.2573 13.0237C22.2573 13.6597 21.0957 14.1752 21.0957 14.1752L21.7453 14.5613C21.8881 14.6462 22.0687 14.6385 22.2024 14.5401C22.6792 14.1888 23.1418 13.7216 23.1977 13.205L22.2573 13.0237Z" fill="#8EBAC5"/>
<path d="M17.0781 13.6248L17.2181 14.0887C17.4464 14.8686 17.5624 15.6766 17.5624 16.4886V17.9999H21.0961C21.0961 17.9999 21.0961 17.2795 21.096 16.7483C21.096 16.3966 20.9866 16.0537 20.7825 15.766C20.1965 14.9404 18.9942 13.205 18.994 13.205L17.6487 13.4643C17.4542 13.5018 17.2629 13.5545 17.0781 13.6248Z" fill="#439BDF"/>
<path d="M25.1137 13.6248L24.9737 14.0887C24.7453 14.8686 24.6294 15.6766 24.6294 16.4886V17.9999H21.0957C21.0957 17.9999 21.0957 17.2795 21.0958 16.7483C21.0958 16.3966 21.2052 16.0537 21.4094 15.766C21.9954 14.9404 23.1977 13.205 23.1978 13.205L24.5432 13.4643C24.7376 13.5018 24.9289 13.5545 25.1137 13.6248Z" fill="#439BDF"/>
<path d="M23.466 16.9624H22.2363C22.1543 16.9624 22.0879 16.8965 22.0879 16.8153V16.3999C22.0879 16.3186 22.1543 16.2527 22.2363 16.2527H23.466C23.5481 16.2527 23.6146 16.3186 23.6146 16.3999V16.8153C23.6146 16.8965 23.5481 16.9624 23.466 16.9624Z" fill="#B9DCFF"/>
<path d="M12.4996 41.2061H7.57144C6.81144 41.2061 6.19531 40.59 6.19531 39.83V34.902C6.19531 34.142 6.81144 33.5259 7.57144 33.5259H12.4994C13.2594 33.5259 13.8756 34.142 13.8756 34.902V39.83C13.8756 40.59 13.2596 41.2061 12.4996 41.2061Z" fill="#FEE265"/>
<path d="M13.8754 34.9021V39.8299C13.8754 40.5895 13.2589 41.206 12.4992 41.206H8.95312C9.71275 41.206 10.3292 40.5895 10.3292 39.8299V34.9021C10.3292 34.1425 9.71275 33.526 8.95312 33.526H12.4992C13.2589 33.526 13.8754 34.1425 13.8754 34.9021Z" fill="#FDD330"/>
<path d="M22.4886 37.5837H19.4423C18.9088 37.5837 18.4766 37.1513 18.4766 36.618C18.4766 36.0846 18.9089 35.6522 19.4423 35.6522H22.4886C23.0221 35.6522 23.4543 36.0846 23.4543 36.618C23.4544 37.1512 23.0221 37.5837 22.4886 37.5837Z" fill="#C9C0C7"/>
<path d="M36.7444 41.1719H19.4423C18.9088 41.1719 18.4766 40.7395 18.4766 40.2061C18.4766 39.6727 18.9089 39.2404 19.4423 39.2404H36.7444C37.2779 39.2404 37.7102 39.6727 37.7102 40.2061C37.7102 40.7395 37.2779 41.1719 36.7444 41.1719Z" fill="#C9C0C7"/>
</g>
</g>
<defs>
<clipPath id="clip0_2843_47687">
<rect x="2.71484" y="1" width="42" height="48" rx="1" fill="white"/>
</clipPath>
<clipPath id="clip1_2843_47687">
<rect width="42" height="47" fill="white" transform="translate(0.714844)"/>
</clipPath>
<clipPath id="clip2_2843_47687">
<rect width="42" height="48" fill="white" transform="translate(0.714844 -1)"/>
</clipPath>
<clipPath id="clip3_2843_47687">
<rect width="30" height="3.87094" fill="white" transform="translate(6.69531 23)"/>
</clipPath>
</defs>
</svg>
