<svg width="24" height="24" viewBox="0 0 24 24" fill="none" xmlns="http://www.w3.org/2000/svg">
<path d="M13.5 13.5V22.875H4.125C3.73103 22.875 3.3409 22.7975 2.97691 22.6467C2.61292 22.4959 2.28219 22.275 2.00361 21.9964C1.72503 21.7178 1.50405 21.3871 1.3533 21.0231C1.20255 20.6591 1.12497 20.269 1.125 19.875V16.125C1.12498 15.7803 1.19287 15.4389 1.32478 15.1204C1.4567 14.802 1.65005 14.5126 1.89381 14.2688C2.13757 14.0251 2.42695 13.8317 2.74544 13.6998C3.06392 13.5679 3.40528 13.5 3.75 13.5H13.5Z" fill="#548AFF"/>
<path d="M6.75 19.875L7.125 17.25H7.875L8.25 19.875H6.75Z" fill="#FFC431"/>
<path d="M8.25 16.5L7.875 17.25H7.125L6.75 16.5L7.5 15.75L8.25 16.5Z" fill="#FFA100"/>
<path d="M10.5164 13.5L9.35905 17.3578C9.34048 17.42 9.30609 17.4762 9.25926 17.5211C9.21242 17.5659 9.15474 17.5979 9.09186 17.6138C9.0618 17.6212 9.03096 17.625 8.99999 17.625C8.95073 17.6251 8.90194 17.6154 8.85641 17.5966C8.81089 17.5778 8.76952 17.5501 8.73468 17.5153L7.49999 16.2802L6.2653 17.5153C6.21943 17.5612 6.16242 17.5944 6.09986 17.6117C6.0373 17.629 5.97133 17.6297 5.9084 17.6138C5.84548 17.5979 5.78775 17.566 5.74086 17.5211C5.69398 17.4763 5.65955 17.42 5.64093 17.3578L4.48358 13.5H5.2664L6.17859 16.5408L7.23468 15.4847C7.30511 15.4144 7.40052 15.375 7.49999 15.375C7.59946 15.375 7.69487 15.4144 7.7653 15.4847L8.82139 16.5408L9.73358 13.5H10.5164Z" fill="#4976F2"/>
<path d="M21.1927 18.375H22.875V15.375H21.1927C21.1357 15.375 21.0799 15.3581 21.0325 15.3264C20.985 15.2947 20.9481 15.2496 20.9262 15.1969C20.9044 15.1442 20.8987 15.0862 20.9098 15.0303C20.9209 14.9743 20.9484 14.9229 20.9888 14.8825L22.1783 13.693L20.057 11.5717L18.8675 12.7612C18.8271 12.8016 18.7757 12.829 18.7198 12.8402C18.6638 12.8513 18.6058 12.8456 18.5531 12.8238C18.5004 12.8019 18.4553 12.7649 18.4236 12.7175C18.3919 12.6701 18.375 12.6143 18.375 12.5572V10.875H15.375V12.5572C15.375 12.6143 15.3581 12.6701 15.3264 12.7175C15.2947 12.7649 15.2496 12.8019 15.1969 12.8238C15.1442 12.8456 15.0862 12.8513 15.0302 12.8402C14.9743 12.829 14.9229 12.8016 14.8825 12.7612L13.693 11.5717L11.5717 13.693L12.7612 14.8825C12.8016 14.9229 12.8291 14.9743 12.8402 15.0303C12.8513 15.0862 12.8456 15.1442 12.8238 15.1969C12.8019 15.2496 12.765 15.2947 12.7175 15.3264C12.6701 15.3581 12.6143 15.375 12.5573 15.375H10.875V18.375H12.5573C12.6143 18.375 12.6701 18.3919 12.7175 18.4236C12.765 18.4553 12.8019 18.5004 12.8238 18.5531C12.8456 18.6058 12.8513 18.6638 12.8402 18.7197C12.8291 18.7757 12.8016 18.8271 12.7612 18.8675L11.5717 20.057L13.693 22.1783L14.8825 20.9888C14.9229 20.9484 14.9743 20.9209 15.0302 20.9098C15.0862 20.8987 15.1442 20.9044 15.1969 20.9262C15.2496 20.9481 15.2947 20.985 15.3264 21.0325C15.3581 21.0799 15.375 21.1357 15.375 21.1928V22.875H18.375V21.1928C18.375 21.1357 18.3919 21.0799 18.4236 21.0325C18.4553 20.985 18.5004 20.9481 18.5531 20.9262C18.6058 20.9044 18.6638 20.8987 18.7198 20.9098C18.7757 20.921 18.8271 20.9484 18.8675 20.9888L20.057 22.1783L22.1783 20.057L20.9888 18.8675C20.9484 18.8271 20.9209 18.7757 20.9098 18.7197C20.8987 18.6638 20.9044 18.6058 20.9262 18.5531C20.9481 18.5004 20.985 18.4553 21.0325 18.4236C21.0799 18.3919 21.1357 18.375 21.1927 18.375ZM16.875 18.75C16.5042 18.75 16.1416 18.64 15.8333 18.434C15.525 18.228 15.2846 17.9351 15.1427 17.5925C15.0008 17.2499 14.9637 16.8729 15.036 16.5092C15.1084 16.1455 15.287 15.8114 15.5492 15.5492C15.8114 15.287 16.1455 15.1084 16.5092 15.036C16.8729 14.9637 17.2499 15.0008 17.5925 15.1427C17.9351 15.2846 18.228 15.525 18.434 15.8333C18.64 16.1416 18.75 16.5042 18.75 16.875C18.75 17.3723 18.5525 17.8492 18.2008 18.2008C17.8492 18.5525 17.3723 18.75 16.875 18.75Z" fill="#EF5E3B"/>
<path d="M9 11.25V13.5L7.5 15.75L6 13.5V11.25H9Z" fill="#FFCEB6"/>
<path d="M9 11.25V13.5L8.26875 14.5969C7.74054 14.512 7.25983 14.2418 6.9128 13.8346C6.56577 13.4274 6.37511 12.91 6.375 12.375V11.25H9Z" fill="#FFBFA1"/>
<path d="M9.375 20.25H4.875C4.57663 20.25 4.29048 20.1315 4.0795 19.9205C3.86853 19.7095 3.75 19.4234 3.75 19.125V17.25C3.75 17.1505 3.78951 17.0552 3.85984 16.9848C3.93016 16.9145 4.02554 16.875 4.125 16.875C4.22446 16.875 4.31984 16.9145 4.39016 16.9848C4.46049 17.0552 4.5 17.1505 4.5 17.25V19.125C4.5 19.2245 4.53951 19.3198 4.60984 19.3902C4.68016 19.4605 4.77554 19.5 4.875 19.5H9.375C9.47446 19.5 9.56984 19.5395 9.64017 19.6098C9.71049 19.6802 9.75 19.7755 9.75 19.875C9.75 19.9745 9.71049 20.0698 9.64017 20.1402C9.56984 20.2105 9.47446 20.25 9.375 20.25Z" fill="#4976F2"/>
<path d="M9.75 22.8749V19.8749L12.1458 19.1904C12.2153 19.1705 12.2888 19.1696 12.3587 19.1878C12.4286 19.2059 12.4925 19.2424 12.5435 19.2935C12.6037 19.3536 12.6433 19.4311 12.657 19.515C12.6706 19.5989 12.6574 19.685 12.6194 19.7611L12 20.9999L13.9938 21.9968C14.0708 22.0353 14.1355 22.0945 14.1808 22.1677C14.226 22.2409 14.25 22.3253 14.25 22.4114C14.25 22.4723 14.238 22.5325 14.2147 22.5888C14.1914 22.645 14.1573 22.6961 14.1142 22.7391C14.0712 22.7822 14.0201 22.8163 13.9639 22.8396C13.9076 22.8629 13.8473 22.8749 13.7865 22.8749H9.75Z" fill="#FFCEB6"/>
<path d="M1.125 1.125H8.625V4.875H1.125V1.125Z" fill="#FFC431"/>
<path d="M13.125 1.125H20.625V4.875H13.125V1.125Z" fill="#FFC431"/>
<path d="M3.75 2.625L3.07766 3.29733C3.04058 3.33442 3.01532 3.38167 3.00509 3.4331C2.99486 3.48454 3.00012 3.53785 3.02018 3.58631C3.04025 3.63476 3.07424 3.67617 3.11785 3.70531C3.16145 3.73445 3.21272 3.75 3.26516 3.75H3.375V8.625H4.125V3.75H4.23484C4.28728 3.75 4.33855 3.73445 4.38215 3.70531C4.42576 3.67617 4.45975 3.63476 4.47982 3.58631C4.49988 3.53785 4.50514 3.48454 4.49491 3.4331C4.48468 3.38167 4.45942 3.33442 4.42234 3.29733L3.75 2.625Z" fill="#D1E4FF"/>
<path d="M8.625 2.625H10.125V3.375H8.625V2.625Z" fill="#D1E4FF"/>
<path d="M14.8902 2.25C14.8198 2.25 14.7524 2.27794 14.7027 2.32767C14.6529 2.3774 14.625 2.44484 14.625 2.51517V2.625H10.875V3.375H14.625V3.48483C14.625 3.53728 14.6406 3.58855 14.6697 3.63215C14.6988 3.67576 14.7402 3.70975 14.7887 3.72982C14.8371 3.74989 14.8905 3.75514 14.9419 3.7449C14.9933 3.73467 15.0406 3.70942 15.0777 3.67233L15.75 3L15.0777 2.32767C15.053 2.30304 15.0238 2.28351 14.9916 2.27018C14.9595 2.25685 14.925 2.25 14.8902 2.25Z" fill="#D1E4FF"/>
<path d="M3.375 9.375H4.125V10.125H3.375V9.375Z" fill="#D1E4FF"/>
<path d="M16.5 4.875H17.25V6.375H16.5V4.875Z" fill="#D1E4FF"/>
<path d="M17.3598 12.75H17.25V7.125H16.5V12.75H16.3902C16.3377 12.75 16.2865 12.7656 16.2428 12.7947C16.1992 12.8238 16.1653 12.8652 16.1452 12.9137C16.1251 12.9621 16.1199 13.0155 16.1301 13.0669C16.1403 13.1183 16.1656 13.1656 16.2027 13.2027L16.875 13.875L17.5473 13.2027C17.5844 13.1656 17.6097 13.1183 17.6199 13.0669C17.6301 13.0155 17.6249 12.9621 17.6048 12.9137C17.5847 12.8652 17.5508 12.8238 17.5072 12.7947C17.4635 12.7656 17.4123 12.75 17.3598 12.75Z" fill="#D1E4FF"/>
<path d="M10.5 8.25V11.625C10.5 12.2217 10.2629 12.794 9.84099 13.216C9.41903 13.6379 8.84674 13.875 8.25 13.875C7.65326 13.875 7.08097 13.6379 6.65901 13.216C6.23705 12.794 6 12.2217 6 11.625V10.125L7.875 8.25H10.5Z" fill="#FFCEB6"/>
<path d="M7.875 10.5C8.08211 10.5 8.25 10.3321 8.25 10.125C8.25 9.91789 8.08211 9.75 7.875 9.75C7.66789 9.75 7.5 9.91789 7.5 10.125C7.5 10.3321 7.66789 10.5 7.875 10.5Z" fill="#C47220"/>
<path d="M10.5 8.25L10.7375 8.13123C10.8915 8.05424 11.021 7.93588 11.1115 7.78943C11.2021 7.64298 11.25 7.47422 11.25 7.30205C11.25 7.18031 11.226 7.05976 11.1794 6.94728C11.1328 6.83481 11.0646 6.73261 10.9785 6.64653C10.8924 6.56044 10.7902 6.49216 10.6777 6.44557C10.5652 6.39898 10.4447 6.375 10.3229 6.375H7.875C7.37772 6.375 6.90081 6.57254 6.54917 6.92417C6.19754 7.27581 6 7.75272 6 8.25V10.125L7.875 8.25H10.5Z" fill="#C47220"/>
<path d="M9.37498 12.375H8.4053C8.18783 12.3756 7.9724 12.3331 7.77149 12.2499C7.57057 12.1666 7.38815 12.0444 7.2348 11.8902L7.76517 11.3599C7.84903 11.4442 7.94879 11.5111 8.05867 11.5566C8.16855 11.6021 8.28637 11.6254 8.4053 11.625H9.37498V12.375Z" fill="#FFB089"/>
<path d="M9.375 10.5C9.58211 10.5 9.75 10.3321 9.75 10.125C9.75 9.91789 9.58211 9.75 9.375 9.75C9.16789 9.75 9 9.91789 9 10.125C9 10.3321 9.16789 10.5 9.375 10.5Z" fill="#C47220"/>
</svg>
