<svg width="24" height="24" viewBox="0 0 24 24" fill="none" xmlns="http://www.w3.org/2000/svg">
<g clip-path="url(#clip0_1584_1316)">
<path fill-rule="evenodd" clip-rule="evenodd" d="M5.7524 15.4925H12.8664C13.0607 15.4925 13.2045 15.3165 13.1657 15.1261C12.7999 13.331 11.2125 11.9802 9.30942 11.9802C7.40629 11.9802 5.81887 13.331 5.4531 15.1261C5.41439 15.3164 5.5582 15.4925 5.7524 15.4925Z" fill="#8AC9FE"/>
<path fill-rule="evenodd" clip-rule="evenodd" d="M12.1709 15.4925H12.8665C13.0607 15.4925 13.2045 15.3165 13.1657 15.1261C12.7999 13.331 11.2125 11.9802 9.30944 11.9802C9.19225 11.9802 9.07623 11.9854 8.96167 11.9955C10.7079 12.1484 12.127 13.4416 12.4702 15.1261C12.509 15.3165 12.3652 15.4925 12.1709 15.4925Z" fill="#60B7FF"/>
<path fill-rule="evenodd" clip-rule="evenodd" d="M9.59344 11.9905C9.49964 11.9838 9.40495 11.9802 9.30942 11.9802C9.21389 11.9802 9.1192 11.9838 9.02541 11.9905L8.39067 13.9862C8.36302 14.0731 8.37947 14.1606 8.43675 14.2316L9.22739 15.2112C9.26958 15.2634 9.34931 15.2634 9.39145 15.2112L10.1821 14.2316C10.2394 14.1606 10.2558 14.0731 10.2282 13.9862L9.59344 11.9905Z" fill="#FFE177"/>
<path fill-rule="evenodd" clip-rule="evenodd" d="M9.59341 11.9905C9.49962 11.9838 9.40493 11.9802 9.3094 11.9802C9.2637 11.9802 9.21818 11.9811 9.17285 11.9826C9.22226 11.9843 9.27138 11.987 9.32032 11.9904L9.95505 13.9862C9.98271 14.0731 9.96626 14.1606 9.90898 14.2316L9.17285 15.1436L9.22737 15.2112C9.26955 15.2634 9.34929 15.2634 9.39143 15.2112L10.1821 14.2316C10.2394 14.1606 10.2558 14.0731 10.2281 13.9862L9.59341 11.9905Z" fill="#FFD064"/>
<path fill-rule="evenodd" clip-rule="evenodd" d="M9.59341 11.9905L9.59229 11.9904C9.58094 11.9896 9.5696 11.9888 9.55826 11.9881C9.53871 11.9869 9.51911 11.9858 9.49952 11.9849L9.47599 11.9838C9.45147 11.9828 9.42682 11.982 9.40216 11.9813L9.39536 11.9812C9.36677 11.9806 9.33813 11.9802 9.3094 11.9802H9.3049H9.30386H9.30044H9.29843H9.29599H9.29294H9.29154H9.28746H9.28708L9.28258 11.9803H9.28197L9.27808 11.9803H9.27649L9.27363 11.9804H9.27101L9.26918 11.9804L9.26552 11.9805H9.26468L9.26022 11.9806H9.26004L9.25577 11.9806L9.25132 11.9806L9.24911 11.9807L9.24686 11.9807L9.23815 11.9809H9.23791C9.16661 11.9822 9.09574 11.9855 9.02538 11.9905L9.02191 12.0013C9.23074 12.0228 9.43469 12.0607 9.63255 12.1136L9.59341 11.9905Z" fill="#FFD064"/>
<path fill-rule="evenodd" clip-rule="evenodd" d="M9.5934 11.9905L9.59228 11.9904C9.58094 11.9896 9.56959 11.9888 9.55825 11.9881C9.5387 11.9869 9.51911 11.9858 9.49951 11.9849L9.47598 11.9838C9.45147 11.9828 9.42681 11.982 9.40215 11.9813L9.39536 11.9812C9.36676 11.9806 9.33812 11.9802 9.30939 11.9802H9.30723H9.30508H9.30386H9.30292H9.30076H9.29861H9.29833H9.29645H9.29429H9.29279H9.29214H9.28998H9.28787H9.28731L9.28572 11.9803H9.28356H9.28178H9.2814H9.27925H9.27714H9.2763H9.27498L9.27081 11.9803L9.27072 11.9804H9.26856L9.2664 11.9804L9.26214 11.9805L9.25998 11.9805H9.25984H9.25787L9.25145 11.9806L9.24929 11.9806H9.24887L9.23247 11.9809H9.23223L9.23008 11.981C9.2109 11.9813 9.19178 11.9819 9.17261 11.9826C9.22201 11.9843 9.27114 11.9869 9.32008 11.9904L9.33803 12.0469C9.4375 12.0654 9.53565 12.0877 9.63231 12.1135L9.5934 11.9905Z" fill="#FFC338"/>
<path d="M11.2461 9.98334C11.4989 8.91402 10.837 7.84227 9.76765 7.5895C8.69834 7.33673 7.62658 7.99867 7.37381 9.06799C7.12105 10.1373 7.78299 11.2091 8.8523 11.4618C9.92162 11.7146 10.9934 11.0527 11.2461 9.98334Z" fill="#F6DCCD"/>
<path fill-rule="evenodd" clip-rule="evenodd" d="M9.30945 7.53174C10.4084 7.53174 11.2993 8.42264 11.2993 9.52163C11.2993 10.6206 10.4084 11.5115 9.30945 11.5115C9.21537 11.5115 9.12284 11.5048 9.03223 11.4922C9.99996 11.3573 10.7449 10.5265 10.7449 9.52163C10.7449 8.51677 9.99996 7.686 9.03223 7.5511C9.12279 7.53844 9.21532 7.53174 9.30945 7.53174Z" fill="#F1CBBC"/>
<path fill-rule="evenodd" clip-rule="evenodd" d="M18.2256 11.2842C18.4369 11.2842 18.6093 11.4566 18.6093 11.6679V18.7281C18.6093 18.9394 18.4369 19.1118 18.2256 19.1118H12.3166C12.1052 19.1118 11.9329 18.9394 11.9329 18.7281V11.6679C11.9329 11.4566 12.1052 11.2842 12.3166 11.2842L18.2256 11.2842Z" fill="#ECEFF1"/>
<path fill-rule="evenodd" clip-rule="evenodd" d="M18.2256 11.2842C18.4369 11.2842 18.6093 11.4565 18.6093 11.6679V18.728C18.6093 18.9393 18.4369 19.1117 18.2256 19.1117H17.6659V11.2842H18.2256Z" fill="#D1D1D6"/>
<path fill-rule="evenodd" clip-rule="evenodd" d="M18.2256 10.9092C18.4348 10.9092 18.6245 10.9944 18.7618 11.1317C18.8991 11.269 18.9843 11.4587 18.9843 11.6679V18.7281C18.9843 18.9372 18.8991 19.127 18.7618 19.2643C18.6245 19.4016 18.4348 19.4868 18.2256 19.4868H12.3166C12.1074 19.4868 11.9176 19.4017 11.7803 19.2643C11.643 19.127 11.5579 18.9373 11.5579 18.7281V11.6679C11.5579 11.4587 11.643 11.269 11.7803 11.1316C11.9176 10.9944 12.1074 10.9092 12.3166 10.9092L18.2256 10.9092ZM18.2315 11.6619C18.2299 11.6603 18.2278 11.6592 18.2256 11.6592H12.3166C12.3144 11.6592 12.3123 11.6603 12.3106 11.6619C12.3089 11.6636 12.3079 11.6658 12.3079 11.6679V18.728C12.3079 18.7302 12.309 18.7323 12.3106 18.734C12.3123 18.7357 12.3145 18.7367 12.3166 18.7367H18.2255C18.2277 18.7367 18.2298 18.7356 18.2315 18.734C18.2332 18.7323 18.2342 18.7301 18.2342 18.728V11.6679C18.2343 11.6658 18.2332 11.6636 18.2315 11.6619Z" fill="#F2F2D9"/>
<path fill-rule="evenodd" clip-rule="evenodd" d="M18.2256 10.9092C18.4347 10.9092 18.6245 10.9943 18.7618 11.1316C18.8991 11.2689 18.9843 11.4587 18.9843 11.6679V18.728C18.9843 18.9372 18.8991 19.1269 18.7618 19.2643C18.6245 19.4016 18.4347 19.4867 18.2256 19.4867H17.6659V18.7367H18.2256C18.2277 18.7367 18.2298 18.7357 18.2315 18.734C18.2332 18.7323 18.2343 18.7302 18.2343 18.7281V11.6679C18.2343 11.6657 18.2332 11.6636 18.2315 11.6619C18.2298 11.6602 18.2277 11.6592 18.2256 11.6592H17.6659V10.9092H18.2256Z" fill="#F2F2D9"/>
<path fill-rule="evenodd" clip-rule="evenodd" d="M13.4589 13.3291C13.2518 13.3291 13.0839 13.1612 13.0839 12.9541C13.0839 12.747 13.2518 12.5791 13.4589 12.5791H17.0833C17.2903 12.5791 17.4583 12.747 17.4583 12.9541C17.4583 13.1612 17.2903 13.3291 17.0833 13.3291H13.4589ZM13.4589 18.3155C13.2518 18.3155 13.0839 18.1476 13.0839 17.9405C13.0839 17.7334 13.2518 17.5655 13.4589 17.5655H17.0833C17.2903 17.5655 17.4583 17.7334 17.4583 17.9405C17.4583 18.1476 17.2903 18.3155 17.0833 18.3155H13.4589ZM13.4589 17.0689C13.2518 17.0689 13.0839 16.901 13.0839 16.6939C13.0839 16.4868 13.2518 16.3189 13.4589 16.3189H17.0833C17.2903 16.3189 17.4583 16.4868 17.4583 16.6939C17.4583 16.901 17.2903 17.0689 17.0833 17.0689H13.4589ZM13.4589 15.8223C13.2518 15.8223 13.0839 15.6544 13.0839 15.4473C13.0839 15.2402 13.2518 15.0723 13.4589 15.0723H17.0833C17.2903 15.0723 17.4583 15.2402 17.4583 15.4473C17.4583 15.6544 17.2903 15.8223 17.0833 15.8223H13.4589ZM13.4589 14.5757C13.2518 14.5757 13.0839 14.4078 13.0839 14.2007C13.0839 13.9936 13.2518 13.8257 13.4589 13.8257H17.0833C17.2903 13.8257 17.4583 13.9936 17.4583 14.2007C17.4583 14.4078 17.2903 14.5757 17.0833 14.5757H13.4589Z" fill="#A79BA7"/>
<path fill-rule="evenodd" clip-rule="evenodd" d="M13.9345 10.7854H14.637C14.7061 10.4992 14.9637 10.2866 15.2711 10.2866C15.5785 10.2866 15.8362 10.4992 15.9052 10.7854H16.6077C16.6852 10.7854 16.7484 10.8486 16.7484 10.926V11.6424C16.7484 11.7199 16.6852 11.7831 16.6077 11.7831H13.9345C13.8571 11.7831 13.7939 11.7199 13.7939 11.6424V10.926C13.7938 10.8486 13.857 10.7854 13.9345 10.7854Z" fill="#F1BA84"/>
<path fill-rule="evenodd" clip-rule="evenodd" d="M16.5307 10.7854H16.6077C16.6851 10.7854 16.7483 10.8486 16.7483 10.926V11.6424C16.7483 11.7199 16.6851 11.783 16.6077 11.783H13.9344C13.857 11.783 13.7938 11.7199 13.7938 11.6424V11.5525H16.3901C16.4676 11.5525 16.5308 11.4893 16.5308 11.4118V10.7854H16.5307Z" fill="#E3A76F"/>
<path fill-rule="evenodd" clip-rule="evenodd" d="M12 0.375C15.2101 0.375 18.1163 1.6762 20.22 3.77991C22.3238 5.88366 23.625 8.78991 23.625 12C23.625 15.2101 22.3238 18.1163 20.2201 20.2201C18.1163 22.3238 15.2101 23.625 12 23.625C8.78991 23.625 5.88366 22.3238 3.77991 20.2201C1.6762 18.1163 0.375 15.2101 0.375 12C0.375 8.78991 1.6762 5.88366 3.77991 3.77995C5.88366 1.6762 8.78991 0.375 12 0.375ZM19.6898 4.3102C17.7218 2.34225 15.003 1.125 12 1.125C8.99695 1.125 6.27816 2.34225 4.3102 4.3102C2.34225 6.27816 1.125 8.99695 1.125 12C1.125 15.003 2.34225 17.7218 4.3102 19.6898C6.27816 21.6578 8.99695 22.875 12 22.875C15.003 22.875 17.7218 21.6578 19.6898 19.6898C21.6578 17.7218 22.875 15.003 22.875 12C22.875 8.99695 21.6578 6.27816 19.6898 4.3102Z" fill="#F2F2D9"/>
<path fill-rule="evenodd" clip-rule="evenodd" d="M6.92547 9.79199H11.6935C11.8692 9.79199 12.013 9.64823 12.013 9.47249C12.013 9.29676 11.8692 9.15299 11.6935 9.15299H11.629C11.6337 9.09299 11.6361 9.03243 11.6361 8.97126C11.6361 7.9363 10.9603 7.05941 10.0259 6.7573C10.061 6.39112 9.61103 6.27623 9.30949 6.27637C9.00794 6.27623 8.55794 6.39112 8.59305 6.7573C7.65869 7.05941 6.98285 7.9363 6.98285 8.97126C6.98285 9.03243 6.98528 9.09304 6.98992 9.15299H6.92552C6.74978 9.15299 6.60602 9.29676 6.60602 9.47249C6.60592 9.64823 6.74974 9.79199 6.92547 9.79199Z" fill="#FFE177"/>
<path fill-rule="evenodd" clip-rule="evenodd" d="M11.357 9.79199H11.6934C11.8692 9.79199 12.013 9.64823 12.013 9.47249C12.013 9.29676 11.8692 9.15299 11.6934 9.15299H11.629C11.6337 9.09304 11.6361 9.03243 11.6361 8.97126C11.6361 7.93631 10.9603 7.05941 10.0259 6.7573C10.061 6.39116 9.611 6.27623 9.30946 6.27637C9.25677 6.27632 9.19953 6.27984 9.14117 6.28757C9.41689 6.32409 9.71825 6.4551 9.68928 6.7573C10.6237 7.05941 11.2995 7.93631 11.2995 8.97126C11.2995 9.03243 11.2971 9.09304 11.2925 9.15299H11.3569C11.5326 9.15299 11.6764 9.29676 11.6764 9.47249C11.6763 9.64813 11.5326 9.79185 11.357 9.79199Z" fill="#FFD064"/>
<path fill-rule="evenodd" clip-rule="evenodd" d="M9.09515 7.99724H9.52377C9.72023 7.99724 9.88387 7.85348 9.90913 7.65866L10.0242 6.77245C10.0734 6.3937 9.61443 6.29713 9.30946 6.27637C9.00449 6.29713 8.54554 6.3937 8.59471 6.77245L8.70979 7.65866C8.73506 7.85352 8.8987 7.99724 9.09515 7.99724Z" fill="#FFD064"/>
<path fill-rule="evenodd" clip-rule="evenodd" d="M9.09511 7.9973H9.52374C9.72019 7.9973 9.88383 7.85353 9.9091 7.65876L10.0242 6.77255C10.0474 6.59372 9.95729 6.47784 9.82364 6.40308C9.83419 6.44479 9.83705 6.49125 9.8303 6.543L9.71522 7.42922C9.68996 7.62403 9.52632 7.76779 9.32986 7.76779C9.21568 7.76779 9.0728 7.76779 8.90124 7.76779C8.83768 7.76779 8.77754 7.75275 8.72443 7.72575C8.77435 7.88564 8.922 7.9973 9.09511 7.9973Z" fill="#FFC338"/>
<path fill-rule="evenodd" clip-rule="evenodd" d="M6.92546 9.15308C6.74972 9.15308 6.60596 9.29684 6.60596 9.47258C6.60596 9.64831 6.74972 9.79208 6.92546 9.79208H11.6934C11.8692 9.79208 12.013 9.64831 12.013 9.47258C12.013 9.29684 11.8692 9.15308 11.6934 9.15308C10.1041 9.15308 8.51475 9.15308 6.92546 9.15308Z" fill="#FFC338"/>
<path fill-rule="evenodd" clip-rule="evenodd" d="M6.60596 9.47266C6.60596 9.64839 6.74972 9.79216 6.92546 9.79216H11.6934C11.8692 9.79216 12.013 9.64839 12.013 9.47266H6.60596Z" fill="#FFD064"/>
<g clip-path="url(#clip1_1584_1316)">
<path d="M6.51803 21.4448L5.97644 20.7647C6.10522 20.6109 6.23383 20.4569 6.35306 20.2975L6.94025 21.0536L7.79179 20.2645C7.79179 20.2645 8.90837 21.4059 9.15284 22.226C9.30271 22.7286 8.94717 23.569 8.83202 23.6696C8.74993 23.7414 7.90675 24.1401 7.33536 23.9254C6.64506 23.6665 5.71995 22.1843 5.71995 22.1843L6.51803 21.4448Z" fill="#514E59"/>
<path d="M4.44312 16.3576C4.64977 16.5559 4.88632 16.9415 4.97296 17.2834C5.07776 17.6967 4.97535 18.0303 4.81454 18.3164L6.49936 20.4833C6.24439 20.4991 6.13247 20.635 6.00204 20.7909L4.32242 18.6876C4.01908 18.7578 3.60235 18.7439 3.33429 18.5717C3.05926 18.3943 2.81349 18.0395 2.64795 17.7499C2.50106 17.4931 4.17902 16.1036 4.44312 16.3576ZM3.77895 18.1449C3.9583 18.2252 4.20052 18.1832 4.2815 18.1087C4.35735 18.039 4.47063 17.8285 4.43587 17.5867C4.40092 17.3453 4.20117 17.0595 4.20117 17.0595L3.37464 17.7179C3.37466 17.7179 3.55152 18.0428 3.77895 18.1449Z" fill="#BF875E"/>
<path d="M7.00635 20.9923L7.79182 20.2645C7.79182 20.2645 8.9084 21.4059 9.15288 22.2259C9.28433 22.6667 9.02715 23.3668 8.88427 23.6004C8.66702 23.3741 8.27084 22.9888 8.0051 22.6559C7.75666 22.3448 7.74512 21.989 7.48925 21.6498C7.26215 21.3487 7.06955 21.2598 7.00635 20.9923ZM6.05706 20.7505C6.06308 20.7187 6.06881 20.6863 6.07589 20.6544L6.96482 21.7706C6.96482 21.7706 7.59149 22.2349 7.56607 22.2657C7.48304 22.3668 6.9408 21.9754 6.9408 21.9754L6.03454 20.8376C6.04215 20.8086 6.05148 20.7801 6.05706 20.7505Z" fill="#38363D"/>
<path d="M4.43587 17.5868C4.40092 17.3454 4.20118 17.0596 4.20118 17.0596L3.4774 17.6361C3.42827 17.5664 3.39868 17.5131 3.39868 17.5131L4.22522 16.8547C4.22522 16.8547 4.42496 17.1405 4.45991 17.382C4.47446 17.4829 4.46009 17.5753 4.43639 17.6575C4.43566 17.6336 4.43933 17.6113 4.43587 17.5868ZM2.64765 17.6714C2.65606 17.6431 2.67014 17.6115 2.69101 17.5761C2.85617 17.8598 3.09276 18.1956 3.3583 18.3669C3.62636 18.5392 4.04309 18.553 4.34643 18.4828L6.09426 20.676C6.06261 20.715 6.02488 20.788 6.03557 20.8407L4.32241 18.6876C4.01907 18.7578 3.60233 18.744 3.33428 18.5717C3.05925 18.3944 2.81347 18.0395 2.64794 17.7499C2.63757 17.7319 2.63747 17.7074 2.64489 17.6786C2.64549 17.6764 2.64705 17.6737 2.64765 17.6714Z" fill="#9B684F"/>
</g>
<path fill-rule="evenodd" clip-rule="evenodd" d="M12.5821 0.497231C12.8459 0.560277 13.0978 0.665286 13.3286 0.808011L13.8137 0.591659L14.3855 1.16584L14.1701 1.65285C14.3123 1.88472 14.4169 2.13782 14.4796 2.40275L14.9746 2.59405V3.40603L14.4795 3.59737C14.4167 3.86226 14.3122 4.11524 14.17 4.34706L14.3854 4.83424L13.8137 5.40842L13.3287 5.19211C13.0979 5.33491 12.8458 5.43992 12.582 5.50297L12.3915 6H11.583L11.3925 5.50285C11.1287 5.4398 10.8768 5.33479 10.6459 5.19203L10.1608 5.40838L9.58908 4.8342L9.80447 4.34719C9.66227 4.11532 9.55771 3.86222 9.49493 3.59729L9 3.40599V2.59397L9.49501 2.40263C9.55778 2.13774 9.66235 1.88472 9.80451 1.65285L9.58908 1.16576L10.1608 0.591579L10.6459 0.80793C10.8768 0.665166 11.1287 0.560157 11.3925 0.497151L11.583 0H12.3916L12.5821 0.497231Z" fill="#FFE177"/>
<path fill-rule="evenodd" clip-rule="evenodd" d="M10.6459 5.19203L10.1608 5.40838L10.0861 5.33339L10.5409 5.13055C10.5754 5.15187 10.6104 5.17235 10.6459 5.19203ZM12.5821 0.497151C12.8459 0.560197 13.0978 0.665206 13.3286 0.80793L13.1907 0.869453C12.9599 0.726688 12.603 0.560197 12.3392 0.497151L12.1487 0H12.3915L12.5821 0.497151ZM13.3288 5.19207C13.0979 5.33487 12.8459 5.43988 12.582 5.50293L12.3916 5.99996H12.1487L12.3392 5.50293C12.603 5.43988 12.96 5.27335 13.1909 5.13055L13.3288 5.19207ZM10.0861 0.666569L10.1608 0.591539L10.6459 0.80789C10.6105 0.827529 10.5755 0.84805 10.541 0.869413L10.0861 0.666569ZM13.6455 0.666569L13.8137 0.591539L14.3855 1.16572L14.1701 1.65273C14.3123 1.8846 14.4168 2.1377 14.4796 2.40263L14.9745 2.59393V3.40591L14.4795 3.59725C14.4167 3.86214 14.3122 4.11512 14.17 4.34694L14.3854 4.83412L13.8137 5.4083L13.6455 5.33331L14.1425 4.83416L13.9271 4.34698C14.0692 4.11512 14.1738 3.86218 14.2366 3.59729L14.7316 3.40595V2.59397L14.2367 2.40267C14.1739 2.13774 14.0693 1.88464 13.9271 1.65277L14.1425 1.16576L13.6455 0.666569Z" fill="#FFD064"/>
<path d="M11.9872 4.41603C12.766 4.41603 13.3973 3.78205 13.3973 3.00001C13.3973 2.21796 12.766 1.58398 11.9872 1.58398C11.2085 1.58398 10.5772 2.21796 10.5772 3.00001C10.5772 3.78205 11.2085 4.41603 11.9872 4.41603Z" fill="#ECEFF1"/>
<path fill-rule="evenodd" clip-rule="evenodd" d="M11.9872 1.58398C11.2084 1.58398 10.5772 2.21789 10.5772 3.00005C10.5772 3.78217 11.2084 4.41607 11.9872 4.41607C12.025 4.41607 12.0624 4.41455 12.0994 4.41162C11.373 4.35423 10.8015 3.74425 10.8015 3.00005C10.8015 2.25584 11.373 1.64587 12.0994 1.58847C12.0624 1.58551 12.025 1.58398 11.9872 1.58398Z" fill="#D1D1D6"/>
<path d="M22.8478 18.9573L22.5157 18.3041C22.4838 18.2412 22.4 18.227 22.3492 18.2759L21.9192 18.6898L18.6991 20.3105L18.9619 20.8274L22.1821 19.2068L22.7721 19.1074C22.8416 19.0957 22.8798 19.0201 22.8478 18.9573Z" fill="#E9EBF2"/>
<path d="M22.8479 18.9574L22.764 18.7925C22.7592 18.8368 22.726 18.876 22.6775 18.8841L22.0875 18.9835L18.8674 20.6041L18.7143 20.3029L18.6991 20.3106L18.962 20.8275L22.1821 19.2069L22.7721 19.1075C22.8417 19.0958 22.8798 19.0202 22.8479 18.9574Z" fill="#C7CAD3"/>
<path d="M17.8022 21.5775C18.0817 21.4369 18.407 21.4835 18.6348 21.6701L18.9831 21.4948C19.1411 21.4153 19.2042 21.223 19.124 21.0654L18.6025 20.0396C18.5223 19.882 18.3293 19.8186 18.1713 19.8981L17.823 20.0734C17.839 20.3665 17.6841 20.6549 17.4046 20.7955C17.1251 20.9362 16.7999 20.8895 16.572 20.703L14.7254 21.6324C14.2836 21.8548 14.1071 22.3924 14.3313 22.8333C14.5555 23.2742 15.0954 23.4514 15.5372 23.229L17.3838 22.2997C17.3678 22.0066 17.5227 21.7182 17.8022 21.5775Z" fill="#FFDC64"/>
<path d="M19.1241 21.0652L19.0008 20.8227C18.9935 20.9315 18.9309 21.0337 18.8262 21.0864L18.4779 21.2617C18.2501 21.0752 17.9248 21.0285 17.6453 21.1692C17.3658 21.3098 17.2109 21.5982 17.2269 21.8913L15.3803 22.8207C14.9772 23.0235 14.4926 22.8937 14.2405 22.5346C14.2526 22.6359 14.2825 22.7368 14.3315 22.8332C14.5556 23.2741 15.0955 23.4512 15.5373 23.2289L17.384 22.2995C17.3679 22.0064 17.5229 21.7181 17.8023 21.5774C18.0818 21.4367 18.4071 21.4834 18.6349 21.6699L18.9833 21.4946C19.1412 21.4151 19.2043 21.2229 19.1241 21.0652Z" fill="#FFC850"/>
<path d="M15.0751 22.2306C15.046 22.2211 15.0205 22.2005 15.0056 22.1711C14.9757 22.1123 14.9992 22.0406 15.0581 22.011L16.4868 21.2919C16.5457 21.2623 16.6177 21.2859 16.6476 21.3447C16.6774 21.4035 16.6539 21.4751 16.595 21.5048L15.1663 22.2238C15.1369 22.2386 15.1041 22.2401 15.0751 22.2306Z" fill="#FF6B5C"/>
<path d="M15.3428 22.7577C15.3137 22.7482 15.2883 22.7276 15.2733 22.6982C15.2434 22.6394 15.267 22.5677 15.3259 22.5381L16.7546 21.819C16.8134 21.7894 16.8854 21.813 16.9153 21.8718C16.9452 21.9306 16.9217 22.0022 16.8628 22.0319L15.4341 22.7509C15.4046 22.7657 15.3719 22.7672 15.3428 22.7577Z" fill="#FF6B5C"/>
<g clip-path="url(#clip2_1584_1316)">
<path d="M2.01408 9.90316C1.9902 9.91735 1.96331 9.92732 1.93423 9.93187C1.81237 9.951 1.69853 9.86805 1.67992 9.7466L1.04404 5.59337C1.0254 5.47194 1.10917 5.35798 1.23098 5.33886C1.35284 5.31974 1.46668 5.40268 1.48528 5.52413L2.12117 9.67737C2.13534 9.7698 2.09017 9.85794 2.01408 9.90316Z" fill="#795548"/>
<path d="M1.231 5.33887C1.16314 5.34952 1.10794 5.39016 1.07481 5.44456C1.18724 5.43906 1.28781 5.51779 1.30516 5.63114L1.94105 9.78438C1.94935 9.83847 1.93558 9.8899 1.90892 9.93325C1.91738 9.93291 1.9257 9.93319 1.93423 9.93185C1.96333 9.92732 1.99022 9.91733 2.01409 9.90314C2.09017 9.85794 2.13535 9.76978 2.12117 9.67733L1.48528 5.52412C1.4667 5.40272 1.35286 5.31975 1.231 5.33887Z" fill="#6B493E"/>
<path d="M2.38193 9.50079C2.35927 9.51426 2.33391 9.5239 2.30641 9.5288L1.45378 9.67991C1.33233 9.70144 1.21685 9.62076 1.19584 9.49972C1.17481 9.37869 1.2561 9.26318 1.37775 9.24157L2.23037 9.09046C2.35183 9.06893 2.4673 9.14961 2.48831 9.27065C2.50457 9.36433 2.45946 9.45472 2.38193 9.50079Z" fill="#664237"/>
<path d="M2.23036 9.09048L2.10351 9.11296C2.1907 9.13557 2.26112 9.20643 2.27751 9.30077C2.2948 9.40065 2.24673 9.49709 2.16403 9.54622C2.15585 9.55109 2.14689 9.55476 2.13805 9.5587L2.30641 9.52885C2.33391 9.52394 2.35927 9.51429 2.38193 9.50083C2.45947 9.45475 2.50458 9.36438 2.48833 9.27069C2.46732 9.14967 2.35181 9.06895 2.23036 9.09048Z" fill="#51322B"/>
<path d="M2.31695 9.50011L1.45263 9.64145C1.11499 9.69671 0.859962 9.97261 0.832122 10.3123L0.667597 12.3162C0.66202 12.3843 0.688049 12.4511 0.73835 12.4973C0.78859 12.5435 0.857457 12.564 0.925093 12.553L3.72433 12.0951C3.75241 12.0905 3.77893 12.0807 3.8028 12.0665C3.83648 12.0465 3.86478 12.0177 3.88426 11.9827C3.9176 11.9228 3.92155 11.8511 3.89502 11.7882L3.11474 9.93894C2.98244 9.62532 2.65439 9.44484 2.31695 9.50011Z" fill="#FEC007"/>
<path d="M2.31701 9.49997L1.45268 9.64131C1.29714 9.66677 1.16059 9.74059 1.05423 9.84437C1.08629 9.83453 1.11861 9.82523 1.15249 9.81969L2.01681 9.67835C2.35427 9.62309 2.68232 9.80356 2.8146 10.1172L3.59488 11.9665C3.61486 12.0139 3.61748 12.0662 3.60334 12.1147L3.7244 12.0949C3.75248 12.0904 3.779 12.0805 3.80287 12.0664C3.83655 12.0463 3.86485 12.0176 3.88433 11.9825C3.91767 11.9226 3.92162 11.851 3.89509 11.7881L3.11481 9.9388C2.9825 9.62519 2.65444 9.4447 2.31701 9.49997Z" fill="#F8A725"/>
<path d="M3.11479 9.93887C2.98251 9.62526 2.65444 9.44478 2.317 9.50004L1.45268 9.64138C1.11504 9.69664 0.860012 9.97254 0.832172 10.3122L3.11479 9.93887Z" fill="#FE9700"/>
<path d="M2.31701 9.49997L1.45268 9.64131C1.29714 9.66677 1.16059 9.74059 1.05423 9.84437C1.08629 9.83453 1.11861 9.82523 1.15249 9.81969L2.01681 9.67835C2.3088 9.63054 2.59317 9.7597 2.75037 9.9984L3.1148 9.93878C2.9825 9.62519 2.65444 9.4447 2.31701 9.49997Z" fill="#F47C00"/>
<path d="M1.68131 12.4291L1.66403 12.1121C1.659 12.0201 1.58013 11.9499 1.48778 11.9553C1.39526 11.9608 1.32474 12.0398 1.32971 12.1318L1.34889 12.4835L1.68131 12.4291Z" fill="#FE9700"/>
<path d="M2.43255 12.3062L2.34165 11.5577C2.3306 11.4663 2.24718 11.4015 2.1554 11.413C2.06345 11.4245 1.99823 11.508 2.00935 11.5994L2.10175 12.3603L2.43255 12.3062Z" fill="#FE9700"/>
<path d="M2.8569 11.566C2.76655 11.5852 2.70837 11.6739 2.72715 11.7641L2.82693 12.2417L3.15793 12.1875L3.05492 11.6945C3.03604 11.6043 2.94742 11.5468 2.8569 11.566Z" fill="#FE9700"/>
</g>
<g clip-path="url(#clip3_1584_1316)">
<path d="M21.2394 5.2408L21.5031 6.12214C21.5366 6.23405 21.4731 6.35189 21.3612 6.38538L20.706 6.58142C20.5941 6.6149 20.4763 6.55133 20.4428 6.43943L20.179 5.55809C20.161 5.49773 20.0845 5.47988 20.0411 5.52557C19.7162 5.86782 19.5783 6.36945 19.7233 6.85397C19.8811 7.38124 20.3299 7.74144 20.8417 7.81235L21.858 11.8583C21.9623 12.2738 22.3922 12.5182 22.8026 12.3954C23.2149 12.272 23.4396 11.8284 23.2952 11.4229L21.9007 7.50867C22.3056 7.17006 22.4929 6.6111 22.3321 6.07337C22.1871 5.58886 21.7963 5.24539 21.3368 5.13786C21.2755 5.12351 21.2214 5.18044 21.2394 5.2408ZM22.7737 11.7699C22.7146 11.8794 22.578 11.9203 22.4685 11.8612C22.3591 11.8022 22.3182 11.6656 22.3772 11.5561C22.4363 11.4466 22.5729 11.4058 22.6824 11.4648C22.7918 11.5239 22.8327 11.6605 22.7737 11.7699Z" fill="#605F6D"/>
<path d="M21.8098 7.13734L21.9323 7.4813C22.3152 7.14046 22.4887 6.59692 22.3321 6.07342C22.3203 6.03412 22.3068 5.99588 22.2919 5.9585C22.3371 6.4115 22.1505 6.85243 21.8098 7.13734Z" fill="#53515E"/>
<path d="M21.7647 11.4872L21.858 11.8586C21.9623 12.274 22.3922 12.5184 22.8026 12.3956C23.2149 12.2723 23.4397 11.8286 23.2952 11.4232L23.2478 11.2901C23.254 11.6177 23.0437 11.9249 22.7116 12.0243C22.3013 12.147 21.869 11.9026 21.7647 11.4872Z" fill="#53515E"/>
<path d="M20.8417 7.81257L20.7508 7.4412C20.2772 7.37559 19.8577 7.06213 19.6727 6.5979C19.6812 6.68321 19.6978 6.76896 19.7233 6.85418C19.8811 7.38146 20.33 7.74167 20.8417 7.81257Z" fill="#53515E"/>
</g>
</g>
<defs>
<clipPath id="clip0_1584_1316">
<rect width="24" height="24" fill="white"/>
</clipPath>
<clipPath id="clip1_1584_1316">
<rect width="7.10843" height="7.22754" fill="white" transform="matrix(-0.993193 -0.116483 -0.116483 0.993193 9.86523 16.9722)"/>
</clipPath>
<clipPath id="clip2_1584_1316">
<rect width="7.16583" height="7.12719" fill="white" transform="translate(-4.70844 8.84961) rotate(-30.72)"/>
</clipPath>
<clipPath id="clip3_1584_1316">
<rect width="6" height="6" fill="white" transform="translate(20.458 4.60986) rotate(28.3417)"/>
</clipPath>
</defs>
</svg>
