<svg width="24" height="24" viewBox="0 0 24 24" fill="none" xmlns="http://www.w3.org/2000/svg">
<g clip-path="url(#clip0_953_8321)">
<path d="M16.4 10.3998V16.7998C16.4 17.0206 16.2208 17.1998 16 17.1998H7.99998C7.77918 17.1998 7.59998 17.0206 7.59998 16.7998V10.3998L12 6.7998L16.4 10.3998Z" fill="#E8E8E8"/>
<path d="M23.544 11.2959C23.492 10.9999 23.272 10.7639 22.984 10.6879L22.224 10.4839C22.108 9.6919 21.896 8.9239 21.612 8.1999L22.168 7.6439C22.38 7.4319 22.452 7.1199 22.348 6.8399C22.284 6.6639 22.188 6.4479 22.044 6.1999C21.904 5.9519 21.764 5.7639 21.644 5.6199C21.452 5.3879 21.144 5.2959 20.856 5.3719L20.092 5.5759C19.6 4.9599 19.04 4.3999 18.424 3.9079L18.628 3.1439C18.704 2.8559 18.612 2.5479 18.38 2.3559C18.236 2.2359 18.048 2.0959 17.8 1.9559C17.552 1.8119 17.336 1.7159 17.16 1.6519C16.88 1.5479 16.568 1.6199 16.356 1.8319L15.8 2.3879C15.076 2.1039 14.308 1.8919 13.516 1.7759L13.312 1.0159C13.236 0.727902 13 0.507902 12.704 0.455902C12.52 0.423902 12.284 0.399902 12 0.399902C11.716 0.399902 11.48 0.423902 11.296 0.455902C11 0.507902 10.764 0.727902 10.688 1.0159L10.484 1.7759C9.69202 1.8919 8.92402 2.1039 8.20002 2.3879L7.64402 1.8319C7.43202 1.6199 7.12002 1.5479 6.84002 1.6519C6.66402 1.7159 6.44802 1.8119 6.20002 1.9559C5.95202 2.0959 5.76402 2.2359 5.62002 2.3559C5.38802 2.5479 5.29602 2.8559 5.37202 3.1439L5.57602 3.9079C4.96002 4.3999 4.40002 4.9599 3.90802 5.5759L3.14402 5.3719C2.85602 5.2959 2.54802 5.3879 2.35602 5.6199C2.23602 5.7639 2.09602 5.9519 1.95602 6.1999C1.81202 6.4479 1.71602 6.6639 1.65202 6.8399C1.54802 7.1199 1.62002 7.4319 1.83202 7.6439L2.38802 8.1999C2.10402 8.9239 1.89202 9.6919 1.77602 10.4839L1.01602 10.6879C0.728024 10.7639 0.508024 10.9999 0.456024 11.2959C0.424024 11.4799 0.400024 11.7159 0.400024 11.9999C0.400024 12.2839 0.424024 12.5199 0.456024 12.7039C0.508024 12.9999 0.728024 13.2359 1.01602 13.3119L1.77602 13.5159C1.89202 14.3079 2.10402 15.0759 2.38802 15.7999L1.83202 16.3559C1.62002 16.5679 1.54802 16.8799 1.65202 17.1599C1.71602 17.3359 1.81202 17.5519 1.95602 17.7999C2.09602 18.0479 2.23602 18.2359 2.35602 18.3799C2.54802 18.6119 2.85602 18.7039 3.14402 18.6279L3.90802 18.4239C4.40002 19.0399 4.96002 19.5999 5.57602 20.0919L5.37202 20.8559C5.29602 21.1439 5.38802 21.4519 5.62002 21.6439C5.76402 21.7639 5.95202 21.9039 6.20002 22.0439C6.44802 22.1879 6.66402 22.2839 6.84002 22.3479C7.12002 22.4519 7.43202 22.3799 7.64402 22.1679L8.20002 21.6119C8.92402 21.8959 9.69202 22.1079 10.484 22.2239L10.688 22.9839C10.764 23.2719 11 23.4919 11.296 23.5439C11.48 23.5759 11.716 23.5999 12 23.5999C12.284 23.5999 12.52 23.5759 12.704 23.5439C13 23.4919 13.236 23.2719 13.312 22.9839L13.516 22.2239C14.308 22.1079 15.076 21.8959 15.8 21.6119L16.356 22.1679C16.568 22.3799 16.88 22.4519 17.16 22.3479C17.336 22.2839 17.552 22.1879 17.8 22.0439C18.048 21.9039 18.236 21.7639 18.38 21.6439C18.612 21.4519 18.704 21.1439 18.628 20.8559L18.424 20.0919C19.04 19.5999 19.6 19.0399 20.092 18.4239L20.856 18.6279C21.144 18.7039 21.452 18.6119 21.644 18.3799C21.764 18.2359 21.904 18.0479 22.044 17.7999C22.188 17.5519 22.284 17.3359 22.348 17.1599C22.452 16.8799 22.38 16.5679 22.168 16.3559L21.612 15.7999C21.896 15.0759 22.108 14.3079 22.224 13.5159L22.984 13.3119C23.272 13.2359 23.492 12.9999 23.544 12.7039C23.576 12.5199 23.6 12.2839 23.6 11.9999C23.6 11.7159 23.576 11.4799 23.544 11.2959ZM12 20.3999C7.36002 20.3999 3.60002 16.6399 3.60002 11.9999C3.60002 7.3599 7.36002 3.5999 12 3.5999C16.64 3.5999 20.4 7.3599 20.4 11.9999C20.4 16.6399 16.64 20.3999 12 20.3999Z" fill="#EF564B"/>
<path d="M18.2612 11.2H16.4L12 7.5244L7.60001 11.2H5.73881C5.61001 11.2 5.55081 11.0404 5.64881 10.9572L11.8628 5.6508C11.942 5.5832 12.0584 5.5832 12.1376 5.6508L18.3516 10.9572C18.4492 11.0408 18.3896 11.2 18.2612 11.2Z" fill="#EF564B"/>
<path d="M11 12.3999H9.40001C9.28956 12.3999 9.20001 12.4894 9.20001 12.5999V14.1999C9.20001 14.3104 9.28956 14.3999 9.40001 14.3999H11C11.1105 14.3999 11.2 14.3104 11.2 14.1999V12.5999C11.2 12.4894 11.1105 12.3999 11 12.3999Z" fill="#3E7EFC"/>
<path d="M12.8 17.1999V12.5999C12.8 12.4895 12.8896 12.3999 13 12.3999H14.6C14.7104 12.3999 14.8 12.4895 14.8 12.5999V17.1999H12.8Z" fill="#B35842"/>
<path d="M12 20.8002C7.14761 20.8002 3.20001 16.8526 3.20001 12.0002C3.20001 7.1478 7.14761 3.2002 12 3.2002C16.8524 3.2002 20.8 7.1478 20.8 12.0002C20.8 16.8526 16.8524 20.8002 12 20.8002ZM12 4.0002C7.58881 4.0002 4.00001 7.589 4.00001 12.0002C4.00001 16.4114 7.58881 20.0002 12 20.0002C16.4112 20.0002 20 16.4114 20 12.0002C20 7.589 16.4112 4.0002 12 4.0002Z" fill="#B73D3D"/>
</g>
<defs>
<clipPath id="clip0_953_8321">
<rect width="24" height="24" fill="white"/>
</clipPath>
</defs>
</svg>
