<svg width="19" height="19" viewBox="0 0 19 19" fill="none" xmlns="http://www.w3.org/2000/svg">
<path d="M16.3545 16.4871H18.1034C18.2745 16.4883 18.4382 16.5569 18.5592 16.6778C18.6802 16.7988 18.7487 16.9625 18.75 17.1336C18.7495 17.3049 18.6812 17.4691 18.56 17.5902C18.4389 17.7114 18.2747 17.7797 18.1034 17.7802H16.3545V16.4871Z" fill="#9FBACE"/>
<path d="M10.8584 16.4871H13.3864V17.7802H10.8584V16.4871Z" fill="#9FBACE"/>
<path d="M2.39548 17.7802H0.64656C0.561667 17.7806 0.477553 17.764 0.399239 17.7312C0.320924 17.6984 0.250014 17.6502 0.190742 17.5894C0.129965 17.5302 0.0817533 17.4592 0.0489834 17.3809C0.0162134 17.3026 -0.000442737 17.2185 8.94632e-06 17.1336C0.000520603 16.9623 0.0688035 16.7981 0.189945 16.677C0.311086 16.5559 0.475242 16.4876 0.64656 16.4871H2.39548V17.7802Z" fill="#9FBACE"/>
<path d="M5.36328 16.4871H7.8913V17.7802H5.36328V16.4871Z" fill="#9FBACE"/>
<path d="M3.87907 18.7501C4.77178 18.7501 5.49545 18.0264 5.49545 17.1337C5.49545 16.241 4.77178 15.5173 3.87907 15.5173C2.98637 15.5173 2.2627 16.241 2.2627 17.1337C2.2627 18.0264 2.98637 18.7501 3.87907 18.7501Z" fill="#C0DAF0"/>
<path d="M9.37517 18.7501C10.2679 18.7501 10.9915 18.0264 10.9915 17.1337C10.9915 16.241 10.2679 15.5173 9.37517 15.5173C8.48247 15.5173 7.75879 16.241 7.75879 17.1337C7.75879 18.0264 8.48247 18.7501 9.37517 18.7501Z" fill="#C0DAF0"/>
<path d="M14.8703 18.7501C15.763 18.7501 16.4867 18.0264 16.4867 17.1337C16.4867 16.241 15.763 15.5173 14.8703 15.5173C13.9776 15.5173 13.2539 16.241 13.2539 17.1337C13.2539 18.0264 13.9776 18.7501 14.8703 18.7501Z" fill="#C0DAF0"/>
<path d="M16.8101 1.2931V12.2845C16.8101 12.6274 16.6739 12.9563 16.4314 13.1988C16.1889 13.4413 15.86 13.5776 15.517 13.5776H11.961L9.37479 15.5172L6.78859 13.5776H3.23256C2.8896 13.5776 2.5607 13.4413 2.31819 13.1988C2.07569 12.9563 1.93945 12.6274 1.93945 12.2845V1.2931C1.93945 0.950151 2.07569 0.621245 2.31819 0.378741C2.5607 0.136237 2.8896 0 3.23256 0H15.517C15.86 0 16.1889 0.136237 16.4314 0.378741C16.6739 0.621245 16.8101 0.950151 16.8101 1.2931Z" fill="#F4E561"/>
<path d="M7.66423 1.38786C7.60361 1.32726 7.5214 1.29321 7.43568 1.29321C7.34996 1.29321 7.26775 1.32726 7.20712 1.38786L5.59074 3.00424C5.53014 3.06487 5.49609 3.14708 5.49609 3.2328C5.49609 3.31852 5.53014 3.40073 5.59074 3.46135L7.20712 5.07773C7.26809 5.13662 7.34975 5.1692 7.43452 5.16847C7.51928 5.16773 7.60036 5.13373 7.6603 5.07379C7.72023 5.01386 7.75423 4.93277 7.75497 4.84801C7.75571 4.76325 7.72312 4.68159 7.66423 4.62062L6.27641 3.2328L7.66423 1.84498C7.72484 1.78435 7.75889 1.70214 7.75889 1.61642C7.75889 1.5307 7.72484 1.44849 7.66423 1.38786Z" fill="#76E4C1"/>
<path d="M13.1595 3.00424L11.5431 1.38787C11.4821 1.32898 11.4005 1.29639 11.3157 1.29713C11.231 1.29787 11.1499 1.33187 11.0899 1.3918C11.03 1.45174 10.996 1.53282 10.9953 1.61759C10.9945 1.70235 11.0271 1.78401 11.086 1.84498L12.4738 3.2328L11.086 4.62062C11.0551 4.65044 11.0305 4.68612 11.0135 4.72556C10.9966 4.765 10.9877 4.80742 10.9873 4.85034C10.9869 4.89327 10.9951 4.93584 11.0114 4.97556C11.0276 5.01529 11.0516 5.05139 11.082 5.08174C11.1123 5.1121 11.1484 5.1361 11.1882 5.15235C11.2279 5.16861 11.2705 5.17679 11.3134 5.17642C11.3563 5.17604 11.3987 5.16712 11.4382 5.15018C11.4776 5.13324 11.5133 5.10861 11.5431 5.07774L13.1595 3.46136C13.2201 3.40073 13.2541 3.31852 13.2541 3.2328C13.2541 3.14708 13.2201 3.06487 13.1595 3.00424Z" fill="#76E4C1"/>
<path d="M10.1235 0.986731C10.0423 0.959702 9.95357 0.966037 9.87696 1.00434C9.80035 1.04265 9.74207 1.1098 9.71492 1.19104L8.42182 5.07035C8.4084 5.11068 8.40306 5.15326 8.4061 5.19565C8.40914 5.23805 8.4205 5.27943 8.43953 5.31743C8.45857 5.35544 8.4849 5.38932 8.51702 5.41715C8.54915 5.44497 8.58644 5.4662 8.62678 5.47962C8.66711 5.49303 8.70968 5.49837 8.75208 5.49533C8.79447 5.49229 8.83585 5.48093 8.87386 5.4619C8.91186 5.44287 8.94574 5.41654 8.97357 5.38441C9.0014 5.35228 9.02263 5.31499 9.03604 5.27466L10.3291 1.39535C10.3425 1.35502 10.3478 1.31246 10.3447 1.27009C10.3416 1.22772 10.3301 1.18638 10.311 1.14843C10.2919 1.11048 10.2656 1.07666 10.2334 1.04892C10.2012 1.02117 10.1639 1.00004 10.1235 0.986731Z" fill="#76E4C1"/>
<path d="M3.87897 6.78889H3.5557C3.46996 6.78889 3.38773 6.75483 3.32711 6.6942C3.26648 6.63357 3.23242 6.55135 3.23242 6.46561C3.23242 6.37987 3.26648 6.29764 3.32711 6.23702C3.38773 6.17639 3.46996 6.14233 3.5557 6.14233H3.87897C3.96471 6.14233 4.04694 6.17639 4.10756 6.23702C4.16819 6.29764 4.20225 6.37987 4.20225 6.46561C4.20225 6.55135 4.16819 6.63357 4.10756 6.6942C4.04694 6.75483 3.96471 6.78889 3.87897 6.78889Z" fill="#2E3360"/>
<path d="M3.87897 8.08185H3.5557C3.46996 8.08185 3.38773 8.0478 3.32711 7.98717C3.26648 7.92654 3.23242 7.84432 3.23242 7.75858C3.23242 7.67284 3.26648 7.59061 3.32711 7.52999C3.38773 7.46936 3.46996 7.4353 3.5557 7.4353H3.87897C3.96471 7.4353 4.04694 7.46936 4.10756 7.52999C4.16819 7.59061 4.20225 7.67284 4.20225 7.75858C4.20225 7.84432 4.16819 7.92654 4.10756 7.98717C4.04694 8.0478 3.96471 8.08185 3.87897 8.08185Z" fill="#2E3360"/>
<path d="M15.1944 8.08185H14.5479C14.4621 8.08185 14.3799 8.0478 14.3193 7.98717C14.2587 7.92654 14.2246 7.84432 14.2246 7.75858C14.2246 7.67284 14.2587 7.59061 14.3193 7.52999C14.3799 7.46936 14.4621 7.4353 14.5479 7.4353H15.1944C15.2802 7.4353 15.3624 7.46936 15.423 7.52999C15.4837 7.59061 15.5177 7.67284 15.5177 7.75858C15.5177 7.84432 15.4837 7.92654 15.423 7.98717C15.3624 8.0478 15.2802 8.08185 15.1944 8.08185Z" fill="white"/>
<path d="M3.87897 9.37507H3.5557C3.46996 9.37507 3.38773 9.34101 3.32711 9.28038C3.26648 9.21976 3.23242 9.13753 3.23242 9.05179C3.23242 8.96605 3.26648 8.88383 3.32711 8.8232C3.38773 8.76257 3.46996 8.72852 3.5557 8.72852H3.87897C3.96471 8.72852 4.04694 8.76257 4.10756 8.8232C4.16819 8.88383 4.20225 8.96605 4.20225 9.05179C4.20225 9.13753 4.16819 9.21976 4.10756 9.28038C4.04694 9.34101 3.96471 9.37507 3.87897 9.37507Z" fill="#2E3360"/>
<path d="M3.87897 10.668H3.5557C3.46996 10.668 3.38773 10.634 3.32711 10.5734C3.26648 10.5127 3.23242 10.4305 3.23242 10.3448C3.23242 10.259 3.26648 10.1768 3.32711 10.1162C3.38773 10.0555 3.46996 10.0215 3.5557 10.0215H3.87897C3.96471 10.0215 4.04694 10.0555 4.10756 10.1162C4.16819 10.1768 4.20225 10.259 4.20225 10.3448C4.20225 10.4305 4.16819 10.5127 4.10756 10.5734C4.04694 10.634 3.96471 10.668 3.87897 10.668Z" fill="#2E3360"/>
<path d="M3.87897 11.9612H3.5557C3.46996 11.9612 3.38773 11.9272 3.32711 11.8666C3.26648 11.8059 3.23242 11.7237 3.23242 11.638C3.23242 11.5522 3.26648 11.47 3.32711 11.4094C3.38773 11.3488 3.46996 11.3147 3.5557 11.3147H3.87897C3.96471 11.3147 4.04694 11.3488 4.10756 11.4094C4.16819 11.47 4.20225 11.5522 4.20225 11.638C4.20225 11.7237 4.16819 11.8059 4.10756 11.8666C4.04694 11.9272 3.96471 11.9612 3.87897 11.9612Z" fill="#2E3360"/>
<path d="M5.17289 11.9613C5.08715 11.9613 5.00492 11.9272 4.94429 11.8666C4.88367 11.806 4.84961 11.7238 4.84961 11.638V6.46561C4.84961 6.37987 4.88367 6.29764 4.94429 6.23702C5.00492 6.17639 5.08715 6.14233 5.17289 6.14233C5.25862 6.14233 5.34085 6.17639 5.40148 6.23702C5.4621 6.29764 5.49616 6.37987 5.49616 6.46561V11.638C5.49616 11.7238 5.4621 11.806 5.40148 11.8666C5.34085 11.9272 5.25862 11.9613 5.17289 11.9613Z" fill="#2E3360"/>
<path d="M9.69861 6.78889H6.46585C6.38012 6.78889 6.29789 6.75483 6.23726 6.6942C6.17664 6.63357 6.14258 6.55135 6.14258 6.46561C6.14258 6.37987 6.17664 6.29764 6.23726 6.23702C6.29789 6.17639 6.38012 6.14233 6.46585 6.14233H9.69861C9.78435 6.14233 9.86658 6.17639 9.9272 6.23702C9.98783 6.29764 10.0219 6.37987 10.0219 6.46561C10.0219 6.55135 9.98783 6.63357 9.9272 6.6942C9.86658 6.75483 9.78435 6.78889 9.69861 6.78889Z" fill="#F9C84E"/>
<path d="M10.3451 8.08185H7.11234C7.0266 8.08185 6.94437 8.0478 6.88375 7.98717C6.82312 7.92654 6.78906 7.84432 6.78906 7.75858C6.78906 7.67284 6.82312 7.59061 6.88375 7.52999C6.94437 7.46936 7.0266 7.4353 7.11234 7.4353H10.3451C10.4308 7.4353 10.5131 7.46936 10.5737 7.52999C10.6343 7.59061 10.6684 7.67284 10.6684 7.75858C10.6684 7.84432 10.6343 7.92654 10.5737 7.98717C10.5131 8.0478 10.4308 8.08185 10.3451 8.08185Z" fill="#F9C84E"/>
<path d="M13.2541 8.08185H11.6377C11.552 8.08185 11.4698 8.0478 11.4091 7.98717C11.3485 7.92654 11.3145 7.84432 11.3145 7.75858C11.3145 7.67284 11.3485 7.59061 11.4091 7.52999C11.4698 7.46936 11.552 7.4353 11.6377 7.4353H13.2541C13.3398 7.4353 13.4221 7.46936 13.4827 7.52999C13.5433 7.59061 13.5774 7.67284 13.5774 7.75858C13.5774 7.84432 13.5433 7.92654 13.4827 7.98717C13.4221 8.0478 13.3398 8.08185 13.2541 8.08185Z" fill="#EB6374"/>
<path d="M12.2847 9.37507H7.43558C7.34984 9.37507 7.26762 9.34101 7.20699 9.28038C7.14636 9.21976 7.1123 9.13753 7.1123 9.05179C7.1123 8.96605 7.14636 8.88383 7.20699 8.8232C7.26762 8.76257 7.34984 8.72852 7.43558 8.72852H12.2847C12.3705 8.72852 12.4527 8.76257 12.5133 8.8232C12.5739 8.88383 12.608 8.96605 12.608 9.05179C12.608 9.13753 12.5739 9.21976 12.5133 9.28038C12.4527 9.34101 12.3705 9.37507 12.2847 9.37507Z" fill="#F9C84E"/>
<path d="M9.69861 10.668H6.46585C6.38012 10.668 6.29789 10.634 6.23726 10.5734C6.17664 10.5127 6.14258 10.4305 6.14258 10.3448C6.14258 10.259 6.17664 10.1768 6.23726 10.1162C6.29789 10.0555 6.38012 10.0215 6.46585 10.0215H9.69861C9.78435 10.0215 9.86658 10.0555 9.9272 10.1162C9.98783 10.1768 10.0219 10.259 10.0219 10.3448C10.0219 10.4305 9.98783 10.5127 9.9272 10.5734C9.86658 10.634 9.78435 10.668 9.69861 10.668Z" fill="#F9C84E"/>
<path d="M10.3451 11.9612H7.11234C7.0266 11.9612 6.94437 11.9272 6.88375 11.8666C6.82312 11.8059 6.78906 11.7237 6.78906 11.638C6.78906 11.5522 6.82312 11.47 6.88375 11.4094C6.94437 11.3488 7.0266 11.3147 7.11234 11.3147H10.3451C10.4308 11.3147 10.5131 11.3488 10.5737 11.4094C10.6343 11.47 10.6684 11.5522 10.6684 11.638C10.6684 11.7237 10.6343 11.8059 10.5737 11.8666C10.5131 11.9272 10.4308 11.9612 10.3451 11.9612Z" fill="#F9C84E"/>
<path d="M13.2541 11.9612H11.6377C11.552 11.9612 11.4698 11.9272 11.4091 11.8666C11.3485 11.8059 11.3145 11.7237 11.3145 11.638C11.3145 11.5522 11.3485 11.47 11.4091 11.4094C11.4698 11.3488 11.552 11.3147 11.6377 11.3147H13.2541C13.3398 11.3147 13.4221 11.3488 13.4827 11.4094C13.5433 11.47 13.5774 11.5522 13.5774 11.638C13.5774 11.7237 13.5433 11.8059 13.4827 11.8666C13.4221 11.9272 13.3398 11.9612 13.2541 11.9612Z" fill="#EB6374"/>
</svg>
