<svg width="26" height="25" viewBox="0 0 26 25" fill="none" xmlns="http://www.w3.org/2000/svg">
<path d="M11.988 0.346509L4.5746 14.7516C4.53877 14.8212 4.58931 14.904 4.66759 14.904H9.24116C9.30293 14.904 9.35126 14.9573 9.34523 15.0187L8.41787 24.4704C8.40655 24.5859 8.56361 24.6312 8.61547 24.5274L16.091 9.57502C16.1258 9.50551 16.0752 9.42369 15.9975 9.42369H11.5449C11.4837 9.42369 11.4356 9.37139 11.4407 9.31041L12.1853 0.403029C12.1948 0.289009 12.0405 0.244744 11.988 0.346509Z" fill="#FEE97D"/>
<path d="M12.1853 0.403075C12.1948 0.289006 12.0405 0.244741 11.9881 0.346506L4.5746 14.7516C4.53877 14.8212 4.58931 14.904 4.66759 14.904H9.24116C9.30293 14.904 9.35126 14.9573 9.34523 15.0187L8.41787 24.4704C8.40655 24.5859 8.56361 24.6312 8.61547 24.5274L10.6973 20.3634L11.3741 13.4652C11.3801 13.4038 11.3318 13.3505 11.27 13.3505H8.22767C7.79066 13.3505 7.5085 12.888 7.7085 12.4994L11.8461 4.45953L12.1853 0.403075Z" fill="#FEE45A"/>
<path d="M16.8331 6.31813C16.7574 6.31813 16.6809 6.29479 16.6153 6.24646C16.4519 6.12597 16.417 5.89587 16.5374 5.73239L17.4652 4.47331C17.5857 4.30987 17.8158 4.27497 17.9792 4.39541C18.1427 4.5159 18.1776 4.746 18.0571 4.90949L17.1294 6.16857C17.0573 6.26636 16.9459 6.31813 16.8331 6.31813Z" fill="#FEE97D"/>
<path d="M17.7614 20.6638C17.6485 20.6638 17.5372 20.6121 17.4651 20.5143L16.5374 19.2552C16.4169 19.0917 16.4518 18.8616 16.6152 18.7411C16.7788 18.6207 17.0089 18.6556 17.1293 18.819L18.0571 20.0781C18.1775 20.2416 18.1426 20.4717 17.9792 20.5922C17.9135 20.6405 17.8371 20.6638 17.7614 20.6638Z" fill="#FEE97D"/>
<path d="M21.0413 12.8608H19.7491C19.546 12.8608 19.3815 12.6962 19.3815 12.4931C19.3815 12.2901 19.546 12.1255 19.7491 12.1255H21.0413C21.2444 12.1255 21.409 12.2901 21.409 12.4931C21.409 12.6962 21.2444 12.8608 21.0413 12.8608Z" fill="#FEE97D"/>
<path d="M5.46836 6.31813C5.35552 6.31813 5.2442 6.26636 5.17209 6.16857L4.24433 4.90949C4.12389 4.746 4.15875 4.51586 4.32223 4.39541C4.48571 4.27497 4.71586 4.30987 4.8363 4.47331L5.76405 5.73239C5.8845 5.89587 5.84964 6.12602 5.68616 6.24646C5.62052 6.29484 5.5441 6.31813 5.46836 6.31813Z" fill="#FEE97D"/>
<path d="M4.54004 20.6638C4.4643 20.6638 4.38788 20.6405 4.32224 20.5921C4.15881 20.4716 4.12391 20.2415 4.24435 20.0781L5.1721 18.819C5.29259 18.6556 5.52274 18.6207 5.68618 18.7411C5.84961 18.8616 5.88451 19.0917 5.76407 19.2552L4.83632 20.5142C4.76426 20.612 4.65288 20.6638 4.54004 20.6638Z" fill="#FEE97D"/>
<path d="M2.55232 12.8608H1.26011C1.05707 12.8608 0.892456 12.6962 0.892456 12.4931C0.892456 12.2901 1.05707 12.1255 1.26011 12.1255H2.55232C2.75536 12.1255 2.91997 12.2901 2.91997 12.4931C2.91997 12.6962 2.75536 12.8608 2.55232 12.8608Z" fill="#FEE97D"/>
<path d="M12.2679 17.0081C12.2679 20.5417 15.1331 23.4069 18.6667 23.4069C22.2003 23.4069 25.0655 20.5417 25.0655 17.0081C25.0655 13.4745 22.2003 10.6094 18.6667 10.6094C15.1331 10.6094 12.2679 13.4745 12.2679 17.0081ZM19.5808 20.6646H17.7526V17.9222H15.0103V16.094H17.7526V13.3517H19.5808V16.094H22.3231V17.9222H19.5808V20.6646Z" fill="white"/>
</svg>
