<svg xmlns="http://www.w3.org/2000/svg" width="64" height="64" viewBox="0 0 64 64" fill="none">
  <g clip-path="url(#clip0_540_1104)">
    <path d="M47.5246 38.9435L35.765 60.0702C34.7928 61.8168 36.0081 64 37.9526 64H61.4705C63.415 64 64.6303 61.8168 63.6581 60.0702L51.8985 38.9435C50.9262 37.1969 48.4956 37.1969 47.5234 38.9435H47.5246Z" fill="#F31700"/>
    <path d="M63.658 60.0702L51.8984 38.9435C50.9262 37.1969 48.4956 37.1969 47.5233 38.9435L46.9946 39.8935L58.2255 60.0702C59.1978 61.8168 57.9825 64 56.038 64H61.4705C63.415 64 64.6303 61.8168 63.658 60.0702Z" fill="#F31700"/>
    <path d="M49.7121 45.4255C49.1934 45.4255 48.7725 45.8622 48.7725 46.4002V53.0513C48.7725 53.5893 49.1934 54.0259 49.7121 54.0259C50.2308 54.0259 50.6518 53.5893 50.6518 53.0513V46.4002C50.6518 45.8622 50.2308 45.4255 49.7121 45.4255Z" fill="#F6AB31"/>
    <path d="M49.7121 56.582C49.1934 56.582 48.7725 57.0187 48.7725 57.5567V58.6301C48.7725 59.1681 49.1934 59.6048 49.7121 59.6048C50.2308 59.6048 50.6518 59.1681 50.6518 58.6301V57.5567C50.6518 57.0187 50.2308 56.582 49.7121 56.582Z" fill="#F6AB31"/>
    <path d="M49.8875 31.7714H46.3907C45.7717 31.7714 45.2004 31.4959 44.8008 31.041L35.6985 35.3101L44.0628 29.466C43.9062 29.0618 43.7383 28.6629 43.5566 28.2717C43.1632 27.4231 43.3274 26.4108 43.9688 25.7454L46.4521 23.1697C47.2915 22.299 47.2915 20.8864 46.4521 20.0157L42.3814 15.7935C41.542 14.9228 40.1801 14.9228 39.3407 15.7935L36.8574 18.3692C36.2135 19.0371 35.235 19.2022 34.4131 18.7928C33.7941 18.4848 33.1577 18.2093 32.5049 17.9689C32.0852 17.8143 31.7319 17.5388 31.4775 17.1866C29.8876 18.3406 27.9995 18.9644 26.0187 18.9644C25.8471 18.9644 25.6742 18.9592 25.5025 18.9501C23.6783 18.85 21.9844 18.2067 20.5687 17.1762C20.3143 17.5323 19.9572 17.813 19.5325 17.9689C18.8798 18.2093 18.2433 18.4835 17.6244 18.7915C16.8037 19.2009 15.824 19.0358 15.18 18.3679L12.6968 15.7922C11.8573 14.9215 10.4954 14.9215 9.656 15.7922L5.58537 20.0144C4.74594 20.8851 4.74594 22.2977 5.58537 23.1684L8.0686 25.7441C8.71007 26.4095 8.8742 27.4218 8.4808 28.2704C8.17885 28.9228 7.90948 29.5934 7.67519 30.2808C7.37199 31.1736 6.56012 31.7701 5.64676 31.7701H2.14996C0.962218 31.7701 0 32.7694 0 34.0001V39.9715C0 41.2035 0.962218 42.2015 2.14996 42.2015H5.64676C6.55887 42.2015 7.37074 42.7993 7.67519 43.6908C7.90948 44.3796 8.17885 45.0501 8.4808 45.7012C8.8742 46.5498 8.71007 47.5622 8.0686 48.2275L5.58537 50.8032C4.74594 51.6739 4.74594 53.0865 5.58537 53.9572L9.656 58.1794C10.4954 59.0501 11.8573 59.0501 12.6968 58.1794L15.18 55.6037C15.8215 54.9384 16.7975 54.7681 17.6156 55.1762C18.2433 55.4894 18.891 55.7688 19.5538 56.0118C20.4146 56.3263 20.9896 57.1684 20.9896 58.1158V61.7428C20.9896 62.9748 21.9518 63.9728 23.1396 63.9728H28.8966C30.0843 63.9728 31.0466 62.9748 31.0466 61.7428V58.1158C31.0466 57.1697 31.6229 56.3276 32.4824 56.0118C33.1464 55.7688 33.7929 55.4894 34.4206 55.1762C35.2387 54.7681 36.2147 54.9384 36.8562 55.6037L37.9174 56.7045L47.7814 38.9826C48.2149 38.2041 48.9904 37.7389 49.8574 37.7389C50.7244 37.7389 51.4999 38.2041 51.9334 38.9826L52.0362 39.1671V33.9975C52.0362 32.7655 51.074 31.7675 49.8862 31.7675L49.8875 31.7714Z" fill="#C5D3DD"/>
    <path d="M35.2095 46.6652C40.5466 41.1293 40.5466 32.1539 35.2095 26.6181C29.8724 21.0822 21.2193 21.0822 15.8822 26.6181C10.5451 32.1539 10.5451 41.1293 15.8822 46.6651C21.2193 52.201 29.8724 52.201 35.2095 46.6652Z" fill="#F5F8F9"/>
    <path d="M22.9177 29.9246C20.2854 31.1539 18.4512 33.896 18.4512 37.0838C18.4512 40.2715 20.2854 43.0149 22.9177 44.2442V29.9246Z" fill="#C5D3DD"/>
    <path d="M29.1208 29.9246V44.2443C31.7532 43.015 33.5874 40.2729 33.5874 37.0838C33.5874 33.8947 31.7532 31.1527 29.1208 29.9233V29.9246Z" fill="#C5D3DD"/>
    <path d="M26.0187 19.0618C25.847 19.0618 25.6741 19.0566 25.5025 19.0475C24.5565 18.9955 23.6469 18.7967 22.7925 18.4744V44.1859C23.771 44.6654 24.8648 44.9344 26.0187 44.9344C27.1726 44.9344 28.2663 44.6654 29.2461 44.1859V18.4848C28.225 18.8642 27.1362 19.0618 26.0199 19.0618H26.0187Z" fill="#8AC9FE"/>
    <path d="M26.1365 19.0592V44.9318C27.2478 44.9136 28.3002 44.6498 29.2449 44.1872V18.4861C28.2589 18.8526 27.2115 19.0475 26.1365 19.0605V19.0592Z" fill="#60B7FF"/>
    <path d="M29.2461 0.637995V9.471C29.2461 10.1754 28.6949 10.7472 28.0158 10.7472H24.0229C23.3438 10.7472 22.7925 10.1754 22.7925 9.471V0.639295C22.7925 0.170159 22.3214 -0.136534 21.913 0.0622968C18.5314 1.70752 16.2161 5.32286 16.3439 9.484C16.503 14.664 20.5073 18.9096 25.4962 19.1812C31.0804 19.4853 35.6998 14.8797 35.6998 9.15521C35.6998 5.13442 33.4195 1.66594 30.1282 0.0635963C29.7185 -0.136534 29.2461 0.168859 29.2461 0.639295V0.637995Z" fill="#26A6FE"/>
    <path d="M30.1282 0.0626123C29.7185 -0.137518 29.2461 0.167875 29.2461 0.638311V2.64481C30.6869 4.3966 31.5577 6.6695 31.5577 9.15423C31.5577 13.9612 28.3014 17.9768 23.9514 18.9619C24.4538 19.0763 24.9688 19.1516 25.4962 19.1802C31.0803 19.4843 35.6997 14.8787 35.6997 9.15423C35.6997 5.13344 33.4195 1.66495 30.1282 0.0626123Z" fill="#0593FC"/>
  </g>
  <defs>
    <clipPath id="clip0_540_1104">
      <rect width="64" height="64" fill="white"/>
    </clipPath>
  </defs>
</svg>