<svg width="34" height="34" viewBox="0 0 34 34" fill="none" xmlns="http://www.w3.org/2000/svg">
<g clip-path="url(#clip0_907_291)">
<path d="M25.2474 20.6887L19.0001 31.9123C18.4836 32.8401 19.1293 34 20.1623 34H32.6562C33.6892 34 34.3348 32.8401 33.8183 31.9123L27.571 20.6887C27.0545 19.7608 25.7633 19.7608 25.2468 20.6887H25.2474Z" fill="#F31700"/>
<path d="M33.8183 31.9123L27.571 20.6887C27.0545 19.7608 25.7632 19.7608 25.2467 20.6887L24.9658 21.1934L30.9322 31.9123C31.4487 32.8401 30.8031 34 29.7701 34H32.6561C33.6891 34 34.3348 32.8401 33.8183 31.9123Z" fill="#F31700"/>
<path d="M26.4096 24.1323C26.134 24.1323 25.9104 24.3643 25.9104 24.6501V28.1835C25.9104 28.4693 26.134 28.7013 26.4096 28.7013C26.6852 28.7013 26.9088 28.4693 26.9088 28.1835V24.6501C26.9088 24.3643 26.6852 24.1323 26.4096 24.1323Z" fill="#F6AB31"/>
<path d="M26.4096 30.0593C26.134 30.0593 25.9104 30.2913 25.9104 30.5771V31.1474C25.9104 31.4332 26.134 31.6652 26.4096 31.6652C26.6852 31.6652 26.9088 31.4332 26.9088 31.1474V30.5771C26.9088 30.2913 26.6852 30.0593 26.4096 30.0593Z" fill="#F6AB31"/>
<path d="M26.5027 16.8785H24.645C24.3162 16.8785 24.0127 16.7321 23.8004 16.4905L18.9648 18.7584L23.4084 15.6537C23.3252 15.439 23.236 15.2271 23.1395 15.0193C22.9305 14.5685 23.0177 14.0306 23.3584 13.6772L24.6777 12.3088C25.1236 11.8463 25.1236 11.0958 24.6777 10.6333L22.5151 8.39021C22.0692 7.92765 21.3457 7.92765 20.8997 8.39021L19.5805 9.75855C19.2384 10.1134 18.7186 10.2011 18.2819 9.98362C17.9531 9.81999 17.615 9.67363 17.2682 9.54591C17.0453 9.46376 16.8576 9.3174 16.7224 9.1303C15.8778 9.74336 14.8748 10.0747 13.8224 10.0747C13.7313 10.0747 13.6394 10.072 13.5482 10.0672C12.5791 10.014 11.6792 9.67225 10.9271 9.12478C10.792 9.31394 10.6023 9.46307 10.3766 9.54591C10.0299 9.67363 9.69175 9.8193 9.36295 9.98293C8.92698 10.2004 8.40648 10.1127 8.06437 9.75786L6.74515 8.38952C6.29921 7.92696 5.5757 7.92696 5.12975 8.38952L2.96723 10.6326C2.52128 11.0951 2.52128 11.8456 2.96723 12.3081L4.28644 13.6765C4.62723 14.03 4.71442 14.5678 4.50542 15.0186C4.34501 15.3652 4.20191 15.7214 4.07744 16.0866C3.91637 16.5609 3.48506 16.8778 2.99984 16.8778H1.14216C0.511178 16.8778 0 17.4087 0 18.0625V21.2348C0 21.8893 0.511178 22.4195 1.14216 22.4195H2.99984C3.4844 22.4195 3.9157 22.7371 4.07744 23.2107C4.20191 23.5766 4.34501 23.9328 4.50542 24.2787C4.71442 24.7295 4.62723 25.2673 4.28644 25.6208L2.96723 26.9891C2.52128 27.4517 2.52128 28.2021 2.96723 28.6647L5.12975 30.9078C5.5757 31.3703 6.29921 31.3703 6.74515 30.9078L8.06437 29.5394C8.40515 29.1859 8.92365 29.0955 9.35829 29.3123C9.69175 29.4787 10.0359 29.6271 10.388 29.7562C10.8452 29.9233 11.1507 30.3706 11.1507 30.8739V32.8008C11.1507 33.4553 11.6619 33.9855 12.2929 33.9855H15.3513C15.9823 33.9855 16.4935 33.4553 16.4935 32.8008V30.8739C16.4935 30.3713 16.7997 29.924 17.2563 29.7562C17.609 29.6271 17.9525 29.4787 18.2859 29.3123C18.7206 29.0955 19.2391 29.1859 19.5799 29.5394L20.1436 30.1242L25.3839 20.7094C25.6141 20.2959 26.0262 20.0487 26.4867 20.0487C26.9473 20.0487 27.3593 20.2959 27.5896 20.7094L27.6442 20.8074V18.0611C27.6442 17.4066 27.133 16.8764 26.5021 16.8764L26.5027 16.8785Z" fill="#C5D3DD"/>
<path d="M18.7049 24.7908C21.5403 21.8499 21.5403 17.0817 18.7049 14.1408C15.8696 11.1999 11.2726 11.1999 8.43729 14.1408C5.60196 17.0817 5.60196 21.8499 8.43729 24.7908C11.2726 27.7318 15.8696 27.7318 18.7049 24.7908Z" fill="#F5F8F9"/>
<path d="M12.1751 15.8975C10.7767 16.5506 9.80225 18.0073 9.80225 19.7008C9.80225 21.3943 10.7767 22.8517 12.1751 23.5048V15.8975Z" fill="#C5D3DD"/>
<path d="M15.4705 15.8974V23.5048C16.8689 22.8516 17.8433 21.3949 17.8433 19.7007C17.8433 18.0065 16.8689 16.5498 15.4705 15.8967V15.8974Z" fill="#C5D3DD"/>
<path d="M13.8226 10.1265C13.7314 10.1265 13.6395 10.1237 13.5483 10.1189C13.0458 10.0913 12.5626 9.98567 12.1086 9.81445V23.4737C12.6285 23.7284 13.2095 23.8713 13.8226 23.8713C14.4356 23.8713 15.0166 23.7284 15.5371 23.4737V9.81998C14.9947 10.0216 14.4163 10.1265 13.8232 10.1265H13.8226Z" fill="#8AC9FE"/>
<path d="M13.885 10.1251V23.87C14.4754 23.8603 15.0345 23.7202 15.5364 23.4744V9.82068C15.0125 10.0154 14.4561 10.1189 13.885 10.1258V10.1251Z" fill="#60B7FF"/>
<path d="M15.5369 0.339034V5.03157C15.5369 5.40576 15.2441 5.70953 14.8833 5.70953H12.762C12.4013 5.70953 12.1084 5.40576 12.1084 5.03157V0.339725C12.1084 0.0904962 11.8582 -0.0724343 11.6412 0.0331944C9.84474 0.90722 8.61472 2.82787 8.68261 5.03847C8.76714 7.79034 10.8944 10.0458 13.5448 10.1901C16.5114 10.3517 18.9654 7.90494 18.9654 4.86381C18.9654 2.72776 17.754 0.885127 16.0055 0.0338847C15.7879 -0.0724343 15.5369 0.0898058 15.5369 0.339725V0.339034Z" fill="#26A6FE"/>
<path d="M16.0055 0.0332552C15.7879 -0.0730639 15.5369 0.0891762 15.5369 0.339095V1.40505C16.3024 2.33568 16.765 3.54316 16.765 4.86318C16.765 7.41691 15.0351 9.55019 12.7241 10.0735C12.991 10.1343 13.2646 10.1743 13.5448 10.1895C16.5114 10.351 18.9654 7.90432 18.9654 4.86318C18.9654 2.72713 17.754 0.884498 16.0055 0.0332552Z" fill="#0593FC"/>
<g clip-path="url(#clip1_907_291)">
<path d="M32.3125 12C32.3125 13.4463 31.8836 14.8601 31.0801 16.0626C30.2766 17.2651 29.1346 18.2024 27.7984 18.7559C26.4622 19.3093 24.9919 19.4541 23.5734 19.172C22.1549 18.8898 20.852 18.1934 19.8293 17.1707C18.8066 16.148 18.1102 14.8451 17.828 13.4266C17.5459 12.0081 17.6907 10.5378 18.2441 9.20163C18.7976 7.86544 19.7349 6.72339 20.9374 5.91988C22.1399 5.11637 23.5537 4.6875 25 4.6875C26.9394 4.6875 28.7994 5.45792 30.1707 6.82928C31.5421 8.20064 32.3125 10.0606 32.3125 12Z" fill="#FBFBFB"/>
<path d="M32.3124 12.0001C32.3119 10.4519 31.8201 8.94379 30.9077 7.693C29.9953 6.44221 28.7096 5.51326 27.2355 5.03994C25.7614 4.56662 24.1752 4.57336 22.7052 5.05918C21.2352 5.54501 19.9574 6.48484 19.0557 7.74334C20.4639 6.73422 22.1848 6.25801 23.9115 6.3996C25.6382 6.54119 27.2585 7.29137 28.4835 8.51643C29.7086 9.74148 30.4588 11.3618 30.6003 13.0885C30.7419 14.8152 30.2657 16.536 29.2566 17.9443C30.2024 17.2683 30.9731 16.3762 31.5046 15.3423C32.0361 14.3084 32.313 13.1626 32.3124 12.0001Z" fill="#E3EFFA"/>
<path d="M25 3.28125C26.7244 3.28125 28.4101 3.7926 29.8439 4.75062C31.2777 5.70865 32.3952 7.07034 33.0551 8.66348C33.715 10.2566 33.8876 12.0097 33.5512 13.7009C33.2148 15.3922 32.3844 16.9457 31.1651 18.1651C29.9457 19.3844 28.3922 20.2148 26.7009 20.5512C25.0097 20.8876 23.2566 20.715 21.6635 20.0551C20.0703 19.3952 18.7087 18.2777 17.7506 16.8439C16.7926 15.4101 16.2812 13.7244 16.2812 12C16.2812 9.68764 17.1998 7.47 18.8349 5.83491C20.47 4.19983 22.6876 3.28125 25 3.28125ZM25 19.3125C26.4463 19.3125 27.8601 18.8836 29.0626 18.0801C30.2651 17.2766 31.2024 16.1346 31.7559 14.7984C32.3093 13.4622 32.4541 11.9919 32.172 10.5734C31.8898 9.15492 31.1934 7.85195 30.1707 6.82928C29.148 5.80661 27.8451 5.11016 26.4266 4.82801C25.0081 4.54585 23.5378 4.69066 22.2016 5.24413C20.8654 5.7976 19.7234 6.73486 18.9199 7.93739C18.1164 9.13993 17.6875 10.5537 17.6875 12C17.6875 13.9394 18.4579 15.7994 19.8293 17.1707C21.2006 18.5421 23.0606 19.3125 25 19.3125Z" fill="#FCC369"/>
<path d="M25.5625 7.83745V11.8537C25.5634 11.9844 25.5175 12.1111 25.4331 12.2109L23.6669 14.3596C23.6141 14.4193 23.548 14.4658 23.4739 14.4952C23.3999 14.5247 23.3199 14.5363 23.2406 14.5292C23.1612 14.5221 23.0846 14.4964 23.017 14.4543C22.9493 14.4121 22.8926 14.3546 22.8512 14.2865C22.776 14.163 22.7436 14.0181 22.7588 13.8743C22.774 13.7304 22.8362 13.5956 22.9356 13.4906L24.37 11.7974C24.4142 11.7469 24.4383 11.6818 24.4375 11.6146V7.83745C24.43 7.7591 24.439 7.68005 24.4639 7.60538C24.4888 7.53072 24.529 7.46207 24.582 7.40385C24.6349 7.34562 24.6995 7.2991 24.7715 7.26727C24.8434 7.23544 24.9213 7.21899 25 7.21899C25.0787 7.21899 25.1565 7.23544 25.2285 7.26727C25.3005 7.2991 25.365 7.34562 25.418 7.40385C25.4709 7.46207 25.5111 7.53072 25.536 7.60538C25.5609 7.68005 25.5699 7.7591 25.5625 7.83745Z" fill="#555FA3"/>
<path d="M22.8512 14.2866C22.776 14.163 22.7436 14.0182 22.7588 13.8743C22.774 13.7305 22.8362 13.5957 22.9356 13.4906L24.37 11.7975C24.4142 11.747 24.4383 11.6819 24.4375 11.6147V7.8375C24.4375 7.72246 24.4675 7.60941 24.5247 7.50956C24.4959 7.50396 24.4668 7.50076 24.4375 7.5C24.281 7.5078 24.1339 7.57728 24.0285 7.69324C23.9231 7.8092 23.8679 7.9622 23.875 8.11875V11.8959C23.8758 11.9631 23.8517 12.0282 23.8075 12.0787L22.3731 13.7719C22.2737 13.8769 22.2115 14.0117 22.1963 14.1556C22.1811 14.2994 22.2135 14.4443 22.2887 14.5678C22.3301 14.6359 22.3868 14.6934 22.4545 14.7356C22.5221 14.7777 22.5987 14.8034 22.6781 14.8105C22.7574 14.8176 22.8374 14.806 22.9114 14.7765C22.9855 14.7471 23.0516 14.7006 23.1044 14.6409L23.2028 14.5211C23.1312 14.5084 23.063 14.481 23.0025 14.4406C22.942 14.4002 22.8905 14.3478 22.8512 14.2866Z" fill="#E3EFFA"/>
<path d="M25 4.125C23.4425 4.125 21.9199 4.58686 20.6249 5.45218C19.3299 6.31749 18.3205 7.5474 17.7245 8.98637C17.1284 10.4253 16.9725 12.0087 17.2763 13.5363C17.5802 15.0639 18.3302 16.4671 19.4315 17.5685C20.5329 18.6698 21.9361 19.4198 23.4637 19.7237C24.9913 20.0275 26.5747 19.8716 28.0136 19.2756C29.4526 18.6795 30.6825 17.6702 31.5478 16.3751C32.4131 15.0801 32.875 13.5575 32.875 12C32.875 9.91142 32.0453 7.90838 30.5685 6.43153C29.0916 4.95469 27.0886 4.125 25 4.125ZM25 19.3125C23.5537 19.3125 22.1399 18.8836 20.9374 18.0801C19.7349 17.2766 18.7976 16.1346 18.2441 14.7984C17.6907 13.4622 17.5459 11.9919 17.828 10.5734C18.1102 9.15492 18.8066 7.85195 19.8293 6.82928C20.852 5.80661 22.1549 5.11016 23.5734 4.82801C24.9919 4.54585 26.4622 4.69067 27.7984 5.24413C29.1346 5.7976 30.2766 6.73486 31.0801 7.93739C31.8836 9.13993 32.3125 10.5537 32.3125 12C32.3125 13.9394 31.5421 15.7994 30.1707 17.1707C28.7994 18.5421 26.9394 19.3125 25 19.3125Z" fill="#ED9B52"/>
<path d="M25.2812 6.09375V4.69453C25.1879 4.69116 25.0942 4.6875 25 4.6875C24.9058 4.6875 24.8121 4.69116 24.7188 4.69453V6.09375H25.2812Z" fill="#555FA3"/>
<path d="M24.7188 17.9062V19.3055C24.8121 19.3088 24.9058 19.3125 25 19.3125C25.0942 19.3125 25.1879 19.3088 25.2812 19.3055V17.9062H24.7188Z" fill="#555FA3"/>
<path d="M32.3055 11.7188H30.9062V12.2812H32.3055C32.3088 12.1879 32.3125 12.0942 32.3125 12C32.3125 11.9058 32.3088 11.8121 32.3055 11.7188Z" fill="#555FA3"/>
<path d="M19.0938 11.7188H17.6945C17.6912 11.8121 17.6875 11.9058 17.6875 12C17.6875 12.0942 17.6912 12.1879 17.6945 12.2812H19.0938V11.7188Z" fill="#555FA3"/>
</g>
</g>
<defs>
<clipPath id="clip0_907_291">
<rect width="34" height="34" fill="white"/>
</clipPath>
<clipPath id="clip1_907_291">
<rect width="18" height="18" fill="white" transform="translate(16 3)"/>
</clipPath>
</defs>
</svg>
