<svg width="16" height="18" viewBox="0 0 16 18" fill="none" xmlns="http://www.w3.org/2000/svg">
<g clip-path="url(#clip0_3826_15049)">
<path d="M11.2204 0H4.19224C3.41592 0 2.78661 0.622018 2.78661 1.38933V14.4181C2.78661 15.1855 3.41592 15.8075 4.19224 15.8075H13.5631C14.3395 15.8075 14.9688 15.1855 14.9688 14.4181V3.70488L11.2204 0Z" fill="#E4F2F9"/>
<path d="M11.2204 0V3.24177C11.2204 3.49753 11.4302 3.70488 11.689 3.70488H14.9688L11.2204 0Z" fill="#77BEE2"/>
<path d="M12.3137 9.32417H5.44169C5.18293 9.32417 4.97314 9.11682 4.97314 8.86106C4.97314 8.6053 5.18293 8.39795 5.44169 8.39795H12.3137C12.5724 8.39795 12.7822 8.6053 12.7822 8.86106C12.7822 9.11682 12.5724 9.32417 12.3137 9.32417Z" fill="#5F5F82"/>
<path d="M12.3137 6.54536H5.44169C5.18293 6.54536 4.97314 6.33801 4.97314 6.08225C4.97314 5.82649 5.18293 5.61914 5.44169 5.61914H12.3137C12.5724 5.61914 12.7822 5.82649 12.7822 6.08225C12.7822 6.33801 12.5724 6.54536 12.3137 6.54536Z" fill="#5F5F82"/>
<path d="M12.3137 12.1025H5.44169C5.18293 12.1025 4.97314 11.8951 4.97314 11.6394C4.97314 11.3836 5.18293 11.1763 5.44169 11.1763H12.3137C12.5724 11.1763 12.7822 11.3836 12.7822 11.6394C12.7822 11.8951 12.5724 12.1025 12.3137 12.1025Z" fill="#5F5F82"/>
<path d="M12.7822 8.86106C12.7822 8.6053 12.5724 8.39795 12.3137 8.39795H8.87769V9.32417H12.3137C12.5724 9.32417 12.7822 9.11682 12.7822 8.86106Z" fill="#3C3C55"/>
<path d="M12.7822 6.08225C12.7822 5.82649 12.5724 5.61914 12.3137 5.61914H8.87769V6.54536H12.3137C12.5724 6.54536 12.7822 6.33801 12.7822 6.08225Z" fill="#3C3C55"/>
<path d="M12.3137 12.1025C12.5724 12.1025 12.7822 11.8951 12.7822 11.6394C12.7822 11.3836 12.5724 11.1763 12.3137 11.1763H8.87769V12.1025H12.3137Z" fill="#3C3C55"/>
</g>
<g clip-path="url(#clip1_3826_15049)">
<path d="M6.52012 13.7574L4.90676 16.6558C4.77338 16.8955 4.94011 17.195 5.20688 17.195H8.43343C8.7002 17.195 8.86693 16.8955 8.73355 16.6558L7.12019 13.7574C6.9868 13.5177 6.65334 13.5177 6.51995 13.7574H6.52012Z" fill="#F31700"/>
<path d="M8.73355 16.6558L7.1202 13.7574C6.98681 13.5177 6.65334 13.5177 6.51996 13.7574L6.44742 13.8877L7.98824 16.6558C8.12163 16.8955 7.95489 17.195 7.68812 17.195H8.43343C8.70021 17.195 8.86694 16.8955 8.73355 16.6558Z" fill="#F31700"/>
<path d="M6.82023 14.6465C6.74907 14.6465 6.69131 14.7064 6.69131 14.7802V15.6927C6.69131 15.7665 6.74907 15.8264 6.82023 15.8264C6.89139 15.8264 6.94915 15.7665 6.94915 15.6927V14.7802C6.94915 14.7064 6.89139 14.6465 6.82023 14.6465Z" fill="#F6AB31"/>
<path d="M6.82023 16.1772C6.74907 16.1772 6.69131 16.2372 6.69131 16.311V16.4582C6.69131 16.532 6.74907 16.592 6.82023 16.592C6.89139 16.592 6.94915 16.532 6.94915 16.4582V16.311C6.94915 16.2372 6.89139 16.1772 6.82023 16.1772Z" fill="#F6AB31"/>
<path d="M6.8443 12.7736H6.36456C6.27965 12.7736 6.20127 12.7358 6.14643 12.6734L4.89765 13.259L6.04519 12.4573C6.0237 12.4018 6.00067 12.3471 5.97575 12.2934C5.92177 12.177 5.94429 12.0381 6.0323 11.9468L6.37298 11.5934C6.48815 11.474 6.48815 11.2802 6.37298 11.1607L5.81451 10.5815C5.69935 10.462 5.5125 10.462 5.39734 10.5815L5.05665 10.9348C4.9683 11.0265 4.83405 11.0491 4.7213 10.993C4.63638 10.9507 4.54906 10.9129 4.45951 10.8799C4.40192 10.8587 4.35345 10.8209 4.31856 10.7726C4.10043 10.9309 3.84139 11.0165 3.56963 11.0165C3.54608 11.0165 3.52236 11.0158 3.49882 11.0145C3.24854 11.0008 3.01615 10.9126 2.82191 10.7712C2.78702 10.82 2.73803 10.8585 2.67976 10.8799C2.59021 10.9129 2.50289 10.9505 2.41797 10.9928C2.30538 11.0489 2.17097 11.0263 2.08262 10.9347L1.74193 10.5813C1.62676 10.4618 1.43992 10.4618 1.32475 10.5813L0.766284 11.1606C0.651118 11.28 0.651118 11.4738 0.766284 11.5933L1.10697 11.9466C1.19498 12.0379 1.21749 12.1768 1.16352 12.2932C1.1221 12.3827 1.08514 12.4747 1.053 12.5691C1.0114 12.6915 0.900015 12.7734 0.774707 12.7734H0.294963C0.132011 12.7734 0 12.9105 0 13.0793V13.8986C0 14.0676 0.132011 14.2045 0.294963 14.2045H0.774707C0.899843 14.2045 1.01123 14.2865 1.053 14.4088C1.08514 14.5033 1.1221 14.5953 1.16352 14.6847C1.21749 14.8011 1.19498 14.94 1.10697 15.0313L0.766284 15.3846C0.651118 15.5041 0.651118 15.6979 0.766284 15.8173L1.32475 16.3966C1.43992 16.5161 1.62676 16.5161 1.74193 16.3966L2.08262 16.0432C2.17062 15.9519 2.30453 15.9286 2.41677 15.9846C2.50289 16.0275 2.59175 16.0659 2.68268 16.0992C2.80077 16.1424 2.87967 16.2579 2.87967 16.3879V16.8855C2.87967 17.0545 3.01168 17.1914 3.17463 17.1914H3.96446C4.12742 17.1914 4.25943 17.0545 4.25943 16.8855V16.3879C4.25943 16.2581 4.3385 16.1425 4.45641 16.0992C4.54751 16.0659 4.63621 16.0275 4.72233 15.9846C4.83457 15.9286 4.96847 15.9519 5.05648 16.0432L5.20207 16.1942L6.55536 13.7629C6.61483 13.6561 6.72123 13.5923 6.84018 13.5923C6.95913 13.5923 7.06553 13.6561 7.125 13.7629L7.1391 13.7882V13.079C7.1391 12.9099 7.00708 12.773 6.84413 12.773L6.8443 12.7736Z" fill="#C5D3DD"/>
<path d="M4.83055 14.8166C5.56278 14.0571 5.56278 12.8257 4.83055 12.0662C4.09833 11.3067 2.91116 11.3067 2.17894 12.0662C1.44672 12.8257 1.44672 14.0571 2.17894 14.8166C2.91116 15.5761 4.09833 15.5761 4.83055 14.8166Z" fill="#F5F8F9"/>
<path d="M3.1442 12.52C2.78306 12.6887 2.53142 13.0649 2.53142 13.5022C2.53142 13.9396 2.78306 14.3159 3.1442 14.4846V12.52Z" fill="#C5D3DD"/>
<path d="M3.99522 12.5202V14.4848C4.35636 14.3161 4.60801 13.9399 4.60801 13.5024C4.60801 13.0649 4.35636 12.6887 3.99522 12.52V12.5202Z" fill="#C5D3DD"/>
<path d="M3.56963 11.0298C3.54608 11.0298 3.52236 11.0291 3.49881 11.0278C3.36904 11.0207 3.24424 10.9934 3.12701 10.9492V14.4767C3.26126 14.5425 3.41132 14.5794 3.56963 14.5794C3.72794 14.5794 3.878 14.5425 4.01242 14.4767V10.9506C3.87233 11.0027 3.72296 11.0298 3.5698 11.0298H3.56963Z" fill="#8AC9FE"/>
<path d="M3.5858 11.0293V14.5789C3.73827 14.5764 3.88265 14.5402 4.01226 14.4767V10.9507C3.87698 11.001 3.73328 11.0277 3.5858 11.0295V11.0293Z" fill="#60B7FF"/>
<path d="M4.01242 8.50198V9.71382C4.01242 9.81046 3.93679 9.8889 3.84362 9.8889H3.29581C3.20265 9.8889 3.12702 9.81046 3.12702 9.71382V8.50216C3.12702 8.4378 3.06238 8.39572 3.00635 8.423C2.54242 8.64871 2.22477 9.14472 2.2423 9.71561C2.26413 10.4263 2.81349 11.0087 3.49795 11.046C4.26407 11.0877 4.89782 10.4559 4.89782 9.6705C4.89782 9.11887 4.58498 8.64301 4.13343 8.42318C4.07722 8.39572 4.01242 8.43762 4.01242 8.50216V8.50198Z" fill="#26A6FE"/>
<path d="M4.13343 8.42311C4.07722 8.39565 4.01242 8.43755 4.01242 8.50209V8.77737C4.21009 9.01771 4.32955 9.32954 4.32955 9.67043C4.32955 10.3299 3.88281 10.8808 3.28601 11.016C3.35494 11.0317 3.42559 11.042 3.49795 11.0459C4.26406 11.0877 4.89782 10.4558 4.89782 9.67043C4.89782 9.1188 4.58498 8.64294 4.13343 8.42311Z" fill="#0593FC"/>
</g>
<defs>
<clipPath id="clip0_3826_15049">
<rect width="12.439" height="15.8075" fill="white" transform="translate(2.561)"/>
</clipPath>
<clipPath id="clip1_3826_15049">
<rect width="8.78047" height="8.78047" fill="white" transform="translate(0 8.41455)"/>
</clipPath>
</defs>
</svg>
