<svg width="52" height="52" viewBox="0 0 52 52" fill="none" xmlns="http://www.w3.org/2000/svg">
<g clip-path="url(#clip0_540_1136)">
<path d="M38.6137 31.6415L29.059 48.8069C28.2691 50.226 29.2565 51.9999 30.8364 51.9999H49.9447C51.5246 51.9999 52.5121 50.226 51.7221 48.8069L42.1674 31.6415C41.3775 30.2224 39.4026 30.2224 38.6127 31.6415H38.6137Z" fill="#F31700"/>
<path d="M51.7221 48.8069L42.1674 31.6415C41.3775 30.2224 39.4026 30.2224 38.6127 31.6415L38.1831 32.4133L47.3082 48.8069C48.0981 50.226 47.1107 51.9999 45.5308 51.9999H49.9447C51.5246 51.9999 52.5121 50.226 51.7221 48.8069Z" fill="#F31700"/>
<path d="M40.3912 36.9082C39.9697 36.9082 39.6277 37.263 39.6277 37.7001V43.1041C39.6277 43.5412 39.9697 43.896 40.3912 43.896C40.8126 43.896 41.1546 43.5412 41.1546 43.1041V37.7001C41.1546 37.263 40.8126 36.9082 40.3912 36.9082Z" fill="#F6AB31"/>
<path d="M40.3912 45.9731C39.9697 45.9731 39.6277 46.3279 39.6277 46.7651V47.6372C39.6277 48.0743 39.9697 48.4291 40.3912 48.4291C40.8126 48.4291 41.1546 48.0743 41.1546 47.6372V46.7651C41.1546 46.3279 40.8126 45.9731 40.3912 45.9731Z" fill="#F6AB31"/>
<path d="M40.5336 25.814H37.6924C37.1895 25.814 36.7253 25.5901 36.4006 25.2206L29.0051 28.6891L35.801 23.9408C35.6738 23.6125 35.5374 23.2883 35.3898 22.9705C35.0701 22.281 35.2035 21.4585 35.7247 20.9179L37.7423 18.8251C38.4243 18.1177 38.4243 16.9699 37.7423 16.2625L34.4349 12.8319C33.7529 12.1245 32.6463 12.1245 31.9643 12.8319L29.9467 14.9247C29.4234 15.4674 28.6284 15.6015 27.9606 15.2689C27.4577 15.0187 26.9406 14.7948 26.4102 14.5995C26.0692 14.4738 25.7822 14.25 25.5755 13.9638C24.2837 14.9015 22.7496 15.4083 21.1402 15.4083C21.0007 15.4083 20.8603 15.4041 20.7208 15.3967C19.2386 15.3154 17.8623 14.7927 16.712 13.9554C16.5054 14.2447 16.2153 14.4728 15.8702 14.5995C15.3398 14.7948 14.8227 15.0176 14.3198 15.2678C13.653 15.6004 12.857 15.4664 12.3337 14.9236L10.3161 12.8309C9.63408 12.1234 8.52754 12.1234 7.8455 12.8309L4.53812 16.2614C3.85607 16.9689 3.85607 18.1166 4.53812 18.8241L6.55573 20.9168C7.07694 21.4574 7.21029 22.2799 6.89065 22.9694C6.64532 23.4995 6.42645 24.0443 6.23609 24.6029C5.98974 25.3283 5.3301 25.8129 4.588 25.8129H1.74684C0.781802 25.8129 0 26.6249 0 27.6248V32.4766C0 33.4776 0.781802 34.2885 1.74684 34.2885H4.588C5.32908 34.2885 5.98872 34.7742 6.23609 35.4985C6.42645 36.0581 6.64532 36.603 6.89065 37.132C7.21029 37.8215 7.07694 38.644 6.55573 39.1846L4.53812 41.2773C3.85607 41.9848 3.85607 43.1325 4.53812 43.84L7.8455 47.2705C8.52754 47.978 9.63408 47.978 10.3161 47.2705L12.3337 45.1778C12.8549 44.6372 13.6479 44.4988 14.3127 44.8304C14.8227 45.0849 15.349 45.3119 15.8875 45.5093C16.5868 45.7648 17.0541 46.4491 17.0541 47.2188V50.1657C17.0541 51.1667 17.8359 51.9776 18.8009 51.9776H23.4785C24.4435 51.9776 25.2253 51.1667 25.2253 50.1657V47.2188C25.2253 46.4501 25.6936 45.7659 26.3919 45.5093C26.9314 45.3119 27.4567 45.0849 27.9667 44.8304C28.6315 44.4988 29.4245 44.6372 29.9457 45.1778L30.8079 46.0721L38.8224 31.6731C39.1746 31.0406 39.8047 30.6626 40.5091 30.6626C41.2136 30.6626 41.8437 31.0406 42.1959 31.6731L42.2794 31.823V27.6227C42.2794 26.6217 41.4976 25.8108 40.5326 25.8108L40.5336 25.814Z" fill="#C5D3DD"/>
<path d="M28.6077 37.9156C32.9441 33.4177 32.9441 26.1252 28.6077 21.6274C24.2713 17.1295 17.2406 17.1295 12.9042 21.6274C8.56783 26.1252 8.56783 33.4177 12.9042 37.9156C17.2406 42.4135 24.2713 42.4135 28.6077 37.9156Z" fill="#F5F8F9"/>
<path d="M18.6208 24.3135C16.482 25.3123 14.9917 27.5402 14.9917 30.1303C14.9917 32.7204 16.482 34.9494 18.6208 35.9482V24.3135Z" fill="#C5D3DD"/>
<path d="M23.6606 24.3136V35.9483C25.7994 34.9494 27.2897 32.7215 27.2897 30.1304C27.2897 27.5393 25.7994 25.3114 23.6606 24.3125V24.3136Z" fill="#C5D3DD"/>
<path d="M21.1403 15.4875C21.0009 15.4875 20.8604 15.4833 20.7209 15.4759C19.9523 15.4337 19.2133 15.2721 18.519 15.0103V35.9008C19.3141 36.2905 20.2028 36.509 21.1403 36.509C22.0779 36.509 22.9666 36.2905 23.7626 35.9008V15.0187C22.933 15.327 22.0483 15.4875 21.1413 15.4875H21.1403Z" fill="#8AC9FE"/>
<path d="M21.2358 15.4857V36.5072C22.1388 36.4924 22.9939 36.2781 23.7614 35.9022V15.02C22.9603 15.3178 22.1093 15.4762 21.2358 15.4867V15.4857Z" fill="#60B7FF"/>
<path d="M23.7626 0.518264V7.69508C23.7626 8.26737 23.3146 8.73196 22.7629 8.73196H19.5186C18.9669 8.73196 18.519 8.26737 18.519 7.69508V0.51932C18.519 0.138147 18.1362 -0.11104 17.8044 0.0505093C15.0569 1.38725 13.1757 4.32471 13.2795 7.70564C13.4088 11.9144 16.6622 15.3639 20.7158 15.5846C25.2529 15.8317 29.0061 12.0897 29.0061 7.4385C29.0061 4.17161 27.1534 1.35347 24.4792 0.0515652C24.1463 -0.11104 23.7626 0.137092 23.7626 0.51932V0.518264Z" fill="#26A6FE"/>
<path d="M24.479 0.0506741C24.1462 -0.111931 23.7624 0.1362 23.7624 0.518429V2.14871C24.9331 3.57204 25.6406 5.41877 25.6406 7.43761C25.6406 11.3433 22.9948 14.606 19.4604 15.4063C19.8687 15.4993 20.287 15.5605 20.7156 15.5837C25.2527 15.8308 29.006 12.0888 29.006 7.43761C29.006 4.17072 27.1533 1.35257 24.479 0.0506741Z" fill="#0593FC"/>
</g>
<defs>
<clipPath id="clip0_540_1136">
<rect width="52" height="52" fill="white"/>
</clipPath>
</defs>
</svg>
