<svg width="20" height="21" viewBox="0 0 20 21" fill="none" xmlns="http://www.w3.org/2000/svg">
<path d="M2.67029e-05 8.34665V19.666C-0.00206947 19.9484 0.117336 20.2181 0.327782 20.4063L0.357515 20.436C0.53904 20.5908 0.769978 20.6754 1.00853 20.6745H18.9912C19.228 20.6745 19.4571 20.5899 19.6372 20.436C19.6494 20.4288 19.6597 20.4186 19.6669 20.4063C19.8789 20.2187 20.0002 19.9491 20 19.666V8.34665C20.0023 8.09501 19.906 7.85243 19.7317 7.67095C19.6606 7.58705 19.5752 7.51638 19.4796 7.46217C19.3303 7.3805 19.1628 7.33776 18.9927 7.33789H1.00875C0.726467 7.34298 0.45801 7.46106 0.263437 7.66564C0.0943623 7.85222 0.000453949 8.09488 2.67029e-05 8.34665Z" fill="#F6B863"/>
<path d="M0.262447 7.6646C0.333294 7.75208 9.99466 15.4355 9.99466 15.4355L19.7322 7.67315L19.7279 7.66913V7.66485L10.546 0.195472C10.2256 -0.0651572 9.7662 -0.0651572 9.44572 0.195472L0.262447 7.6646Z" fill="#EAA14E"/>
<path d="M2.31668 2.45605V9.31853L9.99578 15.4352L17.6792 9.31023V2.45605H2.31668Z" fill="#EEEFEE"/>
<path d="M0.328956 20.4059C0.337598 20.4167 0.347437 20.4265 0.358218 20.4352L9.0083 14.665L8.21662 14.0273L0.328956 20.4059Z" fill="#EAA14E"/>
<path d="M10.9876 14.6613L19.6377 20.435C19.6504 20.4288 19.6607 20.4185 19.667 20.4058L11.7834 14.0195L10.9876 14.6613Z" fill="#EAA14E"/>
<path d="M15.9773 4.25684H4.02306V4.77548H15.9773V4.25684Z" fill="#DBD8DD"/>
<path d="M15.9773 6.25781H4.02306V6.77646H15.9773V6.25781Z" fill="#DBD8DD"/>
<path d="M15.9773 8.25781H4.02306V8.77646H15.9773V8.25781Z" fill="#DBD8DD"/>
<path d="M13.9695 10.2588H6.0304V10.7774H13.9695V10.2588Z" fill="#DBD8DD"/>
</svg>
