<svg width="43" height="49" viewBox="0 0 43 49" fill="none" xmlns="http://www.w3.org/2000/svg">
<g clip-path="url(#clip0_2843_48030)">
<rect x="1" y="1" width="42" height="48" rx="1" fill="#482F66"/>
<path d="M22.7737 13.0306H19.7275C19.194 13.0306 18.7617 12.5982 18.7617 12.0649C18.7617 11.5315 19.1941 11.0991 19.7275 11.0991H22.7737C23.3072 11.0991 23.7395 11.5315 23.7395 12.0649C23.7396 12.5982 23.3072 13.0306 22.7737 13.0306Z" fill="#C9C0C7"/>
<path d="M37.0296 16.6188H19.7275C19.194 16.6188 18.7617 16.1864 18.7617 15.653C18.7617 15.1196 19.1941 14.6873 19.7275 14.6873H37.0296C37.5631 14.6873 37.9953 15.1196 37.9953 15.653C37.9955 16.1863 37.5631 16.6188 37.0296 16.6188Z" fill="#C9C0C7"/>
<path d="M22.7737 27.066H19.7275C19.194 27.066 18.7617 26.6336 18.7617 26.1003C18.7617 25.5669 19.1941 25.1345 19.7275 25.1345H22.7737C23.3072 25.1345 23.7395 25.5669 23.7395 26.1003C23.7396 26.6335 23.3072 27.066 22.7737 27.066Z" fill="#C9C0C7"/>
<path d="M37.0296 30.6542H19.7275C19.194 30.6542 18.7617 30.2218 18.7617 29.6884C18.7617 29.155 19.1941 28.7227 19.7275 28.7227H37.0296C37.5631 28.7227 37.9953 29.155 37.9953 29.6884C37.9955 30.2218 37.5631 30.6542 37.0296 30.6542Z" fill="#C9C0C7"/>
<path d="M12.7847 43.2061H7.85659C7.09659 43.2061 6.48047 42.59 6.48047 41.83V36.902C6.48047 36.142 7.09659 35.5259 7.85659 35.5259H12.7846C13.5446 35.5259 14.1607 36.142 14.1607 36.902V41.83C14.1607 42.59 13.5447 43.2061 12.7847 43.2061Z" fill="#FEE265"/>
<path d="M14.1605 36.9022V41.83C14.1605 42.5896 13.544 43.2061 12.7844 43.2061H9.23828C9.99791 43.2061 10.6144 42.5896 10.6144 41.83V36.9022C10.6144 36.1426 9.99791 35.5261 9.23828 35.5261H12.7844C13.544 35.5261 14.1605 36.1426 14.1605 36.9022Z" fill="#FDD330"/>
<path d="M12.7847 31.2061H7.85659C7.09659 31.2061 6.48047 30.59 6.48047 29.83V24.902C6.48047 24.142 7.09659 23.5259 7.85659 23.5259H12.7846C13.5446 23.5259 14.1607 24.142 14.1607 24.902V29.83C14.1607 30.59 13.5447 31.2061 12.7847 31.2061Z" fill="#FEE265"/>
<path d="M14.1605 24.9022V29.83C14.1605 30.5896 13.544 31.2061 12.7844 31.2061H9.23828C9.99791 31.2061 10.6144 30.5896 10.6144 29.83V24.9022C10.6144 24.1426 9.99791 23.5261 9.23828 23.5261H12.7844C13.544 23.5261 14.1605 24.1426 14.1605 24.9022Z" fill="#FDD330"/>
<path d="M12.7847 17.2061H7.85659C7.09659 17.2061 6.48047 16.59 6.48047 15.83V10.902C6.48047 10.142 7.09659 9.52588 7.85659 9.52588H12.7846C13.5446 9.52588 14.1607 10.142 14.1607 10.902V15.83C14.1607 16.59 13.5447 17.2061 12.7847 17.2061Z" fill="#FEE265"/>
<path d="M14.1605 10.9022V15.83C14.1605 16.5896 13.544 17.2061 12.7844 17.2061H9.23828C9.99791 17.2061 10.6144 16.5896 10.6144 15.83V10.9022C10.6144 10.1426 9.99791 9.52612 9.23828 9.52612H12.7844C13.544 9.52612 14.1605 10.1426 14.1605 10.9022Z" fill="#FDD330"/>
<path d="M22.7737 39.5838H19.7275C19.194 39.5838 18.7617 39.1515 18.7617 38.6181C18.7617 38.0847 19.1941 37.6523 19.7275 37.6523H22.7737C23.3072 37.6523 23.7395 38.0847 23.7395 38.6181C23.7396 39.1513 23.3072 39.5838 22.7737 39.5838Z" fill="#C9C0C7"/>
<path d="M37.0296 43.172H19.7275C19.194 43.172 18.7617 42.7396 18.7617 42.2062C18.7617 41.6729 19.1941 41.2405 19.7275 41.2405H37.0296C37.5631 41.2405 37.9953 41.6729 37.9953 42.2062C37.9953 42.7396 37.5631 43.172 37.0296 43.172Z" fill="#C9C0C7"/>
</g>
<g clip-path="url(#clip1_2843_48030)">
<g clip-path="url(#clip2_2843_48030)">
<path d="M41.2852 0.965292V46.0346C41.2852 46.5685 40.7079 47 39.9965 47H0.573781C-0.137625 46.9999 -0.714844 46.5685 -0.714844 46.0346V0.965292C-0.714844 0.431387 -0.137625 0 0.573781 0H39.9967C40.7079 0 41.2852 0.431387 41.2852 0.965292Z" fill="#F8F3F1"/>
<g clip-path="url(#clip3_2843_48030)">
<path d="M8.78516 14C6.85526 14 5.28516 12.4299 5.28516 10.5C5.28516 8.5701 6.85526 7 8.78516 7C10.7151 7 12.2852 8.5701 12.2852 10.5C12.2852 12.4299 10.7151 14 8.78516 14Z" fill="#F06363"/>
<path d="M10.1501 11.2867C10.2648 11.4015 10.2648 11.5869 10.1501 11.7017C10.0929 11.7589 10.0178 11.7876 9.9426 11.7876C9.86749 11.7876 9.79238 11.7589 9.73516 11.7017L8.85342 10.8199L7.97168 11.7017C7.91446 11.7589 7.83935 11.7876 7.76424 11.7876C7.68907 11.7876 7.61396 11.7589 7.55674 11.7017C7.44203 11.5869 7.44203 11.4015 7.55674 11.2867L8.43853 10.405L7.55674 9.52321C7.44203 9.40844 7.44203 9.22302 7.55674 9.10825C7.6715 8.99354 7.85692 8.99354 7.97168 9.10825L8.85342 9.99007L9.73516 9.10825C9.84992 8.99354 10.0353 8.99354 10.1501 9.10825C10.2648 9.22302 10.2648 9.40844 10.1501 9.52321L9.26831 10.405L10.1501 11.2867Z" fill="#FAFAFA"/>
</g>
<g clip-path="url(#clip4_2843_48030)">
<path d="M8.78516 27C6.85526 27 5.28516 25.4299 5.28516 23.5C5.28516 21.5701 6.85526 20 8.78516 20C10.7151 20 12.2852 21.5701 12.2852 23.5C12.2852 25.4299 10.7151 27 8.78516 27Z" fill="#F06363"/>
<path d="M10.1501 24.2867C10.2648 24.4015 10.2648 24.5869 10.1501 24.7017C10.0929 24.7589 10.0178 24.7876 9.9426 24.7876C9.86749 24.7876 9.79238 24.7589 9.73516 24.7017L8.85342 23.8199L7.97168 24.7017C7.91446 24.7589 7.83935 24.7876 7.76424 24.7876C7.68907 24.7876 7.61396 24.7589 7.55674 24.7017C7.44203 24.5869 7.44203 24.4015 7.55674 24.2867L8.43853 23.405L7.55674 22.5232C7.44203 22.4084 7.44203 22.223 7.55674 22.1083C7.6715 21.9935 7.85692 21.9935 7.97168 22.1083L8.85342 22.9901L9.73516 22.1083C9.84992 21.9935 10.0353 21.9935 10.1501 22.1083C10.2648 22.223 10.2648 22.4084 10.1501 22.5232L9.26831 23.405L10.1501 24.2867Z" fill="#FAFAFA"/>
</g>
<g clip-path="url(#clip5_2843_48030)">
<path d="M8.78516 40C6.85526 40 5.28516 38.4299 5.28516 36.5C5.28516 34.5701 6.85526 33 8.78516 33C10.7151 33 12.2852 34.5701 12.2852 36.5C12.2852 38.4299 10.7151 40 8.78516 40Z" fill="#F06363"/>
<path d="M10.1501 37.2867C10.2648 37.4015 10.2648 37.5869 10.1501 37.7017C10.0929 37.7589 10.0178 37.7876 9.9426 37.7876C9.86749 37.7876 9.79238 37.7589 9.73516 37.7017L8.85342 36.8199L7.97168 37.7017C7.91446 37.7589 7.83935 37.7876 7.76424 37.7876C7.68907 37.7876 7.61396 37.7589 7.55674 37.7017C7.44203 37.5869 7.44203 37.4015 7.55674 37.2867L8.43853 36.405L7.55674 35.5232C7.44203 35.4084 7.44203 35.223 7.55674 35.1083C7.6715 34.9935 7.85692 34.9935 7.97168 35.1083L8.85342 35.9901L9.73516 35.1083C9.84992 34.9935 10.0353 34.9935 10.1501 35.1083C10.2648 35.223 10.2648 35.4084 10.1501 35.5232L9.26831 36.405L10.1501 37.2867Z" fill="#FAFAFA"/>
</g>
<path d="M21.0589 10.0306H18.0126C17.4791 10.0306 17.0469 9.59825 17.0469 9.06487C17.0469 8.5315 17.4792 8.09912 18.0126 8.09912H21.0589C21.5924 8.09912 22.0246 8.5315 22.0246 9.06487C22.0248 9.59825 21.5924 10.0306 21.0589 10.0306Z" fill="#C9C0C7"/>
<path d="M35.3147 13.6188H18.0126C17.4791 13.6188 17.0469 13.1864 17.0469 12.653C17.0469 12.1196 17.4792 11.6873 18.0126 11.6873H35.3147C35.8482 11.6873 36.2805 12.1196 36.2805 12.653C36.2806 13.1863 35.8482 13.6188 35.3147 13.6188Z" fill="#C9C0C7"/>
<path d="M21.0589 23.0306H18.0126C17.4791 23.0306 17.0469 22.5982 17.0469 22.0649C17.0469 21.5315 17.4792 21.0991 18.0126 21.0991H21.0589C21.5924 21.0991 22.0246 21.5315 22.0246 22.0649C22.0248 22.5982 21.5924 23.0306 21.0589 23.0306Z" fill="#C9C0C7"/>
<path d="M35.3147 26.6188H18.0126C17.4791 26.6188 17.0469 26.1864 17.0469 25.653C17.0469 25.1196 17.4792 24.6873 18.0126 24.6873H35.3147C35.8482 24.6873 36.2805 25.1196 36.2805 25.653C36.2806 26.1863 35.8482 26.6188 35.3147 26.6188Z" fill="#C9C0C7"/>
<path d="M21.0589 36.0306H18.0126C17.4791 36.0306 17.0469 35.5982 17.0469 35.0649C17.0469 34.5315 17.4792 34.0991 18.0126 34.0991H21.0589C21.5924 34.0991 22.0246 34.5315 22.0246 35.0649C22.0248 35.5982 21.5924 36.0306 21.0589 36.0306Z" fill="#C9C0C7"/>
<path d="M35.3147 39.6188H18.0126C17.4791 39.6188 17.0469 39.1864 17.0469 38.653C17.0469 38.1196 17.4792 37.6873 18.0126 37.6873H35.3147C35.8482 37.6873 36.2805 38.1196 36.2805 38.653C36.2806 39.1863 35.8482 39.6188 35.3147 39.6188Z" fill="#C9C0C7"/>
</g>
</g>
<defs>
<clipPath id="clip0_2843_48030">
<rect x="1" y="1" width="42" height="48" rx="1" fill="white"/>
</clipPath>
<clipPath id="clip1_2843_48030">
<rect width="41" height="47" fill="white" transform="translate(0.285156)"/>
</clipPath>
<clipPath id="clip2_2843_48030">
<rect width="42" height="47" fill="white" transform="translate(-0.714844)"/>
</clipPath>
<clipPath id="clip3_2843_48030">
<rect width="7" height="7" fill="white" transform="translate(5.28516 7)"/>
</clipPath>
<clipPath id="clip4_2843_48030">
<rect width="7" height="7" fill="white" transform="translate(5.28516 20)"/>
</clipPath>
<clipPath id="clip5_2843_48030">
<rect width="7" height="7" fill="white" transform="translate(5.28516 33)"/>
</clipPath>
</defs>
</svg>
