<svg width="16" height="16" viewBox="0 0 16 16" fill="none" xmlns="http://www.w3.org/2000/svg">
<mask id="mask0_1757_325007" style="mask-type:alpha" maskUnits="userSpaceOnUse" x="0" y="0" width="16" height="16">
<rect width="16" height="16" fill="#D9D9D9"/>
</mask>
<g mask="url(#mask0_1757_325007)">
<path d="M4.33464 13.3327C3.32352 13.3327 2.45964 12.9827 1.74297 12.2827C1.0263 11.5827 0.667969 10.7271 0.667969 9.71602C0.667969 8.84935 0.92908 8.07713 1.4513 7.39935C1.97352 6.72157 2.65686 6.28824 3.5013 6.09935C3.77908 5.07713 4.33464 4.24935 5.16797 3.61602C6.0013 2.98268 6.94575 2.66602 8.0013 2.66602C9.3013 2.66602 10.4041 3.11879 11.3096 4.02435C12.2152 4.9299 12.668 6.03268 12.668 7.33268C13.4346 7.42157 14.0707 7.75213 14.5763 8.32435C15.0819 8.89657 15.3346 9.56602 15.3346 10.3327C15.3346 11.166 15.043 11.8743 14.4596 12.4577C13.8763 13.041 13.168 13.3327 12.3346 13.3327H8.66797C8.3013 13.3327 7.98741 13.2021 7.7263 12.941C7.46519 12.6799 7.33464 12.366 7.33464 11.9993V8.56602L6.26797 9.59935L5.33464 8.66602L8.0013 5.99935L10.668 8.66602L9.73464 9.59935L8.66797 8.56602V11.9993H12.3346C12.8013 11.9993 13.1957 11.8382 13.518 11.516C13.8402 11.1938 14.0013 10.7993 14.0013 10.3327C14.0013 9.86602 13.8402 9.47157 13.518 9.14935C13.1957 8.82713 12.8013 8.66602 12.3346 8.66602H11.3346V7.33268C11.3346 6.41046 11.0096 5.62435 10.3596 4.97435C9.70964 4.32435 8.92352 3.99935 8.0013 3.99935C7.07908 3.99935 6.29297 4.32435 5.64297 4.97435C4.99297 5.62435 4.66797 6.41046 4.66797 7.33268H4.33464C3.69019 7.33268 3.14019 7.56046 2.68464 8.01602C2.22908 8.47157 2.0013 9.02157 2.0013 9.66602C2.0013 10.3105 2.22908 10.8605 2.68464 11.316C3.14019 11.7716 3.69019 11.9993 4.33464 11.9993H6.0013V13.3327H4.33464Z" fill="#9933FF"/>
</g>
</svg>
