<svg width="45" height="49" viewBox="0 0 45 49" fill="none" xmlns="http://www.w3.org/2000/svg">
<g clip-path="url(#clip0_2843_47825)">
<rect x="3" y="1" width="42" height="48" rx="1" fill="#482F66"/>
<path d="M24.7737 13.0306H21.7275C21.194 13.0306 20.7617 12.5982 20.7617 12.0649C20.7617 11.5315 21.1941 11.0991 21.7275 11.0991H24.7737C25.3072 11.0991 25.7395 11.5315 25.7395 12.0649C25.7396 12.5982 25.3072 13.0306 24.7737 13.0306Z" fill="#C9C0C7"/>
<path d="M39.0296 16.6189H21.7275C21.194 16.6189 20.7617 16.1865 20.7617 15.6531C20.7617 15.1198 21.1941 14.6874 21.7275 14.6874H39.0296C39.5631 14.6874 39.9953 15.1198 39.9953 15.6531C39.9955 16.1864 39.5631 16.6189 39.0296 16.6189Z" fill="#C9C0C7"/>
<path d="M24.7737 27.0659H21.7275C21.194 27.0659 20.7617 26.6335 20.7617 26.1002C20.7617 25.5668 21.1941 25.1344 21.7275 25.1344H24.7737C25.3072 25.1344 25.7395 25.5668 25.7395 26.1002C25.7396 26.6334 25.3072 27.0659 24.7737 27.0659Z" fill="#C9C0C7"/>
<path d="M39.0296 30.6542H21.7275C21.194 30.6542 20.7617 30.2218 20.7617 29.6884C20.7617 29.155 21.1941 28.7227 21.7275 28.7227H39.0296C39.5631 28.7227 39.9953 29.155 39.9953 29.6884C39.9955 30.2218 39.5631 30.6542 39.0296 30.6542Z" fill="#C9C0C7"/>
<path d="M14.7847 43.2061H9.85659C9.09659 43.2061 8.48047 42.59 8.48047 41.83V36.902C8.48047 36.142 9.09659 35.5259 9.85659 35.5259H14.7846C15.5446 35.5259 16.1607 36.142 16.1607 36.902V41.83C16.1607 42.59 15.5447 43.2061 14.7847 43.2061Z" fill="#FEE265"/>
<path d="M16.1605 36.9021V41.8299C16.1605 42.5895 15.544 43.206 14.7844 43.206H11.2383C11.9979 43.206 12.6144 42.5895 12.6144 41.8299V36.9021C12.6144 36.1425 11.9979 35.526 11.2383 35.526H14.7844C15.544 35.526 16.1605 36.1425 16.1605 36.9021Z" fill="#FDD330"/>
<path d="M14.7847 31.2061H9.85659C9.09659 31.2061 8.48047 30.59 8.48047 29.83V24.902C8.48047 24.142 9.09659 23.5259 9.85659 23.5259H14.7846C15.5446 23.5259 16.1607 24.142 16.1607 24.902V29.83C16.1607 30.59 15.5447 31.2061 14.7847 31.2061Z" fill="#FEE265"/>
<path d="M16.1605 24.9021V29.8299C16.1605 30.5895 15.544 31.206 14.7844 31.206H11.2383C11.9979 31.206 12.6144 30.5895 12.6144 29.8299V24.9021C12.6144 24.1425 11.9979 23.526 11.2383 23.526H14.7844C15.544 23.526 16.1605 24.1425 16.1605 24.9021Z" fill="#FDD330"/>
<path d="M14.7847 17.2061H9.85659C9.09659 17.2061 8.48047 16.59 8.48047 15.83V10.902C8.48047 10.142 9.09659 9.52588 9.85659 9.52588H14.7846C15.5446 9.52588 16.1607 10.142 16.1607 10.902V15.83C16.1607 16.59 15.5447 17.2061 14.7847 17.2061Z" fill="#FEE265"/>
<path d="M16.1605 10.9021V15.8299C16.1605 16.5895 15.544 17.206 14.7844 17.206H11.2383C11.9979 17.206 12.6144 16.5895 12.6144 15.8299V10.9021C12.6144 10.1425 11.9979 9.526 11.2383 9.526H14.7844C15.544 9.526 16.1605 10.1425 16.1605 10.9021Z" fill="#FDD330"/>
<path d="M24.7737 39.5837H21.7275C21.194 39.5837 20.7617 39.1513 20.7617 38.618C20.7617 38.0846 21.1941 37.6522 21.7275 37.6522H24.7737C25.3072 37.6522 25.7395 38.0846 25.7395 38.618C25.7396 39.1512 25.3072 39.5837 24.7737 39.5837Z" fill="#C9C0C7"/>
<path d="M39.0296 43.1719H21.7275C21.194 43.1719 20.7617 42.7395 20.7617 42.2061C20.7617 41.6727 21.1941 41.2404 21.7275 41.2404H39.0296C39.5631 41.2404 39.9953 41.6727 39.9953 42.2061C39.9953 42.7395 39.5631 43.1719 39.0296 43.1719Z" fill="#C9C0C7"/>
</g>
<g clip-path="url(#clip1_2843_47825)">
<g clip-path="url(#clip2_2843_47825)">
<path d="M42.5723 0.965292V46.0346C42.5723 46.5685 41.995 47 41.2836 47H1.86089C1.14948 46.9999 0.572266 46.5685 0.572266 46.0346V0.965292C0.572266 0.431387 1.14948 0 1.86089 0H41.2838C41.995 0 42.5723 0.431387 42.5723 0.965292Z" fill="#F8F3F1"/>
<path fill-rule="evenodd" clip-rule="evenodd" d="M21.5324 11.1066V12.5037L18.0894 10.2222L21.5324 8V9.42405C26.6961 9.62522 30.8175 13.6757 30.8175 18.6429C30.8175 23.7387 26.4801 27.8697 21.1295 27.8697C15.7789 27.8697 11.4414 23.7387 11.4414 18.6429C11.4414 15.8253 12.7676 13.3026 14.8579 11.6101L15.9692 12.9166C14.2777 14.3005 13.2062 16.3526 13.2062 18.6429C13.2062 22.8105 16.7536 26.1889 21.1295 26.1889C25.5054 26.1889 29.0527 22.8105 29.0527 18.6429C29.0527 14.6041 25.7211 11.3064 21.5324 11.1066Z" fill="#FFC000"/>
<path d="M22.5383 20.6942L21.9611 19.5567V18.3116H20.1807V19.5567L19.6035 20.6942H22.5383Z" fill="#EFC24E"/>
<path d="M21.3203 18.3116V20.6942H22.5385L21.9613 19.5567V18.3116H21.3203Z" fill="#E4B643"/>
<path d="M22.8427 16.7002H22.7297V16.2525C22.7297 15.8068 22.5459 15.3751 22.2065 15.0843C21.9404 14.8563 21.5663 14.6573 21.0724 14.6519C20.5783 14.6573 20.2042 14.8563 19.9381 15.0843C19.5988 15.3751 19.4149 15.8068 19.4149 16.2525V16.7002H19.3019C19.1363 16.7002 19.002 16.8337 19.002 16.9986V17.3294C19.002 17.4942 19.1363 17.6278 19.3019 17.6278H19.4154C19.4247 18.061 19.6077 18.4779 19.9381 18.7611C20.2042 18.989 20.5783 19.188 21.0724 19.1936C21.5664 19.188 21.9404 18.989 22.2065 18.7611C22.537 18.4779 22.7199 18.061 22.7292 17.6278H22.8427C23.0084 17.6278 23.1427 17.4942 23.1427 17.3294V16.9986C23.1427 16.8337 23.0084 16.7002 22.8427 16.7002Z" fill="#F7CA58"/>
<path d="M22.8417 16.7002H22.7287V16.2526C22.7287 15.8069 22.5449 15.3751 22.2055 15.0843C22.162 15.0471 22.1154 15.0107 22.066 14.9758L22.0659 17.8947C22.0566 18.3279 21.8736 18.7448 21.5431 19.028C21.4868 19.0762 21.4254 19.1229 21.3594 19.1669C21.7137 19.1051 21.9938 18.9425 22.2055 18.7611C22.536 18.478 22.7189 18.061 22.7282 17.6279H22.8417C23.0073 17.6279 23.1417 17.4942 23.1417 17.3294V16.9987C23.1417 16.8338 23.0073 16.7002 22.8417 16.7002Z" fill="#E4B643"/>
<path d="M21.1588 14.1538H20.9853C19.9309 14.1538 19.0762 15.0042 19.0762 16.0534V16.6003H23.068V16.0534C23.068 15.0042 22.2132 14.1538 21.1588 14.1538Z" fill="white"/>
<path d="M21.1588 14.1538H20.9853C19.9309 14.1538 19.0762 15.0042 19.0762 16.0534V16.6003H23.068V16.0534C23.068 15.0042 22.2132 14.1538 21.1588 14.1538Z" fill="#03AAA9" fill-opacity="0.54"/>
<path d="M21.1574 14.1538H20.984C20.9027 14.1538 20.8227 14.159 20.7441 14.1689C21.6843 14.2872 22.4113 15.0858 22.4113 16.0534V16.6003H23.0666V16.0534C23.0666 15.0042 22.2118 14.1538 21.1574 14.1538Z" fill="#03AAA9"/>
<path d="M23.129 16.8782H19.0146C18.862 16.8782 18.7383 16.7551 18.7383 16.6032C18.7383 16.4514 18.862 16.3282 19.0146 16.3282H23.129C23.2816 16.3282 23.4053 16.4514 23.4053 16.6032C23.4052 16.7551 23.2816 16.8782 23.129 16.8782Z" fill="#03AAA9"/>
<path d="M23.8851 19.9288L21.9619 19.5566C21.9619 20.0459 21.0717 20.4425 21.0717 20.4425C21.0717 20.4425 20.1814 20.0459 20.1814 19.5566L18.2582 19.9288C17.5319 20.1415 17.0332 20.519 17.0332 21.2723V22.8942C17.0332 23.165 17.2538 23.3846 17.526 23.3846H24.6173C24.8895 23.3846 25.1101 23.165 25.1101 22.8942V21.2723C25.1101 20.519 24.6114 20.1415 23.8851 19.9288Z" fill="#DEECF1"/>
<path d="M24.2363 20.0538C24.3849 20.2508 24.4687 20.4961 24.4687 20.8046V23.3846H24.617C24.8891 23.3846 25.1097 23.1651 25.1097 22.8943V21.2724C25.1097 20.6481 24.767 20.282 24.2363 20.0538Z" fill="#A8D3D8"/>
<path d="M20.1817 19.5566L19.4609 19.6961C19.5038 20.0935 19.8583 20.4529 20.2237 20.7231C20.3262 20.7988 20.4646 20.8047 20.574 20.7394L21.0719 20.4425C21.0719 20.4425 20.1817 20.0458 20.1817 19.5566Z" fill="#8EBAC5"/>
<path d="M21.9625 19.5566C21.9625 20.0459 21.0723 20.4425 21.0723 20.4425L21.5701 20.7394C21.6795 20.8047 21.818 20.7988 21.9204 20.7231C22.2859 20.4529 22.6403 20.0935 22.6832 19.6961L21.9625 19.5566Z" fill="#8EBAC5"/>
<path d="M17.9922 20.019L18.0995 20.3759C18.2745 20.9758 18.3633 21.5973 18.3633 22.2219V23.3845H21.0715C21.0715 23.3845 21.0715 22.8303 21.0715 22.4217C21.0715 22.1511 20.9876 21.8874 20.8312 21.6661C20.3821 21.031 19.4606 19.696 19.4605 19.696L18.4295 19.8956C18.2804 19.9244 18.1338 19.9649 17.9922 20.019Z" fill="#439BDF"/>
<path d="M24.1516 20.019L24.0444 20.3759C23.8693 20.9758 23.7805 21.5973 23.7805 22.2219V23.3845H21.0723C21.0723 23.3845 21.0723 22.8303 21.0723 22.4217C21.0723 22.1511 21.1562 21.8874 21.3127 21.6661C21.7618 21.031 22.6832 19.696 22.6833 19.696L23.7144 19.8956C23.8634 19.9244 24.01 19.9649 24.1516 20.019Z" fill="#439BDF"/>
<path d="M22.8882 22.5865H21.9458C21.8829 22.5865 21.832 22.5358 21.832 22.4733V22.1538C21.832 22.0912 21.8829 22.0405 21.9458 22.0405H22.8882C22.9511 22.0405 23.0021 22.0912 23.0021 22.1538V22.4733C23.0021 22.5358 22.9511 22.5865 22.8882 22.5865Z" fill="#B9DCFF"/>
<path d="M12.357 41.2061H7.42886C6.66886 41.2061 6.05273 40.59 6.05273 39.83V34.902C6.05273 34.142 6.66886 33.5259 7.42886 33.5259H12.3569C13.1169 33.5259 13.733 34.142 13.733 34.902V39.83C13.733 40.59 13.117 41.2061 12.357 41.2061Z" fill="#DAC1F4"/>
<path d="M13.7328 34.9021V39.8299C13.7328 40.5895 13.1163 41.206 12.3567 41.206H8.81055C9.57017 41.206 10.1867 40.5895 10.1867 39.8299V34.9021C10.1867 34.1425 9.57017 33.526 8.81055 33.526H12.3567C13.1163 33.526 13.7328 34.1425 13.7328 34.9021Z" fill="#894FC5"/>
<path d="M22.346 37.5837H19.2997C18.7662 37.5837 18.334 37.1513 18.334 36.618C18.334 36.0846 18.7664 35.6522 19.2997 35.6522H22.346C22.8795 35.6522 23.3117 36.0846 23.3117 36.618C23.3119 37.1512 22.8795 37.5837 22.346 37.5837Z" fill="#C9C0C7"/>
<path d="M36.6019 41.1719H19.2997C18.7662 41.1719 18.334 40.7395 18.334 40.2061C18.334 39.6727 18.7664 39.2404 19.2997 39.2404H36.6019C37.1354 39.2404 37.5676 39.6727 37.5676 40.2061C37.5676 40.7395 37.1354 41.1719 36.6019 41.1719Z" fill="#C9C0C7"/>
</g>
</g>
<defs>
<clipPath id="clip0_2843_47825">
<rect x="3" y="1" width="42" height="48" rx="1" fill="white"/>
</clipPath>
<clipPath id="clip1_2843_47825">
<rect width="42" height="47" fill="white" transform="translate(0.572266)"/>
</clipPath>
<clipPath id="clip2_2843_47825">
<rect width="42" height="48" fill="white" transform="translate(0.572266 -1)"/>
</clipPath>
</defs>
</svg>
