<svg width="24" height="24" viewBox="0 0 24 24" fill="none" xmlns="http://www.w3.org/2000/svg">
<path d="M4.26562 1.5H20.6719V23.5312H4.26562V1.5Z" fill="#D3D3D3"/>
<path d="M3.79688 0.9375H20.2031V22.9688H3.79688V0.9375Z" fill="#D3D3D3"/>
<path d="M3.32812 0.46875H19.7344V22.5H3.32812V0.46875Z" fill="#EDEFF1"/>
<path d="M5.4375 9.32812H7.78125V13.0781H5.4375V9.32812Z" fill="#FFB0AA"/>
<path d="M8.71875 6.51562H11.0625V13.0781H8.71875V6.51562Z" fill="#FFE352"/>
<path d="M12 8.39062H14.3438V13.0781H12V8.39062Z" fill="#80D6FB"/>
<path d="M15.2812 4.64062H17.625V13.0781H15.2812V4.64062Z" fill="#98CA69"/>
<path d="M18.5625 13.0781V14.0156H4.5V13.0781H18.5625Z" fill="#6E83B7"/>
<path d="M11.0625 2.10938V3.04688H4.5V2.10938H11.0625Z" fill="#6E83B7"/>
<path d="M8.25 3.98438V4.92188H4.5V3.98438H8.25Z" fill="#6E83B7"/>
<path d="M18.5625 15.7031V16.6406H12.9375V15.7031H18.5625Z" fill="#6E83B7"/>
<path d="M12 15.7031V16.6406H11.0625V15.7031H12Z" fill="#6E83B7"/>
<path d="M18.5625 17.5781V18.5156H12.9375V17.5781H18.5625Z" fill="#6E83B7"/>
<path d="M12 17.5781V18.5156H11.0625V17.5781H12Z" fill="#6E83B7"/>
<path d="M18.5625 19.4531V20.3906H12.9375V19.4531H18.5625Z" fill="#6E83B7"/>
<path d="M12 19.4531V20.3906H11.0625V19.4531H12Z" fill="#6E83B7"/>
<path d="M7.3125 15.2344V18.0469H10.125C10.125 16.4936 8.8658 15.2344 7.3125 15.2344Z" fill="#FFB0AA"/>
<path d="M7.3125 18.0469L9.30122 20.0356C9.81019 19.5266 10.125 18.8235 10.125 18.0469H7.3125Z" fill="#FFE352"/>
<path d="M5.32373 20.0356C5.83265 20.5446 6.53578 20.8594 7.31245 20.8594C8.08912 20.8594 8.79225 20.5446 9.30117 20.0356L7.31245 18.0469L5.32373 20.0356Z" fill="#98CA69"/>
<path d="M5.32378 20.0356L7.3125 18.0469V15.2344C5.7592 15.2344 4.5 16.4936 4.5 18.0469C4.5 18.8235 4.81481 19.5266 5.32378 20.0356Z" fill="#80D6FB"/>
</svg>
