<svg width="20" height="19" viewBox="0 0 20 19" fill="none" xmlns="http://www.w3.org/2000/svg">
<path fill-rule="evenodd" clip-rule="evenodd" d="M15.5496 16.0649C15.6857 15.9903 15.7359 15.8188 15.6618 15.6818C15.5877 15.5449 15.4172 15.4943 15.2811 15.5689C14.712 15.8798 14.0994 16.1228 13.454 16.2871C12.8297 16.4461 12.1749 16.5306 11.4995 16.5306C9.30774 16.5306 7.32349 15.6368 5.88716 14.1917C4.51667 12.8128 3.64505 10.9318 3.56811 8.84648L4.06416 9.4817C4.16017 9.60459 4.33703 9.62592 4.45916 9.52932C4.5813 9.43271 4.6025 9.25477 4.50649 9.13189L3.51712 7.86488C3.40235 7.71795 3.18163 7.72224 3.07125 7.86942L2.08538 9.13189C1.98937 9.25477 2.01057 9.43271 2.1327 9.52932C2.25484 9.62592 2.4317 9.60463 2.52771 9.4817L3.00525 8.87021C3.08823 11.1025 4.02158 13.1161 5.48889 14.5925C7.02715 16.1402 9.15224 17.0975 11.4995 17.0975C12.2201 17.0975 12.9207 17.0069 13.5905 16.8363C14.2797 16.6608 14.9366 16.3997 15.5496 16.0649Z" fill="#2DD62D"/>
<path d="M7.99793 6.62012H15.0013C15.438 6.62012 15.792 6.9763 15.792 7.41567V12.7952C15.792 13.2346 15.438 13.5908 15.0013 13.5908H7.99793C7.56124 13.5908 7.20723 13.2346 7.20723 12.7952V7.41567C7.20723 6.9763 7.56124 6.62012 7.99793 6.62012Z" fill="#FDC72E"/>
<path d="M8.81281 6.62012H15.0013C15.438 6.62012 15.792 6.9763 15.792 7.41567V12.7952C15.792 13.2346 15.438 13.5908 15.0013 13.5908H8.81281C8.37612 13.5908 8.02212 13.2346 8.02212 12.7952V7.41567C8.02212 6.9763 8.37612 6.62012 8.81281 6.62012Z" fill="#FCDB35"/>
<path fill-rule="evenodd" clip-rule="evenodd" d="M11.4994 2.27051C9.90898 2.27051 8.6077 3.57978 8.6077 5.18V6.61977H9.87964V5.18C9.87964 4.28614 10.611 3.55026 11.4994 3.55026C12.3878 3.55026 13.1192 4.28618 13.1192 5.18V6.61977H14.3911V5.18C14.3911 3.57978 13.0898 2.27051 11.4994 2.27051Z" fill="#D9C5BF"/>
<path fill-rule="evenodd" clip-rule="evenodd" d="M9.01514 6.61919H9.87964V5.17943C9.87964 4.28557 10.611 3.54969 11.4994 3.54969C11.5684 3.54969 11.6364 3.55414 11.7032 3.56273C11.77 3.55414 11.8379 3.54969 11.9069 3.54969C12.7952 3.54969 13.5266 4.28561 13.5266 5.17943V6.61919H14.3911V5.17943C14.3911 3.64812 13.1995 2.38342 11.7032 2.27734C10.2068 2.38342 9.01514 3.64812 9.01514 5.17943V6.61919Z" fill="#F0E3DF"/>
<path fill-rule="evenodd" clip-rule="evenodd" d="M8.68249 12.665H2.04206C0.918894 12.665 -5.25077e-05 13.5897 -5.25077e-05 14.7197C-5.25077e-05 15.8498 0.918894 16.7744 2.04206 16.7744H6.30758L8.12447 18.9997V16.7744H8.68249C9.80566 16.7744 10.7246 15.8499 10.7246 14.7197C10.7246 13.5896 9.80566 12.665 8.68249 12.665Z" fill="#2A92FA"/>
<path fill-rule="evenodd" clip-rule="evenodd" d="M8.68249 12.665H2.6155C1.49233 12.665 0.573383 13.5897 0.573383 14.7197C0.573383 15.8498 1.49233 16.7744 2.6155 16.7744H6.88102L8.12447 18.2974V16.7744H8.68249C9.80566 16.7744 10.7246 15.8499 10.7246 14.7197C10.7246 13.5896 9.80566 12.665 8.68249 12.665Z" fill="#4EB1FC"/>
<path fill-rule="evenodd" clip-rule="evenodd" d="M2.88076 13.9582C2.88076 13.8017 2.75465 13.6748 2.59908 13.6748C2.4435 13.6748 2.31739 13.8017 2.31739 13.9582V14.2309L2.08278 14.0946C1.9485 14.017 1.77703 14.0636 1.69985 14.1987C1.62266 14.3338 1.66898 14.5063 1.80327 14.584L2.03811 14.7204L1.80327 14.8568C1.66898 14.9344 1.62266 15.1069 1.69985 15.2421C1.77703 15.3772 1.94846 15.4238 2.08278 15.3461L2.31739 15.2098V15.4825C2.31739 15.6391 2.4435 15.7659 2.59908 15.7659C2.75465 15.7659 2.88076 15.6391 2.88076 15.4825V15.2098L3.11537 15.3461C3.24965 15.4238 3.42112 15.3772 3.4983 15.2421C3.57549 15.107 3.52917 14.9344 3.39488 14.8568L3.16004 14.7204L3.39488 14.584C3.52917 14.5063 3.57549 14.3338 3.4983 14.1987C3.42112 14.0635 3.24969 14.017 3.11537 14.0946L2.88076 14.2309V13.9582Z" fill="white"/>
<path fill-rule="evenodd" clip-rule="evenodd" d="M11.8163 8.27246C11.2965 8.27246 10.875 8.6965 10.875 9.21952C10.875 9.5838 11.0794 9.89993 11.3791 10.0584V11.4978C11.3791 11.7398 11.5758 11.9377 11.8163 11.9377C12.0567 11.9377 12.2535 11.7398 12.2535 11.4978V10.0584C12.5531 9.89997 12.7576 9.5838 12.7576 9.21952C12.7576 8.69646 12.3362 8.27246 11.8163 8.27246Z" fill="#FDC72E"/>
<path fill-rule="evenodd" clip-rule="evenodd" d="M11.4994 8.27246C10.9796 8.27246 10.5581 8.6965 10.5581 9.21952C10.5581 9.5838 10.7625 9.89993 11.0622 10.0584V11.4978C11.0622 11.7398 11.259 11.9377 11.4994 11.9377C11.7398 11.9377 11.9366 11.7398 11.9366 11.4978V10.0584C12.2362 9.89997 12.4407 9.5838 12.4407 9.21952C12.4407 8.69646 12.0193 8.27246 11.4994 8.27246Z" fill="white"/>
<path fill-rule="evenodd" clip-rule="evenodd" d="M13.4467 0.792794C13.5734 0.792794 13.689 0.705744 13.7198 0.576182C13.7569 0.423945 13.664 0.270778 13.5127 0.233691C12.9779 0.103156 12.4261 0.0246897 11.8729 0.000275218C11.7164 -0.00656731 11.5858 0.115019 11.579 0.271345C11.5726 0.427873 11.6929 0.559986 11.8486 0.566788C12.3654 0.589057 12.8805 0.662422 13.3798 0.784575C13.4021 0.789839 13.4246 0.792754 13.4467 0.792754L13.4467 0.792794ZM8.01728 1.33805C8.05724 1.33805 8.09776 1.32967 8.13639 1.31133C8.5988 1.09354 9.08335 0.919847 9.57755 0.795143C9.72845 0.757084 9.8202 0.603309 9.78238 0.451477C9.74455 0.299646 9.59115 0.207738 9.44081 0.245392C8.91148 0.378882 8.39245 0.564845 7.89744 0.798058C7.75664 0.864418 7.69632 1.03321 7.76223 1.17492C7.81016 1.27776 7.91157 1.33805 8.01728 1.33805ZM5.20539 3.50778C5.28551 3.50778 5.36503 3.47381 5.42088 3.40709C5.77311 2.98556 6.17114 2.59934 6.60329 2.2588C6.72606 2.16239 6.74779 1.9842 6.65158 1.86128C6.55576 1.73775 6.37866 1.71629 6.25649 1.8127C5.79331 2.17705 5.36716 2.59076 4.9897 3.04237C4.88942 3.16221 4.90511 3.34056 5.02382 3.44146C5.07698 3.48596 5.14137 3.50778 5.20539 3.50778ZM3.56098 6.68822C3.68528 6.68822 3.79937 6.6049 3.83313 6.47805C3.97586 5.94117 4.17393 5.42013 4.42101 4.92908C4.49103 4.78936 4.43554 4.61878 4.29667 4.54797C4.15816 4.47752 3.98846 4.53351 3.91844 4.67324C3.65369 5.19918 3.44186 5.75691 3.28863 6.33148C3.24826 6.48254 3.33768 6.63806 3.48782 6.67846C3.51245 6.6851 3.53687 6.68822 3.56094 6.68822H3.56098ZM16.9453 15.0219C16.9565 15.0219 16.9678 15.0212 16.979 15.02L18.5689 14.828C18.7235 14.8094 18.8339 14.6681 18.8153 14.5126C18.7968 14.3574 18.6562 14.247 18.5018 14.2651L17.7353 14.3578C19.1976 12.7716 20 10.718 20 8.54494C20 7.01784 19.5948 5.51847 18.8285 4.20997C18.0844 2.93949 17.0213 1.87748 15.7538 1.13881C15.6189 1.06034 15.4467 1.10642 15.3685 1.24226C15.2906 1.37749 15.3363 1.55118 15.4713 1.62924C17.917 3.05443 19.4365 5.70444 19.4365 8.54494C19.4365 10.5747 18.6869 12.4931 17.3204 13.9741L17.416 13.1724C17.4346 13.0169 17.3242 12.876 17.1698 12.8574C17.0152 12.8387 16.8752 12.9493 16.8568 13.1047L16.6655 14.7048C16.6554 14.7911 16.6849 14.8773 16.746 14.939C16.7991 14.9925 16.8711 15.0219 16.9452 15.0219H16.9453Z" fill="#4EB1FC"/>
<path fill-rule="evenodd" clip-rule="evenodd" d="M5.64395 13.9582C5.64395 13.8017 5.51783 13.6748 5.36226 13.6748C5.20669 13.6748 5.08057 13.8017 5.08057 13.9582V14.2309L4.84597 14.0946C4.71168 14.017 4.54021 14.0636 4.46303 14.1987C4.38585 14.3338 4.43217 14.5063 4.56645 14.584L4.8013 14.7204L4.56645 14.8568C4.43217 14.9344 4.38585 15.1069 4.46303 15.2421C4.54021 15.3772 4.71164 15.4238 4.84597 15.3461L5.08057 15.2098V15.4825C5.08057 15.6391 5.20669 15.7659 5.36226 15.7659C5.51783 15.7659 5.64395 15.6391 5.64395 15.4825V15.2098L5.87855 15.3461C6.01284 15.4238 6.1843 15.3772 6.26149 15.2421C6.33867 15.107 6.29235 14.9344 6.15807 14.8568L5.92322 14.7204L6.15807 14.584C6.29235 14.5063 6.33867 14.3338 6.26149 14.1987C6.1843 14.0635 6.01288 14.017 5.87855 14.0946L5.64395 14.2309V13.9582Z" fill="white"/>
<path fill-rule="evenodd" clip-rule="evenodd" d="M8.40737 13.9582C8.40737 13.8017 8.28126 13.6748 8.12569 13.6748C7.97011 13.6748 7.844 13.8017 7.844 13.9582V14.2309L7.60939 14.0946C7.47511 14.017 7.30364 14.0636 7.22646 14.1987C7.14927 14.3338 7.19559 14.5063 7.32988 14.584L7.56472 14.7204L7.32988 14.8568C7.19559 14.9344 7.14927 15.1069 7.22646 15.2421C7.30364 15.3772 7.47507 15.4238 7.60939 15.3461L7.844 15.2098V15.4825C7.844 15.6391 7.97011 15.7659 8.12569 15.7659C8.28126 15.7659 8.40737 15.6391 8.40737 15.4825V15.2098L8.64198 15.3461C8.77626 15.4238 8.94773 15.3772 9.02491 15.2421C9.1021 15.107 9.05578 14.9344 8.92149 14.8568L8.68665 14.7204L8.92149 14.584C9.05578 14.5063 9.1021 14.3338 9.02491 14.1987C8.94773 14.0636 8.77631 14.017 8.64198 14.0946L8.40737 14.2309V13.9582Z" fill="white"/>
</svg>
