<svg width="24" height="20" viewBox="0 0 24 20" fill="none" xmlns="http://www.w3.org/2000/svg">
<path d="M22.2182 5.43842V10.6748L15.6 10.7475V5.07478L18.3273 3.94751L22.2182 5.43842Z" fill="#465C6A"/>
<path d="M19.0545 4.20215V10.7112L22.2182 10.6749V5.43851L19.0545 4.20215Z" fill="#3B4C56"/>
<path d="M17.8909 7.47485H19.8909V9.11122H17.8909V7.47485Z" fill="#D5B79F"/>
<path d="M17.8909 7.47485H18.9454V9.11122H17.8909V7.47485Z" fill="#C6A28A"/>
<path d="M18.9818 8.09295C20.3675 8.09295 21.4909 6.7091 21.4909 5.00204C21.4909 3.29498 20.3675 1.91113 18.9818 1.91113C17.5961 1.91113 16.4727 3.29498 16.4727 5.00204C16.4727 6.7091 17.5961 8.09295 18.9818 8.09295Z" fill="#D5B79F"/>
<path d="M18.9818 1.91113V8.09295C20.3636 8.09295 21.4909 6.71113 21.4909 5.00204C21.4909 3.29295 20.3636 1.91113 18.9818 1.91113Z" fill="#C6A28A"/>
<path d="M20.0364 2.6384C20.0364 2.6384 18.0364 3.07476 17.6 3.91113C17.2 4.74749 17.5273 5.65658 16.9818 6.05658C16.9818 6.05658 17.2364 6.96567 17.5636 7.58385C17.5636 7.58385 17.2 7.91113 17.6727 8.34749C17.6727 8.34749 17.1273 8.42022 16.8727 8.20204C16.8727 8.20204 17.3455 9.14749 17.8909 9.25658C17.8909 9.25658 16.8727 9.36567 16.3273 8.16567C15.7818 6.96567 15.3091 4.60204 15.7818 3.62022C16.2546 2.6384 17.5636 -0.307056 19.8546 0.965671C19.8546 0.965671 20.4364 0.674763 20.9818 1.47476C21.5273 2.27476 22.0727 3.65658 22.1818 4.56567C22.2909 5.47476 22.2546 6.71113 21.4546 7.69295C20.6546 8.67476 19.5273 9.14749 19.5273 9.14749C19.5273 9.14749 20.5091 8.27476 20.8 7.76567L20.5091 7.54749C20.5091 7.54749 20.9818 6.89294 21.0546 5.76567C21.1273 4.67476 21.2364 3.00204 20.0364 2.6384Z" fill="#465C6A"/>
<path d="M22.1818 4.56571C22.0727 3.65662 21.5273 2.23844 20.9818 1.4748C20.4364 0.674805 19.8545 0.965714 19.8545 0.965714C19.5273 0.783895 19.2364 0.711168 18.9818 0.674805V3.00208C19.5273 2.82026 20.0364 2.6748 20.0364 2.6748C21.2364 3.03844 21.1273 4.6748 21.0545 5.80208C20.9818 6.92935 20.5091 7.5839 20.5091 7.5839L20.8 7.80208C20.5091 8.2748 19.5273 9.1839 19.5273 9.1839C19.5273 9.1839 20.6545 8.6748 21.4545 7.72935C22.2545 6.71117 22.2909 5.43844 22.1818 4.56571Z" fill="#3B4C56"/>
<path d="M23.3091 11.693C23.3455 10.8203 22.7273 10.2748 22.0364 9.76575C21.3455 9.25666 19.8909 8.78394 19.8909 8.78394L18.9455 9.11121L18 8.78394C18 8.78394 16.5818 9.25666 15.8545 9.76575C15.1636 10.2748 14.5818 10.8203 14.5818 11.693C14.6182 12.5658 14.5818 14.5294 14.5818 14.5294H18.9091H23.3091C23.3091 14.5294 23.2727 12.5658 23.3091 11.693Z" fill="#C6A28A"/>
<path d="M23.3091 14.5293H14.6182C14.6182 14.5293 14.6546 12.5657 14.6182 11.693C14.5818 10.8202 15.2 10.2748 15.8909 9.76568C16.1455 9.58387 16.5091 9.40205 16.8727 9.25659C17.3455 9.91114 18.1091 10.3475 18.9818 10.3475C19.8546 10.3475 20.6182 9.91114 21.0909 9.25659C21.4546 9.40205 21.7818 9.58387 22.0727 9.76568C22.7637 10.2748 23.3455 10.8202 23.3455 11.693C23.2727 12.5657 23.3091 14.5293 23.3091 14.5293Z" fill="#FAD22C"/>
<path d="M23.3091 11.693C23.3455 10.8202 22.7273 10.2748 22.0364 9.76568C21.7818 9.58387 21.4182 9.40205 21.0546 9.25659C20.5818 9.91114 19.8182 10.3475 18.9455 10.3475V14.5293H23.3091C23.3091 14.5293 23.2727 12.5657 23.3091 11.693Z" fill="#E0B624"/>
<path d="M7.7275 4.97293C7.82175 4.60318 7.72462 4.25921 7.51056 4.20464C7.29649 4.15008 7.04655 4.40558 6.9523 4.77533C6.85805 5.14508 6.95518 5.48906 7.16925 5.54362C7.38331 5.59819 7.63325 5.34268 7.7275 4.97293Z" fill="#C6A28A"/>
<path d="M2.27972 4.78257C2.18547 4.41282 1.93553 4.15731 1.72146 4.21188C1.5074 4.26644 1.41027 4.61042 1.50452 4.98017C1.59877 5.34992 1.84871 5.60542 2.06277 5.55086C2.27684 5.49629 2.37397 5.15232 2.27972 4.78257Z" fill="#D5B79F"/>
<path d="M3.49091 7.07495H5.6V8.82041H3.49091V7.07495Z" fill="#D5B79F"/>
<path d="M3.49091 7.07495H4.54545V8.82041H3.49091V7.07495Z" fill="#C6A28A"/>
<path d="M4.61817 7.72929C6.08423 7.72929 7.27271 6.26404 7.27271 4.45656C7.27271 2.64909 6.08423 1.18384 4.61817 1.18384C3.1521 1.18384 1.96362 2.64909 1.96362 4.45656C1.96362 6.26404 3.1521 7.72929 4.61817 7.72929Z" fill="#D5B79F"/>
<path d="M4.61819 1.18384V7.69293C6.07274 7.69293 7.27274 6.23838 7.27274 4.4202C7.27274 2.60202 6.07274 1.18384 4.61819 1.18384Z" fill="#C6A28A"/>
<path d="M9.2 11.5477C9.23636 10.6386 8.58182 10.0204 7.85455 9.51133C7.12727 9.00224 5.6 8.45679 5.6 8.45679L4.61818 8.82042L4.54545 8.7477L3.6 8.49315C3.6 8.49315 2.07273 9.00224 1.34545 9.5477C0.618182 10.0568 0 10.675 0 11.5841C0.0363636 12.4932 0 14.5659 0 14.5659H4.58182H9.16364C9.2 14.5295 9.2 12.4568 9.2 11.5477Z" fill="#45BBDD"/>
<path d="M9.19999 11.5477C9.23635 10.6386 8.5818 10.0204 7.85453 9.51133C7.12726 9.00224 5.59999 8.45679 5.59999 8.45679L4.54544 8.71133V14.4932H9.19999C9.19999 14.5295 9.19999 12.4568 9.19999 11.5477Z" fill="#15A9CB"/>
<path d="M4.90908 8.74756H4.21817L3.8909 9.25665L4.21817 9.8021H4.90908L5.23635 9.25665L4.90908 8.74756Z" fill="#E6E6E8"/>
<path d="M5.23635 9.25665L4.90908 8.74756H4.54544V9.8021H4.90908L5.23635 9.25665Z" fill="#D4D8DB"/>
<path d="M5.63635 7.94751L4.54544 8.74751L5.56362 9.54751L5.85453 8.56569L5.63635 7.94751Z" fill="#45BBDD"/>
<path d="M3.49092 7.94751L4.54546 8.74751L3.56364 9.54751L3.27274 8.60206L3.49092 7.94751Z" fill="#15A9CB"/>
<path d="M5.20002 14.5295H4.54547V9.80225H4.90911L5.20002 14.5295Z" fill="#E6E6E8"/>
<path d="M4.54546 14.5295H3.92728L4.21819 9.80225H4.54546V14.5295Z" fill="#D4D8DB"/>
<path d="M7.38181 2.42032C7.23636 1.00213 6.72726 0.674861 5.67272 0.493043C4.65454 0.311224 3.12726 0.238497 2.25454 1.14759C1.45454 1.94759 1.92726 4.6385 1.99999 5.14759C1.99999 5.18395 2.03636 5.22031 2.10908 5.22031H2.14545C2.18181 5.22031 2.21817 5.18395 2.21817 5.14759C2.25454 4.89304 2.39999 3.94759 2.43636 3.54759C2.47272 3.11122 2.39999 2.74759 2.76363 2.71122C3.12726 2.67486 4.18181 3.65668 6.07272 2.71122C6.07272 2.71122 6.50908 2.6385 6.50908 3.11122C6.50908 3.58395 7.01817 4.34759 6.87272 5.25668C6.87272 5.32941 6.90908 5.36577 6.98181 5.36577C7.01817 5.36577 7.05454 5.32941 7.05454 5.29304C7.19999 5.00213 7.52727 3.65668 7.38181 2.42032Z" fill="#465C6A"/>
<path d="M7.38183 2.4204C7.23638 1.00221 6.72729 0.674942 5.67274 0.493124C5.34547 0.420397 4.98183 0.384033 4.61819 0.384033V3.11131C5.05456 3.11131 5.56365 3.00222 6.14547 2.71131C6.14547 2.71131 6.58183 2.63858 6.58183 3.11131C6.58183 3.58403 7.09092 4.34767 6.94547 5.25676C6.94547 5.32949 6.98183 5.36585 7.05456 5.36585C7.09092 5.36585 7.12729 5.32949 7.12729 5.29312C7.20001 5.00222 7.52729 3.65676 7.38183 2.4204Z" fill="#3B4C56"/>
<path d="M15.291 7.62662C15.4101 7.15957 15.3015 6.72867 15.0485 6.66419C14.7955 6.5997 14.4939 6.92604 14.3749 7.3931C14.2558 7.86015 14.3644 8.29105 14.6174 8.35553C14.8704 8.42002 15.172 8.09368 15.291 7.62662Z" fill="#C6A28A"/>
<path d="M8.48125 7.3876C8.3622 6.92054 8.0606 6.5942 7.80762 6.65869C7.55463 6.72317 7.44605 7.15407 7.56511 7.62112C7.68416 8.08818 7.98576 8.41452 8.23874 8.35003C8.49173 8.28555 8.6003 7.85465 8.48125 7.3876Z" fill="#D5B79F"/>
<path d="M10.0363 10.2747H12.6909V12.4565H10.0363V10.2747Z" fill="#D5B79F"/>
<path d="M10.0363 10.2747H11.3454V12.4565H10.0363V10.2747Z" fill="#C6A28A"/>
<path d="M11.4545 11.0383C13.2821 11.0383 14.7636 9.21486 14.7636 6.96555C14.7636 4.71624 13.2821 2.89282 11.4545 2.89282C9.62698 2.89282 8.14545 4.71624 8.14545 6.96555C8.14545 9.21486 9.62698 11.0383 11.4545 11.0383Z" fill="#D5B79F"/>
<path d="M11.4545 2.89282V11.0383C13.2727 11.0383 14.7636 9.2201 14.7636 6.96555C14.7636 4.711 13.2727 2.89282 11.4545 2.89282Z" fill="#C6A28A"/>
<path d="M17.2 15.8382C17.2364 14.7109 16.4364 13.9473 15.5273 13.2927C14.6182 12.6382 12.7273 11.9836 12.7273 11.9836L11.4909 12.42L11.4182 12.3109L10.2182 12.02C10.2182 12.02 8.32727 12.6746 7.41818 13.3291C6.50909 13.9836 5.70909 14.7473 5.74546 15.8746C5.78182 17.0018 5.74546 19.62 5.74546 19.62H11.4909H17.2364C17.2 19.5836 17.1636 16.9655 17.2 15.8382Z" fill="#D4D8DB"/>
<path d="M17.2 15.8382C17.2364 14.7109 16.4364 13.9473 15.5273 13.2927C14.6182 12.6382 12.7273 11.9836 12.7273 11.9836L11.4182 12.3109V19.5473H17.2364C17.2 19.5836 17.1636 16.9655 17.2 15.8382Z" fill="#E6E6E8"/>
<path d="M17.2 19.5837H11.3818C12.8 15.8746 12.9091 12.8564 12.9091 12.0928C13.0545 12.1655 13.3091 12.2382 13.6 12.3473C14.2182 12.6019 15.0182 12.9655 15.4909 13.2928C16.4 13.9473 17.2 14.711 17.1636 15.8382C17.1636 16.9655 17.2 19.5837 17.2 19.5837Z" fill="#D4D8DB"/>
<path d="M11.7818 12.3474H10.9454L10.5454 13.002L10.9454 13.6565H11.7818L12.2182 13.002L11.7818 12.3474Z" fill="#E8664A"/>
<path d="M12.2182 13.002L11.7818 12.3474H11.3818V13.6565H11.7818L12.2182 13.002Z" fill="#D95239"/>
<path d="M12.6909 11.3655L11.3818 12.3109L12.6182 13.3291L12.9818 12.1291L12.6909 11.3655Z" fill="#B5BABE"/>
<path d="M10.0364 11.3655L11.3818 12.3109L10.1091 13.3291L9.74545 12.1655L10.0364 11.3655Z" fill="#E6E6E8"/>
<path d="M12.1454 19.5838H11.3818V13.6565H11.7818L12.1454 19.5838Z" fill="#E8664A"/>
<path d="M11.3818 19.5838H10.5818L10.9455 13.6565H11.3818V19.5838Z" fill="#D95239"/>
<path d="M11.3454 19.5837H5.70908C5.70908 19.5837 5.74544 17.0019 5.70908 15.8382C5.67272 14.711 6.47272 13.9473 7.38181 13.2928C7.85453 12.9655 8.58181 12.6382 9.16362 12.3837C9.41817 12.2746 9.67271 12.2019 9.85453 12.1292C9.85453 12.9655 9.96362 15.9473 11.3454 19.5837C11.3454 19.5473 11.3454 19.5473 11.3454 19.5837Z" fill="#3B4C56"/>
<path d="M17.2 19.5837H11.3818C12.8 15.8746 12.9091 12.8564 12.9091 12.0928C13.0545 12.1655 13.3091 12.2382 13.6 12.3473C14.2182 12.6019 15.0182 12.9655 15.4909 13.2928C16.4 13.9473 17.2 14.711 17.1636 15.8382C17.1636 16.9655 17.2 19.5837 17.2 19.5837Z" fill="#465C6A"/>
<path d="M13.5273 14.9654L13.7818 15.8018C13.0182 18.2018 11.4909 19.5109 11.3818 19.5836C12.8 15.8745 12.9091 12.8563 12.9091 12.0927C12.9091 11.9836 12.9091 11.9109 12.9091 11.9109L13.6 12.3473L13.9636 14.3836L13.5273 14.9654Z" fill="#3B4C56"/>
<path d="M11.3455 19.5836C11.2 19.4382 9.85454 18.1291 9.12727 15.8018L9.38182 14.9654L8.90909 14.3836L9.16363 12.42L9.85454 11.9109V12.1654C9.85454 12.9654 9.96363 15.9473 11.3455 19.5836C11.3455 19.5473 11.3455 19.5473 11.3455 19.5836Z" fill="#465C6A"/>
<path d="M14.5091 4.31113C14.5091 4.31113 15.0909 3.5475 13.4182 2.67477C11.7091 1.8384 9.59998 2.45659 8.69089 3.32931C7.7818 4.20204 7.85453 6.56568 8.03635 7.1475C8.14544 7.58386 8.29089 8.02022 8.36362 8.2384C8.39998 8.31113 8.43635 8.3475 8.50907 8.3475C8.61816 8.3475 8.69089 8.27477 8.65453 8.16568C8.61817 7.72931 8.54544 6.49295 8.61817 5.9475C8.72726 5.29295 9.63635 4.49295 10.4363 4.56568C11.2363 4.6384 12.5091 4.78386 13.2363 4.45659C13.2363 4.45659 13.6727 5.07477 13.8909 5.91113C14.0727 6.56568 14 7.76568 13.9636 8.20204C13.9636 8.31113 14.0363 8.38386 14.1091 8.38386H14.2182C14.2909 8.38386 14.3273 8.3475 14.3636 8.27477C14.5818 7.69295 15.4909 4.96568 14.5091 4.31113Z" fill="#465C6A"/>
<path d="M14.5091 4.31111C14.5091 4.31111 15.0909 3.54748 13.4182 2.67475C12.7636 2.34748 12.0727 2.23839 11.4182 2.27475V4.60202C12.0727 4.63839 12.8 4.63839 13.2727 4.4202C13.2727 4.4202 13.7091 5.03839 13.9273 5.87475C14.1091 6.52929 14.0364 7.72929 14 8.16566C14 8.27475 14.0727 8.34748 14.1455 8.34748H14.2182C14.2909 8.34748 14.3273 8.31111 14.3636 8.23839C14.5818 7.69293 15.4909 4.96566 14.5091 4.31111Z" fill="#3B4C56"/>
</svg>
