<svg width="24" height="24" viewBox="0 0 24 24" fill="none" xmlns="http://www.w3.org/2000/svg">
<g clip-path="url(#clip0_953_8225)">
<path d="M17.7781 6.8216C17.6 6.08705 17.2909 5.40705 16.8727 4.81069L17.8436 3.55978L16.44 2.15614L15.1345 3.17069C14.5491 2.80705 13.8981 2.53432 13.1963 2.39251L12.9927 0.727051H11.0109L10.8 2.39251C10.1018 2.53432 9.45087 2.80705 8.86178 3.17069L7.55633 2.15614L6.15269 3.55978L7.1236 4.81069C6.70178 5.41069 6.39269 6.09069 6.21814 6.8216L4.72723 7.00705V8.98887L6.13087 9.16341C6.26178 9.97069 6.54905 10.7234 6.97087 11.3889L6.15632 12.4361L7.55996 13.8398L8.55633 13.0652C9.23269 13.5452 10.0109 13.8907 10.8545 14.0543L11.0072 15.2725H12.9891L13.1418 14.058C13.9854 13.8943 14.7636 13.5489 15.44 13.0689L16.4363 13.8434L17.84 12.4398L17.0254 11.3925C17.4472 10.7271 17.7345 9.97432 17.8654 9.16705L19.2727 8.99251V7.01069L17.7781 6.8216ZM12 11.3052C10.2945 11.3052 8.91633 9.92342 8.91633 8.2216C8.91633 6.51614 10.2981 5.13796 12 5.13796C13.7018 5.13796 15.0836 6.51978 15.0836 8.2216C15.0872 9.92342 13.7054 11.3052 12 11.3052Z" fill="#FFAB03"/>
<path d="M5.77452 18.502H3.29088C1.78179 18.502 0.556335 19.7274 0.556335 21.2365V23.2729H8.50906V21.2365C8.50906 19.7238 7.28724 18.502 5.77452 18.502Z" fill="#7CB5E8"/>
<path d="M7.30908 14.7709C7.30908 13.24 6.06545 12 4.53454 12C3.00363 12 1.75999 13.24 1.75999 14.7709C1.45454 14.8436 1.28363 15.3564 1.38181 15.9309C1.48363 16.52 1.82545 16.9564 2.14545 16.9018C2.19999 16.8909 2.2509 16.8655 2.29817 16.8291C2.80363 17.8582 3.61817 18.7309 4.53817 18.7309C5.45817 18.7309 6.27272 17.8582 6.77817 16.8291C6.82545 16.8655 6.87272 16.8909 6.9309 16.9018C7.2509 16.9564 7.59272 16.5236 7.69454 15.9309C7.78545 15.3564 7.61817 14.8473 7.30908 14.7709Z" fill="#E2E2E2"/>
<path d="M20.7091 18.502H18.2255C16.7164 18.502 15.4909 19.7274 15.4909 21.2365V23.2729H23.4436V21.2365C23.4436 19.7238 22.2182 18.502 20.7091 18.502Z" fill="#8ABA55"/>
<path d="M22.2436 14.7709C22.24 13.24 21 12 19.4654 12C17.9345 12 16.6909 13.24 16.6909 14.7709C16.3854 14.8436 16.2145 15.3564 16.3127 15.9309C16.4145 16.52 16.7564 16.9564 17.0764 16.9018C17.1309 16.8909 17.1818 16.8655 17.2291 16.8291C17.7345 17.8582 18.5491 18.7309 19.4691 18.7309C20.3891 18.7309 21.2036 17.8582 21.7091 16.8291C21.7564 16.8655 21.8036 16.8909 21.8618 16.9018C22.1818 16.9564 22.5236 16.5236 22.6254 15.9309C22.7164 15.3564 22.5491 14.8473 22.2436 14.7709Z" fill="#E2E2E2"/>
<path d="M13.3927 8H11.5273C10.5091 8 9.66908 8.92727 9.66908 10.0727V9.92364C8.4509 9.92364 7.47272 11.0182 7.47272 12.3745V12.5709C7.47272 13.5673 8.03272 14.4327 8.8509 14.8727C8.8509 14.8691 8.8509 14.8618 8.8509 14.8582V12.2109C8.9309 12.2218 9.00726 12.2255 9.08726 12.2255C9.79272 12.2255 10.4218 11.9309 10.8691 11.4618C11.0109 11.32 11.1309 11.1564 11.2291 10.9891C11.7636 11.9964 12.8254 12.6873 14.0509 12.6873C14.4436 12.6873 14.8145 12.6182 15.16 12.4836V14.8582V14.8727C15.9782 14.4327 16.5382 13.5673 16.5382 12.5709V11.5018C16.5309 9.56727 15.1273 8 13.3927 8Z" fill="#4E6575"/>
<path d="M15.1563 14.8579C15.1563 15.0433 15.1418 15.2179 15.1054 15.3924C14.8581 16.8833 13.5636 18.0179 11.9963 18.0179C10.2545 18.0179 8.84723 16.6106 8.84723 14.8579V12.2106C8.92723 12.2215 9.00359 12.2251 9.08359 12.2251C9.78905 12.2251 10.4181 11.9306 10.8654 11.4615C11.0072 11.3197 11.1272 11.156 11.2254 10.9888C11.76 11.996 12.8218 12.687 14.0472 12.687C14.44 12.687 14.8109 12.6179 15.1563 12.4833V14.8579Z" fill="#E2E2E2"/>
<path d="M11.9963 18.0182C11.4945 18.0182 11.0218 17.8982 10.6 17.6909V19.36C10.6 20.1346 11.2254 20.76 11.9963 20.76C12.7709 20.76 13.3963 20.1346 13.3963 19.36V17.6909C12.9782 17.8982 12.5018 18.0182 11.9963 18.0182Z" fill="#E2E2E2"/>
<path d="M14.9236 18.7744H13.3963V19.3562C13.3963 20.1308 12.7709 20.7562 11.9963 20.7562C11.2254 20.7562 10.6 20.1308 10.6 19.3562V18.7744H9.0727C7.70543 18.7744 6.59998 19.8835 6.59998 21.2471V23.2726H17.3963V21.2508C17.4 19.8835 16.2909 18.7744 14.9236 18.7744Z" fill="#EF4A51"/>
<path d="M12 16.6655C11.7127 16.6655 11.4254 16.5783 11.1454 16.4001C11.0181 16.3201 10.9781 16.1528 11.0618 16.0255C11.1418 15.8983 11.3127 15.8583 11.4363 15.9419C11.8181 16.1819 12.1781 16.1819 12.5636 15.9419C12.6909 15.8619 12.8581 15.8983 12.9381 16.0292C13.0181 16.1565 12.9818 16.3237 12.8509 16.4037C12.5745 16.5746 12.2872 16.6655 12 16.6655Z" fill="black"/>
<path d="M10.7672 14.4253C10.9379 14.4253 11.0763 14.2869 11.0763 14.1162C11.0763 13.9455 10.9379 13.8071 10.7672 13.8071C10.5965 13.8071 10.4581 13.9455 10.4581 14.1162C10.4581 14.2869 10.5965 14.4253 10.7672 14.4253Z" fill="black"/>
<path d="M13.2363 14.4253C13.407 14.4253 13.5454 14.2869 13.5454 14.1162C13.5454 13.9455 13.407 13.8071 13.2363 13.8071C13.0656 13.8071 12.9272 13.9455 12.9272 14.1162C12.9272 14.2869 13.0656 14.4253 13.2363 14.4253Z" fill="black"/>
</g>
<defs>
<clipPath id="clip0_953_8225">
<rect width="24" height="24" fill="white"/>
</clipPath>
</defs>
</svg>
