<svg width="25" height="24" viewBox="0 0 25 24" fill="none" xmlns="http://www.w3.org/2000/svg">
<g clip-path="url(#clip0_540_1336)">
<path fill-rule="evenodd" clip-rule="evenodd" d="M5.26245 10.6839L1.6681 11.6092C0.696839 11.8587 0.0426245 12.7059 0 13.7682V17.2107H1.70211V15.0915C1.69971 14.8577 1.88697 14.6662 2.12117 14.6638C2.35489 14.6614 2.54646 14.8486 2.54885 15.0828C2.54885 15.0857 2.54885 15.0891 2.54885 15.0919V17.2112H10.5757V15.0919C10.5757 14.8582 10.7653 14.6686 10.999 14.6686C11.2328 14.6686 11.4224 14.8582 11.4224 15.0919V17.2112H13.1245V13.7687C13.0819 12.7064 12.4272 11.8592 11.4564 11.6097L7.86159 10.6844L8.12117 14.7246C8.12692 14.8099 8.1068 14.8946 8.06274 14.9679L6.92577 16.8812C6.80603 17.0824 6.54598 17.148 6.34483 17.0282C6.28448 16.9923 6.23372 16.9416 6.1978 16.8812L5.06082 14.9679C5.01724 14.8946 4.99713 14.8099 5.00287 14.7246L5.26245 10.6844V10.6839Z" fill="#88CFBD"/>
<path fill-rule="evenodd" clip-rule="evenodd" d="M4.13753 6.02634C4.127 5.20833 4.37173 4.5249 4.84443 4.05077C5.27355 3.62069 5.88801 3.375 6.53408 3.375H6.59108C7.23715 3.375 7.85161 3.62069 8.27977 4.05077C8.75343 4.5249 8.99817 5.20833 8.98763 6.02634C8.97709 6.86446 8.7702 9.60967 6.56234 10.1418C4.35545 9.60967 4.14759 6.86446 4.13753 6.02634Z" fill="#88CFBD"/>
<path fill-rule="evenodd" clip-rule="evenodd" d="M7.26808 14.648L6.56214 15.8352L5.8562 14.648L6.12392 10.4823C6.26137 10.4617 6.39978 10.4511 6.53867 10.4492C6.54634 10.4492 6.55448 10.4507 6.56166 10.4507C6.56884 10.4507 6.57794 10.4497 6.58465 10.4492C6.72354 10.4507 6.86243 10.4617 6.99988 10.4818L7.2676 14.6475L7.26808 14.648Z" fill="#88CFBD"/>
<path fill-rule="evenodd" clip-rule="evenodd" d="M17.4994 3.29214C17.5018 3.30508 17.5037 3.31753 17.5061 3.33046H14.9798C14.7729 3.33046 14.6053 3.49808 14.6048 3.70498V11.625H12.8768C12.8615 11.625 12.8462 11.6269 12.8318 11.6279C12.9597 11.8673 13.0665 12.1173 13.1512 12.375H14.6048V20.295C14.6048 20.5019 14.7729 20.6695 14.9798 20.6695H17.7528C17.8816 21.0709 18.0535 21.4574 18.2657 21.8218C18.7729 22.6825 19.4965 23.3592 20.5444 23.9512C20.6589 24.0163 20.7992 24.0163 20.9137 23.9512C21.9611 23.3592 22.6852 22.6825 23.1924 21.8218C23.7786 20.8266 24.0856 19.5522 24.1306 17.9258C24.1364 17.7184 23.9731 17.5455 23.7657 17.5398C23.736 17.5388 23.7058 17.5417 23.6766 17.5479C22.669 17.7591 21.6321 17.3549 21.0329 16.5177C20.9108 16.3501 20.6761 16.3127 20.5085 16.4349C20.4769 16.4579 20.4486 16.4861 20.4257 16.5177C19.8265 17.3549 18.7896 17.7591 17.782 17.5479C17.5789 17.5043 17.3792 17.6331 17.3356 17.8362C17.3294 17.8654 17.3265 17.8956 17.3275 17.9258C17.3414 18.5958 17.4161 19.2634 17.5511 19.9195H15.3553V12.3745H17.7168C17.8495 12.8166 18.0339 13.2414 18.2662 13.6398C18.7734 14.5005 19.497 15.1767 20.5449 15.7692C20.6594 15.8333 20.7992 15.8333 20.9142 15.7692C21.9616 15.1767 22.6857 14.501 23.1929 13.6398C23.7791 12.6446 24.0861 11.3707 24.1311 9.74282C24.1369 9.53592 23.974 9.36351 23.7671 9.35728C23.737 9.35632 23.7063 9.3592 23.6771 9.36542C22.6694 9.57663 21.6326 9.17241 21.0334 8.33525C20.9113 8.16762 20.6766 8.13027 20.509 8.25239C20.4774 8.27538 20.4491 8.30364 20.4261 8.33525C19.827 9.17193 18.7901 9.57615 17.7825 9.36542C17.6699 9.34052 17.5521 9.36925 17.463 9.44301C17.3744 9.51676 17.3246 9.62739 17.3275 9.74234C17.3409 10.374 17.4079 11.0034 17.5277 11.6236H15.3553V4.07998H17.6838C17.6905 4.10345 17.6972 4.12691 17.7044 4.15086" fill="#B1B3B6"/>
<path fill-rule="evenodd" clip-rule="evenodd" d="M17.7044 4.15086C17.8389 4.60775 18.0276 5.04693 18.2661 5.45881C18.7733 6.31896 19.497 6.99521 20.5449 7.58716C20.6593 7.65229 20.7997 7.65229 20.9141 7.58716C21.9615 6.99521 22.6857 6.31896 23.1929 5.45833C23.7791 4.46312 24.0861 3.18869 24.1311 1.56178C24.1368 1.35488 23.974 1.18247 23.7671 1.17672C23.7369 1.17576 23.7068 1.17863 23.6771 1.18486C22.6694 1.39511 21.6325 0.991373 21.0334 0.154208C20.9113 -0.0134161 20.6766 -0.0507724 20.509 0.0713541C20.4773 0.0943426 20.4491 0.122599 20.4261 0.154208C19.827 0.990894 18.7901 1.39511 17.7824 1.18486C17.5803 1.1408 17.3801 1.26915 17.3361 1.47126C17.3298 1.50095 17.327 1.53112 17.3274 1.5613C17.3409 2.14176 17.3978 2.71982 17.4994 3.29166L17.7039 4.15038L17.7044 4.15086Z" fill="#F47B38"/>
<path fill-rule="evenodd" clip-rule="evenodd" d="M22.5194 3.11877C22.7224 3.15709 22.869 3.33429 22.869 3.54118V4.09674C22.8685 4.30316 22.722 4.47988 22.5194 4.51915L22.4835 4.52538L22.5041 4.55555C22.6204 4.72605 22.5994 4.95498 22.4528 5.10105L22.0606 5.49425C21.9145 5.64032 21.6851 5.6614 21.5151 5.54502L21.4844 5.52442L21.4782 5.55986C21.4399 5.76293 21.2622 5.91044 21.0553 5.91044H20.5007C20.2938 5.91044 20.1166 5.76293 20.0788 5.55986L20.0725 5.52442L20.0419 5.54502C19.8709 5.6614 19.6415 5.63984 19.4954 5.49329L19.1032 5.10153C18.9571 4.95546 18.9356 4.72605 19.0519 4.55555L19.0725 4.52538L19.0371 4.51915C18.834 4.48036 18.6875 4.30364 18.6865 4.09674V3.54118C18.6865 3.33477 18.8331 3.15756 19.0361 3.11877L19.0721 3.11207L19.0515 3.08237C18.9356 2.9114 18.9566 2.68247 19.1022 2.53592L19.495 2.14367C19.6415 1.9976 19.8704 1.97653 20.0414 2.09291L20.0721 2.11398L20.0783 2.07806C20.1166 1.875 20.2938 1.72797 20.5002 1.72797H21.0548C21.2617 1.72797 21.4394 1.87548 21.4777 2.07854L21.4839 2.11398L21.5146 2.09291C21.6851 1.97653 21.9145 1.99808 22.0601 2.14415L22.4523 2.5364C22.5989 2.68247 22.62 2.91235 22.5031 3.08285L22.483 3.11254L22.5189 3.11925L22.5194 3.11877Z" fill="#B2511B"/>
<path fill-rule="evenodd" clip-rule="evenodd" d="M21.6712 3.33285C21.7057 3.39511 21.733 3.4612 21.7526 3.52969C21.7929 3.66475 21.9049 3.76628 22.0433 3.79262L22.119 3.80699V3.82998L22.0424 3.84435C21.904 3.87021 21.7919 3.97126 21.7522 4.10632C21.7316 4.17433 21.7043 4.23994 21.6703 4.3022C21.6032 4.42624 21.6104 4.5771 21.6899 4.69396L21.7344 4.75814L21.7177 4.7749L21.6525 4.73036C21.5366 4.65038 21.3853 4.64272 21.2617 4.71025C21.1995 4.74425 21.1339 4.77155 21.0663 4.79118C20.9313 4.83141 20.8302 4.94348 20.8034 5.08189L20.7895 5.15948H20.766L20.7512 5.08189C20.7258 4.94348 20.6243 4.83141 20.4897 4.79118C20.4217 4.77107 20.3566 4.74425 20.2943 4.71025C20.1707 4.64272 20.0194 4.65038 19.9035 4.73036L19.8384 4.7749L19.8221 4.75814L19.8661 4.69396C19.9456 4.57758 19.9533 4.42624 19.8858 4.3022C19.8513 4.24042 19.824 4.17481 19.8044 4.10632C19.7641 3.97126 19.6521 3.87021 19.5137 3.84435L19.4375 3.82998V3.80699L19.5137 3.79262C19.6521 3.76676 19.7641 3.66523 19.8029 3.52969C19.823 3.4612 19.8508 3.39511 19.8848 3.33285C19.9523 3.20881 19.9447 3.05795 19.8647 2.94157L19.8221 2.87883L19.8384 2.86207L19.9011 2.90565C20.0175 2.98467 20.1683 2.99233 20.2924 2.92481C20.3551 2.89032 20.4217 2.86302 20.4907 2.84291C20.6257 2.80316 20.7273 2.69061 20.7531 2.5522L20.767 2.47797H20.7905L20.8044 2.5522C20.8307 2.69061 20.9318 2.80268 21.0668 2.84291C21.1353 2.86302 21.2019 2.89032 21.2646 2.92481C21.3882 2.99233 21.5395 2.98515 21.6559 2.90565L21.7186 2.86207L21.7354 2.87883L21.6923 2.94157C21.6123 3.05795 21.6046 3.20929 21.6722 3.33285H21.6712Z" fill="white"/>
<path fill-rule="evenodd" clip-rule="evenodd" d="M20.9226 3.81896C20.9226 3.73898 20.8584 3.67432 20.7784 3.67384C20.6984 3.67384 20.6338 3.73802 20.6333 3.818C20.6333 3.89798 20.6975 3.96264 20.7775 3.96312C20.857 3.96312 20.9216 3.89846 20.9221 3.81896H20.9226Z" fill="#88CFBD"/>
<path fill-rule="evenodd" clip-rule="evenodd" d="M22.5196 11.2998C22.7227 11.3381 22.8692 11.5153 22.8692 11.7222V12.2778C22.8688 12.4842 22.7222 12.6609 22.5196 12.7002L22.4837 12.7064L22.5043 12.7366C22.6207 12.9071 22.5996 13.136 22.4531 13.2821L22.0608 13.6753C21.9147 13.8214 21.6853 13.8424 21.5153 13.726L21.4847 13.7055L21.4784 13.7409C21.4401 13.944 21.2624 14.0915 21.0555 14.0915H20.5009C20.294 14.0915 20.1168 13.944 20.079 13.7409L20.0728 13.7055L20.0421 13.726C19.8712 13.8424 19.6417 13.8209 19.4957 13.6743L19.1034 13.2826C18.9574 13.1365 18.9358 12.9071 19.0522 12.7366L19.0728 12.7064L19.0373 12.7002C18.8343 12.6614 18.6877 12.4847 18.6868 12.2778V11.7222C18.6868 11.5158 18.8333 11.3386 19.0364 11.2998L19.0723 11.2931L19.0517 11.2634C18.9358 11.0924 18.9569 10.8635 19.1025 10.7169L19.4952 10.3247C19.6417 10.1786 19.8707 10.1576 20.0417 10.2739L20.0723 10.295L20.0785 10.2591C20.1168 10.056 20.294 9.909 20.5005 9.909H21.0551C21.262 9.909 21.4396 10.0565 21.478 10.2596L21.4842 10.295L21.5148 10.2739C21.6853 10.1576 21.9147 10.1791 22.0603 10.3252L22.4526 10.7174C22.5991 10.8635 22.6202 11.0934 22.5033 11.2639L22.4832 11.2936L22.5191 11.3003L22.5196 11.2998Z" fill="#88CFBD"/>
<path fill-rule="evenodd" clip-rule="evenodd" d="M21.6715 11.5139C21.7059 11.5761 21.7332 11.6422 21.7529 11.7107C21.7931 11.8458 21.9052 11.9473 22.0436 11.9737L22.1193 11.988V12.011L22.0426 12.0254C21.9042 12.0512 21.7922 12.1523 21.7524 12.2873C21.7318 12.3554 21.7045 12.421 21.6705 12.4832C21.6035 12.6073 21.6106 12.7581 21.6901 12.875L21.7347 12.9392L21.7179 12.9559L21.6528 12.9114C21.5369 12.8314 21.3855 12.8237 21.262 12.8913C21.1997 12.9253 21.1341 12.9526 21.0666 12.9722C20.9315 13.0124 20.8305 13.1245 20.8036 13.2629L20.7898 13.3405H20.7663L20.7514 13.2629C20.7261 13.1245 20.6245 13.0124 20.4899 12.9722C20.4219 12.9521 20.3568 12.9253 20.2945 12.8913C20.171 12.8237 20.0196 12.8314 19.9037 12.9114L19.8386 12.9559L19.8223 12.9392L19.8664 12.875C19.9459 12.7586 19.9535 12.6073 19.886 12.4832C19.8515 12.4214 19.8242 12.3558 19.8046 12.2873C19.7644 12.1523 19.6523 12.0512 19.5139 12.0254L19.4377 12.011V11.988L19.5139 11.9737C19.6523 11.9478 19.7644 11.8463 19.8032 11.7107C19.8233 11.6422 19.8511 11.5761 19.8851 11.5139C19.9526 11.3898 19.9449 11.239 19.8649 11.1226L19.8223 11.0599L19.8386 11.0431L19.9013 11.0867C20.0177 11.1657 20.1686 11.1734 20.2926 11.1058C20.3554 11.0714 20.4219 11.0441 20.4909 11.0239C20.626 10.9842 20.7275 10.8716 20.7534 10.7332L20.7672 10.659H20.7907L20.8046 10.7332C20.8309 10.8716 20.932 10.9837 21.0671 11.0239C21.1355 11.0441 21.2021 11.0714 21.2649 11.1058C21.3884 11.1734 21.5398 11.1662 21.6561 11.0867L21.7189 11.0431L21.7356 11.0599L21.6925 11.1226C21.6126 11.239 21.6049 11.3903 21.6724 11.5139H21.6715Z" fill="white"/>
<path fill-rule="evenodd" clip-rule="evenodd" d="M20.9228 12.0005C20.9228 11.9205 20.8586 11.8558 20.7787 11.8553C20.6987 11.8553 20.634 11.9195 20.6335 11.9995C20.6335 12.0795 20.6977 12.1441 20.7777 12.1446C20.8572 12.1446 20.9219 12.08 20.9223 12.0005H20.9228Z" fill="#88CFBD"/>
<path fill-rule="evenodd" clip-rule="evenodd" d="M22.6642 19.9056C22.8672 19.944 23.0138 20.1212 23.0138 20.3281V20.8836C23.0133 21.09 22.8667 21.2667 22.6642 21.306L22.6282 21.3122L22.6488 21.3424C22.7652 21.5129 22.7441 21.7418 22.5976 21.8879L22.2053 22.2811C22.0593 22.4272 21.8299 22.4483 21.6598 22.3319L21.6292 22.3113L21.623 22.3467C21.5847 22.5498 21.407 22.6973 21.2001 22.6973H20.6455C20.4386 22.6973 20.2614 22.5498 20.2235 22.3467L20.2173 22.3113L20.1867 22.3319C20.0157 22.4483 19.7863 22.4267 19.6402 22.2802L19.248 21.8884C19.1019 21.7423 19.0803 21.5129 19.1967 21.3424L19.2173 21.3122L19.1819 21.306C18.9788 21.2672 18.8323 21.0905 18.8313 20.8836V20.3281C18.8313 20.1216 18.9778 19.9444 19.1809 19.9056L19.2168 19.8989L19.1962 19.8692C19.0803 19.6983 19.1014 19.4693 19.247 19.3228L19.6397 18.9305C19.7863 18.7845 20.0152 18.7634 20.1862 18.8798L20.2168 18.9008L20.2231 18.8649C20.2614 18.6619 20.4386 18.5148 20.645 18.5148H21.1996C21.4065 18.5148 21.5842 18.6623 21.6225 18.8654L21.6287 18.9008L21.6594 18.8798C21.8299 18.7634 22.0593 18.7849 22.2049 18.931L22.5971 19.3233C22.7437 19.4693 22.7647 19.6992 22.6479 19.8697L22.6278 19.8994L22.6637 19.9061L22.6642 19.9056Z" fill="#88CFBD"/>
<path fill-rule="evenodd" clip-rule="evenodd" d="M21.816 20.1197C21.8505 20.182 21.8778 20.2481 21.8974 20.3166C21.9376 20.4516 22.0497 20.5531 22.1881 20.5795L22.2638 20.5939V20.6168L22.1872 20.6312C22.0487 20.6571 21.9367 20.7581 21.8969 20.8932C21.8763 20.9612 21.849 21.0268 21.815 21.0891C21.748 21.2131 21.7552 21.364 21.8347 21.4808L21.8792 21.545L21.8624 21.5618L21.7973 21.5172C21.6814 21.4372 21.5301 21.4296 21.4065 21.4971C21.3442 21.5311 21.2786 21.5584 21.2111 21.578C21.076 21.6183 20.975 21.7303 20.9482 21.8688L20.9343 21.9463H20.9108L20.896 21.8688C20.8706 21.7303 20.7691 21.6183 20.6345 21.578C20.5665 21.5579 20.5013 21.5311 20.4391 21.4971C20.3155 21.4296 20.1642 21.4372 20.0483 21.5172L19.9831 21.5618L19.9669 21.545L20.0109 21.4808C20.0904 21.3644 20.0981 21.2131 20.0306 21.0891C19.9961 21.0273 19.9688 20.9617 19.9491 20.8932C19.9089 20.7581 19.7968 20.6571 19.6584 20.6312L19.5823 20.6168V20.5939L19.6584 20.5795C19.7968 20.5536 19.9089 20.4521 19.9477 20.3166C19.9678 20.2481 19.9956 20.182 20.0296 20.1197C20.0971 19.9957 20.0895 19.8448 20.0095 19.7284L19.9669 19.6657L19.9831 19.6489L20.0459 19.6925C20.1623 19.7715 20.3131 19.7792 20.4372 19.7117C20.4999 19.6772 20.5665 19.6499 20.6354 19.6298C20.7705 19.59 20.872 19.4775 20.8979 19.3391L20.9118 19.2648H20.9352L20.9491 19.3391C20.9755 19.4775 21.0765 19.5895 21.2116 19.6298C21.2801 19.6499 21.3466 19.6772 21.4094 19.7117C21.5329 19.7792 21.6843 19.772 21.8007 19.6925L21.8634 19.6489L21.8802 19.6657L21.8371 19.7284C21.7571 19.8448 21.7494 19.9962 21.8169 20.1197H21.816Z" fill="white"/>
<path fill-rule="evenodd" clip-rule="evenodd" d="M21.0673 20.6058C21.0673 20.5259 21.0032 20.4612 20.9232 20.4607C20.8432 20.4607 20.7786 20.5249 20.7781 20.6049C20.7781 20.6849 20.8423 20.7495 20.9222 20.75C21.0017 20.75 21.0664 20.6853 21.0669 20.6058H21.0673Z" fill="#88CFBD"/>
<path fill-rule="evenodd" clip-rule="evenodd" d="M17.7044 12.2749C17.8389 12.7318 18.0276 13.171 18.2661 13.5829C18.7733 14.443 19.497 15.1193 20.5449 15.7112C20.6593 15.7763 20.7997 15.7763 20.9141 15.7112C21.9615 15.1193 22.6857 14.443 23.1929 13.5824C23.7791 12.5872 24.0861 11.3127 24.1311 9.68583C24.1368 9.47893 23.974 9.30652 23.7671 9.30077C23.7369 9.29981 23.7068 9.30269 23.6771 9.30891C22.6694 9.51916 21.6325 9.11543 21.0334 8.27826C20.9113 8.11064 20.6766 8.07328 20.509 8.19541C20.4773 8.2184 20.4491 8.24665 20.4261 8.27826C19.827 9.11495 18.7901 9.51916 17.7824 9.30891C17.5803 9.26485 17.3801 9.39321 17.3361 9.59531C17.3298 9.62501 17.327 9.65518 17.3274 9.68535C17.3409 10.2658 17.3978 10.8439 17.4994 11.4157L17.7039 12.2744L17.7044 12.2749Z" fill="#00857D"/>
<path fill-rule="evenodd" clip-rule="evenodd" d="M22.5194 11.2428C22.7224 11.2811 22.869 11.4583 22.869 11.6652V12.2208C22.8685 12.4272 22.722 12.6039 22.5194 12.6432L22.4835 12.6494L22.5041 12.6796C22.6204 12.8501 22.5994 13.079 22.4528 13.2251L22.0606 13.6183C21.9145 13.7644 21.6851 13.7854 21.5151 13.6691L21.4844 13.6485L21.4782 13.6839C21.4399 13.887 21.2622 14.0345 21.0553 14.0345H20.5007C20.2938 14.0345 20.1166 13.887 20.0788 13.6839L20.0725 13.6485L20.0419 13.6691C19.8709 13.7854 19.6415 13.7639 19.4954 13.6173L19.1032 13.2256C18.9571 13.0795 18.9356 12.8501 19.0519 12.6796L19.0725 12.6494L19.0371 12.6432C18.834 12.6044 18.6875 12.4277 18.6865 12.2208V11.6652C18.6865 11.4588 18.8331 11.2816 19.0361 11.2428L19.0721 11.2361L19.0515 11.2064C18.9356 11.0354 18.9566 10.8065 19.1022 10.66L19.495 10.2677C19.6415 10.1217 19.8704 10.1006 20.0414 10.217L20.0721 10.238L20.0783 10.2021C20.1166 9.99905 20.2938 9.85202 20.5002 9.85202H21.0548C21.2617 9.85202 21.4394 9.99953 21.4777 10.2026L21.4839 10.238L21.5146 10.217C21.6851 10.1006 21.9145 10.1221 22.0601 10.2682L22.4523 10.6604C22.5989 10.8065 22.62 11.0364 22.5031 11.2069L22.483 11.2366L22.5189 11.2433L22.5194 11.2428Z" fill="#88CFBD"/>
<path fill-rule="evenodd" clip-rule="evenodd" d="M21.6712 11.4569C21.7057 11.5192 21.733 11.5853 21.7526 11.6537C21.7929 11.7888 21.9049 11.8903 22.0433 11.9167L22.119 11.931V11.954L22.0424 11.9684C21.904 11.9943 21.7919 12.0953 21.7522 12.2304C21.7316 12.2984 21.7043 12.364 21.6703 12.4263C21.6032 12.5503 21.6104 12.7012 21.6899 12.818L21.7344 12.8822L21.7177 12.899L21.6525 12.8544C21.5366 12.7744 21.3853 12.7668 21.2617 12.8343C21.1995 12.8683 21.1339 12.8956 21.0663 12.9152C20.9313 12.9555 20.8302 13.0675 20.8034 13.2059L20.7895 13.2835H20.766L20.7512 13.2059C20.7258 13.0675 20.6243 12.9555 20.4897 12.9152C20.4217 12.8951 20.3566 12.8683 20.2943 12.8343C20.1707 12.7668 20.0194 12.7744 19.9035 12.8544L19.8384 12.899L19.8221 12.8822L19.8661 12.818C19.9456 12.7016 19.9533 12.5503 19.8858 12.4263C19.8513 12.3645 19.824 12.2989 19.8044 12.2304C19.7641 12.0953 19.6521 11.9943 19.5137 11.9684L19.4375 11.954V11.931L19.5137 11.9167C19.6521 11.8908 19.7641 11.7893 19.8029 11.6537C19.823 11.5853 19.8508 11.5192 19.8848 11.4569C19.9523 11.3329 19.9447 11.182 19.8647 11.0656L19.8221 11.0029L19.8384 10.9861L19.9011 11.0297C20.0175 11.1087 20.1683 11.1164 20.2924 11.0489C20.3551 11.0144 20.4217 10.9871 20.4907 10.967C20.6257 10.9272 20.7273 10.8147 20.7531 10.6763L20.767 10.602H20.7905L20.8044 10.6763C20.8307 10.8147 20.9318 10.9267 21.0668 10.967C21.1353 10.9871 21.2019 11.0144 21.2646 11.0489C21.3882 11.1164 21.5395 11.1092 21.6559 11.0297L21.7186 10.9861L21.7354 11.0029L21.6923 11.0656C21.6123 11.182 21.6046 11.3333 21.6722 11.4569H21.6712Z" fill="white"/>
<path fill-rule="evenodd" clip-rule="evenodd" d="M20.9226 11.9435C20.9226 11.8635 20.8584 11.7988 20.7784 11.7984C20.6984 11.7984 20.6338 11.8625 20.6333 11.9425C20.6333 12.0225 20.6975 12.0872 20.7775 12.0876C20.857 12.0876 20.9216 12.023 20.9221 11.9435H20.9226Z" fill="#88CFBD"/>
<path fill-rule="evenodd" clip-rule="evenodd" d="M17.7044 20.478C17.8389 20.9349 18.0276 21.374 18.2661 21.7859C18.7733 22.6461 19.497 23.3223 20.5449 23.9143C20.6593 23.9794 20.7997 23.9794 20.9141 23.9143C21.9615 23.3223 22.6857 22.6461 23.1929 21.7854C23.7791 20.7902 24.0861 19.5158 24.1311 17.8889C24.1368 17.682 23.974 17.5096 23.7671 17.5038C23.7369 17.5029 23.7068 17.5058 23.6771 17.512C22.6694 17.7222 21.6325 17.3185 21.0334 16.4813C20.9113 16.3137 20.6766 16.2763 20.509 16.3985C20.4773 16.4215 20.4491 16.4497 20.4261 16.4813C19.827 17.318 18.7901 17.7222 17.7824 17.512C17.5803 17.4679 17.3801 17.5963 17.3361 17.7984C17.3298 17.8281 17.327 17.8582 17.3274 17.8884C17.3409 18.4689 17.3978 19.0469 17.4994 19.6188L17.7039 20.4775L17.7044 20.478Z" fill="#FFC21B"/>
<path fill-rule="evenodd" clip-rule="evenodd" d="M22.5194 19.4459C22.7224 19.4842 22.869 19.6614 22.869 19.8683V20.4239C22.8685 20.6303 22.722 20.807 22.5194 20.8463L22.4835 20.8525L22.5041 20.8827C22.6204 21.0532 22.5994 21.2821 22.4528 21.4282L22.0606 21.8214C21.9145 21.9674 21.6851 21.9885 21.5151 21.8721L21.4844 21.8515L21.4782 21.887C21.4399 22.09 21.2622 22.2376 21.0553 22.2376H20.5007C20.2938 22.2376 20.1166 22.09 20.0788 21.887L20.0725 21.8515L20.0419 21.8721C19.8709 21.9885 19.6415 21.967 19.4954 21.8204L19.1032 21.4286C18.9571 21.2826 18.9356 21.0532 19.0519 20.8827L19.0725 20.8525L19.0371 20.8463C18.834 20.8075 18.6875 20.6308 18.6865 20.4239V19.8683C18.6865 19.6619 18.8331 19.4847 19.0361 19.4459L19.0721 19.4392L19.0515 19.4095C18.9356 19.2385 18.9566 19.0096 19.1022 18.863L19.495 18.4708C19.6415 18.3247 19.8704 18.3036 20.0414 18.42L20.0721 18.4411L20.0783 18.4052C20.1166 18.2021 20.2938 18.0551 20.5002 18.0551H21.0548C21.2617 18.0551 21.4394 18.2026 21.4777 18.4057L21.4839 18.4411L21.5146 18.42C21.6851 18.3036 21.9145 18.3252 22.0601 18.4713L22.4523 18.8635C22.5989 19.0096 22.62 19.2395 22.5031 19.41L22.483 19.4397L22.5189 19.4464L22.5194 19.4459Z" fill="#D89E0F"/>
<path fill-rule="evenodd" clip-rule="evenodd" d="M21.6712 19.66C21.7057 19.7222 21.733 19.7883 21.7526 19.8568C21.7929 19.9919 21.9049 20.0934 22.0433 20.1197L22.119 20.1341V20.1571L22.0424 20.1715C21.904 20.1973 21.7919 20.2984 21.7522 20.4334C21.7316 20.5014 21.7043 20.5671 21.6703 20.6293C21.6032 20.7534 21.6104 20.9042 21.6899 21.0211L21.7344 21.0853L21.7177 21.102L21.6525 21.0575C21.5366 20.9775 21.3853 20.9698 21.2617 21.0374C21.1995 21.0714 21.1339 21.0987 21.0663 21.1183C20.9313 21.1585 20.8302 21.2706 20.8034 21.409L20.7895 21.4866H20.766L20.7512 21.409C20.7258 21.2706 20.6243 21.1585 20.4897 21.1183C20.4217 21.0982 20.3566 21.0714 20.2943 21.0374C20.1707 20.9698 20.0194 20.9775 19.9035 21.0575L19.8384 21.102L19.8221 21.0853L19.8661 21.0211C19.9456 20.9047 19.9533 20.7534 19.8858 20.6293C19.8513 20.5675 19.824 20.5019 19.8044 20.4334C19.7641 20.2984 19.6521 20.1973 19.5137 20.1715L19.4375 20.1571V20.1341L19.5137 20.1197C19.6521 20.0939 19.7641 19.9923 19.8029 19.8568C19.823 19.7883 19.8508 19.7222 19.8848 19.66C19.9523 19.5359 19.9447 19.3851 19.8647 19.2687L19.8221 19.2059L19.8384 19.1892L19.9011 19.2328C20.0175 19.3118 20.1683 19.3195 20.2924 19.2519C20.3551 19.2174 20.4217 19.1901 20.4907 19.17C20.6257 19.1303 20.7273 19.0177 20.7531 18.8793L20.767 18.8051H20.7905L20.8044 18.8793C20.8307 19.0177 20.9318 19.1298 21.0668 19.17C21.1353 19.1901 21.2019 19.2174 21.2646 19.2519C21.3882 19.3195 21.5395 19.3123 21.6559 19.2328L21.7186 19.1892L21.7354 19.2059L21.6923 19.2687C21.6123 19.3851 21.6046 19.5364 21.6722 19.66H21.6712Z" fill="white"/>
<path fill-rule="evenodd" clip-rule="evenodd" d="M20.9226 20.1465C20.9226 20.0666 20.8584 20.0019 20.7784 20.0014C20.6984 20.0014 20.6338 20.0656 20.6333 20.1456C20.6333 20.2256 20.6975 20.2902 20.7775 20.2907C20.857 20.2907 20.9216 20.2261 20.9221 20.1465H20.9226Z" fill="#88CFBD"/>
</g>
<defs>
<clipPath id="clip0_540_1336">
<rect width="24.1317" height="24" fill="white"/>
</clipPath>
</defs>
</svg>
