<svg width="20" height="20" viewBox="0 0 20 20" fill="none" xmlns="http://www.w3.org/2000/svg">
<g clip-path="url(#clip0_3906_16238)">
<path d="M17.8125 6.5625H17.4005C17.2672 6.5625 17.15 6.48102 17.1091 6.35925C17.0007 6.03729 16.8689 5.7196 16.7172 5.41473C16.6599 5.29968 16.6846 5.159 16.7792 5.06439L17.0709 4.77264C17.4365 4.40704 17.4365 3.81226 17.0709 3.44666L15.3033 1.67908C14.9377 1.31348 14.343 1.31348 13.9774 1.67908L13.6856 1.97083C13.591 2.06543 13.4509 2.09076 13.335 2.03278C13.0304 1.8811 12.7127 1.74927 12.3904 1.64062C12.269 1.60004 12.1875 1.48285 12.1875 1.34949V0.9375C12.1875 0.420532 11.767 0 11.25 0H8.75C8.23303 0 7.8125 0.420532 7.8125 0.9375V1.34949C7.8125 1.48285 7.73102 1.60004 7.60956 1.64093C7.28729 1.74927 6.96945 1.8811 6.66489 2.03278C6.54984 2.09076 6.40869 2.06543 6.31439 1.97083L6.02249 1.67908C5.65689 1.31348 5.06226 1.31317 4.69666 1.67908L2.92877 3.44666C2.56348 3.81226 2.56348 4.40704 2.92892 4.77264L3.22083 5.06439C3.31528 5.159 3.34015 5.29968 3.28293 5.41504C3.1311 5.71991 2.99911 6.0376 2.89093 6.35925C2.85004 6.48071 2.73285 6.5625 2.59949 6.5625H2.1875C1.67053 6.5625 1.25 6.98303 1.25 7.5V10C1.25 10.517 1.67053 10.9375 2.1875 10.9375H2.59949C2.73285 10.9375 2.85004 11.0193 2.89093 11.1407C2.99911 11.4624 3.1311 11.7801 3.28278 12.085C3.34015 12.2003 3.31528 12.341 3.22083 12.4356L2.92877 12.7274C2.56348 13.093 2.56348 13.6877 2.92892 14.0533L4.69666 15.8209C5.0621 16.1862 5.65674 16.1868 6.02249 15.8209L6.31439 15.5292C6.40884 15.4346 6.54953 15.4092 6.66489 15.4672C6.96945 15.6189 7.28729 15.7507 7.60956 15.8594C7.73102 15.9 7.8125 16.0172 7.8125 16.1505V16.5625C7.8125 17.0795 8.23303 17.5 8.75 17.5H11.25C11.767 17.5 12.1875 17.0795 12.1875 16.5625V16.1505C12.1875 16.0172 12.269 15.9 12.3907 15.8591C12.7127 15.7507 13.0304 15.6189 13.3353 15.4672C13.4503 15.4095 13.591 15.4346 13.6856 15.5292L13.9774 15.8209C14.343 16.1868 14.9377 16.1862 15.3033 15.8209L17.0709 14.0533C17.4365 13.6877 17.4365 13.093 17.0709 12.7274L16.7792 12.4356C16.6846 12.341 16.6599 12.2003 16.7172 12.085C16.8689 11.7804 17.0007 11.4627 17.1094 11.1404C17.15 11.019 17.2672 10.9375 17.4005 10.9375H17.8125C18.3295 10.9375 18.75 10.517 18.75 10V7.5C18.75 6.98303 18.3295 6.5625 17.8125 6.5625Z" fill="#FFCD5F"/>
<path d="M10 13.4375C12.4162 13.4375 14.375 11.4787 14.375 9.0625C14.375 6.64625 12.4162 4.6875 10 4.6875C7.58375 4.6875 5.625 6.64625 5.625 9.0625C5.625 11.4787 7.58375 13.4375 10 13.4375Z" fill="#F9A93E"/>
<path d="M7.46399 13.7894L5.77667 12.8519C5.73029 12.8259 5.6781 12.8125 5.625 12.8125H3.125C3.0719 12.8125 3.01971 12.8259 2.97318 12.8519L1.28586 13.7894C0.492706 14.23 0 15.0674 0 15.9747V17.5C0 17.6727 0.139923 17.8125 0.3125 17.8125H8.4375C8.61023 17.8125 8.75 17.6727 8.75 17.5V15.9747C8.75 15.0671 8.25714 14.2297 7.46399 13.7894Z" fill="#45A9F4"/>
<path d="M5.86878 16.1312L4.52501 17.8125H4.22815L2.88126 16.1312C2.81565 16.05 2.79377 15.9406 2.82814 15.8375L3.76564 13.025C3.80939 12.9 3.92815 12.8125 4.06252 12.8125H4.68752C4.82189 12.8125 4.94064 12.9 4.9844 13.025L5.9219 15.8375C5.95627 15.9406 5.93439 16.05 5.86878 16.1312Z" fill="#556E84"/>
<path d="M4.375 14.0625C5.9283 14.0625 7.1875 12.8033 7.1875 11.25C7.1875 9.6967 5.9283 8.4375 4.375 8.4375C2.8217 8.4375 1.5625 9.6967 1.5625 11.25C1.5625 12.8033 2.8217 14.0625 4.375 14.0625Z" fill="#FFE2DC"/>
<path d="M18.714 13.7894L17.0267 12.8519C16.9803 12.8259 16.9281 12.8125 16.875 12.8125H14.375C14.3219 12.8125 14.2697 12.8259 14.2232 12.8519L12.5359 13.7894C11.7427 14.23 11.25 15.0674 11.25 15.9747V17.5C11.25 17.6727 11.3899 17.8125 11.5625 17.8125H19.6875C19.8602 17.8125 20 17.6727 20 17.5V15.9747C20 15.0671 19.5071 14.2297 18.714 13.7894Z" fill="#45A9F4"/>
<path d="M17.1188 16.1312L15.775 17.8125H15.4782L14.1313 16.1312C14.0656 16.05 14.0438 15.9406 14.0781 15.8375L15.0156 13.025C15.0594 12.9 15.1781 12.8125 15.3125 12.8125H15.9375C16.0719 12.8125 16.1906 12.9 16.2344 13.025L17.1719 15.8375C17.2063 15.9406 17.1844 16.05 17.1188 16.1312Z" fill="#556E84"/>
<path d="M15.625 14.0625C17.1783 14.0625 18.4375 12.8033 18.4375 11.25C18.4375 9.6967 17.1783 8.4375 15.625 8.4375C14.0717 8.4375 12.8125 9.6967 12.8125 11.25C12.8125 12.8033 14.0717 14.0625 15.625 14.0625Z" fill="#FFE2DC"/>
<path d="M13.089 15.9769L11.4017 15.0394C11.3553 15.0134 11.3031 15 11.25 15H8.75C8.6969 15 8.64471 15.0134 8.59818 15.0394L6.91086 15.9769C6.11771 16.4175 5.625 17.2549 5.625 18.1622V19.6875C5.625 19.8602 5.76492 20 5.9375 20H14.0625C14.2352 20 14.375 19.8602 14.375 19.6875V18.1622C14.375 17.2546 13.8821 16.4172 13.089 15.9769Z" fill="#64C4FF"/>
<path d="M11.4938 18.3187L10.15 20H9.85315L8.50626 18.3187C8.44065 18.2375 8.41877 18.1281 8.45314 18.025L9.39064 15.2125C9.43439 15.0875 9.55315 15 9.68752 15H10.3125C10.4469 15 10.5656 15.0875 10.6094 15.2125L11.5469 18.025C11.5813 18.1281 11.5594 18.2375 11.4938 18.3187Z" fill="#6D8AA0"/>
<path d="M10 16.25C11.5533 16.25 12.8125 14.9908 12.8125 13.4375C12.8125 11.8842 11.5533 10.625 10 10.625C8.4467 10.625 7.1875 11.8842 7.1875 13.4375C7.1875 14.9908 8.4467 16.25 10 16.25Z" fill="#FFE2DC"/>
</g>
<defs>
<clipPath id="clip0_3906_16238">
<rect width="20" height="20" fill="white"/>
</clipPath>
</defs>
</svg>
