<svg width="58" height="62" viewBox="0 0 58 62" fill="none" xmlns="http://www.w3.org/2000/svg">
<path d="M19 0H39V4H19V0Z" fill="#F57182"/>
<path d="M21 2H39V4H21V2Z" fill="#F05A7A"/>
<path d="M16 7H42V26H16V7Z" fill="#8CD4FE"/>
<path d="M17.5 7H42V26H17.5V7Z" fill="#7DC3FA"/>
<path d="M16 12.247C16.6068 12.4832 17.265 12.5557 17.9086 12.4573C18.5522 12.3588 19.1586 12.0928 19.667 11.686C20.3304 12.2131 21.1527 12.5001 22 12.5001C22.8473 12.5001 23.6696 12.2131 24.333 11.686C24.9966 12.213 25.8191 12.4999 26.6665 12.4999C27.5139 12.4999 28.3364 12.213 29 11.686C29.6636 12.213 30.4861 12.4999 31.3335 12.4999C32.1809 12.4999 33.0034 12.213 33.667 11.686C34.3304 12.2131 35.1527 12.5001 36 12.5001C36.8473 12.5001 37.6696 12.2131 38.333 11.686C38.8414 12.0928 39.4478 12.3588 40.0914 12.4573C40.735 12.5557 41.3932 12.4832 42 12.247V7H16V12.247Z" fill="#7DC3FA"/>
<path d="M17.5 12.485C18.2878 12.4492 19.045 12.1697 19.667 11.685C20.3304 12.2121 21.1527 12.4991 22 12.4991C22.8473 12.4991 23.6696 12.2121 24.333 11.685C24.9966 12.212 25.8191 12.4989 26.6665 12.4989C27.5139 12.4989 28.3364 12.212 29 11.685C29.6636 12.212 30.4861 12.4989 31.3335 12.4989C32.1809 12.4989 33.0034 12.212 33.667 11.685C34.3304 12.2121 35.1527 12.4991 36 12.4991C36.8473 12.4991 37.6696 12.2121 38.333 11.685C38.8413 12.092 39.4477 12.3582 40.0913 12.4568C40.7349 12.5554 41.3932 12.4831 42 12.247V7H17.5V12.485Z" fill="#72B4F7"/>
<path d="M28.25 26H29.75V45.75H28.25V26Z" fill="#7F7F83"/>
<path d="M29 45.8032L7.03198 37.4342L7.56598 36.0322L29 44.1972L50.434 36.0322L50.968 37.4342L29 45.8032Z" fill="#7F7F83"/>
<path d="M14 4H44V7H14V4Z" fill="#8CD4FE"/>
<path d="M16 5.5H44V7H16V5.5Z" fill="#7DC3FA"/>
<path d="M19 14H25V26H19V14Z" fill="#F6FAFF"/>
<path d="M25 13.25H19C18.8011 13.25 18.6103 13.329 18.4697 13.4697C18.329 13.6103 18.25 13.8011 18.25 14V26H19.75V14.75H24.25V26H25.75V14C25.75 13.8011 25.671 13.6103 25.5303 13.4697C25.3897 13.329 25.1989 13.25 25 13.25Z" fill="#F05A7A"/>
<path d="M28 14H39V22H28V14Z" fill="#F6FAFF"/>
<path d="M39 22.75H28C27.8011 22.75 27.6103 22.671 27.4697 22.5303C27.329 22.3897 27.25 22.1989 27.25 22V14C27.25 13.8011 27.329 13.6103 27.4697 13.4697C27.6103 13.329 27.8011 13.25 28 13.25H39C39.1989 13.25 39.3897 13.329 39.5303 13.4697C39.671 13.6103 39.75 13.8011 39.75 14V22C39.75 22.1989 39.671 22.3897 39.5303 22.5303C39.3897 22.671 39.1989 22.75 39 22.75ZM28.75 21.25H38.25V14.75H28.75V21.25Z" fill="#F05A7A"/>
<path d="M44 26.75H14C13.8011 26.75 13.6103 26.671 13.4697 26.5303C13.329 26.3897 13.25 26.1989 13.25 26C13.25 25.8011 13.329 25.6103 13.4697 25.4697C13.6103 25.329 13.8011 25.25 14 25.25H44C44.1989 25.25 44.3897 25.329 44.5303 25.4697C44.671 25.6103 44.75 25.8011 44.75 26C44.75 26.1989 44.671 26.3897 44.5303 26.5303C44.3897 26.671 44.1989 26.75 44 26.75Z" fill="#89898C"/>
<path d="M15 7H19.667V8.667C19.667 8.97346 19.6066 9.27691 19.4893 9.56003C19.372 9.84315 19.2001 10.1004 18.9833 10.317C18.7666 10.5337 18.5093 10.7055 18.2261 10.8227C17.9429 10.9399 17.6395 11.0001 17.333 11C16.7143 11 16.1208 10.7542 15.6833 10.3167C15.2458 9.87916 15 9.28575 15 8.667V7Z" fill="#F6FAFF"/>
<path d="M19.667 7H24.334V8.667C24.334 8.97346 24.2736 9.27691 24.1563 9.56003C24.039 9.84315 23.8671 10.1004 23.6503 10.317C23.4336 10.5337 23.1763 10.7055 22.8931 10.8227C22.6099 10.9399 22.3065 11.0001 22 11C21.3812 11 20.7878 10.7542 20.3503 10.3167C19.9128 9.87916 19.667 9.28575 19.667 8.667V7Z" fill="#F05A7A"/>
<path d="M24.333 7H29V8.667C29 9.28575 28.7542 9.87916 28.3167 10.3167C27.8792 10.7542 27.2858 11 26.667 11C26.0483 11 25.4549 10.7542 25.0173 10.3167C24.5798 9.87916 24.334 9.28575 24.334 8.667L24.333 7Z" fill="#F6FAFF"/>
<path d="M29 7H33.667V8.667C33.667 8.97346 33.6066 9.27691 33.4893 9.56003C33.372 9.84315 33.2001 10.1004 32.9833 10.317C32.7666 10.5337 32.5093 10.7055 32.2261 10.8227C31.9429 10.9399 31.6395 11.0001 31.333 11C30.7143 11 30.1208 10.7542 29.6833 10.3167C29.2458 9.87916 29 9.28575 29 8.667V7Z" fill="#F05A7A"/>
<path d="M33.667 7H38.334V8.667C38.334 8.97346 38.2736 9.27691 38.1563 9.56003C38.039 9.84315 37.8671 10.1004 37.6503 10.317C37.4336 10.5337 37.1763 10.7055 36.8931 10.8227C36.6099 10.9399 36.3065 11.0001 36 11C35.3812 11 34.7878 10.7542 34.3503 10.3167C33.9128 9.87916 33.667 9.28575 33.667 8.667V7Z" fill="#F6FAFF"/>
<path d="M38.333 7H43V8.667C43 9.28575 42.7542 9.87916 42.3167 10.3167C41.8792 10.7542 41.2858 11 40.667 11C40.0483 11 39.4548 10.7542 39.0173 10.3167C38.5798 9.87916 38.334 9.28575 38.334 8.667L38.333 7Z" fill="#F05A7A"/>
<path d="M8 54C11.3137 54 14 52.6569 14 51C14 49.3431 11.3137 48 8 48C4.68629 48 2 49.3431 2 51C2 52.6569 4.68629 54 8 54Z" fill="#D2F182"/>
<path d="M4 52.0002C4.02056 52.3095 4.11041 52.6102 4.26291 52.8801C4.41541 53.1499 4.62665 53.382 4.881 53.5592C5.89344 53.8582 6.94434 54.0068 8 54.0002C11.314 54.0002 14 52.6572 14 51.0002C13.9794 50.6909 13.8896 50.3902 13.7371 50.1204C13.5846 49.8505 13.3733 49.6184 13.119 49.4412C12.1066 49.1422 11.0557 48.9936 10 49.0002C6.686 49.0002 4 50.3432 4 52.0002Z" fill="#BEE86D"/>
<path d="M8 29C5.87827 29 3.84344 29.8429 2.34315 31.3431C0.842855 32.8434 0 34.8783 0 37C0 43 8 51 8 51C8 51 16 43 16 37C16 34.8783 15.1571 32.8434 13.6569 31.3431C12.1566 29.8429 10.1217 29 8 29Z" fill="#F57182"/>
<path d="M2 37C2 41.683 6.861 47.568 9 49.933C11.139 47.568 16 41.683 16 37C16.0003 35.7056 15.6861 34.4305 15.0844 33.2845C14.4828 32.1385 13.6116 31.1558 12.546 30.421C11.7258 30.1434 10.8659 30.0012 10 30C5.582 30 2 32.582 2 37Z" fill="#F05A7A"/>
<path d="M8 40C9.65685 40 11 38.6569 11 37C11 35.3431 9.65685 34 8 34C6.34315 34 5 35.3431 5 37C5 38.6569 6.34315 40 8 40Z" fill="#F6FAFF"/>
<path d="M29 62C32.3137 62 35 60.6569 35 59C35 57.3431 32.3137 56 29 56C25.6863 56 23 57.3431 23 59C23 60.6569 25.6863 62 29 62Z" fill="#D2F182"/>
<path d="M25 60.0002C25.0206 60.3095 25.1104 60.6102 25.2629 60.8801C25.4154 61.1499 25.6267 61.382 25.881 61.5592C26.8934 61.8582 27.9443 62.0068 29 62.0002C32.314 62.0002 35 60.6572 35 59.0002C34.9794 58.6909 34.8896 58.3902 34.7371 58.1204C34.5846 57.8505 34.3733 57.6184 34.119 57.4412C33.1066 57.1422 32.0557 56.9936 31 57.0002C27.686 57.0002 25 58.3432 25 60.0002Z" fill="#BEE86D"/>
<path d="M29 37C26.8783 37 24.8434 37.8429 23.3431 39.3431C21.8429 40.8434 21 42.8783 21 45C21 51 29 59 29 59C29 59 37 51 37 45C37 42.8783 36.1571 40.8434 34.6569 39.3431C33.1566 37.8429 31.1217 37 29 37Z" fill="#F57182"/>
<path d="M23 45C23 49.683 27.861 55.568 30 57.933C32.139 55.568 37 49.683 37 45C37.0003 43.7056 36.6861 42.4305 36.0844 41.2845C35.4828 40.1385 34.6116 39.1558 33.546 38.421C32.7258 38.1434 31.8659 38.0012 31 38C26.582 38 23 40.582 23 45Z" fill="#F05A7A"/>
<path d="M29 48C30.6569 48 32 46.6569 32 45C32 43.3431 30.6569 42 29 42C27.3431 42 26 43.3431 26 45C26 46.6569 27.3431 48 29 48Z" fill="#F6FAFF"/>
<path d="M50 54C53.3137 54 56 52.6569 56 51C56 49.3431 53.3137 48 50 48C46.6863 48 44 49.3431 44 51C44 52.6569 46.6863 54 50 54Z" fill="#D2F182"/>
<path d="M46 52.0002C46.0206 52.3095 46.1104 52.6102 46.2629 52.8801C46.4154 53.1499 46.6267 53.382 46.881 53.5592C47.8934 53.8582 48.9443 54.0068 50 54.0002C53.314 54.0002 56 52.6572 56 51.0002C55.9794 50.6909 55.8896 50.3902 55.7371 50.1204C55.5846 49.8505 55.3733 49.6184 55.119 49.4412C54.1066 49.1422 53.0557 48.9936 52 49.0002C48.686 49.0002 46 50.3432 46 52.0002Z" fill="#BEE86D"/>
<path d="M50 29C47.8783 29 45.8434 29.8429 44.3431 31.3431C42.8429 32.8434 42 34.8783 42 37C42 43 50 51 50 51C50 51 58 43 58 37C58 34.8783 57.1571 32.8434 55.6569 31.3431C54.1566 29.8429 52.1217 29 50 29Z" fill="#F57182"/>
<path d="M44 37C44 41.683 48.861 47.568 51 49.933C53.139 47.568 58 41.683 58 37C58.0003 35.7056 57.6861 34.4305 57.0844 33.2845C56.4828 32.1385 55.6116 31.1558 54.546 30.421C53.7258 30.1434 52.8659 30.0012 52 30C47.582 30 44 32.582 44 37Z" fill="#F05A7A"/>
<path d="M50 40C51.6569 40 53 38.6569 53 37C53 35.3431 51.6569 34 50 34C48.3431 34 47 35.3431 47 37C47 38.6569 48.3431 40 50 40Z" fill="#F6FAFF"/>
</svg>
