<svg width="64" height="64" viewBox="0 0 64 64" fill="none" xmlns="http://www.w3.org/2000/svg">
<g clip-path="url(#clip0_4717_34310)">
<path d="M31.9989 63.9978C49.6714 63.9978 63.9978 49.6714 63.9978 31.9989C63.9978 14.3264 49.6714 0 31.9989 0C14.3264 0 0 14.3264 0 31.9989C0 49.6714 14.3264 63.9978 31.9989 63.9978Z" fill="#FFC000"/>
<path d="M5.15118 21.226C5.4102 18.8655 6.27284 16.6064 7.45531 14.5365C8.6513 12.4711 10.2077 10.5972 12.0208 9.02057C13.8317 7.44169 15.9016 6.15786 18.1133 5.25918C20.3274 4.37176 22.6856 3.83346 25.0595 3.91229C23.0032 5.088 21.0616 6.17588 19.2283 7.40115C17.3926 8.6129 15.6673 9.91926 14.0344 11.336C12.4014 12.7549 10.8676 14.2843 9.41259 15.9352C7.94407 17.5817 6.59718 19.352 5.14893 21.226H5.15118Z" fill="#FFE8BB"/>
<path d="M63.9999 32.0011C63.9999 49.6729 49.6751 64.0022 31.9988 64.0022C22.3408 64.0022 13.6828 59.7228 7.81323 52.9545C13.4283 57.8443 20.7709 60.7994 28.8005 60.7994C46.4723 60.7994 60.8016 46.4746 60.8016 28.7983C60.8016 20.7912 57.8623 13.4711 52.9973 7.85608C59.7385 13.7212 63.9976 22.3611 63.9976 31.9988L63.9999 32.0011Z" fill="#F9B700"/>
<path d="M16.602 35.8503C13.9488 35.3053 11.6807 37.7671 12.4374 40.3685C14.9037 48.844 22.7283 55.0379 32.0012 55.0379C41.274 55.0379 49.0986 48.844 51.5649 40.3685C52.3217 37.7671 50.0536 35.3053 47.4004 35.8503C37.1343 37.9608 26.8681 37.9608 16.602 35.8503Z" fill="#664100"/>
<path d="M48.1346 39.3459C46.103 43.6344 39.6388 46.7764 32.0011 46.7764C24.3635 46.7764 17.8993 43.6344 15.8677 39.3459C21.2417 40.4496 26.6496 41.0059 32.0011 41.0059C37.3527 41.0059 42.7605 40.4473 48.1346 39.3459Z" fill="white"/>
<path d="M42.7311 30.028C45.0622 30.028 46.952 27.3739 46.952 24.0999C46.952 20.8259 45.0622 18.1718 42.7311 18.1718C40.4 18.1718 38.5103 20.8259 38.5103 24.0999C38.5103 27.3739 40.4 30.028 42.7311 30.028Z" fill="#664100"/>
<path d="M21.2687 30.028C23.5998 30.028 25.4896 27.3739 25.4896 24.0999C25.4896 20.8259 23.5998 18.1718 21.2687 18.1718C18.9376 18.1718 17.0479 20.8259 17.0479 24.0999C17.0479 27.3739 18.9376 30.028 21.2687 30.028Z" fill="#664100"/>
</g>
<defs>
<clipPath id="clip0_4717_34310">
<rect width="64" height="64" fill="white"/>
</clipPath>
</defs>
</svg>
