<svg width="20" height="20" viewBox="0 0 20 20" fill="none" xmlns="http://www.w3.org/2000/svg">
<mask id="mask0_411_114071" style="mask-type:alpha" maskUnits="userSpaceOnUse" x="0" y="0" width="20" height="20">
<rect width="20" height="20" fill="#D9D9D9"/>
</mask>
<g mask="url(#mask0_411_114071)">
<path d="M10.0002 13.333C11.0418 13.333 11.9272 12.9684 12.6564 12.2393C13.3856 11.5101 13.7502 10.6247 13.7502 9.58301C13.7502 8.54134 13.3856 7.65592 12.6564 6.92676C11.9272 6.19759 11.0418 5.83301 10.0002 5.83301C8.9585 5.83301 8.07308 6.19759 7.34391 6.92676C6.61475 7.65592 6.25016 8.54134 6.25016 9.58301C6.25016 10.6247 6.61475 11.5101 7.34391 12.2393C8.07308 12.9684 8.9585 13.333 10.0002 13.333ZM10.0002 11.833C9.37516 11.833 8.84391 11.6143 8.40641 11.1768C7.96891 10.7393 7.75016 10.208 7.75016 9.58301C7.75016 8.95801 7.96891 8.42676 8.40641 7.98926C8.84391 7.55176 9.37516 7.33301 10.0002 7.33301C10.6252 7.33301 11.1564 7.55176 11.5939 7.98926C12.0314 8.42676 12.2502 8.95801 12.2502 9.58301C12.2502 10.208 12.0314 10.7393 11.5939 11.1768C11.1564 11.6143 10.6252 11.833 10.0002 11.833ZM10.0002 15.833C7.97239 15.833 6.12516 15.267 4.4585 14.1351C2.79183 13.0031 1.5835 11.4858 0.833496 9.58301C1.5835 7.68023 2.79183 6.16287 4.4585 5.03092C6.12516 3.89898 7.97239 3.33301 10.0002 3.33301C12.0279 3.33301 13.8752 3.89898 15.5418 5.03092C17.2085 6.16287 18.4168 7.68023 19.1668 9.58301C18.4168 11.4858 17.2085 13.0031 15.5418 14.1351C13.8752 15.267 12.0279 15.833 10.0002 15.833ZM10.0002 14.1663C11.5696 14.1663 13.0106 13.7531 14.3231 12.9268C15.6356 12.1004 16.6391 10.9858 17.3335 9.58301C16.6391 8.18023 15.6356 7.06565 14.3231 6.23926C13.0106 5.41287 11.5696 4.99967 10.0002 4.99967C8.43072 4.99967 6.98975 5.41287 5.67725 6.23926C4.36475 7.06565 3.36127 8.18023 2.66683 9.58301C3.36127 10.9858 4.36475 12.1004 5.67725 12.9268C6.98975 13.7531 8.43072 14.1663 10.0002 14.1663Z" fill="#A066D8"/>
</g>
</svg>
