<svg width="23" height="20" viewBox="0 0 23 20" fill="none" xmlns="http://www.w3.org/2000/svg">
<path d="M20.7081 8.03583L2.94228 0.664091C2.19383 0.353497 1.34832 0.490129 0.735648 1.02049C0.122974 1.55093 -0.13326 2.36819 0.0669796 3.1534L1.81279 9.99973L0.0669796 16.846C-0.13326 17.6313 0.122931 18.4485 0.735605 18.979C1.34944 19.5104 2.19517 19.6454 2.94228 19.3354L20.7081 11.9636C21.517 11.628 22.0194 10.8755 22.0194 9.99973C22.0194 9.12398 21.517 8.37145 20.7081 8.03583ZM20.2136 10.7719L2.44779 18.1436C2.14902 18.2675 1.82471 18.2153 1.58013 18.0035C1.33559 17.7918 1.23732 17.4783 1.31723 17.1648L2.97982 10.6448H9.39062C9.74693 10.6448 10.0358 10.356 10.0358 9.99968C10.0358 9.64337 9.74693 9.35454 9.39062 9.35454H2.97987L1.31723 2.83464C1.23732 2.52121 1.33559 2.20769 1.58013 1.99597C1.82466 1.78424 2.14889 1.73186 2.44774 1.85581L20.2136 9.22754C20.692 9.42606 20.7292 9.86877 20.7292 9.99973C20.7292 10.1307 20.692 10.5734 20.2136 10.7719Z" fill="#A066DB"/>
</svg>
