<svg width="24" height="24" viewBox="0 0 24 24" fill="none" xmlns="http://www.w3.org/2000/svg">
<g clip-path="url(#clip0_200_4933)">
<path d="M23.4439 10.1122C23.2439 10.1122 23.0818 9.95006 23.0818 9.75005V4.47441C23.0818 4.27467 22.9193 4.11225 22.7196 4.11225H21.2196C21.0196 4.11225 20.8575 3.95011 20.8575 3.7501C20.8575 3.55008 21.0196 3.38794 21.2196 3.38794H22.7196C23.3187 3.38794 23.8061 3.87535 23.8061 4.47446V9.75005C23.8061 9.95006 23.6439 10.1122 23.4439 10.1122Z" fill="#FFE177"/>
<path d="M18.1939 0.724359C18.1939 0.324281 17.8696 0 17.4695 0H0.918268C0.51819 0 0.193909 0.324281 0.193909 0.724359V23.2757C0.193909 23.6757 0.51819 24 0.918268 24H9.80511C11.406 24 13.2049 22.9891 14.3369 21.8571L16.051 20.143C17.183 19.011 18.194 17.2121 18.194 15.6112V0.724359H18.1939Z" fill="#F3F0F3"/>
<path d="M17.4695 0H17.373V14.7902C17.373 14.7996 17.3729 14.809 17.3728 14.8184C17.3577 16.539 15.9583 17.9291 14.2341 17.9291H12.8473C12.4473 17.9291 12.1229 18.2534 12.1229 18.6534V20.0403C12.1229 21.7644 10.7328 23.1638 9.01227 23.179C9.00289 23.179 8.99347 23.1791 8.9841 23.1791H0.193909V23.2757C0.193909 23.6757 0.51819 24 0.918268 24H9.80511C11.8505 24 13.2049 22.9891 14.3369 21.8571L16.051 20.143C17.183 19.011 18.194 17.2121 18.194 15.6112V0.724359C18.1939 0.324281 17.8696 0 17.4695 0Z" fill="#E2DEE2"/>
<path d="M14.2601 22.1122C13.1281 23.2442 12.0445 24 10.4436 24H17.4696C17.8696 24 18.1939 23.6757 18.1939 23.2757V16.2498C18.1939 17.8507 17.5265 19.118 16.3944 20.25L14.2601 22.1122Z" fill="#E2DEE2"/>
<path d="M14.7118 22.232C13.5799 23.364 12.0445 24 10.4436 24H9.80505C11.5386 24 12.9439 22.5947 12.9439 20.8611V19.4743C12.9439 19.0743 13.2682 18.7499 13.6683 18.7499H15.0551C16.7886 18.7499 18.1939 17.3446 18.1939 15.6111V16.2496C18.1939 17.8505 17.558 19.3858 16.426 20.5179L14.7118 22.232Z" fill="#F3F0F3"/>
<path d="M19.9196 18.75L20.6029 20.1165C20.6919 20.2945 20.9458 20.2945 21.0348 20.1165L21.7181 18.75L21.1939 18L19.9196 18.75Z" fill="#E2DEE2"/>
<path d="M21.2145 18.0295C21.1977 18.247 21.139 18.4596 21.0411 18.6554L20.4567 19.8242L20.6029 20.1166C20.6919 20.2945 20.9458 20.2945 21.0348 20.1166L21.7181 18.7501L21.2145 18.0295Z" fill="#CBC4CC"/>
<path d="M21.7655 18.6553C21.8828 18.4206 21.9439 18.1619 21.9439 17.8995V9.36216L21.461 9L21.9439 8.63784V4.125L21.8392 3.77091L21.9439 3.38747V3.375C21.9439 2.75367 21.4402 2.25 20.8189 2.25C20.1976 2.25 19.6939 2.75367 19.6939 3.375V8.63784L20.1768 9L19.6939 9.36216V17.8995C19.6939 18.1619 19.755 18.4206 19.8724 18.6553L19.9197 18.75H21.7182L21.7655 18.6553Z" fill="#7BACDF"/>
<path d="M20.8189 2.25C20.6922 2.25 20.5704 2.27095 20.4568 2.30958C20.9004 2.46033 21.2196 2.88038 21.2196 3.375V17.8995C21.2196 18.1619 21.1585 18.4206 21.0411 18.6553L20.9938 18.75H21.7182L21.7655 18.6553C21.8828 18.4206 21.944 18.1619 21.944 17.8995V9.36216L21.6672 9.04355L21.944 8.6378V3.375C21.9439 2.75367 21.4402 2.25 20.8189 2.25Z" fill="#5F99D7"/>
<path d="M15.9439 10.5H2.44391C2.02967 10.5 1.69391 10.1642 1.69391 9.75C1.69391 9.33577 2.02967 9 2.44391 9H15.9439C16.3581 9 16.6939 9.33577 16.6939 9.75C16.6939 10.1642 16.3581 10.5 15.9439 10.5Z" fill="#91DEB6"/>
<path d="M19.6939 9.36225H21.2195L21.7025 9.0001L21.2195 8.63794H19.6939V9.36225Z" fill="#FFE177"/>
<path d="M21.2195 8.63794H21.9439V9.3623H21.2195V8.63794Z" fill="#FFD15B"/>
<path d="M16.3528 6.62222L14.3994 1.44596C14.3981 1.44263 14.3968 1.43935 14.3954 1.43606C14.3209 1.25489 14.1463 1.13794 13.9505 1.13794H13.95C13.754 1.13813 13.5793 1.2555 13.5051 1.43691C13.504 1.43963 13.5029 1.44239 13.5019 1.44516L11.5305 6.62119C11.4593 6.80813 11.5531 7.01738 11.7401 7.08853C11.9269 7.15978 12.1362 7.06589 12.2074 6.879L12.6096 5.82314H15.277L15.6751 6.87797C15.7298 7.023 15.8676 7.11239 16.014 7.11235C16.0565 7.11235 16.0997 7.10485 16.1418 7.08895C16.329 7.01831 16.4234 6.80935 16.3528 6.62222ZM12.8855 5.09883L13.9494 2.30522L15.0037 5.09883H12.8855Z" fill="#7BACDF"/>
<path d="M9.92918 6.38349H9.92712C9.48387 6.38597 8.84267 6.38845 8.45295 6.38785V1.5001C8.45295 1.30008 8.29081 1.13794 8.09079 1.13794C7.89078 1.13794 7.72864 1.30008 7.72864 1.5001V6.74564C7.72864 6.92203 7.85572 7.07278 8.02958 7.1026C8.05498 7.10695 8.08672 7.11239 8.65779 7.11239C8.93492 7.11239 9.33912 7.11113 9.9312 7.1078C10.1312 7.10667 10.2925 6.94359 10.2913 6.74358C10.2902 6.54431 10.1283 6.38349 9.92918 6.38349Z" fill="#7BACDF"/>
<path d="M4.78452 3.82554C4.09077 3.56965 3.44872 3.28985 3.30791 3.22783C3.10138 3.08205 3.00045 2.8451 3.03725 2.58865C3.08164 2.27941 3.31484 2.03252 3.66106 1.92818C4.20261 1.7651 4.87738 1.9188 5.3802 2.31982C5.53653 2.44451 5.76444 2.41882 5.88917 2.26249C6.01386 2.10607 5.98822 1.87821 5.83184 1.75352C5.13809 1.2003 4.22628 1.00146 3.45214 1.23466C2.83817 1.41963 2.40444 1.89902 2.32025 2.48576C2.24225 3.02923 2.47747 3.55174 2.93413 3.84944C2.95011 3.85985 2.96689 3.86904 2.98433 3.87677C3.01433 3.89018 3.72866 4.20818 4.53383 4.50513C5.16716 4.73871 5.48647 5.11868 5.40992 5.54744C5.33727 5.95432 4.8897 6.38674 4.20336 6.38674C3.59994 6.38674 3.01634 6.14027 2.64223 5.72749C2.50794 5.57932 2.27891 5.56802 2.13064 5.70232C1.98247 5.83666 1.97117 6.06569 2.10547 6.21391C2.61463 6.77571 3.39889 7.1111 4.20336 7.1111C5.15155 7.1111 5.97678 6.49362 6.12303 5.67476C6.23277 5.05994 5.93881 4.2513 4.78452 3.82554Z" fill="#7BACDF"/>
<path d="M15.1939 13.8623H3.19391C2.9939 13.8623 2.83176 13.7001 2.83176 13.5001C2.83176 13.3001 2.9939 13.1379 3.19391 13.1379H15.1939C15.3939 13.1379 15.5561 13.3001 15.5561 13.5001C15.5561 13.7001 15.3939 13.8623 15.1939 13.8623Z" fill="#918291"/>
<path d="M15.1939 16.1123H3.19391C2.9939 16.1123 2.83176 15.9501 2.83176 15.7501C2.83176 15.5501 2.9939 15.3879 3.19391 15.3879H15.1939C15.3939 15.3879 15.5561 15.5501 15.5561 15.7501C15.5561 15.9501 15.3939 16.1123 15.1939 16.1123Z" fill="#918291"/>
<path d="M11.4439 18.3623H3.19391C2.9939 18.3623 2.83176 18.2001 2.83176 18.0001C2.83176 17.8001 2.9939 17.6379 3.19391 17.6379H11.4439C11.6439 17.6379 11.8061 17.8001 11.8061 18.0001C11.8061 18.2001 11.6439 18.3623 11.4439 18.3623Z" fill="#918291"/>
<path d="M2.44391 22.1123C2.35123 22.1123 2.25852 22.0769 2.18783 22.0062C2.04636 21.8648 2.04636 21.6355 2.18783 21.494L3.45092 20.231C3.58775 20.0942 3.7835 20.031 3.97442 20.0619C4.16539 20.0929 4.33109 20.2147 4.41762 20.3878L4.79309 21.1388L5.11705 20.8148C5.23105 20.7008 5.38264 20.638 5.54389 20.638H7.69386C7.89387 20.638 8.05602 20.8002 8.05602 21.0002C8.05602 21.2002 7.89387 21.3623 7.69386 21.3623H5.59386L5.1868 21.7694C5.04997 21.9062 4.85436 21.9694 4.6633 21.9384C4.47233 21.9074 4.30662 21.7856 4.22009 21.6125L3.84462 20.8616L2.69994 22.0062C2.6293 22.077 2.53658 22.1123 2.44391 22.1123Z" fill="#918291"/>
</g>
<defs>
<clipPath id="clip0_200_4933">
<rect width="24" height="24" fill="white"/>
</clipPath>
</defs>
</svg>
