<svg width="24" height="24" viewBox="0 0 24 24" fill="none" xmlns="http://www.w3.org/2000/svg">
<path d="M10.4776 5.91745C10.5531 6.62768 10.4585 7.34568 10.2016 8.01211C9.94468 8.67853 9.53282 9.27423 9.00007 9.74995C8.31294 10.3401 7.79522 11.1024 7.50007 11.9587C7.47757 12.0187 7.80757 11.9999 4.50007 11.9999C4.19748 11.1113 3.66738 10.3175 2.96257 9.69745C2.42134 9.20687 2.00767 8.59191 1.7573 7.90568C1.50692 7.21945 1.42737 6.48258 1.52551 5.75873C1.62364 5.03487 1.89652 4.34579 2.32057 3.75099C2.74462 3.1562 3.30709 2.67357 3.9594 2.34481C4.61171 2.01604 5.33426 1.85102 6.06462 1.86399C6.79498 1.87696 7.51121 2.06754 8.15143 2.41926C8.79166 2.77098 9.33664 3.27327 9.7393 3.88275C10.142 4.49223 10.3902 5.19056 10.4626 5.91745H10.4776Z" fill="#D9D9D9"/>
<path d="M5.62507 13.2339L4.12507 8.35886C4.10763 8.3015 4.10419 8.2408 4.11505 8.18184C4.12591 8.12288 4.15074 8.06739 4.18747 8.02001C4.2242 7.97262 4.27175 7.93474 4.32614 7.90953C4.38053 7.88432 4.44018 7.87251 4.50007 7.87511H7.50007C7.55996 7.87251 7.61961 7.88432 7.674 7.90953C7.72839 7.93474 7.77594 7.97262 7.81267 8.02001C7.8494 8.06739 7.87423 8.12288 7.88509 8.18184C7.89595 8.2408 7.89251 8.3015 7.87507 8.35886L6.37507 13.2339C6.37507 13.3333 6.33556 13.4287 6.26524 13.499C6.19491 13.5693 6.09953 13.6089 6.00007 13.6089C5.90061 13.6089 5.80523 13.5693 5.73491 13.499C5.66458 13.4287 5.62507 13.3333 5.62507 13.2339ZM5.00632 8.62511L6.00007 11.8501L6.99382 8.62511H5.00632Z" fill="#F3F3F3"/>
<path d="M21.0001 5.25V12.75H13.5001V3.75C13.5001 3.55109 13.5791 3.36032 13.7197 3.21967C13.8604 3.07902 14.0512 3 14.2501 3H18.7501L21.0001 5.25Z" fill="#F3F3F3"/>
<path d="M18.0001 10.5263V9.72376C18.0006 9.62858 17.9822 9.53424 17.946 9.44621C17.9098 9.35817 17.8565 9.27819 17.7892 9.21088C17.7219 9.14358 17.6419 9.09029 17.5539 9.05409C17.4658 9.01789 17.3715 8.99951 17.2763 9.00001C17.1261 8.99919 16.9798 8.95138 16.8581 8.86328C16.7364 8.77519 16.6453 8.65123 16.5976 8.50876C16.5375 8.3415 16.4687 8.17752 16.3913 8.01751C16.3249 7.88248 16.3022 7.73009 16.3264 7.58156C16.3505 7.43302 16.4204 7.29572 16.5263 7.18876C16.6612 7.05254 16.7369 6.86859 16.7369 6.67688C16.7369 6.48518 16.6612 6.30123 16.5263 6.16501L15.9601 5.59876C15.8239 5.46388 15.6399 5.38821 15.4482 5.38821C15.2565 5.38821 15.0725 5.46388 14.9363 5.59876C14.8294 5.70463 14.6921 5.77453 14.5435 5.79873C14.395 5.82293 14.2426 5.80022 14.1076 5.73376C13.9476 5.65642 13.7836 5.58757 13.6163 5.52751C13.4739 5.47978 13.3499 5.38867 13.2618 5.26695C13.1737 5.14524 13.1259 4.99901 13.1251 4.84876C13.1241 4.65711 13.0475 4.4736 12.912 4.33808C12.7765 4.20256 12.593 4.126 12.4013 4.12501H11.5988C11.5036 4.12451 11.4093 4.14289 11.3213 4.17909C11.2332 4.21529 11.1532 4.26858 11.0859 4.33588C11.0186 4.40319 10.9653 4.48317 10.9292 4.57121C10.893 4.65924 10.8746 4.75358 10.8751 4.84876C10.8742 4.99901 10.8264 5.14524 10.7383 5.26695C10.6503 5.38867 10.5263 5.47978 10.3838 5.52751C10.2166 5.58757 10.0526 5.65642 9.89257 5.73376C9.75754 5.80022 9.60516 5.82293 9.45662 5.79873C9.30808 5.77453 9.17078 5.70463 9.06382 5.59876C8.9276 5.46388 8.74365 5.38821 8.55195 5.38821C8.36024 5.38821 8.17629 5.46388 8.04007 5.59876L7.47382 6.16501C7.33894 6.30123 7.26327 6.48518 7.26327 6.67688C7.26327 6.86859 7.33894 7.05254 7.47382 7.18876C7.5797 7.29572 7.64959 7.43302 7.67379 7.58156C7.69799 7.73009 7.67528 7.88248 7.60882 8.01751C7.53148 8.17752 7.46263 8.3415 7.40257 8.50876C7.35484 8.65123 7.26373 8.77519 7.14201 8.86328C7.0203 8.95138 6.87407 8.99919 6.72382 9.00001C6.53217 9.001 6.34866 9.07756 6.21314 9.21308C6.07762 9.3486 6.00106 9.53211 6.00007 9.72376V10.5263C5.99957 10.6214 6.01795 10.7158 6.05415 10.8038C6.09035 10.8918 6.14364 10.9718 6.21094 11.0391C6.27825 11.1064 6.35823 11.1597 6.44627 11.1959C6.5343 11.2321 6.62864 11.2505 6.72382 11.25C6.87407 11.2508 7.0203 11.2986 7.14201 11.3867C7.26373 11.4748 7.35484 11.5988 7.40257 11.7413C7.46263 11.9085 7.53148 12.0725 7.60882 12.2325C7.67528 12.3675 7.69799 12.5199 7.67379 12.6685C7.64959 12.817 7.5797 12.9543 7.47382 13.0613C7.33894 13.1975 7.26327 13.3814 7.26327 13.5731C7.26327 13.7648 7.33894 13.9488 7.47382 14.085L8.04007 14.6513C8.17629 14.7861 8.36024 14.8618 8.55195 14.8618C8.74365 14.8618 8.9276 14.7861 9.06382 14.6513C9.17078 14.5454 9.30808 14.4755 9.45662 14.4513C9.60516 14.4271 9.75754 14.4498 9.89257 14.5163C10.0526 14.5936 10.2166 14.6624 10.3838 14.7225C10.5263 14.7702 10.6503 14.8614 10.7383 14.9831C10.8264 15.1048 10.8742 15.251 10.8751 15.4013C10.8761 15.5929 10.9526 15.7764 11.0881 15.9119C11.2237 16.0475 11.4072 16.124 11.5988 16.125H12.4013C12.4965 16.1255 12.5908 16.1071 12.6789 16.0709C12.7669 16.0347 12.8469 15.9814 12.9142 15.9141C12.9815 15.8468 13.0348 15.7668 13.071 15.6788C13.1072 15.5908 13.1256 15.4964 13.1251 15.4013C13.1259 15.251 13.1737 15.1048 13.2618 14.9831C13.3499 14.8614 13.4739 14.7702 13.6163 14.7225C13.7836 14.6624 13.9476 14.5936 14.1076 14.5163C14.2426 14.4498 14.395 14.4271 14.5435 14.4513C14.6921 14.4755 14.8294 14.5454 14.9363 14.6513C15.0752 14.781 15.2582 14.8531 15.4482 14.8531C15.6382 14.8531 15.8212 14.781 15.9601 14.6513L16.5263 14.085C16.6612 13.9488 16.7369 13.7648 16.7369 13.5731C16.7369 13.3814 16.6612 13.1975 16.5263 13.0613C16.4204 12.9543 16.3505 12.817 16.3264 12.6685C16.3022 12.5199 16.3249 12.3675 16.3913 12.2325C16.4687 12.0725 16.5375 11.9085 16.5976 11.7413C16.6453 11.5988 16.7364 11.4748 16.8581 11.3867C16.9798 11.2986 17.1261 11.2508 17.2763 11.25C17.468 11.249 17.6515 11.1725 17.787 11.0369C17.9225 10.9014 17.9991 10.7179 18.0001 10.5263Z" fill="#FFAC00"/>
<path d="M12.0001 12.75C13.4498 12.75 14.6251 11.5747 14.6251 10.125C14.6251 8.67525 13.4498 7.5 12.0001 7.5C10.5503 7.5 9.37507 8.67525 9.37507 10.125C9.37507 11.5747 10.5503 12.75 12.0001 12.75Z" fill="#F3F3F3"/>
<path d="M2.25007 11.25H12.0001V24H3.00007C2.80116 24 2.61039 23.921 2.46974 23.7803C2.32909 23.6397 2.25007 23.4489 2.25007 23.25V11.25Z" fill="#93E6E5"/>
<path d="M12.0001 11.25H21.7501V23.25C21.7501 23.4489 21.6711 23.6397 21.5304 23.7803C21.3897 23.921 21.199 24 21.0001 24H12.0001V11.25Z" fill="#50D9D7"/>
<path d="M2.25007 11.25L0.528822 13.2562C0.482226 13.3107 0.45222 13.3774 0.442361 13.4484C0.432501 13.5194 0.443201 13.5918 0.473192 13.6569C0.503183 13.722 0.551208 13.7771 0.611579 13.8158C0.671949 13.8545 0.742135 13.875 0.813822 13.875H8.75257C8.94961 13.8752 9.14475 13.8365 9.32685 13.7612C9.50894 13.6859 9.67442 13.5755 9.81382 13.4363L12.0001 11.25H2.25007Z" fill="#50D9D7"/>
<path d="M21.7501 11.25L23.4713 13.2562C23.5179 13.3107 23.5479 13.3774 23.5578 13.4484C23.5676 13.5194 23.5569 13.5918 23.5269 13.6569C23.497 13.722 23.4489 13.7771 23.3886 13.8158C23.3282 13.8545 23.258 13.875 23.1863 13.875H15.2476C15.0505 13.8752 14.8554 13.8365 14.6733 13.7612C14.4912 13.6859 14.3257 13.5755 14.1863 13.4363L12.0001 11.25H21.7501Z" fill="#00BEBD"/>
<path d="M6.00007 21.375H3.75007C3.54296 21.375 3.37507 21.5429 3.37507 21.75V22.5C3.37507 22.7071 3.54296 22.875 3.75007 22.875H6.00007C6.20718 22.875 6.37507 22.7071 6.37507 22.5V21.75C6.37507 21.5429 6.20718 21.375 6.00007 21.375Z" fill="#F3F3F3"/>
<path d="M13.8751 22.875C14.2893 22.875 14.6251 22.5392 14.6251 22.125C14.6251 21.7108 14.2893 21.375 13.8751 21.375C13.4609 21.375 13.1251 21.7108 13.1251 22.125C13.1251 22.5392 13.4609 22.875 13.8751 22.875Z" fill="#F3F3F3"/>
<path d="M16.5001 22.875C16.9143 22.875 17.2501 22.5392 17.2501 22.125C17.2501 21.7108 16.9143 21.375 16.5001 21.375C16.0859 21.375 15.7501 21.7108 15.7501 22.125C15.7501 22.5392 16.0859 22.875 16.5001 22.875Z" fill="#F3F3F3"/>
<path d="M21.0001 5.25H19.5001C19.3012 5.25 19.1104 5.17098 18.9697 5.03033C18.8291 4.88968 18.7501 4.69891 18.7501 4.5V3L21.0001 5.25Z" fill="#D9D9D9"/>
<path d="M22.1251 10.5001C22.0506 10.5005 21.9777 10.4787 21.9156 10.4376C21.8535 10.3964 21.8051 10.3377 21.7766 10.2689C21.748 10.2001 21.7406 10.1243 21.7552 10.0513C21.7699 9.97828 21.8059 9.91127 21.8588 9.85882L23.3588 8.35882C23.4294 8.28821 23.5252 8.24854 23.6251 8.24854C23.7249 8.24854 23.8207 8.28821 23.8913 8.35882C23.9619 8.42943 24.0016 8.52521 24.0016 8.62507C24.0016 8.72493 23.9619 8.82071 23.8913 8.89132L22.3913 10.3913C22.3563 10.4261 22.3147 10.4536 22.269 10.4722C22.2234 10.4909 22.1744 10.5004 22.1251 10.5001Z" fill="#FFAC00"/>
<path d="M22.1251 8.25007C22.0506 8.2505 21.9777 8.22874 21.9156 8.18757C21.8535 8.14639 21.8051 8.08767 21.7766 8.01888C21.748 7.95008 21.7406 7.87434 21.7552 7.80131C21.7699 7.72828 21.8059 7.66127 21.8588 7.60882L22.6088 6.85882C22.6794 6.78821 22.7752 6.74854 22.8751 6.74854C22.9749 6.74854 23.0707 6.78821 23.1413 6.85882C23.2119 6.92943 23.2516 7.02521 23.2516 7.12507C23.2516 7.22493 23.2119 7.32071 23.1413 7.39132C22.3238 8.20882 22.3276 8.25007 22.1251 8.25007Z" fill="#FFAC00"/>
<path d="M1.87507 10.5001C1.82572 10.5004 1.77679 10.4909 1.7311 10.4722C1.68542 10.4536 1.64386 10.4261 1.60882 10.3913L0.10882 8.89132C0.0382056 8.82071 -0.00146484 8.72493 -0.00146484 8.62507C-0.00146484 8.52521 0.0382056 8.42943 0.10882 8.35882C0.179433 8.28821 0.275206 8.24854 0.375069 8.24854C0.474933 8.24854 0.570706 8.28821 0.64132 8.35882L2.14132 9.85882C2.19421 9.91127 2.23027 9.97828 2.24492 10.0513C2.25958 10.1243 2.25215 10.2001 2.22358 10.2689C2.19502 10.3377 2.14662 10.3964 2.08455 10.4376C2.02248 10.4787 1.94955 10.5005 1.87507 10.5001Z" fill="#FFAC00"/>
<path d="M22.1251 4.125C22.3322 4.125 22.5001 3.95711 22.5001 3.75C22.5001 3.54289 22.3322 3.375 22.1251 3.375C21.918 3.375 21.7501 3.54289 21.7501 3.75C21.7501 3.95711 21.918 4.125 22.1251 4.125Z" fill="#50D9D7"/>
<path d="M0.750069 4.875C0.957175 4.875 1.12507 4.70711 1.12507 4.5C1.12507 4.29289 0.957175 4.125 0.750069 4.125C0.542962 4.125 0.375069 4.29289 0.375069 4.5C0.375069 4.70711 0.542962 4.875 0.750069 4.875Z" fill="#50D9D7"/>
<path d="M4.87507 0.75C5.08218 0.75 5.25007 0.582107 5.25007 0.375C5.25007 0.167893 5.08218 0 4.87507 0C4.66796 0 4.50007 0.167893 4.50007 0.375C4.50007 0.582107 4.66796 0.75 4.87507 0.75Z" fill="#50D9D7"/>
<path d="M12.0001 1.875C12.2072 1.875 12.3751 1.70711 12.3751 1.5C12.3751 1.29289 12.2072 1.125 12.0001 1.125C11.793 1.125 11.6251 1.29289 11.6251 1.5C11.6251 1.70711 11.793 1.875 12.0001 1.875Z" fill="#50D9D7"/>
<path d="M17.2501 1.875C17.4572 1.875 17.6251 1.70711 17.6251 1.5C17.6251 1.29289 17.4572 1.125 17.2501 1.125C17.043 1.125 16.8751 1.29289 16.8751 1.5C16.8751 1.70711 17.043 1.875 17.2501 1.875Z" fill="#50D9D7"/>
</svg>
