<svg width="37" height="37" viewBox="0 0 37 37" fill="none" xmlns="http://www.w3.org/2000/svg">
<path d="M34.1094 5.78125H2.89062C2.43079 5.78175 1.98994 5.96464 1.66479 6.28979C1.33964 6.61494 1.15675 7.05579 1.15625 7.51562V24.2812H35.8438V7.51562C35.8432 7.05579 35.6604 6.61494 35.3352 6.28979C35.0101 5.96464 34.5692 5.78175 34.1094 5.78125Z" fill="#616161"/>
<path d="M22.5469 26.5938H14.4531V31.7969H22.5469V26.5938Z" fill="#616161"/>
<path d="M32.9531 8.09375H4.04688C3.89355 8.09375 3.7465 8.15466 3.63808 8.26308C3.52966 8.3715 3.46875 8.51855 3.46875 8.67188V24.2812H33.5312V8.67188C33.5312 8.51855 33.4703 8.3715 33.3619 8.26308C33.2535 8.15466 33.1065 8.09375 32.9531 8.09375Z" fill="#90CAF9"/>
<path d="M1.15625 23.125V26.0156C1.15675 26.4755 1.33964 26.9163 1.66479 27.2415C1.98994 27.5666 2.43079 27.7495 2.89062 27.75H34.1094C34.5692 27.7495 35.0101 27.5666 35.3352 27.2415C35.6604 26.9163 35.8432 26.4755 35.8438 26.0156V23.125H1.15625Z" fill="#424242"/>
<path d="M23.125 30.6406H13.875C13.4152 30.6411 12.9743 30.824 12.6492 31.1492C12.324 31.4743 12.1411 31.9152 12.1406 32.375V34.1094C12.1406 34.1853 12.1555 34.2605 12.1846 34.3306C12.2136 34.4008 12.2562 34.4645 12.3099 34.5182C12.3636 34.5719 12.4273 34.6145 12.4975 34.6435C12.5676 34.6726 12.6428 34.6875 12.7188 34.6875H24.2812C24.3572 34.6875 24.4324 34.6726 24.5025 34.6436C24.5727 34.6145 24.6365 34.572 24.6901 34.5183C24.7438 34.4646 24.7864 34.4008 24.8155 34.3307C24.8445 34.2605 24.8594 34.1853 24.8594 34.1094V32.375C24.8589 31.9152 24.676 31.4743 24.3508 31.1492C24.0257 30.824 23.5848 30.6411 23.125 30.6406Z" fill="#424242"/>
<path d="M30.6406 26.0156C30.9599 26.0156 31.2188 25.7568 31.2188 25.4375C31.2188 25.1182 30.9599 24.8594 30.6406 24.8594C30.3213 24.8594 30.0625 25.1182 30.0625 25.4375C30.0625 25.7568 30.3213 26.0156 30.6406 26.0156Z" fill="#F44336"/>
<path d="M28.9062 26.0156C29.2255 26.0156 29.4844 25.7568 29.4844 25.4375C29.4844 25.1182 29.2255 24.8594 28.9062 24.8594C28.587 24.8594 28.3281 25.1182 28.3281 25.4375C28.3281 25.7568 28.587 26.0156 28.9062 26.0156Z" fill="#FFB300"/>
<path d="M24.9953 1.57277V19.1766C24.9953 19.8796 24.4254 20.4496 23.7223 20.4496H11.273C10.5699 20.4496 10 19.8796 10 19.1766V1.57235C10 0.869265 10.5699 0.299316 11.273 0.299316H23.7218C24.4251 0.299274 24.9953 0.869433 24.9953 1.57277Z" fill="#EAF6FF"/>
<path d="M24.9955 1.57256V19.1764C24.9955 19.8794 24.4252 20.4493 23.7222 20.4493H22.4068C23.1098 20.4493 23.6797 19.8794 23.6797 19.1764V1.57256C23.6797 0.869181 23.1094 0.299316 22.406 0.299316H23.7218C24.4252 0.299316 24.9955 0.869181 24.9955 1.57256Z" fill="#C8EFFE"/>
<path d="M20.9689 2.29026V3.38492C20.9689 3.51637 20.8623 3.62293 20.7309 3.62293H14.1975C14.0661 3.62293 13.9595 3.51637 13.9595 3.38492V2.29026C13.9595 2.15881 14.0661 2.05225 14.1975 2.05225H20.7309C20.8623 2.05225 20.9689 2.15881 20.9689 2.29026Z" fill="#7CA1B1"/>
<path d="M28.1598 9.27971C28.1066 9.2859 28.051 9.27861 27.9983 9.25587C27.8381 9.18671 27.7643 9.0008 27.8335 8.84062L30.1355 3.50942C30.1688 3.4323 30.1333 3.3428 30.0561 3.30953L29.4126 3.03167C29.2538 2.9631 29.1682 2.7809 29.2319 2.62009C29.2979 2.45372 29.4877 2.37593 29.6508 2.44639L30.7305 2.91256C30.7707 2.92996 30.8085 2.95375 30.8387 2.98559C30.9294 3.08146 30.95 3.21678 30.9009 3.33025L28.4135 9.0911C28.3671 9.1985 28.2682 9.26707 28.1598 9.27971Z" fill="#7CA1B1"/>
<path d="M20.9689 2.29022V3.38488C20.9689 3.51629 20.8623 3.62285 20.7309 3.62285H19.389C19.5204 3.62285 19.627 3.51629 19.627 3.38488V2.29022C19.627 2.15881 19.5204 2.05225 19.389 2.05225H20.7309C20.8623 2.05225 20.9689 2.15881 20.9689 2.29022Z" fill="#678D98"/>
<path d="M26.7152 9.24543L23.0742 17.6777L21.7175 17.4749L20.3611 16.5062L24.0016 8.07373L25.4786 8.1113L26.7152 9.24543Z" fill="#5986CB"/>
<path d="M26.7152 9.24512L23.0745 17.6773L21.9967 17.2123L21.8732 17.4979L25.7995 8.40527L26.7152 9.24512Z" fill="#4278C3"/>
<path d="M29.6469 0.865446C29.6661 1.02988 29.6437 1.20164 29.5732 1.36506L29.1919 2.24824L28.1742 2.05226L27.3965 1.47322L27.7783 0.589569C27.9456 0.202457 28.333 -0.0212345 28.7304 0.0015938C28.8417 0.00727981 28.9546 0.0331406 29.0631 0.0798501C29.3957 0.223474 29.6077 0.529508 29.6469 0.865446Z" fill="#99E6FC"/>
<path d="M29.5733 1.36484L29.1917 2.24807L28.525 2.09236L28.9546 1.09781C29.0254 0.934812 29.0477 0.762969 29.0283 0.598285C29.0022 0.372529 28.8978 0.160252 28.7305 0.00146484C28.8417 0.00736144 28.9546 0.0330538 29.0629 0.0798054C29.3956 0.22343 29.6079 0.529632 29.647 0.865317C29.666 1.03 29.6437 1.20142 29.5733 1.36484Z" fill="#62DBFB"/>
<path d="M29.6508 2.44666L26.7152 9.24539L24.0016 8.07374L26.8105 1.56966C26.8807 1.40705 27.0695 1.33212 27.2321 1.40233L29.6508 2.44666Z" fill="#80B4FB"/>
<path d="M29.6508 2.44637L26.7151 9.24515L25.6378 8.77974L28.573 1.98096L29.6508 2.44637Z" fill="#61A2F9"/>
<path d="M21.9966 17.2118V17.2122L20.3611 16.5059L21.9966 17.2118Z" fill="#5986CB"/>
<path d="M23.0742 17.6776L21.0348 19.594C20.7811 19.8326 20.3649 19.653 20.3647 19.3049L20.3641 18.7465L20.3608 16.5059L21.9969 17.2125L23.0742 17.6776Z" fill="#99E6FC"/>
<path d="M23.074 17.6774L21.0346 19.5938C20.781 19.8326 20.3649 19.6528 20.3645 19.3049L20.3641 18.7464L21.9966 17.2124L23.074 17.6774Z" fill="#62DBFB"/>
<path d="M22.6196 5.87641H12.313C12.1385 5.87641 11.9971 5.73502 11.9971 5.56052C11.9971 5.38602 12.1385 5.24463 12.313 5.24463H22.6196C22.7941 5.24463 22.9355 5.38602 22.9355 5.56052C22.9355 5.73502 22.7941 5.87641 22.6196 5.87641Z" fill="#7CA1B1"/>
<path d="M22.6196 7.86371H12.313C12.1385 7.86371 11.9971 7.72232 11.9971 7.54782C11.9971 7.37333 12.1385 7.23193 12.313 7.23193H22.6196C22.7941 7.23193 22.9355 7.37333 22.9355 7.54782C22.9355 7.72232 22.7941 7.86371 22.6196 7.86371Z" fill="#7CA1B1"/>
<path d="M20.0511 9.8515H12.313C12.1385 9.8515 11.9971 9.71011 11.9971 9.53562C11.9971 9.36112 12.1385 9.21973 12.313 9.21973H20.0511C20.2256 9.21973 20.367 9.36112 20.367 9.53562C20.367 9.71011 20.2256 9.8515 20.0511 9.8515Z" fill="#7CA1B1"/>
<path d="M15.4088 11.8388H12.313C12.1385 11.8388 11.9971 11.6974 11.9971 11.5229C11.9971 11.3484 12.1385 11.207 12.313 11.207H15.4088C15.5833 11.207 15.7247 11.3484 15.7247 11.5229C15.7247 11.6974 15.5833 11.8388 15.4088 11.8388Z" fill="#7CA1B1"/>
<path d="M15.5902 17.9959C15.5527 17.9959 15.5145 17.9948 15.4756 17.9925C14.9756 17.9634 14.6821 17.7031 14.4232 17.4735C14.1803 17.2581 13.9885 17.088 13.6266 17.0689C12.9305 17.0328 12.5859 17.6395 12.5716 17.6653C12.4875 17.8173 12.296 17.8737 12.1434 17.7905C11.991 17.7073 11.9338 17.5176 12.016 17.3646C12.0376 17.3243 12.5572 16.3804 13.6599 16.4381C14.2423 16.4688 14.5751 16.7638 14.8424 17.0009C15.068 17.2009 15.231 17.3454 15.5124 17.3618C16.2605 17.4061 16.617 16.7781 16.6205 16.7717C16.7051 16.6191 16.8973 16.5639 17.0499 16.6485C17.2025 16.733 17.2577 16.9253 17.1731 17.0779C17.1517 17.1166 16.6519 17.9958 15.5902 17.9959Z" fill="#80B4FB"/>
<g clip-path="url(#clip0_333_6211)">
<path d="M26.1855 15.6954C26.1855 16.6202 25.9113 17.5242 25.3975 18.2931C24.8837 19.0621 24.1535 19.6614 23.2991 20.0153C22.4447 20.3692 21.5045 20.4618 20.5975 20.2814C19.6905 20.1009 18.8573 19.6556 18.2034 19.0017C17.5495 18.3478 17.1041 17.5146 16.9237 16.6076C16.7433 15.7006 16.8359 14.7604 17.1898 13.906C17.5437 13.0516 18.143 12.3213 18.9119 11.8076C19.6809 11.2938 20.5849 11.0195 21.5097 11.0195C22.7498 11.0195 23.9391 11.5122 24.816 12.3891C25.6929 13.2659 26.1855 14.4553 26.1855 15.6954Z" fill="#FBFBFB"/>
<path d="M26.1856 15.6954C26.1853 14.7054 25.8708 13.7411 25.2874 12.9413C24.704 12.1415 23.8818 11.5475 22.9392 11.2449C21.9967 10.9422 20.9824 10.9465 20.0424 11.2572C19.1025 11.5678 18.2854 12.1688 17.7088 12.9735C18.6093 12.3282 19.7097 12.0237 20.8138 12.1143C21.9179 12.2048 22.9539 12.6845 23.7373 13.4678C24.5206 14.2512 25.0003 15.2873 25.0908 16.3914C25.1814 17.4955 24.8769 18.5958 24.2316 19.4963C24.8364 19.0641 25.3292 18.4937 25.669 17.8326C26.0089 17.1714 26.186 16.4387 26.1856 15.6954Z" fill="#E3EFFA"/>
<path d="M21.5097 10.1201C22.6124 10.1201 23.6902 10.4471 24.6071 11.0597C25.5239 11.6723 26.2384 12.543 26.6604 13.5617C27.0824 14.5804 27.1928 15.7013 26.9776 16.7828C26.7625 17.8642 26.2316 18.8576 25.4519 19.6373C24.6722 20.417 23.6788 20.948 22.5974 21.1631C21.5159 21.3782 20.395 21.2678 19.3763 20.8458C18.3576 20.4239 17.4868 19.7093 16.8743 18.7925C16.2617 17.8757 15.9347 16.7978 15.9347 15.6952C15.9347 14.2166 16.5221 12.7985 17.5676 11.753C18.6131 10.7075 20.0311 10.1201 21.5097 10.1201ZM21.5097 20.371C22.4345 20.371 23.3386 20.0968 24.1075 19.583C24.8764 19.0692 25.4757 18.3389 25.8296 17.4845C26.1835 16.6301 26.2761 15.69 26.0957 14.7829C25.9153 13.8759 25.47 13.0428 24.8161 12.3888C24.1621 11.7349 23.329 11.2896 22.4219 11.1092C21.5149 10.9287 20.5748 11.0213 19.7204 11.3752C18.866 11.7291 18.1357 12.3285 17.6219 13.0974C17.1081 13.8663 16.8339 14.7704 16.8339 15.6952C16.8339 16.9353 17.3265 18.1246 18.2034 19.0015C19.0803 19.8784 20.2696 20.371 21.5097 20.371Z" fill="#FCC369"/>
<path d="M21.8694 13.0336V15.6018C21.87 15.6853 21.8406 15.7664 21.7867 15.8302L20.6573 17.2041C20.6235 17.2423 20.5812 17.272 20.5339 17.2908C20.4865 17.3097 20.4354 17.3171 20.3847 17.3126C20.3339 17.308 20.285 17.2916 20.2417 17.2646C20.1985 17.2377 20.1622 17.2009 20.1357 17.1574C20.0876 17.0784 20.0669 16.9857 20.0766 16.8938C20.0864 16.8018 20.1261 16.7156 20.1897 16.6484L21.1069 15.5658C21.1352 15.5335 21.1505 15.4918 21.15 15.4489V13.0336C21.1453 12.9835 21.151 12.933 21.1669 12.8853C21.1829 12.8375 21.2086 12.7936 21.2424 12.7564C21.2763 12.7192 21.3176 12.6894 21.3636 12.6691C21.4096 12.6487 21.4594 12.6382 21.5097 12.6382C21.56 12.6382 21.6098 12.6487 21.6558 12.6691C21.7019 12.6894 21.7431 12.7192 21.777 12.7564C21.8109 12.7936 21.8366 12.8375 21.8525 12.8853C21.8684 12.933 21.8741 12.9835 21.8694 13.0336Z" fill="#555FA3"/>
<path d="M20.1357 17.1574C20.0876 17.0784 20.0669 16.9858 20.0766 16.8938C20.0864 16.8018 20.1261 16.7156 20.1897 16.6485L21.1069 15.5658C21.1352 15.5335 21.1505 15.4919 21.15 15.4489V13.0337C21.15 12.9601 21.1692 12.8878 21.2058 12.824C21.1874 12.8204 21.1687 12.8184 21.15 12.8179C21.0499 12.8229 20.9559 12.8673 20.8885 12.9414C20.8211 13.0156 20.7858 13.1134 20.7903 13.2135V15.6288C20.7909 15.6717 20.7755 15.7134 20.7472 15.7457L19.83 16.8283C19.7664 16.8955 19.7267 16.9817 19.7169 17.0737C19.7072 17.1656 19.728 17.2582 19.776 17.3372C19.8025 17.3808 19.8388 17.4176 19.882 17.4445C19.9253 17.4715 19.9742 17.4879 20.025 17.4924C20.0758 17.497 20.1269 17.4895 20.1742 17.4707C20.2216 17.4519 20.2638 17.4222 20.2976 17.384L20.3605 17.3074C20.3147 17.2992 20.2711 17.2817 20.2324 17.2559C20.1938 17.2301 20.1608 17.1966 20.1357 17.1574Z" fill="#E3EFFA"/>
<path d="M21.5097 10.6597C20.5138 10.6597 19.5402 10.955 18.7121 11.5083C17.884 12.0616 17.2386 12.8481 16.8575 13.7682C16.4764 14.6883 16.3766 15.7008 16.5709 16.6776C16.7652 17.6544 17.2448 18.5516 17.9491 19.2558C18.6533 19.9601 19.5505 20.4397 20.5273 20.634C21.5041 20.8282 22.5166 20.7285 23.4367 20.3474C24.3568 19.9663 25.1433 19.3209 25.6966 18.4928C26.2499 17.6647 26.5452 16.6911 26.5452 15.6952C26.5452 14.3597 26.0147 13.0789 25.0704 12.1345C24.126 11.1902 22.8452 10.6597 21.5097 10.6597ZM21.5097 20.371C20.5849 20.371 19.6809 20.0968 18.9119 19.583C18.143 19.0692 17.5437 18.339 17.1898 17.4846C16.8359 16.6302 16.7433 15.69 16.9237 14.783C17.1041 13.876 17.5495 13.0428 18.2034 12.3889C18.8573 11.7349 19.6905 11.2896 20.5975 11.1092C21.5045 10.9288 22.4447 11.0214 23.2991 11.3753C24.1535 11.7292 24.8837 12.3285 25.3975 13.0974C25.9113 13.8664 26.1855 14.7704 26.1855 15.6952C26.1855 16.9353 25.6929 18.1246 24.816 19.0015C23.9391 19.8784 22.7498 20.371 21.5097 20.371Z" fill="#ED9B52"/>
<path d="M21.6895 11.9187V11.024C21.6298 11.0219 21.5699 11.0195 21.5097 11.0195C21.4494 11.0195 21.3895 11.0219 21.3298 11.024V11.9187H21.6895Z" fill="#555FA3"/>
<path d="M21.3298 19.4722V20.3669C21.3895 20.369 21.4494 20.3714 21.5097 20.3714C21.5699 20.3714 21.6298 20.369 21.6895 20.3669V19.4722H21.3298Z" fill="#555FA3"/>
<path d="M26.181 15.5156H25.2863V15.8753H26.181C26.1832 15.8156 26.1855 15.7557 26.1855 15.6955C26.1855 15.6352 26.1832 15.5753 26.181 15.5156Z" fill="#555FA3"/>
<path d="M17.7331 15.5156H16.8384C16.8362 15.5753 16.8339 15.6352 16.8339 15.6955C16.8339 15.7557 16.8362 15.8156 16.8384 15.8753H17.7331V15.5156Z" fill="#555FA3"/>
</g>
<defs>
<clipPath id="clip0_333_6211">
<rect width="11.5098" height="11.5098" fill="white" transform="translate(15.7549 9.94043)"/>
</clipPath>
</defs>
</svg>
