<svg width="37" height="37" viewBox="0 0 37 37" fill="none" xmlns="http://www.w3.org/2000/svg">
<path d="M34.1094 5.78125H2.89062C2.43079 5.78175 1.98994 5.96464 1.66479 6.28979C1.33964 6.61494 1.15675 7.05579 1.15625 7.51562V24.2812H35.8438V7.51562C35.8432 7.05579 35.6604 6.61494 35.3352 6.28979C35.0101 5.96464 34.5692 5.78175 34.1094 5.78125Z" fill="#616161"/>
<path d="M22.5469 26.5938H14.4531V31.7969H22.5469V26.5938Z" fill="#616161"/>
<path d="M32.9531 8.09375H4.04688C3.89355 8.09375 3.7465 8.15466 3.63808 8.26308C3.52966 8.3715 3.46875 8.51855 3.46875 8.67188V24.2812H33.5312V8.67188C33.5312 8.51855 33.4703 8.3715 33.3619 8.26308C33.2535 8.15466 33.1065 8.09375 32.9531 8.09375Z" fill="#90CAF9"/>
<path d="M1.15625 23.125V26.0156C1.15675 26.4755 1.33964 26.9163 1.66479 27.2415C1.98994 27.5666 2.43079 27.7495 2.89062 27.75H34.1094C34.5692 27.7495 35.0101 27.5666 35.3352 27.2415C35.6604 26.9163 35.8432 26.4755 35.8438 26.0156V23.125H1.15625Z" fill="#424242"/>
<path d="M23.125 30.6406H13.875C13.4152 30.6411 12.9743 30.824 12.6492 31.1492C12.324 31.4743 12.1411 31.9152 12.1406 32.375V34.1094C12.1406 34.1853 12.1555 34.2605 12.1846 34.3306C12.2136 34.4008 12.2562 34.4645 12.3099 34.5182C12.3636 34.5719 12.4273 34.6145 12.4975 34.6435C12.5676 34.6726 12.6428 34.6875 12.7188 34.6875H24.2812C24.3572 34.6875 24.4324 34.6726 24.5025 34.6436C24.5727 34.6145 24.6365 34.572 24.6901 34.5183C24.7438 34.4646 24.7864 34.4008 24.8155 34.3307C24.8445 34.2605 24.8594 34.1853 24.8594 34.1094V32.375C24.8589 31.9152 24.676 31.4743 24.3508 31.1492C24.0257 30.824 23.5848 30.6411 23.125 30.6406Z" fill="#424242"/>
<path d="M30.6406 26.0156C30.9599 26.0156 31.2188 25.7568 31.2188 25.4375C31.2188 25.1182 30.9599 24.8594 30.6406 24.8594C30.3213 24.8594 30.0625 25.1182 30.0625 25.4375C30.0625 25.7568 30.3213 26.0156 30.6406 26.0156Z" fill="#F44336"/>
<path d="M28.9062 26.0156C29.2255 26.0156 29.4844 25.7568 29.4844 25.4375C29.4844 25.1182 29.2255 24.8594 28.9062 24.8594C28.587 24.8594 28.3281 25.1182 28.3281 25.4375C28.3281 25.7568 28.587 26.0156 28.9062 26.0156Z" fill="#FFB300"/>
<path d="M7.6549 30.5701L7.91581 30.8098L8.44812 31.088L9.4523 31.2937L10.5412 31.1364L11.3276 30.0597V28.9345L11.013 28.0392L10.5967 27.6284C10.2783 27.4543 9.92106 27.3632 9.55814 27.3638C8.36092 27.3638 7.39038 28.3343 7.39038 29.5315C7.38977 29.8945 7.48075 30.2517 7.6549 30.5701Z" fill="#FDDCBC"/>
<path d="M10.5964 27.6284C10.7706 27.9468 10.8616 28.304 10.8611 28.667C10.8611 29.8642 9.89054 30.8347 8.69332 30.8347C8.3304 30.8352 7.97321 30.7442 7.65479 30.5701C8.02275 31.2429 8.73695 31.6993 9.55789 31.6993C10.7551 31.6993 11.7256 30.7287 11.7256 29.5315C11.7256 28.7106 11.2693 27.9964 10.5964 27.6284Z" fill="#FDDCBC"/>
<path d="M11.8612 31.6992H7.25467C6.05745 31.6992 5.08691 32.6698 5.08691 33.867V36.3552C5.08691 36.7112 5.37547 36.9997 5.73145 36.9997H6.77127L7.25467 36.6289L7.73806 36.9997H11.3778L11.8612 36.6289L12.3446 36.9997H14.0289V33.867C14.0289 32.6698 13.0584 31.6992 11.8612 31.6992Z" fill="#439BDF"/>
<path d="M16.5968 30.5701L17.0498 30.9791L17.679 31.2937L18.2597 31.5115L18.8888 31.4268L19.6026 31.1727L20.1955 30.4831L20.3164 29.7814V28.7893L20.0866 28.1602L19.5386 27.6284C19.2201 27.4543 18.863 27.3632 18.5 27.3638C17.3028 27.3638 16.3323 28.3343 16.3323 29.5315C16.3316 29.8945 16.4226 30.2517 16.5968 30.5701Z" fill="#FDDCBC"/>
<path d="M19.5386 27.6284C19.7127 27.9468 19.8037 28.304 19.8032 28.667C19.8032 29.8642 18.8327 30.8347 17.6355 30.8347C17.2725 30.8352 16.9153 30.7442 16.5969 30.5701C16.9649 31.2429 17.6791 31.6993 18.5 31.6993C19.6972 31.6993 20.6678 30.7287 20.6678 29.5315C20.6678 28.7106 20.2114 27.9964 19.5386 27.6284Z" fill="#FDDCBC"/>
<path d="M20.8033 31.6992H16.1968C14.9996 31.6992 14.0291 32.6698 14.0291 33.867V36.9997H15.7134L16.1968 36.5806L16.6802 36.9997H20.3199L20.8033 36.5806L21.2867 36.9997H22.9711V33.867C22.9712 32.6698 22.0006 31.6992 20.8033 31.6992Z" fill="#A066DB"/>
<path d="M25.5388 30.5701L26.0993 31.1122L26.9099 31.4268L27.6479 31.5115L28.5673 31.088L28.9424 30.5436L29.3053 29.7572V28.8861L28.8819 28.0513L28.4805 27.6284C28.162 27.4543 27.8048 27.3632 27.4419 27.3638C26.2447 27.3638 25.2742 28.3343 25.2742 29.5315C25.2737 29.8945 25.3647 30.2517 25.5388 30.5701Z" fill="#FDDCBC"/>
<path d="M28.4807 27.6284C28.6549 27.9468 28.7459 28.304 28.7453 28.667C28.7453 29.8642 27.7748 30.8347 26.5776 30.8347C26.2147 30.8352 25.8575 30.7442 25.5391 30.5701C25.907 31.2429 26.6212 31.6993 27.4422 31.6993C28.6394 31.6993 29.6099 30.7287 29.6099 29.5315C29.6099 28.7106 29.1535 27.9964 28.4807 27.6284Z" fill="#FDDCBC"/>
<path d="M29.7452 31.6992H25.1387C23.9415 31.6992 22.9709 32.6698 22.9709 33.867V36.9997H24.6553L25.1387 36.5806L25.6221 36.9997H29.2618L29.7452 36.5806L30.2286 36.9997H31.2684C31.6244 36.9997 31.913 36.7112 31.913 36.3552V33.867C31.913 32.6698 30.9424 31.6992 29.7452 31.6992Z" fill="#439BDF"/>
<path d="M23.1692 6.41364V17.8488C23.1692 18.3055 22.7989 18.6757 22.3422 18.6757H14.2554C13.7987 18.6757 13.4285 18.3055 13.4285 17.8488V6.41337C13.4285 5.95665 13.7987 5.58643 14.2554 5.58643H22.3419C22.7988 5.5864 23.1692 5.95676 23.1692 6.41364Z" fill="#EAF6FF"/>
<path d="M23.1694 6.4135V17.8487C23.1694 18.3053 22.7989 18.6755 22.3423 18.6755H21.4879C21.9445 18.6755 22.3147 18.3053 22.3147 17.8487V6.4135C22.3147 5.9566 21.9442 5.58643 21.4873 5.58643H22.342C22.7989 5.58643 23.1694 5.9566 23.1694 6.4135Z" fill="#C8EFFE"/>
<path d="M20.5537 6.87971V7.59078C20.5537 7.67617 20.4844 7.74539 20.3991 7.74539H16.1551C16.0697 7.74539 16.0005 7.67617 16.0005 7.59078V6.87971C16.0005 6.79432 16.0697 6.7251 16.1551 6.7251H20.399C20.4844 6.7251 20.5537 6.79432 20.5537 6.87971Z" fill="#7CA1B1"/>
<path d="M25.2249 11.42C25.1903 11.4241 25.1543 11.4193 25.12 11.4046C25.016 11.3596 24.968 11.2389 25.013 11.1348L26.5083 7.67176C26.5299 7.62167 26.5068 7.56353 26.4567 7.54191L26.0387 7.36142C25.9356 7.31688 25.8799 7.19852 25.9213 7.09406C25.9642 6.98599 26.0875 6.93546 26.1935 6.98123L26.8948 7.28405C26.9209 7.29535 26.9455 7.31081 26.965 7.33149C27.024 7.39376 27.0374 7.48167 27.0055 7.55537L25.3897 11.2975C25.3596 11.3673 25.2953 11.4118 25.2249 11.42Z" fill="#7CA1B1"/>
<path d="M20.5536 6.87968V7.59075C20.5536 7.67611 20.4844 7.74533 20.399 7.74533H19.5273C19.6127 7.74533 19.6819 7.67611 19.6819 7.59075V6.87968C19.6819 6.79432 19.6127 6.7251 19.5273 6.7251H20.399C20.4844 6.7251 20.5536 6.79432 20.5536 6.87968Z" fill="#678D98"/>
<path d="M24.2865 11.3978L21.9214 16.8753L21.04 16.7436L20.1589 16.1143L22.5238 10.6367L23.4832 10.6611L24.2865 11.3978Z" fill="#5986CB"/>
<path d="M24.2864 11.3976L21.9215 16.875L21.2213 16.5729L21.1411 16.7585L23.6916 10.8521L24.2864 11.3976Z" fill="#4278C3"/>
<path d="M26.1908 5.95427C26.2032 6.06108 26.1887 6.17265 26.1429 6.27881L25.8952 6.85251L25.2341 6.72521L24.729 6.34907L24.977 5.77506C25.0857 5.5236 25.3373 5.3783 25.5955 5.39313C25.6678 5.39682 25.7411 5.41362 25.8115 5.44396C26.0276 5.53726 26.1654 5.73605 26.1908 5.95427Z" fill="#99E6FC"/>
<path d="M26.1429 6.27869L25.895 6.85242L25.4619 6.75128L25.741 6.10524C25.787 5.99935 25.8015 5.88773 25.7889 5.78075C25.7719 5.6341 25.7041 5.49621 25.5955 5.39307C25.6677 5.3969 25.741 5.41359 25.8113 5.44396C26.0275 5.53725 26.1654 5.73615 26.1908 5.95421C26.2031 6.06119 26.1886 6.17254 26.1429 6.27869Z" fill="#62DBFB"/>
<path d="M26.1933 6.98114L24.2863 11.3975L22.5237 10.6364L24.3482 6.41146C24.3939 6.30583 24.5165 6.25715 24.6221 6.30276L26.1933 6.98114Z" fill="#80B4FB"/>
<path d="M26.1932 6.98152L24.2863 11.3979L23.5864 11.0956L25.4931 6.6792L26.1932 6.98152Z" fill="#61A2F9"/>
<path d="M21.2213 16.5728V16.5731L20.1589 16.1143L21.2213 16.5728Z" fill="#5986CB"/>
<path d="M21.9212 16.8749L20.5965 18.1198C20.4317 18.2748 20.1613 18.1581 20.1612 17.932L20.1608 17.5693L20.1587 16.1138L21.2214 16.5728L21.9212 16.8749Z" fill="#99E6FC"/>
<path d="M21.9212 16.8748L20.5965 18.1197C20.4317 18.2748 20.1614 18.158 20.1612 17.932L20.1609 17.5692L21.2213 16.5728L21.9212 16.8748Z" fill="#62DBFB"/>
<path d="M21.6258 9.20922H14.9308C14.8175 9.20922 14.7256 9.11738 14.7256 9.00402C14.7256 8.89067 14.8175 8.79883 14.9308 8.79883H21.6258C21.7391 8.79883 21.831 8.89067 21.831 9.00402C21.831 9.11738 21.7391 9.20922 21.6258 9.20922Z" fill="#7CA1B1"/>
<path d="M21.6258 10.5002H14.9308C14.8175 10.5002 14.7256 10.4084 14.7256 10.295C14.7256 10.1817 14.8175 10.0898 14.9308 10.0898H21.6258C21.7391 10.0898 21.831 10.1817 21.831 10.295C21.831 10.4084 21.7391 10.5002 21.6258 10.5002Z" fill="#7CA1B1"/>
<path d="M19.9574 11.7913H14.9308C14.8175 11.7913 14.7256 11.6994 14.7256 11.5861C14.7256 11.4727 14.8175 11.3809 14.9308 11.3809H19.9574C20.0707 11.3809 20.1626 11.4727 20.1626 11.5861C20.1626 11.6994 20.0707 11.7913 19.9574 11.7913Z" fill="#7CA1B1"/>
<path d="M16.9418 13.0823H14.9308C14.8175 13.0823 14.7256 12.9904 14.7256 12.8771C14.7256 12.7637 14.8175 12.6719 14.9308 12.6719H16.9418C17.0551 12.6719 17.147 12.7637 17.147 12.8771C17.147 12.9904 17.0552 13.0823 16.9418 13.0823Z" fill="#7CA1B1"/>
<path d="M17.0598 17.0819C17.0354 17.0819 17.0106 17.0812 16.9853 17.0797C16.6605 17.0608 16.4699 16.8918 16.3017 16.7426C16.144 16.6027 16.0193 16.4922 15.7843 16.4798C15.3321 16.4564 15.1083 16.8504 15.0989 16.8672C15.0443 16.9659 14.9199 17.0026 14.8208 16.9485C14.7218 16.8945 14.6846 16.7712 14.738 16.6719C14.7521 16.6457 15.0896 16.0326 15.8059 16.07C16.1842 16.09 16.4004 16.2816 16.574 16.4356C16.7206 16.5655 16.8264 16.6594 17.0092 16.6701C17.4952 16.6988 17.7268 16.2909 17.7291 16.2867C17.784 16.1876 17.9089 16.1518 18.008 16.2067C18.1071 16.2616 18.143 16.3865 18.088 16.4856C18.0741 16.5107 17.7495 17.0819 17.0598 17.0819Z" fill="#80B4FB"/>
<g clip-path="url(#clip0_333_10103)">
<path d="M34.7813 19C34.7813 20.1249 34.4715 21.2245 33.8912 22.1598C33.3109 23.0951 32.4861 23.8241 31.521 24.2546C30.556 24.685 29.4941 24.7977 28.4697 24.5782C27.4452 24.3588 26.5042 23.8171 25.7656 23.0217C25.027 22.2263 24.524 21.2128 24.3202 20.1096C24.1165 19.0063 24.221 17.8627 24.6208 16.8235C25.0205 15.7842 25.6974 14.896 26.5659 14.271C27.4344 13.6461 28.4555 13.3125 29.5 13.3125C30.9007 13.3125 32.244 13.9117 33.2344 14.9783C34.2248 16.0449 34.7813 17.4916 34.7813 19Z" fill="#FBFBFB"/>
<path d="M34.7813 19.0002C34.781 17.7961 34.4258 16.6231 33.7668 15.6503C33.1079 14.6774 32.1793 13.9549 31.1147 13.5868C30.0501 13.2186 28.9045 13.2239 27.8428 13.6017C26.7812 13.9796 25.8583 14.7106 25.207 15.6894C26.2241 14.9045 27.4669 14.5342 28.714 14.6443C29.9611 14.7544 31.1313 15.3379 32.016 16.2907C32.9008 17.2435 33.4426 18.5038 33.5449 19.8467C33.6471 21.1897 33.3032 22.5282 32.5744 23.6235C33.2574 23.0977 33.814 22.4039 34.1979 21.5997C34.5818 20.7956 34.7818 19.9044 34.7813 19.0002Z" fill="#E3EFFA"/>
<path d="M29.5 12.2188C30.7454 12.2187 31.9628 12.6165 32.9984 13.3616C34.0339 14.1067 34.841 15.1658 35.3176 16.4049C35.7941 17.644 35.9188 19.0075 35.6759 20.323C35.4329 21.6384 34.8332 22.8467 33.9526 23.7951C33.0719 24.7434 31.9499 25.3893 30.7285 25.6509C29.507 25.9126 28.2409 25.7783 27.0903 25.2651C25.9397 24.7518 24.9562 23.8826 24.2643 22.7675C23.5724 21.6523 23.2031 20.3412 23.2031 19C23.2031 17.2015 23.8665 15.4767 25.0474 14.2049C26.2283 12.9332 27.83 12.2188 29.5 12.2188ZM29.5 24.6875C30.5445 24.6875 31.5656 24.3539 32.4341 23.729C33.3026 23.104 33.9795 22.2158 34.3792 21.1765C34.779 20.1373 34.8835 18.9937 34.6798 17.8904C34.476 16.7872 33.973 15.7737 33.2344 14.9783C32.4958 14.1829 31.5548 13.6412 30.5303 13.4218C29.5059 13.2023 28.444 13.315 27.479 13.7454C26.5139 14.1759 25.6891 14.9049 25.1088 15.8402C24.5285 16.7755 24.2187 17.8751 24.2187 19C24.2187 20.5084 24.7752 21.9551 25.7656 23.0217C26.756 24.0883 28.0993 24.6875 29.5 24.6875Z" fill="#FCC369"/>
<path d="M29.9062 15.7623V18.886C29.9069 18.9877 29.8737 19.0862 29.8128 19.1638L28.5371 20.8351C28.499 20.8815 28.4513 20.9176 28.3978 20.9405C28.3443 20.9635 28.2866 20.9725 28.2293 20.967C28.1719 20.9614 28.1166 20.9415 28.0678 20.9087C28.0189 20.8759 27.9779 20.8312 27.9481 20.7782C27.8938 20.6821 27.8703 20.5694 27.8813 20.4576C27.8923 20.3457 27.9372 20.2408 28.009 20.1591L29.0449 18.8423C29.0769 18.803 29.0943 18.7523 29.0937 18.7001V15.7623C29.0883 15.7013 29.0948 15.6399 29.1128 15.5818C29.1308 15.5237 29.1598 15.4703 29.1981 15.425C29.2363 15.3797 29.2829 15.3436 29.3349 15.3188C29.3869 15.294 29.4431 15.2812 29.4999 15.2812C29.5568 15.2812 29.613 15.294 29.665 15.3188C29.717 15.3436 29.7636 15.3797 29.8018 15.425C29.8401 15.4703 29.8691 15.5237 29.8871 15.5818C29.9051 15.6399 29.9116 15.7013 29.9062 15.7623Z" fill="#555FA3"/>
<path d="M27.9481 20.7784C27.8938 20.6823 27.8703 20.5697 27.8813 20.4578C27.8923 20.3459 27.9372 20.2411 28.009 20.1594L29.0449 18.8425C29.0769 18.8032 29.0943 18.7526 29.0937 18.7003V15.7625C29.0937 15.673 29.1154 15.5851 29.1567 15.5074C29.1359 15.5031 29.1148 15.5006 29.0937 15.5C28.9806 15.5061 28.8744 15.5601 28.7983 15.6503C28.7222 15.7405 28.6823 15.8595 28.6874 15.9813V18.9191C28.688 18.9713 28.6707 19.0219 28.6387 19.0612L27.6028 20.3781C27.5309 20.4598 27.4861 20.5647 27.4751 20.6766C27.4641 20.7884 27.4875 20.9011 27.5418 20.9972C27.5717 21.0502 27.6127 21.0949 27.6615 21.1277C27.7104 21.1604 27.7657 21.1804 27.823 21.186C27.8803 21.1915 27.9381 21.1824 27.9915 21.1595C28.045 21.1366 28.0927 21.1005 28.1309 21.0541L28.202 20.9609C28.1503 20.951 28.101 20.9296 28.0573 20.8982C28.0136 20.8668 27.9764 20.8261 27.9481 20.7784Z" fill="#E3EFFA"/>
<path d="M29.5 12.875C28.3751 12.875 27.2755 13.2342 26.3402 13.9072C25.4049 14.5803 24.6759 15.5369 24.2454 16.6561C23.815 17.7753 23.7023 19.0068 23.9218 20.1949C24.1412 21.3831 24.6829 22.4744 25.4783 23.331C26.2737 24.1876 27.2872 24.771 28.3904 25.0073C29.4937 25.2436 30.6373 25.1223 31.6765 24.6588C32.7158 24.1952 33.604 23.4101 34.229 22.4029C34.8539 21.3956 35.1875 20.2114 35.1875 19C35.1875 17.3755 34.5883 15.8176 33.5217 14.669C32.4551 13.5203 31.0084 12.875 29.5 12.875ZM29.5 24.6875C28.4555 24.6875 27.4344 24.3539 26.5659 23.729C25.6974 23.104 25.0205 22.2158 24.6208 21.1765C24.221 20.1373 24.1165 18.9937 24.3202 17.8904C24.524 16.7872 25.027 15.7737 25.7656 14.9783C26.5042 14.1829 27.4452 13.6412 28.4697 13.4218C29.4941 13.2023 30.556 13.315 31.521 13.7454C32.4861 14.1759 33.3109 14.9049 33.8912 15.8402C34.4715 16.7755 34.7813 17.8751 34.7813 19C34.7813 20.5084 34.2248 21.9551 33.2344 23.0217C32.244 24.0883 30.9007 24.6875 29.5 24.6875Z" fill="#ED9B52"/>
<path d="M29.7031 14.4062V13.318C29.6357 13.3153 29.568 13.3125 29.5 13.3125C29.432 13.3125 29.3643 13.3153 29.2969 13.318V14.4062H29.7031Z" fill="#555FA3"/>
<path d="M29.2969 23.5938V24.682C29.3643 24.6847 29.432 24.6875 29.5 24.6875C29.568 24.6875 29.6357 24.6847 29.7031 24.682V23.5938H29.2969Z" fill="#555FA3"/>
<path d="M34.7762 18.7812H33.7656V19.2188H34.7762C34.7786 19.1461 34.7812 19.0733 34.7812 19C34.7812 18.9267 34.7786 18.8539 34.7762 18.7812Z" fill="#555FA3"/>
<path d="M25.2344 18.7812H24.2238C24.2214 18.8539 24.2188 18.9267 24.2188 19C24.2188 19.0733 24.2214 19.1461 24.2238 19.2188H25.2344V18.7812Z" fill="#555FA3"/>
</g>
<defs>
<clipPath id="clip0_333_10103">
<rect width="13" height="14" fill="white" transform="translate(23 12)"/>
</clipPath>
</defs>
</svg>
