<svg width="55" height="51" viewBox="0 0 55 51" fill="none" xmlns="http://www.w3.org/2000/svg">
<g clip-path="url(#clip0_841_130)">
<path d="M34 8.71883V42.2811C34 42.6787 33.574 43 33.0489 43H3.95113C3.42604 42.9999 3 42.6787 3 42.2811V8.71883C3 8.32125 3.42604 8 3.95113 8H33.049C33.574 8 34 8.32125 34 8.71883Z" fill="#784343"/>
<path d="M32.985 7.20947V40.7905C32.985 41.1883 32.5554 41.5098 32.026 41.5098H2.68727C2.15784 41.5098 1.72827 41.1883 1.72827 40.7905V7.20947C1.72827 6.81166 2.15784 6.49023 2.68727 6.49023H32.026C32.5554 6.49023 32.985 6.81166 32.985 7.20947Z" fill="#F8F3F1"/>
<path d="M10.4985 16.6631H6.83101C6.26541 16.6631 5.80688 16.204 5.80688 15.6377V11.9658C5.80688 11.3995 6.26541 10.9404 6.83101 10.9404H10.4985C11.0641 10.9404 11.5226 11.3995 11.5226 11.9658V15.6376C11.5226 16.204 11.0641 16.6631 10.4985 16.6631Z" fill="#35BCC7"/>
<path d="M11.523 11.966V15.6377C11.523 16.2037 11.0642 16.663 10.4989 16.663H7.85986C8.42518 16.663 8.88398 16.2037 8.88398 15.6377V11.966C8.88398 11.4 8.42518 10.9407 7.85986 10.9407H10.4989C11.0642 10.9407 11.523 11.4 11.523 11.966Z" fill="#20ABB9"/>
<path d="M8.63512 15.1835C8.45121 15.1835 8.2672 15.1132 8.12683 14.9727L7.35136 14.1963C7.0707 13.9153 7.0707 13.4597 7.35136 13.1786C7.63212 12.8976 8.0871 12.8976 8.36795 13.1786L8.63512 13.4462L11.6651 10.4125C11.9458 10.1315 12.4008 10.1315 12.6817 10.4125C12.9623 10.6935 12.9623 11.1492 12.6817 11.4302L9.14341 14.9727C9.00304 15.1133 8.81903 15.1835 8.63512 15.1835Z" fill="#FDD330"/>
<path d="M17.9325 14.7091H15.6655C15.2685 14.7091 14.9468 14.3869 14.9468 13.9895C14.9468 13.5921 15.2686 13.2699 15.6655 13.2699H17.9325C18.3296 13.2699 18.6513 13.5921 18.6513 13.9895C18.6513 14.3869 18.3296 14.7091 17.9325 14.7091Z" fill="#C9C0C7"/>
<path d="M28.5419 17.3826H15.6655C15.2685 17.3826 14.9468 17.0605 14.9468 16.6631C14.9468 16.2656 15.2686 15.9435 15.6655 15.9435H28.5419C28.9389 15.9435 29.2606 16.2656 29.2606 16.6631C29.2607 17.0604 28.9389 17.3826 28.5419 17.3826Z" fill="#C9C0C7"/>
<path d="M10.4985 27.1207H6.83101C6.26541 27.1207 5.80688 26.6617 5.80688 26.0954V22.4235C5.80688 21.8573 6.26541 21.3982 6.83101 21.3982H10.4985C11.0641 21.3982 11.5226 21.8573 11.5226 22.4235V26.0954C11.5226 26.6618 11.0641 27.1207 10.4985 27.1207Z" fill="#FCA62F"/>
<path d="M11.523 22.4238V26.0954C11.523 26.6614 11.0642 27.1208 10.4989 27.1208H7.85986C8.42518 27.1208 8.88398 26.6614 8.88398 26.0954V22.4238C8.88398 21.8578 8.42518 21.3984 7.85986 21.3984H10.4989C11.0642 21.3984 11.523 21.8578 11.523 22.4238Z" fill="#F98824"/>
<path d="M17.9325 25.1668H15.6655C15.2685 25.1668 14.9468 24.8447 14.9468 24.4472C14.9468 24.0498 15.2686 23.7277 15.6655 23.7277H17.9325C18.3296 23.7277 18.6513 24.0498 18.6513 24.4472C18.6513 24.8446 18.3296 25.1668 17.9325 25.1668Z" fill="#C9C0C7"/>
<path d="M28.5419 27.8404H15.6655C15.2685 27.8404 14.9468 27.5182 14.9468 27.1208C14.9468 26.7234 15.2686 26.4012 15.6655 26.4012H28.5419C28.9389 26.4012 29.2606 26.7234 29.2606 27.1208C29.2607 27.5182 28.9389 27.8404 28.5419 27.8404Z" fill="#C9C0C7"/>
<path d="M10.4985 36.4478H6.83101C6.26541 36.4478 5.80688 35.9887 5.80688 35.4224V31.7506C5.80688 31.1843 6.26541 30.7252 6.83101 30.7252H10.4985C11.0641 30.7252 11.5226 31.1843 11.5226 31.7506V35.4224C11.5226 35.9887 11.0641 36.4478 10.4985 36.4478Z" fill="#FEE265"/>
<path d="M11.523 31.7507V35.4223C11.523 35.9883 11.0642 36.4477 10.4989 36.4477H7.85986C8.42518 36.4477 8.88398 35.9883 8.88398 35.4223V31.7507C8.88398 31.1847 8.42518 30.7253 7.85986 30.7253H10.4989C11.0642 30.7253 11.523 31.1847 11.523 31.7507Z" fill="#FDD330"/>
<path d="M17.9325 34.4938H15.6655C15.2685 34.4938 14.9468 34.1717 14.9468 33.7743C14.9468 33.3769 15.2686 33.0547 15.6655 33.0547H17.9325C18.3296 33.0547 18.6513 33.3769 18.6513 33.7743C18.6513 34.1716 18.3296 34.4938 17.9325 34.4938Z" fill="#C9C0C7"/>
<path d="M28.5419 37.1673H15.6655C15.2685 37.1673 14.9468 36.8451 14.9468 36.4477C14.9468 36.0503 15.2686 35.7281 15.6655 35.7281H28.5419C28.9389 35.7281 29.2606 36.0503 29.2606 36.4477C29.2606 36.8451 28.9389 37.1673 28.5419 37.1673Z" fill="#C9C0C7"/>
<g clip-path="url(#clip1_841_130)">
<path d="M27.0742 47.1484C20.9679 47.1484 16 42.1805 16 36.0742C16 29.9679 20.9679 25 27.0742 25C33.1805 25 38.1484 29.9679 38.1484 36.0742C38.1484 42.1805 33.1805 47.1484 27.0742 47.1484Z" fill="#F06363"/>
<path d="M31.3958 38.5635C31.7587 38.9266 31.7587 39.5133 31.3958 39.8764C31.2147 40.0575 30.977 40.1484 30.7392 40.1484C30.5016 40.1484 30.2639 40.0575 30.0828 39.8764L27.293 37.0863L24.5031 39.8764C24.322 40.0575 24.0844 40.1484 23.8467 40.1484C23.6089 40.1484 23.3712 40.0575 23.1902 39.8764C22.8272 39.5133 22.8272 38.9266 23.1902 38.5635L25.9802 35.7735L23.1902 32.9836C22.8272 32.6205 22.8272 32.0338 23.1902 31.6707C23.5533 31.3077 24.14 31.3077 24.5031 31.6707L27.293 34.4608L30.0828 31.6707C30.446 31.3077 31.0326 31.3077 31.3958 31.6707C31.7587 32.0338 31.7587 32.6205 31.3958 32.9836L28.6057 35.7735L31.3958 38.5635Z" fill="#FAFAFA"/>
</g>
</g>
<defs>
<clipPath id="clip0_841_130">
<rect width="53.7485" height="51" fill="white" transform="translate(0.646729)"/>
</clipPath>
<clipPath id="clip1_841_130">
<rect width="22.1484" height="22.1484" fill="white" transform="translate(16 25)"/>
</clipPath>
</defs>
</svg>
