<svg width="56" height="56" viewBox="0 0 56 56" fill="none" xmlns="http://www.w3.org/2000/svg">
<path d="M0 6C0 2.68629 2.68629 0 6 0H44C50.6274 0 56 5.37258 56 12V50C56 53.3137 53.3137 56 50 56H6C2.68629 56 0 53.3137 0 50V6Z" fill="white"/>
<path d="M46.8171 31.6623C46.8171 31.6677 46.8171 31.6732 46.8171 31.6786C46.8171 32.6725 46.6108 33.6383 46.2039 34.5504C45.8999 35.2321 45.6105 35.6478 45.1079 36.2178C44.8677 36.4184 44.3373 36.1207 44.6041 35.7159C45.5027 34.5831 46.0303 33.1871 46.0303 31.6786V31.6632C46.0291 31.4635 46.2059 31.301 46.4231 31.3001H46.4243C46.6403 31.301 46.8171 31.4626 46.8171 31.6623ZM34.6538 25.8033C34.7209 25.8033 34.7881 25.787 34.8464 25.757L34.8513 25.7552C35.98 25.1534 37.2707 24.8348 38.5842 24.8348C41.131 24.8348 43.4755 26.013 44.8548 27.9871C44.9271 28.0906 45.0514 28.1532 45.1858 28.1532C45.2609 28.1532 45.3348 28.1333 45.3982 28.096C45.4862 28.0434 45.5471 27.9626 45.5701 27.8682C45.5927 27.7739 45.573 27.6767 45.5164 27.595C44.7858 26.5476 43.7746 25.6735 42.5927 25.0672C41.992 24.7595 41.3514 24.5217 40.6885 24.361C40.0051 24.1949 39.2963 24.1114 38.583 24.1114H38.5822C37.8474 24.1114 37.1187 24.2004 36.4165 24.3765C35.7342 24.5471 35.0784 24.7985 34.4661 25.1244C34.4632 25.1262 34.4592 25.128 34.4553 25.1298L34.4543 25.1307C34.3338 25.1961 34.2588 25.3159 34.2588 25.4448C34.2597 25.5074 34.2776 25.57 34.3121 25.6245C34.3832 25.7343 34.5135 25.8033 34.6538 25.8033ZM35.9425 38.1348C35.907 38.0123 35.8043 37.917 35.6739 37.8852C35.5988 37.8671 35.5347 37.8525 35.4774 37.8398C35.3095 37.8026 35.1979 37.7781 35.0014 37.6964C34.798 37.6075 34.6716 37.5339 34.481 37.4232L34.4622 37.4123C34.4029 37.3778 34.3358 37.3606 34.2657 37.3606C34.2015 37.3606 34.1393 37.376 34.084 37.4051C34.0267 37.435 33.9783 37.4785 33.9438 37.5321C33.8756 37.6392 33.8726 37.7745 33.9358 37.8843C33.9664 37.9378 34.0109 37.9823 34.0613 38.0123L34.077 38.0213C34.1847 38.0831 34.2993 38.1448 34.4177 38.2038V38.2083L34.4681 38.231C34.8918 38.4189 35.0636 38.4634 35.4922 38.5741C35.5208 38.5805 35.5504 38.5841 35.5801 38.5841C35.6156 38.5841 35.6502 38.5796 35.6828 38.5705C35.8112 38.536 35.9119 38.4389 35.9445 38.3163C35.9613 38.2573 35.9593 38.1947 35.9425 38.1348ZM32.6787 35.8638C32.6047 35.774 32.5335 35.6823 32.4644 35.5888L32.4664 35.5725C32.4062 35.4926 32.3489 35.4118 32.2926 35.3301C32.2778 35.3084 32.263 35.2856 32.2481 35.2639C32.2067 35.2012 32.1652 35.1386 32.1257 35.0742C32.1119 35.0515 32.0981 35.0297 32.0842 35.007C32.0428 34.9389 32.0032 34.8699 31.9638 34.801C31.9539 34.7837 31.945 34.7674 31.9351 34.7501C31.8877 34.6639 31.8423 34.5768 31.7988 34.4887C31.7988 34.4887 31.7988 34.4878 31.7978 34.4878C31.788 34.4669 31.7771 34.4461 31.7672 34.4252C31.7643 34.4188 31.7613 34.4125 31.7583 34.4061C31.7267 34.3371 31.6952 34.2682 31.6665 34.1983L31.6645 34.2001C31.625 34.1084 31.5875 34.0158 31.5519 33.9233C31.5431 33.9015 31.5351 33.8788 31.5273 33.8561C31.5006 33.7835 31.4749 33.71 31.4512 33.6364C31.4423 33.6101 31.4344 33.5847 31.4265 33.5584C31.4028 33.483 31.3811 33.4068 31.3603 33.3305C31.3545 33.3097 31.3485 33.2888 31.3426 33.267C31.3169 33.1681 31.2932 33.0692 31.2715 32.9693C31.2715 32.9684 31.2715 32.9684 31.2715 32.9675C31.2517 32.8713 31.234 32.7751 31.2182 32.6779C31.2132 32.6489 31.2093 32.6198 31.2053 32.5908C31.1944 32.5209 31.1856 32.451 31.1777 32.3802C31.1737 32.3466 31.1698 32.3131 31.1668 32.2786C31.1599 32.2087 31.155 32.1388 31.15 32.0689C31.1481 32.038 31.1461 32.0072 31.1441 31.9763C31.1391 31.8765 31.1362 31.7766 31.1362 31.6759C31.1362 30.5649 31.4167 29.5048 31.9697 28.5263C32.0694 28.3493 31.9944 28.1305 31.8018 28.038C31.7455 28.0107 31.6843 27.9971 31.6211 27.9971C31.4729 27.9971 31.3386 28.0725 31.2705 28.1923C30.9733 28.7187 30.7431 29.2778 30.5891 29.8542C30.4291 30.4469 30.3491 31.0596 30.3491 31.6759C30.3491 32.3611 30.4489 33.0419 30.6464 33.6954C30.6918 33.847 30.7431 33.9958 30.7984 34.1438C30.8202 34.2028 30.8468 34.2609 30.8705 34.319C30.9061 34.4061 30.9407 34.4932 30.9802 34.5795C31.0127 34.6512 31.0483 34.722 31.0838 34.7928C31.1184 34.8636 31.153 34.9344 31.1905 35.0043C31.23 35.0796 31.2735 35.1531 31.3159 35.2267C31.3406 35.2684 31.3623 35.312 31.387 35.3537C31.4008 35.3773 31.4176 35.3991 31.4315 35.4227C31.4492 35.4518 31.4651 35.4817 31.4838 35.5108C31.5065 35.5471 31.5292 35.5788 31.5519 35.6097C31.704 35.8438 31.865 36.0726 32.0447 36.2904C32.0477 36.2932 32.0497 36.2959 32.0516 36.2995L32.0546 36.3032C32.0961 36.3512 32.1514 36.3903 32.2126 36.4139C32.342 36.4638 32.4921 36.4466 32.6037 36.3685C32.658 36.3304 32.7014 36.2787 32.7281 36.2205C32.7824 36.1044 32.7636 35.9673 32.6787 35.8638ZM22.4015 33.3333C22.3956 32.9602 22.4124 32.9393 22.8113 32.9248C23.5895 32.8958 24.3677 32.8831 25.1459 32.8449C25.449 32.8295 25.6297 32.9384 25.7937 33.1644C27.035 34.8799 28.2872 36.59 29.5374 38.3C29.6253 38.4207 29.7152 38.5433 29.8247 38.6467C30.0134 38.8265 30.2237 38.841 30.4301 38.7084C30.6434 38.5723 30.6948 38.4026 30.5812 38.1684C30.5328 38.0695 30.4657 37.9778 30.4005 37.8879C29.253 36.3041 28.1015 34.7238 26.957 33.1381C26.5945 32.6353 26.6103 32.6398 27.1496 32.3185C28.224 31.6786 28.9854 30.8544 29.1256 29.6191C29.3675 27.4807 27.5495 25.7198 25.3898 25.6263C24.2709 25.5782 23.1461 25.6418 22.0242 25.6653C21.5907 25.6744 21.4574 25.806 21.4525 26.1981C21.4446 26.9007 21.4347 27.6041 21.4475 28.3066C21.4683 29.4575 21.5107 30.6085 21.5354 31.7594C21.5828 33.9287 21.6243 36.0971 21.6707 38.2664C21.6737 38.3989 21.6826 38.5342 21.7181 38.6612C21.7596 38.8083 21.8524 38.929 22.048 38.9227C22.2366 38.9172 22.3896 38.8419 22.443 38.6721C22.4825 38.5469 22.4874 38.4098 22.4854 38.2782C22.4755 37.4659 22.4598 36.6535 22.4449 35.8421C22.4301 35.0061 22.4143 34.1692 22.4015 33.3333ZM22.2909 26.956C22.2859 26.6347 22.2899 26.6066 22.6247 26.5993C23.5855 26.5793 24.5592 26.4913 25.5063 26.5975C27.7025 26.8426 28.539 28.9492 27.7282 30.3489C27.1683 31.3155 26.3131 31.8247 25.133 31.8674C24.3548 31.8955 23.5767 31.8946 22.7975 31.9046C22.3797 31.91 22.3778 31.9082 22.3699 31.5361C22.3551 30.7727 22.3432 30.0094 22.3294 29.2461C22.3166 28.4827 22.3018 27.7194 22.2909 26.956ZM13.0841 32.3984C13.1187 34.3744 13.1523 36.3503 13.1898 38.3263C13.1928 38.4825 13.2135 38.6404 13.2491 38.7929C13.2807 38.9299 13.3666 39.0352 13.5404 39.0488C13.725 39.0633 13.9028 39.0343 13.9719 38.8637C14.0381 38.6985 14.0875 38.516 14.0855 38.3417C14.0697 36.8024 14.0342 35.2621 14.0174 33.7226C14.0085 32.9285 13.8712 33.0219 14.7906 33.0065C15.5944 32.9929 16.4003 32.9993 17.2022 32.9521C17.769 32.9185 18.322 32.7805 18.8088 32.4873C19.9633 31.7939 20.5963 30.7882 20.6565 29.5483C20.7632 27.3799 19.0844 25.7806 16.6866 25.7443C15.6843 25.7289 14.68 25.7661 13.6767 25.7815C13.5453 25.7833 13.412 25.7906 13.2836 25.816C13.098 25.8523 12.9795 25.9558 12.9775 26.1437C12.9765 26.2408 12.9735 26.3379 12.9745 26.4341C13.0091 28.4219 13.0436 30.4106 13.0782 32.3984C13.0792 32.3993 13.0812 32.3984 13.0841 32.3984ZM13.8989 27.1085C13.8939 26.7337 13.9413 26.6801 14.3462 26.6783C15.2024 26.6737 16.0616 26.6456 16.9148 26.6983C18.0416 26.7672 19.1802 27.4934 19.5218 28.7986C19.8083 29.8923 19.0251 31.557 17.3621 31.9055C17.0698 31.9663 16.7627 31.9854 16.4615 31.9945C15.7623 32.0153 15.0632 32.0208 14.364 32.0271C13.9976 32.0308 13.9808 32.0162 13.9739 31.6868C13.9581 30.9116 13.9462 30.1365 13.9324 29.3613C13.9334 29.3613 13.9354 29.3613 13.9364 29.3613C13.9245 28.6107 13.9087 27.8601 13.8989 27.1085ZM19.4764 13.0661C19.9238 13.0661 20.2882 12.7311 20.2882 12.32C20.2882 11.9088 19.9238 11.5739 19.4764 11.5739H13.1869C12.6901 11.5739 12.2862 11.9451 12.2862 12.4016V24.0987C12.2862 24.5099 12.6506 24.8448 13.1098 24.8448C13.5572 24.8448 13.9216 24.5099 13.9216 24.0987V19.0539H18.959C19.351 19.0539 19.671 18.7607 19.671 18.3995V18.2933C19.671 17.932 19.352 17.6389 18.959 17.6389H13.9216V13.067H19.4764V13.0661ZM29.1809 12.3581V24.0987C29.1809 24.5099 28.8165 24.8448 28.3691 24.8448C27.9099 24.8448 27.5455 24.5099 27.5455 24.0987V14.2669L25.7907 16.1957C25.6238 16.379 25.3888 16.488 25.1192 16.4825C24.8595 16.4816 24.6155 16.3754 24.4496 16.1911L22.7175 14.2587V24.0987C22.7175 24.5099 22.3531 24.8448 21.9058 24.8448C21.4584 24.8448 21.094 24.5099 21.094 24.0987V12.3762C21.094 12.0549 21.3034 11.7699 21.6273 11.6501C21.9512 11.5303 22.3166 11.602 22.5595 11.8325L22.5822 11.8562L25.1201 14.6717L27.7174 11.8117C27.9603 11.583 28.3266 11.513 28.6486 11.6329C28.9725 11.7527 29.1809 12.0377 29.1809 12.3581ZM36.853 30.3634H35.6621V29.0573H34.7851L35.0754 29.5447H35.1318V31.9345L35.6621 32.5255V30.8009H36.853V31.9336L37.3833 32.5245V29.0554H36.853V30.3634ZM39.8425 31.2901C39.8425 31.4653 39.7763 31.6114 39.6398 31.7367C39.5034 31.862 39.3447 31.9228 39.1538 31.9228C38.9633 31.9228 38.8042 31.862 38.669 31.7376C38.5338 31.6132 38.4676 31.4671 38.4676 31.2901V29.0564H37.564L37.8543 29.5438H37.9363V31.2393C37.9363 31.4408 37.9908 31.6296 38.0994 31.8011C38.2068 31.9718 38.3561 32.1088 38.5418 32.2087C38.7275 32.3085 38.9338 32.3594 39.153 32.3594C39.3722 32.3594 39.5777 32.3085 39.7641 32.2087C39.9498 32.1088 40.0992 31.9718 40.2078 31.8011C40.3164 31.6296 40.3717 31.4408 40.3717 31.2393V29.0545H39.8412V31.2901H39.8425ZM43.7096 31.3355C43.7096 31.4735 43.6797 31.6069 43.6216 31.7331C43.5631 31.8583 43.4832 31.9682 43.3855 32.0589C43.2866 32.1506 43.1683 32.2241 43.0319 32.2777C42.8958 32.3312 42.7505 32.3585 42.6003 32.3585H40.8387V29.5619H41.3691V30.3126H42.3004C42.4159 30.3117 42.5115 30.2744 42.5947 30.1982C42.6766 30.1219 42.717 30.0339 42.717 29.9268C42.717 29.8188 42.6774 29.7298 42.5955 29.6545C42.5135 29.5792 42.4167 29.5429 42.2992 29.5429H40.8722L40.655 29.0554H42.2992C42.4699 29.0554 42.6302 29.0945 42.7751 29.1725C42.9204 29.2497 43.0359 29.3568 43.1207 29.4893C43.2046 29.6228 43.2482 29.7698 43.2482 29.9268C43.2482 30.1074 43.1941 30.2708 43.0863 30.4142C43.2494 30.4868 43.3883 30.5939 43.5001 30.7337C43.6382 30.9116 43.7096 31.1131 43.7096 31.3355ZM43.0084 30.9579C42.8946 30.8526 42.7614 30.8018 42.5995 30.8018H41.3679V31.8701H42.5995C42.7606 31.8701 42.8946 31.8193 43.0084 31.714C43.1219 31.6087 43.1772 31.4853 43.1772 31.3364C43.1772 31.1875 43.1219 31.0632 43.0084 30.9579ZM39.3564 32.8023C39.291 32.8005 39.2212 32.8849 39.2212 32.9257C39.2192 33.2933 39.2281 33.6618 39.2479 34.0295C39.2499 34.0739 39.3209 34.1602 39.3871 34.1565C39.4541 34.152 39.5026 34.0612 39.5066 34.0104C39.5195 33.8443 39.5066 33.6764 39.5034 33.5084C39.4997 33.3188 39.5054 33.1281 39.4868 32.9402C39.4828 32.8912 39.4235 32.8041 39.3564 32.8023ZM41.6089 33.4576C41.6424 33.306 41.4014 33.2162 41.2702 33.3169C40.9739 33.5457 40.6974 33.7971 40.4209 34.0467C40.3745 34.0884 40.3559 34.1674 40.3458 34.2319C40.3212 34.3898 40.4161 34.4724 40.5792 34.4379C40.6353 34.4261 40.6986 34.4007 40.7378 34.3644C41.0034 34.1184 41.2654 33.8688 41.5221 33.6146C41.5706 33.5692 41.6 33.5021 41.6089 33.4576ZM40.98 35.3156C41.2593 35.3283 41.5387 35.341 41.8983 35.3573C41.8903 35.3583 41.9645 35.3555 42.0344 35.3383C42.1531 35.3084 42.3073 35.2693 42.2726 35.135C42.2508 35.0533 42.1175 34.9889 42.0219 34.9362C41.9763 34.9108 41.9024 34.9235 41.8418 34.928C41.5508 34.9489 41.2593 34.9634 40.9699 35.0006C40.894 35.0106 40.7786 35.0832 40.7685 35.1395C40.7487 35.2557 40.8557 35.3102 40.98 35.3156ZM20.2615 11.1164L38.5495 6.6026C38.6771 6.57085 38.8075 6.55539 38.9366 6.55539C39.1954 6.55539 39.4513 6.61802 39.6834 6.74055C40.031 6.92483 40.0713 7.2207 40.1739 7.57381L46.4388 29.0518L47.1735 29.4466L40.7519 7.43131C40.6066 6.93569 40.4092 6.54449 39.9724 6.27311C39.5086 5.98448 38.9318 5.93819 38.3937 6.07071L18.7694 10.914H19.4764C19.7638 10.914 20.0314 10.9893 20.2615 11.1164ZM38.2484 34.4942C38.3255 34.4806 38.3856 34.3907 38.3925 34.3344C38.4026 34.2528 38.3868 34.1347 38.3283 34.0857C38.0243 33.8298 37.7052 33.5883 37.3823 33.3514C37.3468 33.3251 37.2342 33.3433 37.1937 33.3768C37.1503 33.4131 37.1325 33.4939 37.1364 33.5529C37.1404 33.6029 37.1828 33.6591 37.2243 33.6963C37.4771 33.9241 37.7309 34.1511 37.9916 34.3707C38.0518 34.4216 38.1297 34.515 38.2484 34.4942ZM48.3183 33.3705L47.781 33.6519L48.8851 37.4377C48.9888 37.7908 49.0817 38.1357 48.8822 38.4552C48.6816 38.7747 48.3607 39.0034 47.9764 39.0978L44.6643 39.9184C44.6889 39.7014 44.699 39.4818 44.6861 39.2576C44.6683 38.9426 44.5052 38.7466 44.211 38.6395C44.056 38.5832 43.8683 38.5424 43.7104 38.5687C43.4973 38.6041 43.4291 38.5342 43.3677 38.3708C43.1655 37.8262 42.7606 37.5993 42.1559 37.7091C41.9742 37.7418 41.8471 37.72 41.7312 37.5975C41.4697 37.3179 41.1261 37.2344 40.741 37.2417C40.4613 37.2471 40.4556 37.2444 40.4399 36.9857C40.406 36.4357 40.3814 35.8856 40.3479 35.3356C40.3204 34.8872 39.949 34.5541 39.4739 34.5414C38.9249 34.5259 38.5455 34.8146 38.4458 35.2693C38.3658 35.6333 38.4498 35.9846 38.4599 36.3422C38.4825 37.1754 38.4934 38.0086 38.5023 38.8419C38.5051 39.1042 38.4853 39.3656 38.4736 39.7023C38.3509 39.5653 38.2593 39.4799 38.1902 39.3828C37.9561 39.0533 37.7438 38.7094 37.4969 38.388C37.2441 38.0595 36.857 37.9778 36.4955 38.143C36.1074 38.32 35.9504 38.6159 36.0837 39.0098C36.4057 39.9647 36.8915 40.8514 37.4465 41.7074L18.4158 46.4201C18.0317 46.5153 17.4806 46.5454 17.133 46.3619C16.7854 46.1775 16.6037 45.841 16.5 45.4878L14.6346 39.1142C14.4736 39.489 14.0973 39.7132 13.6204 39.7132C13.5739 39.7132 13.5276 39.7114 13.4801 39.7078C13.0051 39.6706 12.6486 39.3719 12.5479 38.9299C12.5025 38.7312 12.4778 38.5324 12.4739 38.34C12.4432 36.747 12.4156 35.154 12.3879 33.5611L12.38 33.0873H12.3741L12.3425 31.282L7.76134 15.6329C7.61323 15.0992 7.59151 14.865 7.80481 14.5474C8.01516 14.2333 8.31832 14.0663 8.70148 13.971L11.5702 13.263V12.693L8.54546 13.4391C8.00725 13.5726 7.56483 13.8249 7.28537 14.2724L7.28238 14.2751C6.47658 14.8878 5.75175 16.33 6.08154 17.6761L15.1787 48.7581C15.4394 49.6496 16.4457 50.1823 17.4155 49.9425L39.8126 44.4049C39.8412 44.416 39.8699 44.4275 39.8994 44.4393C39.9095 44.4187 39.9224 44.3969 39.9349 44.3751L39.9519 44.3704C39.9498 44.3688 39.9458 44.364 39.943 44.3613C39.9696 44.3176 39.9934 44.274 39.9854 44.2372C39.9567 44.0973 39.1659 43.0789 39.0787 42.9663C38.8745 42.7011 38.6347 42.4597 38.4163 42.2029C37.8543 41.5422 37.4366 40.8042 37.0604 40.0454C36.8777 39.6769 36.7236 39.2966 36.5577 38.9217C36.4935 38.7765 36.4698 38.6449 36.6456 38.5378C36.8174 38.4334 36.9439 38.4806 37.0584 38.6077C37.1364 38.6939 37.2204 38.7774 37.2816 38.8737C37.6499 39.4445 38.0114 40.0191 38.3779 40.5918C38.4211 40.659 38.4696 40.7271 38.5297 40.7806C38.7077 40.9404 38.9415 40.8832 39.0089 40.6608C39.0343 40.5764 39.0315 40.482 39.0266 40.3931C39.0048 40.0001 38.9645 39.6079 38.9544 39.2149C38.9277 38.1684 38.908 37.121 38.8983 36.0735C38.8963 35.8166 38.9257 35.5561 38.9693 35.302C39.0048 35.0923 39.1776 34.9988 39.4335 35.0079C39.7 35.017 39.8316 35.1105 39.8493 35.3447C39.8727 35.6687 39.8707 35.9946 39.8836 36.3195C39.9163 37.1509 39.9498 37.9823 39.9854 38.8137C39.9902 38.9372 40.0439 39.0388 40.2009 39.0388C40.3628 39.0388 40.3971 38.9317 40.4072 38.8092C40.4258 38.5741 40.4407 38.3381 40.4653 38.1039C40.4952 37.828 40.6155 37.7454 40.9699 37.7445C41.2642 37.7436 41.3502 37.8117 41.372 38.1076C41.3946 38.4098 41.3926 38.7139 41.4095 39.0161C41.4156 39.1142 41.4156 39.2331 41.4745 39.303C41.5399 39.381 41.6683 39.4509 41.7708 39.4527C41.8253 39.4536 41.9121 39.3111 41.9339 39.2231C41.9633 39.1051 41.9399 38.9771 41.9456 38.8537C41.9524 38.7193 41.9516 38.5823 41.9811 38.4516C42.0336 38.2192 42.1414 38.1412 42.409 38.1094C42.6124 38.0849 42.7565 38.1875 42.807 38.3445C42.8837 38.5868 42.9245 38.841 42.9608 39.0933C42.9923 39.3139 42.9874 39.5399 43.021 39.7604C43.0298 39.8212 43.1299 39.9238 43.1691 39.9165C43.2482 39.9029 43.3479 39.8403 43.3794 39.774C43.4367 39.6524 43.4496 39.5136 43.4823 39.3828C43.5623 39.0688 43.6353 39.0216 43.993 39.0552C44.2388 39.0788 44.3099 39.1323 44.2586 39.4718C44.1795 39.9928 44.0709 40.5138 43.9159 41.0194C43.7972 41.406 43.5703 41.7645 43.421 42.145C43.2975 42.4617 43.2107 42.7911 43.1219 43.1178C43.0706 43.3076 43.18 43.5463 43.3096 43.5407C43.4242 43.5356 43.4735 43.4737 43.5021 43.3992C43.4932 43.4392 43.4811 43.4745 43.4626 43.5011L47.4888 42.5053C48.7506 41.86 49.2948 39.8185 49.2831 38.9C49.3255 38.8455 49.3658 38.7892 49.4026 38.7302C49.6819 38.2828 49.6101 37.7899 49.4647 37.2952L48.3183 33.3705ZM37.2727 35.0533C37.0643 35.0569 36.856 35.0524 36.6486 35.0669C36.5923 35.0705 36.4985 35.1305 36.4965 35.1677C36.4935 35.2212 36.5469 35.2938 36.6002 35.3274C36.6555 35.3628 36.7375 35.3746 36.8086 35.3746C37.1147 35.3746 37.4208 35.3692 37.727 35.3573C37.7971 35.3546 37.8781 35.3374 37.9315 35.2993C37.9828 35.263 38.0332 35.1876 38.0263 35.135C38.0211 35.0987 37.9206 35.0497 37.8613 35.0469C37.6647 35.0406 37.4692 35.0506 37.2727 35.0533ZM47.228 33.1817L50 31.7294L37.8514 25.2024C37.4277 25.2433 37.009 25.3177 36.6022 25.4266L46.6039 30.8009C46.8223 30.839 47.0149 30.9461 47.1529 31.0959L48.3171 31.7222L47.3604 32.2241C47.3366 32.5463 47.2922 32.8658 47.228 33.1817ZM35.4438 38.9054C35.4428 38.9045 35.4428 38.9036 35.4418 38.9018C35.4418 38.9009 35.4408 38.9009 35.4408 38.9C35.429 38.8982 35.4171 38.8963 35.4063 38.8945C35.2078 38.8437 35.0587 38.8046 34.9135 38.7593L33.8084 39.3238L33.8144 38.2537C33.7354 38.1974 33.6672 38.1239 33.6179 38.0377C33.4974 37.828 33.5043 37.5702 33.6327 37.366C33.684 37.287 33.7492 37.2199 33.8262 37.1663L33.8973 23.9744L34.9323 24.5308C35.2552 24.391 35.587 24.2703 35.9257 24.1686L33.0638 22.631L32.9927 35.7068C33.1281 35.8983 33.1537 36.1407 33.056 36.3531C33.0382 36.393 33.0145 36.4302 32.9878 36.4665L32.9839 37.2299C32.9819 37.2281 32.9789 37.2262 32.977 37.2244L32.9572 40.6608L35.267 39.4664C35.4803 39.3556 35.5584 39.1096 35.4438 38.9099C35.4448 38.9081 35.4438 38.9072 35.4438 38.9054Z" fill="url(#paint0_linear_3678_21653)"/>
<defs>
<linearGradient id="paint0_linear_3678_21653" x1="12.9269" y1="13.559" x2="38.0092" y2="42.0963" gradientUnits="userSpaceOnUse">
<stop stop-color="#8000CC"/>
<stop offset="0.6639" stop-color="#00B2B2"/>
<stop offset="1" stop-color="#0080FF"/>
</linearGradient>
</defs>
</svg>
