<svg width="24" height="24" viewBox="0 0 24 24" fill="none" xmlns="http://www.w3.org/2000/svg">
<g clip-path="url(#clip0_953_8330)">
<path d="M23.1061 9.35046L20.8011 9.07214C20.7367 9.06445 20.6829 9.01996 20.6603 8.95605C20.5496 8.64093 20.4194 8.32782 20.2736 8.02515C20.2456 7.96674 20.2518 7.90027 20.2901 7.85156L21.7267 6.02032C22.0435 5.61639 22.0087 5.03815 21.6458 4.67523L19.325 2.35437C18.9619 1.99127 18.3836 1.95648 17.9797 2.27344L16.1486 3.71008C16.0997 3.74835 16.0333 3.75458 15.975 3.72638C15.6724 3.58063 15.3591 3.45044 15.0441 3.33966C14.98 3.31732 14.9355 3.26331 14.9279 3.19904L14.6495 0.893921C14.588 0.384338 14.1544 0 13.6412 0H10.3588C9.84558 0 9.41199 0.384338 9.35046 0.893921L9.07214 3.19885C9.06445 3.26331 9.01996 3.31714 8.95605 3.33966C8.64093 3.45044 8.32782 3.58063 8.02515 3.72638C7.96674 3.75439 7.90027 3.74817 7.85156 3.7099L6.02032 2.27325C5.61639 1.9563 5.03815 1.99127 4.67523 2.35419L2.35437 4.67523C1.99127 5.03815 1.95648 5.61639 2.27344 6.02032L3.71008 7.85138C3.74835 7.90027 3.75458 7.96674 3.72638 8.02515C3.58063 8.32782 3.45044 8.64093 3.33966 8.95587C3.31714 9.01996 3.26331 9.06445 3.19904 9.07214L0.893921 9.35046C0.384338 9.41199 0 9.84558 0 10.3588V13.6412C0 14.1546 0.384338 14.588 0.893921 14.6495L3.19885 14.9279C3.26331 14.9355 3.31714 14.98 3.33966 15.0439C3.45044 15.3591 3.58063 15.6722 3.72638 15.975C3.75439 16.0333 3.74817 16.0999 3.7099 16.1486L2.27325 17.9797C1.95648 18.3836 1.99127 18.9619 2.35419 19.325L4.67505 21.6458C5.03815 22.0087 5.61639 22.0435 6.02032 21.7267L7.85138 20.2899C7.90009 20.2516 7.96674 20.2454 8.02496 20.2736C8.32764 20.4194 8.64093 20.5496 8.95587 20.6603C9.01996 20.6829 9.06445 20.7367 9.07214 20.801L9.35046 23.1061C9.41199 23.6157 9.84558 24 10.3588 24H13.6412C14.1544 24 14.588 23.6157 14.6495 23.1061L14.9279 20.8011C14.9355 20.7367 14.98 20.6829 15.0439 20.6603C15.3591 20.5496 15.6722 20.4194 15.9749 20.2736C16.0333 20.2454 16.0997 20.2518 16.1484 20.2901L17.9797 21.7267C18.3836 22.0435 18.9619 22.0087 19.3248 21.6458L21.6456 19.325C22.0087 18.9619 22.0435 18.3836 21.7266 17.9797L20.2899 16.1486C20.2516 16.0999 20.2454 16.0334 20.2736 15.975C20.4194 15.6724 20.5496 15.3591 20.6603 15.0441C20.6829 14.9802 20.7367 14.9357 20.801 14.9279L23.1061 14.6495C23.6157 14.588 24 14.1544 24 13.6412V10.3588C24 9.84558 23.6157 9.41199 23.1061 9.35046Z" fill="#42A5F5"/>
<rect x="5" y="5" width="14" height="14" rx="7" fill="white"/>
<path d="M10.6623 14.1426C10.6346 14.0492 10.5333 14.0025 10.4413 14.0211C10.1005 14.1146 9.48351 14.4228 9.30853 15.0674C9.90712 15.1515 10.4873 14.7872 10.6623 14.264C10.6715 14.2173 10.6715 14.18 10.6623 14.1426Z" fill="#98D909"/>
<path d="M8.00086 13.3394C8.02849 13.246 8.12979 13.1992 8.22188 13.2179C8.56262 13.3113 9.17963 13.6196 9.3546 14.2642C8.75601 14.3483 8.17584 13.9839 8.00086 13.4608C7.99166 13.4234 7.99166 13.3767 8.00086 13.3394Z" fill="#98D909"/>
<path d="M9.29009 16.721C9.198 16.721 9.13354 16.6463 9.12433 16.5529C9.12433 15.6187 9.13354 14.1521 9.30851 13.2273C9.32693 13.1432 9.40981 13.0778 9.5019 13.0965C9.58478 13.1152 9.64004 13.1992 9.63083 13.2833C9.45586 14.1894 9.45586 15.6467 9.45586 16.5435C9.45586 16.6463 9.38218 16.721 9.29009 16.721Z" fill="#92C400"/>
<path d="M13.6736 14.1426C13.646 14.0492 13.5447 14.0025 13.4526 14.0211C13.1119 14.1146 12.4949 14.4228 12.3199 15.0674C12.9185 15.1515 13.4986 14.7872 13.6736 14.264C13.692 14.2173 13.692 14.18 13.6736 14.1426Z" fill="#98D909"/>
<path d="M11.0214 13.3394C11.0491 13.246 11.1504 13.1992 11.2425 13.2179C11.5832 13.3113 12.2002 13.6196 12.3752 14.2642C11.7766 14.3483 11.1964 13.9839 11.0214 13.4608C11.003 13.4234 11.003 13.3767 11.0214 13.3394Z" fill="#98D909"/>
<path d="M12.3107 16.7209C12.2186 16.7209 12.1542 16.6462 12.145 16.5527C12.145 15.6186 12.1542 14.152 12.3291 13.2271C12.3476 13.1337 12.4304 13.0777 12.5133 13.0964C12.6054 13.115 12.6607 13.1991 12.6422 13.2832V13.2925C12.4673 14.1987 12.4673 15.656 12.4673 16.5527C12.4673 16.6462 12.3936 16.7209 12.3107 16.7209Z" fill="#92C400"/>
<path d="M16.6943 14.1426C16.6666 14.0492 16.5653 14.0025 16.4732 14.0211C16.1325 14.1146 15.5155 14.4228 15.3405 15.0674C15.9391 15.1515 16.5193 14.7872 16.6943 14.264C16.7035 14.2173 16.7035 14.18 16.6943 14.1426Z" fill="#98D909"/>
<path d="M14.0328 13.3394C14.0604 13.246 14.1617 13.1992 14.2538 13.2179C14.5945 13.3113 15.2115 13.6196 15.3865 14.2642C14.7879 14.3483 14.2078 13.9839 14.0328 13.4608C14.0236 13.4234 14.0236 13.3767 14.0328 13.3394Z" fill="#98D909"/>
<path d="M15.3221 16.7209C15.23 16.7209 15.1655 16.6462 15.1563 16.5527C15.1563 15.6186 15.1655 14.152 15.3405 13.2271C15.3589 13.1337 15.4418 13.0777 15.5247 13.0964C15.6168 13.115 15.672 13.1991 15.6536 13.2832V13.2925C15.4786 14.1987 15.4786 15.656 15.4786 16.5527C15.4878 16.6462 15.4142 16.7209 15.3221 16.7209Z" fill="#92C400"/>
<path d="M15.6904 16.7304C15.4326 16.4035 14.9813 16.3007 14.6222 16.4969C14.1986 16.3007 13.7105 16.3941 13.3882 16.7304H13.379C13.1211 16.4035 12.6699 16.3007 12.3107 16.4969C11.9423 16.3194 11.5095 16.3754 11.1872 16.6277C10.9201 16.3754 10.5241 16.3194 10.2018 16.4969C9.71373 16.2727 9.13356 16.4408 8.82966 16.8986C8.60864 16.9266 8.41525 17.0574 8.29553 17.2535H16.418C16.2798 16.9546 16.0035 16.7584 15.6904 16.7304Z" fill="#F4A86C"/>
<path d="M9.05988 9.60298L9.25327 8.33252L12.3199 8.96775L12.2094 9.67771L9.05988 9.60298Z" fill="#92C400"/>
<path d="M12.1818 10.0417C12.1726 10.0417 12.1634 10.0417 12.1541 10.0417C12.0621 10.0323 12.0068 9.94825 12.016 9.85484L12.1818 8.74319C12.191 8.64977 12.2739 8.59372 12.366 8.60306C12.458 8.6124 12.5133 8.69648 12.5041 8.78989V8.79924L12.3383 9.91089C12.3291 9.97628 12.2554 10.0417 12.1818 10.0417Z" fill="#92C400"/>
<path d="M8.85726 6.75348C8.34155 6.41719 7.66008 6.57599 7.32855 7.09912C6.99702 7.62225 7.15358 8.31353 7.66929 8.64983C7.6785 8.64983 7.6785 8.65917 7.68771 8.65917L8.47048 9.15427L9.63083 7.24859L8.85726 6.75348ZM8.29551 8.37892L7.9824 8.18275C7.72454 8.02394 7.64166 7.6783 7.79822 7.41674C7.95477 7.15517 8.29551 7.0711 8.55336 7.22991C8.55336 7.22991 8.56257 7.22991 8.56257 7.23925L8.87568 7.43542L8.29551 8.37892Z" fill="#92C400"/>
<path d="M9.73216 11.1348L7.14441 9.5094L7.44831 9.04232L9.14278 6.51074L11.4911 7.98671L9.99923 10.6397L9.73216 11.1348Z" fill="#98D909"/>
<path d="M10.2018 9.31312C10.1097 9.31312 10.0452 9.23839 10.0452 9.14497C10.0452 9.11695 10.0544 9.08892 10.0636 9.0609L10.3307 8.58447C10.3768 8.5004 10.4688 8.47237 10.5517 8.51908C10.6346 8.56579 10.6622 8.65921 10.6162 8.74328V8.75262L10.3491 9.22904C10.3123 9.28509 10.257 9.31312 10.2018 9.31312Z" fill="#92C400"/>
<path d="M9.73216 11.135L7.14441 9.50956L7.44831 9.04248L9.99923 10.6399L9.73216 11.135Z" fill="#92C400"/>
<path d="M17.6428 17.4217H7.0523C6.96021 17.4217 6.88654 17.347 6.88654 17.2536C6.88654 17.1602 6.96021 17.0854 7.0523 17.0854H17.6428C17.7348 17.0854 17.8085 17.1602 17.8085 17.2536C17.8085 17.347 17.7348 17.4217 17.6428 17.4217Z" fill="#D78759"/>
<path d="M12.8448 9.31322C12.9313 9.31322 13.0014 9.24212 13.0014 9.15441C13.0014 9.06671 12.9313 8.99561 12.8448 8.99561C12.7584 8.99561 12.6883 9.06671 12.6883 9.15441C12.6883 9.24212 12.7584 9.31322 12.8448 9.31322Z" fill="#42A5F5"/>
<path d="M12.7435 9.95775C12.83 9.95775 12.9001 9.88665 12.9001 9.79894C12.9001 9.71124 12.83 9.64014 12.7435 9.64014C12.6571 9.64014 12.587 9.71124 12.587 9.79894C12.587 9.88665 12.6571 9.95775 12.7435 9.95775Z" fill="#42A5F5"/>
<path d="M13.4803 10.5369C13.5667 10.5369 13.6368 10.4658 13.6368 10.378C13.6368 10.2903 13.5667 10.2192 13.4803 10.2192C13.3938 10.2192 13.3237 10.2903 13.3237 10.378C13.3237 10.4658 13.3938 10.5369 13.4803 10.5369Z" fill="#42A5F5"/>
<path d="M13.6184 9.48119C13.7049 9.48119 13.775 9.41009 13.775 9.32238C13.775 9.23467 13.7049 9.16357 13.6184 9.16357C13.5319 9.16357 13.4619 9.23467 13.4619 9.32238C13.4619 9.41009 13.5319 9.48119 13.6184 9.48119Z" fill="#42A5F5"/>
<path d="M14.3367 9.83617C14.4232 9.83617 14.4933 9.76507 14.4933 9.67736C14.4933 9.58966 14.4232 9.51855 14.3367 9.51855C14.2503 9.51855 14.1802 9.58966 14.1802 9.67736C14.1802 9.76507 14.2503 9.83617 14.3367 9.83617Z" fill="#42A5F5"/>
<path d="M14.0144 11.3122C14.1009 11.3122 14.171 11.2411 14.171 11.1534C14.171 11.0657 14.1009 10.9946 14.0144 10.9946C13.9279 10.9946 13.8578 11.0657 13.8578 11.1534C13.8578 11.2411 13.9279 11.3122 14.0144 11.3122Z" fill="#42A5F5"/>
<path d="M14.9353 10.3596C15.0218 10.3596 15.0919 10.2885 15.0919 10.2008C15.0919 10.1131 15.0218 10.042 14.9353 10.042C14.8488 10.042 14.7787 10.1131 14.7787 10.2008C14.7787 10.2885 14.8488 10.3596 14.9353 10.3596Z" fill="#42A5F5"/>
<path d="M15.3865 11.0227C15.473 11.0227 15.5431 10.9516 15.5431 10.8639C15.5431 10.7762 15.473 10.7051 15.3865 10.7051C15.3001 10.7051 15.23 10.7762 15.23 10.8639C15.23 10.9516 15.3001 11.0227 15.3865 11.0227Z" fill="#42A5F5"/>
<path d="M14.2906 12.2185C14.3771 12.2185 14.4472 12.1474 14.4472 12.0597C14.4472 11.972 14.3771 11.9009 14.2906 11.9009C14.2042 11.9009 14.1341 11.972 14.1341 12.0597C14.1341 12.1474 14.2042 12.2185 14.2906 12.2185Z" fill="#42A5F5"/>
<path d="M15.6996 11.7605C15.7861 11.7605 15.8562 11.6894 15.8562 11.6017C15.8562 11.514 15.7861 11.4429 15.6996 11.4429C15.6132 11.4429 15.5431 11.514 15.5431 11.6017C15.5431 11.6894 15.6132 11.7605 15.6996 11.7605Z" fill="#42A5F5"/>
</g>
<defs>
<clipPath id="clip0_953_8330">
<rect width="24" height="24" fill="white"/>
</clipPath>
</defs>
</svg>
