<svg width="46" height="36" viewBox="0 0 46 36" fill="none" xmlns="http://www.w3.org/2000/svg">
<path d="M37.7724 14.5774H7.70662L0.530106 36H45.1105L37.7724 14.5774Z" fill="#49BDFF"/>
<path d="M24.7563 24.0117L21.8478 23.9998L21.8423 24.0034C18.3723 24.1136 15.7409 24.6426 15.7409 25.2799C15.7409 25.9953 19.0696 26.5766 23.1782 26.5766C27.2868 26.5766 30.6155 25.9953 30.6155 25.2799C30.6155 24.6582 28.107 24.1384 24.7563 24.0117Z" fill="#A8E0FF"/>
<path d="M7.70662 14.5774L0.530106 36H3.31638L10.4929 14.5774H7.70662Z" fill="#41A9D6"/>
<path fill-rule="evenodd" clip-rule="evenodd" d="M30.0977 3.7635C33.0351 7.04189 33.4877 12.2569 31.1819 16.113C29.5826 18.7793 26.9162 22.0406 24.7257 24.8529C24.3994 25.2699 23.9432 25.4931 23.4146 25.4931C22.8823 25.4931 22.4273 25.2711 22.101 24.8529C19.9142 22.0406 17.2441 18.7793 15.6485 16.113C13.3783 12.3195 13.7364 7.10444 16.7302 3.7635C20.2098 -0.123223 26.6316 -0.109732 30.0977 3.7635Z" fill="#FF4155"/>
<path fill-rule="evenodd" clip-rule="evenodd" d="M23.4121 14.319C25.8075 14.319 27.7576 12.3652 27.7576 9.9736C27.7576 7.58196 25.8075 5.62817 23.4121 5.62817C21.0205 5.62817 19.0704 7.58196 19.0704 9.9736C19.0704 12.3652 21.0205 14.319 23.4121 14.319Z" fill="#E5F0FF"/>
<path fill-rule="evenodd" clip-rule="evenodd" d="M24.7429 24.8281L24.7257 24.8527C24.3994 25.2697 23.9432 25.4929 23.4146 25.4929C22.8823 25.4929 22.4273 25.2709 22.101 24.8527C19.9142 22.0403 17.2441 18.7791 15.6485 16.1127C13.3783 12.3192 13.7364 7.1042 16.7302 3.76326C18.7809 1.47219 21.8545 0.536387 24.7404 0.947259C22.7339 1.2318 20.8157 2.17129 19.3893 3.76326C16.3954 7.1042 16.0348 12.3192 18.305 16.1127C19.9007 18.7717 22.556 22.0232 24.7429 24.8281Z" fill="#E63B4D"/>
<path fill-rule="evenodd" clip-rule="evenodd" d="M23.4121 5.62793C23.6869 5.62793 23.9506 5.65613 24.2118 5.70151C22.1918 6.07682 20.666 7.84663 20.666 9.97458C20.666 12.1025 22.1918 13.8723 24.2118 14.2477C23.9506 14.293 23.6869 14.3212 23.4121 14.3212C21.0131 14.3212 19.0704 12.3748 19.0704 9.97581C19.0704 7.57681 21.0131 5.62793 23.4121 5.62793Z" fill="#CED8E6"/>
</svg>
