<svg width="24" height="24" viewBox="0 0 24 24" fill="none" xmlns="http://www.w3.org/2000/svg">
<g clip-path="url(#clip0_414_8107)">
<path d="M5.01184 4.95585L13.497 9.88687L22.0376 4.95592L13.5525 0.0249023L5.01184 4.95585Z" fill="#FED57A"/>
<path d="M5.01184 4.95557L5.03855 14.3782L13.5237 19.3092L13.497 9.88659L5.01184 4.95557Z" fill="#EFAC41"/>
<path d="M13.4968 9.88651L13.5235 19.3092L22.0642 14.3782L22.0375 4.95557L13.4968 9.88651Z" fill="#F9BB4A"/>
<path d="M19.6211 11.7041L19.6103 10.7368L15.9398 12.8559L15.9509 13.8232L19.6211 11.7041Z" fill="#4C7891"/>
<path d="M8.55713 2.91068L17.0451 7.83757V10.6669L17.7769 9.5856L18.4923 9.88632V7.00013L10.0043 2.07324L8.55713 2.91068Z" fill="#F9607F"/>
<path d="M11.2306 12.9053L11.2306 12.907L11.2321 12.9079L11.2306 12.9053Z" fill="#363A44"/>
<path d="M10.3988 14.1079L10.3967 14.8219L11.0142 15.1784L11.0162 14.4644L10.3988 14.1079Z" fill="#363A44"/>
<path d="M11.7866 15.5928L11.7841 16.4757L11.0157 16.0321L11.015 16.2821L12.0009 16.8513L12.0042 15.7184L11.7866 15.5928Z" fill="#363A44"/>
<path d="M11.4285 15.8983L9.97803 15.0609L9.98277 13.3896L11.4332 14.2271L11.4285 15.8983ZM10.1865 14.9376L11.2214 15.5351L11.2248 14.3459L10.1899 13.7484L10.1865 14.9376Z" fill="#363A44"/>
<path d="M11.2286 13.6245L11.2286 13.6263L11.2302 13.6254L11.2286 13.6245Z" fill="#363A44"/>
<path d="M8.94602 10.627L8.74021 10.5082L8.73682 11.7065L8.94067 11.8242L8.94134 11.5854L9.35688 11.8253L9.35756 11.5843L9.15175 11.4655L9.15242 11.229L8.94662 11.1079L8.94729 10.8737L9.15114 10.9914L9.15047 11.2256L9.36215 11.3501L9.36283 11.1091L9.56864 11.2279L9.56931 10.9914L9.36546 10.8737L9.36614 10.635L9.7758 10.8715L9.77649 10.6283L9.15514 10.2695L9.15447 10.506L8.94671 10.3861L8.94602 10.627Z" fill="#363A44"/>
<path d="M7.89771 11.9418L7.8993 11.9409L7.89771 11.9399L7.89771 11.9418Z" fill="#363A44"/>
<path d="M7.8993 11.9404L7.89771 11.9413L7.8993 11.9423L7.8993 11.9404Z" fill="#363A44"/>
<path d="M8.10627 11.8252C8.10605 11.904 8.10582 11.9829 8.1056 12.0617L8.10364 12.0606C8.24084 12.1398 8.37805 12.219 8.51918 12.3005C8.51941 12.2194 8.51962 12.1428 8.51985 12.064C8.38264 11.9848 8.24935 11.9078 8.10627 11.8252Z" fill="#363A44"/>
<path d="M6.51981 12.5522L6.5166 13.6852L7.50057 14.2533L7.50128 14.0033L6.73488 13.5608L6.73738 12.6779L6.51981 12.5522Z" fill="#363A44"/>
<path d="M7.89173 13.3754C7.89195 13.2995 7.89217 13.2214 7.8924 13.1388C7.75127 13.0574 7.61406 12.9781 7.47687 12.8989C7.47665 12.9748 7.47643 13.0529 7.4762 13.1354C7.61859 13.2177 7.75518 13.2965 7.89173 13.3754Z" fill="#363A44"/>
<path d="M7.47826 11.6957C7.47848 11.6191 7.47869 11.5448 7.47893 11.4614C7.41097 11.4222 7.34302 11.383 7.27508 11.3438C7.27486 11.4196 7.27464 11.4977 7.27441 11.578C7.34105 11.6164 7.40769 11.6549 7.47826 11.6957Z" fill="#363A44"/>
<path d="M8.31049 13.1416C8.31027 13.2204 8.31005 13.2993 8.30982 13.3781L8.30786 13.3769C8.37647 13.4166 8.44311 13.455 8.51563 13.4969C8.51586 13.4181 8.51607 13.3415 8.5163 13.2604C8.44966 13.2219 8.38497 13.1846 8.31049 13.1416Z" fill="#363A44"/>
<path d="M7.27479 11.3413L7.27319 11.3422L7.27479 11.3431L7.27479 11.3413Z" fill="#363A44"/>
<path d="M7.27319 11.3417L7.27479 11.3408L7.2732 11.3398L7.27319 11.3417Z" fill="#363A44"/>
<path d="M7.8991 12.1823C7.68741 12.0601 7.4816 11.9412 7.27383 11.8213C7.27293 12.1411 7.27203 12.4564 7.27112 12.7785C7.33972 12.8181 7.40832 12.8577 7.47693 12.8973C7.47715 12.8193 7.47736 12.7434 7.4776 12.6609C7.61676 12.7412 7.75201 12.8193 7.89117 12.8996C7.89163 12.7397 7.89207 12.5843 7.89252 12.4244C7.96504 12.4663 8.03169 12.5047 8.10225 12.5455C8.10204 12.6198 8.10182 12.6964 8.1016 12.7752C8.17216 12.816 8.23685 12.8533 8.30741 12.894C8.30784 12.7409 8.30829 12.5832 8.30875 12.4211C8.24407 12.3837 8.17939 12.3464 8.10294 12.3022C8.10318 12.2189 8.1034 12.1401 8.10362 12.0612C8.03627 12.0223 7.96711 11.9824 7.89977 11.9435C7.89956 12.0194 7.89934 12.0975 7.8991 12.1823Z" fill="#363A44"/>
<path d="M8.10773 11.3438C8.10751 11.4203 8.10729 11.4969 8.10706 11.5802C8.17762 11.621 8.2423 11.6583 8.31287 11.6991C8.31309 11.6202 8.3133 11.5459 8.31354 11.4626C8.24297 11.4218 8.17437 11.3822 8.10773 11.3438Z" fill="#363A44"/>
<path d="M7.06941 10.503C7.13605 10.5415 7.20269 10.5799 7.27129 10.6195C7.27106 10.7029 7.27085 10.7772 7.27062 10.8583C7.20593 10.8209 7.13929 10.7825 7.0707 10.7429C7.07024 10.9028 7.0698 11.0604 7.06934 11.2226C7.13728 11.2618 7.20523 11.3011 7.27319 11.3403C7.27341 11.2623 7.27362 11.1863 7.27386 11.1038C7.34441 11.1445 7.4091 11.1819 7.47967 11.2226C7.4799 11.1415 7.48011 11.0649 7.48034 10.9861C7.55285 11.028 7.61753 11.0653 7.69006 11.1072C7.68939 11.3437 7.68873 11.5779 7.68804 11.8189C7.76182 11.8615 7.82982 11.9008 7.89777 11.94C7.89844 11.7043 7.89911 11.4685 7.8998 11.2238C7.97232 11.2657 8.03897 11.3042 8.10757 11.3438C8.10779 11.2672 8.10801 11.1906 8.10824 11.1072C8.03964 11.0676 7.97299 11.0292 7.90243 10.9884C7.90266 10.9073 7.90288 10.8308 7.90311 10.7497C7.83059 10.7078 7.7659 10.6705 7.69338 10.6286C7.69317 10.7052 7.69295 10.7817 7.69272 10.8606C7.62216 10.8198 7.55551 10.7814 7.48692 10.7418C7.48713 10.6652 7.48734 10.5909 7.48757 10.512C7.34644 10.4306 7.21119 10.3525 7.07007 10.271C7.06986 10.3453 7.06965 10.4196 7.06941 10.503Z" fill="#363A44"/>
<path d="M7.89332 13.377L7.89172 13.3778L7.89332 13.3788L7.89332 13.377Z" fill="#363A44"/>
<path d="M10.1892 12.5449L10.1892 12.5467L10.1908 12.5458L10.1892 12.5449Z" fill="#363A44"/>
<path d="M10.1908 12.5464L10.1892 12.5473L10.1908 12.5482L10.1908 12.5464Z" fill="#363A44"/>
<path d="M10.609 12.5464L10.6074 12.5473L10.609 12.5482L10.609 12.5464Z" fill="#363A44"/>
<path d="M10.4083 10.7568L10.4062 11.4686L11.0237 11.8251L11.0257 11.1133L10.4083 10.7568Z" fill="#363A44"/>
<path d="M11.4397 12.5461L9.9873 11.7075L9.99204 10.0386L11.4445 10.8771L11.4397 12.5461ZM10.1977 11.5899L11.2307 12.1862L11.2341 10.9948L10.2011 10.3984L10.1977 11.5899Z" fill="#363A44"/>
<path d="M7.49176 9.0752L7.48975 9.78469L8.10913 10.1423L8.11115 9.4328L7.49176 9.0752Z" fill="#363A44"/>
<path d="M6.53043 7.41455L6.52722 8.54522L6.74479 8.67083L6.74729 7.79018L7.51564 8.23378L7.51635 7.98377L6.53043 7.41455Z" fill="#363A44"/>
<path d="M8.5231 10.8615L7.07068 10.023L7.07541 8.354L8.52783 9.19256L8.5231 10.8615ZM7.27913 9.90193L8.31405 10.4994L8.31742 9.31021L7.2825 8.7127L7.27913 9.90193Z" fill="#363A44"/>
<path d="M10.3974 13.146L10.3967 13.3802L11.02 13.7401L11.0207 13.5059L10.3974 13.146Z" fill="#363A44"/>
<path d="M9.56861 11.228L9.56726 11.7055L9.77503 11.8255L9.77638 11.348L9.56861 11.228Z" fill="#363A44"/>
<path d="M7.89172 13.3778L7.89332 13.3769L7.89173 13.376L7.89172 13.3778Z" fill="#363A44"/>
<path d="M8.32061 10.9888C8.32039 11.0676 8.32017 11.1442 8.31995 11.223C8.38659 11.2615 8.45127 11.2988 8.51988 11.3384C8.52009 11.2641 8.5203 11.1875 8.52054 11.1042C8.4539 11.0657 8.38921 11.0284 8.32061 10.9888Z" fill="#363A44"/>
<path d="M10.1905 12.7871L10.1898 13.0236L10.3976 13.1436L10.3983 12.9071C10.3277 12.8663 10.2591 12.8267 10.1905 12.7871Z" fill="#363A44"/>
<path d="M11.4357 13.98C11.4359 13.9034 11.4361 13.8291 11.4363 13.7458C11.3658 13.705 11.2991 13.6666 11.2305 13.627C11.2303 13.705 11.2301 13.7809 11.2299 13.8612C11.3004 13.9019 11.3671 13.9404 11.4357 13.98Z" fill="#363A44"/>
<path d="M9.1504 11.2256L9.15039 11.2274L9.15199 11.2265L9.1504 11.2256Z" fill="#363A44"/>
<path d="M9.15199 11.2266L9.15039 11.2275L9.15198 11.2284L9.15199 11.2266Z" fill="#363A44"/>
<path d="M11.0209 13.5034L11.0209 13.5052L11.0224 13.5061L11.0224 13.5043L11.0209 13.5034Z" fill="#363A44"/>
<path d="M9.56335 12.4233L9.5649 12.426L9.5649 12.4242L9.56335 12.4233Z" fill="#363A44"/>
<path d="M9.56336 12.4233L9.56335 12.4251L9.5649 12.426L9.56336 12.4233Z" fill="#363A44"/>
<path d="M10.1879 13.0234L10.1879 13.0252L10.1894 13.0261L10.1894 13.0243L10.1879 13.0234Z" fill="#363A44"/>
<path d="M10.1885 12.7837L10.1885 12.7855L10.19 12.7863L10.19 12.7846L10.1885 12.7837Z" fill="#363A44"/>
<path d="M8.72621 13.8579L8.72461 13.8588L8.7262 13.8597L8.72621 13.8579Z" fill="#363A44"/>
<path d="M7.89369 13.3789L8.10341 13.5L8.1041 13.259L8.30794 13.3767L8.30727 13.6155L8.72476 13.8565L8.7268 13.138L8.52295 13.0203L8.52363 12.7816L8.93329 13.0181L8.93397 12.7771L8.73405 12.6617L8.73609 11.9432L8.93994 12.0609L8.9406 11.8267L9.14641 11.9455L9.14573 12.1842L9.3535 12.3042C9.35591 12.1454 9.35833 11.9866 9.35878 11.8267L9.77432 12.0666L9.77499 11.8279L10.4003 12.1889L10.3996 12.4254L10.6074 12.5453L10.608 12.3133L11.0275 12.5555L11.0268 12.7897L11.2307 12.9074L11.2286 13.6237L11.0228 13.5049L11.0235 13.2661L10.3982 12.9051L10.3989 12.6686L10.1892 12.5453L10.1898 12.311L9.98795 12.1945L9.98729 12.4287L10.1911 12.5487C10.1909 12.6275 10.1907 12.7063 10.1885 12.784L9.98465 12.6663L9.98397 12.9073L10.1878 13.025L10.1871 13.266L9.76964 13.025L9.7676 13.7435L9.56179 13.6246L9.56112 13.8611L8.93978 13.5024L8.9391 13.7389L9.56045 14.0976L9.56112 13.8611L9.76693 13.9799L9.76556 14.4619L9.56367 14.3454L9.563 14.5819L9.76293 14.6973L9.76226 14.9338L9.34869 14.695L9.34935 14.4608L9.14158 14.3408L9.14092 14.5751L8.30787 14.0941L8.30853 13.8621L8.0988 13.741L8.09815 13.973L7.47876 13.6154L7.47944 13.3767L7.89301 13.6154L7.89369 13.3789ZM9.56519 12.4264L9.56519 12.4242L9.76904 12.5419L9.76971 12.3076L9.56586 12.1899L9.56519 12.4242L9.56324 12.423L9.56323 12.4253C9.49463 12.3857 9.42602 12.346 9.35546 12.3053C9.35697 12.4664 9.35651 12.6263 9.35607 12.7839L9.56187 12.9028L9.56323 12.4253L9.56519 12.4264ZM9.14892 13.1381L9.55858 13.3746L9.55923 13.1449L9.35538 13.0272L9.35606 12.7862L9.15025 12.6674L9.14892 13.1381ZM8.72672 13.8599L8.72605 14.0941L8.9299 14.2118L8.93057 13.9776L8.72672 13.8599L8.72672 13.8577L8.72476 13.8588L8.72672 13.8599ZM10.6093 12.5487L10.6087 12.7829L10.8125 12.9006L10.8132 12.6664L10.6093 12.5487L10.6093 12.5465L10.6073 12.5476L10.6093 12.5487Z" fill="#363A44"/>
<path d="M9.1548 10.2671L9.1532 10.268L9.15479 10.2689L9.1548 10.2671Z" fill="#363A44"/>
<path d="M9.15535 10.0329L9.15381 10.0303L9.15382 10.0315L9.15535 10.0329Z" fill="#363A44"/>
<path d="M9.15381 10.0303L9.15535 10.0329L9.15536 10.0312L9.15381 10.0303Z" fill="#363A44"/>
<path d="M9.36225 9.9113C9.29625 9.8732 9.23019 9.83506 9.15644 9.79248C9.15621 9.8728 9.15598 9.95307 9.15576 10.0312C9.22367 10.0704 9.28973 10.1086 9.36157 10.15C9.3618 10.0675 9.36203 9.98939 9.36225 9.9113Z" fill="#363A44"/>
<path d="M8.9494 9.43572C8.87687 9.39384 8.81219 9.3565 8.74359 9.31689C8.74292 9.5534 8.74226 9.78762 8.74158 10.0286C8.88074 10.109 9.01794 10.1882 9.15515 10.2674C9.15537 10.1901 9.15556 10.1127 9.1539 10.032C9.0879 9.99393 9.02182 9.95578 8.94805 9.91319C8.94851 9.75105 8.94895 9.59565 8.9494 9.43572Z" fill="#363A44"/>
<path d="M9.36385 9.91185L9.36231 9.90918L9.3623 9.91096L9.36385 9.91185Z" fill="#363A44"/>
<path d="M9.3623 9.90918L9.36385 9.91185L9.36385 9.91065L9.3623 9.90918Z" fill="#363A44"/>
<path d="M9.77642 9.91392C9.64117 9.83583 9.50593 9.75775 9.3648 9.67627C9.36458 9.75435 9.36436 9.83244 9.36414 9.91052C9.43205 9.94973 9.49811 9.98787 9.56994 10.0293C9.56972 10.1104 9.5695 10.1847 9.56927 10.2658C9.63983 10.3066 9.70648 10.345 9.77508 10.3846C9.77552 10.2292 9.77596 10.0738 9.77642 9.91392Z" fill="#363A44"/>
<path d="M11.4372 12.7901C11.3705 12.7516 11.3058 12.7142 11.2333 12.6724C11.2331 12.7504 11.2329 12.8285 11.2327 12.9066C11.2993 12.9451 11.3659 12.9836 11.4365 13.0243C11.4367 12.9455 11.437 12.8689 11.4372 12.7901Z" fill="#363A44"/>
<path d="M7.06255 12.9043C7.06234 12.9786 7.06213 13.0529 7.06189 13.1363C7.13049 13.1759 7.19518 13.2132 7.26378 13.2528C7.264 13.1763 7.26421 13.0997 7.26444 13.0209C7.19975 12.9835 7.13311 12.945 7.06255 12.9043Z" fill="#363A44"/>
<path d="M11.0327 10.0137L11.032 10.2637L11.8003 10.7073L11.7978 11.5879L12.0154 11.7136L12.0186 10.5829L11.0327 10.0137Z" fill="#363A44"/>
<g opacity="0.48">
<path d="M6.16139 16.2973L3.17896 14.3135L3.25622 12.9756L6.23865 14.9594L6.16139 16.2973Z" fill="#748BFD"/>
<path d="M6.23878 14.9594L3.25635 12.9756L8.79758 10.209L11.78 12.1928L6.23878 14.9594Z" fill="#576CFB"/>
<path d="M11.7799 12.1929L11.7026 13.5308L6.16138 16.2974L6.23864 14.9595L11.7799 12.1929Z" fill="#4562EF"/>
</g>
<path d="M3.7505 23.69L0.242432 21.6514C0.370814 21.726 0.527385 21.7808 0.717742 21.8083L4.2258 23.8469C4.03545 23.8195 3.87888 23.7646 3.7505 23.69Z" fill="#F9605E"/>
<path d="M3.75045 23.6897L0.242385 21.651C-0.582209 21.1718 -0.243477 19.8779 -0.223041 19.7998L3.28502 21.8385C3.26459 21.9165 2.92586 23.2105 3.75045 23.6897Z" fill="#F9605E"/>
<path d="M0.94165 17.5288C0.990558 17.5572 1.06799 17.5459 1.18217 17.48L4.69022 19.5187C4.57606 19.5846 4.49862 19.5959 4.44972 19.5675C3.39729 18.9559 1.99407 18.1404 0.94165 17.5288Z" fill="#F9605E"/>
<path d="M4.69407 12.4144L7.45033 14.0162C7.38071 13.9757 7.28251 13.9748 7.18202 13.9923L3.67395 11.9536C3.77445 11.9361 4.62445 12.374 4.69407 12.4144Z" fill="#5B5E71"/>
<path d="M6.43336 16.5921L2.92529 14.5535L3.67392 11.9541L7.18198 13.9928L6.43336 16.5921Z" fill="#F9605E"/>
<path d="M7.1821 13.9923C7.36628 13.9602 7.54277 13.99 7.54971 14.2117C7.55131 14.2629 7.54387 14.3243 7.52542 14.3975L7.02492 16.0947C6.99732 16.1838 6.9458 16.2593 6.88225 16.296C6.77898 16.3601 6.61614 16.4633 6.43347 16.5916L7.1821 13.9923Z" fill="#5B5E71"/>
<path d="M5.64342 17.2397C5.59584 17.2992 5.56017 17.3472 5.53642 17.3929C5.3029 17.8296 5.01011 18.4101 4.93962 18.8074C4.87689 19.1362 4.82952 19.2687 4.70288 19.511C4.6986 19.5136 4.69443 19.516 4.69025 19.5184C4.05418 19.8856 4.55842 18.5589 4.78243 18.098C5.00395 17.6409 5.61145 17.2598 5.64342 17.2397Z" fill="#748BFD"/>
<path d="M4.44964 19.5673L0.941572 17.5287C0.717978 17.3987 1.09045 16.4376 1.27426 16.0594C1.49578 15.6024 2.10327 15.2212 2.13524 15.2012L5.64331 17.2398C5.61134 17.2599 5.00384 17.641 4.78232 18.0981C4.59852 18.4763 4.22604 19.4374 4.44964 19.5673Z" fill="#F9605E"/>
<path d="M6.80445 14.1057L3.29639 12.0671C3.30612 12.0626 3.49111 11.9775 3.67407 11.9541L7.18214 13.9928C6.99917 14.0161 6.81419 14.1012 6.80445 14.1057Z" fill="#E4E8F4"/>
<path d="M0.488554 16.7642C1.65736 17.4447 2.8267 18.1242 3.99661 18.8028C3.85139 19.504 3.31336 21.7213 3.28504 21.838C2.77725 21.5429 2.26943 21.2477 1.7616 20.9526C1.10007 20.5682 0.438535 20.1837 -0.223022 19.7994C-0.194704 19.6827 0.343322 17.4653 0.488554 16.7642Z" fill="#F9605E"/>
<path d="M6.3871 14.3052L2.87903 12.2666C3.01808 12.1909 3.15716 12.1289 3.29624 12.0669L6.80431 14.1056C6.66522 14.1676 6.52615 14.2296 6.3871 14.3052Z" fill="#E4E8F4"/>
<path d="M2.87898 12.2656C4.04833 12.9452 5.21768 13.6248 6.38704 14.3043C6.34134 14.3934 5.93265 15.1231 5.26283 15.5099C5.00467 15.6589 4.70771 15.757 4.37782 15.7478L0.869751 13.7091C1.19964 13.7183 1.49661 13.6202 1.75477 13.4712C2.42458 13.0845 2.83328 12.3547 2.87898 12.2656Z" fill="#F9605E"/>
<path d="M6.07899 14.4719L2.57092 12.4332C2.67253 12.3746 2.77536 12.3185 2.87894 12.2656L6.38699 14.3043C6.28342 14.3571 6.1806 14.4132 6.07899 14.4719Z" fill="#5B5E71"/>
<path d="M0.48861 16.7647C0.576767 16.3315 0.347722 16.1035 0.154419 15.9912L3.66248 18.0299C3.85579 18.1422 4.08483 18.3702 3.99667 18.8034C2.96388 18.2032 1.93116 17.603 0.89835 17.0028C0.775427 16.9314 0.611526 16.8362 0.48861 16.7647Z" fill="#F9605E"/>
<path d="M0.154422 15.9912L3.66249 18.0299C3.54602 17.9622 3.44253 17.9365 3.42921 17.9332L-0.0788574 15.8945C-0.0655321 15.8978 0.0379576 15.9235 0.154422 15.9912Z" fill="#F9605E"/>
<path d="M3.42922 17.9326C3.46466 17.9414 4.13797 18.1086 3.99669 18.8028C3.85147 19.5039 3.31344 21.7213 3.28512 21.838C3.2615 21.9282 2.81277 23.6424 4.22586 23.8461C4.20188 23.8987 4.16473 23.9472 4.10817 23.9799C4.07144 24.0011 4.02652 24.0156 3.9717 24.0203C3.75951 24.0422 3.27518 23.9806 2.89575 23.8157C2.86365 23.8 2.83119 23.7856 2.79967 23.7704C2.68162 23.71 2.57853 23.6383 2.50385 23.5544C2.50061 23.5506 2.49728 23.5468 2.49417 23.5429C2.40925 23.4432 2.36434 23.3265 2.38177 23.1917C2.46752 22.5615 2.57251 21.7008 2.734 21.123C2.89172 20.57 3.43173 18.4381 3.43306 17.9866C3.43313 17.9644 3.43187 17.9463 3.42922 17.9326Z" fill="#525566"/>
<path d="M2.49406 23.5434L-1.01401 21.5048C-1.09893 21.4052 -1.14384 21.2884 -1.12641 21.1536C-1.04066 20.5234 -0.935673 19.6627 -0.774175 19.0849C-0.616459 18.5319 -0.076449 16.4 -0.0751183 15.9485C-0.075053 15.9263 -0.0763052 15.9082 -0.0789546 15.8945L3.42911 17.9332C3.43176 17.9469 3.43301 17.965 3.43295 17.9872C3.43162 18.4386 2.89161 20.5705 2.73389 21.1235C2.57239 21.7014 2.4674 22.5621 2.38166 23.1923C2.36423 23.3271 2.40914 23.4438 2.49406 23.5434Z" fill="#5B5E71"/>
<path d="M6.07914 14.4723C6.18075 14.4136 6.28358 14.3575 6.38716 14.3047C6.34146 14.3938 5.93275 15.1235 5.26294 15.5103C5.00479 15.6593 4.70782 15.7574 4.37793 15.7482C4.85345 15.3081 5.44414 14.8389 6.07914 14.4723Z" fill="#525566"/>
<path d="M4.37782 15.7481L0.869751 13.7095C1.34528 13.2694 1.93596 12.8002 2.57097 12.4336L6.07903 14.4723C5.44403 14.8389 4.85334 15.3081 4.37782 15.7481Z" fill="#5B5E71"/>
<path d="M6.80425 14.1051C6.81399 14.1007 6.99898 14.0155 7.18194 13.9922L6.43332 16.5916C6.15136 16.7818 5.82977 17.0315 5.64337 17.2443C5.64336 17.2397 5.00388 17.6409 4.78237 18.0979C4.55836 18.5589 4.05412 19.8856 4.69019 19.5184C4.67115 19.5704 4.63554 19.6367 4.59199 19.7167C4.37825 20.1144 3.68201 21.5405 3.71548 22.1155C3.74894 22.6906 4.54701 23.5009 4.22571 23.8464C2.81262 23.6426 3.26136 21.9285 3.28497 21.8383C3.31329 21.7216 3.85132 19.5042 3.99655 18.8031C4.13782 18.1089 3.46452 17.9417 3.42908 17.9329C3.3646 17.6455 3.03782 17.4684 3.27523 16.9976C3.38602 16.7782 3.79445 16.2863 4.37782 15.7483C4.70771 15.7575 5.00467 15.6594 5.26284 15.5104C5.93265 15.1237 6.34134 14.3939 6.38705 14.3048C6.52609 14.2291 6.66517 14.1671 6.80425 14.1051Z" fill="#D4DAE8"/>
<path d="M3.42921 17.9332L-0.0788574 15.8945C-0.143333 15.6071 -0.470115 15.43 -0.232705 14.9592C-0.121918 14.7398 0.286514 14.2479 0.869886 13.71L4.37795 15.7486C3.79458 16.2866 3.38615 16.7785 3.27536 16.9979C3.03795 17.4687 3.36473 17.6458 3.42921 17.9332Z" fill="#E4E8F4"/>
</g>
<defs>
<clipPath id="clip0_414_8107">
<rect width="24" height="24" fill="white"/>
</clipPath>
</defs>
</svg>
