<svg width="24" height="24" viewBox="0 0 24 24" fill="none" xmlns="http://www.w3.org/2000/svg">
<path d="M16.134 10.3458H8.00156L7.5 9.9375V2.4375H16.134V10.3458Z" fill="#FFE09C"/>
<path d="M15 9.9375H7.5V11.0625H16.5V2.4375H15.75V9.1875C15.75 9.60173 15.4142 9.9375 15 9.9375Z" fill="#FFD18D"/>
<path d="M16.5 1.6875H7.125C6.91791 1.6875 6.75 1.85541 6.75 2.0625V3.54511C6.75 3.91116 7.005 4.2383 7.3657 4.30083C7.66603 4.35291 7.94123 4.22616 8.1023 4.00955C8.17678 3.90938 8.32584 3.91425 8.40103 4.01391C8.53786 4.19527 8.75527 4.3125 9 4.3125C9.24356 4.3125 9.45998 4.19639 9.597 4.01658C9.67444 3.91491 9.82331 3.91575 9.90009 4.01789C10.0347 4.197 10.2494 4.3125 10.5 4.3125C10.7548 4.3125 10.9676 4.19822 11.1006 4.0208C11.1776 3.91814 11.3265 3.91669 11.4045 4.0185C11.5416 4.19723 11.7573 4.3125 12 4.3125C12.2585 4.3125 12.4704 4.19845 12.6022 4.02136C12.675 3.92362 12.826 3.92325 12.8991 4.02084C13.0319 4.19822 13.2446 4.3125 13.5 4.3125C13.7447 4.3125 13.9621 4.19527 14.099 4.01391C14.1756 3.91247 14.3244 3.91247 14.401 4.01391C14.5379 4.19527 14.7553 4.3125 15 4.3125C15.2451 4.3125 15.4627 4.19498 15.5995 4.0132C15.6758 3.91186 15.8244 3.91177 15.9012 4.01278C16.0381 4.19292 16.2554 4.3087 16.5 4.3087L16.8773 3.52237V2.40286L16.5 1.6875Z" fill="#FF5F7A"/>
<path d="M19.875 13.6875H12.375V11.4375H17.25C17.4573 11.4375 17.625 11.2696 17.625 11.0625C17.625 10.8554 17.4573 10.6875 17.25 10.6875H6.75C6.54272 10.6875 6.375 10.8554 6.375 11.0625C6.375 11.2696 6.54272 11.4375 6.75 11.4375H11.625V13.6875H4.125C3.50466 13.6875 3 14.1922 3 14.8125V17.4375H3.75V14.8125C3.75 14.6058 3.91809 14.4375 4.125 14.4375H11.625V17.4375H12.375V14.4375H19.875C20.0819 14.4375 20.25 14.6058 20.25 14.8125V17.4375H21V14.8125C21 14.1922 20.4953 13.6875 19.875 13.6875Z" fill="#ECEAEC"/>
<path d="M10.875 9.1875H9.75C9.54291 9.1875 9.375 9.01959 9.375 8.8125V6.5625C9.375 6.35541 9.54291 6.1875 9.75 6.1875H10.875C11.0821 6.1875 11.25 6.35541 11.25 6.5625V8.8125C11.25 9.01959 11.0821 9.1875 10.875 9.1875Z" fill="#7AD7EE"/>
<path d="M14.25 9.1875H13.125C12.9179 9.1875 12.75 9.01959 12.75 8.8125V6.5625C12.75 6.35541 12.9179 6.1875 13.125 6.1875H14.25C14.4571 6.1875 14.625 6.35541 14.625 6.5625V8.8125C14.625 9.01959 14.4571 9.1875 14.25 9.1875Z" fill="#7AD7EE"/>
<path d="M16.875 1.6875H16.5V4.30866C16.5415 4.3087 16.5831 4.30917 16.626 4.30219C16.9947 4.24223 17.25 3.89597 17.25 3.52237V2.0625C17.25 1.85541 17.0821 1.6875 16.875 1.6875Z" fill="#FB4455"/>
<path d="M5.19806 21.205H1.52269L1.125 20.8125V17.8125H5.19806V21.205Z" fill="#FFE09C"/>
<path d="M4.875 17.8125V20.0625C4.875 20.4767 4.53923 20.8125 4.125 20.8125H1.125V21.9375H5.625V17.8125H4.875Z" fill="#FFD18D"/>
<path d="M2.625 20.4375C2.41772 20.4375 2.25 20.6054 2.25 20.8125V21.9375H3V20.8125C3 20.6054 2.83228 20.4375 2.625 20.4375Z" fill="#7AD7EE"/>
<path d="M4.125 20.4375C3.91772 20.4375 3.75 20.6054 3.75 20.8125V21.9375H4.5V20.8125C4.5 20.6054 4.33228 20.4375 4.125 20.4375Z" fill="#7AD7EE"/>
<path d="M0.75 17.0625C0.542906 17.0625 0.375 17.2304 0.375 17.4375V18.5223C0.375 18.8959 0.630281 19.2422 0.999047 19.3022C1.26605 19.3457 1.51247 19.248 1.6755 19.0719C1.78542 18.9531 1.96359 18.9514 2.07323 19.0704C2.21025 19.2193 2.40675 19.3125 2.625 19.3125C2.84208 19.3125 3.03764 19.2203 3.17456 19.0729C3.28463 18.9544 3.46247 18.9554 3.57206 19.0743C3.70711 19.2209 3.90178 19.3125 4.125 19.3125C4.35159 19.3125 4.54495 19.2221 4.67855 19.0773C4.78861 18.958 4.96631 18.9562 5.07722 19.0748C5.21409 19.2211 5.40886 19.3125 5.625 19.3125L6.03286 18.2118L5.625 17.0625H0.75Z" fill="#FF5F7A"/>
<path d="M6 17.0625H5.625V19.3125C6.06858 19.3125 6.375 18.9767 6.375 18.5625V17.4375C6.375 17.2304 6.20709 17.0625 6 17.0625Z" fill="#FB4455"/>
<path d="M6.375 22.3125H0.375C0.167719 22.3125 0 22.1446 0 21.9375C0 21.7304 0.167719 21.5625 0.375 21.5625H6.375C6.58228 21.5625 6.75 21.7304 6.75 21.9375C6.75 22.1446 6.58228 22.3125 6.375 22.3125Z" fill="#ECEAEC"/>
<path d="M13.8231 21.205H10.1477L9.75 20.8125V17.8125H13.8231V21.205Z" fill="#FFE09C"/>
<path d="M13.5 17.8125V20.0625C13.5 20.4767 13.1642 20.8125 12.75 20.8125H9.75V21.9375H14.25V17.8125H13.5Z" fill="#FFD18D"/>
<path d="M11.25 20.4375C11.0427 20.4375 10.875 20.6054 10.875 20.8125V21.9375H11.625V20.8125C11.625 20.6054 11.4573 20.4375 11.25 20.4375Z" fill="#7AD7EE"/>
<path d="M12.75 20.4375C12.5427 20.4375 12.375 20.6054 12.375 20.8125V21.9375H13.125V20.8125C13.125 20.6054 12.9573 20.4375 12.75 20.4375Z" fill="#7AD7EE"/>
<path d="M9.375 17.0625C9.16791 17.0625 9 17.2304 9 17.4375V18.5223C9 18.8959 9.25528 19.2422 9.62405 19.3022C9.89105 19.3457 10.1375 19.248 10.3005 19.0719C10.4104 18.9531 10.5886 18.9514 10.6982 19.0704C10.8353 19.2193 11.0317 19.3125 11.25 19.3125C11.4671 19.3125 11.6626 19.2203 11.7996 19.0729C11.9096 18.9544 12.0875 18.9554 12.1971 19.0743C12.3321 19.2209 12.5268 19.3125 12.75 19.3125C12.9766 19.3125 13.17 19.2221 13.3035 19.0773C13.4136 18.958 13.5913 18.9562 13.7022 19.0748C13.8391 19.2211 14.0339 19.3125 14.25 19.3125L14.6579 18.2118L14.25 17.0625H9.375Z" fill="#FF5F7A"/>
<path d="M14.625 17.0625H14.25V19.3125C14.6936 19.3125 15 18.9767 15 18.5625V17.4375C15 17.2304 14.8321 17.0625 14.625 17.0625Z" fill="#FB4455"/>
<path d="M15 22.3125H9C8.79272 22.3125 8.625 22.1446 8.625 21.9375C8.625 21.7304 8.79272 21.5625 9 21.5625H15C15.2073 21.5625 15.375 21.7304 15.375 21.9375C15.375 22.1446 15.2073 22.3125 15 22.3125Z" fill="#ECEAEC"/>
<path d="M22.4481 21.205H18.7727L18.375 20.8125V17.8125H22.4481V21.205Z" fill="#FFE09C"/>
<path d="M22.125 17.8125V20.0625C22.125 20.4767 21.7892 20.8125 21.375 20.8125H18.375V21.9375H22.875V17.8125H22.125Z" fill="#FFD18D"/>
<path d="M19.875 20.4375C19.6677 20.4375 19.5 20.6054 19.5 20.8125V21.9375H20.25V20.8125C20.25 20.6054 20.0823 20.4375 19.875 20.4375Z" fill="#7AD7EE"/>
<path d="M21.375 20.4375C21.1677 20.4375 21 20.6054 21 20.8125V21.9375H21.75V20.8125C21.75 20.6054 21.5823 20.4375 21.375 20.4375Z" fill="#7AD7EE"/>
<path d="M18 17.0625C17.7929 17.0625 17.625 17.2304 17.625 17.4375V18.5223C17.625 18.8959 17.8803 19.2422 18.249 19.3022C18.516 19.3457 18.7625 19.248 18.9255 19.0719C19.0354 18.9531 19.2136 18.9514 19.3232 19.0704C19.4603 19.2193 19.6567 19.3125 19.875 19.3125C20.0921 19.3125 20.2876 19.2203 20.4246 19.0729C20.5346 18.9544 20.7125 18.9554 20.8221 19.0743C20.9571 19.2209 21.1518 19.3125 21.375 19.3125C21.6016 19.3125 21.795 19.2221 21.9285 19.0773C22.0386 18.958 22.2163 18.9562 22.3272 19.0748C22.4641 19.2211 22.6589 19.3125 22.875 19.3125L23.2829 18.2118L22.875 17.0625H18Z" fill="#FF5F7A"/>
<path d="M23.25 17.0625H22.875V19.3125C23.3186 19.3125 23.625 18.9767 23.625 18.5625V17.4375C23.625 17.2304 23.4571 17.0625 23.25 17.0625Z" fill="#FB4455"/>
<path d="M23.625 22.3125H17.625C17.4177 22.3125 17.25 22.1446 17.25 21.9375C17.25 21.7304 17.4177 21.5625 17.625 21.5625H23.625C23.8323 21.5625 24 21.7304 24 21.9375C24 22.1446 23.8323 22.3125 23.625 22.3125Z" fill="#ECEAEC"/>
</svg>
