<svg width="16" height="17" viewBox="0 0 16 17" fill="none" xmlns="http://www.w3.org/2000/svg">
<path d="M16 3.66154V14.9327C16 15.2102 15.775 15.4352 15.4975 15.4352H5.8176C5.54007 15.4352 5.31511 15.2102 5.31511 14.9327V1.30815C5.31511 1.03063 5.54007 0.805664 5.8176 0.805664H13.1424L16 3.66154Z" fill="#F2F0F0"/>
<path opacity="0.08" d="M15.207 2.86914V15.4353H15.4975C15.775 15.4353 16 15.2103 16 14.9328V3.66165L15.207 2.86914Z" fill="black"/>
<path d="M16 3.66154H13.6449C13.3674 3.66154 13.1424 3.43658 13.1424 3.15905V0.805664L16 3.66154Z" fill="#E5E3E5"/>
<path d="M10.739 4.02069C10.739 5.24096 9.7495 6.23035 8.5293 6.23035C7.31738 6.23035 6.32079 5.25057 6.32079 4.02069C6.32079 2.80087 7.3095 1.81104 8.5293 1.81104C9.75027 1.81106 10.739 2.80087 10.739 4.02069Z" fill="#13BD79"/>
<path opacity="0.08" d="M10.7395 4.02167C10.7395 4.58986 10.5242 5.10846 10.1725 5.49965C9.82976 5.87957 9.34497 6.15013 8.7903 6.21554C8.77002 6.21781 8.7497 6.22004 8.72942 6.22119C8.69335 6.22568 8.65616 6.22795 8.61782 6.22907C8.58851 6.23018 8.5592 6.23018 8.52989 6.23018C8.49946 6.23018 8.469 6.23018 8.43857 6.22907C8.41038 6.22795 8.38222 6.22568 8.35514 6.22342C8.36302 6.22342 8.36981 6.2223 8.37769 6.22116C8.39797 6.22004 8.41826 6.21778 8.43857 6.21551C8.9921 6.15013 9.47689 5.87954 9.81959 5.49962C10.1724 5.10843 10.3867 4.58984 10.3867 4.02164C10.3867 2.86044 9.49153 1.90894 8.35291 1.81989C8.41153 1.81425 8.47015 1.81201 8.52992 1.81201C9.74971 1.81201 10.7395 2.8007 10.7395 4.02167Z" fill="black"/>
<path d="M9.30438 3.46573L9.20175 3.93332C9.13307 4.24892 8.85299 4.47421 8.52969 4.47421C8.21506 4.47421 7.92892 4.25809 7.85763 3.93332L7.75499 3.46573C7.66162 3.03671 7.98801 2.63086 8.42782 2.63086H8.63229C9.07136 2.63086 9.39852 3.03671 9.30438 3.46573Z" fill="white"/>
<path d="M10.3365 5.29248C9.93722 5.86038 9.27348 6.23046 8.52931 6.23046C7.78413 6.23046 7.11545 5.85627 6.72327 5.2936L6.79091 5.09968C6.9014 4.78288 7.20127 4.56982 7.53724 4.56982H7.87318C7.94759 4.56982 8.01862 4.60704 8.06033 4.67016L8.34218 5.09066C8.43126 5.22369 8.62741 5.22369 8.71646 5.09066L8.99943 4.67016C9.04114 4.60704 9.11102 4.56982 9.18658 4.56982H9.52367C9.85961 4.56982 10.1584 4.78176 10.2689 5.09968L10.3365 5.29248Z" fill="white"/>
<path d="M9.13752 8.91759C9.13752 9.68237 8.5174 10.3025 7.75265 10.3025C6.9931 10.3025 6.36848 9.6884 6.36848 8.91759C6.36848 8.15309 6.98813 7.53271 7.75265 7.53271C8.51788 7.53271 9.13752 8.15309 9.13752 8.91759Z" fill="#F96464"/>
<path opacity="0.08" d="M9.13722 8.91734C9.13722 9.6828 8.5176 10.3024 7.75305 10.3024C7.68338 10.3024 7.61464 10.2969 7.54776 10.2876C8.21476 10.1882 8.72754 9.61315 8.72754 8.91734C8.72754 8.22246 8.21568 7.64745 7.54776 7.54805C7.61464 7.53876 7.68338 7.5332 7.75305 7.5332C8.5176 7.53317 9.13722 8.15279 9.13722 8.91734Z" fill="black"/>
<path d="M7.34752 9.45444L7.03271 9.07043C6.96765 8.99105 6.97927 8.87398 7.05861 8.80892C7.13799 8.74383 7.25497 8.75545 7.32012 8.83483L7.50486 9.06023L8.19824 8.36694C8.27074 8.29435 8.38848 8.29435 8.46095 8.36694C8.53353 8.43947 8.53353 8.55712 8.46095 8.62965L7.62258 9.46799C7.54479 9.54578 7.41714 9.53925 7.34752 9.45444Z" fill="white"/>
<path d="M14.9466 8.2342C14.9466 8.0536 14.8002 7.90723 14.6196 7.90723H10.1194C9.93881 7.90723 9.79243 8.05363 9.79243 8.2342C9.79243 8.4148 9.93884 8.56118 10.1194 8.56118H14.6196C14.8002 8.56118 14.9466 8.41477 14.9466 8.2342Z" fill="#E5E3E5"/>
<path d="M12.9234 9.6009C12.9234 9.4203 12.777 9.27393 12.5964 9.27393H10.1194C9.93881 9.27393 9.79243 9.42033 9.79243 9.6009C9.79243 9.7815 9.93884 9.92788 10.1194 9.92788H12.5964C12.777 9.92788 12.9234 9.7815 12.9234 9.6009Z" fill="#E5E3E5"/>
<path opacity="0.08" d="M14.9459 8.23434C14.9459 8.41523 14.8001 8.56096 14.6192 8.56096H13.9811C14.1603 8.56096 14.3077 8.41523 14.3077 8.23434C14.3077 8.05345 14.1603 7.90771 13.9811 7.90771H14.6192C14.8001 7.90771 14.9459 8.05342 14.9459 8.23434Z" fill="black"/>
<path opacity="0.08" d="M12.9226 9.60125C12.9226 9.78046 12.7769 9.92787 12.596 9.92787H11.9578C12.1371 9.92787 12.2845 9.78049 12.2845 9.60125C12.2845 9.42036 12.1371 9.27295 11.9578 9.27295H12.596C12.7769 9.27295 12.9226 9.42036 12.9226 9.60125Z" fill="black"/>
<path d="M9.13752 12.7477C9.13752 13.5124 8.5174 14.1325 7.75265 14.1325C6.9931 14.1325 6.36848 13.5185 6.36848 12.7477C6.36848 11.9832 6.98813 11.3628 7.75265 11.3628C8.51788 11.3628 9.13752 11.9832 9.13752 12.7477Z" fill="#F96464"/>
<path opacity="0.08" d="M9.13722 12.7474C9.13722 13.5129 8.5176 14.1325 7.75305 14.1325C7.68338 14.1325 7.61464 14.1269 7.54776 14.1176C8.21476 14.0182 8.72754 13.4432 8.72754 12.7474C8.72754 12.0525 8.21568 11.4775 7.54776 11.3781C7.61464 11.3688 7.68338 11.3633 7.75305 11.3633C8.5176 11.3633 9.13722 11.9829 9.13722 12.7474Z" fill="black"/>
<path d="M7.34752 13.2845L7.03271 12.9005C6.96765 12.8211 6.97927 12.7041 7.05861 12.639C7.13799 12.5739 7.25497 12.5855 7.32012 12.6649L7.50486 12.8903L8.19824 12.197C8.27074 12.1244 8.38848 12.1244 8.46095 12.197C8.53353 12.2695 8.53353 12.3872 8.46095 12.4597L7.62258 13.2981C7.54479 13.3759 7.41714 13.3693 7.34752 13.2845Z" fill="white"/>
<path d="M14.9466 12.0643C14.9466 11.8837 14.8002 11.7373 14.6196 11.7373H10.1194C9.93881 11.7373 9.79243 11.8837 9.79243 12.0643C9.79243 12.2449 9.93884 12.3913 10.1194 12.3913H14.6196C14.8002 12.3913 14.9466 12.2449 14.9466 12.0643Z" fill="#E5E3E5"/>
<path d="M12.9234 13.431C12.9234 13.2504 12.777 13.104 12.5964 13.104H10.1194C9.93881 13.104 9.79243 13.2504 9.79243 13.431C9.79243 13.6116 9.93884 13.758 10.1194 13.758H12.5964C12.777 13.758 12.9234 13.6115 12.9234 13.431Z" fill="#E5E3E5"/>
<path opacity="0.08" d="M14.9459 12.0644C14.9459 12.2453 14.8001 12.391 14.6192 12.391H13.9811C14.1603 12.391 14.3077 12.2453 14.3077 12.0644C14.3077 11.8835 14.1603 11.7378 13.9811 11.7378H14.6192C14.8001 11.7378 14.9459 11.8835 14.9459 12.0644Z" fill="black"/>
<path opacity="0.08" d="M12.9226 13.4313C12.9226 13.6105 12.7769 13.7579 12.596 13.7579H11.9578C12.1371 13.7579 12.2845 13.6106 12.2845 13.4313C12.2845 13.2504 12.1371 13.103 11.9578 13.103H12.596C12.7769 13.1031 12.9226 13.2504 12.9226 13.4313Z" fill="black"/>
</svg>
