<svg width="40" height="44" viewBox="0 0 40 44" fill="none" xmlns="http://www.w3.org/2000/svg">
<g clip-path="url(#clip0_1063_52)">
<path d="M23.6691 0H4.4587C2.33676 0 0.616623 1.73138 0.616623 3.86719V40.1328C0.616623 42.2686 2.33676 44 4.4587 44H30.0725C32.1945 44 33.9146 42.2686 33.9146 40.1328V10.3125L23.6691 0Z" fill="#E4F2F9"/>
<path d="M23.6691 0V9.02344C23.6691 9.73534 24.2425 10.3125 24.9498 10.3125H33.9146L23.6691 0Z" fill="#77BEE2"/>
<path d="M26.6574 25.9531H7.87388C7.16659 25.9531 6.59319 25.376 6.59319 24.6641C6.59319 23.9522 7.16659 23.375 7.87388 23.375H26.6574C27.3646 23.375 27.9381 23.9522 27.9381 24.6641C27.9381 25.376 27.3646 25.9531 26.6574 25.9531Z" fill="#5F5F82"/>
<path d="M26.6574 18.2188H7.87388C7.16659 18.2188 6.59319 17.6416 6.59319 16.9297C6.59319 16.2178 7.16659 15.6406 7.87388 15.6406H26.6574C27.3646 15.6406 27.9381 16.2178 27.9381 16.9297C27.9381 17.6416 27.3646 18.2188 26.6574 18.2188Z" fill="#5F5F82"/>
<path d="M26.6574 33.6875H7.87388C7.16659 33.6875 6.59319 33.1103 6.59319 32.3984C6.59319 31.6865 7.16659 31.1094 7.87388 31.1094H26.6574C27.3646 31.1094 27.9381 31.6865 27.9381 32.3984C27.9381 33.1103 27.3646 33.6875 26.6574 33.6875Z" fill="#5F5F82"/>
<path d="M27.9381 24.6641C27.9381 23.9522 27.3646 23.375 26.6574 23.375H17.2656V25.9531H26.6574C27.3646 25.9531 27.9381 25.376 27.9381 24.6641Z" fill="#3C3C55"/>
<path d="M27.9381 16.9297C27.9381 16.2178 27.3646 15.6406 26.6574 15.6406H17.2656V18.2188H26.6574C27.3646 18.2188 27.9381 17.6416 27.9381 16.9297Z" fill="#3C3C55"/>
<path d="M26.6574 33.6875C27.3646 33.6875 27.9381 33.1103 27.9381 32.3984C27.9381 31.6865 27.3646 31.1094 26.6574 31.1094H17.2656V33.6875H26.6574Z" fill="#3C3C55"/>
</g>
<g clip-path="url(#clip1_1063_52)">
<path d="M38.2188 33.5C38.2188 35.0266 37.7661 36.519 36.9179 37.7883C36.0698 39.0576 34.8643 40.047 33.4538 40.6312C32.0434 41.2154 30.4914 41.3683 28.9942 41.0704C27.4969 40.7726 26.1215 40.0375 25.042 38.958C23.9625 37.8785 23.2274 36.5031 22.9296 35.0059C22.6317 33.5086 22.7846 31.9566 23.3688 30.5462C23.953 29.1357 24.9424 27.9302 26.2117 27.0821C27.481 26.2339 28.9734 25.7812 30.5 25.7812C32.5471 25.7812 34.5104 26.5945 35.958 28.042C37.4055 29.4896 38.2188 31.4529 38.2188 33.5Z" fill="#FBFBFB"/>
<path d="M38.2187 33.5C38.2182 31.8658 37.6991 30.2739 36.736 28.9537C35.773 27.6334 34.4158 26.6528 32.8598 26.1532C31.3039 25.6536 29.6295 25.6607 28.0778 26.1735C26.5262 26.6863 25.1773 27.6784 24.2255 29.0068C25.712 27.9416 27.5285 27.4389 29.3511 27.5884C31.1737 27.7379 32.884 28.5297 34.1772 29.8228C35.4703 31.1159 36.2621 32.8263 36.4116 34.6489C36.561 36.4715 36.0584 38.288 34.9932 39.7744C35.9915 39.0609 36.805 38.1193 37.3661 37.028C37.9271 35.9366 38.2194 34.7271 38.2187 33.5Z" fill="#E3EFFA"/>
<path d="M30.5 24.2969C32.3202 24.2969 34.0995 24.8366 35.613 25.8479C37.1264 26.8591 38.306 28.2965 39.0026 29.9781C39.6991 31.6598 39.8814 33.5102 39.5263 35.2954C39.1712 37.0807 38.2947 38.7205 37.0076 40.0076C35.7205 41.2947 34.0807 42.1712 32.2954 42.5263C30.5102 42.8814 28.6598 42.6991 26.9781 42.0026C25.2965 41.306 23.8591 40.1264 22.8479 38.613C21.8366 37.0995 21.2969 35.3202 21.2969 33.5C21.2969 31.0592 22.2665 28.7183 23.9924 26.9924C25.7183 25.2665 28.0592 24.2969 30.5 24.2969ZM30.5 41.2188C32.0266 41.2188 33.519 40.7661 34.7883 39.9179C36.0576 39.0698 37.047 37.8643 37.6312 36.4538C38.2154 35.0434 38.3683 33.4914 38.0704 31.9941C37.7726 30.4969 37.0375 29.1215 35.958 28.042C34.8785 26.9625 33.5031 26.2274 32.0059 25.9296C30.5086 25.6317 28.9566 25.7846 27.5462 26.3688C26.1357 26.953 24.9302 27.9424 24.0821 29.2117C23.2339 30.481 22.7812 31.9734 22.7812 33.5C22.7812 35.5471 23.5945 37.5104 25.042 38.958C26.4896 40.4055 28.4529 41.2188 30.5 41.2188Z" fill="#FCC369"/>
<path d="M31.0937 29.1062V33.3456C31.0948 33.4836 31.0463 33.6173 30.9572 33.7226L29.0928 35.9908C29.0371 36.0538 28.9673 36.1028 28.8892 36.1339C28.811 36.165 28.7266 36.1773 28.6428 36.1698C28.559 36.1623 28.4782 36.1352 28.4068 36.0907C28.3354 36.0462 28.2755 35.9855 28.2319 35.9136C28.1525 35.7832 28.1182 35.6303 28.1343 35.4784C28.1504 35.3266 28.216 35.1843 28.3209 35.0734L29.835 33.2862C29.8817 33.2329 29.9071 33.1642 29.9062 33.0933V29.1062C29.8984 29.0235 29.9079 28.9401 29.9342 28.8613C29.9604 28.7825 30.0029 28.71 30.0588 28.6486C30.1147 28.5871 30.1828 28.538 30.2588 28.5044C30.3348 28.4708 30.4169 28.4534 30.5 28.4534C30.5831 28.4534 30.6652 28.4708 30.7412 28.5044C30.8172 28.538 30.8853 28.5871 30.9412 28.6486C30.9971 28.71 31.0396 28.7825 31.0658 28.8613C31.0921 28.9401 31.1016 29.0235 31.0937 29.1062Z" fill="#555FA3"/>
<path d="M28.2319 35.9136C28.1525 35.7832 28.1182 35.6303 28.1343 35.4785C28.1504 35.3266 28.216 35.1843 28.3209 35.0734L29.835 33.2862C29.8817 33.2329 29.9071 33.1642 29.9062 33.0933V29.1063C29.9062 28.9848 29.938 28.8655 29.9983 28.7601C29.9679 28.7542 29.9372 28.7508 29.9062 28.75C29.741 28.7582 29.5858 28.8316 29.4745 28.954C29.3632 29.0764 29.305 29.2379 29.3125 29.4031V33.3902C29.3133 33.4611 29.288 33.5298 29.2412 33.5831L27.7272 35.3703C27.6222 35.4812 27.5567 35.6235 27.5406 35.7753C27.5245 35.9271 27.5587 36.08 27.6381 36.2105C27.6818 36.2824 27.7417 36.343 27.8131 36.3875C27.8845 36.432 27.9653 36.4591 28.0491 36.4666C28.1329 36.4742 28.2172 36.4619 28.2954 36.4308C28.3736 36.3997 28.4433 36.3507 28.4991 36.2877L28.603 36.1612C28.5274 36.1477 28.4554 36.1188 28.3915 36.0762C28.3277 36.0336 28.2733 35.9782 28.2319 35.9136Z" fill="#E3EFFA"/>
<path d="M30.5 25.1875C28.8559 25.1875 27.2488 25.675 25.8818 26.5884C24.5148 27.5018 23.4494 28.8 22.8203 30.3189C22.1911 31.8379 22.0265 33.5092 22.3472 35.1217C22.668 36.7342 23.4597 38.2153 24.6222 39.3778C25.7847 40.5403 27.2658 41.332 28.8783 41.6528C30.4908 41.9735 32.1621 41.8089 33.6811 41.1797C35.2 40.5506 36.4982 39.4852 37.4116 38.1182C38.325 36.7512 38.8125 35.1441 38.8125 33.5C38.8125 31.2954 37.9367 29.1811 36.3778 27.6222C34.8189 26.0633 32.7046 25.1875 30.5 25.1875ZM30.5 41.2188C28.9734 41.2188 27.481 40.7661 26.2117 39.9179C24.9424 39.0698 23.953 37.8643 23.3688 36.4538C22.7846 35.0434 22.6317 33.4914 22.9296 31.9941C23.2274 30.4969 23.9625 29.1215 25.042 28.042C26.1215 26.9625 27.4969 26.2274 28.9942 25.9296C30.4914 25.6317 32.0434 25.7846 33.4538 26.3688C34.8643 26.953 36.0698 27.9424 36.9179 29.2117C37.7661 30.481 38.2188 31.9734 38.2188 33.5C38.2188 35.5471 37.4055 37.5104 35.958 38.958C34.5104 40.4055 32.5471 41.2188 30.5 41.2188Z" fill="#ED9B52"/>
<path d="M30.7969 27.2656V25.7887C30.6983 25.7851 30.5995 25.7812 30.5 25.7812C30.4005 25.7812 30.3017 25.7851 30.2031 25.7887V27.2656H30.7969Z" fill="#555FA3"/>
<path d="M30.2031 39.7344V41.2113C30.3017 41.2149 30.4005 41.2188 30.5 41.2188C30.5995 41.2188 30.6983 41.2149 30.7969 41.2113V39.7344H30.2031Z" fill="#555FA3"/>
<path d="M38.2113 33.2031H36.7344V33.7969H38.2113C38.2149 33.6983 38.2188 33.5995 38.2188 33.5C38.2188 33.4005 38.2149 33.3017 38.2113 33.2031Z" fill="#555FA3"/>
<path d="M24.2656 33.2031H22.7887C22.7851 33.3017 22.7812 33.4005 22.7812 33.5C22.7812 33.5995 22.7851 33.6983 22.7887 33.7969H24.2656V33.2031Z" fill="#555FA3"/>
</g>
<defs>
<clipPath id="clip0_1063_52">
<rect width="34" height="44" fill="white"/>
</clipPath>
<clipPath id="clip1_1063_52">
<rect width="19" height="19" fill="white" transform="translate(21 24)"/>
</clipPath>
</defs>
</svg>
