<svg width="60" height="60" viewBox="0 0 60 60" fill="none" xmlns="http://www.w3.org/2000/svg">
<path d="M55.3521 25.7143C55.1636 24.5904 54.8936 23.4943 54.5646 22.425C52.9511 23.1546 51.1682 23.5714 49.2857 23.5714C48.0236 23.5714 46.8054 23.3807 45.6525 23.04C46.6029 25.17 47.1429 27.5207 47.1429 30C47.1429 39.4521 39.4521 47.1429 30 47.1429C20.5479 47.1429 12.8571 39.4521 12.8571 30C12.8571 20.5479 20.5479 12.8571 30 12.8571C32.4793 12.8571 34.83 13.3971 36.96 14.3475C36.6193 13.1946 36.4286 11.9764 36.4286 10.7143C36.4286 8.83179 36.8454 7.04893 37.575 5.43643C36.5057 5.10643 35.4096 4.83643 34.2857 4.64786V0H25.7143V4.64786C21.8079 5.30357 18.2036 6.83893 15.1061 9.045L11.8179 5.75679L5.75679 11.8179L9.045 15.1061C6.83893 18.2036 5.30357 21.8089 4.64786 25.7143H0V34.2857H4.64786C5.30357 38.1921 6.83893 41.7964 9.045 44.8939L5.75679 48.1821L11.8179 54.2432L15.1061 50.955C18.2036 53.1611 21.8089 54.6964 25.7143 55.3521V60H34.2857V55.3521C38.1921 54.6964 41.7964 53.1611 44.8939 50.955L48.1821 54.2432L54.2432 48.1821L50.955 44.8939C53.1611 41.7964 54.6964 38.1911 55.3521 34.2857H60V25.7143H55.3521Z" fill="#FAB400"/>
<path d="M4.64795 25.7144H8.93366C9.58938 21.808 11.1247 18.2037 13.3308 15.1051L10.0426 11.8169L13.9608 7.89872L11.8179 5.75586L5.75688 11.8169L9.04509 15.1051C6.83902 18.2037 5.30366 21.808 4.64795 25.7144Z" fill="#DC9600"/>
<path d="M0 25.7144H4.28571V34.2858H0V25.7144Z" fill="#DC9600"/>
<path d="M10.0426 48.1831L13.3308 44.8949C11.1247 41.7964 9.58938 38.1921 8.93366 34.2856H4.64795C5.30366 38.1921 6.83902 41.7964 9.04509 44.8939L5.75688 48.1821L11.8179 54.2431L13.9608 52.1003L10.0426 48.1831Z" fill="#DC9600"/>
<path d="M49.2856 21.4286C43.3681 21.4286 38.5713 16.6318 38.5713 10.7143C38.5713 4.79679 43.3681 0 49.2856 0C55.2031 0 59.9999 4.79679 59.9999 10.7143C59.9999 16.6318 55.2031 21.4286 49.2856 21.4286Z" fill="#64C8F0"/>
<path d="M40.7141 10.7143C40.7141 5.15893 44.9431 0.591429 50.357 0.0535716C50.0045 0.0192859 49.6477 0 49.2856 0C43.3681 0 38.5713 4.79679 38.5713 10.7143C38.5713 16.6318 43.3681 21.4286 49.2856 21.4286C49.6477 21.4286 50.0045 21.4093 50.357 21.375C44.9431 20.8371 40.7141 16.2696 40.7141 10.7143Z" fill="#46AAD2"/>
<path d="M56.7859 11.7858V9.64293H54.5145C54.3752 8.96257 54.1223 8.32293 53.7516 7.76364L55.3459 6.16936L53.8309 4.65436L52.2366 6.24864C51.6762 5.87686 51.0377 5.61971 50.3573 5.47936V3.21436H48.2145V5.47936C47.5341 5.61971 46.8955 5.87686 46.3352 6.24864L44.7409 4.65436L43.2259 6.16936L44.8202 7.76364C44.4495 8.32293 44.1966 8.96257 44.0573 9.64293H41.7859V11.7858H44.0573C44.1966 12.4661 44.4495 13.1058 44.8202 13.6651L43.2259 15.2594L44.7409 16.7744L46.3352 15.1801C46.8955 15.5508 47.5341 15.809 48.2145 15.9494V18.2144H50.3573V15.9494C51.0377 15.809 51.6762 15.5519 52.2366 15.1801L53.8309 16.7744L55.3459 15.2594L53.7516 13.6651C54.1223 13.1047 54.3752 12.4661 54.5145 11.7858H56.7859ZM49.2859 13.9286C47.5137 13.9286 46.0716 12.4865 46.0716 10.7144C46.0716 8.94221 47.5137 7.50007 49.2859 7.50007C51.058 7.50007 52.5002 8.94221 52.5002 10.7144C52.5002 12.4865 51.058 13.9286 49.2859 13.9286Z" fill="#F0F0F0"/>
<path d="M39.5771 17.4238H21.983C19.2112 17.4238 16.9561 19.8153 16.9561 22.7547V32.0838C16.9561 35.0232 19.2112 37.4147 21.983 37.4147H24.1914C24.8631 37.4147 25.4942 37.6919 25.9688 38.1956L29.8915 42.3551C30.137 42.6154 30.4585 42.7456 30.7801 42.7456C31.1016 42.7456 31.4231 42.6154 31.6686 42.3551L35.591 38.1956C36.0659 37.6919 36.6973 37.4147 37.3687 37.4147H39.5771C42.3489 37.4147 44.6041 35.0232 44.6041 32.0838V22.7547C44.6041 19.8153 42.3489 17.4238 39.5771 17.4238Z" fill="#FFC107"/>
<path d="M38.1571 29.7834C38.1571 30.4493 37.5917 30.9892 36.8944 30.9892H25.5294C24.8321 30.9892 24.2667 30.4493 24.2667 29.7834C24.2667 29.1175 24.8321 28.5776 25.5294 28.5776H36.8944C37.5917 28.5776 38.1571 29.1175 38.1571 29.7834ZM38.1571 23.7544H24.2667C23.5693 23.7544 23.0039 24.2943 23.0039 24.9602C23.0039 25.6261 23.5693 26.166 24.2667 26.166H38.1571C38.8545 26.166 39.4199 25.6261 39.4199 24.9602C39.4199 24.2943 38.8545 23.7544 38.1571 23.7544Z" fill="white"/>
</svg>
