<svg width="60" height="60" viewBox="0 0 60 60" fill="none" xmlns="http://www.w3.org/2000/svg">
<g clip-path="url(#clip0_22_3560)">
<path d="M55.7971 40.7507C55.297 40.7507 54.8917 40.3454 54.8917 39.8453C54.8917 36.9846 52.5643 34.657 49.7034 34.657H44.483C43.9829 34.657 43.5776 34.2516 43.5776 33.7516C43.5776 33.2515 43.983 32.8462 44.483 32.8462H49.7034C53.5628 32.8462 56.7025 35.986 56.7025 39.8453C56.7025 40.3455 56.2972 40.7507 55.7971 40.7507Z" fill="#FFE177"/>
<path d="M41.226 3.75C39.3875 1.91145 37.7725 0 35.1724 0H4.50463C3.83783 0 3.29736 0.540469 3.29736 1.20727V58.7927C3.29736 59.4595 3.83783 60 4.50463 60H47.0901C47.7569 60 48.2974 59.4595 48.2974 58.7927L46.642 13.6857L47.1583 13.125C47.1583 10.525 46.3859 8.90988 44.5474 7.07133L41.226 3.75Z" fill="#D8ECFE"/>
<path d="M44.5474 7.07168L43.6427 6.16699C44.8876 7.47141 45.8828 8.83465 45.8828 10.7108V56.3786C45.8828 57.0453 45.3424 57.5858 44.6756 57.5858H3.29736V58.7931C3.29736 59.4599 3.83783 60.0004 4.50463 60.0004H47.0901C47.7569 60.0004 48.2974 59.4599 48.2974 58.7931V13.1254C48.2974 10.5252 46.3859 8.91023 44.5474 7.07168Z" fill="#C4E2FF"/>
<path d="M39.2331 7.85695V4.06078C39.2331 1.81805 37.4151 0 35.1724 0C37.7724 0 40.266 1.03289 42.1046 2.87145L45.4259 6.19277C47.2645 8.03133 48.2974 10.525 48.2974 13.125C48.2974 10.8823 46.4793 9.06422 44.2366 9.06422H40.4404C39.7736 9.06422 39.2331 8.52363 39.2331 7.85695Z" fill="#EAF6FF"/>
<path d="M41.4651 16.875H17.6296C16.9628 16.875 16.4224 16.3345 16.4224 15.6677V14.3323C16.4224 13.6655 16.9628 13.125 17.6296 13.125H41.4651C42.1319 13.125 42.6724 13.6655 42.6724 14.3323V15.6677C42.6724 16.3345 42.1319 16.875 41.4651 16.875Z" fill="#3C87D0"/>
<path d="M41.4651 25.3125H10.1296C9.46283 25.3125 8.92236 24.772 8.92236 24.1052V22.7698C8.92236 22.103 9.46283 21.5625 10.1296 21.5625H41.4651C42.1319 21.5625 42.6724 22.103 42.6724 22.7698V24.1052C42.6724 24.772 42.1319 25.3125 41.4651 25.3125Z" fill="#3C87D0"/>
<path d="M32.0901 33.75H10.1296C9.46283 33.75 8.92236 33.2095 8.92236 32.5427V31.2073C8.92236 30.5405 9.46283 30 10.1296 30H32.0901C32.7569 30 33.2974 30.5405 33.2974 31.2073V32.5427C33.2974 33.2095 32.7569 33.75 32.0901 33.75Z" fill="#3C87D0"/>
<path d="M22.0474 51.8238V39.3109C22.0474 38.3108 22.8581 37.5 23.8583 37.5H43.5782C44.1837 37.5 44.749 37.8026 45.0849 38.3064L48.1797 42.9485C49.3397 44.6886 49.1167 47.0045 47.6459 48.4912L43.0847 53.1016L22.0474 51.8238Z" fill="#FD9468"/>
<path d="M49.5026 44.9327L48.1796 42.9482C48.3064 43.4384 48.2242 43.9699 47.9331 44.4065L43.5154 51.0331C43.1796 51.5369 42.6141 51.8395 42.0086 51.8395H22.2888C22.2069 51.8395 22.1263 51.834 22.0474 51.8234V52.5638C22.0474 53.5639 22.8581 54.3747 23.8583 54.3747H43.5782C44.1837 54.3747 44.7492 54.0721 45.085 53.5684L49.5028 46.9418C49.9082 46.3334 49.9082 45.541 49.5026 44.9327Z" fill="#FE7D43"/>
<path d="M39.8601 49.6555C39.6284 49.6555 39.3966 49.567 39.2198 49.3903C38.8662 49.0366 38.8662 48.4635 39.2198 48.1097L41.3921 45.9376L39.2198 43.7654C38.8662 43.4118 38.8662 42.8386 39.2198 42.4848C39.5734 42.1314 40.1466 42.1314 40.5004 42.4848L43.3129 45.2973C43.6664 45.651 43.6664 46.2241 43.3129 46.5779L40.5004 49.3904C40.3235 49.5671 40.0917 49.6555 39.8601 49.6555Z" fill="#BBEC6C"/>
<path d="M29.5475 49.6556C29.3159 49.6556 29.0841 49.5671 28.9073 49.3904L26.0948 46.5779C25.7412 46.2243 25.7412 45.6511 26.0948 45.2973L28.9073 42.4848C29.2609 42.1314 29.8342 42.1314 30.1879 42.4848C30.5415 42.8385 30.5415 43.4116 30.1879 43.7654L28.0154 45.9377L30.1877 48.1099C30.5414 48.4636 30.5414 49.0368 30.1877 49.3905C30.011 49.5673 29.7792 49.6556 29.5475 49.6556Z" fill="#BBEC6C"/>
<path d="M33.2965 49.6561C33.1604 49.6561 33.0223 49.6253 32.8923 49.5603C32.445 49.3367 32.2637 48.7928 32.4874 48.3455L35.2999 42.7205C35.5234 42.2732 36.0672 42.0918 36.5147 42.3156C36.9619 42.5392 37.1432 43.0831 36.9196 43.5304L34.1071 49.1554C33.9484 49.4727 33.6286 49.6561 33.2965 49.6561Z" fill="#BBEC6C"/>
<path d="M49.7037 46.843H46.4225C45.9223 46.843 45.5171 46.4377 45.5171 45.9376C45.5171 45.4376 45.9224 45.0322 46.4225 45.0322H49.7037C52.5645 45.0322 54.8921 42.7048 54.8921 39.8439C54.8921 39.3437 55.2974 38.9385 55.7975 38.9385C56.2975 38.9385 56.7029 39.3438 56.7029 39.8439C56.7029 43.7033 53.5631 46.843 49.7037 46.843Z" fill="#FFE177"/>
</g>
<defs>
<clipPath id="clip0_22_3560">
<rect width="60" height="60" fill="white"/>
</clipPath>
</defs>
</svg>
