<svg width="47" height="47" viewBox="0 0 47 47" fill="none"
    xmlns="http://www.w3.org/2000/svg">
    <path d="M38.5271 30.4521L38.5131 26.9887C37.4831 26.9887 36.5997 26.6207 35.864 25.8849C35.128 25.149 34.7604 24.266 34.7604 23.236C34.7602 22.2055 35.1283 21.3228 35.8643 20.5868C36.6003 19.8508 37.4834 19.483 38.5136 19.4828L38.5134 16.0331C38.5129 15.3522 38.267 14.7659 37.7751 14.274C37.2829 13.7818 36.6966 13.536 36.016 13.5358L11.0004 13.5219C10.3194 13.522 9.73283 13.7683 9.24115 14.26C8.74908 14.752 8.50319 15.3382 8.50309 16.0193L8.48912 19.4827C9.51927 19.4829 10.4025 19.8507 11.1384 20.5866C11.8742 21.3224 12.2423 22.2052 12.2421 23.2356C12.2421 24.2657 11.8742 25.1488 11.1382 25.8847C10.4023 26.6206 9.51971 26.9884 8.48917 26.9885L8.48927 30.4657C8.48932 31.1465 8.73545 31.733 9.22757 32.2251C9.71974 32.7172 10.3062 32.9634 10.9867 32.9632L36.0298 32.9494C36.7105 32.9495 37.2967 32.7033 37.7888 32.2112C38.2809 31.719 38.527 31.1329 38.5271 30.4521ZM32.0282 29.4723L14.9744 29.4721C14.6431 29.4726 14.3534 29.3483 14.1049 29.0998C13.8567 28.8515 13.7324 28.5619 13.7328 28.2304L13.7322 18.241C13.7324 17.8912 13.852 17.597 14.091 17.358C14.3301 17.1188 14.6246 16.999 14.9743 16.9989L32.0282 16.999C32.3596 16.9991 32.6495 17.1233 32.898 17.3717C33.1461 17.6198 33.2702 17.9097 33.2703 18.241L33.2702 28.2305C33.2703 28.5804 33.1506 28.8747 32.9115 29.1138C32.6723 29.3528 32.3781 29.4724 32.0282 29.4723Z" fill="#F31700"/>
    <path d="M31.3938 18.8764L31.394 27.5967H15.6095L15.6095 18.8766L31.3938 18.8764Z" fill="#F31700"/>
</svg>
