<svg width="24" height="24" viewBox="0 0 24 24" fill="none" xmlns="http://www.w3.org/2000/svg">
<g id="file 1" clip-path="url(#clip0_200_4807)">
<path id="Vector" d="M18.3281 0H7.78125C6.61627 0 5.67188 0.944391 5.67188 2.10938V21.8906C5.67188 23.0556 6.61627 24 7.78125 24H21.8438C23.0087 24 23.9531 23.0556 23.9531 21.8906V5.625L18.3281 0Z" fill="#E4F2F9"/>
<path id="Vector_2" d="M18.3281 0V4.92188C18.3281 5.31019 18.6429 5.625 19.0312 5.625H23.9531L18.3281 0Z" fill="#77BEE2"/>
<g id="Group">
<path id="Vector_3" d="M19.9688 14.1562H9.65625C9.26794 14.1562 8.95312 13.8414 8.95312 13.4531C8.95312 13.0648 9.26794 12.75 9.65625 12.75H19.9688C20.3571 12.75 20.6719 13.0648 20.6719 13.4531C20.6719 13.8414 20.3571 14.1562 19.9688 14.1562Z" fill="#5F5F82"/>
<path id="Vector_4" d="M19.9688 9.9375H9.65625C9.26794 9.9375 8.95312 9.62269 8.95312 9.23438C8.95312 8.84606 9.26794 8.53125 9.65625 8.53125H19.9688C20.3571 8.53125 20.6719 8.84606 20.6719 9.23438C20.6719 9.62269 20.3571 9.9375 19.9688 9.9375Z" fill="#5F5F82"/>
<path id="Vector_5" d="M19.9688 18.375H9.65625C9.26794 18.375 8.95312 18.0602 8.95312 17.6719C8.95312 17.2836 9.26794 16.9688 9.65625 16.9688H19.9688C20.3571 16.9688 20.6719 17.2836 20.6719 17.6719C20.6719 18.0602 20.3571 18.375 19.9688 18.375Z" fill="#5F5F82"/>
</g>
<path id="Vector_6" d="M20.6719 13.4531C20.6719 13.0648 20.3571 12.75 19.9688 12.75H14.8125V14.1562H19.9688C20.3571 14.1562 20.6719 13.8414 20.6719 13.4531Z" fill="#3C3C55"/>
<path id="Vector_7" d="M20.6719 9.23438C20.6719 8.84606 20.3571 8.53125 19.9688 8.53125H14.8125V9.9375H19.9688C20.3571 9.9375 20.6719 9.62269 20.6719 9.23438Z" fill="#3C3C55"/>
<path id="Vector_8" d="M19.9688 18.375C20.3571 18.375 20.6719 18.0602 20.6719 17.6719C20.6719 17.2836 20.3571 16.9688 19.9688 16.9688H14.8125V18.375H19.9688Z" fill="#3C3C55"/>
<path id="Vector_9" d="M6.375 24C2.88567 24 0.046875 21.1612 0.046875 17.6719C0.046875 14.1825 2.88567 11.3438 6.375 11.3438C9.86433 11.3438 12.7031 14.1825 12.7031 17.6719C12.7031 21.1612 9.86433 24 6.375 24Z" fill="#49BBFF"/>
<path id="Vector_10" d="M9.16905 15.909C8.89451 15.6345 8.44929 15.6345 8.1747 15.909L5.39065 18.6931L4.48155 17.784C4.20701 17.5094 3.76179 17.5094 3.4872 17.784C3.2126 18.0585 3.2126 18.5038 3.4872 18.7783L4.89345 20.1846C5.03074 20.3219 5.2107 20.3906 5.39065 20.3906C5.5706 20.3906 5.75056 20.3219 5.8878 20.1846L9.16905 16.9033C9.44365 16.6288 9.44365 16.1836 9.16905 15.909Z" fill="#5F5F82"/>
<path id="Vector_11" d="M9.16903 15.909C8.89448 15.6345 8.44927 15.6345 8.17467 15.909L6.375 17.7087V19.6974L9.16903 16.9034C9.44362 16.6288 9.44362 16.1836 9.16903 15.909Z" fill="#3C3C55"/>
</g>
<defs>
<clipPath id="clip0_200_4807">
<rect width="24" height="24" fill="white"/>
</clipPath>
</defs>
</svg>
