<svg width="33" height="21" viewBox="0 0 33 21" fill="none" xmlns="http://www.w3.org/2000/svg">
<path d="M32.1251 17.9128L32.1106 14.3217C31.0427 14.3217 30.1267 13.9401 29.3638 13.1772C28.6007 12.4142 28.2195 11.4986 28.2195 10.4307C28.2193 9.36216 28.6009 8.44692 29.3641 7.68378C30.1273 6.92064 31.0429 6.53928 32.1111 6.53907L32.1109 2.96219C32.1103 2.25618 31.8554 1.64826 31.3453 1.13823C30.8351 0.627881 30.2271 0.373018 29.5215 0.372811L3.58345 0.358398C2.87745 0.358502 2.26918 0.613883 1.75937 1.12371C1.24916 1.63385 0.994202 2.24167 0.994099 2.94788L0.979614 6.53897C2.04775 6.53918 2.96351 6.92054 3.72654 7.68357C4.48957 8.4465 4.87114 9.36185 4.87093 10.4302C4.87093 11.4983 4.48947 12.414 3.72644 13.177C2.9633 13.94 2.0482 14.3214 0.979666 14.3215L0.97977 17.9269C0.979821 18.6328 1.23503 19.2409 1.74529 19.7512C2.25561 20.2614 2.86366 20.5167 3.56935 20.5165L29.5357 20.5022C30.2415 20.5023 30.8493 20.247 31.3596 19.7368C31.8698 19.2264 32.125 18.6187 32.1251 17.9128ZM25.3866 16.8969L7.70397 16.8967C7.36046 16.8972 7.06018 16.7683 6.80252 16.5107C6.54506 16.2532 6.41618 15.9529 6.4166 15.6092L6.41608 5.25149C6.41618 4.88879 6.54019 4.58375 6.788 4.33593C7.03602 4.08791 7.34138 3.9637 7.70387 3.96359L25.3866 3.9637C25.7302 3.9638 26.0309 4.09258 26.2884 4.35014C26.5457 4.60739 26.6743 4.90797 26.6744 5.25149L26.6743 15.6093C26.6744 15.9721 26.5503 16.2773 26.3024 16.5252C26.0544 16.773 25.7493 16.897 25.3866 16.8969Z" fill="#FFC000"/>
<path d="M24.7288 5.91016L24.7291 14.952H8.36249V5.91036L24.7288 5.91016Z" fill="#FFC000"/>
</svg>
