<svg width="47" height="47" viewBox="0 0 47 47" fill="none" xmlns="http://www.w3.org/2000/svg">
<path d="M38.2753 30.4521L38.2614 26.9887C37.2314 26.9887 36.348 26.6207 35.6122 25.8849C34.8763 25.149 34.5086 24.266 34.5086 23.236C34.5084 22.2055 34.8765 21.3228 35.6125 20.5868C36.3486 19.8508 37.2316 19.483 38.2618 19.4828L38.2616 16.0331C38.2611 15.3522 38.0152 14.7659 37.5233 14.274C37.0312 13.7818 36.4448 13.536 35.7643 13.5358L10.7486 13.5219C10.0677 13.522 9.48106 13.7683 8.98938 14.26C8.49731 14.752 8.25142 15.3382 8.25132 16.0193L8.23735 19.4827C9.2675 19.4829 10.1507 19.8507 10.8866 20.5866C11.6225 21.3224 11.9905 22.2052 11.9903 23.2356C11.9903 24.2657 11.6224 25.1488 10.8865 25.8847C10.1505 26.6206 9.26794 26.9884 8.2374 26.9885L8.2375 30.4657C8.23755 31.1465 8.48368 31.733 8.9758 32.2251C9.46797 32.7172 10.0544 32.9634 10.735 32.9632L35.778 32.9494C36.4587 32.9495 37.0449 32.7033 37.5371 32.2112C38.0291 31.719 38.2752 31.1329 38.2753 30.4521ZM31.7765 29.4723L14.7226 29.4721C14.3913 29.4726 14.1017 29.3483 13.8532 29.0998C13.6049 28.8515 13.4806 28.5619 13.481 28.2304L13.4805 18.241C13.4806 17.8912 13.6002 17.597 13.8392 17.358C14.0784 17.1188 14.3729 16.999 14.7225 16.9989L31.7765 16.999C32.1078 16.9991 32.3978 17.1233 32.6462 17.3717C32.8943 17.6198 33.0184 17.9097 33.0185 18.241L33.0184 28.2305C33.0185 28.5804 32.8988 28.8747 32.6597 29.1138C32.4205 29.3528 32.1263 29.4724 31.7765 29.4723Z" fill="#FFC000"/>
<path d="M31.142 18.8764L31.1423 27.5967H15.3577L15.3577 18.8766L31.142 18.8764Z" fill="#FFC000"/>
</svg>
