<svg width="55" height="51" viewBox="0 0 55 51" fill="none" xmlns="http://www.w3.org/2000/svg">
<g clip-path="url(#clip0_2843_48091)">
<rect x="9" y="3" width="42" height="48" rx="1" fill="#203F5D"/>
<path d="M30.7737 15.0306H27.7275C27.194 15.0306 26.7617 14.5982 26.7617 14.0649C26.7617 13.5315 27.1941 13.0991 27.7275 13.0991H30.7737C31.3072 13.0991 31.7395 13.5315 31.7395 14.0649C31.7396 14.5982 31.3072 15.0306 30.7737 15.0306Z" fill="#C9C0C7"/>
<path d="M45.0296 18.6188H27.7275C27.194 18.6188 26.7617 18.1864 26.7617 17.653C26.7617 17.1196 27.1941 16.6873 27.7275 16.6873H45.0296C45.5631 16.6873 45.9953 17.1196 45.9953 17.653C45.9955 18.1863 45.5631 18.6188 45.0296 18.6188Z" fill="#C9C0C7"/>
<path d="M30.7737 29.066H27.7275C27.194 29.066 26.7617 28.6336 26.7617 28.1003C26.7617 27.5669 27.1941 27.1345 27.7275 27.1345H30.7737C31.3072 27.1345 31.7395 27.5669 31.7395 28.1003C31.7396 28.6335 31.3072 29.066 30.7737 29.066Z" fill="#C9C0C7"/>
<path d="M45.0296 32.6542H27.7275C27.194 32.6542 26.7617 32.2218 26.7617 31.6884C26.7617 31.155 27.1941 30.7227 27.7275 30.7227H45.0296C45.5631 30.7227 45.9953 31.155 45.9953 31.6884C45.9955 32.2218 45.5631 32.6542 45.0296 32.6542Z" fill="#C9C0C7"/>
<path d="M20.7847 45.2061H15.8566C15.0966 45.2061 14.4805 44.59 14.4805 43.83V38.902C14.4805 38.142 15.0966 37.5259 15.8566 37.5259H20.7846C21.5446 37.5259 22.1607 38.142 22.1607 38.902V43.83C22.1607 44.59 21.5447 45.2061 20.7847 45.2061Z" fill="#FEE265"/>
<path d="M22.1605 38.9022V43.83C22.1605 44.5896 21.544 45.2061 20.7844 45.2061H17.2383C17.9979 45.2061 18.6144 44.5896 18.6144 43.83V38.9022C18.6144 38.1426 17.9979 37.5261 17.2383 37.5261H20.7844C21.544 37.5261 22.1605 38.1426 22.1605 38.9022Z" fill="#FDD330"/>
<path d="M20.7847 33.2061H15.8566C15.0966 33.2061 14.4805 32.59 14.4805 31.83V26.902C14.4805 26.142 15.0966 25.5259 15.8566 25.5259H20.7846C21.5446 25.5259 22.1607 26.142 22.1607 26.902V31.83C22.1607 32.59 21.5447 33.2061 20.7847 33.2061Z" fill="#FEE265"/>
<path d="M22.1605 26.9022V31.83C22.1605 32.5896 21.544 33.2061 20.7844 33.2061H17.2383C17.9979 33.2061 18.6144 32.5896 18.6144 31.83V26.9022C18.6144 26.1426 17.9979 25.5261 17.2383 25.5261H20.7844C21.544 25.5261 22.1605 26.1426 22.1605 26.9022Z" fill="#FDD330"/>
<path d="M20.7847 19.2061H15.8566C15.0966 19.2061 14.4805 18.59 14.4805 17.83V12.902C14.4805 12.142 15.0966 11.5259 15.8566 11.5259H20.7846C21.5446 11.5259 22.1607 12.142 22.1607 12.902V17.83C22.1607 18.59 21.5447 19.2061 20.7847 19.2061Z" fill="#FEE265"/>
<path d="M22.1605 12.9022V17.83C22.1605 18.5896 21.544 19.2061 20.7844 19.2061H17.2383C17.9979 19.2061 18.6144 18.5896 18.6144 17.83V12.9022C18.6144 12.1426 17.9979 11.5261 17.2383 11.5261H20.7844C21.544 11.5261 22.1605 12.1426 22.1605 12.9022Z" fill="#FDD330"/>
<path d="M30.7737 41.5838H27.7275C27.194 41.5838 26.7617 41.1515 26.7617 40.6181C26.7617 40.0847 27.1941 39.6523 27.7275 39.6523H30.7737C31.3072 39.6523 31.7395 40.0847 31.7395 40.6181C31.7396 41.1513 31.3072 41.5838 30.7737 41.5838Z" fill="#C9C0C7"/>
<path d="M45.0296 45.172H27.7275C27.194 45.172 26.7617 44.7396 26.7617 44.2062C26.7617 43.6729 27.1941 43.2405 27.7275 43.2405H45.0296C45.5631 43.2405 45.9953 43.6729 45.9953 44.2062C45.9953 44.7396 45.5631 45.172 45.0296 45.172Z" fill="#C9C0C7"/>
</g>
<path d="M49 2.96529V48.0346C49 48.5685 48.4228 49 47.7114 49H8.28862C7.57722 48.9999 7 48.5685 7 48.0346V2.96529C7 2.43139 7.57722 2 8.28862 2H47.7115C48.4228 2 49 2.43139 49 2.96529Z" fill="#F8F3F1"/>
<path d="M28.7737 13.0306H25.7275C25.194 13.0306 24.7617 12.5982 24.7617 12.0649C24.7617 11.5315 25.1941 11.0991 25.7275 11.0991H28.7737C29.3072 11.0991 29.7395 11.5315 29.7395 12.0649C29.7396 12.5982 29.3072 13.0306 28.7737 13.0306Z" fill="#C9C0C7"/>
<path d="M43.0296 16.6188H25.7275C25.194 16.6188 24.7617 16.1864 24.7617 15.653C24.7617 15.1196 25.1941 14.6873 25.7275 14.6873H43.0296C43.5631 14.6873 43.9953 15.1196 43.9953 15.653C43.9955 16.1863 43.5631 16.6188 43.0296 16.6188Z" fill="#C9C0C7"/>
<path d="M18.7847 29.6883H13.8566C13.0966 29.6883 12.4805 29.0722 12.4805 28.3122V23.3842C12.4805 22.6242 13.0966 22.0081 13.8566 22.0081H18.7846C19.5446 22.0081 20.1607 22.6242 20.1607 23.3842V28.3122C20.1607 29.0723 19.5447 29.6883 18.7847 29.6883Z" fill="#FCA62F"/>
<path d="M20.1605 23.3844V28.3122C20.1605 29.0718 19.544 29.6883 18.7844 29.6883H15.2383C15.9979 29.6883 16.6144 29.0718 16.6144 28.3122V23.3844C16.6144 22.6248 15.9979 22.0083 15.2383 22.0083H18.7844C19.544 22.0083 20.1605 22.6248 20.1605 23.3844Z" fill="#F98824"/>
<path d="M18.7847 16.6883H13.8566C13.0966 16.6883 12.4805 16.0722 12.4805 15.3122V10.3842C12.4805 9.62418 13.0966 9.00806 13.8566 9.00806H18.7846C19.5446 9.00806 20.1607 9.62418 20.1607 10.3842V15.3122C20.1607 16.0723 19.5447 16.6883 18.7847 16.6883Z" fill="#FCA62F"/>
<path d="M20.1605 10.3844V15.3122C20.1605 16.0718 19.544 16.6883 18.7844 16.6883H15.2383C15.9979 16.6883 16.6144 16.0718 16.6144 15.3122V10.3844C16.6144 9.6248 15.9979 9.0083 15.2383 9.0083H18.7844C19.544 9.0083 20.1605 9.6248 20.1605 10.3844Z" fill="#F98824"/>
<path d="M18.7847 43.6883H13.8566C13.0966 43.6883 12.4805 43.0722 12.4805 42.3122V37.3842C12.4805 36.6242 13.0966 36.0081 13.8566 36.0081H18.7846C19.5446 36.0081 20.1607 36.6242 20.1607 37.3842V42.3122C20.1607 43.0723 19.5447 43.6883 18.7847 43.6883Z" fill="#FCA62F"/>
<path d="M20.1605 37.3844V42.3122C20.1605 43.0718 19.544 43.6883 18.7844 43.6883H15.2383C15.9979 43.6883 16.6144 43.0718 16.6144 42.3122V37.3844C16.6144 36.6248 15.9979 36.0083 15.2383 36.0083H18.7844C19.544 36.0083 20.1605 36.6248 20.1605 37.3844Z" fill="#F98824"/>
<path d="M28.7737 27.066H25.7275C25.194 27.066 24.7617 26.6336 24.7617 26.1003C24.7617 25.5669 25.1941 25.1345 25.7275 25.1345H28.7737C29.3072 25.1345 29.7395 25.5669 29.7395 26.1003C29.7396 26.6335 29.3072 27.066 28.7737 27.066Z" fill="#C9C0C7"/>
<path d="M43.0296 30.6542H25.7275C25.194 30.6542 24.7617 30.2218 24.7617 29.6884C24.7617 29.155 25.1941 28.7227 25.7275 28.7227H43.0296C43.5631 28.7227 43.9953 29.155 43.9953 29.6884C43.9955 30.2218 43.5631 30.6542 43.0296 30.6542Z" fill="#C9C0C7"/>
<path d="M28.7737 39.5838H25.7275C25.194 39.5838 24.7617 39.1515 24.7617 38.6181C24.7617 38.0847 25.1941 37.6523 25.7275 37.6523H28.7737C29.3072 37.6523 29.7395 38.0847 29.7395 38.6181C29.7396 39.1513 29.3072 39.5838 28.7737 39.5838Z" fill="#C9C0C7"/>
<path d="M43.0296 43.172H25.7275C25.194 43.172 24.7617 42.7396 24.7617 42.2062C24.7617 41.6729 25.1941 41.2405 25.7275 41.2405H43.0296C43.5631 41.2405 43.9953 41.6729 43.9953 42.2062C43.9953 42.7396 43.5631 43.172 43.0296 43.172Z" fill="#C9C0C7"/>
<defs>
<clipPath id="clip0_2843_48091">
<rect x="9" y="3" width="42" height="48" rx="1" fill="white"/>
</clipPath>
</defs>
</svg>
