<svg width="55" height="51" viewBox="0 0 55 51" fill="none" xmlns="http://www.w3.org/2000/svg">
<g clip-path="url(#clip0_2843_47654)">
<path d="M51 4.96529V50.0346C51 50.5685 50.4228 51 49.7114 51H10.2886C9.57722 50.9999 9 50.5685 9 50.0346V4.96529C9 4.43139 9.57722 4 10.2886 4H49.7115C50.4228 4 51 4.43139 51 4.96529Z" fill="#784343"/>
<path d="M49 2.96529V48.0346C49 48.5685 48.4228 49 47.7114 49H8.28862C7.57722 48.9999 7 48.5685 7 48.0346V2.96529C7 2.43139 7.57722 2 8.28862 2H47.7115C48.4228 2 49 2.43139 49 2.96529Z" fill="#F8F3F1"/>
<path d="M18.7847 15.653H13.8566C13.0966 15.653 12.4805 15.0369 12.4805 14.2769V9.34878C12.4805 8.58878 13.0966 7.97266 13.8566 7.97266H18.7846C19.5446 7.97266 20.1607 8.58878 20.1607 9.34878V14.2768C20.1607 15.0369 19.5447 15.653 18.7847 15.653Z" fill="#35BCC7"/>
<path d="M20.1605 9.34903V14.2768C20.1605 15.0364 19.544 15.6529 18.7844 15.6529H15.2383C15.9979 15.6529 16.6144 15.0364 16.6144 14.2768V9.34903C16.6144 8.5894 15.9979 7.9729 15.2383 7.9729H18.7844C19.544 7.9729 20.1605 8.5894 20.1605 9.34903Z" fill="#20ABB9"/>
<path d="M16.2813 13.6673C16.0342 13.6673 15.7869 13.5729 15.5983 13.3844L14.5563 12.3424C14.1792 11.9653 14.1792 11.3538 14.5563 10.9765C14.9335 10.5994 15.5449 10.5994 15.9223 10.9765L16.2813 11.3357L20.3527 7.26417C20.7299 6.88704 21.3413 6.88704 21.7187 7.26417C22.0958 7.64129 22.0958 8.25279 21.7187 8.63004L16.9643 13.3844C16.7757 13.573 16.5284 13.6673 16.2813 13.6673Z" fill="#FDD330"/>
<path d="M28.7737 13.0305H25.7275C25.194 13.0305 24.7617 12.5981 24.7617 12.0647C24.7617 11.5314 25.1941 11.099 25.7275 11.099H28.7737C29.3072 11.099 29.7395 11.5314 29.7395 12.0647C29.7396 12.5981 29.3072 13.0305 28.7737 13.0305Z" fill="#C9C0C7"/>
<path d="M43.0296 16.6188H25.7275C25.194 16.6188 24.7617 16.1864 24.7617 15.653C24.7617 15.1196 25.1941 14.6873 25.7275 14.6873H43.0296C43.5631 14.6873 43.9953 15.1196 43.9953 15.653C43.9955 16.1863 43.5631 16.6188 43.0296 16.6188Z" fill="#C9C0C7"/>
<path d="M18.7847 29.6883H13.8566C13.0966 29.6883 12.4805 29.0722 12.4805 28.3122V23.3842C12.4805 22.6242 13.0966 22.0081 13.8566 22.0081H18.7846C19.5446 22.0081 20.1607 22.6242 20.1607 23.3842V28.3122C20.1607 29.0723 19.5447 29.6883 18.7847 29.6883Z" fill="#FCA62F"/>
<path d="M20.1605 23.3844V28.3122C20.1605 29.0718 19.544 29.6883 18.7844 29.6883H15.2383C15.9979 29.6883 16.6144 29.0718 16.6144 28.3122V23.3844C16.6144 22.6248 15.9979 22.0083 15.2383 22.0083H18.7844C19.544 22.0083 20.1605 22.6248 20.1605 23.3844Z" fill="#F98824"/>
<path d="M28.7737 27.0659H25.7275C25.194 27.0659 24.7617 26.6335 24.7617 26.1002C24.7617 25.5668 25.1941 25.1344 25.7275 25.1344H28.7737C29.3072 25.1344 29.7395 25.5668 29.7395 26.1002C29.7396 26.6334 29.3072 27.0659 28.7737 27.0659Z" fill="#C9C0C7"/>
<path d="M43.0296 30.6542H25.7275C25.194 30.6542 24.7617 30.2218 24.7617 29.6884C24.7617 29.155 25.1941 28.7227 25.7275 28.7227H43.0296C43.5631 28.7227 43.9953 29.155 43.9953 29.6884C43.9955 30.2218 43.5631 30.6542 43.0296 30.6542Z" fill="#C9C0C7"/>
<path d="M18.7847 42.2061H13.8566C13.0966 42.2061 12.4805 41.59 12.4805 40.83V35.902C12.4805 35.142 13.0966 34.5259 13.8566 34.5259H18.7846C19.5446 34.5259 20.1607 35.142 20.1607 35.902V40.83C20.1607 41.59 19.5447 42.2061 18.7847 42.2061Z" fill="#FEE265"/>
<path d="M20.1605 35.9021V40.8299C20.1605 41.5895 19.544 42.206 18.7844 42.206H15.2383C15.9979 42.206 16.6144 41.5895 16.6144 40.8299V35.9021C16.6144 35.1425 15.9979 34.526 15.2383 34.526H18.7844C19.544 34.526 20.1605 35.1425 20.1605 35.9021Z" fill="#FDD330"/>
<path d="M28.7737 39.5837H25.7275C25.194 39.5837 24.7617 39.1513 24.7617 38.618C24.7617 38.0846 25.1941 37.6522 25.7275 37.6522H28.7737C29.3072 37.6522 29.7395 38.0846 29.7395 38.618C29.7396 39.1512 29.3072 39.5837 28.7737 39.5837Z" fill="#C9C0C7"/>
<path d="M43.0296 43.1719H25.7275C25.194 43.1719 24.7617 42.7395 24.7617 42.2061C24.7617 41.6727 25.1941 41.2404 25.7275 41.2404H43.0296C43.5631 41.2404 43.9953 41.6727 43.9953 42.2061C43.9953 42.7395 43.5631 43.1719 43.0296 43.1719Z" fill="#C9C0C7"/>
</g>
<defs>
<clipPath id="clip0_2843_47654">
<rect width="53.7485" height="51" fill="white" transform="translate(0.646484)"/>
</clipPath>
</defs>
</svg>
