<svg width="42" height="42" viewBox="0 0 42 42" fill="none" xmlns="http://www.w3.org/2000/svg">
<g clip-path="url(#clip0_167_769)">
<path d="M23.1001 3.15051C23.1001 4.31022 22.1598 5.25049 21.0001 5.25049C19.8401 5.25049 18.9001 4.31022 18.9001 3.15051C18.9001 1.99047 19.8401 1.05054 21.0001 1.05054C22.1598 1.05054 23.1001 1.99047 23.1001 3.15051Z" fill="#FF6B6B"/>
<path d="M6.30779 0.778938L0.0827107 13.2298C-0.17466 13.7442 0.199604 14.3505 0.775867 14.3505H13.2253C13.8006 14.3505 14.1752 13.7442 13.9175 13.2298L7.6924 0.778938C7.40768 0.207802 6.59285 0.207802 6.30779 0.778938Z" fill="#FFE35B"/>
<path d="M34.3075 0.778938L28.0831 13.2298C27.825 13.7442 28.1993 14.3505 28.7756 14.3505H41.2251C41.8003 14.3505 42.1749 13.7442 41.9172 13.2298L35.6921 0.778938C35.4074 0.207802 34.5926 0.207802 34.3075 0.778938Z" fill="#FFE35B"/>
<path d="M6.30028 5.25049H7.70026V9.45044H6.30028V5.25049Z" fill="#636363"/>
<path d="M6.30028 10.8503H7.70026V12.2503H6.30028V10.8503Z" fill="#636363"/>
<path d="M34.3 5.25049H35.7V9.45044H34.3V5.25049Z" fill="#636363"/>
<path d="M34.3 10.8503H35.7V12.2503H34.3V10.8503Z" fill="#636363"/>
<path d="M3.50031 17.1504H4.90029V18.5504H3.50031V17.1504Z" fill="#A1A6A6"/>
<path d="M3.50031 19.9502H4.90029V21.3502H3.50031V19.9502Z" fill="#A1A6A6"/>
<path d="M3.50031 22.7502H4.90029V24.1502H3.50031V22.7502Z" fill="#A1A6A6"/>
<path d="M3.50031 25.5503H4.90029V26.9503H3.50031V25.5503Z" fill="#A1A6A6"/>
<path d="M3.50031 28.3501H4.90029V29.7501H3.50031V28.3501Z" fill="#A1A6A6"/>
<path d="M3.50031 31.1501H4.90029V32.5501H3.50031V31.1501Z" fill="#A1A6A6"/>
<path d="M3.50031 33.9502H4.90029V35.3502H3.50031V33.9502Z" fill="#A1A6A6"/>
<path d="M3.50031 36.75H4.90029V38.15H3.50031V36.75Z" fill="#A1A6A6"/>
<path d="M3.50031 39.55H4.90029V40.95H3.50031V39.55Z" fill="#A1A6A6"/>
<path d="M37.0999 17.1504H38.4999V18.5504H37.0999V17.1504Z" fill="#A1A6A6"/>
<path d="M37.0999 19.9502H38.4999V21.3502H37.0999V19.9502Z" fill="#A1A6A6"/>
<path d="M37.0999 22.7502H38.4999V24.1502H37.0999V22.7502Z" fill="#A1A6A6"/>
<path d="M37.0999 25.5503H38.4999V26.9503H37.0999V25.5503Z" fill="#A1A6A6"/>
<path d="M37.0999 28.3501H38.4999V29.7501H37.0999V28.3501Z" fill="#A1A6A6"/>
<path d="M37.0999 31.1501H38.4999V32.5501H37.0999V31.1501Z" fill="#A1A6A6"/>
<path d="M37.0999 36.75H38.4999V38.15H37.0999V36.75Z" fill="#A1A6A6"/>
<path d="M37.0999 39.55H38.4999V40.95H37.0999V39.55Z" fill="#A1A6A6"/>
<path d="M37.0999 33.9502H38.4999V35.3502H37.0999V33.9502Z" fill="#A1A6A6"/>
<path d="M34.3 39.55H35.7V40.95H34.3V39.55Z" fill="#A1A6A6"/>
<path d="M25.2001 2.45044H26.6001V3.85042H25.2001V2.45044Z" fill="#A1A6A6"/>
<path d="M28 2.45044H29.4V3.85042H28V2.45044Z" fill="#A1A6A6"/>
<path d="M12.6002 2.45044H14.0002V3.85042H12.6002V2.45044Z" fill="#A1A6A6"/>
<path d="M15.4002 2.45044H16.8002V3.85042H15.4002V2.45044Z" fill="#A1A6A6"/>
<path d="M31.5 39.55H32.9V40.95H31.5V39.55Z" fill="#A1A6A6"/>
<path d="M28.7 39.55H30.1V40.95H28.7V39.55Z" fill="#A1A6A6"/>
<path d="M6.30028 39.55H7.70026V40.95H6.30028V39.55Z" fill="#A1A6A6"/>
<path d="M9.10025 39.55H10.5002V40.95H9.10025V39.55Z" fill="#A1A6A6"/>
<path d="M11.9002 39.55H13.3002V40.95H11.9002V39.55Z" fill="#A1A6A6"/>
<g clip-path="url(#clip1_167_769)">
<path d="M24.8049 28.7118L21.5251 34.6042C21.2539 35.0913 21.5929 35.7002 22.1352 35.7002H28.6945C29.2368 35.7002 29.5758 35.0913 29.3046 34.6042L26.0248 28.7118C25.7536 28.2247 25.0757 28.2247 24.8045 28.7118H24.8049Z" fill="#F31700"/>
<path d="M29.3046 34.6042L26.0248 28.7118C25.7536 28.2247 25.0757 28.2247 24.8045 28.7118L24.6571 28.9767L27.7894 34.6042C28.0606 35.0913 27.7216 35.7002 27.1793 35.7002H28.6945C29.2368 35.7002 29.5758 35.0913 29.3046 34.6042Z" fill="#F31700"/>
<path d="M25.415 30.5198C25.2703 30.5198 25.1529 30.6416 25.1529 30.7916V32.6466C25.1529 32.7967 25.2703 32.9185 25.415 32.9185C25.5597 32.9185 25.6771 32.7967 25.6771 32.6466V30.7916C25.6771 30.6416 25.5597 30.5198 25.415 30.5198Z" fill="#F6AB31"/>
<path d="M25.415 33.6313C25.2703 33.6313 25.1529 33.7531 25.1529 33.9032V34.2026C25.1529 34.3526 25.2703 34.4744 25.415 34.4744C25.5597 34.4744 25.6771 34.3526 25.6771 34.2026V33.9032C25.6771 33.7531 25.5597 33.6313 25.415 33.6313Z" fill="#F6AB31"/>
<path d="M25.4639 26.7113H24.4886C24.316 26.7113 24.1567 26.6345 24.0452 26.5076L21.5065 27.6983L23.8394 26.0684C23.7957 25.9556 23.7489 25.8444 23.6982 25.7353C23.5885 25.4986 23.6343 25.2162 23.8132 25.0307L24.5058 24.3123C24.7399 24.0694 24.7399 23.6755 24.5058 23.4326L23.3704 22.255C23.1363 22.0122 22.7565 22.0122 22.5224 22.255L21.8298 22.9734C21.6502 23.1597 21.3773 23.2057 21.148 23.0915C20.9754 23.0056 20.7979 22.9288 20.6158 22.8617C20.4988 22.8186 20.4002 22.7418 20.3293 22.6436C19.8858 22.9654 19.3592 23.1394 18.8068 23.1394C18.7589 23.1394 18.7107 23.1379 18.6628 23.1354C18.154 23.1075 17.6816 22.9281 17.2867 22.6407C17.2158 22.74 17.1162 22.8183 16.9977 22.8617C16.8157 22.9288 16.6382 23.0053 16.4655 23.0912C16.2367 23.2054 15.9634 23.1593 15.7838 22.973L15.0912 22.2546C14.8571 22.0118 14.4772 22.0118 14.2431 22.2546L13.1078 23.4322C12.8737 23.6751 12.8737 24.0691 13.1078 24.3119L13.8004 25.0303C13.9793 25.2159 14.0251 25.4982 13.9153 25.7349C13.8311 25.9168 13.756 26.1039 13.6907 26.2956C13.6061 26.5446 13.3797 26.711 13.1249 26.711H12.1496C11.8184 26.711 11.55 26.9897 11.55 27.3329V28.9984C11.55 29.342 11.8184 29.6204 12.1496 29.6204H13.1249C13.3793 29.6204 13.6057 29.7871 13.6907 30.0357C13.756 30.2278 13.8311 30.4149 13.9153 30.5965C14.0251 30.8331 13.9793 31.1155 13.8004 31.3011L13.1078 32.0194C12.8737 32.2623 12.8737 32.6563 13.1078 32.8991L14.2431 34.0767C14.4772 34.3196 14.8571 34.3196 15.0912 34.0767L15.7838 33.3583C15.9627 33.1728 16.2349 33.1253 16.4631 33.2391C16.6382 33.3264 16.8188 33.4044 17.0037 33.4721C17.2437 33.5599 17.4041 33.7947 17.4041 34.059V35.0706C17.4041 35.4142 17.6725 35.6925 18.0038 35.6925H19.6094C19.9407 35.6925 20.2091 35.4142 20.2091 35.0706V34.059C20.2091 33.7951 20.3698 33.5602 20.6095 33.4721C20.7947 33.4044 20.975 33.3264 21.1501 33.2391C21.3783 33.1253 21.6505 33.1728 21.8294 33.3583L22.1254 33.6653L24.8765 28.7226C24.9974 28.5055 25.2137 28.3757 25.4555 28.3757C25.6974 28.3757 25.9137 28.5055 26.0346 28.7226L26.0632 28.7741V27.3322C26.0632 26.9886 25.7948 26.7103 25.4636 26.7103L25.4639 26.7113Z" fill="#C5D3DD"/>
<path d="M21.3701 30.8652C22.8587 29.3212 22.8587 26.8179 21.3701 25.2739C19.8816 23.73 17.4682 23.73 15.9796 25.2739C14.4911 26.8179 14.4911 29.3212 15.9796 30.8652C17.4682 32.4092 19.8816 32.4092 21.3701 30.8652Z" fill="#F5F8F9"/>
<path d="M17.9419 26.1965C17.2078 26.5394 16.6962 27.3042 16.6962 28.1933C16.6962 29.0824 17.2078 29.8475 17.9419 30.1904V26.1965Z" fill="#C5D3DD"/>
<path d="M19.672 26.1962V30.19C20.4062 29.8471 20.9177 29.0824 20.9177 28.1929C20.9177 27.3035 20.4062 26.5387 19.672 26.1958V26.1962Z" fill="#C5D3DD"/>
<path d="M18.8068 23.1665C18.7589 23.1665 18.7107 23.1651 18.6628 23.1625C18.399 23.148 18.1453 23.0926 17.907 23.0027V30.1738C18.1799 30.3075 18.485 30.3826 18.8068 30.3826C19.1286 30.3826 19.4337 30.3075 19.7069 30.1738V23.0056C19.4221 23.1114 19.1185 23.1665 18.8071 23.1665H18.8068Z" fill="#8AC9FE"/>
<path d="M18.8396 23.1657V30.3817C19.1496 30.3767 19.4431 30.3031 19.7066 30.1741V23.0059C19.4316 23.1081 19.1394 23.1624 18.8396 23.1661V23.1657Z" fill="#60B7FF"/>
<path d="M19.7069 18.0281V20.4917C19.7069 20.6881 19.5532 20.8476 19.3638 20.8476H18.2501C18.0607 20.8476 17.907 20.6881 17.907 20.4917V18.0284C17.907 17.8976 17.7756 17.8121 17.6617 17.8675C16.7185 18.3264 16.0728 19.3347 16.1084 20.4953C16.1528 21.94 17.2696 23.1241 18.6611 23.1999C20.2185 23.2847 21.5069 22.0002 21.5069 20.4036C21.5069 19.2822 20.8709 18.3148 19.9529 17.8679C19.8387 17.8121 19.7069 17.8972 19.7069 18.0284V18.0281Z" fill="#26A6FE"/>
<path d="M19.9529 17.8675C19.8387 17.8117 19.7069 17.8969 19.7069 18.0281V18.5877C20.1088 19.0763 20.3516 19.7102 20.3516 20.4032C20.3516 21.7439 19.4435 22.8639 18.2302 23.1386C18.3703 23.1705 18.514 23.1915 18.6611 23.1995C20.2185 23.2843 21.5069 21.9998 21.5069 20.4032C21.5069 19.2818 20.8709 18.3144 19.9529 17.8675Z" fill="#0593FC"/>
</g>
</g>
<defs>
<clipPath id="clip0_167_769">
<rect width="42" height="42" fill="white"/>
</clipPath>
<clipPath id="clip1_167_769">
<rect width="17.85" height="17.85" fill="white" transform="translate(11.55 17.8501)"/>
</clipPath>
</defs>
</svg>
