<svg width="35" height="35" viewBox="0 0 35 35" fill="none" xmlns="http://www.w3.org/2000/svg">
<path d="M17.5625 34.875C27.193 34.875 35 27.068 35 17.4375C35 7.80703 27.193 0 17.5625 0C7.93203 0 0.125 7.80703 0.125 17.4375C0.125 27.068 7.93203 34.875 17.5625 34.875Z" fill="#E6ECFF"/>
<path d="M31.5558 27.8296C29.9295 25.6523 27.8178 23.8843 25.3885 22.6662C22.9592 21.4481 20.2792 20.8134 17.5616 20.8125C14.844 20.8116 12.1636 21.4447 9.73353 22.6613C7.30344 23.8779 5.19061 25.6445 3.56296 27.8208C5.18234 30.0081 7.29171 31.7856 9.72195 33.0106C12.1522 34.2356 14.8356 34.8742 17.5572 34.875C20.2787 34.8759 22.9626 34.239 25.3936 33.0155C27.8246 31.792 29.9351 30.0159 31.5558 27.8296Z" fill="#4294FF"/>
<path d="M17.5625 18.5625C21.2904 18.5625 24.3125 15.5404 24.3125 11.8125C24.3125 8.08458 21.2904 5.0625 17.5625 5.0625C13.8346 5.0625 10.8125 8.08458 10.8125 11.8125C10.8125 15.5404 13.8346 18.5625 17.5625 18.5625Z" fill="#4294FF"/>
</svg>
