<svg width="24" height="24" viewBox="0 0 24 24" fill="none" xmlns="http://www.w3.org/2000/svg">
<path d="M22.5055 1.09473H18.8073L16.4073 3.49473V9.20745C16.4073 9.29836 16.48 9.37109 16.5709 9.37109H22.5055C22.5964 9.37109 22.6691 9.29836 22.6691 9.20745V1.25836C22.6691 1.16745 22.5964 1.09473 22.5055 1.09473Z" fill="#E6E9EE"/>
<path opacity="0.1" d="M17.6073 3.37836V2.56745L19.08 1.09473H18.8073L16.4073 3.49473V9.20745C16.4073 9.29836 16.48 9.37109 16.5709 9.37109H22.5055C22.5964 9.37109 22.6691 9.29836 22.6691 9.20745V8.44382C19.8727 8.44018 17.6073 6.17473 17.6073 3.37836Z" fill="black"/>
<path d="M17.04 19.1095C15.3964 19.1095 14.9091 17.3204 15.5709 16.2549C14.8764 15.8258 14.0618 15.5713 13.1855 15.5713H5.26911C2.76002 15.5713 0.727295 17.604 0.727295 20.1095V22.9058H17.7273V20.1095C17.7273 19.7349 17.6764 19.3749 17.5928 19.0295C17.4255 19.0804 17.2437 19.1095 17.04 19.1095Z" fill="#FF4823"/>
<path opacity="0.1" d="M6.82911 20.9202C4.43275 20.9202 2.59639 18.7202 3.11275 16.3821C3.14184 16.2439 3.17457 16.1348 3.21093 16.0693C1.7382 16.8184 0.727295 18.3457 0.727295 20.1093V22.9057H17.7273V20.9202H6.82911Z" fill="black"/>
<path d="M11.6764 15.8509L10.9564 13.9927H7.49822L6.77822 15.8509C6.70549 16.0399 6.76004 16.2509 6.91277 16.3818C8.24731 17.5199 10.2109 17.5199 11.5455 16.3818C11.6946 16.2509 11.7491 16.0399 11.6764 15.8509Z" fill="#E5D3B3"/>
<path d="M12.6291 4.3418C12.6291 4.3418 11.6437 6.79998 12.9055 8.25452C14.1673 9.70907 13.8037 8.0618 13.8037 8.0618C13.8037 8.0618 15.0437 4.9418 12.6291 4.3418Z" fill="#5D5B68"/>
<path d="M12.6291 4.34177C12.6291 4.34177 12.5237 5.11268 11.8473 5.41814C10.6364 5.96723 8.32368 6.10905 6.66186 5.36723C6.66186 5.36723 5.8655 5.14541 5.87641 6.71995C5.88004 7.14177 5.82186 7.56359 5.68368 7.95996C5.53459 8.39268 5.29459 8.83268 4.93095 8.8545C4.20368 8.8945 3.3055 2.82177 7.79641 2.0945C12.2873 1.36723 12.6291 4.34177 12.6291 4.34177Z" fill="#5D5B68"/>
<path opacity="0.15" d="M11.7055 2.7749C11.8691 3.13127 11.9018 3.40036 11.9018 3.40036C11.9018 3.40036 11.7964 4.17127 11.12 4.47672C9.90909 5.02581 7.59636 5.16763 5.93454 4.42581C5.93454 4.42581 5.13818 4.20399 5.14909 5.77854C5.15272 6.20036 5.09454 6.62218 4.95636 7.01854C4.84 7.35672 4.66545 7.6949 4.42181 7.84036C4.53454 8.45854 4.73818 8.86581 4.92727 8.8549C5.2909 8.83309 5.5309 8.39672 5.68 7.96036C5.81818 7.56399 5.87636 7.13854 5.87272 6.72036C5.86181 5.14581 6.65818 5.36763 6.65818 5.36763C8.31636 6.10945 10.6327 5.96763 11.8436 5.41854C12.52 5.11308 12.6255 4.34218 12.6255 4.34218C12.6255 4.34218 12.5236 3.46218 11.7055 2.7749Z" fill="black"/>
<path d="M14.0073 8.72399H13.8218C13.7491 8.9349 13.52 8.96399 12.9091 8.25854C11.9709 7.17854 12.2727 5.54217 12.4909 4.7749C12.3782 5.00399 12.1855 5.26945 11.8473 5.42217C10.6364 5.97127 8.32365 6.11308 6.66183 5.37127C6.66183 5.37127 5.86546 5.14945 5.87637 6.72399C5.88001 7.14581 5.82183 7.56763 5.68365 7.96399C5.53455 8.39672 5.29455 8.83672 4.93092 8.85854C4.86546 8.86217 4.79637 8.8149 4.73455 8.72763H4.45092C4.00001 8.8549 3.81092 9.58945 4.03274 10.364C4.25455 11.1385 4.80001 11.6622 5.25092 11.5313C5.37455 11.4949 5.47637 11.4113 5.56001 11.2949C6.32365 13.0694 7.68001 14.6658 9.2291 14.6658C10.7782 14.6658 12.1346 13.0694 12.8982 11.2949C12.9782 11.4113 13.08 11.4949 13.2073 11.5313C13.6582 11.6622 14.2036 11.1385 14.4255 10.364C14.6436 9.58581 14.4582 8.85127 14.0073 8.72399Z" fill="#E5D3B3"/>
<path d="M7.75636 9.73464C8.0315 9.73464 8.25454 9.5116 8.25454 9.23646C8.25454 8.96132 8.0315 8.73828 7.75636 8.73828C7.48122 8.73828 7.25818 8.96132 7.25818 9.23646C7.25818 9.5116 7.48122 9.73464 7.75636 9.73464Z" fill="#5D5B68"/>
<path d="M10.6982 9.73464C10.9733 9.73464 11.1964 9.5116 11.1964 9.23646C11.1964 8.96132 10.9733 8.73828 10.6982 8.73828C10.4231 8.73828 10.2 8.96132 10.2 9.23646C10.2 9.5116 10.4231 9.73464 10.6982 9.73464Z" fill="#5D5B68"/>
<path d="M9.17457 12.6511C8.70911 12.6511 8.27638 12.4693 7.94547 12.142C7.80366 12.0002 7.80366 11.7711 7.94547 11.6293C8.08729 11.4875 8.31638 11.4875 8.4582 11.6293C8.84002 12.0111 9.50184 12.0111 9.88366 11.6293C10.0255 11.4875 10.2546 11.4875 10.3964 11.6293C10.5382 11.7711 10.5382 12.0002 10.3964 12.142C10.0727 12.4693 9.63638 12.6511 9.17457 12.6511Z" fill="white"/>
<path d="M18.6437 3.49473C18.7346 3.49473 18.8073 3.422 18.8073 3.33109V1.09473L16.4073 3.49473H18.6437Z" fill="#009AFF"/>
<path d="M17.7164 5.38206H21.36C21.56 5.38206 21.7236 5.21842 21.7236 5.01842C21.7236 4.81842 21.56 4.65479 21.36 4.65479H17.7164C17.5164 4.65479 17.3527 4.81842 17.3527 5.01842C17.3527 5.21842 17.5164 5.38206 17.7164 5.38206Z" fill="#AAB2BD"/>
<path d="M21.36 6.06934H17.7164C17.5164 6.06934 17.3527 6.23297 17.3527 6.43297C17.3527 6.63297 17.5164 6.79661 17.7164 6.79661H21.36C21.56 6.79661 21.7236 6.63297 21.7236 6.43297C21.7236 6.23297 21.56 6.06934 21.36 6.06934Z" fill="#AAB2BD"/>
<path d="M21.36 7.48389H17.7164C17.5164 7.48389 17.3527 7.64752 17.3527 7.84752C17.3527 8.04752 17.5164 8.21116 17.7164 8.21116H21.36C21.56 8.21116 21.7236 8.04752 21.7236 7.84752C21.7236 7.64752 21.56 7.48389 21.36 7.48389Z" fill="#AAB2BD"/>
<g opacity="0.1">
<path d="M4.2 19.1602C4 19.1602 3.83636 19.3238 3.83636 19.5238V22.9056H4.56364V19.5238C4.56364 19.3238 4.4 19.1602 4.2 19.1602Z" fill="black"/>
<path d="M14.2546 19.1602C14.0546 19.1602 13.8909 19.3238 13.8909 19.5238V22.9056H14.6182V19.5238C14.6182 19.3238 14.4582 19.1602 14.2546 19.1602Z" fill="black"/>
</g>
<path d="M23.2728 17.2328V15.6619L22.12 15.3819C22.0182 14.9674 21.8546 14.5783 21.6437 14.2183L22.2618 13.2074L21.1491 12.0946L20.1346 12.7128C19.7782 12.5019 19.3891 12.3383 18.9746 12.2292L18.6946 11.0801H17.1237L16.8437 12.2292C16.4291 12.3346 16.0364 12.4983 15.68 12.7128L14.6691 12.0946L13.5528 13.2074L14.1746 14.2183C13.96 14.5783 13.8 14.9674 13.6909 15.3819L12.5382 15.6619V17.2328L13.6909 17.5128C13.7964 17.9274 13.9564 18.3164 14.1746 18.6764L13.5528 19.6874L14.6691 20.8001L15.68 20.1819C16.0364 20.3964 16.4291 20.5564 16.8437 20.6655L17.1237 21.8183H18.6946L18.9746 20.6655C19.3891 20.5601 19.7782 20.4001 20.1346 20.1819L21.1491 20.8001L22.2618 19.6874L21.6437 18.6764C21.8546 18.3164 22.0182 17.9274 22.12 17.5128L23.2728 17.2328ZM17.9091 18.4328C16.8109 18.4328 15.9237 17.5455 15.9237 16.4474C15.9237 15.3528 16.8109 14.4655 17.9091 14.4655C19.0037 14.4655 19.8909 15.3528 19.8909 16.4474C19.8909 17.5455 19.0037 18.4328 17.9091 18.4328Z" fill="#FEC200"/>
<path opacity="0.1" d="M10.9564 13.9927C10.4255 14.4072 9.84367 14.6618 9.22912 14.6618C8.61458 14.6618 8.02912 14.4072 7.50185 13.9927L7.4873 14.029C8.10912 14.6363 8.82912 15.0254 9.59276 15.0254C10.1418 15.0254 10.6655 14.8218 11.1491 14.4836L10.9564 13.9927Z" fill="black"/>
<path opacity="0.1" d="M20.3055 19.9527C17.1091 19.9527 14.5164 17.36 14.5164 14.1636C14.5164 13.4763 14.6401 12.8218 14.8619 12.2145L14.6728 12.0981L13.5564 13.2109L14.1782 14.2218C13.9637 14.5818 13.8037 14.9709 13.6946 15.3854L12.5419 15.6654V17.2363L13.6946 17.5163C13.8001 17.9309 13.9601 18.32 14.1782 18.68L13.5564 19.6909L14.6728 20.8036L15.6837 20.1854C16.0401 20.4 16.4328 20.56 16.8473 20.6691L17.1273 21.8218H18.6982L18.9782 20.6691C19.3928 20.5636 19.7819 20.4036 20.1382 20.1854L21.1528 20.8036L22.2655 19.6909L22.2291 19.6291C21.6219 19.8327 20.9782 19.9527 20.3055 19.9527Z" fill="black"/>
</svg>
