<svg width="24" height="24" viewBox="0 0 24 24" fill="none" xmlns="http://www.w3.org/2000/svg">
<g clip-path="url(#clip0_456_1512)">
<path fill-rule="evenodd" clip-rule="evenodd" d="M8.64828 15.7241C8.24622 16.3521 7.97853 17.0566 7.86207 17.7931H1.03448C0.463154 17.7931 0 17.3299 0 16.7586C0 16.1873 0.463154 15.7241 1.03448 15.7241H8.64828Z" fill="#DD7236"/>
<path fill-rule="evenodd" clip-rule="evenodd" d="M8.64828 21.5172H1.03448C0.463154 21.5172 0 21.0541 0 20.4828C0 19.9114 0.463154 19.4483 1.03448 19.4483H7.86207C7.97853 20.1848 8.24622 20.8892 8.64828 21.5172Z" fill="#DD7236"/>
<path fill-rule="evenodd" clip-rule="evenodd" d="M14.069 0.827586V13.4566C13.531 13.2993 12.9724 14.0524 12.4138 14.069H0.827586C0.371089 14.0676 0.00136337 13.6979 0 13.2414V0.827586C0.00136337 0.371089 0.371089 0.00136337 0.827586 0H13.2414C13.6979 0.00136337 14.0676 0.371089 14.069 0.827586Z" fill="#ECF0F1"/>
<path d="M23.5862 7.21242H20.6607C20.5501 7.21288 20.4443 7.25758 20.3669 7.33656L14.2055 13.4938C14.16 13.4814 14.1145 13.4648 14.0689 13.4566C12.6008 13.0333 11.0219 13.2561 9.72825 14.069C9.38672 14.2841 9.07028 14.5367 8.78481 14.8221C8.50987 15.0953 8.26566 15.3978 8.05653 15.7241C7.65447 16.3521 7.38679 17.0566 7.27032 17.7931C7.18756 18.3417 7.18756 18.8997 7.27032 19.4483C7.58401 21.4398 8.98496 23.0888 10.8997 23.7201C12.8144 24.3514 14.9213 23.8591 16.358 22.4447C17.7947 21.0303 18.3199 18.9312 17.7186 17.0069L18.6124 16.1131C18.6902 16.0353 18.7961 15.992 18.9062 15.9931H20.0731C20.3016 15.9931 20.4869 15.8078 20.4869 15.5793V14.6483C20.4869 14.4197 20.6721 14.2345 20.9007 14.2345H21.8317C22.0602 14.2345 22.2455 14.0492 22.2455 13.8207V12.8938C22.2455 12.6653 22.4308 12.48 22.6593 12.48H23.5862C23.8147 12.48 24 12.2947 24 12.0662V7.62621C24 7.39768 23.8147 7.21242 23.5862 7.21242ZM12.0041 20.9669C11.5189 21.4504 10.7337 21.4495 10.2496 20.9649C9.76545 20.4802 9.76545 19.695 10.2496 19.2103C10.7337 18.7256 11.5189 18.7247 12.0041 19.2083C12.2379 19.4412 12.3692 19.7576 12.3692 20.0876C12.3692 20.4176 12.2379 20.734 12.0041 20.9669Z" fill="#F0C419"/>
<path fill-rule="evenodd" clip-rule="evenodd" d="M16.3925 15.235C16.2251 15.235 16.0743 15.1342 16.0103 14.9796C15.9462 14.825 15.9816 14.647 16.0999 14.5287L21.3667 9.26194C21.4714 9.15742 21.624 9.11672 21.7669 9.15517C21.9097 9.19361 22.0213 9.30537 22.0594 9.44834C22.0976 9.59131 22.0565 9.74376 21.9518 9.84828L16.685 15.1138C16.6076 15.1917 16.5023 15.2353 16.3925 15.235Z" fill="#B19046"/>
<path fill-rule="evenodd" clip-rule="evenodd" d="M12.4137 12.4055V13.2497C11.8485 13.2667 11.2897 13.3743 10.7586 13.5683C10.472 13.6705 10.1951 13.7979 9.93098 13.949C9.86477 13.9862 9.79442 14.0276 9.72822 14.069H7.03442V10.7586L8.11442 10.9738C8.35733 11.0221 8.60909 10.9591 8.80059 10.802C8.99209 10.645 9.10319 10.4104 9.10339 10.1628V9.10345H9.15304C10.029 9.08926 10.8726 9.43411 11.4877 10.0579C12.1028 10.6816 12.4359 11.5299 12.4096 12.4055H12.4137Z" fill="#E93333"/>
<path fill-rule="evenodd" clip-rule="evenodd" d="M7.03458 10.7586V14.069H1.65527V12.4097C1.6428 11.6794 1.87111 10.9654 2.30493 10.3779C2.93297 9.57419 3.89594 9.10416 4.91596 9.10345H4.96561V10.1628C4.96581 10.4104 5.07692 10.645 5.26841 10.802C5.45991 10.9591 5.71168 11.0221 5.95458 10.9738L7.03458 10.7586Z" fill="#C80A50"/>
<path fill-rule="evenodd" clip-rule="evenodd" d="M4.13789 12V14.069H3.3103V12C3.3103 11.7715 3.49556 11.5862 3.7241 11.5862C3.95263 11.5862 4.13789 11.7715 4.13789 12Z" fill="#ECF0F1"/>
<path fill-rule="evenodd" clip-rule="evenodd" d="M10.7587 12V13.5683C10.4722 13.6705 10.1952 13.7979 9.93115 13.949V12C9.93115 11.7715 10.1164 11.5862 10.3449 11.5862C10.5735 11.5862 10.7587 11.7715 10.7587 12Z" fill="#ECF0F1"/>
<path fill-rule="evenodd" clip-rule="evenodd" d="M9.93104 4.55172V5.3793C8.27587 5.3793 7.86208 3.72413 7.86208 3.72413C7.86208 5.3793 4.13794 4.96551 4.13794 4.96551V4.55172C4.13794 3.51688 4.69002 2.56065 5.58622 2.04323C6.48241 1.52581 7.58657 1.52581 8.48277 2.04323C9.37896 2.56065 9.93104 3.51688 9.93104 4.55172Z" fill="#A56A43"/>
<path fill-rule="evenodd" clip-rule="evenodd" d="M4.13786 4.96552V7.03448H3.93097C3.35964 7.03448 2.89648 6.57133 2.89648 6C2.89648 5.42867 3.35964 4.96552 3.93097 4.96552H4.13786Z" fill="#F9C795"/>
<path fill-rule="evenodd" clip-rule="evenodd" d="M9.93105 5.37931V6.62069C9.93246 7.6384 9.39794 8.58168 8.52415 9.10345C7.60767 9.65517 6.46131 9.65517 5.54484 9.10345C4.67105 8.58168 4.13653 7.6384 4.13794 6.62069V4.96552C4.13794 4.96552 7.86208 5.37931 7.86208 3.72414C7.86208 3.72414 8.27587 5.37931 9.93105 5.37931Z" fill="#FDD7AD"/>
<path fill-rule="evenodd" clip-rule="evenodd" d="M11.1725 6C11.1725 6.57133 10.7094 7.03449 10.138 7.03449H9.93115V4.96552L10.138 4.96552C10.4127 4.96464 10.6763 5.07334 10.8705 5.26754C11.0647 5.46173 11.1734 5.72537 11.1725 6Z" fill="#F9C795"/>
<path fill-rule="evenodd" clip-rule="evenodd" d="M9.10339 9.10345V10.1628C9.10319 10.4104 8.99209 10.645 8.80059 10.802C8.60909 10.9591 8.35733 11.0221 8.11442 10.9738L7.03442 10.7586V9.51725C7.55963 9.51933 8.07519 9.37612 8.52408 9.10345H9.10339Z" fill="#ECF0F1"/>
<path fill-rule="evenodd" clip-rule="evenodd" d="M7.03454 9.51725V10.7586L5.95454 10.9738C5.71164 11.0221 5.45987 10.9591 5.26837 10.802C5.07688 10.645 4.96578 10.4104 4.96558 10.1628V9.10345H5.54489C5.99378 9.37612 6.50933 9.51933 7.03454 9.51725Z" fill="white"/>
</g>
<defs>
<clipPath id="clip0_456_1512">
<rect width="24" height="24" fill="white"/>
</clipPath>
</defs>
</svg>
