<svg width="22" height="22" viewBox="0 0 22 22" fill="none" xmlns="http://www.w3.org/2000/svg">
<g clip-path="url(#clip0_3906_16265)">
<path d="M21.4336 9.66148L19.574 9.38197C19.3478 8.17614 18.8738 7.05783 18.2065 6.08188L19.3242 4.56882C19.5198 4.30397 19.4923 3.93589 19.2595 3.70309L18.297 2.74059C18.0641 2.50779 17.696 2.48024 17.4312 2.67588L15.9182 3.7935C14.9423 3.12619 13.8239 2.65216 12.6181 2.42602L12.3386 0.566457C12.2896 0.24084 12.0099 0 11.6806 0H10.3194C9.9901 0 9.71038 0.24084 9.66144 0.566414L9.38188 2.42597C8.17605 2.65216 7.05774 3.12615 6.0818 3.79345L4.56878 2.67584C4.30392 2.4802 3.93585 2.50774 3.70305 2.74055L2.74055 3.70305C2.50774 3.93585 2.48024 4.30397 2.67584 4.56878L3.79345 6.08184C3.12615 7.05775 2.65212 8.17605 2.42597 9.38193L0.566414 9.66144C0.240797 9.71042 0 9.99015 0 10.3194V11.6806C0 12.0099 0.240797 12.2896 0.566414 12.3385L2.42597 12.6181C2.65216 13.8239 3.12615 14.9422 3.79345 15.9182L2.67584 17.4312C2.4802 17.696 2.50774 18.0641 2.74055 18.297L3.70305 19.2595C3.93585 19.4923 4.30396 19.5198 4.56878 19.3242L6.68237 17.7533L7.2044 17.5208L7.07231 17.1667L7.03188 16.6989C5.59857 15.4789 4.34822 13.8282 4.34822 11.7984C4.34822 11.6639 4.35269 11.5305 4.36055 11.3979V11.398C4.35278 11.2663 4.34822 11.1337 4.34822 11.0001C4.34822 7.32643 7.3263 4.34835 11 4.34835C14.6736 4.34835 17.6517 7.32634 17.6517 11C17.6517 11.1336 17.6471 11.2662 17.6394 11.3979C17.6473 11.5305 17.6517 11.6639 17.6517 11.7984C17.6517 13.7604 16.4151 15.4779 15.0638 16.6953L14.9276 17.1667L14.7496 17.45L15.3175 17.7533L17.4311 19.3242C17.696 19.5198 18.0641 19.4923 18.2969 19.2595L19.2594 18.297C19.4922 18.0641 19.5197 17.696 19.3241 17.4312L18.2065 15.9182C18.8738 14.9423 19.3478 13.8239 19.5739 12.6181L21.4335 12.3385C21.7591 12.2896 21.9999 12.0099 21.9999 11.6806V10.3194C22 9.99015 21.7592 9.71042 21.4336 9.66148Z" fill="#FF4755"/>
<path d="M17.6515 11.798C17.6515 11.6635 17.647 11.53 17.6392 11.3975C17.5069 13.6385 16.2657 15.5812 14.4561 16.6839L14.3042 16.9022L14.9274 17.1663C16.5789 15.956 17.6515 14.0024 17.6515 11.798Z" fill="#FC2B3A"/>
<path d="M4.36048 11.3975C4.35261 11.53 4.34814 11.6635 4.34814 11.798C4.34814 14.0024 5.42077 15.956 7.07223 17.1664L7.68359 16.9143L7.5436 16.6839C5.73393 15.5812 4.49273 13.6385 4.36048 11.3975Z" fill="#FC2B3A"/>
<path d="M7.11048 12.4744C7.11048 12.4744 6.35023 11.1468 6.65939 9.44067C7.09338 7.04564 10.9164 4.70272 12.6571 7.40266C12.6571 7.40266 16.46 6.79105 14.9661 12.6057L7.11048 12.4744Z" fill="#365E7D"/>
<path d="M12.0859 15.8125H9.91395C7.89245 15.8125 6.25366 17.4512 6.25366 19.4728V21.202L10.9999 21.5887L15.7462 21.202V19.4728C15.7462 17.4512 14.1074 15.8125 12.0859 15.8125Z" fill="#8BCAFF"/>
<path d="M6.47547 21.9995H7.79607L8.12886 21.6128L8.46135 21.9995H13.5385L13.871 21.6128L14.2038 21.9995H15.5244C15.6469 21.9995 15.7462 21.9002 15.7462 21.7778V21.2012H6.25366V21.7778C6.25366 21.9002 6.35296 21.9995 6.47547 21.9995Z" fill="#6CC4FF"/>
<path d="M7.92682 13.6144L8.02926 13.2224L8.41598 12.7722L8.02926 12.0502C7.99557 12.0467 7.96141 12.0449 7.92682 12.0449C7.5218 12.0449 7.17379 12.2881 7.02026 12.6363C7.02022 13.3467 7.5218 13.6144 7.92682 13.6144Z" fill="#F4B184"/>
<path d="M8.02928 13.2219C7.99559 13.2254 7.96143 13.2271 7.92684 13.2271C7.52181 13.2271 7.17381 12.9839 7.02028 12.6357C6.9664 12.7579 6.93628 12.8929 6.93628 13.0349C6.93628 13.582 7.37976 14.0255 7.92684 14.0255C7.99606 14.0255 8.06356 14.0183 8.12879 14.0048L8.26118 13.7236L8.02928 13.2219Z" fill="#EAA678"/>
<path d="M10.8425 20.4382C10.9293 20.5258 11.0709 20.5258 11.1577 20.4382L11.935 19.2661L11.5506 17.1592L11 16.7725L10.4493 17.1592L10.0649 19.2661L10.8425 20.4382Z" fill="#FF4755"/>
<path d="M11.5506 17.1594H10.4493L9.92627 15.8125H12.0737L11.5506 17.1594Z" fill="#EA2F4A"/>
<path d="M10.8424 20.051L10.0649 19.2656L9.9626 19.8261C9.94958 19.8973 9.97222 19.9704 10.0232 20.0219L10.8424 20.8494C10.9292 20.9371 11.0708 20.9371 11.1576 20.8494L11.9767 20.0219C12.0277 19.9704 12.0503 19.8974 12.0373 19.8261L11.935 19.2657L11.1576 20.051C11.0708 20.1387 10.9292 20.1387 10.8424 20.051Z" fill="#FC2B3A"/>
<path d="M14.0731 13.6144L13.9707 13.2224L13.584 12.7722L13.9707 12.0502C14.0044 12.0467 14.0386 12.0449 14.0731 12.0449C14.4782 12.0449 14.8262 12.2881 14.9797 12.6363C14.9797 13.3467 14.4781 13.6144 14.0731 13.6144Z" fill="#F4B184"/>
<path d="M13.9709 13.2219C14.0046 13.2254 14.0387 13.2271 14.0733 13.2271C14.4783 13.2271 14.8263 12.9839 14.9799 12.6357C15.0337 12.7579 15.0639 12.8929 15.0639 13.0349C15.0639 13.582 14.6204 14.0255 14.0733 14.0255C14.0041 14.0255 13.9366 14.0183 13.8714 14.0048L13.739 13.7236L13.9709 13.2219Z" fill="#EAA678"/>
<path d="M11 15.7993C12.6407 15.7993 13.9708 14.8582 13.9708 12.4418V11.1222C13.9708 11.0408 13.9265 10.966 13.8549 10.9274C13.5789 10.7786 12.8691 10.3143 12.3808 9.27105C12.3145 9.12934 12.1269 9.0996 12.0191 9.21304C10.9024 10.3875 8.84274 10.8024 8.21544 10.9047C8.10806 10.9222 8.0293 11.0148 8.0293 11.1236V12.4418C8.02925 14.7456 9.35935 15.7993 11 15.7993Z" fill="#FFC89F"/>
<path d="M11.0001 15.4131C9.35935 15.4131 8.0293 14.0831 8.0293 12.4424V13.2408C8.0293 14.8815 9.35935 16.2115 11.0001 16.2115C12.6408 16.2115 13.9708 14.8815 13.9708 13.2408V12.4424C13.9708 14.0831 12.6408 15.4131 11.0001 15.4131Z" fill="#F7BC94"/>
<path d="M8.46147 19.9254V21.202L8.12881 21.5887L7.79614 21.202V19.9254C7.79614 19.7414 7.94473 19.5928 8.12881 19.5928C8.31246 19.5928 8.46147 19.7414 8.46147 19.9254Z" fill="#2EABFF"/>
<path d="M14.2036 19.9254V21.202L13.8711 21.5887L13.5383 21.202V19.9254C13.5383 19.7414 13.6874 19.5928 13.871 19.5928C14.055 19.5928 14.2036 19.7414 14.2036 19.9254Z" fill="#2EABFF"/>
<path d="M7.79614 21.2012H8.46147V21.9996H7.79614V21.2012Z" fill="#109BE8"/>
<path d="M13.5386 21.2012H14.2039V21.9996H13.5386V21.2012Z" fill="#109BE8"/>
<path d="M9.55767 13.33C9.7418 13.33 9.89098 13.1808 9.89098 12.9967V12.3294C9.89098 12.1453 9.74175 11.9961 9.55767 11.9961C9.37355 11.9961 9.22437 12.1453 9.22437 12.3294V12.9967C9.22437 13.1808 9.3736 13.33 9.55767 13.33Z" fill="#365E7D"/>
<path d="M12.4424 13.33C12.6266 13.33 12.7757 13.1808 12.7757 12.9967V12.3294C12.7757 12.1453 12.6265 11.9961 12.4424 11.9961C12.2583 11.9961 12.1091 12.1453 12.1091 12.3294V12.9967C12.1091 13.1808 12.2583 13.33 12.4424 13.33Z" fill="#365E7D"/>
<path d="M11.0001 14.8589C11.5779 14.8589 11.875 14.5117 11.9595 14.3065C11.9824 14.2601 11.9962 14.2091 11.9962 14.1542C11.9962 13.9698 11.8468 13.8203 11.6624 13.8203C11.5176 13.8203 11.3944 13.9126 11.3481 14.0415C11.3351 14.0667 11.2574 14.1923 11.0001 14.1923C10.7427 14.1923 10.665 14.0667 10.652 14.0415C10.6058 13.9126 10.4826 13.8203 10.3378 13.8203C10.1534 13.8203 10.0039 13.9698 10.0039 14.1542C10.0039 14.2091 10.0177 14.2601 10.0406 14.3065C10.1251 14.5117 10.4222 14.8589 11.0001 14.8589Z" fill="#FF4755"/>
</g>
<defs>
<clipPath id="clip0_3906_16265">
<rect width="22" height="22" fill="white"/>
</clipPath>
</defs>
</svg>
