<svg width="16" height="17" viewBox="0 0 16 17" fill="none" xmlns="http://www.w3.org/2000/svg">
<g clip-path="url(#clip0_3826_15101)">
<path d="M10.3842 0H3.66055C2.91788 0 2.31583 0.595065 2.31583 1.32913V13.7934C2.31583 14.5275 2.91788 15.1225 3.66055 15.1225H12.6254C13.3681 15.1225 13.9701 14.5275 13.9701 13.7934V3.54434L10.3842 0Z" fill="#E4F2F9"/>
<path d="M10.3842 0V3.1013C10.3842 3.34598 10.5849 3.54434 10.8324 3.54434H13.9701L10.3842 0Z" fill="#77BEE2"/>
<path d="M11.4301 8.91978H4.85587C4.60832 8.91978 4.40762 8.72141 4.40762 8.47673C4.40762 8.23206 4.60832 8.03369 4.85587 8.03369H11.4301C11.6776 8.03369 11.8783 8.23206 11.8783 8.47673C11.8783 8.72141 11.6776 8.91978 11.4301 8.91978Z" fill="#5F5F82"/>
<path d="M11.4301 6.26157H4.85587C4.60832 6.26157 4.40762 6.06321 4.40762 5.81853C4.40762 5.57385 4.60832 5.37549 4.85587 5.37549H11.4301C11.6776 5.37549 11.8783 5.57385 11.8783 5.81853C11.8783 6.06321 11.6776 6.26157 11.4301 6.26157Z" fill="#5F5F82"/>
<path d="M11.4301 11.578H4.85587C4.60832 11.578 4.40762 11.3796 4.40762 11.1349C4.40762 10.8903 4.60832 10.6919 4.85587 10.6919H11.4301C11.6776 10.6919 11.8783 10.8903 11.8783 11.1349C11.8783 11.3796 11.6776 11.578 11.4301 11.578Z" fill="#5F5F82"/>
<path d="M11.8783 8.47673C11.8783 8.23206 11.6776 8.03369 11.4301 8.03369H8.14297V8.91978H11.4301C11.6776 8.91978 11.8783 8.72141 11.8783 8.47673Z" fill="#3C3C55"/>
<path d="M11.8783 5.81853C11.8783 5.57385 11.6776 5.37549 11.4301 5.37549H8.14297V6.26157H11.4301C11.6776 6.26157 11.8783 6.06321 11.8783 5.81853Z" fill="#3C3C55"/>
<path d="M11.4301 11.578C11.6776 11.578 11.8783 11.3796 11.8783 11.1349C11.8783 10.8903 11.6776 10.6919 11.4301 10.6919H8.14297V11.578H11.4301Z" fill="#3C3C55"/>
</g>
<g clip-path="url(#clip1_3826_15101)">
<path d="M1.63515 15.0661C2.46876 15.0661 3.14453 14.3903 3.14453 13.5567C3.14453 12.7231 2.46876 12.0474 1.63515 12.0474C0.801548 12.0474 0.125778 12.7231 0.125778 13.5567C0.125778 14.3903 0.801548 15.0661 1.63515 15.0661Z" fill="#FFDA73"/>
<path d="M3.52187 13.5571H4.52812C4.72827 13.5571 4.92023 13.6366 5.06176 13.7782C5.20329 13.9197 5.28281 14.1117 5.28281 14.3118V16.1985C5.28281 16.2319 5.26955 16.2639 5.24597 16.2875C5.22238 16.3111 5.19038 16.3243 5.15703 16.3243H2.89296C2.8596 16.3243 2.82761 16.3111 2.80402 16.2875C2.78043 16.2639 2.76718 16.2319 2.76718 16.1985V14.3118C2.76718 14.1117 2.84669 13.9197 2.98822 13.7782C3.12976 13.6366 3.32171 13.5571 3.52187 13.5571Z" fill="#304266"/>
<path d="M4.02499 13.4312C4.37233 13.4312 4.6539 13.1496 4.6539 12.8022C4.6539 12.4549 4.37233 12.1733 4.02499 12.1733C3.67766 12.1733 3.39609 12.4549 3.39609 12.8022C3.39609 13.1496 3.67766 13.4312 4.02499 13.4312Z" fill="#FFAD66"/>
<path d="M6.56704 13.0989C6.61735 13.1895 6.88023 13.7492 6.31548 14.7768C6.31261 14.7817 6.31147 14.7874 6.31223 14.793C6.313 14.7986 6.31563 14.8038 6.3197 14.8077C6.32376 14.8116 6.32903 14.814 6.33466 14.8146C6.34028 14.8152 6.34593 14.8138 6.3507 14.8108C7.42109 14.1089 7.37707 13.275 7.35695 13.114C7.35637 13.1104 7.3566 13.1068 7.35762 13.1034C7.35865 13.0999 7.36043 13.0967 7.36285 13.0941C7.36527 13.0914 7.36826 13.0893 7.37159 13.088C7.37492 13.0867 7.37851 13.0861 7.3821 13.0863H7.59719C7.60208 13.0865 7.60693 13.0853 7.61113 13.0828C7.61533 13.0802 7.61871 13.0766 7.62085 13.0722C7.62299 13.0677 7.62379 13.0628 7.62316 13.058C7.62253 13.0531 7.6205 13.0485 7.61731 13.0448L6.97709 12.2222C6.97461 12.2193 6.97152 12.2169 6.96805 12.2153C6.96457 12.2137 6.96079 12.2129 6.95696 12.2129C6.95313 12.2129 6.94935 12.2137 6.94587 12.2153C6.9424 12.2169 6.93932 12.2193 6.93684 12.2222L6.28906 13.0448C6.28587 13.0485 6.28384 13.0531 6.28321 13.058C6.28258 13.0628 6.28339 13.0677 6.28553 13.0722C6.28766 13.0766 6.29104 13.0802 6.29524 13.0828C6.29945 13.0853 6.30429 13.0865 6.30919 13.0863H6.54062C6.54578 13.0856 6.55103 13.0864 6.55573 13.0886C6.56043 13.0908 6.56436 13.0944 6.56704 13.0989Z" fill="#21A658"/>
<path d="M2.55588 10.8993C2.55588 10.8993 2.61877 10.1107 4.00991 9.53209C4.01557 9.53023 4.02039 9.52642 4.0235 9.52134C4.02662 9.51627 4.02783 9.51025 4.02692 9.50436C4.02602 9.49847 4.02305 9.4931 4.01856 9.48919C4.01406 9.48529 4.00832 9.4831 4.00236 9.48303C2.34457 9.33084 1.83515 10.3321 1.83515 10.3321L1.60497 10.1509C1.60124 10.1481 1.59679 10.1464 1.59214 10.146C1.58749 10.1456 1.58281 10.1465 1.57863 10.1486C1.57445 10.1506 1.57094 10.1539 1.56848 10.1578C1.56602 10.1618 1.56472 10.1664 1.56472 10.1711L1.55718 11.3949C1.55698 11.3988 1.55773 11.4027 1.55937 11.4062C1.56101 11.4097 1.56348 11.4128 1.56658 11.4152C1.56968 11.4175 1.57331 11.4191 1.57715 11.4197C1.58099 11.4204 1.58493 11.42 1.58862 11.4188L2.776 11.1257C2.78048 11.1245 2.78453 11.122 2.78769 11.1186C2.79086 11.1152 2.79302 11.111 2.79393 11.1064C2.79484 11.1019 2.79447 11.0971 2.79286 11.0928C2.79125 11.0884 2.78846 11.0846 2.7848 11.0817L2.55462 10.9006L2.55588 10.8993Z" fill="#21A658"/>
<path d="M1.76093 13.4313V13.0539C1.79767 13.0561 1.83314 13.0682 1.86366 13.0887C1.89418 13.1093 1.91865 13.1377 1.93451 13.1709C1.94479 13.1919 1.96071 13.2096 1.98048 13.222C2.00025 13.2344 2.0231 13.2411 2.04646 13.2413C2.06661 13.2414 2.08649 13.2367 2.10443 13.2276C2.12238 13.2184 2.13786 13.205 2.14957 13.1887C2.16128 13.1723 2.16888 13.1533 2.17173 13.1333C2.17458 13.1134 2.1726 13.0931 2.16595 13.074C2.1309 12.9952 2.07429 12.9278 2.00263 12.8798C1.93097 12.8317 1.84719 12.8049 1.76093 12.8023V12.6766C1.76093 12.6432 1.74768 12.6112 1.72409 12.5876C1.70051 12.564 1.66851 12.5508 1.63515 12.5508C1.60179 12.5508 1.5698 12.564 1.54621 12.5876C1.52262 12.6112 1.50937 12.6432 1.50937 12.6766V12.8023C1.39261 12.8023 1.28064 12.8487 1.19808 12.9313C1.11552 13.0138 1.06914 13.1258 1.06914 13.2426C1.06914 13.3593 1.11552 13.4713 1.19808 13.5539C1.28064 13.6364 1.39261 13.6828 1.50937 13.6828V14.0602C1.47263 14.0579 1.43717 14.0459 1.40664 14.0253C1.37612 14.0048 1.35166 13.9764 1.33579 13.9432C1.32552 13.9222 1.3096 13.9045 1.28983 13.8921C1.27005 13.8796 1.24721 13.8729 1.22385 13.8727C1.20318 13.8716 1.18253 13.8755 1.16376 13.8842C1.14498 13.893 1.12864 13.9062 1.1162 13.9227C1.10375 13.9393 1.09559 13.9586 1.09243 13.9791C1.08926 13.9996 1.0912 14.0205 1.09807 14.04C1.13357 14.1198 1.19116 14.1878 1.26404 14.236C1.33691 14.2841 1.42204 14.3104 1.50937 14.3117V14.4375C1.50937 14.4709 1.52262 14.5029 1.54621 14.5264C1.5698 14.55 1.60179 14.5633 1.63515 14.5633C1.66851 14.5633 1.70051 14.55 1.72409 14.5264C1.74768 14.5029 1.76093 14.4709 1.76093 14.4375V14.3117C1.87769 14.3117 1.98967 14.2653 2.07223 14.1828C2.15479 14.1002 2.20117 13.9882 2.20117 13.8715C2.20117 13.7547 2.15479 13.6428 2.07223 13.5602C1.98967 13.4776 1.87769 13.4313 1.76093 13.4313ZM1.3207 13.2426C1.32227 13.193 1.34266 13.146 1.3777 13.1109C1.41275 13.0759 1.45983 13.0555 1.50937 13.0539V13.4313C1.45983 13.4297 1.41275 13.4093 1.3777 13.3742C1.34266 13.3392 1.32227 13.2921 1.3207 13.2426ZM1.76093 14.0602V13.6828C1.81097 13.6828 1.85896 13.7027 1.89435 13.7381C1.92973 13.7735 1.94961 13.8214 1.94961 13.8715C1.94961 13.9215 1.92973 13.9695 1.89435 14.0049C1.85896 14.0403 1.81097 14.0602 1.76093 14.0602Z" fill="#CC9700"/>
<g clip-path="url(#clip2_3826_15101)">
<path d="M6.1224 9.2317C6.18219 9.01784 6.1279 8.77878 5.96013 8.61051C5.79276 8.44394 5.5563 8.38935 5.34384 8.44704L5.70398 8.80727L5.60939 9.15981L5.25636 9.25419L4.89603 8.89426C4.83864 9.10692 4.89333 9.34318 5.0605 9.51034C5.23526 9.68541 5.48752 9.7369 5.70808 9.66502L5.71018 9.66702L7.1917 11.1485C7.25029 11.207 7.32718 11.2366 7.40396 11.2366C7.48095 11.2366 7.55743 11.207 7.61622 11.1485C7.7334 11.0316 7.7334 10.8417 7.61622 10.724L6.1224 9.2317ZM7.42976 11.0983C7.36667 11.0983 7.31568 11.047 7.31568 10.9836C7.31568 10.9202 7.36667 10.869 7.42976 10.869C7.49345 10.869 7.54494 10.9202 7.54494 10.9836C7.54494 11.047 7.49345 11.0983 7.42976 11.0983Z" fill="#FFDA73"/>
</g>
</g>
<defs>
<clipPath id="clip0_3826_15101">
<rect width="11.9" height="15.1225" fill="white" transform="translate(2.10001)"/>
</clipPath>
<clipPath id="clip1_3826_15101">
<rect width="8.05" height="8.05" fill="white" transform="translate(0 8.3999)"/>
</clipPath>
<clipPath id="clip2_3826_15101">
<rect width="2.83008" height="2.83008" fill="white" transform="translate(4.87402 8.41553)"/>
</clipPath>
</defs>
</svg>
