<svg width="64" height="64" viewBox="0 0 64 64" fill="none" xmlns="http://www.w3.org/2000/svg">
<path d="M13 53C19.6274 53 25 47.6274 25 41C25 34.3726 19.6274 29 13 29C6.37258 29 1 34.3726 1 41C1 47.6274 6.37258 53 13 53Z" fill="#FFDA73"/>
<path d="M28 41H36C37.5913 41 39.1174 41.6321 40.2426 42.7574C41.3679 43.8826 42 45.4087 42 47V62C42 62.2652 41.8946 62.5196 41.7071 62.7071C41.5196 62.8946 41.2652 63 41 63H23C22.7348 63 22.4804 62.8946 22.2929 62.7071C22.1054 62.5196 22 62.2652 22 62V47C22 45.4087 22.6321 43.8826 23.7574 42.7574C24.8826 41.6321 26.4087 41 28 41Z" fill="#304266"/>
<path d="M32 40C34.7614 40 37 37.7614 37 35C37 32.2386 34.7614 30 32 30C29.2386 30 27 32.2386 27 35C27 37.7614 29.2386 40 32 40Z" fill="#FFAD66"/>
<path d="M52.2098 37.3599C52.6098 38.0799 54.6998 42.5299 50.2098 50.6999C50.187 50.7386 50.1779 50.7839 50.184 50.8284C50.1901 50.8729 50.211 50.9141 50.2434 50.9453C50.2757 50.9765 50.3176 50.9959 50.3623 51.0003C50.407 51.0048 50.4519 50.9941 50.4898 50.9699C58.9998 45.3899 58.6498 38.7599 58.4898 37.4799C58.4852 37.4517 58.4871 37.4228 58.4952 37.3954C58.5034 37.368 58.5176 37.3428 58.5368 37.3217C58.556 37.3005 58.5797 37.284 58.6062 37.2733C58.6327 37.2626 58.6613 37.258 58.6898 37.2599H60.3998C60.4387 37.2615 60.4773 37.2517 60.5107 37.2317C60.5441 37.2117 60.5709 37.1824 60.5879 37.1473C60.6049 37.1123 60.6113 37.073 60.6063 37.0344C60.6013 36.9958 60.5852 36.9595 60.5598 36.9299L55.4698 30.3899C55.4501 30.3667 55.4256 30.3481 55.398 30.3353C55.3703 30.3225 55.3403 30.3159 55.3098 30.3159C55.2794 30.3159 55.2493 30.3225 55.2217 30.3353C55.1941 30.3481 55.1695 30.3667 55.1498 30.3899L49.9998 36.9299C49.9745 36.9595 49.9583 36.9958 49.9533 37.0344C49.9483 37.073 49.9547 37.1123 49.9717 37.1473C49.9887 37.1824 50.0155 37.2117 50.049 37.2317C50.0824 37.2517 50.1209 37.2615 50.1598 37.2599H51.9998C52.0408 37.254 52.0826 37.2604 52.1199 37.2782C52.1573 37.296 52.1886 37.3244 52.2098 37.3599Z" fill="#21A658"/>
<path d="M20.3201 19.8701C20.3201 19.8701 20.8201 13.6 31.8801 9.00005C31.9251 8.98527 31.9634 8.95501 31.9882 8.91464C32.013 8.87428 32.0226 8.82643 32.0154 8.77962C32.0082 8.73282 31.9846 8.69008 31.9489 8.65903C31.9131 8.62798 31.8675 8.61062 31.8201 8.61005C18.6401 7.40005 14.5901 15.36 14.5901 15.36L12.7601 13.9201C12.7304 13.8978 12.6951 13.8842 12.6581 13.8809C12.6211 13.8775 12.5839 13.8846 12.5507 13.9012C12.5175 13.9178 12.4895 13.9433 12.47 13.9749C12.4505 14.0065 12.4401 14.0429 12.4401 14.08L12.3801 23.81C12.3785 23.841 12.3845 23.8718 12.3975 23.8999C12.4106 23.9279 12.4303 23.9524 12.4549 23.9711C12.4796 23.9899 12.5084 24.0023 12.5389 24.0073C12.5695 24.0124 12.6008 24.0099 12.6301 24L22.0701 21.67C22.1058 21.6602 22.138 21.6406 22.1631 21.6135C22.1883 21.5864 22.2055 21.5528 22.2127 21.5166C22.22 21.4803 22.217 21.4427 22.2042 21.408C22.1914 21.3734 22.1692 21.3429 22.1401 21.32L20.3101 19.88L20.3201 19.8701Z" fill="#21A658"/>
<path d="M14 40V37C14.2921 37.0178 14.5741 37.1134 14.8167 37.277C15.0594 37.4405 15.2539 37.666 15.38 37.93C15.4617 38.0968 15.5883 38.2375 15.7455 38.3364C15.9026 38.4353 16.0843 38.4885 16.27 38.49C16.4302 38.491 16.5883 38.4534 16.7309 38.3806C16.8736 38.3077 16.9966 38.2016 17.0898 38.0713C17.1829 37.9409 17.2433 37.7901 17.266 37.6315C17.2886 37.4729 17.2729 37.3112 17.22 37.16C16.9414 36.5331 16.4912 35.9977 15.9215 35.6156C15.3518 35.2334 14.6857 35.02 14 35V34C14 33.7348 13.8946 33.4804 13.7071 33.2929C13.5196 33.1054 13.2652 33 13 33C12.7348 33 12.4804 33.1054 12.2929 33.2929C12.1054 33.4804 12 33.7348 12 34V35C11.0717 35 10.1815 35.3688 9.52513 36.0251C8.86875 36.6815 8.5 37.5717 8.5 38.5C8.5 39.4283 8.86875 40.3185 9.52513 40.9749C10.1815 41.6313 11.0717 42 12 42V45C11.7079 44.9822 11.4259 44.8866 11.1833 44.723C10.9406 44.5595 10.7461 44.334 10.62 44.07C10.5383 43.9032 10.4117 43.7625 10.2545 43.6636C10.0974 43.5647 9.91572 43.5115 9.73 43.51C9.56565 43.5007 9.40154 43.5321 9.25224 43.6014C9.10294 43.6707 8.97307 43.7759 8.87414 43.9074C8.77521 44.039 8.7103 44.193 8.68515 44.3556C8.66001 44.5183 8.67541 44.6847 8.73 44.84C9.01225 45.4744 9.4701 46.0149 10.0495 46.3976C10.6289 46.7804 11.3057 46.9894 12 47V48C12 48.2652 12.1054 48.5196 12.2929 48.7071C12.4804 48.8946 12.7348 49 13 49C13.2652 49 13.5196 48.8946 13.7071 48.7071C13.8946 48.5196 14 48.2652 14 48V47C14.9283 47 15.8185 46.6313 16.4749 45.9749C17.1313 45.3185 17.5 44.4283 17.5 43.5C17.5 42.5717 17.1313 41.6815 16.4749 41.0251C15.8185 40.3688 14.9283 40 14 40ZM10.5 38.5C10.5125 38.1061 10.6746 37.7318 10.9532 37.4532C11.2318 37.1746 11.6061 37.0125 12 37V40C11.6061 39.9875 11.2318 39.8254 10.9532 39.5468C10.6746 39.2682 10.5125 38.8939 10.5 38.5ZM14 45V42C14.3978 42 14.7794 42.158 15.0607 42.4393C15.342 42.7206 15.5 43.1022 15.5 43.5C15.5 43.8978 15.342 44.2794 15.0607 44.5607C14.7794 44.842 14.3978 45 14 45Z" fill="#CC9700"/>
<g clip-path="url(#clip0_407_6738)">
<path d="M48.6747 6.61279C49.1501 4.91253 48.7184 3.01196 47.3846 1.67417C46.054 0.349894 44.1741 -0.084113 42.485 0.374535L45.3481 3.2385L44.5962 6.04127L41.7894 6.79164L38.9247 3.93005C38.4684 5.62077 38.9032 7.49908 40.2323 8.82813C41.6217 10.22 43.6272 10.6293 45.3807 10.0578L45.3974 10.0737L57.176 21.8523C57.6418 22.3173 58.2531 22.5526 58.8636 22.5526C59.4756 22.5526 60.0837 22.3173 60.5511 21.8523C61.4827 20.9223 61.4827 19.4128 60.5511 18.4772L48.6747 6.61279ZM59.0686 21.4525C58.5671 21.4525 58.1617 21.0447 58.1617 20.5408C58.1617 20.0368 58.5671 19.6298 59.0686 19.6298C59.575 19.6298 59.9843 20.0368 59.9843 20.5408C59.9843 21.0447 59.575 21.4525 59.0686 21.4525Z" fill="#FFDA73"/>
</g>
<defs>
<clipPath id="clip0_407_6738">
<rect width="22.5" height="22.5" fill="white" transform="translate(38.75 0.125)"/>
</clipPath>
</defs>
</svg>
