<svg width="64" height="64" viewBox="0 0 64 64" fill="none" xmlns="http://www.w3.org/2000/svg">
<g clip-path="url(#clip0_4717_34277)">
<path d="M31.9989 63.9978C49.6714 63.9978 63.9978 49.6714 63.9978 31.9989C63.9978 14.3264 49.6714 0 31.9989 0C14.3264 0 0 14.3264 0 31.9989C0 49.6714 14.3264 63.9978 31.9989 63.9978Z" fill="#FFC000"/>
<path d="M5.15106 21.226C5.41007 18.8655 6.27272 16.6064 7.45519 14.5365C8.65118 12.4711 10.2075 10.5972 12.0207 9.02057C13.8315 7.44169 15.9014 6.15786 18.1132 5.25918C20.3273 4.37176 22.6855 3.83346 25.0594 3.91229C23.003 5.088 21.0615 6.17588 19.2281 7.40115C17.3925 8.6129 15.6672 9.91926 14.0343 11.336C12.4013 12.7549 10.8675 14.2843 9.41247 15.9352C7.94395 17.5817 6.59705 19.352 5.1488 21.226H5.15106Z" fill="#FFE8BB"/>
<path d="M64 32.0011C64 49.6729 49.6752 64.0022 31.9989 64.0022C22.3409 64.0022 13.6829 59.7228 7.81335 52.9545C13.4284 57.8443 20.771 60.7994 28.8006 60.7994C46.4724 60.7994 60.8017 46.4746 60.8017 28.7983C60.8017 20.7912 57.8624 13.4711 52.9974 7.85608C59.7386 13.7212 63.9978 22.3611 63.9978 31.9988L64 32.0011Z" fill="#F9B700"/>
<path d="M44.5173 54.4344C44.3349 54.4344 44.1547 54.3713 44.0218 54.2497C41.8663 52.3059 37.2918 50.9635 31.9989 50.9635C26.7059 50.9635 22.1314 52.3059 19.9759 54.2497C19.843 54.3691 19.6651 54.4344 19.4804 54.4344C19.0187 54.4344 18.6741 54.0335 18.7552 53.5988C19.566 49.2135 25.1856 45.8192 31.9989 45.8192C38.8122 45.8192 44.4317 49.2157 45.2426 53.5988C45.3237 54.0335 44.9768 54.4344 44.5173 54.4344Z" fill="#664100"/>
<path d="M41.8731 40.9497C44.2067 40.9497 46.0985 38.2229 46.0985 34.8593C46.0985 31.4958 44.2067 28.769 41.8731 28.769C39.5395 28.769 37.6477 31.4958 37.6477 34.8593C37.6477 38.2229 39.5395 40.9497 41.8731 40.9497Z" fill="#664100"/>
<path d="M22.1269 40.9497C24.4605 40.9497 26.3522 38.2229 26.3522 34.8593C26.3522 31.4958 24.4605 28.769 22.1269 28.769C19.7933 28.769 17.9015 31.4958 17.9015 34.8593C17.9015 38.2229 19.7933 40.9497 22.1269 40.9497Z" fill="#664100"/>
<path d="M37.5599 33.5642C37.0802 33.5642 36.6072 33.3525 36.2873 32.9449C35.7378 32.2421 35.8616 31.2286 36.5621 30.679C40.7695 27.3838 45.8417 25.5482 51.6415 25.2216C52.5312 25.1766 53.2947 25.8523 53.3442 26.7419C53.3938 27.6316 52.7136 28.3951 51.8239 28.4447C46.6976 28.733 42.2312 30.3389 38.5554 33.2196C38.2604 33.4516 37.909 33.5642 37.5622 33.5642H37.5599Z" fill="#664100"/>
<path d="M26.4401 33.5642C26.9198 33.5642 27.3928 33.3525 27.7126 32.9449C28.2622 32.2421 28.1383 31.2286 27.4379 30.679C23.2305 27.3838 18.1583 25.5482 12.3585 25.2216C11.4688 25.1766 10.7053 25.8523 10.6557 26.7419C10.6062 27.6316 11.2864 28.3951 12.1761 28.4447C17.3024 28.733 21.7687 30.3389 25.4446 33.2196C25.7396 33.4516 26.091 33.5642 26.4378 33.5642H26.4401Z" fill="#664100"/>
</g>
<defs>
<clipPath id="clip0_4717_34277">
<rect width="64" height="64" fill="white"/>
</clipPath>
</defs>
</svg>
