<svg width="64" height="64" viewBox="0 0 64 64" fill="none" xmlns="http://www.w3.org/2000/svg">
<g clip-path="url(#clip0_4717_34322)">
<path d="M31.9989 63.9978C49.6714 63.9978 63.9978 49.6714 63.9978 31.9989C63.9978 14.3264 49.6714 0 31.9989 0C14.3264 0 0 14.3264 0 31.9989C0 49.6714 14.3264 63.9978 31.9989 63.9978Z" fill="#FFC000"/>
<path d="M5.15118 21.226C5.4102 18.8655 6.27284 16.6064 7.45531 14.5365C8.6513 12.4711 10.2077 10.5972 12.0208 9.02057C13.8317 7.44169 15.9016 6.15786 18.1133 5.25918C20.3274 4.37176 22.6856 3.83346 25.0595 3.91229C23.0032 5.088 21.0616 6.17588 19.2283 7.40115C17.3926 8.6129 15.6673 9.91926 14.0344 11.336C12.4014 12.7549 10.8676 14.2843 9.41259 15.9352C7.94407 17.5817 6.59718 19.352 5.14893 21.226H5.15118Z" fill="#FFE8BB"/>
<path d="M63.9999 32.0011C63.9999 49.6729 49.6751 64.0022 31.9988 64.0022C22.3408 64.0022 13.6828 59.7228 7.81323 52.9545C13.4283 57.8443 20.7709 60.7994 28.8005 60.7994C46.4723 60.7994 60.8016 46.4746 60.8016 28.7983C60.8016 20.7912 57.8623 13.4711 52.9973 7.85608C59.7385 13.7212 63.9976 22.3611 63.9976 31.9988L63.9999 32.0011Z" fill="#F9B700"/>
<path d="M16.602 37.2468C13.9488 36.7017 11.6807 39.1635 12.4374 41.765C14.9037 50.2405 22.7283 56.4344 32.0012 56.4344C41.274 56.4344 49.0964 50.2405 51.5649 41.7672C52.3217 39.1658 50.0536 36.704 47.4004 37.2491C37.1343 39.3595 26.8681 39.3595 16.6043 37.2491L16.602 37.2468Z" fill="#664100"/>
<path d="M32.0012 48.8395C35.9383 48.8395 39.9182 48.5377 43.8755 47.9386C43.3417 48.4747 42.7719 48.9747 42.1683 49.4341C39.2267 51.673 35.7108 52.8599 32.0012 52.8599C28.2917 52.8599 24.7758 51.6752 21.8342 49.4341C21.2306 48.9747 20.6608 48.4747 20.127 47.9386C24.0843 48.5377 28.0642 48.8395 32.0012 48.8395Z" fill="white"/>
<path d="M48.1346 40.7515C48.1346 40.7515 48.1346 40.7605 48.1301 40.765C47.7359 42.1254 47.1616 43.4317 46.4341 44.6502C41.6366 45.5354 36.7896 45.9791 32.0011 45.9791C27.2127 45.9791 22.3657 45.5332 17.5682 44.6502C16.8407 43.434 16.2663 42.1254 15.8722 40.765C15.8722 40.7605 15.8677 40.756 15.8677 40.7515C15.8677 40.7515 15.8677 40.7469 15.8722 40.7469C15.8767 40.7469 15.8789 40.7469 15.8857 40.7469C21.2305 41.8461 26.6541 42.4024 32.0034 42.4024C37.3527 42.4024 42.7763 41.8461 48.1211 40.7469C48.1256 40.7469 48.1301 40.7469 48.1346 40.7469C48.1346 40.7469 48.1346 40.7515 48.1391 40.7515H48.1346Z" fill="white"/>
<path d="M35.6749 31.9291C35.5465 31.9291 35.4158 31.9133 35.2852 31.8818C34.4226 31.6678 33.8978 30.7961 34.1117 29.9335C35.069 26.0797 37.7493 23.4918 40.7831 23.4918C43.817 23.4918 46.4996 26.0797 47.4568 29.9335C47.6708 30.7961 47.146 31.6678 46.2833 31.8818C45.4207 32.0957 44.549 31.5709 44.3351 30.7083C43.7517 28.3524 42.29 26.7082 40.7854 26.7082C39.2808 26.7082 37.8213 28.3524 37.2357 30.7083C37.0533 31.4403 36.3979 31.9291 35.6749 31.9291Z" fill="#664100"/>
<path d="M18.1043 31.9291C17.9759 31.9291 17.8453 31.9133 17.7146 31.8818C16.852 31.6678 16.3272 30.7961 16.5412 29.9335C17.4984 26.0797 20.1787 23.4918 23.2126 23.4918C26.2465 23.4918 28.929 26.0797 29.8862 29.9335C30.1002 30.7961 29.5754 31.6678 28.7128 31.8818C27.8501 32.0957 26.9785 31.5709 26.7645 30.7083C26.1812 28.3524 24.7194 26.7082 23.2148 26.7082C21.7103 26.7082 20.2508 28.3524 19.6652 30.7083C19.4827 31.4403 18.8273 31.9291 18.1043 31.9291Z" fill="#664100"/>
</g>
<defs>
<clipPath id="clip0_4717_34322">
<rect width="64" height="64" fill="white"/>
</clipPath>
</defs>
</svg>
