<svg width="21" height="20" viewBox="0 0 21 20" fill="none" xmlns="http://www.w3.org/2000/svg">
<path d="M12.7642 19.7869H2.69146C0.955364 19.8361 -0.470248 17.9673 0.146166 16.3282C0.667508 14.812 1.56459 13.4517 2.75408 12.3738C3.94357 11.2959 5.38689 10.5353 6.94998 10.1627C1.81598 7.75851 3.42232 0.0817414 9.17301 0C14.9194 0.0837088 16.5307 7.74755 11.4034 10.1589C11.7285 10.2366 12.0489 10.3328 12.3631 10.4468C12.2385 10.5434 12.1196 10.647 12.0069 10.7571C11.3667 11.3517 10.8702 12.0836 10.5548 12.8974C10.2395 13.7113 10.1135 14.586 10.1864 15.4555C10.2593 16.325 10.5292 17.1666 10.9758 17.9169C11.4223 18.6672 12.0338 19.3066 12.7642 19.7869ZM21 14.971C21 15.9657 20.7043 16.938 20.1503 17.765C19.5962 18.592 18.8088 19.2366 17.8875 19.6172C16.9662 19.9978 15.9524 20.0974 14.9744 19.9034C13.9963 19.7093 13.0979 19.2304 12.3928 18.527C11.6877 17.8237 11.2075 16.9276 11.0129 15.9521C10.8184 14.9766 10.9182 13.9654 11.2999 13.0465C11.6815 12.1276 12.3277 11.3422 13.1569 10.7896C13.986 10.237 14.9608 9.94203 15.958 9.94203C17.295 9.94285 18.577 10.473 19.5223 11.4159C20.4677 12.3588 20.9992 13.6375 21 14.971ZM19.9316 15.2701C19.9782 15.2349 20.016 15.1894 20.042 15.1372C20.068 15.085 20.0816 15.0275 20.0816 14.9692C20.0816 14.9108 20.068 14.8533 20.042 14.8011C20.016 14.7489 19.9782 14.7034 19.9316 14.6682C19.8304 14.5934 17.4463 12.8435 15.958 12.8435C14.4736 12.8435 12.0894 14.5934 11.9882 14.6682C11.9406 14.7027 11.9018 14.7479 11.8751 14.8003C11.8484 14.8526 11.8345 14.9104 11.8345 14.9692C11.8345 15.0279 11.8484 15.0857 11.8751 15.138C11.9018 15.1904 11.9406 15.2356 11.9882 15.2701C12.0894 15.3449 14.4736 17.0948 15.958 17.0948C17.4463 17.0948 19.8304 15.3449 19.9316 15.2701ZM15.958 13.5913C16.809 13.5913 18.2297 14.4177 19.0544 14.971C18.2297 15.5206 16.809 16.347 15.958 16.347C15.1071 16.347 13.6863 15.5207 12.8616 14.971C13.6863 14.4177 15.1071 13.5913 15.958 13.5913ZM15.958 13.9727C15.6953 13.9761 15.4445 14.0826 15.26 14.2691C15.0754 14.4556 14.9719 14.7071 14.9719 14.9691C14.9719 15.2312 15.0754 15.4827 15.26 15.6692C15.4445 15.8557 15.6953 15.9622 15.958 15.9656C16.2207 15.9622 16.4715 15.8557 16.6561 15.6692C16.8407 15.4827 16.9441 15.2312 16.9441 14.9692C16.9442 14.7071 16.8407 14.4556 16.6561 14.2691C16.4715 14.0826 16.2207 13.9761 15.958 13.9727ZM16.2092 14.971C16.2084 14.9056 16.1818 14.8431 16.1352 14.7971C16.0885 14.751 16.0255 14.7252 15.9599 14.7252C15.8943 14.7252 15.8313 14.751 15.7846 14.797C15.738 14.843 15.7114 14.9055 15.7106 14.971C15.7112 15.0365 15.7378 15.0992 15.7844 15.1453C15.8311 15.1914 15.8942 15.2173 15.9599 15.2173C16.0256 15.2173 16.0886 15.1914 16.1353 15.1453C16.182 15.0992 16.2085 15.0365 16.2092 14.971Z" fill="url(#paint0_linear_3895_15682)"/>
<defs>
<linearGradient id="paint0_linear_3895_15682" x1="-3.89144e-05" y1="9.99813" x2="21" y2="9.99813" gradientUnits="userSpaceOnUse">
<stop stop-color="#FFDE00"/>
<stop offset="1" stop-color="#FD5900"/>
</linearGradient>
</defs>
</svg>
