<svg width="55" height="51" viewBox="0 0 55 51" fill="none" xmlns="http://www.w3.org/2000/svg">
<g clip-path="url(#clip0_835_26)">
<path d="M34 8.71883V42.2811C34 42.6787 33.574 43 33.0489 43H3.95113C3.42604 42.9999 3 42.6787 3 42.2811V8.71883C3 8.32125 3.42604 8 3.95113 8H33.049C33.574 8 34 8.32125 34 8.71883Z" fill="#784343"/>
<path d="M32.9848 7.20947V40.7905C32.9848 41.1883 32.5553 41.5098 32.0258 41.5098H2.68715C2.15772 41.5098 1.72815 41.1883 1.72815 40.7905V7.20947C1.72815 6.81166 2.15772 6.49023 2.68715 6.49023H32.0259C32.5553 6.49023 32.9848 6.81166 32.9848 7.20947Z" fill="#F8F3F1"/>
<path d="M10.4985 16.6631H6.83101C6.26541 16.6631 5.80688 16.204 5.80688 15.6377V11.9658C5.80688 11.3995 6.26541 10.9404 6.83101 10.9404H10.4985C11.0641 10.9404 11.5226 11.3995 11.5226 11.9658V15.6376C11.5226 16.204 11.0641 16.6631 10.4985 16.6631Z" fill="#35BCC7"/>
<path d="M11.5229 11.966V15.6377C11.5229 16.2037 11.0641 16.663 10.4988 16.663H7.85974C8.42506 16.663 8.88386 16.2037 8.88386 15.6377V11.966C8.88386 11.4 8.42506 10.9407 7.85974 10.9407H10.4988C11.0641 10.9407 11.5229 11.4 11.5229 11.966Z" fill="#20ABB9"/>
<path d="M8.63512 15.1835C8.45121 15.1835 8.2672 15.1132 8.12683 14.9727L7.35136 14.1963C7.0707 13.9153 7.0707 13.4597 7.35136 13.1786C7.63212 12.8976 8.0871 12.8976 8.36795 13.1786L8.63512 13.4462L11.6651 10.4125C11.9458 10.1315 12.4008 10.1315 12.6817 10.4125C12.9623 10.6935 12.9623 11.1492 12.6817 11.4302L9.14341 14.9727C9.00304 15.1133 8.81903 15.1835 8.63512 15.1835Z" fill="#FDD330"/>
<path d="M17.9327 14.7091H15.6656C15.2686 14.7091 14.9469 14.3869 14.9469 13.9895C14.9469 13.5921 15.2687 13.2699 15.6656 13.2699H17.9327C18.3297 13.2699 18.6514 13.5921 18.6514 13.9895C18.6515 14.3869 18.3297 14.7091 17.9327 14.7091Z" fill="#C9C0C7"/>
<path d="M28.542 17.3826H15.6656C15.2686 17.3826 14.9469 17.0605 14.9469 16.6631C14.9469 16.2656 15.2687 15.9435 15.6656 15.9435H28.542C28.939 15.9435 29.2607 16.2656 29.2607 16.6631C29.2608 17.0604 28.939 17.3826 28.542 17.3826Z" fill="#C9C0C7"/>
<path d="M10.4985 27.1207H6.83101C6.26541 27.1207 5.80688 26.6617 5.80688 26.0954V22.4235C5.80688 21.8573 6.26541 21.3982 6.83101 21.3982H10.4985C11.0641 21.3982 11.5226 21.8573 11.5226 22.4235V26.0954C11.5226 26.6618 11.0641 27.1207 10.4985 27.1207Z" fill="#FCA62F"/>
<path d="M11.5229 22.4238V26.0954C11.5229 26.6614 11.0641 27.1208 10.4988 27.1208H7.85974C8.42506 27.1208 8.88386 26.6614 8.88386 26.0954V22.4238C8.88386 21.8578 8.42506 21.3984 7.85974 21.3984H10.4988C11.0641 21.3984 11.5229 21.8578 11.5229 22.4238Z" fill="#F98824"/>
<path d="M17.9327 25.1668H15.6656C15.2686 25.1668 14.9469 24.8447 14.9469 24.4472C14.9469 24.0498 15.2687 23.7277 15.6656 23.7277H17.9327C18.3297 23.7277 18.6514 24.0498 18.6514 24.4472C18.6515 24.8446 18.3297 25.1668 17.9327 25.1668Z" fill="#C9C0C7"/>
<path d="M28.542 27.8404H15.6656C15.2686 27.8404 14.9469 27.5182 14.9469 27.1208C14.9469 26.7234 15.2687 26.4012 15.6656 26.4012H28.542C28.939 26.4012 29.2607 26.7234 29.2607 27.1208C29.2608 27.5182 28.939 27.8404 28.542 27.8404Z" fill="#C9C0C7"/>
<path d="M10.4985 36.4478H6.83101C6.26541 36.4478 5.80688 35.9887 5.80688 35.4224V31.7506C5.80688 31.1843 6.26541 30.7252 6.83101 30.7252H10.4985C11.0641 30.7252 11.5226 31.1843 11.5226 31.7506V35.4224C11.5226 35.9887 11.0641 36.4478 10.4985 36.4478Z" fill="#FEE265"/>
<path d="M11.5229 31.7507V35.4223C11.5229 35.9883 11.0641 36.4477 10.4988 36.4477H7.85974C8.42506 36.4477 8.88386 35.9883 8.88386 35.4223V31.7507C8.88386 31.1847 8.42506 30.7253 7.85974 30.7253H10.4988C11.0641 30.7253 11.5229 31.1847 11.5229 31.7507Z" fill="#FDD330"/>
<path d="M17.9327 34.4938H15.6656C15.2686 34.4938 14.9469 34.1717 14.9469 33.7743C14.9469 33.3769 15.2687 33.0547 15.6656 33.0547H17.9327C18.3297 33.0547 18.6514 33.3769 18.6514 33.7743C18.6515 34.1716 18.3297 34.4938 17.9327 34.4938Z" fill="#C9C0C7"/>
<path d="M28.542 37.1673H15.6656C15.2686 37.1673 14.9469 36.8451 14.9469 36.4477C14.9469 36.0503 15.2687 35.7281 15.6656 35.7281H28.542C28.939 35.7281 29.2607 36.0503 29.2607 36.4477C29.2607 36.8451 28.939 37.1673 28.542 37.1673Z" fill="#C9C0C7"/>
</g>
<defs>
<clipPath id="clip0_835_26">
<rect width="53.7485" height="51" fill="white" transform="translate(0.646606)"/>
</clipPath>
</defs>
</svg>
