<svg width="24" height="24" viewBox="0 0 24 24" fill="none" xmlns="http://www.w3.org/2000/svg">
<g id="workflow(1) 1">
<g id="Layer_x0020_1">
<g id="_296878184">
<g id="Group">
<path id="Vector" fill-rule="evenodd" clip-rule="evenodd" d="M17.244 12.276H14.928C14.772 12.276 14.652 12.156 14.652 12C14.652 11.844 14.772 11.724 14.928 11.724H17.244C17.4 11.724 17.532 11.844 17.532 12C17.532 12.156 17.4 12.276 17.244 12.276Z" fill="#CCCCCC"/>
<path id="Vector_2" fill-rule="evenodd" clip-rule="evenodd" d="M17.244 19.98H13.296C13.14 19.98 13.008 19.86 13.008 19.704V13.632C13.008 13.476 13.14 13.356 13.296 13.356C13.44 13.356 13.572 13.476 13.572 13.632V19.428H17.244C17.4 19.428 17.532 19.548 17.532 19.704C17.532 19.86 17.4 19.98 17.244 19.98ZM13.296 10.644C13.14 10.644 13.008 10.524 13.008 10.368V4.29602C13.008 4.14002 13.14 4.02002 13.296 4.02002H17.244C17.4 4.02002 17.532 4.14002 17.532 4.29602C17.532 4.45202 17.4 4.57202 17.244 4.57202H13.572V10.368C13.572 10.524 13.44 10.644 13.296 10.644Z" fill="#CCCCCC"/>
<path id="Vector_3" fill-rule="evenodd" clip-rule="evenodd" d="M11.652 12.276H9.31199C9.15599 12.276 9.02399 12.156 9.02399 12C9.02399 11.844 9.15599 11.724 9.31199 11.724H11.652C11.808 11.724 11.94 11.844 11.94 12C11.94 12.156 11.808 12.276 11.652 12.276Z" fill="#CCCCCC"/>
<path id="Vector_4" fill-rule="evenodd" clip-rule="evenodd" d="M6.29999 19.032C6.14399 19.032 6.02399 18.912 6.02399 18.756V16.5C6.02399 16.344 6.14399 16.224 6.29999 16.224C6.45599 16.224 6.58799 16.344 6.58799 16.5V18.756C6.58799 18.912 6.45599 19.032 6.29999 19.032Z" fill="#CCCCCC"/>
<path id="Vector_5" fill-rule="evenodd" clip-rule="evenodd" d="M6.29999 7.77602C6.14399 7.77602 6.02399 7.65602 6.02399 7.50002V5.24402C6.02399 5.08802 6.14399 4.96802 6.29999 4.96802C6.45599 4.96802 6.58799 5.08802 6.58799 5.24402V7.50002C6.58799 7.65602 6.45599 7.77602 6.29999 7.77602Z" fill="#CCCCCC"/>
</g>
<path id="Vector_6" fill-rule="evenodd" clip-rule="evenodd" d="M6.37201 21.468C5.54401 21.468 4.87201 20.796 4.87201 19.968C4.87201 19.152 5.54401 18.48 6.37201 18.48C7.20001 18.48 7.87201 19.152 7.87201 19.968C7.87201 20.796 7.20001 21.468 6.37201 21.468Z" fill="#FBAB2D"/>
<path id="Vector_7" fill-rule="evenodd" clip-rule="evenodd" d="M6.37201 5.51998C5.54401 5.51998 4.87201 4.84798 4.87201 4.03198C4.87201 3.20398 5.54401 2.53198 6.37201 2.53198C7.20001 2.53198 7.87201 3.20398 7.87201 4.03198C7.87201 4.84798 7.20001 5.51998 6.37201 5.51998Z" fill="#FBAB2D"/>
<path id="Vector_8" fill-rule="evenodd" clip-rule="evenodd" d="M7.02001 16.776H5.59201C5.46001 16.776 5.34001 16.692 5.31601 16.56L4.96801 15C4.76401 14.904 4.56001 14.796 4.36801 14.652L2.84401 15.132C2.72401 15.18 2.59201 15.12 2.52001 15.012L1.81201 13.776C1.74001 13.656 1.76401 13.512 1.86001 13.428L3.03601 12.348C3.02401 12.228 3.02401 12.12 3.02401 12C3.02401 11.88 3.02401 11.772 3.03601 11.652L1.86001 10.572C1.76401 10.488 1.74001 10.344 1.81201 10.224L2.52001 8.988C2.59201 8.88 2.72401 8.82 2.84401 8.868L4.36801 9.348C4.56001 9.204 4.76401 9.096 4.96801 9L5.31601 7.44C5.34001 7.308 5.46001 7.224 5.59201 7.224H7.02001C7.15201 7.224 7.26001 7.308 7.29601 7.44L7.63201 9C7.84801 9.096 8.05201 9.204 8.23201 9.348L9.75601 8.868C9.88801 8.82 10.02 8.88 10.092 8.988L10.8 10.224C10.86 10.344 10.848 10.488 10.752 10.572L9.57601 11.652C9.58801 11.772 9.58801 11.88 9.58801 12C9.58801 12.12 9.58801 12.228 9.57601 12.348L10.752 13.428C10.848 13.512 10.86 13.656 10.8 13.776L10.092 15.012C10.02 15.12 9.88801 15.18 9.75601 15.132L8.23201 14.652C8.05201 14.796 7.84801 14.904 7.63201 15L7.29601 16.56C7.26001 16.692 7.15201 16.776 7.02001 16.776Z" fill="#2F4556"/>
<path id="Vector_9" fill-rule="evenodd" clip-rule="evenodd" d="M6.29999 13.572C5.43599 13.572 4.73999 12.864 4.73999 12C4.73999 11.136 5.43599 10.428 6.29999 10.428C7.16399 10.428 7.87199 11.136 7.87199 12C7.87199 12.864 7.16399 13.572 6.29999 13.572Z" fill="white"/>
<path id="Vector_10" fill-rule="evenodd" clip-rule="evenodd" d="M13.296 13.92C12.24 13.92 11.376 13.056 11.376 12C11.376 10.944 12.24 10.08 13.296 10.08C14.352 10.08 15.204 10.944 15.204 12C15.204 13.056 14.352 13.92 13.296 13.92Z" fill="#FBAB2D"/>
<path id="Vector_11" fill-rule="evenodd" clip-rule="evenodd" d="M21.948 6.05998H17.244C17.088 6.05998 16.968 5.93998 16.968 5.78398V2.80798C16.968 2.65198 17.088 2.53198 17.244 2.53198H21.948C22.104 2.53198 22.236 2.65198 22.236 2.80798V5.78398C22.236 5.93998 22.104 6.05998 21.948 6.05998Z" fill="#5FD7E5"/>
<path id="Vector_12" fill-rule="evenodd" clip-rule="evenodd" d="M21.948 13.764H17.244C17.088 13.764 16.968 13.644 16.968 13.488V10.512C16.968 10.356 17.088 10.236 17.244 10.236H21.948C22.104 10.236 22.236 10.356 22.236 10.512V13.488C22.236 13.644 22.104 13.764 21.948 13.764Z" fill="#2083E2"/>
<path id="Vector_13" fill-rule="evenodd" clip-rule="evenodd" d="M21.948 21.4679H17.244C17.088 21.4679 16.968 21.3479 16.968 21.1919V18.2159C16.968 18.0599 17.088 17.9399 17.244 17.9399H21.948C22.104 17.9399 22.236 18.0599 22.236 18.2159V21.1919C22.236 21.3479 22.104 21.4679 21.948 21.4679Z" fill="#FBC933"/>
<path id="Vector_14" fill-rule="evenodd" clip-rule="evenodd" d="M20.688 4.57202H18.504C18.348 4.57202 18.228 4.45202 18.228 4.29602C18.228 4.14002 18.348 4.02002 18.504 4.02002H20.688C20.844 4.02002 20.976 4.14002 20.976 4.29602C20.976 4.45202 20.844 4.57202 20.688 4.57202Z" fill="white"/>
<path id="Vector_15" fill-rule="evenodd" clip-rule="evenodd" d="M20.688 12.276H18.504C18.348 12.276 18.228 12.156 18.228 12C18.228 11.844 18.348 11.724 18.504 11.724H20.688C20.844 11.724 20.976 11.844 20.976 12C20.976 12.156 20.844 12.276 20.688 12.276Z" fill="white"/>
<path id="Vector_16" fill-rule="evenodd" clip-rule="evenodd" d="M20.688 19.98H18.504C18.348 19.98 18.228 19.86 18.228 19.704C18.228 19.548 18.348 19.428 18.504 19.428H20.688C20.844 19.428 20.976 19.548 20.976 19.704C20.976 19.86 20.844 19.98 20.688 19.98Z" fill="white"/>
</g>
</g>
</g>
</svg>
