<svg width="24" height="24" viewBox="0 0 24 24" fill="none" xmlns="http://www.w3.org/2000/svg">
<g id="workflow(1) 1" clip-path="url(#clip0_200_4826)">
<g id="Layer_x0020_1">
<g id="_296878184">
<g id="Group 242">
<g id="Group">
<path id="Vector" fill-rule="evenodd" clip-rule="evenodd" d="M12.5038 12.276H10.1878C10.0318 12.276 9.9118 12.156 9.9118 12C9.9118 11.844 10.0318 11.724 10.1878 11.724H12.5038C12.6598 11.724 12.7918 11.844 12.7918 12C12.7918 12.156 12.6598 12.276 12.5038 12.276Z" fill="#CCCCCC"/>
<path id="Vector_2" fill-rule="evenodd" clip-rule="evenodd" d="M12.5038 19.98H8.55582C8.39982 19.98 8.26782 19.86 8.26782 19.704V13.632C8.26782 13.476 8.39982 13.356 8.55582 13.356C8.69982 13.356 8.83182 13.476 8.83182 13.632V19.428H12.5038C12.6598 19.428 12.7918 19.548 12.7918 19.704C12.7918 19.86 12.6598 19.98 12.5038 19.98ZM8.55582 10.644C8.39982 10.644 8.26782 10.524 8.26782 10.368V4.29602C8.26782 4.14002 8.39982 4.02002 8.55582 4.02002H12.5038C12.6598 4.02002 12.7918 4.14002 12.7918 4.29602C12.7918 4.45202 12.6598 4.57202 12.5038 4.57202H8.83182V10.368C8.83182 10.524 8.69982 10.644 8.55582 10.644Z" fill="#CCCCCC"/>
</g>
<path id="Vector_3" fill-rule="evenodd" clip-rule="evenodd" d="M1.55976 13.572C0.695756 13.572 -0.000244141 12.864 -0.000244141 12C-0.000244141 11.136 0.695756 10.428 1.55976 10.428C2.42376 10.428 3.13176 11.136 3.13176 12C3.13176 12.864 2.42376 13.572 1.55976 13.572Z" fill="white"/>
<path id="Vector_4" fill-rule="evenodd" clip-rule="evenodd" d="M8.55599 13.9201C7.49999 13.9201 6.63599 13.0561 6.63599 12.0001C6.63599 10.9441 7.49999 10.0801 8.55599 10.0801C9.61199 10.0801 10.464 10.9441 10.464 12.0001C10.464 13.0561 9.61199 13.9201 8.55599 13.9201Z" fill="#FBAB2D"/>
<path id="Vector_5" fill-rule="evenodd" clip-rule="evenodd" d="M17.2078 6.05998H12.5038C12.3478 6.05998 12.2278 5.93998 12.2278 5.78398V2.80798C12.2278 2.65198 12.3478 2.53198 12.5038 2.53198H17.2078C17.3638 2.53198 17.4958 2.65198 17.4958 2.80798V5.78398C17.4958 5.93998 17.3638 6.05998 17.2078 6.05998Z" fill="#5FD7E5"/>
<path id="Vector_6" fill-rule="evenodd" clip-rule="evenodd" d="M17.2078 13.7641H12.5038C12.3478 13.7641 12.2278 13.6441 12.2278 13.4881V10.5121C12.2278 10.3561 12.3478 10.2361 12.5038 10.2361H17.2078C17.3638 10.2361 17.4958 10.3561 17.4958 10.5121V13.4881C17.4958 13.6441 17.3638 13.7641 17.2078 13.7641Z" fill="#2083E2"/>
<path id="Vector_7" fill-rule="evenodd" clip-rule="evenodd" d="M17.2078 21.4679H12.5038C12.3478 21.4679 12.2278 21.3479 12.2278 21.1919V18.2159C12.2278 18.0599 12.3478 17.9399 12.5038 17.9399H17.2078C17.3638 17.9399 17.4958 18.0599 17.4958 18.2159V21.1919C17.4958 21.3479 17.3638 21.4679 17.2078 21.4679Z" fill="#FBC933"/>
<path id="Vector_8" fill-rule="evenodd" clip-rule="evenodd" d="M15.9475 4.57202H13.7635C13.6075 4.57202 13.4875 4.45202 13.4875 4.29602C13.4875 4.14002 13.6075 4.02002 13.7635 4.02002H15.9475C16.1035 4.02002 16.2355 4.14002 16.2355 4.29602C16.2355 4.45202 16.1035 4.57202 15.9475 4.57202Z" fill="white"/>
<path id="Vector_9" fill-rule="evenodd" clip-rule="evenodd" d="M15.9475 12.2759H13.7635C13.6075 12.2759 13.4875 12.1559 13.4875 11.9999C13.4875 11.8439 13.6075 11.7239 13.7635 11.7239H15.9475C16.1035 11.7239 16.2355 11.8439 16.2355 11.9999C16.2355 12.1559 16.1035 12.2759 15.9475 12.2759Z" fill="white"/>
<path id="Vector_10" fill-rule="evenodd" clip-rule="evenodd" d="M15.9475 19.98H13.7635C13.6075 19.98 13.4875 19.86 13.4875 19.704C13.4875 19.548 13.6075 19.428 13.7635 19.428H15.9475C16.1035 19.428 16.2355 19.548 16.2355 19.704C16.2355 19.86 16.1035 19.98 15.9475 19.98Z" fill="white"/>
</g>
</g>
</g>
</g>
<defs>
<clipPath id="clip0_200_4826">
<rect width="24" height="24" fill="white"/>
</clipPath>
</defs>
</svg>
