<svg width="24" height="24" viewBox="0 0 24 24" fill="none" xmlns="http://www.w3.org/2000/svg">
<path d="M13.875 3H13.125V2.625C13.125 2.32663 13.0065 2.04048 12.7955 1.8295C12.5845 1.61853 12.2984 1.5 12 1.5C11.7016 1.5 11.4155 1.61853 11.2045 1.8295C10.9935 2.04048 10.875 2.32663 10.875 2.625V3H10.125V2.625C10.125 2.12772 10.3225 1.65081 10.6742 1.29917C11.0258 0.947544 11.5027 0.75 12 0.75C12.4973 0.75 12.9742 0.947544 13.3258 1.29917C13.6775 1.65081 13.875 2.12772 13.875 2.625V3Z" fill="#A1D51C"/>
<path d="M4.875 4.125H19.125V22.875H4.875V4.125Z" fill="#57B7EB"/>
<path d="M7.875 4.125H15V6.375H7.875V4.125Z" fill="#4891D3"/>
<path d="M7.5 14.25V4.125H4.875V22.875H19.125V20.25H13.5C11.9087 20.25 10.3826 19.6179 9.25736 18.4926C8.13214 17.3674 7.5 15.8413 7.5 14.25Z" fill="#4891D3"/>
<path d="M8.625 2.625H15.375V5.625H8.625V2.625Z" fill="#A1D51C"/>
<path d="M9.75 2.625H15.375V4.125H11.25C10.8522 4.125 10.4706 3.96696 10.1893 3.68566C9.90804 3.40436 9.75 3.02282 9.75 2.625Z" fill="#C4F236"/>
<path d="M6.75 8.25H9V10.5H6.75V8.25Z" fill="#C4F236"/>
<path d="M6.75 12.375H9V14.625H6.75V12.375Z" fill="#C4F236"/>
<path d="M6.75 16.5H9V18.75H6.75V16.5Z" fill="#C4F236"/>
<path d="M6.75 8.25H7.5V10.5H6.75V8.25Z" fill="#A1D51C"/>
<path d="M6.75 14.625H7.51875C7.51875 14.5013 7.5 14.3775 7.5 14.25V12.375H6.75V14.625Z" fill="#A1D51C"/>
<path d="M6.75 18.75H9V18.21C8.55381 17.7028 8.19515 17.1249 7.93875 16.5H6.75V18.75Z" fill="#A1D51C"/>
<path d="M7.875 18.3751C7.81678 18.3751 7.75937 18.3616 7.7073 18.3355C7.65523 18.3095 7.60993 18.2717 7.575 18.2251L6.45 16.7251C6.39033 16.6456 6.36471 16.5456 6.37877 16.4471C6.39284 16.3486 6.44544 16.2598 6.525 16.2001C6.60457 16.1405 6.70458 16.1148 6.80304 16.1289C6.90149 16.143 6.99033 16.1956 7.05 16.2751L7.95375 17.4826L10.2825 15.8214C10.3632 15.7736 10.459 15.7578 10.5508 15.7771C10.6426 15.7964 10.7239 15.8494 10.7785 15.9257C10.8331 16.002 10.8572 16.096 10.8459 16.1892C10.8346 16.2823 10.7888 16.3679 10.7175 16.4289L8.0925 18.3039C8.0292 18.3497 7.95316 18.3746 7.875 18.3751Z" fill="#F9E109"/>
<path d="M15 19.125H11.25C11.1505 19.125 11.0552 19.0855 10.9848 19.0152C10.9145 18.9448 10.875 18.8495 10.875 18.75C10.875 18.6505 10.9145 18.5552 10.9848 18.4848C11.0552 18.4145 11.1505 18.375 11.25 18.375H15C15.0995 18.375 15.1948 18.4145 15.2652 18.4848C15.3355 18.5552 15.375 18.6505 15.375 18.75C15.375 18.8495 15.3355 18.9448 15.2652 19.0152C15.1948 19.0855 15.0995 19.125 15 19.125Z" fill="#F9E109"/>
<path d="M13.125 17.625H11.25C11.1505 17.625 11.0552 17.5855 10.9848 17.5152C10.9145 17.4448 10.875 17.3495 10.875 17.25C10.875 17.1505 10.9145 17.0552 10.9848 16.9848C11.0552 16.9145 11.1505 16.875 11.25 16.875H13.125C13.2245 16.875 13.3198 16.9145 13.3902 16.9848C13.4605 17.0552 13.5 17.1505 13.5 17.25C13.5 17.3495 13.4605 17.4448 13.3902 17.5152C13.3198 17.5855 13.2245 17.625 13.125 17.625Z" fill="#F9E109"/>
<path d="M15 15H11.25C11.1505 15 11.0552 14.9605 10.9848 14.8902C10.9145 14.8198 10.875 14.7245 10.875 14.625C10.875 14.5255 10.9145 14.4302 10.9848 14.3598C11.0552 14.2895 11.1505 14.25 11.25 14.25H15C15.0995 14.25 15.1948 14.2895 15.2652 14.3598C15.3355 14.4302 15.375 14.5255 15.375 14.625C15.375 14.7245 15.3355 14.8198 15.2652 14.8902C15.1948 14.9605 15.0995 15 15 15Z" fill="#F9E109"/>
<path d="M13.125 13.5H11.25C11.1505 13.5 11.0552 13.4605 10.9848 13.3902C10.9145 13.3198 10.875 13.2245 10.875 13.125C10.875 13.0255 10.9145 12.9302 10.9848 12.8598C11.0552 12.7895 11.1505 12.75 11.25 12.75H13.125C13.2245 12.75 13.3198 12.7895 13.3902 12.8598C13.4605 12.9302 13.5 13.0255 13.5 13.125C13.5 13.2245 13.4605 13.3198 13.3902 13.3902C13.3198 13.4605 13.2245 13.5 13.125 13.5Z" fill="#F9E109"/>
<path d="M14.625 10.875H10.875C10.7755 10.875 10.6802 10.8355 10.6098 10.7652C10.5395 10.6948 10.5 10.5995 10.5 10.5C10.5 10.4005 10.5395 10.3052 10.6098 10.2348C10.6802 10.1645 10.7755 10.125 10.875 10.125H14.625C14.7245 10.125 14.8198 10.1645 14.8902 10.2348C14.9605 10.3052 15 10.4005 15 10.5C15 10.5995 14.9605 10.6948 14.8902 10.7652C14.8198 10.8355 14.7245 10.875 14.625 10.875Z" fill="#F9E109"/>
<path d="M13.5 9.375H10.875C10.7755 9.375 10.6802 9.33549 10.6098 9.26517C10.5395 9.19484 10.5 9.09946 10.5 9C10.5 8.90054 10.5395 8.80516 10.6098 8.73483C10.6802 8.66451 10.7755 8.625 10.875 8.625H13.5C13.5995 8.625 13.6948 8.66451 13.7652 8.73483C13.8355 8.80516 13.875 8.90054 13.875 9C13.875 9.09946 13.8355 9.19484 13.7652 9.26517C13.6948 9.33549 13.5995 9.375 13.5 9.375Z" fill="#F9E109"/>
<path d="M7.575 18.225C7.60993 18.2716 7.65522 18.3094 7.70729 18.3354C7.75937 18.3614 7.81678 18.375 7.875 18.375C7.95315 18.3745 8.0292 18.3496 8.0925 18.3038L8.715 17.8612C8.56473 17.6656 8.42575 17.4615 8.29875 17.25L7.95375 17.4975L7.05 16.275C7.02045 16.2356 6.98343 16.2024 6.94106 16.1773C6.89869 16.1522 6.85178 16.1357 6.80303 16.1288C6.75428 16.1218 6.70464 16.1245 6.65693 16.1367C6.60923 16.149 6.5644 16.1705 6.525 16.2C6.4856 16.2295 6.45241 16.2666 6.42732 16.3089C6.40223 16.3513 6.38573 16.3982 6.37877 16.447C6.3718 16.4957 6.37451 16.5454 6.38673 16.5931C6.39895 16.6408 6.42045 16.6856 6.45 16.725L7.575 18.225Z" fill="#FCBC04"/>
<path d="M17.1225 22.8748L19.785 20.2123L17.6625 18.0898L12.8775 22.8748H17.1225Z" fill="#FCBC04"/>
<path d="M17.6625 18.0898L16.5638 19.1886L16.83 19.4548C17.0407 19.6658 17.159 19.9517 17.159 20.2498C17.159 20.548 17.0407 20.8339 16.83 21.0448L16.2 21.6748C16.0626 21.8123 15.892 21.9119 15.7047 21.9638C15.5174 22.0157 15.3198 22.0182 15.1313 21.9711L14.0513 21.7011L12.8775 22.8748H17.1225L19.785 20.2123L17.6625 18.0898Z" fill="#E59730"/>
<path d="M22.4363 17.029L20.8463 18.6227L19.2525 17.029L20.8463 15.439C20.707 15.2995 20.5415 15.1889 20.3594 15.1134C20.1773 15.0379 19.9821 14.999 19.785 14.999C19.5879 14.999 19.3927 15.0379 19.2106 15.1134C19.0285 15.1889 18.8631 15.2995 18.7238 15.439L17.6625 16.5002C17.5231 16.6395 17.4124 16.8049 17.3369 16.987C17.2614 17.1691 17.2226 17.3643 17.2226 17.5615C17.2226 17.7586 17.2614 17.9538 17.3369 18.1359C17.4124 18.318 17.5231 18.4834 17.6625 18.6227L19.2525 20.2127C19.3918 20.3522 19.5573 20.4628 19.7394 20.5383C19.9215 20.6138 20.1167 20.6526 20.3138 20.6526C20.5109 20.6526 20.7061 20.6138 20.8882 20.5383C21.0703 20.4628 21.2357 20.3522 21.375 20.2127L22.4363 19.1515C22.5757 19.0121 22.6864 18.8467 22.7619 18.6646C22.8374 18.4825 22.8762 18.2873 22.8762 18.0902C22.8762 17.8931 22.8374 17.6979 22.7619 17.5158C22.6864 17.3337 22.5757 17.1683 22.4363 17.029Z" fill="#F9E109"/>
<path d="M22.4362 18.026L21.9037 18.5585C21.4819 18.9799 20.91 19.2166 20.3137 19.2166C19.7175 19.2166 19.1456 18.9799 18.7237 18.5585L17.6625 17.4973C17.5218 17.3535 17.4098 17.1842 17.3325 16.9985C17.2219 17.2717 17.1943 17.5713 17.253 17.8601C17.3116 18.1489 17.4541 18.414 17.6625 18.6223L19.2525 20.2123C19.3918 20.3517 19.5572 20.4624 19.7393 20.5379C19.9214 20.6134 20.1166 20.6522 20.3137 20.6522C20.5109 20.6522 20.7061 20.6134 20.8882 20.5379C21.0703 20.4624 21.2357 20.3517 21.375 20.2123L22.4362 19.151C22.6447 18.9427 22.7871 18.6776 22.8458 18.3889C22.9045 18.1001 22.8768 17.8004 22.7662 17.5273C22.6908 17.714 22.5786 17.8836 22.4362 18.026Z" fill="#FCBC04"/>
<path d="M17.6625 20.7415C17.7239 20.6697 17.756 20.5775 17.7524 20.4831C17.7488 20.3887 17.7096 20.2992 17.6428 20.2324C17.5761 20.1656 17.4865 20.1265 17.3922 20.1228C17.2978 20.1192 17.2055 20.1513 17.1338 20.2127L14.7338 22.609C14.699 22.644 14.6715 22.6856 14.6528 22.7313C14.6342 22.777 14.6247 22.8259 14.625 22.8752H15.5288L17.6625 20.7415Z" fill="#F9E109"/>
<path d="M17.6625 20.2124C17.5932 20.148 17.5021 20.1123 17.4075 20.1123C17.3129 20.1123 17.2219 20.148 17.1525 20.2124C17.1605 20.3683 17.1359 20.5241 17.0804 20.67C17.0249 20.8159 16.9396 20.9487 16.83 21.0598L16.2 21.6748C16.0884 21.7849 15.955 21.8705 15.8085 21.926C15.6619 21.9816 15.5053 22.0059 15.3488 21.9973L14.7338 22.6086C14.699 22.6436 14.6715 22.6852 14.6528 22.7309C14.6342 22.7766 14.6247 22.8255 14.625 22.8748H15.5288L17.6625 20.7411C17.7323 20.6708 17.7716 20.5758 17.7716 20.4767C17.7716 20.3777 17.7323 20.2826 17.6625 20.2124Z" fill="#FCBC04"/>
<path d="M20.4244 5.5459L21.7294 6.2959L17.9794 12.8209L16.6744 12.0709L20.4244 5.5459Z" fill="#A1D51C"/>
<path d="M16.3125 14.0173L16.6013 12.0186L17.8987 12.7686L16.3125 14.0173Z" fill="#F9E109"/>
<path d="M21.7508 4.60205C21.923 4.70151 22.0487 4.86532 22.1002 5.05745C22.1517 5.24958 22.1247 5.45429 22.0253 5.62655L21.6503 6.27605L20.3513 5.52605L20.7263 4.87655C20.8257 4.70429 20.9895 4.5786 21.1817 4.52712C21.3738 4.47564 21.5785 4.50259 21.7508 4.60205Z" fill="#F9E109"/>
<path d="M17.775 11.5873C17.6116 11.8763 17.3938 12.1309 17.1337 12.3373L17.8837 12.7798L21.6337 6.28479L21.03 5.93604L17.775 11.5873Z" fill="#7AB92D"/>
<path d="M16.4813 12.8399L16.3125 14.0174L17.8987 12.7687L17.1337 12.3262L16.4813 12.8399Z" fill="#FCBC04"/>
<path d="M21.75 4.60107C21.7387 4.69917 21.7068 4.79375 21.6562 4.87857L21.2812 5.52732L21.0525 5.92857L21.6562 6.27732L22.0312 5.62857C22.0807 5.54275 22.1126 5.44798 22.1252 5.34975C22.1379 5.25151 22.1309 5.15174 22.1047 5.05621C22.0786 4.96068 22.0338 4.87128 21.9729 4.79316C21.912 4.71504 21.8362 4.64976 21.75 4.60107Z" fill="#FCBC04"/>
<path d="M6.37498 6.375C6.37399 6.23794 6.36145 6.1012 6.33748 5.96625L7.08748 5.52375L6.33748 4.22625L5.58748 4.665C5.37616 4.48748 5.13489 4.34906 4.87498 4.25625V3.375H3.37498V4.25625C3.11506 4.34906 2.87379 4.48748 2.66248 4.665L1.91248 4.22625L1.16248 5.52375L1.91248 5.96625C1.86256 6.23646 1.86256 6.51354 1.91248 6.78375L1.16248 7.22625L1.91248 8.52375L2.66248 8.085C2.87379 8.26252 3.11506 8.40094 3.37498 8.49375V9.375H4.87498V8.49375C5.13489 8.40094 5.37616 8.26252 5.58748 8.085L6.33748 8.52375L7.08748 7.22625L6.33748 6.78375C6.36145 6.6488 6.37399 6.51206 6.37498 6.375ZM4.12498 7.125C3.97664 7.125 3.83163 7.08101 3.7083 6.9986C3.58496 6.91619 3.48883 6.79906 3.43207 6.66201C3.3753 6.52497 3.36045 6.37417 3.38939 6.22868C3.41833 6.0832 3.48976 5.94956 3.59465 5.84467C3.69954 5.73978 3.83317 5.66835 3.97866 5.63941C4.12414 5.61047 4.27494 5.62532 4.41199 5.68209C4.54903 5.73886 4.66617 5.83499 4.74858 5.95832C4.83099 6.08166 4.87498 6.22666 4.87498 6.375C4.87498 6.57391 4.79596 6.76468 4.65531 6.90533C4.51465 7.04598 4.32389 7.125 4.12498 7.125Z" fill="#C4F236"/>
<path d="M6.00003 7.87482C4.9889 7.87423 4.0132 7.50228 3.25827 6.82962C2.50334 6.15696 2.02177 5.23045 1.90503 4.22607L1.15503 5.52357L1.90503 5.96607C1.85511 6.23629 1.85511 6.51336 1.90503 6.78357L1.15503 7.22607L1.90503 8.52357L2.65503 8.08482C2.8686 8.26312 3.11247 8.40157 3.37503 8.49357V9.37482H4.87503V8.49357C5.13494 8.40076 5.37622 8.26235 5.58753 8.08482L6.33753 8.52357L6.75003 7.79982C6.50299 7.84868 6.25185 7.8738 6.00003 7.87482Z" fill="#A1D51C"/>
</svg>
