<svg width="34" height="34" viewBox="0 0 34 34" fill="none" xmlns="http://www.w3.org/2000/svg">
<circle cx="17" cy="17" r="17" fill="white"/>
<g clip-path="url(#clip0_7093_4883)">
<path d="M17 32C25.2843 32 32 25.2843 32 17C32 8.71573 25.2843 2 17 2C8.71573 2 2 8.71573 2 17C2 25.2843 8.71573 32 17 32Z" fill="#FF0000"/>
<path d="M21.9088 11.3572H12.0917C11.6993 11.3572 11.3109 11.4345 10.9484 11.5847C10.586 11.7349 10.2567 11.955 9.9794 12.2325C9.70209 12.51 9.48217 12.8394 9.33221 13.202C9.18226 13.5645 9.10521 13.953 9.10547 14.3453V19.6545C9.10521 20.0469 9.18226 20.4354 9.33221 20.7979C9.48217 21.1604 9.70209 21.4899 9.9794 21.7674C10.2567 22.0449 10.586 22.265 10.9484 22.4152C11.3109 22.5654 11.6993 22.6427 12.0917 22.6427H21.9088C22.3011 22.6427 22.6895 22.5654 23.052 22.4152C23.4144 22.265 23.7437 22.0449 24.021 21.7674C24.2983 21.4899 24.5182 21.1604 24.6682 20.7979C24.8182 20.4354 24.8952 20.0469 24.8949 19.6545V14.3453C24.8952 13.953 24.8182 13.5645 24.6682 13.202C24.5182 12.8394 24.2983 12.51 24.021 12.2325C23.7437 11.955 23.4144 11.7349 23.052 11.5847C22.6895 11.4345 22.3011 11.3572 21.9088 11.3572ZM14.9199 19.4197V14.5802L19.0805 16.9999L14.9199 19.4197Z" fill="white"/>
</g>
<defs>
<clipPath id="clip0_7093_4883">
<rect width="30" height="30" fill="white" transform="translate(2 2)"/>
</clipPath>
</defs>
</svg>
