<svg width="18" height="18" viewBox="0 0 18 18" fill="none" xmlns="http://www.w3.org/2000/svg">
<path d="M12.0445 11.25H12.8426L16.875 15.2824L15.2824 16.875L11.25 12.8426V12.0445L10.3113 11.1059C9.34101 11.9004 8.1 12.375 6.75 12.375C3.64219 12.375 1.125 9.85781 1.125 6.75C1.125 3.64219 3.64219 1.125 6.75 1.125C9.85781 1.125 12.375 3.64219 12.375 6.75C12.375 8.1 11.9004 9.34101 11.1059 10.3113L12.0445 11.25ZM6.75 2.25C4.26445 2.25 2.25 4.26445 2.25 6.75C2.25 9.23555 4.26445 11.25 6.75 11.25C9.23555 11.25 11.25 9.23555 11.25 6.75C11.25 4.26445 9.23555 2.25 6.75 2.25Z" fill="#212121"/>
</svg>
